<?xml version="1.0" encoding="UTF-8"?>
<!DOCTYPE svg  PUBLIC '-//W3C//DTD SVG 1.1//EN'  'http://www.w3.org/Graphics/SVG/1.1/DTD/svg11.dtd'>
<svg enable-background="new 0 0 1440 811" version="1.1" viewBox="0 0 1440 811" xml:space="preserve" xmlns="http://www.w3.org/2000/svg">
<rect x=".5" width="1438" height="811" fill="#FBDE66"/>
<title>BG_icon1</title>
<desc>Created with Sketch.</desc>
<path d="m117.83 638.35c-3.579-0.38-7.153 0.837-10.724 3.65-0.987 0.778-1.859 1.743-2.617 2.896s-1.348 2.369-1.773 3.647c-0.426 1.279-0.756 2.425-0.991 3.437-0.234 1.013-0.414 2.032-0.535 3.058-1.023-0.121-2.06-0.187-3.098-0.192s-2.229 0.048-3.571 0.163c-1.342 0.114-2.663 0.406-3.961 0.875-1.298 0.468-2.438 1.092-3.427 1.869-3.569 2.814-5.586 6.008-6.052 9.578-0.466 3.569 0.683 7.109 3.445 10.613 0.842 1.066 1.896 2.021 3.161 2.854 1.268 0.839 2.452 1.465 3.56 1.886 1.105 0.42 2.259 0.769 3.462 1.047 1.203 0.282 2.055 0.455 2.561 0.521 0.503 0.067 0.888 0.104 1.147 0.104l26.251 2.629c0.513 0.061 0.976-0.072 1.391-0.398 0.413-0.326 0.65-0.746 0.712-1.259l3.582-26.079c0.772-6.524-0.229-11.548-3.007-15.068-2.762-3.506-5.935-5.45-9.516-5.831zm8.673 20.29l-3.328 24.289-24.433-2.437c-5.327-0.63-9.046-2.283-11.156-4.959-1.018-1.292-1.743-2.563-2.181-3.823-0.437-1.258-0.617-2.388-0.541-3.391 0.074-1.002 0.35-1.988 0.825-2.959 0.477-0.968 1.03-1.805 1.663-2.511 0.631-0.705 1.363-1.385 2.189-2.038 0.828-0.653 1.882-1.153 3.157-1.501 1.274-0.348 2.559-0.532 3.846-0.553 1.289-0.021 2.43 0.01 3.424 0.09 0.995 0.082 1.858 0.195 2.592 0.34 0.562 0.124 1.091-8e-3 1.586-0.396 0.493-0.391 0.745-0.873 0.758-1.448 0.029-0.748 0.12-1.615 0.273-2.603 0.152-0.983 0.389-2.103 0.71-3.351 0.322-1.246 0.799-2.452 1.437-3.61 0.635-1.161 1.366-2.066 2.193-2.722 0.828-0.653 1.659-1.203 2.493-1.654 0.833-0.451 1.777-0.794 2.83-1.03 1.053-0.235 2.076-0.272 3.068-0.114 0.991 0.162 2.048 0.602 3.17 1.318 1.12 0.718 2.188 1.723 3.207 3.012 2.112 2.678 2.851 6.696 2.218 12.051z" fill="#fff" fill-opacity=".4"/>
<path d="m253.03 730.08c-0.531 0.058-0.832 0.089-0.896 0.091-0.074 0.016-0.123 0.054-0.146 0.106-0.15 0.341-0.222 1.437-0.212 3.285-0.371 0.211-0.732 0.477-1.087 0.79-2.121-0.697-3.229-0.938-3.326-0.72l-1.271 2.861c-0.098 0.22 0.824 0.881 2.764 1.988 0 0.441 0.047 0.886 0.143 1.337-1.379 1.23-2.146 2.018-2.297 2.357-0.025 0.055-0.02 0.114 0.018 0.18 1.232 1.706 1.863 2.566 1.891 2.579 0.107 0.048 0.564-0.133 1.367-0.543 0.804-0.412 1.363-0.718 1.681-0.917 0.262 0.146 0.46 0.252 0.596 0.312 0.138 0.061 0.348 0.137 0.632 0.23 0.063 0.37 0.214 0.992 0.446 1.863 0.232 0.869 0.402 1.329 0.513 1.379 0.027 0.012 1.087-0.096 3.181-0.324 0.071-0.019 0.12-0.052 0.146-0.107 0.148-0.341 0.222-1.436 0.21-3.283 0.396-0.233 0.759-0.496 1.087-0.792 2.121 0.697 3.23 0.938 3.329 0.722l1.271-2.863c0.098-0.218-0.824-0.881-2.765-1.987-2e-3 -0.476-0.049-0.921-0.141-1.338 1.379-1.23 2.145-2.016 2.298-2.356 0.021-0.056 0.017-0.113-0.021-0.181-1.211-1.682-1.845-2.533-1.898-2.559l-0.142-0.014c-0.808 0.312-1.771 0.796-2.896 1.456-0.263-0.149-0.46-0.255-0.596-0.315-0.139-0.061-0.35-0.137-0.634-0.23-0.062-0.371-0.212-0.988-0.448-1.854-0.236-0.864-0.408-1.32-0.519-1.369-0.028-0.012-0.28 7e-3 -0.759 0.057-0.484 0.048-0.988 0.102-1.519 0.159zm2.71 5.857c0.709 0.314 1.205 0.847 1.494 1.594 0.287 0.749 0.272 1.479-0.042 2.188-0.319 0.723-0.85 1.226-1.589 1.509-0.738 0.285-1.469 0.266-2.188-0.056-0.725-0.32-1.227-0.852-1.511-1.59-0.283-0.737-0.266-1.468 0.058-2.19 0.312-0.708 0.845-1.205 1.593-1.494 0.746-0.289 1.476-0.275 2.185 0.039z" fill="#fff" fill-opacity=".4"/>
<path d="m258.16 717.55c0 0.439 0.046 0.886 0.141 1.336-1.379 1.229-2.146 2.017-2.298 2.356-0.022 0.056-0.019 0.115 0.021 0.182 1.231 1.706 1.86 2.564 1.89 2.578 0.107 0.048 0.563-0.134 1.367-0.544 0.803-0.409 1.361-0.717 1.681-0.916 0.262 0.146 0.459 0.254 0.597 0.312 0.135 0.061 0.346 0.138 0.629 0.231 0.065 0.371 0.214 0.991 0.446 1.863 0.232 0.871 0.405 1.329 0.513 1.379 0.028 0.014 1.087-0.097 3.182-0.324 0.072-0.018 0.119-0.053 0.146-0.106 0.151-0.341 0.222-1.437 0.211-3.286 0.396-0.229 0.758-0.495 1.088-0.789 2.12 0.697 3.229 0.938 3.327 0.721l1.271-2.863c0.099-0.218-0.823-0.88-2.765-1.988-2e-3 -0.474-0.049-0.918-0.141-1.335 1.379-1.229 2.145-2.018 2.297-2.358 0.024-0.054 0.019-0.113-0.017-0.179-1.215-1.682-1.848-2.535-1.899-2.559l-0.141-0.015c-0.81 0.312-1.774 0.795-2.899 1.453-0.262-0.146-0.459-0.252-0.596-0.312-0.138-0.062-0.349-0.139-0.631-0.231-0.065-0.372-0.215-0.989-0.45-1.854-0.236-0.863-0.409-1.32-0.519-1.369-0.026-0.01-0.279 7e-3 -0.76 0.055-0.479 0.049-0.981 0.104-1.515 0.16-0.531 0.057-0.831 0.088-0.896 0.09-0.073 0.018-0.122 0.053-0.146 0.107-0.15 0.34-0.223 1.436-0.21 3.285-0.372 0.211-0.735 0.474-1.086 0.791-2.122-0.7-3.232-0.939-3.329-0.723l-1.272 2.862c-0.098 0.218 0.824 0.881 2.763 1.99zm3.106-1.096c0.313-0.707 0.846-1.205 1.594-1.493 0.749-0.287 1.478-0.273 2.187 0.041s1.207 0.847 1.495 1.596c0.286 0.75 0.272 1.477-0.042 2.185-0.32 0.725-0.852 1.228-1.589 1.512-0.736 0.282-1.469 0.266-2.19-0.056-0.723-0.321-1.226-0.852-1.51-1.59-0.286-0.739-0.266-1.47 0.055-2.195z" fill="#fff" fill-opacity=".4"/>
<path d="m228.78 727.46c0.179 0.078 0.336 0.092 0.474 0.038l3.222-0.747c0.432 0.535 0.849 0.973 1.251 1.315l-0.92 3.337c-0.047 0.145-0.031 0.292 0.045 0.449 0.078 0.156 0.189 0.268 0.341 0.335l3.805 1.69c0.312 0.14 0.589 0.066 0.831-0.218 0.448-0.568 1.072-1.557 1.878-2.962 0.618 0.079 1.235 0.102 1.855 0.066l1.533 2.885c0.094 0.157 0.215 0.27 0.365 0.334 0.259 0.116 0.975-0.052 2.146-0.502 1.17-0.451 2.003-0.812 2.498-1.079 0.139-0.055 0.244-0.163 0.317-0.326 0.06-0.137 0.073-0.293 0.037-0.473-0.356-1.253-0.62-2.31-0.794-3.17 0.535-0.431 0.981-0.854 1.345-1.264l3.386 0.919c0.13 0.041 0.271 0.018 0.424-0.069s0.261-0.199 0.32-0.336l1.681-3.781c0.067-0.149 0.077-0.305 0.033-0.463-0.043-0.159-0.127-0.281-0.25-0.369l-2.899-1.852c0.056-0.529 0.072-1.192 0.052-1.986 0.337-0.209 0.825-0.479 1.465-0.815 0.639-0.339 1.089-0.578 1.35-0.726 0.155-0.094 0.263-0.201 0.315-0.323 0.163-0.369-0.332-1.896-1.491-4.581-0.086-0.17-0.205-0.288-0.354-0.354-0.163-0.072-0.321-0.086-0.474-0.039l-3.221 0.747c-0.433-0.533-0.85-0.972-1.252-1.315l0.921-3.337c0.046-0.142 0.031-0.292-0.046-0.447-0.078-0.156-0.19-0.271-0.341-0.338l-3.802-1.688c-0.314-0.14-0.592-0.066-0.832 0.219-0.442 0.554-1.065 1.533-1.871 2.939-0.67-0.07-1.291-0.086-1.862-0.047l-1.534-2.885c-0.094-0.154-0.216-0.267-0.365-0.335-0.261-0.113-0.978 0.049-2.15 0.489-1.175 0.441-2.004 0.798-2.486 1.074-0.143 0.065-0.251 0.181-0.323 0.345-0.055 0.122-0.066 0.279-0.04 0.473 0.358 1.255 0.623 2.31 0.796 3.171-0.534 0.432-0.982 0.853-1.345 1.263l-3.388-0.917c-0.129-0.041-0.271-0.019-0.422 0.067-0.152 0.089-0.261 0.199-0.321 0.336l-1.68 3.781c-0.068 0.15-0.079 0.306-0.035 0.464 0.045 0.157 0.131 0.273 0.262 0.349l2.89 1.872c-0.067 0.591-0.076 1.256-0.028 1.996-0.354 0.202-0.856 0.475-1.516 0.819-0.659 0.344-1.1 0.58-1.32 0.71-0.155 0.095-0.262 0.202-0.316 0.324-0.163 0.368 0.334 1.896 1.49 4.581 0.082 0.171 0.2 0.289 0.35 0.357zm6.896-9.84c0.642-1.444 1.702-2.45 3.178-3.021 1.477-0.566 2.938-0.53 4.383 0.111 1.443 0.644 2.45 1.701 3.019 3.18 0.566 1.477 0.531 2.938-0.112 4.383-0.642 1.444-1.701 2.451-3.176 3.019-1.479 0.568-2.938 0.531-4.383-0.11-1.444-0.644-2.451-1.701-3.021-3.181-0.569-1.476-0.531-2.938 0.112-4.381z" fill="#fff" fill-opacity=".4"/>
<path d="m1336.3 731.27l-15.273-2.221-6.848-13.849c-0.385-0.833-0.882-1.248-1.49-1.248-0.607 0-1.105 0.415-1.49 1.248l-6.847 13.849-15.274 2.221c-1.136 0.183-1.704 0.65-1.704 1.398 0 0.428 0.253 0.914 0.761 1.464l11.076 10.771-2.617 15.218c-0.041 0.283-0.062 0.485-0.062 0.608 0 0.426 0.106 0.786 0.32 1.08 0.213 0.294 0.531 0.442 0.958 0.442 0.364 0 0.77-0.123 1.218-0.367l13.661-7.183 13.662 7.183c0.426 0.244 0.833 0.367 1.218 0.367 0.831 0 1.248-0.51 1.248-1.522 0-0.265-0.011-0.467-0.031-0.608l-2.616-15.218 11.045-10.771c0.528-0.528 0.791-1.017 0.791-1.463-2e-3 -0.747-0.569-1.216-1.706-1.399zm-14.33 12.266l2.19 12.812-11.473-6.057-11.502 6.057 2.222-12.812-9.31-9.039 12.84-1.887 5.75-11.627 5.752 11.627 12.841 1.887-9.31 9.039z" fill="#fff" fill-opacity=".4"/>
<path d="m398.7 792.91c0.466-1.074 0.48-2.158 0.049-3.248-0.432-1.087-1.186-1.863-2.263-2.328-1.074-0.466-2.157-0.48-3.245-0.05-1.09 0.434-1.864 1.188-2.33 2.264-0.464 1.073-0.479 2.156-0.049 3.247 0.433 1.087 1.188 1.863 2.262 2.328 1.077 0.466 2.158 0.48 3.248 0.05 1.087-0.434 1.862-1.188 2.328-2.263z" fill="#fff" fill-opacity=".4"/>
<path d="m408.89 788.86c1.075 0.466 2.156 0.481 3.245 0.049 1.09-0.431 1.866-1.186 2.33-2.262 0.465-1.076 0.479-2.159 0.049-3.246-0.433-1.089-1.188-1.867-2.262-2.331-1.075-0.463-2.157-0.48-3.247-0.049-1.088 0.432-1.863 1.187-2.328 2.263s-0.48 2.16-0.051 3.247c0.434 1.09 1.188 1.865 2.264 2.329z" fill="#fff" fill-opacity=".4"/>
<path d="m1.053 305.28c0.637 0.153 1.233 0.059 1.793-0.285 0.558-0.342 0.912-0.832 1.062-1.468 0.152-0.638 0.059-1.234-0.284-1.792-0.345-0.558-0.831-0.913-1.47-1.066-0.637-0.151-1.232-0.058-1.792 0.286-0.557 0.344-0.911 0.833-1.064 1.47-0.15 0.638-0.057 1.234 0.286 1.793 0.342 0.556 0.832 0.911 1.469 1.062z" fill="#fff" fill-opacity=".4"/>
<path d="m1424.5 685.38c0.978 0.443 1.972 0.476 2.979 0.098 1.006-0.378 1.731-1.059 2.177-2.037 0.442-0.979 0.477-1.973 0.099-2.979-0.381-1.009-1.061-1.733-2.037-2.18-0.979-0.443-1.971-0.475-2.979-0.097s-1.731 1.059-2.177 2.036c-0.444 0.979-0.479 1.975-0.099 2.979 0.38 1.013 1.057 1.736 2.037 2.18z" fill="#fff" fill-opacity=".4"/>
<path d="m1403.7 688.79l17.736 8.044c0.479 0.218 0.976 0.23 1.486 0.039 0.509-0.19 0.872-0.526 1.092-1.01 0.217-0.479 0.229-0.976 0.038-1.482-0.19-0.511-0.528-0.875-1.008-1.094l-17.736-8.043c-0.479-0.218-0.977-0.23-1.485-0.039-0.512 0.19-0.873 0.528-1.092 1.01-0.219 0.479-0.23 0.974-0.039 1.483 0.193 0.511 0.528 0.874 1.008 1.092z" fill="#fff" fill-opacity=".4"/>
<path d="m1410.3 678.95c0.979 0.444 1.973 0.478 2.979 0.098 1.008-0.378 1.732-1.058 2.176-2.037 0.442-0.979 0.477-1.974 0.097-2.979-0.376-1.007-1.056-1.732-2.034-2.178-0.979-0.444-1.973-0.477-2.979-0.098-1.008 0.378-1.732 1.06-2.176 2.037-0.445 0.979-0.479 1.973-0.099 2.979 0.376 1.008 1.055 1.734 2.036 2.178z" fill="#fff" fill-opacity=".4"/>
<path d="m178.01 21.185c-0.083-0.323-0.253-0.558-0.514-0.711-0.258-0.152-0.546-0.188-0.867-0.104l-6.578 1.7c-0.319 0.082-0.557 0.255-0.708 0.512-0.151 0.26-0.186 0.548-0.103 0.871l5.102 19.733c0.08 0.318 0.251 0.557 0.508 0.71 0.258 0.152 0.548 0.188 0.869 0.104l6.576-1.7c0.322-0.084 0.557-0.254 0.711-0.514 0.15-0.258 0.184-0.547 0.101-0.868l-5.097-19.733z" fill="#fff" fill-opacity=".4"/>
<path d="m167.12 33.354c-0.082-0.318-0.254-0.553-0.511-0.708-0.258-0.152-0.55-0.188-0.869-0.101l-6.577 1.697c-0.32 0.083-0.558 0.254-0.711 0.513-0.149 0.262-0.183 0.547-0.104 0.865l2.835 10.967c0.081 0.321 0.251 0.559 0.512 0.708 0.257 0.152 0.547 0.188 0.868 0.105l6.577-1.702c0.318-0.082 0.554-0.253 0.706-0.511 0.154-0.261 0.188-0.547 0.105-0.867l-2.831-10.966z" fill="#fff" fill-opacity=".4"/>
<path d="m155.1 41.141c-0.083-0.319-0.256-0.557-0.51-0.706-0.264-0.154-0.553-0.188-0.872-0.108l-6.578 1.703c-0.318 0.083-0.554 0.253-0.707 0.511-0.149 0.259-0.187 0.547-0.104 0.867l1.702 6.582c0.083 0.318 0.251 0.556 0.51 0.708 0.257 0.151 0.548 0.189 0.868 0.105l6.578-1.698c0.317-0.087 0.558-0.256 0.706-0.516 0.154-0.258 0.188-0.548 0.104-0.867l-1.697-6.581z" fill="#fff" fill-opacity=".4"/>
<path d="m187.77 4.625c-0.084-0.32-0.254-0.556-0.514-0.71-0.26-0.149-0.545-0.187-0.867-0.104l-6.577 1.699c-0.321 0.084-0.557 0.256-0.71 0.511-0.149 0.26-0.186 0.552-0.103 0.871l8.503 32.894c0.081 0.319 0.253 0.554 0.51 0.708 0.26 0.153 0.547 0.188 0.868 0.105l6.578-1.697c0.321-0.085 0.557-0.258 0.708-0.516 0.151-0.259 0.188-0.547 0.104-0.867l-8.5-32.894z" fill="#fff" fill-opacity=".4"/>
<path d="m1352.7 153.13c0.333 0 1.042-0.536 2.129-1.608 1.09-1.072 1.837-1.891 2.244-2.447 0.136-0.151 0.204-0.325 0.204-0.521s-0.077-0.387-0.227-0.567c-1.089-1.329-1.896-2.371-2.425-3.125 0.301-0.56 0.598-1.247 0.884-2.062l4.189-0.636c0.184-0.03 0.334-0.127 0.455-0.294 0.119-0.166 0.18-0.339 0.18-0.521v-5.031c0-0.195-0.061-0.372-0.18-0.532-0.121-0.158-0.28-0.253-0.478-0.283l-4.146-0.636c-0.228-0.724-0.536-1.464-0.929-2.22 0.271-0.377 0.682-0.909 1.225-1.6 0.544-0.686 0.93-1.188 1.152-1.507 0.122-0.166 0.185-0.338 0.185-0.519 0-0.213-0.054-0.379-0.159-0.5-0.543-0.771-1.79-2.055-3.738-3.853-0.184-0.149-0.37-0.227-0.566-0.227-0.227 0-0.407 0.064-0.544 0.203l-3.218 2.425c-0.619-0.315-1.299-0.596-2.037-0.837l-0.636-4.171c-0.016-0.197-0.103-0.358-0.262-0.486-0.158-0.129-0.343-0.193-0.555-0.193h-5.029c-0.438 0-0.709 0.214-0.816 0.636-0.196 0.756-0.415 2.16-0.655 4.216-0.711 0.226-1.397 0.513-2.062 0.859l-3.128-2.425c-0.194-0.149-0.393-0.227-0.588-0.227-0.333 0-1.047 0.54-2.142 1.618-1.096 1.083-1.84 1.893-2.231 2.437-0.137 0.198-0.203 0.371-0.203 0.523 0 0.181 0.074 0.36 0.225 0.543 1.014 1.224 1.82 2.268 2.426 3.127-0.378 0.696-0.673 1.392-0.885 2.083l-4.214 0.636c-0.167 0.029-0.31 0.129-0.431 0.295-0.12 0.166-0.181 0.34-0.181 0.522v5.029c0 0.195 0.061 0.374 0.181 0.532 0.121 0.157 0.279 0.253 0.477 0.281l4.146 0.612c0.212 0.741 0.521 1.489 0.929 2.243-0.271 0.38-0.681 0.91-1.225 1.599-0.544 0.688-0.93 1.188-1.153 1.507-0.122 0.168-0.183 0.341-0.183 0.521 0 0.196 0.052 0.37 0.157 0.521 0.59 0.815 1.836 2.084 3.738 3.805 0.167 0.167 0.355 0.252 0.567 0.252 0.226 0 0.414-0.068 0.565-0.206l3.194-2.425c0.619 0.317 1.299 0.599 2.038 0.839l0.635 4.17c0.018 0.195 0.104 0.358 0.262 0.487 0.158 0.127 0.344 0.193 0.556 0.193h5.028c0.438 0 0.712-0.213 0.816-0.636 0.195-0.756 0.415-2.159 0.655-4.216 0.711-0.227 1.397-0.514 2.062-0.859l3.129 2.445c0.215 0.141 0.411 0.211 0.593 0.211zm-5.664-10.244c-1.134 1.133-2.5 1.696-4.1 1.696-1.604 0-2.972-0.563-4.103-1.696-1.133-1.134-1.698-2.5-1.698-4.102 0-1.603 0.565-2.972 1.698-4.104 1.131-1.133 2.498-1.699 4.103-1.699 1.6 0 2.966 0.566 4.1 1.699 1.133 1.133 1.699 2.502 1.699 4.104s-0.566 2.97-1.699 4.102z" fill="#fff" fill-opacity=".4"/>
<path d="m23.815 512.37c0.32 0.32 0.7 0.48 1.14 0.48h3.233c0.438 0 0.817-0.16 1.139-0.48 0.319-0.318 0.479-0.698 0.479-1.138v-3.614c2.712-0.624 5.059-1.926 7.037-3.905 1.979-1.979 3.282-4.325 3.905-7.04h3.613c0.438 0 0.816-0.16 1.139-0.479 0.318-0.32 0.479-0.698 0.479-1.137v-3.236c0-0.438-0.16-0.815-0.479-1.138-0.321-0.32-0.699-0.479-1.139-0.479h-3.613c-0.623-2.714-1.926-5.061-3.905-7.041-1.979-1.979-4.325-3.28-7.037-3.903v-3.614c0-0.44-0.16-0.818-0.479-1.139-0.32-0.319-0.7-0.48-1.139-0.48h-3.233c-0.438 0-0.818 0.161-1.14 0.48-0.318 0.319-0.479 0.697-0.479 1.139v3.614c-2.713 0.623-5.06 1.924-7.038 3.903-1.98 1.98-3.282 4.327-3.903 7.041h-3.616c-0.438 0-0.816 0.159-1.138 0.479-0.319 0.321-0.479 0.7-0.479 1.138v3.236c0 0.438 0.159 0.815 0.479 1.137 0.32 0.319 0.698 0.479 1.138 0.479h3.615c0.621 2.715 1.923 5.061 3.903 7.04 1.979 1.979 4.325 3.281 7.038 3.905v3.614c0 0.44 0.16 0.82 0.48 1.138zm-5.244-10.933c-1.354-1.356-2.304-2.944-2.843-4.766h2.756c0.438 0 0.816-0.16 1.137-0.479 0.32-0.32 0.48-0.698 0.48-1.137v-3.236c0-0.438-0.16-0.815-0.48-1.138-0.319-0.32-0.698-0.479-1.137-0.479h-2.756c0.539-1.82 1.487-3.407 2.843-4.765 1.356-1.357 2.945-2.306 4.766-2.845v2.756c0 0.438 0.16 0.816 0.479 1.137 0.32 0.32 0.7 0.48 1.14 0.48h3.233c0.438 0 0.817-0.16 1.139-0.48 0.319-0.319 0.479-0.699 0.479-1.137v-2.756c1.818 0.539 3.406 1.486 4.763 2.845 1.355 1.356 2.304 2.943 2.845 4.765h-2.755c-0.438 0-0.817 0.159-1.139 0.479-0.318 0.321-0.479 0.7-0.479 1.138v3.236c0 0.438 0.16 0.815 0.479 1.137 0.32 0.319 0.699 0.479 1.139 0.479h2.755c-0.541 1.82-1.488 3.408-2.845 4.766-1.355 1.357-2.943 2.306-4.763 2.843v-2.756c0-0.436-0.16-0.815-0.479-1.136-0.32-0.321-0.7-0.479-1.139-0.479h-3.233c-0.438 0-0.818 0.159-1.14 0.479-0.318 0.319-0.479 0.7-0.479 1.136v2.756c-1.821-0.537-3.41-1.484-4.766-2.843z" fill="#fff" fill-opacity=".4"/>
<path d="m1175.7 741.83c2.523-1.396 4.481-3.35 5.871-5.856l3.577 1.029c0.434 0.125 0.854 0.074 1.262-0.152 0.408-0.225 0.677-0.554 0.799-0.987l0.924-3.205c0.123-0.433 0.073-0.853-0.152-1.263-0.227-0.407-0.555-0.674-0.99-0.799l-3.578-1.029c0.156-2.862-0.466-5.557-1.859-8.083-1.397-2.521-3.349-4.479-5.856-5.87l1.029-3.578c0.125-0.433 0.073-0.853-0.15-1.262-0.227-0.409-0.557-0.675-0.989-0.803l-3.202-0.919c-0.435-0.126-0.855-0.074-1.263 0.15-0.409 0.227-0.677 0.558-0.801 0.989l-1.029 3.578c-2.861-0.154-5.558 0.467-8.08 1.862s-4.479 3.35-5.869 5.856l-3.577-1.029c-0.436-0.123-0.855-0.073-1.261 0.15-0.411 0.229-0.679 0.559-0.802 0.99l-0.92 3.205c-0.127 0.434-0.075 0.854 0.149 1.262 0.227 0.409 0.555 0.674 0.992 0.799l3.573 1.029c-0.153 2.863 0.466 5.558 1.862 8.083 1.396 2.523 3.348 4.48 5.857 5.87l-1.029 3.578c-0.126 0.435-0.075 0.854 0.15 1.263s0.556 0.674 0.989 0.802l3.202 0.92c0.434 0.125 0.854 0.074 1.262-0.152 0.409-0.224 0.676-0.555 0.801-0.988l1.028-3.577c2.863 0.155 5.559-0.465 8.08-1.863zm-10.688-7.154c-0.437-0.123-0.854-0.074-1.264 0.153-0.406 0.224-0.674 0.555-0.798 0.986l-0.786 2.729c-1.646-1.053-2.947-2.441-3.903-4.171-0.959-1.729-1.444-3.572-1.459-5.527l2.726 0.785c0.436 0.125 0.855 0.073 1.263-0.151 0.409-0.226 0.675-0.557 0.8-0.989l0.923-3.202c0.123-0.434 0.071-0.854-0.152-1.267-0.228-0.405-0.557-0.673-0.989-0.798l-2.726-0.785c1.05-1.646 2.44-2.949 4.17-3.906 1.729-0.958 3.57-1.441 5.525-1.459l-0.786 2.729c-0.122 0.432-0.072 0.854 0.154 1.262s0.553 0.676 0.986 0.802l3.204 0.92c0.434 0.125 0.854 0.074 1.263-0.151 0.406-0.227 0.676-0.556 0.799-0.987l0.784-2.729c1.649 1.053 2.951 2.442 3.907 4.172 0.957 1.729 1.439 3.57 1.457 5.525l-2.726-0.782c-0.434-0.124-0.855-0.074-1.266 0.149-0.407 0.229-0.672 0.559-0.799 0.99l-0.921 3.203c-0.125 0.433-0.073 0.854 0.152 1.264 0.225 0.409 0.557 0.674 0.988 0.799l2.729 0.785c-1.053 1.647-2.441 2.951-4.171 3.906-1.729 0.957-3.57 1.443-5.527 1.46l0.785-2.729c0.126-0.433 0.074-0.854-0.15-1.26-0.227-0.41-0.559-0.676-0.99-0.801l-3.202-0.925z" fill="#fff" fill-opacity=".4"/>
<path d="m1416.7 351.48c1.091 0.403 2.149 0.385 3.182-0.06 1.051-0.449 1.785-1.2 2.207-2.249l11.605-28.995c-2.277 0.06-4.482-0.341-6.624-1.197-2.139-0.855-4.014-2.091-5.618-3.704l-11.59 28.954c-0.431 1.075-0.422 2.14 0.029 3.189 0.458 1.07 1.219 1.804 2.276 2.194l4.533 1.868zm-0.637-10.541c0.214-0.537 0.578-0.917 1.096-1.139 0.519-0.223 1.045-0.225 1.582-8e-3 0.537 0.214 0.918 0.58 1.14 1.098 0.221 0.516 0.225 1.042 7e-3 1.583-0.216 0.538-0.58 0.917-1.098 1.14-0.516 0.216-1.039 0.222-1.581 6e-3 -0.54-0.215-0.916-0.582-1.141-1.095-0.219-0.519-0.219-1.048-5e-3 -1.585z" fill="#fff" fill-opacity=".4"/>
<path d="m49.851 78.323l43.788 14.397c2.688 0.883 4.731 0.661 6.134-0.66 1.404-1.321 1.767-3.345 1.09-6.066l-9.213-36.434 4.984-15.169 2.434 0.799c0.658 0.218 1.309 0.164 1.948-0.159 0.64-0.324 1.067-0.812 1.283-1.473 0.219-0.659 0.164-1.312-0.159-1.948-0.323-0.64-0.813-1.069-1.473-1.286l-19.462-6.397c-0.659-0.216-1.309-0.161-1.947 0.16-0.64 0.323-1.067 0.813-1.285 1.475-0.217 0.659-0.163 1.308 0.161 1.946 0.321 0.641 0.812 1.069 1.472 1.284l2.434 0.802-4.985 15.169-29.028 23.86c-2.158 1.79-3.065 3.634-2.721 5.531 0.343 1.896 1.858 3.288 4.545 4.169zm30.458-29.627l1.147-0.929 0.462-1.406 4.985-15.167 4.865 1.599-4.984 15.169-0.463 1.407 0.373 1.427 4.979 19.708-27.063-8.896 15.699-12.912z" fill="#fff" fill-opacity=".4"/>
<path d="m1380.7 639.29l0.529-10.07c2.019-1.701 3.747-3.262 5.182-4.678 3.151-3.171 5.396-6.364 6.734-9.579 1.337-3.218 2.007-7.029 2.007-11.44 0-0.23-0.091-0.429-0.268-0.599-0.176-0.169-0.389-0.252-0.638-0.252-4.623 0-8.439 0.629-11.45 1.887-3.013 1.258-6.183 3.543-9.511 6.855-1.42 1.435-2.978 3.162-4.678 5.183l-10.069 0.531c-0.282 0.035-0.516 0.178-0.692 0.424l-5.948 10.207c-0.215 0.354-0.17 0.697 0.131 1.037l1.699 1.697c0.16 0.16 0.363 0.241 0.614 0.241 0.104 0 0.185-0.01 0.236-0.026l7.334-2.261 7.466 7.466-2.259 7.336c-0.089 0.318-0.02 0.604 0.214 0.852l1.7 1.701c0.194 0.159 0.396 0.24 0.609 0.24 0.159 0 0.304-0.036 0.427-0.107l10.201-5.952c0.251-0.178 0.392-0.41 0.43-0.693zm4.144-29.923c0.496-0.496 1.098-0.744 1.807-0.744 0.708 0 1.311 0.248 1.808 0.744 0.496 0.497 0.744 1.1 0.744 1.81 0 0.709-0.248 1.309-0.744 1.806-0.497 0.496-1.1 0.745-1.808 0.745-0.709 0-1.311-0.249-1.807-0.745-0.496-0.497-0.744-1.097-0.744-1.806 0-0.71 0.248-1.313 0.744-1.81z" fill="#fff" fill-opacity=".4"/>
<path d="m1249.8 71.002c-3.444 1.448-6.269 3.636-8.462 6.556-2.198 2.923-3.529 6.193-4.006 9.819-0.477 3.624 0.011 7.161 1.457 10.607s3.634 6.266 6.557 8.462c2.92 2.196 6.192 3.536 9.816 4.011 3.623 0.474 7.157-0.012 10.604-1.461 2.587-1.087 4.841-2.616 6.756-4.588 1.92-1.968 3.379-4.212 4.378-6.729l-19.181-7.827-7.919-18.85z" fill="#fff" fill-opacity=".4"/>
<path d="m1262.5 88.052l19.149 7.841c1.045-2.496 1.576-5.118 1.586-7.866 7e-3 -2.752-0.532-5.418-1.622-8.008l-19.113 8.033z" fill="#fff" fill-opacity=".4"/>
<path d="m1259.7 85.502l18.993-7.982c-1.448-3.449-3.636-6.27-6.555-8.467-2.922-2.195-6.195-3.531-9.818-4.01-3.624-0.474-7.159 0.015-10.603 1.462l7.983 18.997z" fill="#fff" fill-opacity=".4"/>
<path d="m1422 132.97l-6.421-3.606c-0.436-0.244-0.899-0.297-1.396-0.157-0.498 0.14-0.868 0.428-1.11 0.86l-3.605 6.422c-0.244 0.437-0.298 0.901-0.156 1.396 0.141 0.496 0.426 0.866 0.86 1.11l6.421 3.606c0.433 0.242 0.899 0.294 1.396 0.155 0.493-0.141 0.864-0.427 1.107-0.861l3.604-6.422c0.244-0.435 0.298-0.899 0.159-1.396-0.136-0.493-0.426-0.863-0.859-1.107z" fill="#fff" fill-opacity=".4"/>
<rect transform="matrix(.8719 .4897 -.4897 .8719 251.23 -690.09)" x="1441.4" y="133.29" width="6.441" height="3.68" fill="#fff" fill-opacity=".4"/>
<rect transform="matrix(.8719 .4896 -.4896 .8719 243.91 -671.72)" x="1401" y="128.57" width="10.122" height="3.683" fill="#fff" fill-opacity=".4"/>
<rect transform="matrix(.8719 .4897 -.4897 .8719 241.16 -679.7)" x="1407.2" y="119.23" width="24.854" height="3.681" fill="#fff" fill-opacity=".4"/>
<path d="m1420.5 110.4c0.138 0.496 0.427 0.868 0.86 1.111l6.42 3.604c0.436 0.246 0.899 0.298 1.397 0.158 0.495-0.14 0.864-0.426 1.108-0.86l3.604-6.422c0.244-0.435 0.298-0.9 0.157-1.396-0.14-0.497-0.427-0.867-0.861-1.111l-6.419-3.605c-0.436-0.244-0.901-0.298-1.397-0.157-0.494 0.14-0.865 0.428-1.108 0.86l-3.605 6.422c-0.243 0.435-0.295 0.901-0.156 1.396z" fill="#fff" fill-opacity=".4"/>
<rect transform="matrix(.4897 -.8719 .8719 .4897 633.6 1290)" x="1417" y="100.53" width="3.682" height="6.444" fill="#fff" fill-opacity=".4"/>
<path d="m46.473 243.78c0.447-0.661 0.681-1.391 0.696-2.187l0.219-27.854c0.014-1.68-0.473-3.595-1.462-5.744-1.927-4.181-5.049-7.066-9.369-8.663-4.319-1.595-8.569-1.429-12.748 0.498-4.18 1.925-7.064 5.048-8.661 9.369-1.595 4.32-1.428 8.57 0.497 12.751 0.99 2.147 2.126 3.764 3.416 4.843l21.336 17.922c0.597 0.514 1.29 0.814 2.084 0.904 0.792 0.087 1.545-0.033 2.254-0.358 0.71-0.327 1.288-0.821 1.738-1.481zm-7.869-25.919c-0.799 2.161-2.242 3.722-4.331 4.686-2.09 0.965-4.215 1.045-6.374 0.248-2.16-0.797-3.725-2.241-4.686-4.332-0.963-2.09-1.042-4.214-0.248-6.376 0.8-2.158 2.241-3.72 4.331-4.683 2.09-0.964 4.216-1.046 6.375-0.251 2.161 0.798 3.723 2.243 4.684 4.334 0.963 2.089 1.047 4.214 0.249 6.374z" fill="#fff" fill-opacity=".4"/>
<path d="m1430 423.82c-2.369-1.181-4.81-1.351-7.316-0.513-2.51 0.84-4.354 2.443-5.534 4.812-1.182 2.371-1.354 4.812-0.514 7.319 0.841 2.51 2.444 4.354 4.813 5.535s4.807 1.353 7.315 0.513c2.508-0.839 4.354-2.445 5.534-4.812 1.181-2.371 1.353-4.81 0.512-7.317-0.838-2.508-2.441-4.354-4.81-5.537z" fill="#fff" fill-opacity=".4"/>
<g fill="#fff" fill-opacity=".4">
	<path d="m22.344 9.927c-8.437-0.746-15.712 0.141-21.844 2.631v4.024c6.539-3.044 14.664-3.934 24.37-2.671 0.843-0.535 1.378-1.306 1.602-2.31 0.228-1.007 0.073-1.932-0.461-2.772l-5.594-8.829h-4.36l6.287 9.927z"/>
	<path d="m7.209 33.307c1.079-1.251 1.557-2.496 1.432-3.732-0.924-0.098-1.682-0.189-2.271-0.282-0.592-0.091-1.236-0.249-1.937-0.476-0.7-0.228-1.254-0.499-1.661-0.822-0.406-0.32-0.754-0.759-1.038-1.315-0.284-0.558-0.434-1.206-0.449-1.946-0.28-0.066-0.539-0.161-0.785-0.273v12.446c0.856-0.058 1.781-0.288 2.792-0.727 1.53-0.665 2.838-1.621 3.917-2.873z"/>
	<path d="M0.5,0.375C0.592,0.253,0.678,0.123,0.769,0H0.5V0.375z"/>
</g>
<path d="m281.02 797.88c-0.479-1.101-1.271-1.867-2.379-2.302l-37.063-14.544c-1.108-0.436-2.214-0.412-3.312 0.067-1.099 0.479-1.865 1.271-2.3 2.382l-10.748 27.4c-0.015 0.038-0.019 0.075-0.033 0.113h3.708l7.136-18.19c0.301 0.815 0.661 1.598 1.086 2.346 3.142 5.224 5.604 9.465 7.387 12.722 0.573 1.059 1.05 1.894 1.429 2.508 0.122 0.196 0.269 0.403 0.429 0.615h5.349c-0.148-0.031-0.294-0.064-0.425-0.116l-0.026-0.011-0.024-0.01c-0.336-0.132-0.668-0.349-0.993-0.65-0.325-0.303-0.66-0.699-1.001-1.19-0.34-0.493-0.608-0.903-0.808-1.232-0.201-0.33-0.464-0.797-0.79-1.399-0.327-0.603-0.521-0.965-0.591-1.088-2.403-4.143-4.727-8.123-6.964-11.945-1.704-2.917-2.003-5.785-0.896-8.606 0.086-0.216 0.239-0.375 0.461-0.473 0.224-0.098 0.442-0.103 0.661-0.017l37.064 14.544c0.135 0.051 0.242 0.12 0.326 0.202 0.087 0.08 0.138 0.174 0.153 0.276 0.02 0.104 0.033 0.197 0.049 0.28 0.018 0.084 1e-3 0.198-0.045 0.345-0.049 0.146-0.088 0.259-0.117 0.331-0.028 0.078-0.073 0.19-0.134 0.342-0.059 0.15-0.096 0.244-0.107 0.276-0.39 0.991-1.212 1.941-2.471 2.854-1.259 0.91-2.482 1.549-3.672 1.914-4.24 1.281-8.648 2.62-13.228 4.021-0.133 0.044-0.525 0.178-1.173 0.396-0.649 0.222-1.158 0.384-1.529 0.489s-0.848 0.226-1.432 0.354c-0.223 0.05-0.427 0.081-0.631 0.112h12.083c2.079-0.63 4.359-1.305 6.865-2.03 0.818-0.263 1.614-0.589 2.39-0.98l-1.182 3.011h3.72l3.847-9.808c0.434-1.107 0.41-2.211-0.069-3.309z" fill="#fff" fill-opacity=".4"/>
<path d="m111.08 791.96l-7.102-7.354c4.049-1.325 7.367-3.239 9.958-5.741 3.26-3.147 5.378-6.137 6.358-8.969 0.98-2.831 1.021-5.614 0.126-8.354-0.896-2.741-2.474-5.281-4.731-7.621-1.372-1.422-3.098-2.179-5.178-2.27-2.327-0.067-4.662 0.521-7.013 1.768s-4.521 2.521-6.517 3.828c-1.995 1.31-3.664 1.965-5.003 1.97-2.796 0.06-6.016 0.29-9.665 0.691-6.364 0.709-10.365 0.888-12.002 0.53l-11.053-11.45c-1.427-1.477-3.165-2.23-5.219-2.268-2.052-0.036-3.816 0.659-5.294 2.085l-26.736 25.822c-1.478 1.427-2.233 3.166-2.269 5.218-0.034 2.055 0.658 3.817 2.086 5.296l11.615 12.034c0.594 0.611 1.89 3.071 3.896 7.38 1.071 2.326 2.113 4.475 3.127 6.447h8.483c-1.426-2.451-2.862-5.219-4.307-8.331-0.079-0.194-0.321-0.737-0.73-1.637-0.41-0.896-0.713-1.561-0.911-1.988-0.195-0.427-0.51-1.069-0.93-1.928-0.424-0.854-0.78-1.53-1.074-2.028-0.293-0.498-0.646-1.048-1.06-1.643-0.415-0.597-0.797-1.076-1.146-1.438l-1.291-1.338 26.735-25.822 1.291 1.338c0.432 0.443 1.033 0.818 1.81 1.119 0.774 0.301 1.688 0.495 2.742 0.582 1.053 0.086 2.062 0.146 3.034 0.177 0.974 0.03 2.122-3e-3 3.452-0.104 1.329-0.1 2.387-0.192 3.168-0.272 0.78-0.082 1.775-0.195 2.982-0.338 1.207-0.146 1.935-0.229 2.181-0.25 3.375-0.298 5.676-0.447 6.909-0.454 2.299-0.016 4.625-0.657 6.977-1.932 2.349-1.273 4.507-2.538 6.474-3.79 1.966-1.253 3.66-1.867 5.083-1.842 2.583 2.675 3.651 5.089 3.202 7.245-0.447 2.154-2.037 4.553-4.768 7.188-1.643 1.588-4.522 3.077-8.642 4.47-4.117 1.395-6.986 2.871-8.602 4.431l14.201 14.708c1.346 1.394 2.005 3.151 1.981 5.272-0.022 2.123-0.744 3.869-2.165 5.242-0.976 0.94-2.395 1.729-4.252 2.369-1.86 0.638-3.234 0.525-4.122-0.339-0.034 0.418-0.13 0.863-0.28 1.332h15.544c1.753-2.397 2.67-5.211 2.728-8.454 0.078-4.161-1.285-7.69-4.081-10.587zm-76.068-9.218c-0.723 0.698-1.606 1.039-2.646 1.021-1.041-0.019-1.908-0.39-2.607-1.114-0.7-0.725-1.042-1.604-1.021-2.646 0.019-1.04 0.391-1.911 1.113-2.61 0.725-0.7 1.606-1.039 2.647-1.023 1.037 0.021 1.907 0.391 2.607 1.115s1.039 1.606 1.022 2.646c-0.02 1.042-0.39 1.911-1.115 2.611z" fill="#fff" fill-opacity=".4"/>
<path d="m6.984 682.94c-1.52 1.614-2.523 3.507-3.021 5.681-0.757 3.316-0.225 6.425 1.594 9.32 1.824 2.896 4.389 4.724 7.709 5.482 3.315 0.757 6.42 0.224 9.322-1.599 2.892-1.817 4.72-4.387 5.478-7.706 0.496-2.172 0.408-4.312-0.26-6.428 3.626 3.034 6.323 6.979 8.085 11.835-3.228 3.135-6.884 5.382-10.977 6.738-4.097 1.36-8.239 1.562-12.437 0.603-4.194-0.958-7.844-2.938-10.941-5.937-0.356-0.346-0.7-0.701-1.036-1.062v4.866c3.331 2.774 7.062 4.633 11.193 5.578 4.714 1.075 9.477 0.854 14.287-0.659 4.808-1.517 8.938-4.051 12.392-7.605 0.501-0.545 0.821-1.123 0.96-1.733 0.139-0.608 0.099-1.268-0.114-1.979-1.574-4.678-4.196-8.752-7.87-12.213-3.672-3.461-7.868-5.73-12.586-6.807-4.717-1.077-9.477-0.854-14.289 0.672-1.383 0.438-2.703 0.97-3.973 1.574v4.007c2.052-1.176 4.213-2.054 6.484-2.628zm0.851 6.563c0.514-2.241 1.753-3.981 3.726-5.222 1.973-1.237 4.078-1.604 6.321-1.094 0.354 0.082 0.632 0.279 0.827 0.587 0.194 0.309 0.251 0.643 0.169 0.999-0.082 0.362-0.279 0.638-0.586 0.827-0.31 0.2-0.644 0.253-1 0.173-1.543-0.352-2.989-0.104-4.331 0.736-1.342 0.847-2.191 2.039-2.543 3.584-0.081 0.354-0.279 0.634-0.586 0.827-0.308 0.192-0.644 0.25-1 0.169-0.357-0.082-0.635-0.278-0.829-0.589-0.192-0.304-0.25-0.637-0.168-0.997z" fill="#fff" fill-opacity=".4"/>
<path d="m1.402 618.12c5.516-2.667 10.075-6.39 13.687-11.165 1.699-0.162 3.328-0.397 4.881-0.713 5.415-1.099 10.22-3.06 14.408-5.886s7.285-6.146 9.283-9.961c2.001-3.815 2.608-7.654 1.827-11.519-0.782-3.863-2.84-7.161-6.167-9.898-3.326-2.734-7.47-4.588-12.428-5.56-4.959-0.973-10.146-0.908-15.562 0.188-3.882 0.787-7.487 2.072-10.831 3.825v51.122c0.314-0.141 0.617-0.286 0.902-0.433z" fill="#fff" fill-opacity=".4"/>
<path d="m1.619 428.46c0.013 0.018 0.036 0.014 0.067-9e-3 0.046-6e-3 0.073-0.017 0.092-0.03l0.351-0.175c0.169-0.07 0.42-0.2 0.74-0.384 0.324-0.178 0.568-0.308 0.741-0.377 2.72-1.354 4.851-2.58 6.396-3.683 1.302-0.931 2.047-1.895 2.244-2.893 0.238-1.249 0.096-2.241-0.426-2.973-0.257-0.358-0.672-0.683-1.247-0.972-0.574-0.289-1.154-0.522-1.74-0.71-0.586-0.185-1.232-0.515-1.94-0.989-0.707-0.479-1.312-1.064-1.812-1.766-0.95-1.33-1.21-2.713-0.781-4.138 0.432-1.425 1.331-2.625 2.697-3.601 1.315-0.939 2.675-1.362 4.068-1.266 1.393 0.099 2.552 0.791 3.469 2.075 0.475 0.666 0.784 1.399 0.923 2.195 0.14 0.796 0.172 1.494 0.099 2.101-0.071 0.604-0.052 1.283 0.059 2.039 0.108 0.759 0.381 1.438 0.812 2.039 0.661 0.926 1.486 1.362 2.477 1.307 0.991-0.062 1.983-0.438 2.976-1.146 0.749-0.535 1.515-1.145 2.305-1.832 0.787-0.684 1.649-1.463 2.581-2.339 0.934-0.876 1.659-1.535 2.178-1.979 0.165-0.144 0.431-0.343 0.789-0.6l-0.088-0.123c-0.436-0.646-1.227-1.494-2.369-2.543-1.146-1.049-1.941-1.892-2.396-2.528-1.439-2.016-1.264-3.665 0.524-4.941 0.603-0.431 1.282-0.698 2.038-0.81 0.756-0.107 1.438-0.127 2.041-0.056 0.605 0.073 1.306 0.039 2.103-0.101 0.793-0.139 1.525-0.445 2.195-0.924 1.282-0.916 1.973-2.072 2.069-3.466 0.098-1.397-0.324-2.752-1.264-4.07-0.977-1.365-2.177-2.266-3.603-2.696-1.425-0.431-2.803-0.171-4.138 0.781-0.699 0.499-1.287 1.103-1.763 1.809-0.479 0.71-0.808 1.357-0.989 1.943-0.184 0.583-0.421 1.164-0.712 1.74-0.287 0.575-0.613 0.991-0.97 1.245-0.732 0.522-1.725 0.665-2.972 0.426-1-0.192-1.965-0.942-2.895-2.246-1.104-1.544-2.327-3.675-3.68-6.394-0.021-0.062-0.114-0.255-0.289-0.586-0.175-0.33-0.333-0.636-0.473-0.917-0.139-0.281-0.21-0.444-0.218-0.488l-0.035-0.049c-0.737 0.579-1.967 1.664-3.68 3.254s-3.09 2.757-4.131 3.5c-0.992 0.708-1.981 1.091-2.976 1.147-0.197 0.012-0.383-0.012-0.567-0.04v35.667l1.12 1.572z" fill="#fff" fill-opacity=".4"/>
<path d="m7.051 173.56c0.203 0.576 0.485 1.022 0.849 1.338 0.384 0.33 0.795 0.443 1.235 0.34s0.836-0.356 1.181-0.757c0.219-0.25 0.373-0.451 0.47-0.599l9.938-16.479 19.192-1.146c0.927-0.068 1.572-0.312 1.937-0.732 0.612-0.707 0.457-1.61-0.464-2.71l-12.586-14.55 4.834-18.636c0.315-1.1 0.186-1.896-0.388-2.392-0.575-0.497-1.383-0.511-2.424-0.039l-17.74 7.469-12.585-8.044v40.228l6.551 16.709z" fill="#fff" fill-opacity=".4"/>
<path d="m429.48 786.59c-1.703-4.292-4.332-7.831-7.887-10.619-3.555-2.785-7.562-4.518-12.027-5.193s-8.844-0.163-13.136 1.542c-4.292 1.704-7.831 4.332-10.616 7.886-2.786 3.557-4.517 7.565-5.194 12.03-0.676 4.468-0.163 8.845 1.541 13.141 0.813 2.047 1.842 3.918 3.076 5.622h5.648c-0.056-0.055-0.115-0.101-0.17-0.156-2.013-2.019-3.551-4.363-4.608-7.032-1.062-2.672-1.55-5.433-1.468-8.281 0.081-2.851 0.65-5.503 1.709-7.956 1.061-2.454 2.6-4.687 4.617-6.701 2.018-2.012 4.361-3.551 7.03-4.608 2.67-1.062 5.432-1.549 8.278-1.468 2.85 0.08 5.501 0.652 7.954 1.711 2.455 1.06 4.686 2.599 6.7 4.616 2.013 2.02 3.551 4.363 4.607 7.032 1.062 2.672 1.551 5.435 1.469 8.281-0.081 2.85-0.651 5.502-1.712 7.954-1.043 2.418-2.556 4.618-4.529 6.608h5.623c2.453-3.366 4.007-7.117 4.636-11.271 0.676-4.468 0.163-8.844-1.541-13.138z" fill="#fff" fill-opacity=".4"/>
<path d="m1297.3 795.58c0.242-0.64 0.221-1.273-0.062-1.896-0.281-0.626-0.742-1.062-1.386-1.301-0.639-0.243-1.272-0.223-1.896 0.06s-1.058 0.744-1.3 1.384c-0.328 0.873-0.193 1.685 0.407 2.437l-5.563 14.74h2.652l5.232-13.864c0.948-0.169 1.587-0.688 1.916-1.56z" fill="#fff" fill-opacity=".4"/>
<path d="m1420.8 241.01c-0.684-0.205-1.666-0.551-2.957-1.037 3.66 4.371 8.566 7.482 14.718 9.337 1.877 0.566 3.854 0.973 5.913 1.228v-8.599c-2.143 0.451-4.367 0.705-6.694 0.711-3.666 9e-3 -7.327-0.537-10.98-1.64z" fill="#fff" fill-opacity=".4"/>
<polygon points="1420.7 140.78 1438.5 150.76 1438.5 146.54 1422.5 137.57" fill="#fff" fill-opacity=".4"/>
<path d="m1434.2 123.58c-0.495 0.141-0.864 0.428-1.108 0.86l-3.605 6.423c-0.244 0.434-0.297 0.901-0.156 1.396 0.139 0.497 0.426 0.868 0.857 1.111l6.422 3.605c0.437 0.242 0.9 0.296 1.396 0.155 0.187-0.052 0.338-0.146 0.488-0.239v-11.527l-2.897-1.627c-0.436-0.245-0.901-0.298-1.397-0.157z" fill="#fff" fill-opacity=".4"/>
<polygon points="1432 113.22 1438.5 116.87 1438.5 112.64 1433.8 110.01" fill="#fff" fill-opacity=".4"/>
<path d="m1386.7 3.653l-3.165-3.062c-0.36-0.283-0.732-0.427-1.125-0.42-0.287 4e-3 -0.551 0.075-0.773 0.209l-18.492 11.202c-0.452 0.333-0.702 0.758-0.761 1.281l-0.665 18.451c-3.646 3.174-6.762 6.08-9.349 8.717-5.672 5.897-9.682 11.81-12.036 17.737-2.352 5.928-3.457 12.928-3.328 21.003 0.01 0.42 0.18 0.78 0.51 1.085 0.324 0.305 0.72 0.453 1.17 0.446 8.464-0.142 15.436-1.411 20.903-3.804 5.479-2.393 11.213-6.673 17.204-12.836 2.555-2.669 5.353-5.88 8.406-9.626l18.415-1.277c0.517-0.077 0.935-0.343 1.25-0.8l10.588-18.855c0.377-0.657 0.287-1.286-0.276-1.896l-3.162-3.059c-0.296-0.292-0.671-0.431-1.13-0.423-0.188 3e-3 -0.336 0.022-0.432 0.058l-13.355 4.354-13.89-13.438 3.91-13.495c0.152-0.586 0.017-1.103-0.417-1.552zm-30.999 64.107c-0.893 0.923-1.985 1.394-3.283 1.416-1.296 0.021-2.406-0.415-3.33-1.311-0.924-0.892-1.396-1.986-1.416-3.285-0.022-1.298 0.414-2.404 1.306-3.33 0.896-0.92 1.989-1.396 3.29-1.415 1.293-0.021 2.403 0.415 3.326 1.307 0.921 0.893 1.395 1.986 1.414 3.287 0.021 1.297-0.412 2.405-1.307 3.331z" fill="#fff" fill-opacity=".4"/>
<path d="m1189.2 22.064c0.179 0.324 0.455 0.772 0.83 1.352-1.854 2.537-2.895 5.404-3.122 8.604-0.228 3.196 0.444 6.215 2.01 9.055 2.195 3.98 5.486 6.602 9.876 7.87 4.388 1.267 8.57 0.802 12.549-1.394l35.095-19.372c3.418-1.886 5.67-4.706 6.754-8.463 1.084-3.755 0.683-7.342-1.203-10.762-1.604-2.902-3.926-4.979-6.974-6.23-3.047-1.25-6.133-1.435-9.263-0.547 0.054-0.747 1e-3 -1.469-0.113-2.178h-43.699c-2.016 2.118-3.471 4.684-4.346 7.713-1.444 5.009-0.91 9.793 1.606 14.352z" fill="#fff" fill-opacity=".4"/>
<path d="m1419.9 200.49c-4.157 0.444-7.706 1.684-10.645 3.72-2.942 2.035-4.891 4.631-5.839 7.786-0.813 2.703-0.774 5.488 0.12 8.359 0.893 2.865 2.503 5.545 4.824 8.026-0.394 0.477-0.774 0.905-1.15 1.287-0.374 0.384-0.79 0.736-1.245 1.059-0.457 0.318-0.812 0.57-1.064 0.756-0.253 0.183-0.646 0.43-1.187 0.735-0.54 0.31-0.887 0.515-1.039 0.617-0.029 0.017-0.091 0.053-0.184 0.111-0.094 0.059-0.158 0.1-0.204 0.125-0.043 0.022-0.108 0.064-0.188 0.128-0.08 0.062-0.14 0.112-0.177 0.151-0.034 0.039-0.081 0.087-0.135 0.146-0.056 0.059-0.101 0.118-0.13 0.182-0.032 0.066-0.059 0.14-0.082 0.22-0.024 0.08-0.036 0.155-0.033 0.23-0.044 0.309 0.013 0.586 0.175 0.832s0.365 0.407 0.615 0.482l0.104 0.029c1.181 0.187 2.213 0.298 3.093 0.337 3.77 0.147 7.359-0.355 10.776-1.504 1.936 0.979 3.876 1.763 5.83 2.351 4.333 1.307 8.581 1.737 12.736 1.294 1.268-0.135 2.472-0.353 3.626-0.636v-4.742c-1.466 0.454-3.058 0.752-4.78 0.891-3.374 0.271-6.797-0.12-10.271-1.164-1.705-0.515-3.393-1.195-5.066-2.046l-1.702-0.887-1.814 0.604c-0.765 0.241-1.604 0.472-2.511 0.693l2.053-2.501-2.729-2.902c-1.793-1.927-3.033-3.936-3.717-6.024-0.687-2.088-0.744-4.062-0.185-5.922 0.697-2.317 2.241-4.216 4.631-5.7 2.393-1.485 5.273-2.361 8.646-2.631 3.374-0.272 6.798 0.116 10.271 1.162 2.623 0.791 5.013 1.879 7.173 3.266v-5.268c-1.825-0.942-3.776-1.73-5.857-2.358-4.335-1.306-8.584-1.737-12.739-1.294z" fill="#fff" fill-opacity=".4"/>
<path d="m1436.4 520.54c-0.711-1.068-1.561-2.037-2.543-2.91-0.985-0.871-2.029-1.539-3.133-2.011-3.986-1.694-7.581-1.92-10.777-0.675-3.197 1.243-5.63 3.826-7.294 7.741-0.507 1.191-0.823 2.51-0.938 3.95-0.122 1.44-0.104 2.722 0.053 3.838 0.156 1.118 0.392 2.242 0.708 3.374 0.315 1.134 0.562 1.928 0.735 2.38 0.177 0.453 0.322 0.788 0.44 1.007l9.82 23.156c0.186 0.457 0.508 0.784 0.971 0.981 0.46 0.195 0.921 0.203 1.379 0.019l12.638-4.82v-32.545c-0.097-0.19-0.186-0.383-0.287-0.57-0.472-0.873-1.062-1.844-1.772-2.915z" fill="#fff" fill-opacity=".4"/>
<path d="m1425.5 664.43c-3.857-1.751-7.851-2.413-11.975-1.99-4.124 0.425-7.876 1.837-11.258 4.234-3.382 2.398-5.947 5.528-7.697 9.392-1.752 3.861-2.415 7.854-1.99 11.979 0.426 4.125 1.834 7.879 4.232 11.259 2.398 3.383 5.527 5.947 9.391 7.699 3.861 1.752 7.854 2.416 11.979 1.99 4.122-0.426 7.874-1.837 11.256-4.234 3.381-2.398 5.949-5.527 7.699-9.392 0.603-1.329 1.066-2.674 1.411-4.034v-11.24c-0.7-2.85-1.914-5.506-3.656-7.964-2.397-3.381-5.527-5.947-9.392-7.699zm8.088 29.33c-1.09 2.402-2.601 4.485-4.535 6.249-1.936 1.762-4.051 3.075-6.346 3.938-2.296 0.864-4.754 1.271-7.369 1.219-2.616-0.049-5.126-0.618-7.525-1.71-2.403-1.089-4.485-2.602-6.246-4.537-1.762-1.933-3.076-4.05-3.939-6.347-0.862-2.294-1.269-4.751-1.22-7.37 0.052-2.615 0.621-5.126 1.712-7.526 1.086-2.402 2.598-4.485 4.533-6.247 1.936-1.763 4.051-3.075 6.346-3.94 2.296-0.862 4.753-1.27 7.369-1.219s5.127 0.619 7.528 1.709c2.399 1.09 4.481 2.603 6.245 4.537 1.762 1.937 3.073 4.051 3.938 6.348 0.862 2.295 1.27 4.753 1.217 7.37-0.049 2.614-0.62 5.124-1.708 7.526z" fill="#fff" fill-opacity=".4"/>
<path d="m1422.8 809.38c0.559-0.326 1.065-0.695 1.525-1.111 2.979 0.981 4.536 1.319 4.674 1.014l1.785-4.021c0.136-0.303-1.159-1.234-3.881-2.788-4e-3 -0.667-0.069-1.29-0.199-1.877 1.938-1.729 3.01-2.83 3.227-3.312 0.032-0.076 0.023-0.161-0.026-0.253-1.701-2.359-2.59-3.559-2.666-3.592l-0.198-0.019c-1.134 0.436-2.489 1.116-4.066 2.042-0.368-0.208-0.646-0.357-0.837-0.441-0.191-0.085-0.488-0.193-0.888-0.324-0.091-0.521-0.299-1.389-0.632-2.603-0.332-1.214-0.573-1.854-0.726-1.922-0.04-0.019-0.396 9e-3 -1.065 0.078-0.673 0.067-1.382 0.144-2.129 0.223-0.745 0.081-1.166 0.123-1.258 0.125-0.104 0.023-0.172 0.076-0.205 0.152-0.213 0.479-0.312 2.015-0.296 4.611-0.522 0.294-1.032 0.666-1.526 1.109-2.979-0.98-4.536-1.316-4.672-1.013l-1.786 4.021c-0.138 0.306 1.157 1.233 3.88 2.792 0 0.617 0.066 1.241 0.199 1.874-1.937 1.729-3.013 2.833-3.228 3.312-0.033 0.075-0.023 0.16 0.027 0.252 1.228 1.699 2.021 2.788 2.396 3.291h1.28c0.257-0.117 0.544-0.254 0.896-0.434 1.128-0.577 1.915-1.005 2.359-1.287 0.367 0.206 0.646 0.354 0.838 0.439 0.19 0.084 0.486 0.191 0.886 0.324 0.042 0.241 0.112 0.565 0.204 0.957h6.1c8e-3 -0.484 0.012-1.02 8e-3 -1.619zm-2.488-3.253c-1.036 0.398-2.062 0.372-3.075-0.079-1.015-0.449-1.721-1.193-2.119-2.23-0.399-1.036-0.372-2.061 0.079-3.076 0.439-0.994 1.188-1.692 2.237-2.099 1.052-0.403 2.073-0.387 3.068 0.058 0.995 0.442 1.693 1.188 2.1 2.238 0.401 1.052 0.382 2.074-0.061 3.069-0.45 1.014-1.192 1.721-2.229 2.119z" fill="#fff" fill-opacity=".4"/>
<path d="m1435.2 765.62c-0.193-0.086-0.489-0.194-0.889-0.325-0.089-0.522-0.298-1.39-0.63-2.603-0.332-1.215-0.575-1.854-0.729-1.924-0.038-0.016-0.393 0.011-1.065 0.077-0.672 0.068-1.38 0.144-2.129 0.224-0.744 0.08-1.165 0.123-1.258 0.126-0.103 0.024-0.17 0.075-0.205 0.151-0.211 0.479-0.312 2.016-0.295 4.613-0.521 0.295-1.033 0.665-1.525 1.107-2.979-0.979-4.537-1.316-4.673-1.012l-1.786 4.02c-0.137 0.308 1.158 1.236 3.882 2.793 0 0.618 0.063 1.243 0.196 1.877-1.936 1.727-3.01 2.829-3.226 3.311-0.032 0.075-0.024 0.16 0.028 0.253 1.729 2.396 2.611 3.604 2.651 3.619 0.152 0.067 0.793-0.187 1.921-0.764 1.126-0.574 1.913-1.006 2.359-1.286 0.366 0.207 0.645 0.354 0.837 0.438 0.19 0.085 0.485 0.193 0.884 0.326 0.092 0.521 0.301 1.394 0.629 2.616 0.325 1.223 0.565 1.866 0.718 1.936 0.039 0.02 1.525-0.135 4.466-0.455 0.102-0.023 0.17-0.073 0.205-0.149 0.211-0.479 0.312-2.017 0.295-4.612 0.559-0.324 1.066-0.697 1.525-1.109 0.82 0.27 1.522 0.486 2.127 0.658v-15.261c-1.009 0.432-2.161 1.021-3.479 1.793-0.364-0.208-0.644-0.354-0.834-0.438zm0.406 8.98c-0.451 1.017-1.195 1.723-2.232 2.12-1.034 0.398-2.061 0.373-3.075-0.077-1.016-0.451-1.722-1.195-2.12-2.231-0.397-1.034-0.37-2.061 0.08-3.077 0.44-0.994 1.188-1.693 2.237-2.1 1.052-0.402 2.073-0.385 3.068 0.059 0.996 0.442 1.693 1.188 2.1 2.24 0.402 1.053 0.382 2.073-0.058 3.066z" fill="#fff" fill-opacity=".4"/>
<path d="m1323.5 805.87c-0.144-0.316-0.372-0.533-0.688-0.65-0.157-0.062-0.534-0.058-1.132 8e-3 -0.598 0.062-1.238 0.146-1.918 0.249-0.682 0.103-1.453 0.135-2.315 0.099-0.864-0.034-1.624-0.176-2.274-0.424-0.605-0.227-1.096-0.543-1.467-0.946-1.255-1.287-2.379-2.32-3.368-3.095-0.994-0.774-2.138-1.409-3.432-1.896-2.234-0.847-5.056-1.081-8.455-0.706-0.834 0.086-1.409 0.165-1.728 0.239-0.479 0.137-0.793 0.396-0.939 0.784l-4.327 11.468h30.502l1.579-4.184c0.118-0.312 0.106-0.631-0.038-0.946z" fill="#fff" fill-opacity=".4"/>
<path d="m1380.5 779.4c-0.218 0.132-0.367 0.284-0.444 0.456-0.229 0.516 0.471 2.662 2.093 6.431 0.124 0.238 0.29 0.405 0.502 0.5 0.249 0.108 0.47 0.127 0.662 0.055l4.523-1.052c0.604 0.751 1.189 1.367 1.755 1.85l-1.291 4.685c-0.064 0.2-0.043 0.409 0.064 0.63 0.108 0.221 0.266 0.376 0.479 0.471l5.339 2.375c0.439 0.194 0.829 0.094 1.168-0.306 0.629-0.799 1.51-2.186 2.639-4.159 0.865 0.111 1.733 0.144 2.604 0.097l2.152 4.049c0.13 0.22 0.303 0.376 0.512 0.47 0.364 0.162 1.368-0.073 3.015-0.706 1.646-0.633 2.813-1.14 3.51-1.516 0.189-0.076 0.341-0.228 0.444-0.458 0.084-0.189 0.102-0.412 0.052-0.662-0.501-1.76-0.872-3.244-1.114-4.45 0.751-0.605 1.379-1.198 1.888-1.774l4.754 1.29c0.182 0.058 0.381 0.023 0.596-0.098 0.215-0.123 0.363-0.28 0.447-0.472l2.361-5.311c0.093-0.21 0.108-0.428 0.046-0.648-0.059-0.223-0.178-0.396-0.351-0.52l-4.071-2.601c0.077-0.743 0.104-1.674 0.07-2.788 0.474-0.293 1.161-0.675 2.059-1.146 0.897-0.475 1.527-0.812 1.896-1.018 0.218-0.132 0.365-0.283 0.441-0.455 0.229-0.518-0.469-2.661-2.093-6.432-0.123-0.239-0.29-0.404-0.501-0.498-0.229-0.101-0.45-0.119-0.663-0.055l-4.521 1.049c-0.607-0.75-1.194-1.364-1.759-1.847l1.292-4.687c0.064-0.198 0.046-0.41-0.063-0.629-0.109-0.221-0.268-0.379-0.479-0.472l-5.337-2.372c-0.442-0.197-0.832-0.096-1.169 0.306-0.621 0.778-1.495 2.154-2.625 4.128-0.939-0.1-1.814-0.121-2.616-0.065l-2.153-4.051c-0.132-0.219-0.306-0.374-0.515-0.47-0.364-0.16-1.37 0.066-3.021 0.688-1.647 0.617-2.813 1.119-3.489 1.509-0.201 0.093-0.352 0.253-0.454 0.481-0.077 0.173-0.094 0.395-0.055 0.665 0.501 1.759 0.873 3.241 1.114 4.45-0.75 0.605-1.378 1.196-1.887 1.773l-4.757-1.288c-0.182-0.059-0.38-0.025-0.594 0.097-0.213 0.121-0.364 0.278-0.45 0.471l-2.356 5.312c-0.095 0.21-0.111 0.427-0.05 0.647 0.061 0.222 0.184 0.386 0.366 0.489l4.057 2.629c-0.095 0.83-0.108 1.763-0.04 2.803-0.496 0.282-1.203 0.667-2.129 1.15-0.926 0.485-1.541 0.819-1.853 1zm11.83-6.426c0.902-2.03 2.389-3.442 4.462-4.241 2.071-0.797 4.125-0.744 6.152 0.157 2.028 0.9 3.44 2.389 4.238 4.462 0.797 2.075 0.745 4.125-0.156 6.155-0.902 2.027-2.392 3.44-4.461 4.236-2.075 0.798-4.125 0.746-6.152-0.155-2.029-0.902-3.442-2.389-4.241-4.464-0.797-2.071-0.745-4.125 0.158-6.15z" fill="#fff" fill-opacity=".4"/>
<path d="m1209.2 809.84c-1.687-1.923-1.677-3.633 0.029-5.131 0.576-0.503 1.244-0.851 2.011-1.041 0.765-0.189 1.463-0.28 2.09-0.269s1.344-0.096 2.147-0.32c0.803-0.223 1.522-0.616 2.159-1.174 1.225-1.075 1.814-2.334 1.771-3.778-0.045-1.44-0.616-2.791-1.719-4.047-1.144-1.298-2.468-2.1-3.976-2.396-1.508-0.295-2.9 0.114-4.17 1.229-0.668 0.585-1.209 1.267-1.627 2.042-0.414 0.776-0.688 1.477-0.814 2.096-0.129 0.62-0.312 1.239-0.551 1.862-0.239 0.62-0.527 1.078-0.868 1.378-0.698 0.612-1.7 0.86-3.009 0.746-1.045-0.097-2.113-0.768-3.2-2.008-1.293-1.474-2.774-3.536-4.44-6.19-0.026-0.059-0.146-0.249-0.356-0.57-0.213-0.32-0.406-0.619-0.578-0.896-0.174-0.271-0.265-0.434-0.276-0.477l-0.04-0.046c-0.701 0.667-1.851 1.91-3.444 3.721-1.595 1.812-2.89 3.151-3.884 4.021-0.944 0.83-1.924 1.325-2.937 1.485-1.013 0.161-1.905-0.202-2.679-1.088-0.503-0.572-0.852-1.242-1.042-2.007-0.191-0.767-0.281-1.463-0.271-2.09 0.014-0.628-0.094-1.347-0.318-2.148-0.227-0.805-0.615-1.525-1.174-2.161-1.073-1.225-2.333-1.815-3.776-1.771-1.442 0.044-2.783 0.612-4.023 1.699-1.319 1.156-2.124 2.489-2.423 3.996-0.295 1.511 0.114 2.9 1.229 4.174 0.584 0.666 1.266 1.206 2.042 1.623 0.775 0.419 1.477 0.688 2.095 0.815 0.62 0.13 1.24 0.312 1.86 0.552 0.621 0.237 1.08 0.528 1.381 0.868 0.611 0.7 0.859 1.702 0.744 3.011-0.097 1.048-0.768 2.112-2.007 3.201-0.791 0.693-1.765 1.445-2.894 2.246h38.159c-0.515-0.436-0.93-0.825-1.221-1.157z" fill="#fff" fill-opacity=".4"/>
<path d="m1051.8 784.21l1.912-0.543c0.518-0.146 0.912-0.466 1.182-0.95 0.271-0.485 0.333-0.988 0.187-1.504-0.146-0.521-0.465-0.914-0.948-1.186-0.485-0.271-0.989-0.334-1.507-0.188l-15.293 4.35c-0.518 0.146-0.911 0.464-1.182 0.95-0.271 0.483-0.332 0.986-0.185 1.505 0.146 0.518 0.464 0.91 0.948 1.182s0.985 0.335 1.504 0.188l1.913-0.543 3.389 11.92-3.443 11.606h4.135l3.108-10.493 0.334-1.097-0.314-1.104-3.386-11.92 3.823-1.089 3.387 11.92 0.313 1.104 0.859 0.756 11.768 10.508-4.974 1.415h12.515l-16.657-14.867-3.388-11.92z" fill="#fff" fill-opacity=".4"/>
<path d="m949.26 797.61c0-0.767-0.27-1.418-0.807-1.956l-3.91-3.912c-0.537-0.535-1.189-0.806-1.956-0.806-0.77 0-1.421 0.271-1.956 0.806l-18.869 18.902-8.455-8.488c-0.537-0.537-1.189-0.805-1.956-0.805s-1.419 0.268-1.956 0.805l-3.911 3.912c-0.538 0.538-0.806 1.189-0.806 1.957s0.268 1.42 0.806 1.956l1.014 1.015h30.53l11.425-11.428c0.537-0.537 0.807-1.188 0.807-1.958z" fill="#fff" fill-opacity=".4"/>
<path d="m1.97 291.78c1.302 0.918 2.374 2.062 3.212 3.43 0.841 1.367 1.376 2.841 1.606 4.416 0.227 1.577 0.169 3.093-0.181 4.544-0.346 1.453-0.978 2.829-1.895 4.133-0.919 1.301-2.062 2.374-3.429 3.214-0.256 0.158-0.521 0.294-0.784 0.43v2.625c0.689-0.289 1.366-0.629 2.025-1.035 2.199-1.35 3.895-3.138 5.085-5.36 1.192-2.226 1.761-4.6 1.702-7.122-0.056-2.524-0.759-4.886-2.109-7.083-1.352-2.2-3.138-3.896-5.359-5.087-0.441-0.236-0.891-0.441-1.344-0.628v2.643c0.5 0.258 0.992 0.543 1.471 0.88z" fill="#fff" fill-opacity=".4"/>
<path d="m201.17 37.094c0.259 0.149 0.547 0.187 0.869 0.103l6.576-1.698c0.321-0.083 0.555-0.253 0.707-0.513 0.152-0.258 0.188-0.549 0.106-0.868l-8.816-34.118h-9.357l9.402 36.382c0.086 0.322 0.253 0.557 0.513 0.712z" fill="#fff" fill-opacity=".4"/>
<path d="m1429.2 299.67l6.568-8.764c0.22-0.356 0.259-0.702 0.115-1.039-0.145-0.337-0.422-0.548-0.833-0.63-1.128-0.222-2.39-0.228-3.794-0.014-1.398 0.213-2.672 0.563-3.823 1.056-3.672 1.574-6.253 4.224-7.746 7.951-1.491 3.728-1.448 7.427 0.119 11.099 1.574 3.67 4.226 6.253 7.949 7.745 3.593 1.438 7.156 1.438 10.696 0.029v-10.113l-6.396-0.651-2.855-6.669z" fill="#fff" fill-opacity=".4"/>
<path d="m1435.9 437.97c-0.407 0.514-0.868 1.09-1.383 1.726-0.516 0.64-1.239 1.304-2.177 1.992-0.935 0.692-1.933 1.214-2.988 1.566-1.057 0.354-2.167 0.538-3.329 0.549-1.162 0.012-2.144-0.081-2.938-0.28-0.793-0.198-1.508-0.381-2.142-0.547-0.636-0.163-1.023-0.223-1.165-0.175-0.963 0.322-1.788 0.775-2.48 1.355-0.69 0.582-1.224 1.229-1.601 1.943-0.373 0.714-0.649 1.516-0.824 2.407-0.176 0.894-0.258 1.776-0.246 2.649 0.013 0.873 0.09 1.8 0.233 2.777 0.142 0.98 0.315 1.877 0.527 2.694 0.212 0.814 0.458 1.642 0.738 2.478 0.634 1.895 1.709 3.196 3.229 3.907 1.519 0.71 3.23 0.748 5.142 0.108l13.982-4.68v-21.689c-0.574 0.058-1.158 0.178-1.754 0.377-0.143 0.05-0.416 0.33-0.824 0.843z" fill="#fff" fill-opacity=".4"/>
</svg>
