<?xml version="1.0" encoding="utf-8"?>
<!-- Generator: Adobe Illustrator 16.0.0, SVG Export Plug-In . SVG Version: 6.00 Build 0)  -->
<!DOCTYPE svg PUBLIC "-//W3C//DTD SVG 1.1//EN" "http://www.w3.org/Graphics/SVG/1.1/DTD/svg11.dtd">
<svg version="1.1" id="Layer_1" xmlns="http://www.w3.org/2000/svg" xmlns:xlink="http://www.w3.org/1999/xlink" x="0px" y="0px"
	 width="1440px" height="811px" viewBox="0 0 1440 811" enable-background="new 0 0 1440 811" xml:space="preserve">
<rect x="0.5" y="0" fill="#FBDE66" width="1438" height="811"/>
<title>BG_icon1</title>
<desc>Created with Sketch.</desc>
<g>
	<g>
		<defs>
			<rect id="SVGID_1_" x="1" y="0" width="1438" height="811"/>
		</defs>
		<clipPath id="SVGID_2_">
			<use xlink:href="#SVGID_1_"  overflow="visible"/>
		</clipPath>
		<g clip-path="url(#SVGID_2_)">
			<path fill="#FFFFFF" fill-opacity="0.4" d="M115.686,753.918c-1.372-1.422-3.098-2.179-5.178-2.27
				c-2.327-0.067-4.662,0.521-7.013,1.768s-4.521,2.521-6.517,3.828c-1.995,1.31-3.664,1.965-5.003,1.97
				c-2.796,0.06-6.016,0.29-9.665,0.691c-6.364,0.709-10.365,0.888-12.002,0.53l-11.053-11.45c-1.427-1.477-3.165-2.23-5.219-2.268
				c-2.052-0.036-3.816,0.659-5.294,2.085l-26.736,25.822c-1.478,1.427-2.233,3.166-2.269,5.218
				c-0.034,2.055,0.658,3.817,2.086,5.296l11.615,12.034c0.594,0.611,1.89,3.071,3.896,7.38c2.109,4.582,4.107,8.479,5.997,11.688
				c1.888,3.209,4.123,6.152,6.705,8.827l3.751,3.887l1.453,1.504c3.792,3.928,7.965,6.006,12.521,6.237
				c4.556,0.229,8.753-1.539,12.6-5.307c3.759-0.398,7.043-1.956,9.856-4.676c0.612-0.59,1.171-1.21,1.675-1.858
				c2.887-0.744,5.405-2.151,7.549-4.224c1.003-0.968,1.844-2.021,2.521-3.16c3.379-0.625,6.307-2.134,8.788-4.529
				c2.866-2.77,4.336-6.234,4.41-10.396c0.072-4.162-1.29-7.69-4.086-10.588l-7.102-7.354c4.049-1.325,7.367-3.239,9.958-5.741
				c3.26-3.147,5.378-6.137,6.358-8.969c0.98-2.831,1.021-5.614,0.126-8.354C119.522,758.798,117.944,756.258,115.686,753.918z
				 M35.008,782.74c-0.723,0.698-1.606,1.039-2.646,1.021c-1.041-0.019-1.908-0.39-2.607-1.114c-0.7-0.725-1.042-1.604-1.021-2.646
				c0.019-1.04,0.391-1.911,1.113-2.61c0.725-0.7,1.606-1.039,2.647-1.023c1.037,0.021,1.907,0.391,2.607,1.115
				c0.7,0.724,1.039,1.606,1.022,2.646C36.103,781.171,35.733,782.04,35.008,782.74z M113.537,766.326
				c-0.447,2.154-2.037,4.553-4.768,7.188c-1.643,1.588-4.522,3.077-8.642,4.47c-4.117,1.395-6.986,2.871-8.602,4.431l14.201,14.708
				c1.346,1.394,2.005,3.151,1.981,5.272c-0.022,2.123-0.744,3.869-2.165,5.242c-0.976,0.94-2.395,1.729-4.252,2.369
				c-1.86,0.638-3.234,0.525-4.122-0.339c-0.071,0.875-0.396,1.861-0.977,2.962c-0.581,1.098-1.219,1.983-1.915,2.655
				c-1.921,1.856-4.293,2.719-7.109,2.587c-0.406,1.361-1.126,2.541-2.155,3.535c-1.03,0.996-2.29,1.739-3.775,2.235
				c-1.488,0.493-2.857,0.54-4.109,0.132c-0.703,0.948-1.415,1.771-2.138,2.47c-4.65,4.491-9.562,4.063-14.724-1.284l-4.882-5.056
				c-3.524-3.65-7.105-9.395-10.747-17.235c-0.079-0.194-0.321-0.737-0.73-1.637c-0.41-0.896-0.713-1.561-0.911-1.988
				c-0.195-0.427-0.51-1.069-0.93-1.928c-0.424-0.854-0.78-1.53-1.074-2.028c-0.293-0.498-0.646-1.048-1.06-1.643
				c-0.415-0.597-0.797-1.076-1.146-1.438l-1.291-1.338l26.735-25.822l1.291,1.338c0.432,0.443,1.033,0.818,1.81,1.119
				c0.774,0.301,1.688,0.495,2.742,0.582c1.053,0.086,2.062,0.146,3.034,0.177c0.974,0.03,2.122-0.003,3.452-0.104
				c1.329-0.1,2.387-0.192,3.168-0.272c0.78-0.082,1.775-0.195,2.982-0.338c1.207-0.146,1.935-0.229,2.181-0.25
				c3.375-0.298,5.676-0.447,6.909-0.454c2.299-0.016,4.625-0.657,6.977-1.932c2.349-1.273,4.507-2.538,6.474-3.79
				c1.966-1.253,3.66-1.867,5.083-1.842C112.918,761.756,113.987,764.17,113.537,766.326z"/>
			<path fill="#FFFFFF" fill-opacity="0.4" d="M117.833,638.346c-3.579-0.38-7.153,0.837-10.724,3.65
				c-0.987,0.778-1.859,1.743-2.617,2.896s-1.348,2.369-1.773,3.647c-0.426,1.279-0.756,2.425-0.991,3.437
				c-0.234,1.013-0.414,2.032-0.535,3.058c-1.023-0.121-2.06-0.187-3.098-0.192s-2.229,0.048-3.571,0.163
				c-1.342,0.114-2.663,0.406-3.961,0.875c-1.298,0.468-2.438,1.092-3.427,1.869c-3.569,2.814-5.586,6.008-6.052,9.578
				c-0.466,3.569,0.683,7.109,3.445,10.613c0.842,1.066,1.896,2.021,3.161,2.854c1.268,0.839,2.452,1.465,3.56,1.886
				c1.105,0.42,2.259,0.769,3.462,1.047c1.203,0.282,2.055,0.455,2.561,0.521c0.503,0.067,0.888,0.104,1.147,0.104l26.251,2.629
				c0.513,0.061,0.976-0.072,1.391-0.398c0.413-0.326,0.65-0.746,0.712-1.259l3.582-26.079c0.772-6.524-0.229-11.548-3.007-15.068
				C124.587,640.671,121.414,638.727,117.833,638.346z M126.506,658.636l-3.328,24.289l-24.433-2.437
				c-5.327-0.63-9.046-2.283-11.156-4.959c-1.018-1.292-1.743-2.563-2.181-3.823c-0.437-1.258-0.617-2.388-0.541-3.391
				c0.074-1.002,0.35-1.988,0.825-2.959c0.477-0.968,1.03-1.805,1.663-2.511c0.631-0.705,1.363-1.385,2.189-2.038
				c0.828-0.653,1.882-1.153,3.157-1.501c1.274-0.348,2.559-0.532,3.846-0.553c1.289-0.021,2.43,0.01,3.424,0.09
				c0.995,0.082,1.858,0.195,2.592,0.34c0.562,0.124,1.091-0.008,1.586-0.396c0.493-0.391,0.745-0.873,0.758-1.448
				c0.029-0.748,0.12-1.615,0.273-2.603c0.152-0.983,0.389-2.103,0.71-3.351c0.322-1.246,0.799-2.452,1.437-3.61
				c0.635-1.161,1.366-2.066,2.193-2.722c0.828-0.653,1.659-1.203,2.493-1.654c0.833-0.451,1.777-0.794,2.83-1.03
				c1.053-0.235,2.076-0.272,3.068-0.114c0.991,0.162,2.048,0.602,3.17,1.318c1.12,0.718,2.188,1.723,3.207,3.012
				C126.4,649.263,127.139,653.281,126.506,658.636z"/>
			<path fill="#FFFFFF" fill-opacity="0.4" d="M253.029,730.084c-0.531,0.058-0.832,0.089-0.896,0.091
				c-0.074,0.016-0.123,0.054-0.146,0.106c-0.15,0.341-0.222,1.437-0.212,3.285c-0.371,0.211-0.732,0.477-1.087,0.79
				c-2.121-0.697-3.229-0.938-3.326-0.72l-1.271,2.861c-0.098,0.22,0.824,0.881,2.764,1.988c0,0.441,0.047,0.886,0.143,1.337
				c-1.379,1.23-2.146,2.018-2.297,2.357c-0.025,0.055-0.02,0.114,0.018,0.18c1.232,1.706,1.863,2.566,1.891,2.579
				c0.107,0.048,0.564-0.133,1.367-0.543c0.804-0.412,1.363-0.718,1.681-0.917c0.262,0.146,0.46,0.252,0.596,0.312
				c0.138,0.061,0.348,0.137,0.632,0.23c0.063,0.37,0.214,0.992,0.446,1.863c0.232,0.869,0.402,1.329,0.513,1.379
				c0.027,0.012,1.087-0.096,3.181-0.324c0.071-0.019,0.12-0.052,0.146-0.107c0.148-0.341,0.222-1.436,0.21-3.283
				c0.396-0.233,0.759-0.496,1.087-0.792c2.121,0.697,3.23,0.938,3.329,0.722l1.271-2.863c0.098-0.218-0.824-0.881-2.765-1.987
				c-0.002-0.476-0.049-0.921-0.141-1.338c1.379-1.23,2.145-2.016,2.298-2.356c0.021-0.056,0.017-0.113-0.021-0.181
				c-1.211-1.682-1.845-2.533-1.898-2.559l-0.142-0.014c-0.808,0.312-1.771,0.796-2.896,1.456c-0.263-0.149-0.46-0.255-0.596-0.315
				c-0.139-0.061-0.35-0.137-0.634-0.23c-0.062-0.371-0.212-0.988-0.448-1.854c-0.236-0.864-0.408-1.32-0.519-1.369
				c-0.028-0.012-0.28,0.007-0.759,0.057C254.064,729.973,253.56,730.027,253.029,730.084z M255.739,735.941
				c0.709,0.314,1.205,0.847,1.494,1.594c0.287,0.749,0.272,1.479-0.042,2.188c-0.319,0.723-0.85,1.226-1.589,1.509
				c-0.738,0.285-1.469,0.266-2.188-0.056c-0.725-0.32-1.227-0.852-1.511-1.59c-0.283-0.737-0.266-1.468,0.058-2.19
				c0.312-0.708,0.845-1.205,1.593-1.494C254.3,735.613,255.03,735.627,255.739,735.941z"/>
			<path fill="#FFFFFF" fill-opacity="0.4" d="M258.158,717.551c0,0.439,0.046,0.886,0.141,1.336
				c-1.379,1.229-2.146,2.017-2.298,2.356c-0.022,0.056-0.019,0.115,0.021,0.182c1.231,1.706,1.86,2.564,1.89,2.578
				c0.107,0.048,0.563-0.134,1.367-0.544c0.803-0.409,1.361-0.717,1.681-0.916c0.262,0.146,0.459,0.254,0.597,0.312
				c0.135,0.061,0.346,0.138,0.629,0.231c0.065,0.371,0.214,0.991,0.446,1.863c0.232,0.871,0.405,1.329,0.513,1.379
				c0.028,0.014,1.087-0.097,3.182-0.324c0.072-0.018,0.119-0.053,0.146-0.106c0.151-0.341,0.222-1.437,0.211-3.286
				c0.396-0.229,0.758-0.495,1.088-0.789c2.12,0.697,3.229,0.938,3.327,0.721l1.271-2.863c0.099-0.218-0.823-0.88-2.765-1.988
				c-0.002-0.474-0.049-0.918-0.141-1.335c1.379-1.229,2.145-2.018,2.297-2.358c0.024-0.054,0.019-0.113-0.017-0.179
				c-1.215-1.682-1.848-2.535-1.899-2.559l-0.141-0.015c-0.81,0.312-1.774,0.795-2.899,1.453c-0.262-0.146-0.459-0.252-0.596-0.312
				c-0.138-0.062-0.349-0.139-0.631-0.231c-0.065-0.372-0.215-0.989-0.45-1.854c-0.236-0.863-0.409-1.32-0.519-1.369
				c-0.026-0.01-0.279,0.007-0.76,0.055c-0.479,0.049-0.981,0.104-1.515,0.16c-0.531,0.057-0.831,0.088-0.896,0.09
				c-0.073,0.018-0.122,0.053-0.146,0.107c-0.15,0.34-0.223,1.436-0.21,3.285c-0.372,0.211-0.735,0.474-1.086,0.791
				c-2.122-0.7-3.232-0.939-3.329-0.723l-1.272,2.862C255.297,715.779,256.219,716.442,258.158,717.551z M261.264,716.455
				c0.313-0.707,0.846-1.205,1.594-1.493c0.749-0.287,1.478-0.273,2.187,0.041s1.207,0.847,1.495,1.596
				c0.286,0.75,0.272,1.477-0.042,2.185c-0.32,0.725-0.852,1.228-1.589,1.512c-0.736,0.282-1.469,0.266-2.19-0.056
				c-0.723-0.321-1.226-0.852-1.51-1.59C260.923,717.911,260.943,717.18,261.264,716.455z"/>
			<path fill="#FFFFFF" fill-opacity="0.4" d="M228.781,727.459c0.179,0.078,0.336,0.092,0.474,0.038l3.222-0.747
				c0.432,0.535,0.849,0.973,1.251,1.315l-0.92,3.337c-0.047,0.145-0.031,0.292,0.045,0.449c0.078,0.156,0.189,0.268,0.341,0.335
				l3.805,1.69c0.312,0.14,0.589,0.066,0.831-0.218c0.448-0.568,1.072-1.557,1.878-2.962c0.618,0.079,1.235,0.102,1.855,0.066
				l1.533,2.885c0.094,0.157,0.215,0.27,0.365,0.334c0.259,0.116,0.975-0.052,2.146-0.502c1.17-0.451,2.003-0.812,2.498-1.079
				c0.139-0.055,0.244-0.163,0.317-0.326c0.06-0.137,0.073-0.293,0.037-0.473c-0.356-1.253-0.62-2.31-0.794-3.17
				c0.535-0.431,0.981-0.854,1.345-1.264l3.386,0.919c0.13,0.041,0.271,0.018,0.424-0.069c0.153-0.087,0.261-0.199,0.32-0.336
				l1.681-3.781c0.067-0.149,0.077-0.305,0.033-0.463c-0.043-0.159-0.127-0.281-0.25-0.369l-2.899-1.852
				c0.056-0.529,0.072-1.192,0.052-1.986c0.337-0.209,0.825-0.479,1.465-0.815c0.639-0.339,1.089-0.578,1.35-0.726
				c0.155-0.094,0.263-0.201,0.315-0.323c0.163-0.369-0.332-1.896-1.491-4.581c-0.086-0.17-0.205-0.288-0.354-0.354
				c-0.163-0.072-0.321-0.086-0.474-0.039l-3.221,0.747c-0.433-0.533-0.85-0.972-1.252-1.315l0.921-3.337
				c0.046-0.142,0.031-0.292-0.046-0.447c-0.078-0.156-0.19-0.271-0.341-0.338l-3.802-1.688c-0.314-0.14-0.592-0.066-0.832,0.219
				c-0.442,0.554-1.065,1.533-1.871,2.939c-0.67-0.07-1.291-0.086-1.862-0.047l-1.534-2.885c-0.094-0.154-0.216-0.267-0.365-0.335
				c-0.261-0.113-0.978,0.049-2.15,0.489c-1.175,0.441-2.004,0.798-2.486,1.074c-0.143,0.065-0.251,0.181-0.323,0.345
				c-0.055,0.122-0.066,0.279-0.04,0.473c0.358,1.255,0.623,2.31,0.796,3.171c-0.534,0.432-0.982,0.853-1.345,1.263l-3.388-0.917
				c-0.129-0.041-0.271-0.019-0.422,0.067c-0.152,0.089-0.261,0.199-0.321,0.336l-1.68,3.781c-0.068,0.15-0.079,0.306-0.035,0.464
				c0.045,0.157,0.131,0.273,0.262,0.349l2.89,1.872c-0.067,0.591-0.076,1.256-0.028,1.996c-0.354,0.202-0.856,0.475-1.516,0.819
				c-0.659,0.344-1.1,0.58-1.32,0.71c-0.155,0.095-0.262,0.202-0.316,0.324c-0.163,0.368,0.334,1.896,1.49,4.581
				C228.513,727.273,228.631,727.391,228.781,727.459z M235.677,717.619c0.642-1.444,1.702-2.45,3.178-3.021
				c1.477-0.566,2.938-0.53,4.383,0.111c1.443,0.644,2.45,1.701,3.019,3.18c0.566,1.477,0.531,2.938-0.112,4.383
				c-0.642,1.444-1.701,2.451-3.176,3.019c-1.479,0.568-2.938,0.531-4.383-0.11c-1.444-0.644-2.451-1.701-3.021-3.181
				C234.996,720.524,235.034,719.062,235.677,717.619z"/>
			<path fill="#FFFFFF" fill-opacity="0.4" d="M1410.214,793.269c0.084-0.189,0.102-0.412,0.052-0.662
				c-0.501-1.76-0.872-3.244-1.114-4.45c0.751-0.605,1.379-1.198,1.888-1.774l4.754,1.29c0.182,0.058,0.381,0.023,0.596-0.098
				c0.215-0.123,0.363-0.28,0.447-0.472l2.361-5.311c0.093-0.21,0.108-0.428,0.046-0.648c-0.059-0.223-0.178-0.396-0.351-0.52
				l-4.071-2.601c0.077-0.743,0.104-1.674,0.07-2.788c0.474-0.293,1.161-0.675,2.059-1.146c0.897-0.475,1.527-0.812,1.896-1.018
				c0.218-0.132,0.365-0.283,0.441-0.455c0.229-0.518-0.469-2.661-2.093-6.432c-0.123-0.239-0.29-0.404-0.501-0.498
				c-0.229-0.101-0.45-0.119-0.663-0.055l-4.521,1.049c-0.607-0.75-1.194-1.364-1.759-1.847l1.292-4.687
				c0.064-0.198,0.046-0.41-0.063-0.629c-0.109-0.221-0.268-0.379-0.479-0.472l-5.337-2.372c-0.442-0.197-0.832-0.096-1.169,0.306
				c-0.621,0.778-1.495,2.154-2.625,4.128c-0.939-0.1-1.814-0.121-2.616-0.065l-2.153-4.051c-0.132-0.219-0.306-0.374-0.515-0.47
				c-0.364-0.16-1.37,0.066-3.021,0.688c-1.647,0.617-2.813,1.119-3.489,1.509c-0.201,0.093-0.352,0.253-0.454,0.481
				c-0.077,0.173-0.094,0.395-0.055,0.665c0.501,1.759,0.873,3.241,1.114,4.45c-0.75,0.605-1.378,1.196-1.887,1.773l-4.757-1.288
				c-0.182-0.059-0.38-0.025-0.594,0.097c-0.213,0.121-0.364,0.278-0.45,0.471l-2.356,5.312c-0.095,0.21-0.111,0.427-0.05,0.647
				c0.061,0.222,0.184,0.386,0.366,0.489l4.057,2.629c-0.095,0.83-0.108,1.763-0.04,2.803c-0.496,0.282-1.203,0.667-2.129,1.15
				c-0.926,0.482-1.541,0.816-1.854,0.998c-0.218,0.132-0.367,0.284-0.444,0.456c-0.229,0.516,0.471,2.662,2.093,6.431
				c0.124,0.238,0.29,0.405,0.502,0.5c0.249,0.108,0.47,0.127,0.662,0.055l4.523-1.052c0.604,0.751,1.189,1.367,1.755,1.85
				l-1.291,4.685c-0.064,0.2-0.043,0.409,0.064,0.63c0.108,0.221,0.266,0.376,0.479,0.471l5.339,2.375
				c0.439,0.194,0.829,0.094,1.168-0.306c0.629-0.799,1.51-2.186,2.639-4.159c0.865,0.111,1.733,0.144,2.604,0.097l2.152,4.049
				c0.13,0.22,0.303,0.376,0.512,0.47c0.364,0.162,1.368-0.073,3.015-0.706c1.646-0.633,2.813-1.14,3.51-1.516
				C1409.959,793.651,1410.111,793.5,1410.214,793.269z M1407.015,779.507c-0.902,2.027-2.392,3.44-4.461,4.236
				c-2.075,0.798-4.125,0.746-6.152-0.155c-2.029-0.902-3.442-2.389-4.241-4.464c-0.797-2.071-0.744-4.126,0.158-6.15
				c0.902-2.03,2.389-3.442,4.462-4.241c2.071-0.797,4.125-0.744,6.152,0.157c2.028,0.9,3.44,2.389,4.238,4.462
				C1407.968,775.427,1407.916,777.476,1407.015,779.507z"/>
			<path fill="#FFFFFF" fill-opacity="0.4" d="M1426.887,802.471c-0.004-0.667-0.069-1.29-0.199-1.877
				c1.938-1.729,3.01-2.83,3.227-3.312c0.032-0.076,0.023-0.161-0.026-0.253c-1.701-2.359-2.59-3.559-2.666-3.592l-0.198-0.019
				c-1.134,0.436-2.489,1.116-4.066,2.042c-0.368-0.208-0.646-0.357-0.837-0.441c-0.191-0.085-0.488-0.193-0.888-0.324
				c-0.091-0.521-0.299-1.389-0.632-2.603c-0.332-1.214-0.573-1.854-0.726-1.922c-0.04-0.019-0.396,0.009-1.065,0.078
				c-0.673,0.067-1.382,0.144-2.129,0.223c-0.745,0.081-1.166,0.123-1.258,0.125c-0.104,0.023-0.172,0.076-0.205,0.152
				c-0.213,0.479-0.312,2.015-0.296,4.611c-0.522,0.294-1.032,0.666-1.526,1.109c-2.979-0.98-4.536-1.316-4.672-1.013l-1.786,4.021
				c-0.138,0.306,1.157,1.233,3.88,2.792c0,0.617,0.066,1.241,0.199,1.874c-1.937,1.729-3.013,2.833-3.228,3.312
				c-0.033,0.075-0.023,0.16,0.027,0.252c1.73,2.396,2.614,3.604,2.654,3.619c0.15,0.068,0.792-0.187,1.918-0.762
				c1.128-0.577,1.915-1.005,2.359-1.287c0.367,0.206,0.646,0.354,0.838,0.439c0.19,0.084,0.486,0.191,0.886,0.324
				c0.09,0.521,0.3,1.393,0.627,2.614c0.326,1.225,0.567,1.869,0.718,1.938c0.04,0.017,1.527-0.134,4.467-0.454
				c0.103-0.026,0.17-0.074,0.205-0.152c0.21-0.479,0.311-2.015,0.295-4.611c0.559-0.326,1.065-0.695,1.525-1.111
				c2.979,0.981,4.536,1.319,4.674,1.014l1.785-4.021C1430.904,804.957,1429.609,804.025,1426.887,802.471z M1422.525,804.006
				c-0.45,1.015-1.192,1.722-2.229,2.119c-1.036,0.398-2.062,0.372-3.075-0.079c-1.015-0.449-1.721-1.193-2.119-2.23
				c-0.399-1.036-0.372-2.061,0.079-3.076c0.439-0.994,1.188-1.692,2.237-2.099c1.052-0.403,2.073-0.387,3.068,0.058
				c0.995,0.442,1.693,1.188,2.1,2.238C1422.987,801.988,1422.967,803.01,1422.525,804.006z"/>
			<path fill="#FFFFFF" fill-opacity="0.4" d="M1439.95,773.072c-0.004-0.665-0.068-1.289-0.198-1.875
				c1.938-1.729,3.013-2.832,3.227-3.311c0.033-0.076,0.025-0.161-0.025-0.251c-1.701-2.362-2.592-3.562-2.666-3.593l-0.196-0.02
				c-1.136,0.436-2.49,1.115-4.07,2.039c-0.365-0.207-0.645-0.354-0.835-0.438c-0.193-0.086-0.489-0.194-0.889-0.325
				c-0.089-0.522-0.298-1.39-0.63-2.603c-0.332-1.215-0.575-1.854-0.729-1.924c-0.038-0.016-0.393,0.011-1.065,0.077
				c-0.672,0.068-1.38,0.144-2.129,0.224c-0.744,0.08-1.165,0.123-1.258,0.126c-0.103,0.024-0.17,0.075-0.205,0.151
				c-0.211,0.479-0.312,2.016-0.295,4.613c-0.521,0.295-1.033,0.665-1.525,1.107c-2.979-0.979-4.537-1.316-4.673-1.012l-1.786,4.02
				c-0.137,0.308,1.158,1.236,3.882,2.793c0,0.618,0.063,1.243,0.196,1.877c-1.936,1.727-3.01,2.829-3.226,3.311
				c-0.032,0.075-0.024,0.16,0.028,0.253c1.729,2.396,2.611,3.604,2.651,3.619c0.152,0.067,0.793-0.187,1.921-0.764
				c1.126-0.574,1.913-1.006,2.359-1.286c0.366,0.207,0.645,0.354,0.837,0.438c0.19,0.085,0.485,0.193,0.884,0.326
				c0.092,0.521,0.301,1.394,0.629,2.616c0.325,1.223,0.565,1.866,0.718,1.936c0.039,0.02,1.525-0.135,4.466-0.455
				c0.102-0.023,0.17-0.073,0.205-0.149c0.211-0.479,0.312-2.017,0.295-4.612c0.559-0.324,1.066-0.697,1.525-1.109
				c2.979,0.979,4.536,1.318,4.675,1.012l1.784-4.021C1443.969,775.557,1442.674,774.629,1439.95,773.072z M1435.592,774.605
				c-0.451,1.017-1.195,1.723-2.232,2.12c-1.034,0.398-2.061,0.373-3.075-0.077c-1.016-0.451-1.722-1.195-2.12-2.231
				c-0.397-1.034-0.37-2.061,0.08-3.077c0.44-0.994,1.188-1.693,2.237-2.1c1.052-0.402,2.073-0.385,3.068,0.059
				c0.996,0.442,1.693,1.188,2.1,2.24C1436.052,772.592,1436.032,773.612,1435.592,774.605z"/>
			<path fill="#FFFFFF" fill-opacity="0.4" d="M1336.33,731.267l-15.273-2.221l-6.848-13.849c-0.385-0.833-0.882-1.248-1.49-1.248
				c-0.607,0-1.105,0.415-1.49,1.248l-6.847,13.849l-15.274,2.221c-1.136,0.183-1.704,0.65-1.704,1.398
				c0,0.428,0.253,0.914,0.761,1.464l11.076,10.771l-2.617,15.218c-0.041,0.283-0.062,0.485-0.062,0.608
				c0,0.426,0.106,0.786,0.32,1.08c0.213,0.294,0.531,0.442,0.958,0.442c0.364,0,0.77-0.123,1.218-0.367l13.661-7.183l13.662,7.183
				c0.426,0.244,0.833,0.367,1.218,0.367c0.831,0,1.248-0.51,1.248-1.522c0-0.265-0.011-0.467-0.031-0.608l-2.616-15.218
				l11.045-10.771c0.528-0.528,0.791-1.017,0.791-1.463C1338.034,731.919,1337.467,731.45,1336.33,731.267z M1322,743.533
				l2.19,12.812l-11.473-6.057l-11.502,6.057l2.222-12.812l-9.31-9.039l12.84-1.887l5.75-11.627l5.752,11.627l12.841,1.887
				L1322,743.533z"/>
			<path fill="#FFFFFF" fill-opacity="0.4" d="M0.029,155.651l7.022,17.912c0.203,0.576,0.485,1.022,0.849,1.338
				c0.384,0.33,0.795,0.443,1.235,0.34c0.44-0.103,0.836-0.356,1.181-0.757c0.219-0.25,0.373-0.451,0.47-0.599l9.938-16.479
				l19.192-1.146c0.927-0.068,1.572-0.312,1.937-0.732c0.612-0.707,0.457-1.61-0.464-2.71l-12.586-14.55l4.834-18.636
				c0.315-1.1,0.186-1.896-0.388-2.392c-0.575-0.497-1.383-0.511-2.424-0.039l-17.74,7.469l-16.208-10.361
				c-1.221-0.754-2.138-0.776-2.748-0.07c-0.348,0.402-0.506,1.068-0.476,1.998l1.658,19.187l-14.871,12.211
				c-0.27,0.232-0.453,0.406-0.553,0.522c-0.348,0.401-0.541,0.828-0.58,1.279c-0.038,0.45,0.144,0.852,0.544,1.195
				c0.345,0.299,0.825,0.516,1.444,0.649L0.029,155.651z"/>
			<path fill="#FFFFFF" fill-opacity="0.4" d="M1453.078,525.115c-1.104-0.47-2.31-0.758-3.621-0.862
				c-1.31-0.105-2.597-0.042-3.859,0.185c-1.266,0.229-2.374,0.479-3.327,0.744c-0.954,0.269-1.887,0.586-2.8,0.952
				c-0.37-0.912-0.787-1.805-1.258-2.677c-0.471-0.873-1.062-1.844-1.771-2.915c-0.711-1.068-1.561-2.037-2.543-2.91
				c-0.985-0.871-2.029-1.539-3.133-2.011c-3.986-1.694-7.581-1.92-10.777-0.675c-3.197,1.243-5.63,3.826-7.294,7.741
				c-0.507,1.191-0.823,2.51-0.938,3.95c-0.122,1.44-0.104,2.722,0.053,3.838c0.156,1.118,0.392,2.242,0.708,3.374
				c0.315,1.134,0.562,1.928,0.735,2.38c0.177,0.453,0.322,0.788,0.44,1.007l9.82,23.156c0.186,0.457,0.508,0.784,0.971,0.981
				c0.46,0.195,0.921,0.203,1.379,0.019l23.44-8.941c5.808-2.344,9.549-5.479,11.222-9.415c1.664-3.913,1.837-7.455,0.516-10.623
				C1459.718,529.243,1457.066,526.81,1453.078,525.115z"/>
			<path fill="#FFFFFF" fill-opacity="0.4" d="M278.638,795.581l-37.063-14.544c-1.108-0.436-2.214-0.412-3.312,0.067
				c-1.099,0.479-1.865,1.271-2.3,2.382l-10.748,27.4c-0.436,1.107-0.412,2.212,0.066,3.31c0.48,1.1,1.272,1.866,2.382,2.302
				l37.062,14.545c1.11,0.434,2.213,0.41,3.312-0.067c1.099-0.48,1.864-1.273,2.3-2.382l10.749-27.401
				c0.434-1.107,0.41-2.211-0.069-3.31C280.537,796.782,279.745,796.015,278.638,795.581z M267.115,827.328
				c-0.086,0.219-0.238,0.376-0.461,0.474c-0.223,0.096-0.442,0.102-0.66,0.017l-37.063-14.543c-0.221-0.086-0.377-0.24-0.473-0.463
				c-0.099-0.222-0.104-0.442-0.02-0.66l7.588-19.343c0.301,0.815,0.661,1.598,1.086,2.346c3.142,5.224,5.604,9.465,7.387,12.722
				c0.573,1.059,1.05,1.894,1.429,2.508c0.38,0.612,0.945,1.304,1.7,2.075c0.752,0.771,1.532,1.312,2.338,1.631l0.023,0.009
				l0.026,0.011c0.806,0.315,1.745,0.448,2.823,0.396c1.075-0.054,1.96-0.175,2.656-0.366c0.694-0.193,1.61-0.48,2.752-0.868
				c3.521-1.174,8.21-2.608,14.064-4.303c0.818-0.263,1.614-0.589,2.39-0.98L267.115,827.328z M277.856,799.909
				c-0.049,0.146-0.088,0.259-0.117,0.331c-0.028,0.078-0.073,0.19-0.134,0.342c-0.059,0.15-0.096,0.244-0.107,0.276
				c-0.39,0.991-1.212,1.941-2.471,2.854c-1.259,0.91-2.482,1.549-3.672,1.914c-4.24,1.281-8.648,2.62-13.228,4.021
				c-0.133,0.044-0.525,0.178-1.173,0.396c-0.649,0.222-1.158,0.384-1.529,0.489s-0.848,0.226-1.432,0.354
				c-0.583,0.131-1.1,0.195-1.544,0.195c-0.444-0.002-0.836-0.066-1.17-0.199l-0.026-0.011l-0.024-0.01
				c-0.336-0.132-0.668-0.349-0.993-0.65c-0.325-0.303-0.66-0.699-1.001-1.19c-0.34-0.493-0.608-0.903-0.808-1.232
				c-0.201-0.33-0.464-0.797-0.79-1.399c-0.327-0.603-0.521-0.965-0.591-1.088c-2.403-4.143-4.727-8.123-6.964-11.945
				c-1.704-2.917-2.003-5.785-0.896-8.606c0.086-0.216,0.239-0.375,0.461-0.473c0.224-0.098,0.442-0.103,0.661-0.017l37.064,14.544
				c0.135,0.051,0.242,0.12,0.326,0.202c0.087,0.08,0.138,0.174,0.153,0.276c0.02,0.104,0.033,0.197,0.049,0.28
				C277.918,799.648,277.902,799.762,277.856,799.909z"/>
			<path fill="#FFFFFF" fill-opacity="0.4" d="M421.59,775.972c-3.555-2.785-7.562-4.518-12.027-5.193s-8.844-0.163-13.136,1.542
				c-4.292,1.704-7.831,4.332-10.616,7.886c-2.786,3.557-4.517,7.565-5.194,12.03c-0.676,4.468-0.163,8.845,1.541,13.141
				c1.704,4.292,4.332,7.831,7.887,10.615c3.556,2.787,7.563,4.52,12.028,5.196c4.464,0.676,8.842,0.162,13.135-1.542
				c4.293-1.703,7.832-4.333,10.616-7.887c2.785-3.557,4.519-7.564,5.194-12.031s0.163-8.843-1.541-13.138
				C427.774,782.3,425.145,778.76,421.59,775.972z M425.288,804.391c-1.059,2.455-2.597,4.688-4.614,6.701
				c-2.018,2.015-4.362,3.552-7.032,4.609c-2.669,1.062-5.43,1.552-8.278,1.468c-2.85-0.08-5.501-0.65-7.953-1.711
				c-2.454-1.059-4.686-2.599-6.699-4.615c-2.013-2.019-3.551-4.363-4.608-7.032c-1.062-2.672-1.55-5.433-1.468-8.281
				c0.081-2.851,0.65-5.503,1.709-7.956c1.061-2.454,2.6-4.687,4.617-6.701c2.018-2.012,4.361-3.551,7.03-4.608
				c2.67-1.062,5.432-1.549,8.278-1.468c2.85,0.08,5.501,0.652,7.954,1.711c2.455,1.06,4.686,2.599,6.7,4.616
				c2.013,2.02,3.551,4.363,4.607,7.032c1.062,2.672,1.551,5.435,1.469,8.281C426.919,799.287,426.349,801.939,425.288,804.391z"/>
			<path fill="#FFFFFF" fill-opacity="0.4" d="M398.695,792.908c0.466-1.074,0.48-2.158,0.049-3.248
				c-0.432-1.087-1.186-1.863-2.263-2.328c-1.074-0.466-2.157-0.48-3.245-0.05c-1.09,0.434-1.864,1.188-2.33,2.264
				c-0.464,1.073-0.479,2.156-0.049,3.247c0.433,1.087,1.188,1.863,2.262,2.328c1.077,0.466,2.158,0.48,3.248,0.05
				C397.454,794.737,398.229,793.983,398.695,792.908z"/>
			<path fill="#FFFFFF" fill-opacity="0.4" d="M418.566,795.578c-0.438-0.385-0.946-0.559-1.526-0.519
				c-0.578,0.04-1.064,0.281-1.459,0.722c-0.396,0.443-0.568,0.965-0.521,1.563c0.138,1.847-0.284,3.553-1.267,5.121
				c-0.984,1.565-2.338,2.691-4.063,3.379c-1.725,0.684-3.481,0.792-5.271,0.327c-1.79-0.467-3.269-1.42-4.435-2.86
				c-0.377-0.468-0.854-0.729-1.435-0.784c-0.581-0.055-1.095,0.103-1.543,0.469c-0.471,0.377-0.73,0.856-0.786,1.438
				c-0.054,0.579,0.102,1.094,0.471,1.541c1.745,2.187,3.958,3.625,6.635,4.321c2.679,0.696,5.32,0.527,7.931-0.509
				c2.606-1.033,4.646-2.724,6.119-5.066c1.471-2.343,2.093-4.909,1.866-7.698C419.24,796.446,419,795.963,418.566,795.578z"/>
			<path fill="#FFFFFF" fill-opacity="0.4" d="M408.893,788.859c1.075,0.466,2.156,0.481,3.245,0.049
				c1.09-0.431,1.866-1.186,2.33-2.262c0.465-1.076,0.479-2.159,0.049-3.246c-0.433-1.089-1.188-1.867-2.262-2.331
				c-1.075-0.463-2.157-0.48-3.247-0.049c-1.088,0.432-1.863,1.187-2.328,2.263s-0.48,2.16-0.051,3.247
				C407.063,787.62,407.817,788.395,408.893,788.859z"/>
			<path fill="#FFFFFF" fill-opacity="0.4" d="M1.053,305.282c0.637,0.153,1.233,0.059,1.793-0.285
				c0.558-0.342,0.912-0.832,1.062-1.468c0.152-0.638,0.059-1.234-0.284-1.792c-0.345-0.558-0.831-0.913-1.47-1.066
				c-0.637-0.151-1.232-0.058-1.792,0.286c-0.557,0.344-0.911,0.833-1.064,1.47c-0.15,0.638-0.057,1.234,0.286,1.793
				C-0.074,304.776,0.416,305.131,1.053,305.282z"/>
			<path fill="#FFFFFF" fill-opacity="0.4" d="M-5.537,300.408c1.336-0.82,2.297-1.947,2.881-3.379
				c0.585-1.431,0.681-2.903,0.288-4.416c-0.078-0.315-0.255-0.557-0.532-0.727c-0.279-0.172-0.582-0.214-0.905-0.13
				c-0.314,0.078-0.557,0.257-0.729,0.533c-0.168,0.278-0.21,0.581-0.128,0.905c0.255,1.004,0.186,1.983-0.205,2.94
				c-0.39,0.958-1.026,1.707-1.909,2.25c-0.887,0.543-1.842,0.771-2.872,0.688c-1.031-0.085-1.937-0.468-2.715-1.148
				c-0.253-0.222-0.544-0.317-0.875-0.289c-0.33,0.028-0.599,0.167-0.81,0.412c-0.214,0.244-0.307,0.53-0.279,0.856
				c0.023,0.325,0.162,0.592,0.406,0.805c1.171,1.033,2.525,1.611,4.068,1.739C-8.312,301.575-6.872,301.228-5.537,300.408z"/>
			<path fill="#FFFFFF" fill-opacity="0.4" d="M-5.925,305.635c-0.638-0.151-1.233-0.058-1.792,0.284
				c-0.56,0.344-0.912,0.833-1.065,1.47c-0.151,0.638-0.056,1.233,0.286,1.793c0.342,0.557,0.831,0.912,1.469,1.063
				c0.637,0.153,1.233,0.06,1.792-0.285c0.557-0.343,0.912-0.831,1.063-1.47c0.151-0.636,0.057-1.234-0.284-1.791
				C-4.798,306.142-5.288,305.787-5.925,305.635z"/>
			<path fill="#FFFFFF" fill-opacity="0.4" d="M-11.676,313.949c2.223,1.192,4.597,1.76,7.119,1.703
				c2.521-0.058,4.885-0.76,7.082-2.112c2.199-1.35,3.895-3.138,5.085-5.36c1.192-2.226,1.761-4.6,1.702-7.122
				c-0.056-2.524-0.759-4.886-2.109-7.083c-1.352-2.2-3.138-3.896-5.359-5.087c-2.226-1.191-4.6-1.761-7.121-1.703
				c-2.525,0.057-4.883,0.761-7.084,2.111c-2.199,1.351-3.894,3.138-5.086,5.362c-1.191,2.225-1.757,4.598-1.701,7.121
				c0.057,2.523,0.761,4.885,2.109,7.083C-15.687,311.062-13.901,312.76-11.676,313.949z M-16.621,303.205
				c-0.229-1.577-0.172-3.091,0.178-4.542c0.346-1.454,0.979-2.832,1.896-4.134c0.917-1.302,2.059-2.373,3.428-3.214
				c1.367-0.839,2.838-1.374,4.415-1.604c1.576-0.229,3.091-0.172,4.544,0.176c1.451,0.348,2.826,0.979,4.13,1.896
				c1.302,0.918,2.374,2.062,3.212,3.43c0.841,1.367,1.376,2.841,1.606,4.416c0.227,1.577,0.169,3.093-0.181,4.544
				c-0.346,1.453-0.978,2.829-1.895,4.133c-0.919,1.301-2.062,2.374-3.429,3.214c-1.366,0.841-2.841,1.374-4.414,1.604
				c-1.578,0.229-3.092,0.171-4.544-0.177s-2.83-0.979-4.133-1.897s-2.374-2.06-3.212-3.428
				C-15.857,306.254-16.392,304.781-16.621,303.205z"/>
			<path fill="#FFFFFF" fill-opacity="0.4" d="M1394.522,676.066c-1.752,3.861-2.415,7.854-1.99,11.979
				c0.426,4.125,1.834,7.879,4.232,11.259c2.398,3.383,5.527,5.947,9.391,7.699c3.861,1.752,7.854,2.416,11.979,1.99
				c4.122-0.426,7.874-1.837,11.256-4.234c3.381-2.398,5.949-5.527,7.699-9.392c1.751-3.86,2.411-7.854,1.987-11.98
				c-0.426-4.123-1.835-7.876-4.232-11.258c-2.398-3.382-5.528-5.947-9.393-7.699c-3.857-1.751-7.851-2.413-11.975-1.99
				c-4.124,0.425-7.876,1.837-11.258,4.234C1398.837,669.073,1396.272,672.203,1394.522,676.066z M1402.604,671.427
				c1.936-1.763,4.051-3.075,6.346-3.94c2.296-0.862,4.753-1.27,7.369-1.219s5.127,0.619,7.528,1.709
				c2.399,1.09,4.481,2.603,6.245,4.537c1.762,1.937,3.073,4.051,3.938,6.348c0.862,2.295,1.27,4.753,1.217,7.37
				c-0.05,2.616-0.62,5.126-1.708,7.527c-1.09,2.402-2.601,4.485-4.535,6.249c-1.936,1.762-4.051,3.075-6.346,3.938
				c-2.296,0.864-4.754,1.271-7.369,1.219c-2.616-0.049-5.126-0.618-7.525-1.71c-2.403-1.089-4.485-2.602-6.246-4.537
				c-1.762-1.933-3.076-4.05-3.939-6.347c-0.862-2.294-1.269-4.751-1.22-7.37c0.052-2.615,0.621-5.126,1.712-7.526
				C1399.156,675.272,1400.668,673.189,1402.604,671.427z"/>
			<path fill="#FFFFFF" fill-opacity="0.4" d="M1424.507,685.385c0.978,0.443,1.972,0.476,2.979,0.098
				c1.006-0.378,1.731-1.059,2.177-2.037c0.442-0.979,0.477-1.973,0.099-2.979c-0.381-1.009-1.061-1.733-2.037-2.18
				c-0.979-0.443-1.971-0.475-2.979-0.097c-1.008,0.378-1.731,1.059-2.177,2.036c-0.444,0.979-0.479,1.975-0.099,2.979
				C1422.85,684.218,1423.527,684.941,1424.507,685.385z"/>
			<path fill="#FFFFFF" fill-opacity="0.4" d="M1403.719,688.79l17.736,8.044c0.479,0.218,0.976,0.23,1.486,0.039
				c0.509-0.19,0.872-0.526,1.092-1.01c0.217-0.479,0.229-0.976,0.038-1.482c-0.19-0.511-0.528-0.875-1.008-1.094l-17.736-8.043
				c-0.479-0.218-0.977-0.23-1.485-0.039c-0.512,0.19-0.873,0.528-1.092,1.01c-0.219,0.479-0.23,0.974-0.039,1.483
				C1402.904,688.209,1403.239,688.572,1403.719,688.79z"/>
			<path fill="#FFFFFF" fill-opacity="0.4" d="M1410.319,678.952c0.979,0.444,1.973,0.478,2.979,0.098
				c1.008-0.378,1.732-1.058,2.176-2.037c0.442-0.979,0.477-1.974,0.097-2.979c-0.376-1.007-1.056-1.732-2.034-2.178
				c-0.979-0.444-1.973-0.477-2.979-0.098c-1.008,0.378-1.732,1.06-2.176,2.037c-0.445,0.979-0.479,1.973-0.099,2.979
				C1408.659,677.782,1409.338,678.508,1410.319,678.952z"/>
			<path fill="#FFFFFF" fill-opacity="0.4" d="M944.545,791.746c-0.537-0.535-1.189-0.806-1.956-0.806
				c-0.77,0-1.421,0.271-1.956,0.806l-18.869,18.902l-8.455-8.488c-0.537-0.537-1.189-0.805-1.956-0.805s-1.419,0.268-1.956,0.805
				l-3.911,3.912c-0.538,0.538-0.806,1.189-0.806,1.957s0.268,1.42,0.806,1.956l10.412,10.415l3.911,3.911
				c0.536,0.538,1.188,0.806,1.955,0.806s1.42-0.268,1.957-0.806l3.911-3.911l20.823-20.828c0.537-0.537,0.807-1.188,0.807-1.958
				c0-0.767-0.27-1.418-0.807-1.956L944.545,791.746z"/>
			<path fill="#FFFFFF" fill-opacity="0.4" d="M178.014,21.185c-0.083-0.323-0.253-0.558-0.514-0.711
				c-0.258-0.152-0.546-0.188-0.867-0.104l-6.578,1.7c-0.319,0.082-0.557,0.255-0.708,0.512c-0.151,0.26-0.186,0.548-0.103,0.871
				l5.102,19.733c0.08,0.318,0.251,0.557,0.508,0.71c0.258,0.152,0.548,0.188,0.869,0.104l6.576-1.7
				c0.322-0.084,0.557-0.254,0.711-0.514c0.15-0.258,0.184-0.547,0.101-0.868L178.014,21.185z"/>
			<path fill="#FFFFFF" fill-opacity="0.4" d="M196.39-16.32c-0.083-0.32-0.253-0.556-0.514-0.708
				c-0.258-0.15-0.545-0.189-0.866-0.104l-6.577,1.699c-0.32,0.083-0.558,0.256-0.709,0.515c-0.153,0.258-0.187,0.546-0.105,0.864
				l13.034,50.436c0.086,0.322,0.253,0.558,0.514,0.712c0.259,0.149,0.547,0.187,0.869,0.103l6.576-1.698
				c0.321-0.083,0.555-0.253,0.707-0.513c0.152-0.258,0.188-0.549,0.106-0.868L196.39-16.32z"/>
			<path fill="#FFFFFF" fill-opacity="0.4" d="M167.125,33.354c-0.082-0.318-0.254-0.553-0.511-0.708
				c-0.258-0.152-0.55-0.188-0.869-0.101l-6.577,1.697c-0.32,0.083-0.558,0.254-0.711,0.513c-0.149,0.262-0.183,0.547-0.104,0.865
				l2.835,10.967c0.081,0.321,0.251,0.559,0.512,0.708c0.257,0.152,0.547,0.188,0.868,0.105l6.577-1.702
				c0.318-0.082,0.554-0.253,0.706-0.511c0.154-0.261,0.188-0.547,0.105-0.867L167.125,33.354z"/>
			<path fill="#FFFFFF" fill-opacity="0.4" d="M155.105,41.141c-0.083-0.319-0.256-0.557-0.51-0.706
				c-0.264-0.154-0.553-0.188-0.872-0.108l-6.578,1.703c-0.318,0.083-0.554,0.253-0.707,0.511c-0.149,0.259-0.187,0.547-0.104,0.867
				l1.702,6.582c0.083,0.318,0.251,0.556,0.51,0.708c0.257,0.151,0.548,0.189,0.868,0.105l6.578-1.698
				c0.317-0.087,0.558-0.256,0.706-0.516c0.154-0.258,0.188-0.548,0.104-0.867L155.105,41.141z"/>
			<path fill="#FFFFFF" fill-opacity="0.4" d="M187.768,4.625c-0.084-0.32-0.254-0.556-0.514-0.71
				c-0.26-0.149-0.545-0.187-0.867-0.104L179.81,5.51c-0.321,0.084-0.557,0.256-0.71,0.511c-0.149,0.26-0.186,0.552-0.103,0.871
				l8.503,32.894c0.081,0.319,0.253,0.554,0.51,0.708c0.26,0.153,0.547,0.188,0.868,0.105l6.578-1.697
				c0.321-0.085,0.557-0.258,0.708-0.516c0.151-0.259,0.188-0.547,0.104-0.867L187.768,4.625z"/>
			<path fill="#FFFFFF" fill-opacity="0.4" d="M1352.682,153.131c0.333,0,1.042-0.536,2.129-1.608
				c1.09-1.072,1.837-1.891,2.244-2.447c0.136-0.151,0.204-0.325,0.204-0.521s-0.077-0.387-0.227-0.567
				c-1.089-1.329-1.896-2.371-2.425-3.125c0.301-0.56,0.598-1.247,0.884-2.062l4.189-0.636c0.184-0.03,0.334-0.127,0.455-0.294
				c0.119-0.166,0.18-0.339,0.18-0.521v-5.031c0-0.195-0.061-0.372-0.18-0.532c-0.121-0.158-0.28-0.253-0.478-0.283l-4.146-0.636
				c-0.228-0.724-0.536-1.464-0.929-2.22c0.271-0.377,0.682-0.909,1.225-1.6c0.544-0.686,0.93-1.188,1.152-1.507
				c0.122-0.166,0.185-0.338,0.185-0.519c0-0.213-0.054-0.379-0.159-0.5c-0.543-0.771-1.79-2.055-3.738-3.853
				c-0.184-0.149-0.37-0.227-0.566-0.227c-0.227,0-0.407,0.064-0.544,0.203l-3.218,2.425c-0.619-0.315-1.299-0.596-2.037-0.837
				l-0.636-4.171c-0.016-0.197-0.103-0.358-0.262-0.486c-0.158-0.129-0.343-0.193-0.555-0.193h-5.029
				c-0.438,0-0.709,0.214-0.816,0.636c-0.196,0.756-0.415,2.16-0.655,4.216c-0.711,0.226-1.397,0.513-2.062,0.859l-3.128-2.425
				c-0.194-0.149-0.393-0.227-0.588-0.227c-0.333,0-1.047,0.54-2.142,1.618c-1.096,1.083-1.84,1.893-2.231,2.437
				c-0.137,0.198-0.203,0.371-0.203,0.523c0,0.181,0.074,0.36,0.225,0.543c1.014,1.224,1.82,2.268,2.426,3.127
				c-0.378,0.696-0.673,1.392-0.885,2.083l-4.214,0.636c-0.167,0.029-0.31,0.129-0.431,0.295c-0.12,0.166-0.181,0.34-0.181,0.522
				v5.029c0,0.195,0.061,0.374,0.181,0.532c0.121,0.157,0.279,0.253,0.477,0.281l4.146,0.612c0.212,0.741,0.521,1.489,0.929,2.243
				c-0.271,0.38-0.681,0.91-1.225,1.599c-0.544,0.688-0.93,1.188-1.153,1.507c-0.122,0.168-0.183,0.341-0.183,0.521
				c0,0.196,0.052,0.37,0.157,0.521c0.59,0.815,1.836,2.084,3.738,3.805c0.167,0.167,0.355,0.252,0.567,0.252
				c0.226,0,0.414-0.068,0.565-0.206l3.194-2.425c0.619,0.317,1.299,0.599,2.038,0.839l0.635,4.17
				c0.018,0.195,0.104,0.358,0.262,0.487c0.158,0.127,0.344,0.193,0.556,0.193h5.028c0.438,0,0.712-0.213,0.816-0.636
				c0.195-0.756,0.415-2.159,0.655-4.216c0.711-0.227,1.397-0.514,2.062-0.859l3.129,2.445
				C1352.304,153.061,1352.5,153.131,1352.682,153.131z M1347.018,142.887c-1.134,1.133-2.5,1.696-4.1,1.696
				c-1.604,0-2.972-0.563-4.103-1.696c-1.133-1.134-1.698-2.5-1.698-4.102c0-1.603,0.565-2.972,1.698-4.104
				c1.131-1.133,2.498-1.699,4.103-1.699c1.6,0,2.966,0.566,4.1,1.699c1.133,1.133,1.699,2.502,1.699,4.104
				S1348.151,141.755,1347.018,142.887z"/>
			<path fill="#FFFFFF" fill-opacity="0.4" d="M1322.81,805.219c-0.157-0.062-0.534-0.058-1.132,0.008
				c-0.598,0.062-1.238,0.146-1.918,0.249c-0.682,0.103-1.453,0.135-2.315,0.099c-0.864-0.034-1.624-0.176-2.274-0.424
				c-0.605-0.227-1.096-0.543-1.467-0.946c-1.255-1.287-2.379-2.32-3.368-3.095c-0.994-0.774-2.138-1.409-3.432-1.896
				c-2.234-0.847-5.056-1.081-8.455-0.706c-0.834,0.086-1.409,0.165-1.728,0.239c-0.479,0.137-0.793,0.396-0.939,0.784
				l-5.078,13.459c-0.12,0.314-0.107,0.631,0.035,0.947c0.144,0.316,0.371,0.533,0.687,0.652c0.192,0.072,0.414,0.094,0.659,0.062
				c3.956-0.522,7.096-0.348,9.416,0.528c0.883,0.333,1.693,0.792,2.434,1.375c0.739,0.584,1.328,1.138,1.768,1.662
				c0.438,0.523,0.982,1.062,1.639,1.612c0.654,0.553,1.353,0.969,2.088,1.246c1.863,0.703,4.358,0.844,7.488,0.421
				c0.391-0.045,0.689-0.122,0.902-0.227c0.215-0.107,0.379-0.312,0.491-0.613l5.226-13.841c0.117-0.312,0.105-0.631-0.038-0.946
				C1323.354,805.553,1323.125,805.337,1322.81,805.219z"/>
			<path fill="#FFFFFF" fill-opacity="0.4" d="M1297.275,795.576c0.242-0.64,0.221-1.273-0.062-1.896
				c-0.281-0.626-0.742-1.062-1.386-1.301c-0.639-0.243-1.272-0.223-1.896,0.06c-0.624,0.283-1.058,0.744-1.3,1.384
				c-0.328,0.873-0.193,1.685,0.407,2.437l-8.668,22.965c-0.058,0.156-0.054,0.312,0.021,0.473c0.07,0.159,0.185,0.268,0.342,0.326
				l1.16,0.438c0.157,0.061,0.316,0.054,0.475-0.02c0.157-0.07,0.268-0.186,0.326-0.342l8.666-22.964
				C1296.307,796.967,1296.946,796.448,1297.275,795.576z"/>
			<path fill="#FFFFFF" fill-opacity="0.4" d="M23.815,512.369c0.32,0.32,0.7,0.48,1.14,0.48h3.233c0.438,0,0.817-0.16,1.139-0.48
				c0.319-0.318,0.479-0.698,0.479-1.138v-3.614c2.712-0.624,5.059-1.926,7.037-3.905c1.979-1.979,3.282-4.325,3.905-7.04h3.613
				c0.438,0,0.816-0.16,1.139-0.479c0.318-0.32,0.479-0.698,0.479-1.137v-3.236c0-0.438-0.16-0.815-0.479-1.138
				c-0.321-0.32-0.699-0.479-1.139-0.479h-3.613c-0.623-2.714-1.926-5.061-3.905-7.041c-1.979-1.979-4.325-3.28-7.037-3.903v-3.614
				c0-0.44-0.16-0.818-0.479-1.139c-0.32-0.319-0.7-0.48-1.139-0.48h-3.233c-0.438,0-0.818,0.161-1.14,0.48
				c-0.318,0.319-0.479,0.697-0.479,1.139v3.614c-2.713,0.623-5.06,1.924-7.038,3.903c-1.98,1.98-3.282,4.327-3.903,7.041H8.779
				c-0.438,0-0.816,0.159-1.138,0.479c-0.319,0.321-0.479,0.7-0.479,1.138v3.236c0,0.438,0.159,0.815,0.479,1.137
				c0.32,0.319,0.698,0.479,1.138,0.479h3.615c0.621,2.715,1.923,5.061,3.903,7.04c1.979,1.979,4.325,3.281,7.038,3.905v3.614
				C23.335,511.671,23.495,512.051,23.815,512.369z M18.571,501.436c-1.354-1.356-2.304-2.944-2.843-4.766h2.756
				c0.438,0,0.816-0.16,1.137-0.479c0.32-0.32,0.48-0.698,0.48-1.137v-3.236c0-0.438-0.16-0.815-0.48-1.138
				c-0.319-0.32-0.698-0.479-1.137-0.479h-2.756c0.539-1.82,1.487-3.407,2.843-4.765c1.356-1.357,2.945-2.306,4.766-2.845v2.756
				c0,0.438,0.16,0.816,0.479,1.137c0.32,0.32,0.7,0.48,1.14,0.48h3.233c0.438,0,0.817-0.16,1.139-0.48
				c0.319-0.319,0.479-0.699,0.479-1.137v-2.756c1.818,0.539,3.406,1.486,4.763,2.845c1.355,1.356,2.304,2.943,2.845,4.765h-2.755
				c-0.438,0-0.817,0.159-1.139,0.479c-0.318,0.321-0.479,0.7-0.479,1.138v3.236c0,0.438,0.16,0.815,0.479,1.137
				c0.32,0.319,0.699,0.479,1.139,0.479h2.755c-0.541,1.82-1.488,3.408-2.845,4.766c-1.355,1.357-2.943,2.306-4.763,2.843v-2.756
				c0-0.436-0.16-0.815-0.479-1.136c-0.32-0.321-0.7-0.479-1.139-0.479h-3.233c-0.438,0-0.818,0.159-1.14,0.479
				c-0.318,0.319-0.479,0.7-0.479,1.136v2.756C21.516,503.742,19.927,502.795,18.571,501.436z"/>
			<path fill="#FFFFFF" fill-opacity="0.4" d="M1175.745,741.834c2.523-1.396,4.481-3.35,5.871-5.856l3.577,1.029
				c0.434,0.125,0.854,0.074,1.262-0.152c0.408-0.225,0.677-0.554,0.799-0.987l0.924-3.205c0.123-0.433,0.073-0.853-0.152-1.263
				c-0.227-0.407-0.555-0.674-0.99-0.799l-3.578-1.029c0.156-2.862-0.466-5.557-1.859-8.083c-1.397-2.521-3.349-4.479-5.856-5.87
				l1.029-3.578c0.125-0.433,0.073-0.853-0.15-1.262c-0.227-0.409-0.557-0.675-0.989-0.803l-3.202-0.919
				c-0.435-0.126-0.855-0.074-1.263,0.15c-0.409,0.227-0.677,0.558-0.801,0.989l-1.029,3.578c-2.861-0.154-5.558,0.467-8.08,1.862
				s-4.479,3.35-5.869,5.856l-3.577-1.029c-0.436-0.123-0.855-0.073-1.261,0.15c-0.411,0.229-0.679,0.559-0.802,0.99l-0.92,3.205
				c-0.127,0.434-0.075,0.854,0.149,1.262c0.227,0.409,0.555,0.674,0.992,0.799l3.573,1.029c-0.153,2.863,0.466,5.558,1.862,8.083
				c1.396,2.523,3.348,4.48,5.857,5.87l-1.029,3.578c-0.126,0.435-0.075,0.854,0.15,1.263s0.556,0.674,0.989,0.802l3.202,0.92
				c0.434,0.125,0.854,0.074,1.262-0.152c0.409-0.224,0.676-0.555,0.801-0.988l1.028-3.577
				C1170.528,743.852,1173.224,743.232,1175.745,741.834z M1165.057,734.68c-0.437-0.123-0.854-0.074-1.264,0.153
				c-0.406,0.224-0.674,0.555-0.798,0.986l-0.786,2.729c-1.646-1.053-2.947-2.441-3.903-4.171c-0.959-1.729-1.444-3.572-1.459-5.527
				l2.726,0.785c0.436,0.125,0.855,0.073,1.263-0.151c0.409-0.226,0.675-0.557,0.8-0.989l0.923-3.202
				c0.123-0.434,0.071-0.854-0.152-1.267c-0.228-0.405-0.557-0.673-0.989-0.798l-2.726-0.785c1.05-1.646,2.44-2.949,4.17-3.906
				c1.729-0.958,3.57-1.441,5.525-1.459l-0.786,2.729c-0.122,0.432-0.072,0.854,0.154,1.262c0.226,0.408,0.553,0.676,0.986,0.802
				l3.204,0.92c0.434,0.125,0.854,0.074,1.263-0.151c0.406-0.227,0.676-0.556,0.799-0.987l0.784-2.729
				c1.649,1.053,2.951,2.442,3.907,4.172c0.957,1.729,1.439,3.57,1.457,5.525l-2.726-0.782c-0.434-0.124-0.855-0.074-1.266,0.149
				c-0.407,0.229-0.672,0.559-0.799,0.99l-0.921,3.203c-0.125,0.433-0.073,0.854,0.152,1.264c0.225,0.409,0.557,0.674,0.988,0.799
				l2.729,0.785c-1.053,1.647-2.441,2.951-4.171,3.906c-1.729,0.957-3.57,1.443-5.527,1.46l0.785-2.729
				c0.126-0.433,0.074-0.854-0.15-1.26c-0.227-0.41-0.559-0.676-0.99-0.801L1165.057,734.68z"/>
			<path fill="#FFFFFF" fill-opacity="0.4" d="M38.372,702.045c0.501-0.545,0.821-1.123,0.96-1.733
				c0.139-0.608,0.099-1.268-0.114-1.979c-1.574-4.678-4.196-8.752-7.87-12.213c-3.672-3.461-7.868-5.73-12.586-6.807
				c-4.717-1.077-9.477-0.854-14.289,0.672c-4.811,1.524-8.938,4.057-12.387,7.591c-0.502,0.547-0.824,1.125-0.96,1.731
				c-0.143,0.613-0.104,1.272,0.112,1.979c1.576,4.682,4.197,8.755,7.872,12.214c3.672,3.462,7.867,5.73,12.583,6.81
				c4.714,1.075,9.477,0.854,14.287-0.659C30.788,708.134,34.919,705.599,38.372,702.045z M7.835,689.5
				c0.514-2.241,1.753-3.981,3.726-5.222c1.973-1.237,4.078-1.604,6.321-1.094c0.354,0.082,0.632,0.279,0.827,0.587
				c0.194,0.309,0.251,0.643,0.169,0.999c-0.082,0.362-0.279,0.638-0.586,0.827c-0.31,0.2-0.644,0.253-1,0.173
				c-1.543-0.352-2.989-0.104-4.331,0.736c-1.342,0.847-2.191,2.039-2.543,3.584c-0.081,0.354-0.279,0.634-0.586,0.827
				c-0.308,0.192-0.644,0.25-1,0.169c-0.357-0.082-0.635-0.278-0.829-0.589C7.811,690.193,7.753,689.86,7.835,689.5z
				 M12.478,706.864c-4.194-0.958-7.844-2.938-10.941-5.937c-3.1-3.001-5.419-6.612-6.969-10.835
				c3.693-3.609,7.831-5.995,12.416-7.155c-1.52,1.614-2.523,3.507-3.021,5.681c-0.757,3.316-0.225,6.425,1.594,9.32
				c1.824,2.896,4.389,4.724,7.709,5.482c3.315,0.757,6.42,0.224,9.322-1.599c2.892-1.817,4.72-4.387,5.478-7.706
				c0.496-2.172,0.408-4.312-0.26-6.428c3.626,3.034,6.323,6.979,8.085,11.835c-3.228,3.135-6.884,5.382-10.977,6.738
				C20.818,707.622,16.675,707.823,12.478,706.864z"/>
			<path fill="#FFFFFF" fill-opacity="0.4" d="M0.099,608.084c-0.173,0.867-0.339,1.584-0.503,2.147
				c-0.162,0.566-0.408,1.204-0.737,1.918c-0.33,0.714-0.583,1.223-0.766,1.524c-0.182,0.302-0.479,0.803-0.893,1.499
				c-0.413,0.694-0.682,1.149-0.801,1.357c-0.034,0.053-0.104,0.171-0.205,0.354c-0.103,0.182-0.159,0.29-0.177,0.329
				c-0.016,0.038-0.062,0.151-0.137,0.342c-0.081,0.188-0.107,0.303-0.087,0.346c0.02,0.042,0.02,0.156,0,0.347
				c-0.021,0.188,0.014,0.321,0.098,0.396l0.006,0.034c0.172,0.379,0.432,0.663,0.779,0.847c0.35,0.184,0.708,0.214,1.076,0.093
				c1.407-0.47,2.625-0.971,3.648-1.501c5.516-2.667,10.075-6.39,13.687-11.165c1.699-0.162,3.328-0.397,4.881-0.713
				c5.415-1.099,10.22-3.06,14.408-5.886s7.285-6.146,9.283-9.961c2.001-3.815,2.608-7.654,1.827-11.519
				c-0.782-3.863-2.84-7.161-6.167-9.898c-3.326-2.734-7.47-4.588-12.428-5.56c-4.959-0.973-10.146-0.908-15.562,0.188
				c-4.041,0.819-7.791,2.165-11.249,4.03c-3.457,1.869-6.325,4.028-8.603,6.477c-2.276,2.452-3.938,5.151-4.98,8.104
				c-1.042,2.95-1.271,5.869-0.688,8.756c0.675,3.329,2.312,6.246,4.91,8.749c2.599,2.502,5.841,4.387,9.726,5.657
				C0.386,606.314,0.269,607.218,0.099,608.084z"/>
			<path fill="#FFFFFF" fill-opacity="0.4" d="M1435.932,289.863c-0.145-0.337-0.422-0.548-0.833-0.63
				c-1.128-0.222-2.39-0.228-3.794-0.014c-1.398,0.213-2.672,0.563-3.823,1.056c-3.672,1.574-6.253,4.224-7.746,7.951
				c-1.491,3.728-1.448,7.427,0.119,11.099c1.574,3.67,4.226,6.253,7.949,7.745c3.729,1.492,7.425,1.452,11.097-0.121
				c2.797-1.198,5.007-3.124,6.633-5.78c1.618-2.655,2.324-5.51,2.121-8.571c-0.112-1.526-0.336-2.676-0.667-3.448
				c-0.126-0.298-0.317-0.51-0.57-0.637c-0.255-0.125-0.53-0.125-0.827,0.001c-0.182,0.079-0.727,0.729-1.647,1.958
				c-0.918,1.227-1.917,2.605-2.999,4.138c-1.079,1.532-1.659,2.348-1.732,2.449l-7.107-0.724l-2.855-6.669l6.568-8.764
				C1436.036,290.546,1436.075,290.2,1435.932,289.863z"/>
			<path fill="#FFFFFF" fill-opacity="0.4" d="M1416.668,351.481c1.091,0.403,2.149,0.385,3.182-0.06
				c1.051-0.449,1.785-1.2,2.207-2.249l11.605-28.995c-2.277,0.06-4.482-0.341-6.624-1.197c-2.139-0.855-4.014-2.091-5.618-3.704
				l-11.59,28.954c-0.431,1.075-0.422,2.14,0.029,3.189c0.458,1.07,1.219,1.804,2.276,2.194L1416.668,351.481z M1416.031,340.94
				c0.214-0.537,0.578-0.917,1.096-1.139c0.519-0.223,1.045-0.225,1.582-0.008c0.537,0.214,0.918,0.58,1.14,1.098
				c0.221,0.516,0.225,1.042,0.007,1.583c-0.216,0.538-0.58,0.917-1.098,1.14c-0.516,0.216-1.039,0.222-1.581,0.006
				c-0.54-0.215-0.916-0.582-1.141-1.095C1415.817,342.006,1415.817,341.477,1416.031,340.94z"/>
			<path fill="#FFFFFF" fill-opacity="0.4" d="M1076.893,815.551l-21.756-19.418l-3.387-11.92l1.912-0.543
				c0.518-0.146,0.912-0.466,1.182-0.95c0.271-0.485,0.333-0.988,0.187-1.504c-0.146-0.521-0.465-0.914-0.948-1.186
				c-0.485-0.271-0.989-0.334-1.507-0.188l-15.293,4.35c-0.518,0.146-0.911,0.464-1.182,0.95c-0.271,0.483-0.332,0.986-0.185,1.505
				c0.146,0.518,0.464,0.91,0.948,1.182c0.484,0.272,0.985,0.335,1.504,0.188l1.913-0.543l3.389,11.92l-8.293,27.957
				c-0.612,2.091-0.395,3.669,0.651,4.739c1.048,1.068,2.626,1.305,4.737,0.704l34.407-9.781c2.108-0.602,3.327-1.629,3.654-3.089
				C1079.156,818.463,1078.511,817.006,1076.893,815.551z M1042.99,815.631l4.48-15.124l0.334-1.097l-0.314-1.104l-3.386-11.92
				l3.823-1.089l3.387,11.92l0.313,1.104l0.859,0.756l11.768,10.508L1042.99,815.631z"/>
			<path fill="#FFFFFF" fill-opacity="0.4" d="M49.851,78.323L93.639,92.72c2.688,0.883,4.731,0.661,6.134-0.66
				c1.404-1.321,1.767-3.345,1.09-6.066L91.65,49.56l4.984-15.169l2.434,0.799c0.658,0.218,1.309,0.164,1.948-0.159
				c0.64-0.324,1.067-0.812,1.283-1.473c0.219-0.659,0.164-1.312-0.159-1.948c-0.323-0.64-0.813-1.069-1.473-1.286l-19.462-6.397
				c-0.659-0.216-1.309-0.161-1.947,0.16c-0.64,0.323-1.067,0.813-1.285,1.475c-0.217,0.659-0.163,1.308,0.161,1.946
				c0.321,0.641,0.812,1.069,1.472,1.284l2.434,0.802l-4.985,15.169l-29.028,23.86c-2.158,1.79-3.065,3.634-2.721,5.531
				C45.649,76.05,47.164,77.442,49.851,78.323z M80.309,48.696l1.147-0.929l0.462-1.406l4.985-15.167l4.865,1.599l-4.984,15.169
				l-0.463,1.407l0.373,1.427l4.979,19.708l-27.063-8.896L80.309,48.696z"/>
			<path fill="#FFFFFF" fill-opacity="0.4" d="M1190.073,23.416c-1.854,2.537-2.895,5.404-3.122,8.604
				c-0.228,3.196,0.444,6.215,2.01,9.055c2.195,3.98,5.486,6.602,9.876,7.87c4.388,1.267,8.57,0.802,12.549-1.394l35.095-19.372
				c3.418-1.886,5.67-4.706,6.754-8.463c1.084-3.755,0.683-7.342-1.203-10.762c-1.604-2.902-3.926-4.979-6.974-6.23
				c-3.047-1.25-6.133-1.435-9.263-0.547c0.134-1.842-0.246-3.568-1.137-5.182c-1.259-2.279-3.139-3.781-5.642-4.504
				c-2.501-0.724-4.895-0.454-7.172,0.803c-2.063,1.14-3.482,2.791-4.252,4.955c-2.953-2.354-6.334-3.713-10.143-4.082
				c-3.808-0.365-7.41,0.386-10.807,2.263c-4.559,2.517-7.562,6.277-9.007,11.282c-1.444,5.009-0.91,9.792,1.606,14.352
				C1189.421,22.388,1189.698,22.837,1190.073,23.416z"/>
			<path fill="#FFFFFF" fill-opacity="0.4" d="M1.687,428.448c0.046-0.006,0.073-0.017,0.092-0.03l0.351-0.175
				c0.169-0.07,0.42-0.2,0.74-0.384c0.324-0.178,0.568-0.308,0.741-0.377c2.72-1.354,4.851-2.58,6.396-3.683
				c1.302-0.931,2.047-1.895,2.244-2.893c0.238-1.249,0.096-2.241-0.426-2.973c-0.257-0.358-0.672-0.683-1.247-0.972
				c-0.574-0.289-1.154-0.522-1.74-0.71c-0.586-0.185-1.232-0.515-1.94-0.989c-0.707-0.479-1.312-1.064-1.812-1.766
				c-0.95-1.33-1.21-2.713-0.781-4.138c0.432-1.425,1.331-2.625,2.697-3.601c1.315-0.939,2.675-1.362,4.068-1.266
				c1.393,0.099,2.552,0.791,3.469,2.075c0.475,0.666,0.784,1.399,0.923,2.195c0.14,0.796,0.172,1.494,0.099,2.101
				c-0.071,0.604-0.052,1.283,0.059,2.039c0.108,0.759,0.381,1.438,0.812,2.039c0.661,0.926,1.486,1.362,2.477,1.307
				c0.991-0.062,1.983-0.438,2.976-1.146c0.749-0.535,1.515-1.145,2.305-1.832c0.787-0.684,1.649-1.463,2.581-2.339
				c0.934-0.876,1.659-1.535,2.178-1.979c0.165-0.144,0.431-0.343,0.789-0.6l-0.088-0.123c-0.436-0.646-1.227-1.494-2.369-2.543
				c-1.146-1.049-1.941-1.892-2.396-2.528c-1.439-2.016-1.264-3.665,0.524-4.941c0.603-0.431,1.282-0.698,2.038-0.81
				c0.756-0.107,1.438-0.127,2.041-0.056c0.605,0.073,1.306,0.039,2.103-0.101c0.793-0.139,1.525-0.445,2.195-0.924
				c1.282-0.916,1.973-2.072,2.069-3.466c0.098-1.397-0.324-2.752-1.264-4.07c-0.977-1.365-2.177-2.266-3.603-2.696
				c-1.425-0.431-2.803-0.171-4.138,0.781c-0.699,0.499-1.287,1.103-1.763,1.809c-0.479,0.71-0.808,1.357-0.989,1.943
				c-0.184,0.583-0.421,1.164-0.712,1.74c-0.287,0.575-0.613,0.991-0.97,1.245c-0.732,0.522-1.725,0.665-2.972,0.426
				c-1-0.192-1.965-0.942-2.895-2.246c-1.104-1.544-2.327-3.675-3.68-6.394c-0.021-0.062-0.114-0.255-0.289-0.586
				c-0.175-0.33-0.333-0.636-0.473-0.917c-0.139-0.281-0.21-0.444-0.218-0.488l-0.035-0.049c-0.737,0.579-1.967,1.664-3.68,3.254
				s-3.09,2.757-4.131,3.5c-0.992,0.708-1.981,1.091-2.976,1.147c-0.988,0.058-1.813-0.38-2.477-1.308
				c-0.43-0.602-0.702-1.278-0.812-2.038c-0.107-0.753-0.127-1.435-0.057-2.038c0.074-0.604,0.041-1.305-0.101-2.102
				c-0.14-0.797-0.447-1.528-0.924-2.195c-0.917-1.285-2.073-1.976-3.467-2.075c-1.394-0.097-2.742,0.322-4.042,1.25
				c-1.382,0.987-2.291,2.192-2.723,3.618c-0.43,1.423-0.171,2.804,0.782,4.139c0.499,0.698,1.104,1.285,1.812,1.764
				c0.708,0.476,1.354,0.806,1.939,0.989c0.585,0.185,1.167,0.421,1.742,0.712c0.573,0.288,0.989,0.611,1.245,0.97
				c0.522,0.731,0.665,1.723,0.428,2.974c-0.195,1-0.942,1.962-2.244,2.892c-1.545,1.103-3.678,2.327-6.396,3.682
				c-0.059,0.017-0.256,0.115-0.584,0.286c-0.333,0.176-0.635,0.332-0.92,0.472c-0.278,0.14-0.442,0.214-0.486,0.22l17.835,24.984
				C1.632,428.474,1.656,428.47,1.687,428.448z"/>
			<path fill="#FFFFFF" fill-opacity="0.4" d="M1213.754,791.685c-1.508-0.295-2.9,0.114-4.17,1.229
				c-0.668,0.585-1.209,1.267-1.627,2.042c-0.414,0.776-0.688,1.477-0.814,2.096c-0.129,0.62-0.312,1.239-0.551,1.862
				c-0.239,0.62-0.527,1.078-0.868,1.378c-0.698,0.612-1.7,0.86-3.009,0.746c-1.045-0.097-2.113-0.768-3.2-2.008
				c-1.293-1.474-2.774-3.536-4.44-6.19c-0.026-0.059-0.146-0.249-0.356-0.57c-0.213-0.32-0.406-0.619-0.578-0.896
				c-0.174-0.271-0.265-0.434-0.276-0.477l-0.04-0.046c-0.701,0.667-1.851,1.91-3.444,3.721c-1.595,1.812-2.89,3.151-3.884,4.021
				c-0.944,0.83-1.924,1.325-2.937,1.485c-1.013,0.161-1.905-0.202-2.679-1.088c-0.503-0.572-0.852-1.242-1.042-2.007
				c-0.191-0.767-0.281-1.463-0.271-2.09c0.014-0.628-0.094-1.347-0.318-2.148c-0.227-0.805-0.615-1.525-1.174-2.161
				c-1.073-1.225-2.333-1.815-3.776-1.771c-1.442,0.044-2.783,0.612-4.023,1.699c-1.319,1.156-2.124,2.489-2.423,3.996
				c-0.295,1.511,0.114,2.9,1.229,4.174c0.584,0.666,1.266,1.206,2.042,1.623c0.775,0.419,1.477,0.688,2.095,0.815
				c0.62,0.13,1.24,0.312,1.86,0.552c0.621,0.237,1.08,0.528,1.381,0.868c0.611,0.7,0.859,1.702,0.744,3.011
				c-0.097,1.048-0.768,2.112-2.007,3.201c-1.476,1.294-3.536,2.772-6.191,4.442c-0.058,0.024-0.247,0.142-0.568,0.354
				c-0.319,0.215-0.618,0.404-0.895,0.577c-0.272,0.173-0.434,0.267-0.479,0.276l20.895,23.826c0.013,0.015,0.034,0.009,0.065-0.019
				c0.043-0.012,0.074-0.023,0.091-0.036l0.341-0.219c0.168-0.095,0.408-0.249,0.724-0.471c0.314-0.22,0.554-0.376,0.72-0.467
				c2.656-1.671,4.716-3.148,6.19-4.44c1.24-1.09,1.907-2.156,2.008-3.204c0.115-1.308-0.133-2.312-0.745-3.01
				c-0.3-0.341-0.758-0.63-1.379-0.869c-0.62-0.236-1.242-0.42-1.86-0.548c-0.621-0.127-1.319-0.402-2.096-0.817
				c-0.777-0.416-1.458-0.957-2.043-1.624c-1.114-1.271-1.522-2.661-1.229-4.171c0.299-1.509,1.098-2.836,2.398-3.979
				c1.256-1.104,2.605-1.675,4.051-1.719c1.441-0.045,2.699,0.545,3.774,1.771c0.559,0.636,0.949,1.357,1.174,2.161
				c0.226,0.803,0.333,1.521,0.319,2.148c-0.013,0.627,0.078,1.324,0.271,2.088c0.189,0.767,0.537,1.437,1.038,2.011
				c0.777,0.884,1.669,1.247,2.682,1.086c1.013-0.16,1.989-0.654,2.938-1.486c0.713-0.625,1.438-1.329,2.177-2.117
				c0.737-0.784,1.543-1.673,2.413-2.671c0.867-0.994,1.546-1.747,2.032-2.255c0.154-0.165,0.404-0.398,0.748-0.698l-0.104-0.116
				c-0.515-0.618-1.413-1.408-2.693-2.368c-1.283-0.961-2.189-1.744-2.722-2.351c-1.687-1.923-1.677-3.633,0.029-5.131
				c0.576-0.503,1.244-0.851,2.011-1.041c0.765-0.189,1.463-0.28,2.09-0.269s1.344-0.096,2.147-0.32
				c0.803-0.223,1.522-0.616,2.159-1.174c1.225-1.075,1.814-2.334,1.771-3.778c-0.045-1.44-0.616-2.791-1.719-4.047
				C1216.586,792.783,1215.262,791.981,1213.754,791.685z"/>
			<path fill="#FFFFFF" fill-opacity="0.4" d="M1380.712,639.289l0.529-10.07c2.019-1.701,3.747-3.262,5.182-4.678
				c3.151-3.171,5.396-6.364,6.734-9.579c1.337-3.218,2.007-7.029,2.007-11.44c0-0.23-0.091-0.429-0.268-0.599
				c-0.176-0.169-0.389-0.252-0.638-0.252c-4.623,0-8.439,0.629-11.45,1.887c-3.013,1.258-6.183,3.543-9.511,6.855
				c-1.42,1.435-2.978,3.162-4.678,5.183l-10.069,0.531c-0.282,0.035-0.516,0.178-0.692,0.424l-5.948,10.207
				c-0.215,0.354-0.17,0.697,0.131,1.037l1.699,1.697c0.16,0.16,0.363,0.241,0.614,0.241c0.104,0,0.185-0.01,0.236-0.026
				l7.334-2.261l7.466,7.466l-2.259,7.336c-0.089,0.318-0.02,0.604,0.214,0.852l1.7,1.701c0.194,0.159,0.396,0.24,0.609,0.24
				c0.159,0,0.304-0.036,0.427-0.107l10.201-5.952C1380.533,639.804,1380.674,639.572,1380.712,639.289z M1384.856,609.366
				c0.496-0.496,1.098-0.744,1.807-0.744c0.708,0,1.311,0.248,1.808,0.744c0.496,0.497,0.744,1.1,0.744,1.81
				c0,0.709-0.248,1.309-0.744,1.806c-0.497,0.496-1.1,0.745-1.808,0.745c-0.709,0-1.311-0.249-1.807-0.745
				c-0.496-0.497-0.744-1.097-0.744-1.806C1384.112,610.466,1384.36,609.863,1384.856,609.366z"/>
			<path fill="#FFFFFF" fill-opacity="0.4" d="M1338.688,80.302c8.464-0.142,15.436-1.411,20.903-3.804
				c5.479-2.393,11.213-6.673,17.204-12.836c2.555-2.669,5.353-5.88,8.406-9.626l18.415-1.277c0.517-0.077,0.935-0.343,1.25-0.8
				l10.588-18.855c0.377-0.657,0.287-1.286-0.276-1.896l-3.162-3.059c-0.296-0.292-0.671-0.431-1.13-0.423
				c-0.188,0.003-0.336,0.022-0.432,0.058l-13.355,4.354l-13.89-13.438l3.91-13.495c0.151-0.585,0.017-1.102-0.417-1.551
				l-3.165-3.062c-0.36-0.283-0.732-0.427-1.125-0.42c-0.287,0.004-0.551,0.075-0.773,0.209l-18.492,11.202
				c-0.452,0.333-0.702,0.758-0.761,1.281l-0.665,18.451c-3.646,3.174-6.762,6.08-9.349,8.717
				c-5.672,5.897-9.682,11.81-12.036,17.737c-2.352,5.928-3.457,12.928-3.328,21.003c0.01,0.42,0.18,0.78,0.51,1.085
				C1337.842,80.161,1338.238,80.309,1338.688,80.302z M1348.98,61.251c0.896-0.92,1.989-1.396,3.29-1.415
				c1.293-0.021,2.403,0.415,3.326,1.307c0.921,0.893,1.395,1.986,1.414,3.287c0.021,1.297-0.412,2.404-1.307,3.331
				c-0.893,0.923-1.985,1.394-3.283,1.416c-1.296,0.021-2.406-0.415-3.33-1.311c-0.924-0.892-1.396-1.986-1.416-3.285
				C1347.652,63.283,1348.088,62.177,1348.98,61.251z"/>
			<path fill="#FFFFFF" fill-opacity="0.4" d="M1249.847,71.002c-3.444,1.448-6.269,3.636-8.462,6.556
				c-2.198,2.923-3.529,6.193-4.006,9.819c-0.477,3.624,0.011,7.161,1.457,10.607s3.634,6.266,6.557,8.462
				c2.92,2.196,6.192,3.536,9.816,4.011c3.623,0.474,7.157-0.012,10.604-1.461c2.587-1.087,4.841-2.616,6.756-4.588
				c1.92-1.968,3.379-4.212,4.378-6.729l-19.181-7.827L1249.847,71.002z"/>
			<path fill="#FFFFFF" fill-opacity="0.4" d="M1262.457,88.052l19.149,7.841c1.045-2.496,1.576-5.118,1.586-7.866
				c0.007-2.752-0.532-5.418-1.622-8.008L1262.457,88.052z"/>
			<path fill="#FFFFFF" fill-opacity="0.4" d="M1259.666,85.502l18.993-7.982c-1.448-3.449-3.636-6.27-6.555-8.467
				c-2.922-2.195-6.195-3.531-9.818-4.01c-3.624-0.474-7.159,0.015-10.603,1.462L1259.666,85.502z"/>
			<path fill="#FFFFFF" fill-opacity="0.4" d="M1421.973,132.973l-6.421-3.606c-0.436-0.244-0.899-0.297-1.396-0.157
				c-0.498,0.14-0.868,0.428-1.11,0.86l-3.605,6.422c-0.244,0.437-0.298,0.901-0.156,1.396c0.141,0.496,0.426,0.866,0.86,1.11
				l6.421,3.606c0.433,0.242,0.899,0.294,1.396,0.155c0.493-0.141,0.864-0.427,1.107-0.861l3.604-6.422
				c0.244-0.435,0.298-0.899,0.159-1.396C1422.696,133.587,1422.406,133.217,1421.973,132.973z"/>
			
				<rect x="1441.357" y="133.291" transform="matrix(0.8719 0.4897 -0.4897 0.8719 251.2302 -690.0878)" fill="#FFFFFF" fill-opacity="0.4" width="6.441" height="3.68"/>
			
				<rect x="1400.992" y="128.572" transform="matrix(0.8719 0.4896 -0.4896 0.8719 243.9095 -671.718)" fill="#FFFFFF" fill-opacity="0.4" width="10.122" height="3.683"/>
			
				<rect x="1420.282" y="142.517" transform="matrix(0.8719 0.4897 -0.4897 0.8719 253.9915 -682.1904)" fill="#FFFFFF" fill-opacity="0.4" width="21.169" height="3.682"/>
			<path fill="#FFFFFF" fill-opacity="0.4" d="M1442.023,127.341l-6.42-3.604c-0.436-0.245-0.9-0.298-1.396-0.157
				c-0.495,0.141-0.864,0.428-1.108,0.86l-3.605,6.423c-0.244,0.434-0.297,0.901-0.156,1.396c0.139,0.497,0.426,0.868,0.857,1.111
				l6.422,3.605c0.437,0.242,0.9,0.296,1.396,0.155c0.498-0.138,0.868-0.427,1.111-0.859l3.605-6.422
				c0.243-0.435,0.295-0.899,0.154-1.396C1442.743,127.955,1442.457,127.586,1442.023,127.341z"/>
			
				<rect x="1407.247" y="119.23" transform="matrix(0.8719 0.4897 -0.4897 0.8719 241.1592 -679.7011)" fill="#FFFFFF" fill-opacity="0.4" width="24.854" height="3.681"/>
			<path fill="#FFFFFF" fill-opacity="0.4" d="M1420.493,110.398c0.138,0.496,0.427,0.868,0.86,1.111l6.42,3.604
				c0.436,0.246,0.899,0.298,1.397,0.158c0.495-0.14,0.864-0.426,1.108-0.86l3.604-6.422c0.244-0.435,0.298-0.9,0.157-1.396
				c-0.14-0.497-0.427-0.867-0.861-1.111l-6.419-3.605c-0.436-0.244-0.901-0.298-1.397-0.157c-0.494,0.14-0.865,0.428-1.108,0.86
				l-3.605,6.422C1420.406,109.437,1420.354,109.903,1420.493,110.398z"/>
			
				<rect x="1431.308" y="115.854" transform="matrix(0.8719 0.4897 -0.4897 0.8719 242.5645 -691.8796)" fill="#FFFFFF" fill-opacity="0.4" width="24.851" height="3.683"/>
			
				<rect x="1416.958" y="100.527" transform="matrix(0.4897 -0.8719 0.8719 0.4897 633.5972 1290.0083)" fill="#FFFFFF" fill-opacity="0.4" width="3.682" height="6.444"/>
			<path fill="#FFFFFF" fill-opacity="0.4" d="M1405.968,230.723c-0.457,0.318-0.812,0.57-1.064,0.756
				c-0.253,0.183-0.646,0.43-1.187,0.735c-0.54,0.31-0.887,0.515-1.039,0.617c-0.029,0.017-0.091,0.053-0.184,0.111
				c-0.094,0.059-0.158,0.1-0.204,0.125c-0.043,0.022-0.108,0.064-0.188,0.128c-0.08,0.062-0.14,0.112-0.177,0.151
				c-0.034,0.039-0.081,0.087-0.135,0.146c-0.056,0.059-0.101,0.118-0.13,0.182c-0.032,0.066-0.059,0.14-0.082,0.22
				c-0.024,0.08-0.036,0.155-0.033,0.23c-0.044,0.309,0.013,0.586,0.175,0.832s0.365,0.407,0.615,0.482l0.104,0.029
				c1.181,0.187,2.213,0.298,3.093,0.337c3.77,0.147,7.359-0.355,10.776-1.504c1.936,0.979,3.876,1.763,5.83,2.351
				c4.333,1.307,8.581,1.737,12.736,1.294c4.157-0.442,7.706-1.683,10.648-3.72c2.94-2.033,4.886-4.631,5.835-7.787
				c0.949-3.155,0.762-6.396-0.562-9.717c-1.329-3.321-3.603-6.315-6.82-8.983c-3.221-2.666-7-4.653-11.332-5.959
				c-4.336-1.306-8.585-1.737-12.74-1.294c-4.157,0.444-7.706,1.684-10.645,3.72c-2.942,2.035-4.891,4.631-5.839,7.786
				c-0.813,2.703-0.774,5.488,0.12,8.359c0.893,2.865,2.503,5.545,4.824,8.026c-0.394,0.477-0.774,0.905-1.15,1.287
				C1406.839,230.049,1406.423,230.401,1405.968,230.723z M1407.963,219.231c-0.687-2.088-0.744-4.062-0.185-5.922
				c0.697-2.317,2.241-4.216,4.631-5.7c2.393-1.485,5.273-2.361,8.646-2.631c3.374-0.272,6.798,0.116,10.271,1.162
				c3.474,1.047,6.54,2.613,9.203,4.706c2.665,2.09,4.583,4.413,5.756,6.97c1.173,2.558,1.412,4.996,0.716,7.312
				c-0.7,2.315-2.245,4.217-4.636,5.698c-2.388,1.484-5.271,2.362-8.646,2.633c-3.374,0.271-6.797-0.12-10.271-1.164
				c-1.705-0.515-3.393-1.195-5.066-2.046l-1.702-0.887l-1.814,0.604c-0.765,0.241-1.604,0.472-2.511,0.693l2.053-2.501
				l-2.729-2.902C1409.887,223.329,1408.647,221.32,1407.963,219.231z"/>
			<path fill="#FFFFFF" fill-opacity="0.4" d="M1442.118,240.966c-3.209,1.114-6.646,1.676-10.312,1.686
				c-3.666,0.009-7.327-0.537-10.979-1.64c-0.684-0.205-1.666-0.551-2.957-1.037c3.66,4.371,8.566,7.482,14.718,9.337
				c1.95,0.589,4.006,1.009,6.153,1.261c2.215,2.846,4.933,5.25,8.153,7.211c0.755,0.45,1.678,0.929,2.764,1.429
				c0.268,0.104,0.542,0.101,0.821-0.014c0.284-0.113,0.506-0.317,0.669-0.615c0.042-0.062,0.076-0.132,0.103-0.211
				c0.022-0.08,0.042-0.153,0.049-0.227c0.009-0.071,0.007-0.146-0.007-0.227c-0.016-0.079-0.026-0.144-0.033-0.193
				c-0.01-0.055-0.03-0.129-0.062-0.227c-0.03-0.095-0.062-0.167-0.084-0.21c-0.022-0.044-0.061-0.117-0.104-0.216
				c-0.044-0.103-0.073-0.166-0.089-0.195c-0.073-0.17-0.247-0.532-0.528-1.087c-0.274-0.555-0.472-0.979-0.582-1.271
				c-0.106-0.295-0.265-0.699-0.466-1.219c-0.205-0.521-0.357-1.04-0.457-1.566c-0.101-0.527-0.186-1.097-0.248-1.709
				c3.307-0.786,6.123-2.123,8.45-4.01c2.325-1.888,3.898-4.194,4.721-6.918c0.842-2.792,0.774-5.658-0.194-8.601
				c-0.97-2.941-2.679-5.663-5.121-8.155c0.012,1.858-0.25,3.662-0.775,5.411c-0.916,3.041-2.544,5.695-4.885,7.962
				C1448.49,237.981,1445.584,239.732,1442.118,240.966z"/>
			<path fill="#FFFFFF" fill-opacity="0.4" d="M-17.943,26.359c1.243,0.279,2.397,0.079,3.468-0.597l2.964-1.88
				c0.279,1.051,0.669,2.06,1.169,3.023c0.495,0.969,0.974,1.785,1.429,2.449c0.457,0.665,1.095,1.405,1.921,2.224
				c0.825,0.816,1.467,1.421,1.928,1.809c0.461,0.39,1.205,0.99,2.232,1.804c1.024,0.813,1.715,1.371,2.062,1.673
				c1.177,0.21,2.531-0.019,4.063-0.684c1.529-0.665,2.838-1.621,3.917-2.873c1.079-1.251,1.557-2.496,1.432-3.732
				c-0.924-0.098-1.682-0.189-2.271-0.282c-0.592-0.091-1.236-0.249-1.937-0.476c-0.7-0.228-1.254-0.499-1.661-0.822
				c-0.406-0.32-0.754-0.759-1.038-1.315C1.45,26.122,1.3,25.474,1.285,24.734c-1.018-0.242-1.813-0.786-2.396-1.632
				c-0.58-0.847-0.846-1.819-0.794-2.921c0.053-1.099,0.452-2.102,1.196-3.004c6.736-3.521,15.266-4.607,25.579-3.266
				c0.843-0.535,1.378-1.306,1.602-2.31c0.228-1.007,0.073-1.932-0.461-2.772l-5.912-9.333c0.859-0.543,1.399-1.312,1.622-2.304
				c0.222-0.992,0.062-1.918-0.481-2.776c-0.543-0.857-1.312-1.398-2.305-1.622c-0.992-0.223-1.916-0.062-2.774,0.481l-5.909-9.332
				c-0.534-0.843-1.304-1.376-2.311-1.603c-1.004-0.227-1.93-0.072-2.771,0.463C1.64-6.241-3.647,1.465-10.692,5.929l-11.665,7.39
				c-1.066,0.677-1.741,1.639-2.021,2.88c-0.279,1.247-0.08,2.403,0.597,3.472l2.955,4.667
				C-20.148,25.407-19.188,26.081-17.943,26.359z M7.66-13.258L22.344,9.927c-9.4-0.832-17.371,0.348-23.909,3.533L-5.72,6.9
				C-0.082,2.396,4.377-4.322,7.66-13.258z"/>
			<path fill="#FFFFFF" fill-opacity="0.4" d="M46.473,243.778c0.447-0.661,0.681-1.391,0.696-2.187l0.219-27.854
				c0.014-1.68-0.473-3.595-1.462-5.744c-1.927-4.181-5.049-7.066-9.369-8.663c-4.319-1.595-8.569-1.429-12.748,0.498
				c-4.18,1.925-7.064,5.048-8.661,9.369c-1.595,4.32-1.428,8.57,0.497,12.751c0.99,2.147,2.126,3.764,3.416,4.843l21.336,17.922
				c0.597,0.514,1.29,0.814,2.084,0.904c0.792,0.087,1.545-0.033,2.254-0.358C45.445,244.932,46.023,244.438,46.473,243.778z
				 M38.604,217.859c-0.799,2.161-2.242,3.722-4.331,4.686c-2.09,0.965-4.215,1.045-6.374,0.248
				c-2.16-0.797-3.725-2.241-4.686-4.332c-0.963-2.09-1.042-4.214-0.248-6.376c0.8-2.158,2.241-3.72,4.331-4.683
				c2.09-0.964,4.216-1.046,6.375-0.251c2.161,0.798,3.723,2.243,4.684,4.334C39.318,213.574,39.402,215.699,38.604,217.859z"/>
			<path fill="#FFFFFF" fill-opacity="0.4" d="M1415.409,456.632c0.212,0.814,0.458,1.642,0.738,2.478
				c0.634,1.895,1.709,3.196,3.229,3.907c1.519,0.71,3.23,0.748,5.142,0.108l20.684-6.923c1.91-0.64,3.256-1.7,4.042-3.184
				c0.784-1.481,0.861-3.17,0.229-5.063c-0.279-0.836-0.583-1.644-0.903-2.422s-0.722-1.603-1.193-2.471
				c-0.477-0.865-0.972-1.652-1.486-2.357c-0.515-0.704-1.113-1.359-1.791-1.968c-0.676-0.604-1.38-1.08-2.109-1.426
				c-0.729-0.343-1.543-0.54-2.443-0.59c-0.904-0.048-1.837,0.09-2.799,0.411c-0.144,0.048-0.416,0.327-0.824,0.841
				c-0.407,0.514-0.868,1.09-1.383,1.726c-0.516,0.64-1.239,1.304-2.177,1.992c-0.935,0.692-1.933,1.214-2.988,1.566
				c-1.057,0.354-2.167,0.538-3.329,0.549c-1.162,0.012-2.144-0.081-2.938-0.28c-0.793-0.198-1.508-0.381-2.142-0.547
				c-0.636-0.163-1.023-0.223-1.165-0.175c-0.963,0.322-1.788,0.775-2.48,1.355c-0.69,0.582-1.224,1.229-1.601,1.943
				c-0.373,0.714-0.649,1.516-0.824,2.407c-0.176,0.894-0.258,1.776-0.246,2.649c0.013,0.873,0.09,1.8,0.233,2.777
				C1415.024,454.918,1415.198,455.814,1415.409,456.632z"/>
			<path fill="#FFFFFF" fill-opacity="0.4" d="M1430.012,423.815c-2.369-1.181-4.81-1.351-7.316-0.513
				c-2.51,0.84-4.354,2.443-5.534,4.812c-1.182,2.371-1.354,4.812-0.514,7.319c0.841,2.51,2.444,4.354,4.813,5.535
				s4.807,1.353,7.315,0.513c2.508-0.839,4.354-2.445,5.534-4.812c1.181-2.371,1.353-4.81,0.512-7.317
				C1433.984,426.844,1432.381,424.998,1430.012,423.815z"/>
		</g>
	</g>
</g>
</svg>
