<?xml version="1.0" encoding="UTF-8"?>
<!DOCTYPE svg  PUBLIC '-//W3C//DTD SVG 1.1//EN'  'http://www.w3.org/Graphics/SVG/1.1/DTD/svg11.dtd'>
<svg enable-background="new 0 0 1440 811" version="1.1" viewBox="0 0 1440 811" xml:space="preserve" xmlns="http://www.w3.org/2000/svg" xmlns:xlink="http://www.w3.org/1999/xlink">
<title>BG_icon1</title>
<desc>Created with Sketch.</desc>
	<defs>
		<rect id="b" x="1" width="1438" height="811"/>
	</defs>
	<clipPath id="a">
		<use overflow="visible" xlink:href="#b"/>
	</clipPath>
	<rect x="1" width="1438" height="811" clip-path="url(#a)" fill="#FBB03B"/>
	<path d="m1135.1 823.45c1.425 1.281 1.993 2.562 1.705 3.849-0.289 1.285-1.361 2.19-3.219 2.719l-30.288 8.609c-1.858 0.528-3.248 0.321-4.171-0.62-0.92-0.941-1.112-2.331-0.573-4.171l7.3-24.606-2.982-10.49-1.684 0.478c-0.456 0.13-0.897 0.075-1.324-0.164-0.427-0.238-0.706-0.585-0.835-1.04-0.13-0.457-0.076-0.898 0.162-1.325 0.238-0.428 0.585-0.706 1.04-0.836l13.463-3.827c0.454-0.13 0.897-0.074 1.325 0.165 0.427 0.237 0.706 0.584 0.836 1.041 0.129 0.454 0.075 0.897-0.164 1.324-0.237 0.428-0.585 0.707-1.04 0.836l-1.684 0.479 2.981 10.491 19.152 17.088zm-25.9-13.24l-3.944 13.311 18.72-5.319-10.358-9.248-0.757-0.665-0.276-0.973-2.98-10.491-3.366 0.958 2.979 10.49 0.277 0.973-0.295 0.964z" clip-path="url(#a)" fill="#fff" opacity=".4"/>
	<path d="m1259.1 804.56c0.97 1.105 1.474 2.293 1.513 3.562 0.039 1.271-0.48 2.38-1.559 3.325-0.561 0.491-1.194 0.837-1.901 1.033-0.708 0.198-1.339 0.293-1.891 0.282s-1.167 0.069-1.839 0.235c-0.675 0.169-1.264 0.475-1.771 0.918-1.502 1.317-1.51 2.822-0.025 4.515 0.468 0.533 1.266 1.223 2.395 2.067 1.128 0.846 1.919 1.542 2.372 2.086l0.09 0.103c-0.301 0.263-0.521 0.469-0.658 0.614-0.428 0.447-1.025 1.109-1.789 1.984-0.766 0.878-1.475 1.66-2.123 2.352-0.651 0.692-1.289 1.312-1.917 1.863-0.834 0.731-1.695 1.167-2.586 1.308-0.892 0.142-1.677-0.178-2.36-0.956-0.441-0.505-0.747-1.095-0.914-1.769-0.17-0.673-0.249-1.286-0.239-1.839 0.012-0.553-0.082-1.184-0.281-1.891-0.197-0.707-0.542-1.342-1.032-1.902-0.947-1.078-2.055-1.598-3.323-1.559-1.272 0.039-2.46 0.542-3.566 1.513-1.146 1.005-1.849 2.173-2.11 3.501-0.26 1.328 0.101 2.552 1.082 3.671 0.515 0.587 1.113 1.063 1.799 1.431 0.682 0.365 1.298 0.606 1.844 0.719 0.545 0.113 1.092 0.273 1.638 0.482 0.547 0.211 0.95 0.465 1.214 0.765 0.539 0.615 0.758 1.498 0.656 2.649-0.088 0.922-0.675 1.86-1.768 2.819-1.298 1.137-3.111 2.438-5.449 3.908-0.146 0.08-0.356 0.218-0.634 0.411-0.276 0.195-0.489 0.331-0.636 0.414l-0.301 0.191c-0.014 0.012-0.042 0.022-0.08 0.033-0.027 0.023-0.047 0.028-0.058 0.016l-18.393-20.971c0.04-9e-3 0.181-0.092 0.421-0.243 0.243-0.151 0.505-0.319 0.787-0.509 0.282-0.187 0.45-0.29 0.501-0.312 2.337-1.471 4.151-2.771 5.45-3.91 1.092-0.958 1.682-1.896 1.767-2.818 0.102-1.15-0.117-2.033-0.656-2.648-0.264-0.3-0.668-0.556-1.214-0.765-0.547-0.211-1.093-0.371-1.639-0.485-0.545-0.112-1.16-0.351-1.845-0.719-0.683-0.366-1.282-0.843-1.797-1.429-0.981-1.12-1.342-2.344-1.083-3.673 0.263-1.326 0.972-2.499 2.133-3.517 1.093-0.957 2.272-1.457 3.542-1.496 1.271-0.039 2.379 0.481 3.325 1.56 0.491 0.56 0.834 1.194 1.033 1.902 0.198 0.707 0.293 1.338 0.281 1.891-0.011 0.552 0.068 1.165 0.237 1.839 0.168 0.673 0.475 1.264 0.917 1.768 0.682 0.778 1.468 1.099 2.358 0.957 0.892-0.142 1.753-0.577 2.585-1.309 0.875-0.766 2.015-1.945 3.418-3.539 1.404-1.594 2.416-2.688 3.033-3.274l0.035 0.04c0.011 0.038 0.091 0.18 0.244 0.42 0.15 0.242 0.32 0.505 0.508 0.787 0.187 0.282 0.291 0.45 0.314 0.502 1.468 2.337 2.771 4.151 3.909 5.448 0.957 1.093 1.897 1.683 2.817 1.768 1.151 0.101 2.034-0.117 2.648-0.656 0.301-0.264 0.554-0.667 0.765-1.213 0.21-0.548 0.371-1.094 0.484-1.64 0.111-0.545 0.353-1.16 0.719-1.845 0.366-0.683 0.843-1.281 1.431-1.797 1.118-0.981 2.344-1.342 3.671-1.083 1.328 0.264 2.494 0.968 3.501 2.115z" clip-path="url(#a)" fill="#fff" opacity=".4"/>
	<path d="m23.921 773.92l-7.087-7.968c-0.256-0.284-0.406-0.654-0.449-1.108-0.039-0.447 0.056-0.806 0.29-1.064l5.756-6.971c-0.578-1.283-1.093-2.787-1.534-4.5-2.203-0.507-4.964-1.013-8.286-1.507-0.457-0.104-0.813-0.303-1.068-0.589-0.307-0.35-0.444-0.711-0.428-1.09-0.103-1.451-0.063-3.788 0.124-7.014 0.19-3.232 0.557-5.09 1.104-5.575 0.315-0.277 0.704-0.447 1.17-0.5l8.401-0.531c0.579-1.493 1.289-2.92 2.133-4.284-2.445-3.383-4.096-5.902-4.956-7.557-0.409-0.87-0.286-1.599 0.374-2.186l8.012-7.131c0.321-0.28 0.699-0.426 1.148-0.441 0.454-0.012 0.817 0.108 1.104 0.371l6.853 5.707c1.233-0.583 2.704-1.096 4.417-1.537l1.67-8.356c0.025-0.38 0.222-0.737 0.594-1.067 0.316-0.284 0.722-0.436 1.215-0.46 7.529 0.139 11.644 0.596 12.332 1.37 0.23 0.26 0.371 0.624 0.427 1.087 0.066 0.66 0.159 1.944 0.261 3.855 0.111 1.91 0.216 3.386 0.315 4.427 1.786 0.676 3.335 1.404 4.653 2.191l7.466-4.791c0.312-0.231 0.677-0.309 1.094-0.247 0.418 0.071 0.767 0.26 1.048 0.577l7.092 7.965c0.256 0.287 0.401 0.657 0.444 1.107 0.042 0.451-0.054 0.81-0.287 1.065l-5.757 6.977c0.58 1.287 1.091 2.784 1.536 4.494 2.202 0.513 4.963 1.016 8.285 1.51 0.481 0.139 0.836 0.333 1.068 0.589 0.306 0.35 0.46 0.723 0.466 1.13 0.136 1.424 0.091 3.748-0.125 6.977-0.213 3.229-0.594 5.081-1.138 5.569-0.318 0.28-0.708 0.447-1.176 0.506l-8.399 0.531c-0.514 1.383-1.214 2.827-2.09 4.327 2.442 3.381 4.081 5.884 4.91 7.514 0.412 0.867 0.292 1.593-0.372 2.186l-8.009 7.125c-0.315 0.283-0.701 0.426-1.152 0.444-0.449 0.016-0.816-0.111-1.1-0.371l-6.854-5.704c-1.232 0.577-2.704 1.087-4.416 1.537l-1.671 8.354c-0.054 0.407-0.251 0.763-0.594 1.067-0.315 0.281-0.718 0.438-1.21 0.46-7.534-0.139-11.643-0.596-12.335-1.373-0.228-0.257-0.37-0.617-0.426-1.081-0.066-0.771-0.15-2.08-0.262-3.938-0.11-1.858-0.229-3.294-0.358-4.31-1.889-0.79-3.425-1.537-4.607-2.231l-7.429 4.837c-0.338 0.198-0.718 0.266-1.133 0.198-0.422-0.064-0.774-0.255-1.054-0.572zm9.345-29.301c-0.236 4.065 1 7.621 3.706 10.665 2.709 3.047 6.1 4.686 10.167 4.924 4.072 0.237 7.628-0.997 10.671-3.708 3.042-2.704 4.683-6.1 4.922-10.165 0.234-4.071-1.002-7.627-3.709-10.671-2.704-3.041-6.098-4.686-10.165-4.921-4.072-0.237-7.626 1-10.67 3.711-3.043 2.704-4.684 6.094-4.922 10.165zm-18.09 74.977l-5.367-6.029c-0.409-0.46 1.335-2.809 5.229-7.047-0.341-1.084-0.581-2.211-0.698-3.39-4.354-1.941-6.848-3.272-7.487-3.988-0.102-0.117-0.133-0.269-0.096-0.457 1.69-5.155 2.562-7.757 2.619-7.81 0.233-0.201 1.49-0.114 3.782 0.266 2.293 0.38 3.906 0.688 4.846 0.932 0.525-0.564 0.929-0.979 1.213-1.231 0.289-0.259 0.747-0.611 1.369-1.068-0.129-0.96-0.256-2.599-0.364-4.917-0.108-2.321-0.049-3.584 0.179-3.791 0.059-0.052 2.747-0.614 8.06-1.691 0.193-0.019 0.34 0.031 0.443 0.143 0.639 0.725 1.67 3.355 3.091 7.898 1.156 0.26 2.252 0.624 3.285 1.09 4.664-3.37 7.2-4.831 7.609-4.371l5.365 6.029c0.407 0.46-1.335 2.806-5.232 7.044 0.369 1.164 0.601 2.294 0.699 3.393 4.353 1.938 6.847 3.269 7.486 3.985 0.102 0.114 0.136 0.269 0.099 0.46-0.065 0.154-0.31 0.889-0.742 2.197-0.431 1.312-0.84 2.55-1.236 3.729-0.398 1.173-0.624 1.784-0.679 1.837-0.23 0.203-1.486 0.123-3.765-0.238-2.281-0.367-3.886-0.673-4.826-0.917-0.52 0.565-0.928 0.979-1.216 1.238-0.289 0.253-0.742 0.608-1.366 1.064 0.346 3.337 0.458 6.122 0.327 8.348l-0.184 0.317c-0.11 0.099-2.786 0.677-8.023 1.735-0.19 0.016-0.336-0.034-0.438-0.148-0.637-0.719-1.67-3.353-3.091-7.899-1.074-0.226-2.17-0.59-3.285-1.09-4.662 3.38-7.196 4.84-7.606 4.377zm-39.244-44.099l-5.366-6.028c-0.409-0.46 1.336-2.81 5.233-7.045-0.349-1.086-0.58-2.216-0.705-3.396-4.351-1.938-6.845-3.269-7.484-3.985-0.104-0.117-0.131-0.269-0.097-0.456 1.69-5.158 2.564-7.758 2.621-7.811 0.232-0.203 1.49-0.114 3.782 0.263 2.293 0.38 3.91 0.691 4.846 0.936 0.523-0.568 0.928-0.979 1.213-1.238 0.289-0.256 0.747-0.604 1.371-1.064-0.134-0.96-0.255-2.597-0.368-4.921-0.106-2.318-0.044-3.584 0.181-3.784 0.059-0.053 2.746-0.617 8.062-1.695 0.191-0.015 0.339 0.031 0.443 0.148 0.638 0.716 1.667 3.35 3.09 7.899 1.158 0.256 2.252 0.62 3.285 1.087 4.664-3.377 7.197-4.838 7.606-4.374l5.365 6.028c0.407 0.457-1.333 2.809-5.226 7.044 0.363 1.161 0.6 2.297 0.699 3.393 4.349 1.941 6.845 3.272 7.485 3.988 0.102 0.114 0.136 0.269 0.094 0.457-0.063 0.157-0.31 0.893-0.741 2.201s-0.843 2.55-1.238 3.726c-0.396 1.173-0.618 1.787-0.678 1.837-0.23 0.207-1.483 0.123-3.761-0.241-2.283-0.361-3.89-0.666-4.83-0.913-0.523 0.567-0.926 0.981-1.216 1.24-0.284 0.254-0.741 0.605-1.369 1.062 0.35 3.34 0.461 6.121 0.332 8.347l-0.181 0.318c-0.114 0.099-2.791 0.679-8.024 1.737-0.193 0.016-0.339-0.037-0.441-0.148-0.637-0.722-1.665-3.352-3.09-7.898-1.076-0.229-2.171-0.593-3.289-1.09-4.659 3.373-7.195 4.833-7.604 4.376zm47.589 31.276c1.326 1.488 3.021 2.294 5.084 2.417 2.064 0.12 3.84-0.484 5.333-1.812 1.494-1.33 2.3-3.021 2.421-5.087 0.118-2.062-0.486-3.84-1.813-5.331-1.36-1.524-3.051-2.346-5.087-2.463-2.031-0.117-3.811 0.497-5.333 1.854-1.521 1.355-2.341 3.051-2.458 5.081-0.119 2.038 0.496 3.82 1.853 5.341zm-39.245-44.108c1.326 1.494 3.024 2.303 5.086 2.423 2.061 0.117 3.837-0.481 5.33-1.812 1.497-1.327 2.301-3.022 2.423-5.088 0.118-2.062-0.486-3.84-1.813-5.327-1.358-1.522-3.051-2.347-5.083-2.464-2.034-0.117-3.814 0.497-5.334 1.855-1.523 1.352-2.345 3.047-2.46 5.081-0.122 2.035 0.497 3.813 1.851 5.332z" clip-path="url(#a)" fill="#fff" opacity=".4"/>
	<path d="m1425.6 540.96l-2.889-3.248c-0.104-0.115-0.166-0.267-0.183-0.451-0.017-0.183 0.022-0.328 0.118-0.434l2.346-2.841c-0.235-0.524-0.445-1.137-0.625-1.835-0.898-0.206-2.023-0.412-3.377-0.613-0.187-0.044-0.331-0.123-0.436-0.24-0.125-0.143-0.181-0.29-0.174-0.444-0.043-0.592-0.026-1.544 0.05-2.858 0.077-1.317 0.227-2.075 0.449-2.272 0.13-0.113 0.288-0.183 0.478-0.204l3.424-0.217c0.236-0.608 0.525-1.189 0.869-1.746-0.996-1.378-1.669-2.405-2.02-3.079-0.166-0.355-0.116-0.652 0.152-0.891l3.265-2.906c0.131-0.114 0.285-0.174 0.469-0.181 0.185-4e-3 0.332 0.045 0.449 0.151l2.794 2.326c0.502-0.237 1.102-0.446 1.8-0.626l0.681-3.405c0.01-0.155 0.091-0.302 0.241-0.436 0.13-0.116 0.296-0.178 0.495-0.188 3.068 0.057 4.746 0.243 5.027 0.56 0.094 0.105 0.15 0.253 0.174 0.442 0.027 0.27 0.064 0.793 0.105 1.571 0.047 0.779 0.089 1.381 0.13 1.804 0.728 0.276 1.358 0.573 1.896 0.895l3.043-1.953c0.127-0.095 0.276-0.126 0.446-0.101 0.17 0.028 0.312 0.105 0.427 0.234l2.891 3.246c0.104 0.117 0.164 0.269 0.182 0.451 0.017 0.185-0.022 0.331-0.117 0.436l-2.347 2.843c0.236 0.524 0.444 1.134 0.626 1.832 0.897 0.208 2.022 0.414 3.377 0.615 0.196 0.057 0.341 0.135 0.436 0.239 0.124 0.143 0.188 0.296 0.189 0.462 0.056 0.579 0.038 1.526-0.052 2.843-0.086 1.315-0.241 2.07-0.462 2.27-0.131 0.114-0.289 0.182-0.48 0.207l-3.424 0.216c-0.209 0.563-0.494 1.152-0.852 1.764 0.996 1.378 1.664 2.397 2.002 3.062 0.168 0.354 0.118 0.648-0.152 0.891l-3.264 2.903c-0.128 0.115-0.286 0.174-0.469 0.182-0.184 6e-3 -0.334-0.046-0.449-0.151l-2.793-2.325c-0.503 0.235-1.103 0.442-1.801 0.627l-0.681 3.404c-0.021 0.166-0.103 0.311-0.242 0.435-0.128 0.115-0.293 0.18-0.493 0.188-3.07-0.056-4.745-0.243-5.027-0.56-0.093-0.104-0.151-0.251-0.174-0.439-0.027-0.315-0.061-0.849-0.106-1.605-0.045-0.758-0.093-1.343-0.146-1.757-0.771-0.322-1.396-0.626-1.877-0.91l-3.028 1.973c-0.137 0.08-0.292 0.107-0.461 0.08-0.172-0.028-0.315-0.107-0.43-0.236zm3.809-11.943c-0.096 1.657 0.408 3.105 1.511 4.347 1.104 1.242 2.486 1.91 4.144 2.007 1.659 0.097 3.108-0.406 4.349-1.511 1.241-1.103 1.909-2.486 2.007-4.143 0.095-1.66-0.408-3.108-1.512-4.35-1.102-1.239-2.485-1.91-4.143-2.006-1.66-0.097-3.109 0.408-4.35 1.513-1.24 1.103-1.908 2.484-2.006 4.143zm-7.373 30.558l-2.187-2.456c-0.167-0.188 0.544-1.146 2.131-2.873-0.14-0.441-0.237-0.9-0.284-1.381-1.774-0.792-2.791-1.334-3.052-1.626-0.042-0.048-0.054-0.109-0.038-0.186 0.688-2.102 1.043-3.162 1.066-3.184 0.096-0.081 0.607-0.046 1.542 0.107 0.935 0.155 1.591 0.282 1.975 0.381 0.214-0.229 0.379-0.398 0.494-0.502 0.118-0.106 0.305-0.249 0.559-0.435-0.053-0.393-0.104-1.06-0.148-2.005s-0.021-1.461 0.073-1.545c0.023-0.021 1.119-0.251 3.285-0.689 0.078-7e-3 0.138 0.013 0.18 0.058 0.261 0.296 0.681 1.368 1.261 3.22 0.47 0.105 0.917 0.254 1.338 0.444 1.901-1.374 2.935-1.969 3.102-1.781l2.187 2.457c0.166 0.188-0.545 1.144-2.133 2.871 0.15 0.474 0.244 0.935 0.285 1.383 1.773 0.79 2.791 1.332 3.051 1.623 0.042 0.047 0.056 0.11 0.04 0.188-0.026 0.063-0.126 0.363-0.303 0.896-0.175 0.535-0.342 1.039-0.503 1.52-0.162 0.479-0.255 0.728-0.277 0.749-0.094 0.083-0.606 0.05-1.535-0.098-0.929-0.149-1.583-0.274-1.966-0.374-0.212 0.23-0.378 0.399-0.496 0.505-0.117 0.104-0.303 0.249-0.558 0.435 0.142 1.359 0.188 2.495 0.135 3.402l-0.076 0.129c-0.044 0.04-1.135 0.275-3.269 0.707-0.078 6e-3 -0.138-0.014-0.18-0.061-0.26-0.293-0.68-1.366-1.26-3.219-0.438-0.092-0.885-0.241-1.338-0.444-1.901 1.379-2.934 1.973-3.101 1.784zm-15.994-17.973l-2.187-2.457c-0.167-0.188 0.544-1.145 2.133-2.871-0.143-0.443-0.237-0.903-0.287-1.384-1.773-0.79-2.79-1.333-3.052-1.624-0.041-0.049-0.053-0.11-0.039-0.187 0.689-2.102 1.045-3.161 1.068-3.183 0.095-0.083 0.607-0.047 1.542 0.106 0.935 0.154 1.593 0.282 1.976 0.382 0.212-0.231 0.377-0.399 0.493-0.505 0.118-0.105 0.304-0.246 0.559-0.434-0.055-0.393-0.104-1.059-0.149-2.006-0.043-0.944-0.018-1.461 0.073-1.543 0.024-0.021 1.119-0.251 3.285-0.69 0.079-6e-3 0.139 0.013 0.182 0.061 0.26 0.292 0.679 1.365 1.259 3.219 0.473 0.104 0.918 0.254 1.339 0.443 1.9-1.376 2.933-1.972 3.1-1.782l2.187 2.457c0.166 0.186-0.543 1.146-2.129 2.871 0.146 0.473 0.244 0.936 0.284 1.383 1.772 0.791 2.79 1.332 3.052 1.625 0.041 0.047 0.055 0.109 0.038 0.186-0.026 0.064-0.127 0.364-0.303 0.897-0.176 0.534-0.343 1.04-0.505 1.519-0.16 0.479-0.251 0.729-0.275 0.749-0.094 0.083-0.605 0.05-1.533-0.098-0.931-0.147-1.586-0.272-1.969-0.373-0.213 0.231-0.377 0.4-0.495 0.506-0.116 0.103-0.302 0.247-0.558 0.433 0.143 1.361 0.188 2.495 0.135 3.402l-0.073 0.129c-0.047 0.04-1.138 0.276-3.271 0.709-0.079 6e-3 -0.139-0.016-0.18-0.061-0.26-0.295-0.679-1.366-1.26-3.221-0.438-0.092-0.885-0.241-1.341-0.443-1.899 1.376-2.932 1.972-3.099 1.785zm19.396 12.747c0.54 0.606 1.23 0.935 2.072 0.984 0.841 0.049 1.564-0.196 2.173-0.738s0.937-1.23 0.986-2.073c0.048-0.84-0.198-1.565-0.738-2.173-0.555-0.621-1.244-0.956-2.074-1.004-0.827-0.047-1.553 0.203-2.174 0.757-0.619 0.552-0.954 1.242-1.001 2.071-0.048 0.831 0.203 1.556 0.756 2.176zm-15.995-17.976c0.54 0.608 1.231 0.938 2.072 0.986 0.84 0.049 1.563-0.195 2.173-0.737s0.938-1.231 0.986-2.074c0.048-0.84-0.198-1.565-0.738-2.171-0.555-0.62-1.244-0.956-2.072-1.004s-1.554 0.202-2.174 0.757c-0.621 0.55-0.956 1.24-1.002 2.07-0.048 0.829 0.203 1.553 0.755 2.173z" clip-path="url(#a)" fill="#fff" opacity=".4"/>
	<path d="m1448.5 277.83l12.121 30.123c0.49 1.219 0.477 2.436-0.041 3.654-0.52 1.215-1.387 2.07-2.605 2.561l-40.756 16.398c-1.219 0.49-2.436 0.476-3.653-0.043-1.216-0.52-2.069-1.387-2.558-2.604l-12.123-30.123c-0.491-1.222-0.477-2.437 0.043-3.652 0.518-1.217 1.385-2.072 2.604-2.562l40.756-16.399c1.218-0.491 2.435-0.475 3.652 0.044 1.216 0.519 2.07 1.384 2.56 2.603zm-3.133 2.452c-0.014-0.039-0.056-0.141-0.122-0.307-0.067-0.166-0.116-0.29-0.151-0.374-0.032-0.082-0.085-0.2-0.157-0.354-0.073-0.153-0.147-0.258-0.222-0.312-0.076-0.056-0.161-0.118-0.254-0.188-0.092-0.069-0.204-0.107-0.332-0.107-0.129-2e-3 -0.27 0.027-0.416 0.087l-40.754 16.398c-0.242 0.097-0.414 0.267-0.518 0.514-0.105 0.247-0.108 0.491-0.014 0.729 1.248 3.102 3.66 5.177 7.236 6.226 4.689 1.373 9.566 2.808 14.633 4.311 0.148 0.047 0.58 0.19 1.298 0.428s1.282 0.41 1.691 0.524c0.409 0.113 0.937 0.239 1.583 0.376 0.645 0.137 1.213 0.204 1.704 0.199s0.921-0.083 1.29-0.231l0.028-0.012 0.028-0.011c0.369-0.147 0.732-0.391 1.092-0.726 0.356-0.336 0.721-0.778 1.09-1.325 0.369-0.546 0.663-1.002 0.881-1.369 0.217-0.364 0.502-0.88 0.856-1.551 0.353-0.666 0.566-1.07 0.642-1.204 2.612-4.593 5.136-9.006 7.569-13.247 0.677-1.192 1.177-2.633 1.496-4.316s0.262-3.07-0.177-4.158zm11.71 29.097l-8.558-21.264c-0.322 0.902-0.715 1.768-1.174 2.597-3.416 5.795-6.092 10.496-8.029 14.104-0.621 1.174-1.14 2.1-1.551 2.78-0.413 0.681-1.031 1.449-1.855 2.306-0.824 0.858-1.68 1.464-2.564 1.821l-0.027 0.01-0.028 0.013c-0.886 0.356-1.923 0.511-3.11 0.462-1.188-0.048-2.166-0.173-2.936-0.379-0.77-0.205-1.783-0.515-3.045-0.931-3.896-1.261-9.084-2.798-15.561-4.611-0.904-0.277-1.787-0.633-2.645-1.058l8.557 21.263c0.096 0.24 0.268 0.413 0.513 0.517 0.247 0.106 0.49 0.11 0.729 0.014l40.754-16.4c0.24-0.096 0.412-0.267 0.518-0.513s0.109-0.49 0.012-0.731z" clip-path="url(#a)" fill="#fff" opacity=".4"/>
	<path d="m60.441 587.79c0.533 3.59 0.108 7.107-1.272 10.553-1.38 3.445-3.503 6.281-6.365 8.512-2.865 2.229-6.091 3.61-9.682 4.142-3.589 0.531-7.107 0.107-10.552-1.272-3.445-1.38-6.283-3.503-8.512-6.366s-3.61-6.091-4.142-9.68-0.107-7.107 1.273-10.552c1.38-3.446 3.503-6.282 6.365-8.513 2.864-2.229 6.09-3.609 9.68-4.144 3.59-0.53 7.107-0.106 10.553 1.273s6.283 3.504 8.512 6.366c2.229 2.863 3.61 6.091 4.142 9.681zm-11.32 14.36c2.028-1.579 3.531-3.587 4.508-6.027 0.978-2.438 1.278-4.931 0.901-7.474-0.379-2.542-1.357-4.828-2.935-6.856-1.579-2.03-3.587-3.533-6.027-4.512-2.439-0.977-4.932-1.276-7.474-0.897-2.544 0.376-4.828 1.354-6.857 2.933s-3.534 3.588-4.511 6.027c-0.978 2.439-1.276 4.93-0.899 7.475 0.378 2.542 1.354 4.828 2.936 6.856 1.577 2.029 3.587 3.532 6.026 4.509 2.44 0.979 4.931 1.278 7.474 0.9 2.541-0.377 4.828-1.355 6.858-2.934zm-2.291-18.852l-4.438 11.078c-0.092 0.229-0.243 0.391-0.45 0.479-0.207 0.091-0.428 0.088-0.658-5e-3l-7.912-3.171c-0.23-0.092-0.391-0.242-0.48-0.45s-0.087-0.427 5e-3 -0.657l0.635-1.583c0.092-0.23 0.242-0.391 0.45-0.479 0.207-0.09 0.427-0.088 0.657 6e-3l5.539 2.218 3.487-8.703c0.093-0.231 0.244-0.392 0.451-0.479 0.208-0.089 0.427-0.088 0.659 5e-3l1.581 0.633c0.231 0.094 0.393 0.243 0.48 0.452 0.088 0.204 0.088 0.425-6e-3 0.656z" clip-path="url(#a)" fill="#fff" opacity=".4"/>
	<path d="m1425.5 754.82l-1.62 5.632c-0.216 0.76-0.686 1.339-1.403 1.735-0.718 0.397-1.456 0.485-2.219 0.267l-6.285-1.81c-2.442 4.406-5.884 7.836-10.316 10.292-4.436 2.456-9.171 3.546-14.2 3.273l-1.81 6.285c-0.218 0.764-0.686 1.345-1.405 1.736-0.718 0.398-1.456 0.487-2.217 0.27l-5.628-1.618c-0.763-0.223-1.343-0.69-1.739-1.407-0.397-0.716-0.487-1.455-0.265-2.219l1.809-6.287c-4.409-2.441-7.839-5.878-10.293-10.313-2.452-4.437-3.544-9.17-3.271-14.202l-6.283-1.807c-0.768-0.221-1.345-0.687-1.743-1.403-0.396-0.718-0.485-1.457-0.263-2.219l1.616-5.631c0.216-0.76 0.687-1.339 1.407-1.738 0.714-0.396 1.452-0.483 2.217-0.268l6.287 1.81c2.44-4.406 5.88-7.837 10.312-10.292 4.436-2.45 9.171-3.542 14.2-3.271l1.81-6.287c0.218-0.761 0.687-1.342 1.405-1.737 0.718-0.396 1.456-0.487 2.221-0.268l5.626 1.616c0.761 0.223 1.342 0.69 1.739 1.41 0.394 0.717 0.485 1.456 0.265 2.216l-1.807 6.288c4.408 2.444 7.835 5.881 10.289 10.312 2.453 4.438 3.545 9.17 3.271 14.202l6.287 1.807c0.765 0.221 1.342 0.69 1.739 1.404 0.399 0.722 0.485 1.461 0.267 2.222zm-17.333 4.156l-4.794-1.381c-0.76-0.218-1.343-0.684-1.738-1.401-0.396-0.718-0.485-1.46-0.268-2.221l1.62-5.628c0.221-0.761 0.687-1.34 1.403-1.741 0.718-0.392 1.461-0.481 2.221-0.263l4.79 1.376c-0.027-3.435-0.879-6.671-2.56-9.71-1.681-3.038-3.969-5.48-6.866-7.329l-1.378 4.794c-0.217 0.761-0.69 1.34-1.404 1.735-0.717 0.397-1.456 0.487-2.22 0.27l-5.629-1.618c-0.764-0.223-1.339-0.69-1.734-1.408-0.4-0.717-0.487-1.458-0.271-2.218l1.381-4.792c-3.436 0.027-6.674 0.879-9.709 2.563-3.039 1.681-5.484 3.967-7.33 6.862l4.79 1.38c0.76 0.219 1.341 0.688 1.739 1.401 0.396 0.722 0.485 1.463 0.267 2.225l-1.62 5.626c-0.22 0.761-0.687 1.342-1.403 1.739-0.718 0.396-1.456 0.485-2.221 0.266l-4.79-1.379c0.027 3.436 0.879 6.674 2.563 9.711 1.681 3.039 3.97 5.479 6.862 7.328l1.381-4.792c0.218-0.761 0.688-1.341 1.401-1.733 0.722-0.401 1.456-0.487 2.221-0.271l5.628 1.62c0.76 0.22 1.343 0.686 1.739 1.407 0.396 0.712 0.487 1.454 0.267 2.215l-1.38 4.794c3.437-0.027 6.673-0.882 9.712-2.563 3.039-1.678 5.48-3.969 7.33-6.864z" clip-path="url(#a)" fill="#fff" opacity=".4"/>
	<path d="m103.22 38.588c2.382 2.142 3.332 4.282 2.85 6.433-0.483 2.147-2.275 3.661-5.38 4.544l-50.623 14.39c-3.106 0.883-5.429 0.537-6.971-1.037-1.538-1.573-1.859-3.896-0.958-6.971l12.201-41.127-4.985-17.534-2.814 0.798c-0.762 0.217-1.5 0.126-2.213-0.274-0.713-0.397-1.18-0.978-1.396-1.738-0.217-0.764-0.127-1.501 0.271-2.215 0.398-0.715 0.978-1.18 1.738-1.396l22.501-6.397c0.759-0.217 1.5-0.124 2.215 0.276 0.713 0.396 1.18 0.976 1.397 1.74 0.216 0.759 0.126 1.5-0.274 2.213-0.396 0.715-0.978 1.182-1.738 1.397l-2.813 0.8 4.983 17.534 32.009 28.564zm-43.289-22.13l-6.592 22.247 31.288-8.891-17.314-15.457-1.265-1.111-0.462-1.626-4.981-17.535-5.626 1.602 4.98 17.533 0.464 1.626-0.492 1.612z" clip-path="url(#a)" fill="#fff" opacity=".4"/>
	<path d="m120.58 126.87c-1.287 1.225-2.698 1.893-4.228 2.007-1.534 0.106-2.898-0.465-4.093-1.72-0.624-0.654-1.071-1.398-1.345-2.251-0.276-0.84-0.418-1.598-0.434-2.267-0.014-0.665-0.14-1.405-0.375-2.208-0.238-0.808-0.635-1.503-1.194-2.094-1.666-1.75-3.485-1.685-5.457 0.194-0.62 0.59-1.413 1.589-2.379 2.994-0.968 1.402-1.768 2.395-2.403 2.968l-0.123 0.114c-0.331-0.346-0.59-0.604-0.773-0.762-0.56-0.498-1.389-1.188-2.488-2.067-1.094-0.881-2.079-1.701-2.944-2.448-0.865-0.75-1.649-1.492-2.345-2.222-0.923-0.971-1.493-1.994-1.709-3.061-0.214-1.067 0.135-2.037 1.04-2.896 0.589-0.562 1.285-0.959 2.091-1.195 0.807-0.237 1.542-0.365 2.21-0.379 0.67-0.015 1.426-0.158 2.272-0.435 0.844-0.271 1.593-0.718 2.246-1.34 1.255-1.197 1.83-2.561 1.72-4.095-0.112-1.533-0.78-2.943-2.006-4.23-1.27-1.333-2.715-2.128-4.331-2.376-1.619-0.249-3.08 0.247-4.383 1.485-0.681 0.653-1.229 1.401-1.639 2.249-0.408 0.841-0.667 1.596-0.778 2.262-0.109 0.665-0.277 1.334-0.502 2.003-0.226 0.67-0.514 1.169-0.865 1.503-0.715 0.679-1.773 0.99-3.165 0.923-1.119-0.059-2.283-0.721-3.493-1.997-1.441-1.509-3.104-3.64-4.995-6.385-0.1-0.175-0.279-0.422-0.525-0.75-0.252-0.323-0.428-0.572-0.533-0.745l-0.246-0.356c-0.015-0.015-0.031-0.046-0.044-0.094-0.029-0.031-0.035-0.055-0.021-0.071l24.428-23.257c0.011 0.049 0.118 0.213 0.313 0.497 0.193 0.286 0.412 0.59 0.654 0.927 0.239 0.331 0.375 0.528 0.402 0.593 1.892 2.748 3.554 4.876 4.994 6.385 1.21 1.273 2.374 1.939 3.492 1.995 1.393 0.068 2.451-0.241 3.166-0.921 0.351-0.333 0.641-0.834 0.866-1.505 0.228-0.67 0.393-1.338 0.503-2.004 0.108-0.663 0.368-1.418 0.777-2.261 0.41-0.846 0.957-1.595 1.639-2.243 1.305-1.243 2.765-1.739 4.383-1.488 1.618 0.25 3.067 1.048 4.355 2.4 1.208 1.272 1.873 2.673 1.982 4.206 0.109 1.535-0.463 2.899-1.718 4.093-0.652 0.622-1.402 1.069-2.248 1.347-0.847 0.276-1.603 0.42-2.272 0.43-0.664 0.017-1.402 0.143-2.208 0.379-0.807 0.237-1.504 0.635-2.092 1.194-0.905 0.863-1.254 1.831-1.042 2.897 0.215 1.068 0.785 2.088 1.712 3.057 0.968 1.02 2.447 2.338 4.442 3.956 1.998 1.617 3.364 2.783 4.108 3.498l-0.047 0.048c-0.046 0.015-0.211 0.12-0.495 0.316-0.286 0.194-0.594 0.411-0.925 0.649-0.337 0.242-0.529 0.376-0.595 0.409-2.748 1.888-4.877 3.552-6.384 4.992-1.273 1.21-1.942 2.374-2 3.492-0.065 1.396 0.243 2.451 0.925 3.165 0.333 0.353 0.832 0.641 1.503 0.866 0.671 0.229 1.336 0.394 2.002 0.503 0.667 0.109 1.423 0.369 2.267 0.777 0.842 0.411 1.59 0.957 2.244 1.642 1.239 1.303 1.734 2.76 1.486 4.38-0.249 1.614-1.041 3.058-2.38 4.328z" clip-path="url(#a)" fill="#fff" opacity=".4"/>
	<path d="m1297.2 782.83c9.483 1.783 17.411 4.762 23.784 8.936 6.371 4.178 12.328 10.295 17.872 18.351 2.466 3.659 5.119 8.003 7.958 13.03l21.438 5.213c0.596 0.194 1.034 0.588 1.313 1.195l8.674 24.341c0.101 0.294 0.12 0.615 0.056 0.954-0.086 0.459-0.341 0.862-0.761 1.216l-4.345 2.97c-0.627 0.399-1.266 0.437-1.914 0.116l-14.855-7.819-19.065 13.035 1.892 16.682c0.016 0.121 3e-3 0.297-0.039 0.52-0.102 0.539-0.355 0.943-0.766 1.223l-4.34 2.966c-0.846 0.51-1.603 0.468-2.282-0.132l-19.53-16.921c-0.459-0.479-0.672-1.034-0.634-1.657l2.926-21.865c-3.655-4.472-6.739-8.518-9.249-12.149-5.777-8.494-9.409-16.232-10.895-23.222-1.488-6.979-1.299-15.439 0.569-25.381 0.101-0.534 0.37-0.956 0.804-1.268 0.431-0.314 0.896-0.426 1.389-0.334zm17.633 18.218c-0.867-1.266-2.058-2.042-3.583-2.329-1.523-0.286-2.918 6e-3 -4.185 0.869-1.27 0.868-2.046 2.062-2.332 3.587-0.286 1.521 3e-3 2.915 0.872 4.183 0.865 1.268 2.061 2.044 3.583 2.33 1.526 0.287 2.917-3e-3 4.185-0.87 1.265-0.866 2.042-2.061 2.328-3.581 0.286-1.526-5e-3 -2.921-0.868-4.189z" clip-path="url(#a)" fill="#fff" opacity=".4"/>
	<path d="m1224-26.727c5.225-0.709 10.597-0.318 16.112 1.172 5.51 1.488 10.347 3.857 14.504 7.102 4.157 3.246 7.13 6.939 8.927 11.078 1.791 4.141 2.146 8.219 1.061 12.23-1.084 4.013-3.442 7.359-7.075 10.028-3.638 2.675-8.066 4.368-13.295 5.076-5.225 0.708-10.595 0.319-16.106-1.169-2.485-0.674-4.961-1.592-7.438-2.754-4.268 1.571-8.777 2.336-13.534 2.285-1.11-0.018-2.417-0.122-3.913-0.312l-0.129-0.035c-0.318-0.084-0.582-0.281-0.793-0.585-0.215-0.305-0.297-0.653-0.252-1.042-8e-3 -0.094 5e-3 -0.191 0.034-0.293 0.026-0.103 0.058-0.193 0.096-0.279 0.034-0.082 0.089-0.159 0.155-0.233 0.066-0.075 0.123-0.136 0.166-0.188 0.046-0.051 0.117-0.117 0.217-0.197 0.098-0.083 0.179-0.14 0.233-0.17 0.056-0.032 0.138-0.087 0.251-0.164 0.115-0.077 0.191-0.126 0.227-0.147 0.19-0.135 0.619-0.405 1.29-0.815 0.668-0.406 1.158-0.731 1.468-0.972 0.314-0.241 0.752-0.571 1.316-0.991 0.562-0.423 1.074-0.883 1.533-1.377 0.459-0.493 0.926-1.05 1.405-1.664-3.02-3.048-5.146-6.363-6.376-9.946-1.23-3.587-1.383-7.097-0.453-10.533 1.083-4.013 3.445-7.357 7.08-10.028 3.633-2.676 8.062-4.365 13.289-5.077zm26.388 12.314c-3.434-2.54-7.358-4.406-11.776-5.6-4.418-1.192-8.749-1.56-12.995-1.094-4.243 0.462-7.846 1.671-10.808 3.63-2.961 1.958-4.838 4.408-5.633 7.353-0.641 2.366-0.495 4.854 0.446 7.461 0.937 2.608 2.572 5.097 4.904 7.462l3.547 3.561-2.499 3.228c1.138-0.315 2.186-0.634 3.143-0.965l2.267-0.827 2.177 1.055c2.143 1.012 4.297 1.81 6.465 2.396 4.417 1.191 8.748 1.561 12.991 1.096 4.247-0.464 7.851-1.673 10.809-3.633 2.96-1.955 4.84-4.406 5.638-7.351 0.796-2.944 0.406-6.01-1.165-9.191-1.572-3.183-4.076-6.043-7.511-8.581zm11.636 49.1c0.101 0.771 0.229 1.485 0.374 2.146 0.146 0.66 0.356 1.312 0.634 1.959 0.271 0.648 0.485 1.152 0.632 1.519 0.148 0.365 0.412 0.893 0.78 1.583 0.374 0.688 0.606 1.139 0.704 1.352 0.021 0.036 0.061 0.117 0.12 0.242 0.06 0.123 0.107 0.214 0.139 0.269 0.03 0.053 0.069 0.144 0.114 0.261 0.044 0.121 0.072 0.217 0.086 0.284 0.012 0.062 0.027 0.144 0.049 0.241 0.021 0.1 0.026 0.195 0.018 0.285-6e-3 0.092-0.026 0.188-0.054 0.287-0.028 0.102-0.069 0.191-0.12 0.271-0.195 0.382-0.467 0.646-0.822 0.8-0.346 0.152-0.694 0.168-1.033 0.047-1.388-0.593-2.569-1.162-3.538-1.7-4.133-2.357-7.646-5.289-10.54-8.797-2.721-0.24-5.326-0.696-7.808-1.367-7.823-2.114-14.123-5.86-18.896-11.237 1.645 0.566 2.896 0.964 3.766 1.199 4.646 1.258 9.283 1.813 13.904 1.67 4.624-0.146 8.938-0.977 12.944-2.498 4.325-1.679 7.926-3.992 10.796-6.933 2.871-2.942 4.828-6.348 5.873-10.215 0.601-2.224 0.863-4.509 0.783-6.853 3.171 3.056 5.424 6.424 6.752 10.097 1.328 3.676 1.516 7.286 0.557 10.835-0.938 3.465-2.839 6.431-5.703 8.895-2.866 2.461-6.369 4.247-10.511 5.358z" clip-path="url(#a)" fill="#fff" opacity=".4"/>
	<path d="m198.32-0.49c-0.6 1.545-1.653 2.834-3.157 3.873-1.504 1.035-3.165 1.775-4.98 2.219-9.339 2.25-15.149 3.654-17.438 4.208-0.248 0.06-0.777 0.196-1.593 0.411-0.812 0.211-1.488 0.379-2.017 0.502-0.53 0.118-1.163 0.24-1.896 0.359-0.733 0.12-1.397 0.166-1.994 0.139-0.6-0.03-1.12-0.133-1.569-0.307l-0.029-0.012-0.03-0.014c-0.451-0.173-0.904-0.449-1.365-0.83-0.46-0.382-0.918-0.865-1.379-1.449-0.462-0.583-0.846-1.098-1.158-1.544-0.308-0.448-0.693-1.026-1.149-1.731-0.458-0.705-0.757-1.166-0.9-1.377-1.296-1.945-3.164-4.724-5.61-8.342-2.446-3.617-3.912-5.789-4.393-6.517-0.894-1.292-1.6-2.868-2.119-4.723-0.517-1.854-0.535-3.397-0.058-4.63 0.591-1.526 1.49-2.639 2.698-3.34 1.205-0.703 2.561-0.765 4.069-0.182l43.195 16.765c1.271 0.495 2.192 1.384 2.766 2.663 0.57 1.28 0.607 2.566 0.106 3.859zm-3.349 8.625l-9.041 23.3c-0.501 1.292-1.391 2.221-2.667 2.784-1.277 0.561-2.558 0.592-3.851 0.092l-43.196-16.765c-1.293-0.501-2.221-1.39-2.781-2.665-0.563-1.276-0.593-2.562-0.092-3.854l9.043-23.3c0.487 1.294 1.146 2.528 1.974 3.703 5.213 7.563 8.765 12.823 10.654 15.785 0.796 1.255 1.453 2.247 1.968 2.977 0.519 0.728 1.258 1.558 2.227 2.481 0.969 0.928 1.952 1.586 2.949 1.973l0.03 0.011 0.029 0.012c0.998 0.387 2.165 0.566 3.506 0.534 1.34-0.03 2.447-0.139 3.319-0.332 0.874-0.189 2.027-0.479 3.461-0.871 4.261-1.113 10.439-2.596 18.542-4.451 1.413-0.33 2.721-0.8 3.926-1.414z" clip-path="url(#a)" fill="#fff" opacity=".4"/>
	<path d="m170.53 720.31c0.849 0.619 1.198 1.443 1.042 2.473l-9.883 59.301c-0.131 0.746-0.539 1.324-1.235 1.736-0.36 0.205-0.759 0.311-1.196 0.311-0.285 0-0.593-0.063-0.928-0.191l-17.489-7.145-9.344 11.391c-0.463 0.591-1.092 0.888-1.892 0.888-0.334 0-0.617-0.054-0.848-0.154-0.49-0.18-0.884-0.483-1.179-0.909-0.296-0.423-0.443-0.893-0.443-1.409v-13.472l33.356-40.885-41.271 35.71-15.249-6.255c-0.953-0.361-1.467-1.066-1.544-2.124-0.053-1.026 0.359-1.787 1.234-2.276l64.243-37.062c0.386-0.232 0.798-0.347 1.234-0.347 0.518-2e-3 0.979 0.14 1.392 0.419z" clip-path="url(#a)" fill="#fff" opacity=".4"/>
	<path d="m1440 43.747c0 0.987-0.361 1.841-1.082 2.563-0.723 0.721-1.576 1.082-2.563 1.082-1.025 0-1.88-0.361-2.563-1.082l-9.77-9.74c-3.398 2.354-7.187 3.531-11.363 3.531-2.717 0-5.312-0.527-7.79-1.581s-4.614-2.478-6.408-4.272-3.219-3.93-4.272-6.408c-1.053-2.479-1.58-5.074-1.58-7.79s0.527-5.312 1.58-7.79c1.054-2.478 2.479-4.614 4.272-6.408 1.794-1.794 3.931-3.219 6.408-4.272 2.478-1.054 5.073-1.581 7.79-1.581 2.715 0 5.312 0.527 7.789 1.581 2.479 1.053 4.614 2.478 6.408 4.272 1.795 1.794 3.219 3.931 4.272 6.408 1.054 2.478 1.581 5.075 1.581 7.79 0 4.177-1.178 7.965-3.532 11.364l9.77 9.77c0.702 0.702 1.053 1.556 1.053 2.563zm-18.328-14.682c2.497-2.497 3.746-5.501 3.746-9.014s-1.249-6.518-3.746-9.015c-2.496-2.497-5.502-3.745-9.014-3.745-3.514 0-6.519 1.249-9.015 3.745-2.497 2.497-3.745 5.501-3.745 9.015 0 3.513 1.248 6.517 3.745 9.014 2.496 2.497 5.501 3.746 9.015 3.746 3.512 0 6.518-1.249 9.014-3.746z" clip-path="url(#a)" fill="#fff" opacity=".4"/>
	<path d="m26.622 132.81l-7.43 14.141c-0.344 0.655-0.866 1.091-1.564 1.308-0.699 0.217-1.376 0.154-2.031-0.19l-23.567-12.382c-0.655-0.344-1.091-0.866-1.309-1.564s-0.154-1.375 0.19-2.03l7.43-14.141c0.344-0.654 0.865-1.091 1.564-1.308 0.699-0.218 1.375-0.154 2.031 0.19l0.785 0.413 2.477-4.714c1.582-3.011 4.021-5.03 7.317-6.055 3.295-1.025 6.449-0.747 9.46 0.835 3.012 1.582 5.03 4.021 6.056 7.316 1.025 3.296 0.746 6.45-0.835 9.461l-2.477 4.714 0.785 0.413c0.655 0.344 1.091 0.866 1.309 1.564 0.216 0.698 0.153 1.375-0.191 2.029zm-19.187-13.088l12.569 6.604 2.477-4.714c0.912-1.735 1.076-3.539 0.494-5.411s-1.742-3.264-3.477-4.176c-1.735-0.911-3.538-1.076-5.411-0.493-1.873 0.582-3.265 1.741-4.176 3.476l-2.476 4.714z" clip-path="url(#a)" fill="#fff" opacity=".4"/>
	<path d="m30.372 229.71c1.08 2.581 1.576 4.863 1.488 6.847l-1.427 32.895c-0.053 0.94-0.357 1.79-0.915 2.552-0.557 0.762-1.262 1.322-2.114 1.679-0.852 0.356-1.746 0.465-2.68 0.327s-1.742-0.522-2.424-1.155l-24.461-22.064c-1.474-1.33-2.751-3.285-3.831-5.866-2.1-5.019-2.117-10.047-0.051-15.084s5.607-8.605 10.627-10.705c5.019-2.1 10.047-2.117 15.084-0.051 5.037 2.062 8.605 5.606 10.704 10.625zm-9.065 11.345c1.033-2.519 1.024-5.033-0.026-7.542-1.049-2.509-2.833-4.281-5.352-5.314-2.519-1.032-5.033-1.023-7.542 0.026-2.51 1.05-4.281 2.833-5.314 5.352s-1.024 5.033 0.026 7.542c1.05 2.51 2.834 4.281 5.353 5.313 2.519 1.033 5.032 1.024 7.542-0.026 2.509-1.049 4.28-2.833 5.313-5.351z" clip-path="url(#a)" fill="#fff" opacity=".4"/>
	<path d="m1371 85.381l-4.456 11.619c-1.111 2.9-3.091 4.984-5.939 6.253s-5.721 1.347-8.619 0.236l-30.403-11.66c-2.899-1.112-4.983-3.092-6.252-5.939-1.27-2.848-1.348-5.721-0.235-8.62l11.658-30.403c1.112-2.899 3.092-4.983 5.939-6.251 2.848-1.269 5.722-1.349 8.62-0.237l30.403 11.66c1.534 0.588 2.843 1.44 3.925 2.553 0.3 0.311 0.412 0.675 0.335 1.092-0.086 0.443-0.331 0.753-0.734 0.934l-2.477 1.104c-0.339 0.15-0.666 0.165-0.981 0.043-0.073-0.028-0.173-0.094-0.302-0.2-0.505-0.361-1.024-0.644-1.56-0.85l-30.403-11.659c-1.607-0.617-3.203-0.571-4.787 0.134-1.585 0.707-2.685 1.862-3.301 3.471l-11.66 30.402c-0.615 1.608-0.571 3.203 0.135 4.788 0.706 1.584 1.862 2.684 3.47 3.3l30.403 11.66c1.608 0.616 3.204 0.572 4.787-0.134 1.585-0.706 2.685-1.862 3.302-3.471l3.559-9.282c0.121-0.315 0.334-0.542 0.638-0.677l3.235-1.442c0.337-0.15 0.665-0.165 0.981-0.043 0.146 0.056 0.277 0.148 0.396 0.278 0.412 0.382 0.519 0.829 0.323 1.341zm15.294-14.633l-41.152 18.338c-0.808 0.361-1.614 0.387-2.418 0.079-0.805-0.308-1.387-0.867-1.746-1.676l-9.688-21.739c-0.361-0.809-0.387-1.615-0.079-2.419 0.31-0.804 0.867-1.386 1.676-1.747l5.562-2.478c0.809-0.361 1.615-0.387 2.42-0.079 0.803 0.309 1.386 0.867 1.746 1.676l5.924 13.297 32.709-14.576c0.809-0.359 1.614-0.386 2.419-0.078 0.805 0.309 1.386 0.867 1.747 1.675l2.478 5.562c0.36 0.809 0.387 1.616 0.078 2.419-0.308 0.803-0.867 1.386-1.676 1.746z" clip-path="url(#a)" fill="#fff" opacity=".4"/>
	<path d="m1439.8 215.61c-0.228 0.584-0.63 1.109-1.206 1.576-3.938 3.014-8.398 4.92-13.381 5.719-4.985 0.799-9.733 0.321-14.247-1.433-4.514-1.755-8.338-4.614-11.469-8.578-3.132-3.964-5.135-8.378-6.009-13.243-0.11-0.734-0.052-1.393 0.175-1.977 0.228-0.583 0.629-1.108 1.206-1.576 3.931-2.996 8.39-4.899 13.376-5.706 4.986-0.808 9.737-0.334 14.252 1.421 4.514 1.755 8.336 4.614 11.469 8.579 3.131 3.963 5.134 8.378 6.01 13.242 0.109 0.734 0.05 1.393-0.176 1.976zm-3.296-1.281c-1.034-5.064-3.127-9.365-6.275-12.901 0.352 2.191 0.126 4.326-0.682 6.403-1.234 3.176-3.419 5.453-6.554 6.833-3.134 1.379-6.289 1.452-9.465 0.218-3.176-1.235-5.453-3.419-6.832-6.554-1.38-3.134-1.452-6.289-0.218-9.464 0.808-2.077 2.081-3.804 3.822-5.182-4.711 0.479-9.159 2.238-13.341 5.274 0.913 4.407 2.686 8.321 5.317 11.744 2.631 3.424 5.954 5.916 9.97 7.477 4.018 1.562 8.15 1.969 12.402 1.221 4.253-0.748 8.204-2.437 11.856-5.069zm-15.394-16.358c0.334-0.146 0.567-0.392 0.701-0.735 0.133-0.342 0.126-0.681-0.021-1.015s-0.393-0.567-0.735-0.701c-2.146-0.834-4.285-0.782-6.418 0.158-2.135 0.938-3.617 2.48-4.451 4.626-0.133 0.344-0.128 0.682 0.021 1.016 0.146 0.333 0.391 0.567 0.733 0.7 0.344 0.134 0.682 0.127 1.017-0.02 0.334-0.147 0.567-0.392 0.701-0.736 0.573-1.476 1.587-2.534 3.041-3.174s2.919-0.674 4.396-0.1c0.342 0.135 0.68 0.129 1.015-0.019z" clip-path="url(#a)" fill="#fff" opacity=".4"/>
	<path d="m37.493 348.88c-0.166 0.564-0.488 1.27-0.964 2.117-0.477 0.847-0.907 1.498-1.29 1.952-0.746 0.916-2.346 1.647-4.799 2.195-2.277 0.487-4.376 0.448-6.298-0.118-0.563-0.166-1.101-0.363-1.612-0.594-0.511-0.23-1.073-0.538-1.686-0.922-0.613-0.386-1.064-0.683-1.354-0.893s-0.807-0.595-1.549-1.154c-0.744-0.559-1.2-0.897-1.369-1.016-1.832-1.334-3.404-2.739-4.716-4.214-2.188-2.437-4.287-5.501-6.298-9.191s-3.449-7.115-4.311-10.274c-0.528-1.903-0.857-3.985-0.985-6.248-7e-3 -0.206-0.045-0.773-0.111-1.701-0.068-0.927-0.111-1.57-0.13-1.927s-0.025-0.898-0.016-1.622 0.055-1.363 0.139-1.916c0.083-0.555 0.209-1.114 0.375-1.677 0.566-1.921 1.671-3.707 3.313-5.356 1.79-1.765 3.271-2.713 4.446-2.843 0.589-0.076 1.369-0.084 2.339-0.026 0.97 0.059 1.737 0.171 2.301 0.337 0.292 0.086 0.502 0.182 0.63 0.288 0.339 0.236 0.659 1.193 0.959 2.87 0.113 0.464 0.26 1.12 0.442 1.968 0.181 0.848 0.351 1.618 0.511 2.312 0.158 0.693 0.318 1.348 0.477 1.961 0.038 0.103 0.144 0.417 0.318 0.945 0.173 0.527 0.289 0.965 0.346 1.31 0.056 0.346 0.042 0.665-0.044 0.958-0.123 0.417-0.574 0.852-1.354 1.303s-1.597 0.835-2.45 1.151c-0.853 0.315-1.664 0.679-2.431 1.088s-1.206 0.802-1.317 1.178c-0.056 0.188-0.073 0.438-0.051 0.75 0.021 0.313 0.047 0.554 0.078 0.721 0.03 0.168 0.102 0.462 0.217 0.881 0.115 0.42 0.176 0.654 0.185 0.702 0.744 3.329 1.838 6.318 3.283 8.967 1.443 2.649 3.362 5.189 5.756 7.619 0.036 0.033 0.198 0.212 0.489 0.536 0.29 0.324 0.498 0.543 0.623 0.66 0.124 0.116 0.312 0.268 0.563 0.456s0.471 0.309 0.658 0.364c0.376 0.11 0.944-0.045 1.704-0.468 0.759-0.423 1.504-0.908 2.232-1.453 0.728-0.546 1.493-1.024 2.295-1.436 0.802-0.411 1.412-0.554 1.829-0.431 0.293 0.086 0.569 0.247 0.829 0.482 0.259 0.235 0.564 0.569 0.914 1.001 0.349 0.433 0.557 0.692 0.622 0.779 0.429 0.467 0.893 0.956 1.39 1.464 0.497 0.51 1.052 1.071 1.667 1.683 0.614 0.612 1.085 1.092 1.415 1.438 1.247 1.162 1.877 1.949 1.892 2.361 0.018 0.163-0.016 0.391-0.102 0.683z" clip-path="url(#a)" fill="#fff" opacity=".4"/>
	<path d="m29.658 504.32l-18.875 34.205c-0.683 1.235-1.712 2.054-3.087 2.45-1.35 0.39-2.667 0.251-3.957-0.416l-5.338-3.012c-1.257-0.649-2.086-1.675-2.491-3.075-0.397-1.375-0.246-2.697 0.457-3.969l18.847-34.154c1.747 2.251 3.882 4.072 6.406 5.465 2.524 1.395 5.203 2.229 8.038 2.506zm-20.574 25.547c0.35-0.635 0.429-1.29 0.233-1.965-0.194-0.674-0.61-1.187-1.245-1.538s-1.29-0.429-1.965-0.233c-0.675 0.194-1.188 0.61-1.537 1.245-0.351 0.636-0.429 1.291-0.234 1.965 0.195 0.675 0.61 1.188 1.246 1.538 0.635 0.351 1.29 0.428 1.964 0.232 0.675-0.194 1.188-0.609 1.538-1.244zm40.358-49.6c0.292 1.012 0.391 2.474 0.296 4.384-0.216 3.829-1.535 7.267-3.957 10.312-2.423 3.047-5.463 5.098-9.122 6.154-4.8 1.387-9.397 0.866-13.794-1.561-4.396-2.425-7.288-6.039-8.674-10.839-1.386-4.798-0.866-9.396 1.561-13.794 2.426-4.396 6.039-7.288 10.838-8.675 1.504-0.434 3.143-0.675 4.913-0.723 1.771-0.047 3.34 0.152 4.707 0.602 0.497 0.166 0.81 0.469 0.937 0.91 0.127 0.44 0.024 0.863-0.307 1.269l-9.503 9.869 2.517 8.718 8.714 1.994c0.106-0.115 0.95-1.039 2.529-2.775 1.579-1.734 3.034-3.293 4.363-4.674 1.329-1.382 2.11-2.106 2.344-2.175 0.39-0.112 0.731-0.069 1.027 0.126 0.295 0.197 0.499 0.489 0.611 0.878z" clip-path="url(#a)" fill="#fff" opacity=".4"/>
	<path d="m1440.9 658.85l7.706 14.309c0.305 0.568 0.366 1.158 0.184 1.77-0.184 0.611-0.56 1.07-1.127 1.376l-20.441 11.009c-0.568 0.305-1.158 0.366-1.769 0.183-0.612-0.183-1.071-0.56-1.376-1.126l-1.835-3.407-11.583 6.238c-0.568 0.306-1.158 0.367-1.77 0.184s-1.07-0.559-1.376-1.127l-15.411-28.617c-0.307-0.568-0.367-1.157-0.185-1.77 0.184-0.611 0.559-1.07 1.127-1.376l23.167-12.477c0.567-0.305 1.157-0.366 1.769-0.184 0.611 0.185 1.07 0.56 1.376 1.127l3.762 6.984c0.397 0.024 0.76 0.085 1.088 0.184l13.366 4.009c0.61 0.184 1.241 0.539 1.894 1.068 0.65 0.527 1.129 1.076 1.434 1.643zm-25.526-8.227l-0.734-1.362c-0.1-0.185-0.252-0.308-0.461-0.371-0.207-0.062-0.403-0.043-0.588 0.057l-14.99 8.072c-0.184 0.1-0.308 0.254-0.369 0.461-0.062 0.207-0.044 0.404 0.056 0.588l0.733 1.363c0.1 0.185 0.253 0.308 0.461 0.37 0.207 0.062 0.402 0.043 0.588-0.057l14.989-8.072c0.185-0.1 0.309-0.253 0.371-0.461 0.061-0.207 0.044-0.404-0.056-0.588zm11.062 33.597l19.078-10.274-7.339-13.628-8.857 4.771c-0.568 0.306-1.158 0.367-1.77 0.184-0.611-0.183-1.07-0.559-1.376-1.126l-4.771-8.858-8.177 4.403 13.212 24.528zm2.094-22.224l6.367-3.428-9.796-2.938 3.429 6.366z" clip-path="url(#a)" fill="#fff" opacity=".4"/>
	<path d="m1395.7 157.26l31.627-60.083c0.561-1.094 1.473-1.63 2.738-1.604 0.158 2e-3 0.394 0.04 0.708 0.11 0.692 0.173 1.246 0.541 1.663 1.102 0.415 0.564 0.614 1.192 0.601 1.888l-0.57 27.323 27.323 0.569c0.695 0.016 1.315 0.242 1.859 0.681 0.546 0.438 0.888 1.007 1.031 1.707 0.145 0.697 0.066 1.36-0.231 1.987-0.297 0.626-0.766 1.091-1.404 1.395l-61.351 29.091c-0.415 0.213-0.877 0.314-1.383 0.304-0.853-0.018-1.558-0.334-2.116-0.945-0.465-0.453-0.745-1.005-0.841-1.656-0.098-0.65 0.019-1.273 0.346-1.869z" clip-path="url(#a)" fill="#fff" opacity=".4"/>
</svg>
