<?xml version="1.0" encoding="utf-8"?>
<!-- Generator: Adobe Illustrator 16.0.0, SVG Export Plug-In . SVG Version: 6.00 Build 0)  -->
<!DOCTYPE svg PUBLIC "-//W3C//DTD SVG 1.1//EN" "http://www.w3.org/Graphics/SVG/1.1/DTD/svg11.dtd">
<svg version="1.1" id="Layer_1" xmlns="http://www.w3.org/2000/svg" xmlns:xlink="http://www.w3.org/1999/xlink" x="0px" y="0px"
	 width="1440px" height="811px" viewBox="0 0 1440 811" enable-background="new 0 0 1440 811" xml:space="preserve">
<title>BG_icon1</title>
<desc>Created with Sketch.</desc>
<g>
	<defs>
		<rect id="SVGID_1_" x="0" y="0" width="1438" height="811"/>
	</defs>
	<clipPath id="SVGID_2_">
		<use xlink:href="#SVGID_1_"  overflow="visible"/>
	</clipPath>
	<rect x="0.5" y="0" clip-path="url(#SVGID_2_)" fill="#26A9E0" width="1438" height="811"/>
	<g clip-path="url(#SVGID_2_)">
		<path opacity="0.4" fill="#FFFFFF" d="M1135.081,14.453c1.425,1.281,1.993,2.562,1.705,3.849c-0.289,1.285-1.361,2.19-3.219,2.719
			l-30.288,8.609c-1.858,0.528-3.248,0.321-4.171-0.62c-0.92-0.941-1.112-2.331-0.573-4.171l7.3-24.606l-2.982-10.49l-1.684,0.478
			c-0.456,0.13-0.897,0.075-1.324-0.164c-0.427-0.238-0.706-0.585-0.835-1.04c-0.13-0.457-0.076-0.898,0.162-1.325
			c0.238-0.428,0.585-0.706,1.04-0.836l13.463-3.827c0.454-0.13,0.897-0.074,1.325,0.165c0.427,0.237,0.706,0.584,0.836,1.041
			c0.129,0.454,0.075,0.897-0.164,1.324c-0.237,0.428-0.585,0.707-1.04,0.836l-1.684,0.479l2.981,10.491L1135.081,14.453z
			 M1109.181,1.213l-3.944,13.311l18.72-5.319l-10.358-9.248l-0.757-0.665l-0.276-0.973l-2.98-10.491l-3.366,0.958l2.979,10.49
			l0.277,0.973L1109.181,1.213z"/>
		<path opacity="0.4" fill="#FFFFFF" d="M1259.06-4.438c0.97,1.105,1.474,2.293,1.513,3.562c0.039,1.271-0.48,2.38-1.559,3.325
			c-0.561,0.491-1.194,0.837-1.901,1.033c-0.708,0.198-1.339,0.293-1.891,0.282s-1.167,0.069-1.839,0.235
			c-0.675,0.169-1.264,0.475-1.771,0.918c-1.502,1.317-1.51,2.822-0.025,4.515c0.468,0.533,1.266,1.223,2.395,2.067
			c1.128,0.846,1.919,1.542,2.372,2.086l0.09,0.103c-0.301,0.263-0.521,0.469-0.658,0.614c-0.428,0.447-1.025,1.109-1.789,1.984
			c-0.766,0.878-1.475,1.66-2.123,2.352c-0.651,0.692-1.289,1.312-1.917,1.863c-0.834,0.731-1.695,1.167-2.586,1.308
			c-0.892,0.142-1.677-0.178-2.36-0.956c-0.441-0.505-0.747-1.095-0.914-1.769c-0.17-0.673-0.249-1.286-0.239-1.839
			c0.012-0.553-0.082-1.184-0.281-1.891c-0.197-0.707-0.542-1.342-1.032-1.902c-0.947-1.078-2.055-1.598-3.323-1.559
			c-1.272,0.039-2.46,0.542-3.566,1.513c-1.146,1.005-1.849,2.173-2.11,3.501c-0.26,1.328,0.101,2.552,1.082,3.671
			c0.515,0.587,1.113,1.063,1.799,1.431c0.682,0.365,1.298,0.606,1.844,0.719c0.545,0.113,1.092,0.273,1.638,0.482
			c0.547,0.211,0.95,0.465,1.214,0.765c0.539,0.615,0.758,1.498,0.656,2.649c-0.088,0.922-0.675,1.86-1.768,2.819
			c-1.298,1.137-3.111,2.438-5.449,3.908c-0.146,0.08-0.356,0.218-0.634,0.411c-0.276,0.195-0.489,0.331-0.636,0.414l-0.301,0.191
			c-0.014,0.012-0.042,0.022-0.08,0.033c-0.027,0.023-0.047,0.028-0.058,0.016l-18.393-20.971c0.04-0.009,0.181-0.092,0.421-0.243
			c0.243-0.151,0.505-0.319,0.787-0.509c0.282-0.187,0.45-0.29,0.501-0.312c2.337-1.471,4.151-2.771,5.45-3.91
			c1.092-0.958,1.682-1.896,1.767-2.818c0.102-1.15-0.117-2.033-0.656-2.648c-0.264-0.3-0.668-0.556-1.214-0.765
			c-0.547-0.211-1.093-0.371-1.639-0.485c-0.545-0.112-1.16-0.351-1.845-0.719c-0.683-0.366-1.282-0.843-1.797-1.429
			c-0.981-1.12-1.342-2.344-1.083-3.673c0.263-1.326,0.972-2.499,2.133-3.517c1.093-0.957,2.272-1.457,3.542-1.496
			c1.271-0.039,2.379,0.481,3.325,1.56c0.491,0.56,0.834,1.194,1.033,1.902c0.198,0.707,0.293,1.338,0.281,1.891
			c-0.011,0.552,0.068,1.165,0.237,1.839c0.168,0.673,0.475,1.264,0.917,1.768c0.682,0.778,1.468,1.099,2.358,0.957
			c0.892-0.142,1.753-0.577,2.585-1.309c0.875-0.766,2.015-1.945,3.418-3.539c1.404-1.594,2.416-2.688,3.033-3.274l0.035,0.04
			c0.011,0.038,0.091,0.18,0.244,0.42c0.15,0.242,0.32,0.505,0.508,0.787c0.187,0.282,0.291,0.45,0.314,0.502
			c1.468,2.337,2.771,4.151,3.909,5.448c0.957,1.093,1.897,1.683,2.817,1.768c1.151,0.101,2.034-0.117,2.648-0.656
			c0.301-0.264,0.554-0.667,0.765-1.213c0.21-0.548,0.371-1.094,0.484-1.64c0.111-0.545,0.353-1.16,0.719-1.845
			c0.366-0.683,0.843-1.281,1.431-1.797c1.118-0.981,2.344-1.342,3.671-1.083C1256.887-6.289,1258.053-5.585,1259.06-4.438z"/>
		<path opacity="0.4" fill="#FFFFFF" d="M1434.873,785.587l-1.48,3.328c-0.053,0.12-0.146,0.219-0.281,0.296
			c-0.135,0.076-0.259,0.097-0.373,0.061l-2.98-0.809c-0.318,0.361-0.713,0.732-1.184,1.112c0.152,0.757,0.385,1.687,0.699,2.79
			c0.031,0.157,0.02,0.296-0.033,0.415c-0.064,0.145-0.158,0.239-0.279,0.287c-0.436,0.236-1.169,0.554-2.199,0.95
			c-1.032,0.396-1.662,0.544-1.89,0.442c-0.132-0.059-0.239-0.156-0.321-0.294l-1.35-2.539c-0.546,0.03-1.09,0.011-1.634-0.06
			c-0.708,1.237-1.259,2.106-1.653,2.607c-0.213,0.25-0.457,0.313-0.732,0.191l-3.348-1.488c-0.133-0.06-0.231-0.157-0.3-0.295
			c-0.067-0.139-0.081-0.27-0.04-0.396l0.81-2.937c-0.354-0.302-0.722-0.688-1.101-1.158l-2.836,0.658
			c-0.121,0.046-0.26,0.035-0.416-0.034c-0.133-0.059-0.237-0.163-0.314-0.312c-1.018-2.363-1.455-3.708-1.312-4.031
			c0.048-0.108,0.142-0.203,0.278-0.286c0.195-0.114,0.582-0.323,1.162-0.625c0.58-0.304,1.023-0.544,1.334-0.722
			c-0.042-0.651-0.033-1.236,0.025-1.757l-2.543-1.647c-0.115-0.065-0.191-0.168-0.23-0.307c-0.038-0.14-0.028-0.275,0.031-0.407
			l1.479-3.329c0.054-0.12,0.148-0.218,0.282-0.295c0.134-0.076,0.259-0.097,0.372-0.061l2.982,0.808
			c0.318-0.361,0.712-0.731,1.183-1.111c-0.151-0.758-0.385-1.688-0.699-2.79c-0.024-0.17-0.014-0.309,0.034-0.416
			c0.064-0.145,0.159-0.245,0.285-0.304c0.424-0.243,1.154-0.558,2.188-0.945c1.034-0.389,1.665-0.531,1.894-0.431
			c0.132,0.06,0.239,0.157,0.322,0.295l1.35,2.538c0.503-0.034,1.051-0.021,1.641,0.041c0.709-1.237,1.257-2.1,1.646-2.587
			c0.212-0.251,0.455-0.315,0.732-0.192l3.347,1.487c0.132,0.059,0.231,0.158,0.3,0.296s0.081,0.27,0.04,0.395l-0.81,2.938
			c0.354,0.302,0.721,0.688,1.102,1.157l2.835-0.657c0.134-0.041,0.272-0.029,0.416,0.034c0.132,0.059,0.237,0.162,0.313,0.312
			c1.02,2.364,1.456,3.707,1.312,4.032c-0.048,0.107-0.141,0.202-0.277,0.285c-0.23,0.129-0.626,0.34-1.188,0.637
			c-0.562,0.296-0.993,0.535-1.29,0.719c0.02,0.699,0.004,1.282-0.045,1.748l2.553,1.63c0.108,0.077,0.183,0.186,0.221,0.325
			C1434.942,785.318,1434.932,785.455,1434.873,785.587z M1424.438,786.808c1.299-0.499,2.231-1.385,2.797-2.656
			s0.598-2.558,0.099-3.857c-0.5-1.3-1.386-2.232-2.657-2.798s-2.559-0.598-3.857-0.099c-1.3,0.501-2.232,1.387-2.798,2.658
			c-0.565,1.271-0.599,2.558-0.099,3.856c0.5,1.301,1.387,2.232,2.658,2.798S1423.137,787.309,1424.438,786.808z M1450.319,781.87
			l-1.119,2.52c-0.086,0.192-1.062-0.02-2.93-0.634c-0.289,0.259-0.607,0.492-0.957,0.695c0.01,1.628-0.053,2.592-0.186,2.892
			c-0.021,0.048-0.064,0.079-0.128,0.094c-1.843,0.201-2.775,0.297-2.8,0.286c-0.096-0.044-0.246-0.447-0.451-1.214
			s-0.336-1.313-0.393-1.64c-0.25-0.083-0.436-0.151-0.555-0.204c-0.121-0.053-0.295-0.146-0.524-0.275
			c-0.28,0.176-0.773,0.446-1.479,0.807c-0.707,0.361-1.108,0.521-1.204,0.479c-0.024-0.011-0.579-0.768-1.663-2.27
			c-0.033-0.058-0.038-0.11-0.018-0.158c0.135-0.301,0.809-0.992,2.022-2.075c-0.083-0.396-0.124-0.788-0.124-1.176
			c-1.707-0.976-2.519-1.559-2.434-1.751l1.12-2.52c0.085-0.191,1.062,0.02,2.93,0.635c0.31-0.278,0.629-0.51,0.956-0.695
			c-0.01-1.628,0.053-2.592,0.186-2.892c0.021-0.048,0.064-0.08,0.129-0.095c0.058-0.002,0.321-0.029,0.789-0.079
			c0.469-0.051,0.912-0.098,1.334-0.141c0.422-0.042,0.644-0.058,0.668-0.048c0.096,0.043,0.248,0.444,0.456,1.205
			s0.339,1.304,0.396,1.631c0.25,0.082,0.436,0.15,0.557,0.204c0.119,0.054,0.294,0.146,0.523,0.275
			c0.99-0.579,1.841-1.006,2.552-1.279l0.124,0.013c0.047,0.021,0.604,0.771,1.672,2.252c0.031,0.057,0.036,0.109,0.016,0.157
			c-0.134,0.3-0.809,0.992-2.022,2.075c0.081,0.367,0.122,0.759,0.124,1.176C1449.593,781.094,1450.405,781.677,1450.319,781.87z
			 M1442.127,800.298l-1.119,2.52c-0.086,0.192-1.062-0.02-2.93-0.635c-0.289,0.261-0.607,0.492-0.957,0.697
			c0.01,1.627-0.053,2.591-0.186,2.891c-0.021,0.049-0.064,0.079-0.128,0.095c-1.843,0.201-2.775,0.296-2.8,0.285
			c-0.096-0.043-0.246-0.447-0.451-1.214s-0.336-1.313-0.393-1.64c-0.25-0.083-0.436-0.15-0.556-0.203
			c-0.12-0.054-0.294-0.146-0.524-0.276c-0.279,0.177-0.772,0.445-1.479,0.808c-0.706,0.36-1.108,0.52-1.203,0.478
			c-0.024-0.011-0.579-0.768-1.664-2.27c-0.032-0.058-0.038-0.11-0.017-0.158c0.134-0.3,0.809-0.992,2.022-2.075
			c-0.083-0.396-0.124-0.788-0.124-1.176c-1.708-0.976-2.52-1.558-2.434-1.75l1.12-2.52c0.085-0.191,1.062,0.02,2.929,0.634
			c0.311-0.277,0.63-0.511,0.957-0.695c-0.01-1.628,0.053-2.592,0.186-2.892c0.021-0.048,0.064-0.08,0.129-0.095
			c0.058-0.002,0.321-0.028,0.789-0.079c0.468-0.05,0.912-0.097,1.334-0.14c0.421-0.043,0.644-0.06,0.668-0.049
			c0.096,0.043,0.247,0.444,0.455,1.205c0.209,0.761,0.34,1.304,0.396,1.631c0.25,0.083,0.436,0.15,0.557,0.204
			c0.119,0.053,0.293,0.146,0.523,0.276c0.99-0.58,1.84-1.007,2.551-1.28l0.124,0.012c0.048,0.021,0.605,0.772,1.672,2.252
			c0.032,0.058,0.037,0.11,0.017,0.158c-0.135,0.301-0.809,0.991-2.022,2.075c0.081,0.367,0.122,0.759,0.124,1.177
			C1441.401,799.522,1442.212,800.106,1442.127,800.298z M1445.152,781.081c0.277-0.623,0.289-1.264,0.036-1.923
			c-0.254-0.659-0.691-1.127-1.315-1.404s-1.265-0.289-1.924-0.036c-0.659,0.254-1.127,0.692-1.403,1.315
			c-0.283,0.638-0.3,1.28-0.05,1.93s0.692,1.116,1.329,1.398c0.636,0.282,1.279,0.299,1.928,0.049
			C1444.403,782.16,1444.869,781.718,1445.152,781.081z M1436.959,799.51c0.277-0.623,0.29-1.265,0.037-1.924
			c-0.254-0.658-0.691-1.126-1.315-1.403c-0.624-0.278-1.266-0.289-1.925-0.036c-0.658,0.254-1.126,0.692-1.402,1.315
			c-0.283,0.637-0.3,1.279-0.05,1.929s0.692,1.116,1.329,1.398c0.635,0.283,1.278,0.3,1.928,0.049
			C1436.211,800.589,1436.677,800.145,1436.959,799.51z"/>
		<path opacity="0.4" fill="#FFFFFF" d="M42.109,697.774l-2.242-2.521c-0.081-0.09-0.128-0.207-0.142-0.351
			c-0.012-0.142,0.018-0.255,0.092-0.337l1.821-2.205c-0.183-0.406-0.346-0.882-0.485-1.424c-0.697-0.16-1.57-0.32-2.621-0.477
			c-0.145-0.033-0.257-0.096-0.338-0.187c-0.097-0.11-0.141-0.225-0.135-0.345c-0.033-0.459-0.02-1.198,0.039-2.219
			c0.06-1.022,0.176-1.61,0.349-1.764c0.1-0.088,0.223-0.142,0.37-0.158l2.658-0.168c0.183-0.473,0.408-0.924,0.675-1.355
			c-0.773-1.07-1.296-1.867-1.568-2.391c-0.129-0.275-0.09-0.506,0.118-0.691l2.535-2.256c0.102-0.089,0.221-0.135,0.363-0.14
			c0.144-0.004,0.258,0.034,0.349,0.117l2.168,1.806c0.39-0.185,0.855-0.347,1.397-0.486l0.528-2.644
			c0.008-0.12,0.07-0.233,0.188-0.338c0.1-0.09,0.229-0.138,0.384-0.146c2.382,0.044,3.684,0.188,3.901,0.434
			c0.073,0.082,0.117,0.197,0.135,0.344c0.021,0.209,0.05,0.615,0.083,1.22c0.035,0.604,0.068,1.071,0.1,1.4
			c0.565,0.214,1.055,0.444,1.472,0.693l2.362-1.516c0.099-0.073,0.214-0.098,0.346-0.078c0.132,0.022,0.243,0.082,0.332,0.183
			l2.244,2.52c0.081,0.091,0.127,0.208,0.141,0.351c0.013,0.143-0.017,0.256-0.091,0.337l-1.821,2.207
			c0.184,0.407,0.345,0.881,0.486,1.422c0.697,0.162,1.57,0.321,2.621,0.478c0.152,0.044,0.265,0.105,0.338,0.187
			c0.097,0.11,0.146,0.229,0.147,0.357c0.043,0.45,0.029,1.186-0.04,2.207c-0.067,1.021-0.188,1.607-0.36,1.762
			c-0.101,0.089-0.224,0.142-0.372,0.16l-2.657,0.168c-0.163,0.438-0.384,0.895-0.661,1.369c0.772,1.069,1.291,1.861,1.553,2.377
			c0.13,0.274,0.092,0.504-0.118,0.691l-2.534,2.254c-0.1,0.09-0.222,0.135-0.364,0.141c-0.142,0.005-0.258-0.035-0.348-0.117
			l-2.168-1.805c-0.39,0.183-0.855,0.344-1.397,0.486l-0.529,2.643c-0.017,0.129-0.08,0.241-0.188,0.338
			c-0.1,0.089-0.227,0.139-0.383,0.146c-2.383-0.044-3.683-0.188-3.902-0.435c-0.072-0.081-0.117-0.195-0.135-0.342
			c-0.021-0.244-0.047-0.658-0.083-1.246c-0.035-0.588-0.072-1.042-0.113-1.363c-0.598-0.25-1.083-0.486-1.458-0.706l-2.35,1.53
			c-0.107,0.062-0.227,0.084-0.358,0.062C42.309,697.935,42.198,697.875,42.109,697.774z M45.065,688.505
			c-0.075,1.286,0.316,2.411,1.172,3.374c0.857,0.964,1.93,1.482,3.216,1.558c1.288,0.075,2.413-0.315,3.376-1.173
			c0.962-0.855,1.481-1.93,1.557-3.216c0.074-1.288-0.317-2.413-1.173-3.376c-0.855-0.962-1.929-1.482-3.216-1.557
			c-1.288-0.075-2.413,0.316-3.375,1.174C45.659,686.144,45.14,687.217,45.065,688.505z M39.342,712.224l-1.698-1.907
			c-0.129-0.146,0.422-0.889,1.654-2.229c-0.108-0.343-0.184-0.699-0.221-1.072c-1.377-0.614-2.167-1.035-2.369-1.262
			c-0.032-0.037-0.042-0.085-0.03-0.145c0.535-1.631,0.811-2.454,0.829-2.471c0.074-0.063,0.471-0.036,1.196,0.084
			c0.726,0.12,1.236,0.218,1.533,0.295c0.166-0.179,0.294-0.31,0.384-0.39c0.091-0.082,0.236-0.193,0.433-0.338
			c-0.041-0.304-0.081-0.822-0.115-1.556c-0.034-0.734-0.016-1.134,0.057-1.199c0.019-0.017,0.869-0.194,2.55-0.535
			c0.061-0.006,0.107,0.01,0.14,0.045c0.202,0.229,0.528,1.062,0.978,2.499c0.366,0.082,0.712,0.197,1.039,0.345
			c1.476-1.066,2.278-1.528,2.407-1.383l1.697,1.907c0.129,0.146-0.422,0.888-1.655,2.229c0.117,0.368,0.19,0.726,0.221,1.073
			c1.377,0.613,2.166,1.034,2.368,1.261c0.032,0.036,0.043,0.085,0.031,0.146c-0.021,0.049-0.098,0.281-0.235,0.695
			c-0.136,0.415-0.266,0.807-0.391,1.18c-0.126,0.371-0.197,0.564-0.215,0.581c-0.073,0.064-0.47,0.039-1.191-0.075
			c-0.722-0.116-1.229-0.213-1.527-0.29c-0.165,0.179-0.293,0.31-0.385,0.392c-0.091,0.08-0.235,0.192-0.432,0.337
			c0.109,1.056,0.145,1.937,0.104,2.641l-0.058,0.101c-0.035,0.031-0.881,0.214-2.538,0.549c-0.06,0.005-0.106-0.011-0.139-0.047
			c-0.202-0.228-0.528-1.061-0.978-2.499c-0.34-0.071-0.687-0.187-1.039-0.345C40.274,711.909,39.472,712.371,39.342,712.224z
			 M26.927,698.273l-1.698-1.907c-0.129-0.146,0.423-0.889,1.656-2.229c-0.11-0.344-0.184-0.701-0.223-1.074
			c-1.376-0.613-2.166-1.034-2.368-1.261c-0.033-0.037-0.042-0.085-0.031-0.145c0.535-1.632,0.811-2.454,0.829-2.471
			c0.073-0.064,0.471-0.036,1.196,0.083c0.726,0.12,1.237,0.219,1.533,0.296c0.166-0.18,0.293-0.31,0.384-0.392
			c0.091-0.081,0.236-0.191,0.434-0.337c-0.042-0.304-0.081-0.821-0.116-1.557c-0.034-0.733-0.014-1.134,0.057-1.197
			c0.019-0.017,0.869-0.195,2.55-0.536c0.061-0.005,0.107,0.01,0.14,0.047c0.202,0.227,0.527,1.06,0.978,2.499
			c0.366,0.081,0.712,0.196,1.039,0.344c1.476-1.068,2.277-1.53,2.406-1.384l1.697,1.907c0.129,0.145-0.422,0.889-1.653,2.229
			c0.115,0.367,0.19,0.727,0.221,1.073c1.376,0.614,2.166,1.035,2.368,1.262c0.032,0.036,0.043,0.085,0.03,0.145
			c-0.02,0.05-0.098,0.282-0.234,0.696s-0.267,0.807-0.392,1.179c-0.125,0.371-0.195,0.565-0.214,0.581
			c-0.073,0.065-0.469,0.039-1.19-0.076c-0.722-0.114-1.23-0.211-1.528-0.289c-0.166,0.18-0.293,0.311-0.385,0.393
			c-0.09,0.08-0.234,0.191-0.433,0.336c0.111,1.057,0.146,1.937,0.105,2.641l-0.057,0.101c-0.036,0.031-0.883,0.215-2.539,0.55
			c-0.061,0.005-0.107-0.012-0.14-0.047c-0.202-0.229-0.527-1.061-0.978-2.499c-0.34-0.072-0.687-0.188-1.041-0.345
			C27.859,697.956,27.056,698.418,26.927,698.273z M41.982,708.168c0.419,0.471,0.956,0.726,1.608,0.765
			c0.653,0.038,1.215-0.153,1.687-0.573c0.473-0.421,0.728-0.956,0.766-1.609c0.037-0.652-0.154-1.215-0.574-1.687
			c-0.43-0.482-0.965-0.742-1.609-0.779c-0.643-0.037-1.206,0.157-1.687,0.587c-0.481,0.429-0.741,0.965-0.778,1.607
			C41.358,707.123,41.553,707.686,41.982,708.168z M29.567,694.214c0.419,0.473,0.957,0.729,1.609,0.767
			c0.652,0.037,1.214-0.152,1.686-0.573c0.474-0.42,0.728-0.956,0.767-1.609c0.037-0.652-0.154-1.215-0.574-1.686
			c-0.43-0.481-0.965-0.742-1.608-0.779c-0.644-0.037-1.207,0.157-1.688,0.587c-0.482,0.428-0.742,0.964-0.778,1.607
			C28.943,693.171,29.138,693.733,29.567,694.214z"/>
		<path opacity="0.4" fill="#FFFFFF" d="M1445.44,44.926l-3.67-4.126c-0.133-0.147-0.211-0.339-0.232-0.573
			c-0.021-0.232,0.028-0.418,0.15-0.552l2.979-3.609c-0.299-0.665-0.565-1.443-0.794-2.331c-1.141-0.262-2.57-0.523-4.29-0.779
			c-0.237-0.055-0.421-0.156-0.554-0.305c-0.158-0.182-0.229-0.368-0.221-0.564c-0.054-0.752-0.033-1.961,0.063-3.632
			c0.099-1.673,0.288-2.636,0.571-2.887c0.164-0.144,0.365-0.231,0.605-0.259l4.351-0.275c0.3-0.773,0.667-1.512,1.104-2.219
			c-1.266-1.751-2.121-3.056-2.566-3.912c-0.211-0.451-0.147-0.828,0.193-1.132l4.148-3.692c0.166-0.145,0.362-0.221,0.596-0.229
			c0.234-0.006,0.422,0.057,0.57,0.191l3.549,2.956c0.639-0.302,1.4-0.567,2.287-0.796l0.865-4.326
			c0.012-0.197,0.115-0.383,0.307-0.554c0.164-0.147,0.375-0.226,0.629-0.238c3.898,0.071,6.029,0.309,6.387,0.71
			c0.119,0.135,0.191,0.322,0.221,0.562c0.034,0.342,0.082,1.007,0.135,1.996c0.059,0.99,0.112,1.754,0.164,2.292
			c0.924,0.351,1.727,0.728,2.408,1.136l3.866-2.481c0.161-0.12,0.351-0.159,0.567-0.128c0.216,0.037,0.396,0.135,0.542,0.299
			l3.673,4.124c0.132,0.148,0.207,0.341,0.229,0.573c0.021,0.234-0.028,0.42-0.148,0.553l-2.981,3.611
			c0.301,0.667,0.565,1.441,0.795,2.328c1.141,0.265,2.57,0.525,4.291,0.781c0.249,0.072,0.433,0.172,0.553,0.305
			c0.158,0.181,0.238,0.375,0.241,0.586c0.07,0.736,0.048,1.939-0.065,3.611c-0.109,1.672-0.307,2.631-0.588,2.884
			c-0.165,0.146-0.367,0.231-0.609,0.263l-4.35,0.274c-0.266,0.716-0.629,1.464-1.082,2.241c1.265,1.75,2.113,3.046,2.543,3.891
			c0.213,0.449,0.15,0.824-0.193,1.131l-4.146,3.689c-0.163,0.146-0.363,0.221-0.596,0.23c-0.232,0.008-0.424-0.059-0.57-0.192
			l-3.549-2.954c-0.639,0.299-1.4,0.562-2.287,0.797l-0.865,4.324c-0.027,0.211-0.131,0.395-0.308,0.553
			c-0.163,0.146-0.372,0.228-0.626,0.238c-3.901-0.071-6.029-0.309-6.388-0.711c-0.118-0.133-0.192-0.319-0.221-0.559
			c-0.034-0.4-0.077-1.078-0.136-2.04c-0.057-0.962-0.118-1.706-0.186-2.231c-0.979-0.409-1.773-0.796-2.385-1.156l-3.848,2.506
			c-0.174,0.102-0.371,0.137-0.586,0.102C1445.767,45.189,1445.584,45.09,1445.44,44.926z M1450.279,29.754
			c-0.122,2.104,0.518,3.945,1.919,5.521c1.402,1.578,3.158,2.427,5.264,2.55c2.108,0.123,3.949-0.517,5.525-1.919
			c1.576-1.4,2.426-3.159,2.549-5.264c0.121-2.108-0.519-3.949-1.92-5.525c-1.4-1.574-3.158-2.427-5.264-2.549
			c-2.108-0.123-3.949,0.519-5.525,1.922C1451.251,25.89,1450.402,27.645,1450.279,29.754z M1440.911,68.576l-2.778-3.121
			c-0.213-0.238,0.691-1.455,2.707-3.649c-0.177-0.562-0.301-1.145-0.361-1.755c-2.254-1.006-3.546-1.694-3.877-2.065
			c-0.053-0.061-0.068-0.14-0.049-0.236c0.875-2.669,1.326-4.017,1.355-4.044c0.121-0.104,0.771-0.059,1.959,0.137
			c1.188,0.197,2.021,0.357,2.509,0.483c0.271-0.292,0.481-0.507,0.628-0.638c0.149-0.135,0.387-0.316,0.709-0.553
			c-0.066-0.498-0.133-1.346-0.188-2.547s-0.025-1.855,0.093-1.963c0.03-0.027,1.422-0.318,4.174-0.875
			c0.1-0.01,0.176,0.016,0.229,0.073c0.331,0.376,0.865,1.737,1.602,4.09c0.598,0.134,1.166,0.323,1.7,0.564
			c2.415-1.745,3.728-2.501,3.94-2.263l2.777,3.121c0.211,0.238-0.691,1.453-2.709,3.647c0.191,0.603,0.311,1.188,0.361,1.757
			c2.254,1.004,3.546,1.692,3.877,2.062c0.053,0.06,0.07,0.14,0.051,0.238c-0.033,0.08-0.16,0.461-0.385,1.139
			c-0.223,0.68-0.435,1.32-0.64,1.931c-0.206,0.607-0.323,0.924-0.353,0.951c-0.118,0.105-0.77,0.063-1.949-0.123
			c-1.181-0.19-2.012-0.349-2.498-0.476c-0.27,0.293-0.48,0.508-0.63,0.642c-0.149,0.131-0.385,0.315-0.708,0.552
			c0.18,1.728,0.238,3.17,0.17,4.322l-0.096,0.164c-0.057,0.051-1.441,0.35-4.153,0.898c-0.099,0.008-0.175-0.018-0.228-0.077
			c-0.33-0.372-0.864-1.735-1.601-4.09c-0.556-0.116-1.124-0.306-1.7-0.564C1442.436,68.06,1441.123,68.816,1440.911,68.576z
			 M1420.591,45.742l-2.778-3.121c-0.212-0.238,0.691-1.455,2.71-3.648c-0.181-0.562-0.301-1.147-0.365-1.758
			c-2.253-1.004-3.544-1.693-3.876-2.063c-0.053-0.062-0.067-0.14-0.05-0.237c0.875-2.67,1.327-4.016,1.356-4.043
			c0.121-0.105,0.771-0.06,1.959,0.136c1.188,0.196,2.023,0.358,2.51,0.484c0.27-0.294,0.479-0.507,0.627-0.642
			c0.15-0.133,0.387-0.312,0.71-0.551c-0.069-0.498-0.132-1.344-0.19-2.548c-0.055-1.2-0.022-1.856,0.094-1.96
			c0.031-0.027,1.422-0.319,4.174-0.877c0.1-0.008,0.176,0.016,0.23,0.076c0.33,0.371,0.862,1.734,1.6,4.09
			c0.6,0.133,1.166,0.322,1.7,0.562c2.415-1.748,3.727-2.504,3.938-2.264l2.777,3.121c0.212,0.236-0.689,1.455-2.705,3.647
			c0.188,0.601,0.311,1.188,0.361,1.757c2.252,1.005,3.545,1.693,3.877,2.064c0.053,0.06,0.07,0.14,0.049,0.236
			c-0.033,0.082-0.161,0.463-0.385,1.141c-0.223,0.678-0.436,1.32-0.641,1.929c-0.204,0.607-0.319,0.926-0.351,0.951
			c-0.119,0.106-0.769,0.063-1.948-0.124c-1.182-0.188-2.014-0.346-2.5-0.474c-0.271,0.294-0.479,0.509-0.63,0.643
			c-0.147,0.131-0.384,0.313-0.708,0.55c0.181,1.729,0.238,3.17,0.171,4.322l-0.093,0.164c-0.06,0.051-1.445,0.352-4.155,0.9
			c-0.101,0.008-0.176-0.02-0.229-0.077c-0.33-0.374-0.862-1.735-1.601-4.091c-0.557-0.117-1.124-0.307-1.703-0.563
			C1422.115,45.222,1420.803,45.978,1420.591,45.742z M1445.233,61.936c0.687,0.771,1.564,1.188,2.633,1.251
			c1.068,0.062,1.988-0.25,2.761-0.938c0.773-0.689,1.19-1.564,1.254-2.635c0.061-1.067-0.252-1.988-0.938-2.76
			c-0.705-0.789-1.58-1.215-2.635-1.275c-1.052-0.061-1.973,0.258-2.762,0.961c-0.787,0.701-1.212,1.578-1.272,2.631
			C1444.211,60.226,1444.53,61.148,1445.233,61.936z M1424.912,39.097c0.686,0.773,1.564,1.192,2.633,1.254
			c1.066,0.062,1.986-0.248,2.76-0.938c0.775-0.688,1.191-1.564,1.254-2.635c0.061-1.066-0.252-1.988-0.938-2.758
			c-0.704-0.788-1.58-1.215-2.632-1.275c-1.053-0.061-1.975,0.257-2.762,0.961c-0.789,0.699-1.215,1.576-1.273,2.631
			C1423.891,37.39,1424.211,38.31,1424.912,39.097z"/>
		<path opacity="0.4" fill="#FFFFFF" d="M540.427,765.007l-0.96,2.159c-0.034,0.077-0.095,0.142-0.183,0.191
			s-0.168,0.063-0.242,0.04l-1.934-0.525c-0.207,0.234-0.462,0.476-0.768,0.722c0.099,0.491,0.25,1.095,0.454,1.81
			c0.02,0.103,0.012,0.192-0.022,0.27c-0.042,0.094-0.103,0.155-0.181,0.187c-0.282,0.153-0.758,0.359-1.427,0.616
			c-0.669,0.258-1.078,0.354-1.226,0.287c-0.085-0.038-0.155-0.102-0.208-0.19l-0.875-1.647c-0.354,0.02-0.707,0.007-1.06-0.039
			c-0.459,0.803-0.817,1.367-1.073,1.691c-0.138,0.163-0.296,0.204-0.475,0.125l-2.171-0.966c-0.086-0.038-0.15-0.102-0.195-0.191
			c-0.043-0.09-0.052-0.175-0.026-0.257l0.525-1.904c-0.23-0.195-0.468-0.446-0.714-0.752l-1.839,0.428
			c-0.079,0.029-0.168,0.022-0.27-0.022c-0.086-0.038-0.154-0.105-0.204-0.202c-0.66-1.533-0.944-2.406-0.851-2.615
			c0.031-0.07,0.092-0.132,0.181-0.186c0.126-0.074,0.377-0.21,0.754-0.406c0.376-0.197,0.664-0.353,0.865-0.468
			c-0.027-0.423-0.021-0.802,0.017-1.14l-1.65-1.068c-0.075-0.043-0.124-0.109-0.149-0.199c-0.025-0.091-0.019-0.179,0.02-0.264
			l0.959-2.16c0.035-0.078,0.096-0.142,0.183-0.191c0.087-0.049,0.168-0.062,0.241-0.039l1.935,0.523
			c0.207-0.234,0.462-0.475,0.768-0.721c-0.099-0.491-0.25-1.095-0.454-1.81c-0.016-0.11-0.009-0.2,0.022-0.271
			c0.042-0.094,0.104-0.158,0.185-0.196c0.275-0.158,0.749-0.362,1.419-0.613c0.671-0.253,1.08-0.345,1.229-0.279
			c0.085,0.038,0.155,0.102,0.209,0.19l0.875,1.646c0.326-0.021,0.682-0.013,1.064,0.027c0.46-0.803,0.815-1.362,1.068-1.678
			c0.138-0.163,0.295-0.205,0.475-0.125l2.171,0.965c0.085,0.037,0.15,0.103,0.195,0.191c0.044,0.09,0.052,0.175,0.026,0.256
			l-0.525,1.906c0.229,0.195,0.468,0.445,0.715,0.75l1.839-0.426c0.087-0.027,0.177-0.02,0.27,0.021
			c0.085,0.038,0.154,0.105,0.203,0.202c0.662,1.534,0.945,2.405,0.852,2.616c-0.031,0.069-0.091,0.131-0.18,0.185
			c-0.15,0.084-0.406,0.221-0.771,0.413c-0.365,0.192-0.644,0.348-0.836,0.467c0.013,0.453,0.002,0.831-0.029,1.134l1.656,1.058
			c0.07,0.05,0.119,0.12,0.144,0.211C540.471,764.833,540.464,764.921,540.427,765.007z M533.657,765.8
			c0.842-0.324,1.447-0.898,1.814-1.724c0.367-0.825,0.388-1.659,0.064-2.502c-0.325-0.844-0.899-1.448-1.724-1.815
			s-1.66-0.388-2.502-0.064c-0.843,0.325-1.448,0.9-1.814,1.725c-0.367,0.824-0.389,1.659-0.064,2.502
			c0.325,0.844,0.9,1.448,1.725,1.814C531.979,766.102,532.813,766.124,533.657,765.8z M550.446,762.595l-0.726,1.635
			c-0.056,0.124-0.689-0.013-1.901-0.411c-0.188,0.168-0.394,0.318-0.621,0.451c0.006,1.056-0.034,1.681-0.12,1.875
			c-0.014,0.031-0.042,0.052-0.083,0.061c-1.196,0.131-1.801,0.193-1.816,0.187c-0.062-0.028-0.16-0.29-0.293-0.788
			c-0.133-0.497-0.218-0.852-0.254-1.063c-0.162-0.054-0.283-0.099-0.36-0.132c-0.079-0.035-0.191-0.095-0.34-0.179
			c-0.182,0.114-0.501,0.289-0.959,0.522c-0.459,0.234-0.719,0.338-0.781,0.311c-0.016-0.007-0.375-0.498-1.079-1.472
			c-0.021-0.038-0.024-0.071-0.011-0.103c0.087-0.195,0.525-0.645,1.312-1.347c-0.054-0.257-0.081-0.511-0.081-0.763
			c-1.107-0.633-1.634-1.011-1.579-1.136l0.727-1.635c0.055-0.124,0.688,0.013,1.9,0.412c0.201-0.181,0.408-0.331,0.621-0.451
			c-0.006-1.056,0.034-1.681,0.12-1.876c0.014-0.031,0.042-0.052,0.083-0.061c0.038-0.002,0.208-0.02,0.512-0.052
			c0.304-0.033,0.591-0.063,0.865-0.091s0.417-0.038,0.433-0.031c0.062,0.027,0.161,0.288,0.296,0.781
			c0.135,0.494,0.22,0.846,0.257,1.059c0.162,0.053,0.282,0.098,0.361,0.132c0.078,0.035,0.191,0.095,0.34,0.179
			c0.642-0.376,1.194-0.652,1.655-0.83l0.081,0.009c0.03,0.013,0.392,0.5,1.084,1.46c0.02,0.037,0.023,0.071,0.01,0.103
			c-0.087,0.194-0.525,0.644-1.312,1.347c0.053,0.238,0.08,0.492,0.081,0.762C549.975,762.093,550.501,762.47,550.446,762.595z
			 M545.132,774.55l-0.726,1.635c-0.056,0.125-0.689-0.013-1.9-0.412c-0.188,0.169-0.394,0.319-0.621,0.452
			c0.006,1.056-0.034,1.681-0.12,1.875c-0.014,0.032-0.042,0.052-0.083,0.062c-1.195,0.131-1.8,0.192-1.816,0.186
			c-0.062-0.028-0.16-0.291-0.292-0.788c-0.133-0.497-0.218-0.852-0.255-1.063c-0.162-0.054-0.282-0.098-0.36-0.132
			s-0.19-0.095-0.34-0.179c-0.181,0.114-0.501,0.289-0.959,0.523c-0.458,0.234-0.719,0.337-0.781,0.31
			c-0.016-0.007-0.375-0.497-1.079-1.472c-0.021-0.037-0.025-0.072-0.011-0.103c0.087-0.194,0.525-0.644,1.312-1.347
			c-0.054-0.257-0.081-0.511-0.081-0.763c-1.108-0.633-1.634-1.011-1.579-1.135l0.727-1.635c0.055-0.124,0.688,0.013,1.9,0.411
			c0.201-0.18,0.409-0.331,0.621-0.451c-0.006-1.056,0.034-1.682,0.12-1.876c0.014-0.03,0.042-0.052,0.084-0.062
			c0.037-0.001,0.208-0.018,0.512-0.051c0.304-0.032,0.592-0.062,0.865-0.091s0.417-0.038,0.434-0.031
			c0.062,0.027,0.16,0.288,0.295,0.781c0.136,0.493,0.221,0.846,0.257,1.058c0.162,0.055,0.283,0.098,0.361,0.133
			c0.077,0.034,0.19,0.095,0.339,0.18c0.643-0.377,1.193-0.653,1.655-0.831l0.081,0.008c0.031,0.014,0.393,0.501,1.084,1.461
			c0.021,0.037,0.024,0.071,0.011,0.103c-0.087,0.195-0.524,0.643-1.312,1.346c0.053,0.238,0.079,0.492,0.081,0.764
			C544.66,774.047,545.187,774.426,545.132,774.55z M547.094,762.084c0.18-0.404,0.188-0.819,0.023-1.247
			c-0.165-0.428-0.449-0.731-0.854-0.911c-0.405-0.181-0.82-0.188-1.248-0.023c-0.427,0.165-0.731,0.449-0.91,0.853
			c-0.184,0.414-0.194,0.831-0.032,1.252c0.162,0.422,0.449,0.725,0.862,0.907c0.412,0.184,0.83,0.194,1.25,0.032
			C546.608,762.784,546.911,762.497,547.094,762.084z M541.78,774.038c0.18-0.404,0.188-0.82,0.024-1.248
			c-0.165-0.427-0.448-0.73-0.853-0.91s-0.821-0.188-1.249-0.023c-0.427,0.165-0.73,0.449-0.909,0.854
			c-0.184,0.413-0.195,0.83-0.033,1.251c0.162,0.422,0.449,0.725,0.862,0.907c0.412,0.184,0.829,0.195,1.25,0.032
			C541.294,774.738,541.596,774.451,541.78,774.038z"/>
		<path opacity="0.4" fill="#FFFFFF" d="M1377.372,801.716c-0.294,0.549-0.938,0.973-1.937,1.272l-20.69,5.931l-6.847,20.424
			c-0.067,0.186-0.188,0.442-0.362,0.767c-0.671,1.246-1.52,1.595-2.541,1.045c-0.473-0.255-0.891-0.673-1.253-1.254l-12.038-17.856
			l-21.533-0.209c-0.71,0.004-1.288-0.113-1.736-0.354c-0.524-0.282-0.818-0.675-0.887-1.177c-0.067-0.502,0.041-1.016,0.322-1.539
			c0.081-0.149,0.239-0.386,0.477-0.706l13.275-16.964l-6.487-20.556c-0.263-1.008-0.251-1.773,0.031-2.298
			c0.495-0.921,1.502-1.12,3.019-0.594l20.235,7.371l17.564-12.484c1.023-0.767,1.909-0.949,2.656-0.547
			c0.748,0.402,1.084,1.242,1.007,2.519l-0.741,21.536l17.299,12.828C1377.48,799.845,1377.868,800.795,1377.372,801.716z
			 M1350.49,804.46l17.415-4.945l-14.53-10.809l0.62-18.084l-14.751,10.479l-17.022-6.17l5.465,17.258l-11.199,14.27l18.135,0.166
			l10.092,15.022L1350.49,804.46z"/>
		<path opacity="0.4" fill="#FFFFFF" d="M127.044,703.309c-0.137,0.254-0.435,0.45-0.896,0.589l-9.577,2.746l-3.17,9.453
			c-0.031,0.085-0.087,0.205-0.167,0.355c-0.311,0.576-0.704,0.736-1.177,0.482c-0.218-0.116-0.412-0.311-0.58-0.58l-5.572-8.265
			l-9.968-0.098c-0.329,0.001-0.596-0.053-0.804-0.163c-0.242-0.131-0.378-0.312-0.41-0.545c-0.031-0.234,0.019-0.471,0.15-0.713
			c0.037-0.07,0.11-0.178,0.22-0.326l6.145-7.853l-3.002-9.515c-0.122-0.467-0.116-0.822,0.015-1.064
			c0.229-0.427,0.695-0.52,1.397-0.275l9.366,3.412l8.13-5.779c0.474-0.354,0.884-0.439,1.23-0.252
			c0.346,0.186,0.501,0.575,0.466,1.165l-0.343,9.97l8.008,5.938C127.094,702.443,127.273,702.883,127.044,703.309z M114.6,704.58
			l8.062-2.29l-6.727-5.003l0.288-8.371l-6.829,4.852l-7.879-2.855l2.529,7.988l-5.184,6.605l8.395,0.076l4.672,6.953L114.6,704.58z
			"/>
		<path opacity="0.4" fill="#FFFFFF" d="M49.789,774.245l-17.575,44.799c-0.711,1.812-1.964,3.109-3.761,3.895
			c-1.797,0.782-3.6,0.82-5.412,0.108l-60.609-23.778c-1.812-0.711-3.109-1.965-3.895-3.761c-0.783-1.796-0.82-3.601-0.108-5.411
			l17.575-44.799c0.711-1.813,1.963-3.109,3.76-3.893c1.797-0.785,3.602-0.824,5.412-0.112l60.611,23.778
			c1.811,0.711,3.107,1.965,3.892,3.763C50.463,770.63,50.5,772.432,49.789,774.245z M43.921,773.701
			c0.022-0.055,0.081-0.207,0.178-0.454c0.097-0.246,0.17-0.432,0.218-0.557c0.049-0.121,0.111-0.303,0.19-0.542
			c0.076-0.24,0.103-0.427,0.078-0.562c-0.025-0.136-0.053-0.29-0.081-0.459c-0.029-0.171-0.112-0.323-0.249-0.454
			c-0.138-0.134-0.317-0.246-0.536-0.331l-60.611-23.777c-0.357-0.142-0.716-0.133-1.078,0.027
			c-0.364,0.159-0.615,0.419-0.756,0.772c-1.809,4.611-1.32,9.303,1.465,14.07c3.661,6.249,7.458,12.758,11.391,19.53
			c0.112,0.201,0.432,0.794,0.965,1.779c0.532,0.985,0.963,1.749,1.289,2.287c0.326,0.539,0.768,1.21,1.323,2.016
			c0.555,0.804,1.101,1.453,1.634,1.948c0.535,0.494,1.077,0.848,1.626,1.063l0.042,0.017l0.041,0.016
			c0.549,0.216,1.187,0.325,1.915,0.327c0.729,0,1.57-0.105,2.524-0.319c0.953-0.211,1.733-0.405,2.341-0.579
			c0.606-0.172,1.438-0.438,2.5-0.8c1.06-0.359,1.698-0.577,1.917-0.647c7.487-2.291,14.697-4.481,21.633-6.576
			c1.944-0.599,3.945-1.642,6.003-3.131C41.94,776.874,43.285,775.321,43.921,773.701z M26.944,816.975l12.406-31.623
			c-1.266,0.643-2.568,1.178-3.906,1.604c-9.576,2.771-17.243,5.116-23.002,7.035c-1.863,0.633-3.363,1.104-4.5,1.419
			c-1.137,0.313-2.585,0.513-4.344,0.599c-1.762,0.087-3.299-0.131-4.617-0.646l-0.041-0.016l-0.041-0.017
			c-1.318-0.517-2.594-1.404-3.824-2.665c-1.232-1.261-2.159-2.391-2.779-3.394c-0.62-1.004-1.398-2.369-2.335-4.101
			c-2.916-5.322-6.943-12.257-12.08-20.798c-0.694-1.221-1.284-2.5-1.774-3.833l-12.406,31.623
			c-0.141,0.357-0.133,0.718,0.027,1.079c0.158,0.364,0.416,0.617,0.773,0.757l60.609,23.776c0.356,0.14,0.717,0.131,1.079-0.027
			C26.551,817.591,26.804,817.333,26.944,816.975z"/>
		<path opacity="0.4" fill="#FFFFFF" d="M13.97,142.807l12.121,30.123c0.49,1.219,0.477,2.436-0.041,3.654
			c-0.52,1.215-1.387,2.07-2.605,2.561l-40.756,16.398c-1.219,0.49-2.436,0.476-3.653-0.043c-1.216-0.52-2.069-1.387-2.558-2.604
			l-12.123-30.123c-0.491-1.222-0.477-2.437,0.043-3.652c0.518-1.217,1.385-2.072,2.604-2.562L7.758,140.16
			c1.218-0.491,2.435-0.475,3.652,0.044C12.627,140.723,13.48,141.589,13.97,142.807z M10.838,145.26
			c-0.014-0.039-0.056-0.141-0.122-0.307c-0.067-0.166-0.116-0.29-0.151-0.374c-0.032-0.082-0.085-0.2-0.157-0.354
			c-0.073-0.153-0.147-0.258-0.222-0.312c-0.076-0.056-0.161-0.118-0.254-0.188c-0.092-0.069-0.204-0.107-0.332-0.107
			c-0.129-0.002-0.27,0.027-0.416,0.087l-40.754,16.398c-0.242,0.097-0.414,0.267-0.518,0.514c-0.105,0.247-0.108,0.491-0.014,0.729
			c1.248,3.102,3.66,5.177,7.236,6.226c4.689,1.373,9.566,2.808,14.633,4.311c0.148,0.047,0.58,0.19,1.298,0.428
			s1.282,0.41,1.691,0.524c0.409,0.113,0.937,0.239,1.583,0.376c0.645,0.137,1.213,0.204,1.704,0.199s0.921-0.083,1.29-0.231
			l0.028-0.012l0.028-0.011c0.369-0.147,0.732-0.391,1.092-0.726c0.356-0.336,0.721-0.778,1.09-1.325
			c0.369-0.546,0.663-1.002,0.881-1.369c0.217-0.364,0.502-0.88,0.856-1.551c0.353-0.666,0.566-1.07,0.642-1.204
			c2.612-4.593,5.136-9.006,7.569-13.247c0.677-1.192,1.177-2.633,1.496-4.316S11.277,146.347,10.838,145.26z M22.548,174.356
			l-8.558-21.264c-0.322,0.902-0.715,1.768-1.174,2.597c-3.416,5.795-6.092,10.496-8.029,14.104c-0.621,1.174-1.14,2.1-1.551,2.78
			c-0.413,0.681-1.031,1.449-1.855,2.306c-0.824,0.858-1.68,1.464-2.564,1.821l-0.027,0.01l-0.028,0.013
			c-0.886,0.356-1.923,0.511-3.11,0.462c-1.188-0.048-2.166-0.173-2.936-0.379c-0.77-0.205-1.783-0.515-3.045-0.931
			c-3.896-1.261-9.084-2.798-15.561-4.611c-0.904-0.277-1.787-0.633-2.645-1.058l8.557,21.263c0.096,0.24,0.268,0.413,0.513,0.517
			c0.247,0.106,0.49,0.11,0.729,0.014l40.754-16.4c0.24-0.096,0.412-0.267,0.518-0.513S22.644,174.597,22.548,174.356z"/>
		<path opacity="0.4" fill="#FFFFFF" d="M1463.831,673.829l11.034,34.812c0.446,1.407,0.327,2.771-0.356,4.092
			c-0.686,1.319-1.731,2.203-3.14,2.649l-47.098,14.93c-1.408,0.446-2.771,0.326-4.092-0.357c-1.319-0.685-2.203-1.732-2.648-3.14
			l-11.036-34.81c-0.447-1.408-0.327-2.771,0.358-4.092c0.685-1.32,1.729-2.205,3.138-2.652l47.097-14.929
			c1.409-0.447,2.771-0.326,4.093,0.359C1462.5,671.376,1463.384,672.421,1463.831,673.829z M1460.112,676.311
			c-0.015-0.042-0.053-0.161-0.113-0.353c-0.06-0.191-0.105-0.336-0.137-0.433c-0.03-0.094-0.079-0.231-0.146-0.41
			c-0.07-0.179-0.144-0.3-0.224-0.369c-0.079-0.068-0.169-0.146-0.267-0.231c-0.098-0.088-0.221-0.138-0.363-0.149
			c-0.146-0.013-0.306,0.007-0.475,0.062l-47.097,14.931c-0.278,0.087-0.486,0.264-0.624,0.531
			c-0.139,0.268-0.162,0.541-0.075,0.816c1.135,3.584,3.665,6.115,7.585,7.597c5.143,1.937,10.49,3.961,16.044,6.075
			c0.163,0.064,0.634,0.263,1.419,0.588c0.785,0.327,1.402,0.572,1.854,0.733c0.449,0.162,1.028,0.348,1.742,0.557
			c0.711,0.209,1.344,0.331,1.895,0.368c0.55,0.036,1.039-0.014,1.466-0.149l0.032-0.01l0.033-0.012
			c0.426-0.134,0.854-0.375,1.285-0.722c0.429-0.348,0.875-0.812,1.335-1.393c0.461-0.58,0.829-1.067,1.104-1.46
			c0.274-0.391,0.639-0.946,1.092-1.666c0.453-0.718,0.727-1.151,0.822-1.298c3.319-4.928,6.524-9.662,9.612-14.21
			c0.862-1.282,1.545-2.854,2.046-4.715C1460.458,679.128,1460.51,677.57,1460.112,676.311z M1470.771,709.938l-7.79-24.572
			c-0.44,0.982-0.953,1.921-1.538,2.812c-4.322,6.207-7.724,11.252-10.202,15.134c-0.796,1.264-1.456,2.258-1.976,2.986
			c-0.521,0.728-1.28,1.537-2.275,2.428c-0.998,0.894-2.009,1.5-3.03,1.824l-0.033,0.011l-0.031,0.011
			c-1.023,0.324-2.201,0.41-3.529,0.254c-1.328-0.154-2.414-0.377-3.259-0.674c-0.845-0.295-1.956-0.728-3.336-1.302
			c-4.261-1.745-9.948-3.911-17.057-6.493c-0.993-0.39-1.952-0.861-2.878-1.412l7.79,24.572c0.087,0.277,0.266,0.486,0.531,0.622
			c0.267,0.141,0.54,0.166,0.817,0.078l47.096-14.932c0.276-0.087,0.485-0.264,0.623-0.531
			C1470.832,710.487,1470.859,710.215,1470.771,709.938z"/>
		<path opacity="0.4" fill="#FFFFFF" d="M350.686,805.541c0.227,5.5-0.978,10.736-3.611,15.711
			c-2.635,4.975-6.288,8.911-10.965,11.815c-4.676,2.903-9.763,4.469-15.261,4.697c-5.5,0.225-10.737-0.979-15.709-3.612
			c-4.976-2.635-8.915-6.289-11.817-10.965c-2.904-4.676-4.469-9.764-4.695-15.265c-0.228-5.497,0.977-10.733,3.611-15.708
			s6.287-8.912,10.964-11.817c4.676-2.901,9.765-4.466,15.263-4.693c5.498-0.228,10.733,0.976,15.709,3.61
			c4.975,2.634,8.913,6.289,11.817,10.966C348.892,794.955,350.458,800.043,350.686,805.541z M335.987,826.74
			c2.707-2.177,4.88-4.813,6.52-7.908c1.636-3.094,2.596-6.371,2.875-9.836c0.28-3.463-0.06-6.752-1.016-9.865
			c-0.958-3.111-2.525-6.021-4.702-8.729c-2.179-2.706-4.814-4.881-7.909-6.521c-3.094-1.638-6.373-2.595-9.835-2.876
			c-3.462-0.277-6.751,0.06-9.864,1.018c-3.111,0.958-6.022,2.525-8.729,4.703c-2.708,2.179-4.879,4.815-6.52,7.908
			c-1.637,3.096-2.597,6.373-2.876,9.836c-0.28,3.463,0.06,6.752,1.017,9.863c0.959,3.113,2.526,6.023,4.704,8.73
			c2.176,2.708,4.813,4.879,7.906,6.518c3.094,1.639,6.373,2.598,9.836,2.875c3.462,0.283,6.751-0.055,9.865-1.016
			C330.369,830.484,333.28,828.916,335.987,826.74z M320.299,791.233c0.419,1.367,0.296,2.681-0.372,3.938
			c-0.668,1.264-1.685,2.104-3.05,2.523c-1.364,0.42-2.677,0.295-3.939-0.371c-1.261-0.668-2.103-1.684-2.523-3.051
			c-0.419-1.365-0.295-2.679,0.372-3.938c0.669-1.264,1.687-2.104,3.051-2.523c1.365-0.42,2.677-0.296,3.94,0.372
			C319.037,788.852,319.879,789.869,320.299,791.233z M329.342,820.042c-2.407,2.415-5.28,3.866-8.616,4.354
			c-3.336,0.488-6.516-0.066-9.538-1.67c-3.023-1.6-5.271-3.918-6.74-6.953c-1.471-3.031-1.887-6.221-1.24-9.569
			c0.123-0.694,0.476-1.247,1.058-1.656c0.581-0.405,1.232-0.542,1.953-0.405c0.695,0.124,1.246,0.477,1.656,1.061
			c0.408,0.58,0.543,1.232,0.405,1.95c-0.412,2.22-0.127,4.347,0.854,6.373c0.985,2.028,2.475,3.572,4.474,4.632
			c2,1.058,4.115,1.423,6.346,1.098c2.232-0.329,4.147-1.287,5.749-2.877c0.52-0.516,1.139-0.768,1.862-0.752
			c0.722,0.017,1.332,0.279,1.826,0.785c0.493,0.506,0.735,1.113,0.726,1.824C330.103,818.945,329.844,819.55,329.342,820.042z
			 M338.578,800.914c0.42,1.363,0.295,2.677-0.372,3.939c-0.667,1.26-1.684,2.102-3.049,2.521c-1.366,0.421-2.68,0.298-3.941-0.37
			c-1.262-0.668-2.102-1.686-2.522-3.051c-0.419-1.364-0.296-2.679,0.374-3.94c0.666-1.26,1.684-2.103,3.049-2.521
			c1.364-0.421,2.679-0.296,3.94,0.372C337.317,798.529,338.156,799.548,338.578,800.914z"/>
		<path opacity="0.4" fill="#FFFFFF" d="M1390.931,108.089c3.868,2.638,6.831,6.121,8.889,10.447
			c2.058,4.325,2.888,8.822,2.495,13.488c-0.396,4.667-1.912,8.936-4.553,12.805c-2.639,3.868-6.121,6.833-10.446,8.89
			c-4.325,2.058-8.823,2.888-13.489,2.494c-4.666-0.395-8.936-1.912-12.804-4.551s-6.831-6.122-8.889-10.447
			c-2.058-4.326-2.888-8.822-2.495-13.488c0.395-4.667,1.911-8.936,4.549-12.805c2.641-3.868,6.123-6.832,10.448-8.89
			s8.823-2.888,13.489-2.494C1382.791,103.932,1387.061,105.449,1390.931,108.089z M1394.631,131.396
			c0.278-3.306-0.309-6.489-1.767-9.553c-1.456-3.062-3.556-5.529-6.296-7.399c-2.741-1.866-5.766-2.94-9.07-3.222
			c-3.307-0.281-6.49,0.307-9.555,1.764c-3.062,1.457-5.529,3.557-7.396,6.298c-1.871,2.741-2.943,5.765-3.225,9.069
			c-0.28,3.307,0.308,6.492,1.765,9.555c1.456,3.063,3.556,5.527,6.298,7.397c2.741,1.868,5.764,2.944,9.071,3.222
			c3.304,0.281,6.489-0.307,9.552-1.764c3.064-1.456,5.529-3.556,7.397-6.297C1393.274,137.726,1394.35,134.703,1394.631,131.396z
			 M1374.752,117.057l6.615,13.909c0.137,0.289,0.157,0.572,0.061,0.846c-0.097,0.275-0.292,0.482-0.582,0.619l-9.935,4.725
			c-0.289,0.138-0.571,0.158-0.847,0.061s-0.48-0.291-0.619-0.58l-0.944-1.988c-0.138-0.289-0.158-0.572-0.06-0.847
			c0.097-0.274,0.291-0.481,0.581-0.618l6.953-3.309l-5.197-10.928c-0.138-0.29-0.157-0.573-0.06-0.847
			c0.098-0.274,0.291-0.481,0.582-0.62l1.984-0.944c0.291-0.138,0.574-0.159,0.849-0.06
			C1374.407,116.574,1374.615,116.767,1374.752,117.057z"/>
		<path opacity="0.4" fill="#FFFFFF" d="M48.988,230.285l-0.812,2.821c-0.108,0.381-0.344,0.671-0.703,0.869
			c-0.359,0.199-0.729,0.243-1.111,0.134l-3.148-0.906c-1.224,2.207-2.947,3.925-5.168,5.155c-2.222,1.23-4.594,1.776-7.113,1.64
			l-0.906,3.148c-0.109,0.383-0.344,0.674-0.704,0.87c-0.359,0.199-0.729,0.244-1.11,0.135l-2.819-0.811
			c-0.382-0.111-0.673-0.346-0.871-0.705c-0.199-0.358-0.244-0.729-0.133-1.111l0.906-3.149c-2.209-1.223-3.927-2.944-5.156-5.166
			c-1.229-2.223-1.775-4.594-1.639-7.114l-3.147-0.905c-0.385-0.11-0.674-0.344-0.873-0.703c-0.198-0.359-0.243-0.729-0.132-1.111
			l0.81-2.82c0.108-0.381,0.344-0.671,0.705-0.871c0.357-0.198,0.728-0.242,1.11-0.134l3.149,0.906
			c1.223-2.207,2.945-3.926,5.166-5.155c2.222-1.228,4.594-1.774,7.113-1.639l0.906-3.149c0.109-0.381,0.344-0.672,0.704-0.87
			c0.359-0.198,0.729-0.244,1.112-0.134l2.818,0.81c0.381,0.111,0.672,0.346,0.871,0.706c0.197,0.359,0.243,0.729,0.133,1.11
			l-0.905,3.149c2.208,1.225,3.925,2.946,5.154,5.166c1.229,2.224,1.775,4.594,1.639,7.114l3.149,0.905
			c0.383,0.11,0.672,0.346,0.871,0.703C49.054,229.534,49.097,229.904,48.988,230.285z M40.305,232.367l-2.401-0.691
			c-0.381-0.109-0.673-0.343-0.871-0.702s-0.243-0.731-0.134-1.112l0.812-2.819c0.11-0.381,0.344-0.671,0.703-0.872
			c0.359-0.196,0.731-0.241,1.112-0.132l2.399,0.689c-0.014-1.721-0.44-3.342-1.282-4.864c-0.842-1.521-1.988-2.745-3.439-3.671
			l-0.69,2.401c-0.108,0.381-0.346,0.671-0.703,0.869c-0.359,0.199-0.729,0.244-1.112,0.135l-2.819-0.811
			c-0.383-0.111-0.671-0.346-0.869-0.705c-0.2-0.359-0.244-0.73-0.136-1.111l0.691-2.4c-1.721,0.014-3.343,0.44-4.863,1.284
			c-1.522,0.842-2.747,1.987-3.672,3.438l2.399,0.691c0.381,0.109,0.672,0.345,0.871,0.702c0.198,0.361,0.243,0.732,0.134,1.114
			l-0.812,2.818c-0.11,0.381-0.344,0.672-0.703,0.871c-0.359,0.198-0.729,0.243-1.112,0.133l-2.399-0.69
			c0.014,1.721,0.44,3.343,1.284,4.864c0.842,1.522,1.988,2.745,3.438,3.671l0.691-2.4c0.109-0.381,0.345-0.672,0.702-0.868
			c0.361-0.201,0.729-0.244,1.112-0.136l2.819,0.812c0.381,0.11,0.673,0.344,0.871,0.705c0.198,0.356,0.244,0.729,0.134,1.109
			l-0.691,2.401c1.722-0.014,3.343-0.441,4.865-1.284C38.156,234.965,39.378,233.817,40.305,232.367z"/>
		<path opacity="0.4" fill="#FFFFFF" d="M317.538,728.844l-0.812,2.821c-0.108,0.381-0.344,0.671-0.703,0.869
			c-0.359,0.199-0.729,0.243-1.111,0.134l-3.148-0.906c-1.224,2.207-2.947,3.925-5.168,5.155c-2.222,1.23-4.594,1.776-7.113,1.64
			l-0.906,3.148c-0.109,0.383-0.344,0.674-0.704,0.87c-0.359,0.199-0.729,0.244-1.11,0.135l-2.819-0.811
			c-0.382-0.111-0.673-0.346-0.871-0.705c-0.199-0.358-0.244-0.729-0.133-1.111l0.906-3.149c-2.209-1.223-3.927-2.944-5.156-5.166
			c-1.229-2.223-1.775-4.594-1.639-7.114l-3.147-0.905c-0.385-0.11-0.674-0.344-0.873-0.703c-0.198-0.359-0.243-0.729-0.132-1.111
			l0.81-2.82c0.108-0.381,0.344-0.671,0.705-0.871c0.357-0.198,0.728-0.242,1.11-0.134l3.149,0.906
			c1.223-2.207,2.945-3.926,5.166-5.155c2.222-1.228,4.594-1.774,7.113-1.639l0.906-3.149c0.109-0.381,0.344-0.672,0.704-0.87
			c0.359-0.198,0.729-0.244,1.112-0.134l2.818,0.81c0.381,0.111,0.672,0.346,0.871,0.706c0.197,0.359,0.243,0.729,0.133,1.11
			l-0.905,3.149c2.208,1.225,3.925,2.946,5.154,5.166c1.229,2.224,1.775,4.594,1.639,7.114l3.149,0.905
			c0.383,0.11,0.672,0.346,0.871,0.703C317.605,728.094,317.648,728.464,317.538,728.844z M308.856,730.927l-2.401-0.691
			c-0.381-0.109-0.673-0.343-0.871-0.702s-0.243-0.731-0.134-1.112l0.812-2.819c0.11-0.381,0.344-0.671,0.703-0.872
			c0.359-0.196,0.731-0.241,1.112-0.132l2.399,0.689c-0.014-1.721-0.44-3.342-1.282-4.864c-0.842-1.521-1.988-2.745-3.439-3.671
			l-0.69,2.401c-0.108,0.381-0.346,0.671-0.703,0.869c-0.359,0.199-0.729,0.244-1.112,0.135l-2.819-0.811
			c-0.383-0.111-0.671-0.346-0.869-0.705c-0.2-0.359-0.244-0.73-0.136-1.111l0.691-2.4c-1.721,0.014-3.343,0.44-4.863,1.284
			c-1.522,0.842-2.747,1.987-3.672,3.438l2.399,0.691c0.381,0.109,0.672,0.345,0.871,0.702c0.198,0.361,0.243,0.732,0.134,1.114
			l-0.812,2.818c-0.11,0.381-0.344,0.672-0.703,0.871c-0.359,0.198-0.729,0.243-1.112,0.133l-2.399-0.69
			c0.014,1.721,0.44,3.343,1.284,4.864c0.842,1.522,1.988,2.745,3.438,3.671l0.691-2.4c0.109-0.381,0.345-0.672,0.702-0.868
			c0.361-0.201,0.729-0.244,1.112-0.136l2.819,0.812c0.381,0.11,0.673,0.344,0.871,0.705c0.198,0.356,0.244,0.729,0.134,1.109
			l-0.691,2.401c1.722-0.014,3.343-0.441,4.865-1.284C306.706,733.524,307.929,732.377,308.856,730.927z"/>
		<path opacity="0.4" fill="#FFFFFF" d="M29.712,597.437c2.929,2.409,4.739,5.312,5.429,8.713c0.688,3.4,0.152,6.779-1.609,10.137
			c-1.76,3.359-4.484,6.279-8.172,8.768c-3.688,2.486-7.916,4.213-12.684,5.18c-1.367,0.277-2.801,0.485-4.297,0.627
			c-3.178,4.203-7.193,7.48-12.047,9.827c-0.902,0.467-1.975,0.908-3.213,1.321c-0.324,0.106-0.64,0.08-0.947-0.082
			c-0.307-0.161-0.535-0.411-0.686-0.745l-0.006-0.03c-0.073-0.065-0.103-0.183-0.086-0.349c0.018-0.167,0.018-0.269,0-0.306
			s0.006-0.139,0.076-0.304c0.066-0.167,0.107-0.267,0.121-0.301s0.065-0.13,0.155-0.29c0.09-0.161,0.149-0.265,0.181-0.312
			c0.105-0.183,0.34-0.582,0.704-1.194c0.364-0.613,0.626-1.054,0.786-1.32c0.16-0.265,0.383-0.713,0.674-1.341
			c0.289-0.629,0.506-1.19,0.649-1.688c0.144-0.497,0.29-1.127,0.441-1.89c0.15-0.764,0.253-1.558,0.31-2.382
			c-3.42-1.118-6.274-2.777-8.562-4.979c-2.288-2.202-3.729-4.77-4.322-7.699c-0.515-2.54-0.313-5.109,0.604-7.707
			s2.38-4.974,4.385-7.131c2.004-2.154,4.528-4.056,7.572-5.7c3.044-1.643,6.345-2.826,9.902-3.547
			c4.768-0.967,9.334-1.022,13.699-0.166C23.136,593.399,26.783,595.031,29.712,597.437z"/>
		<path opacity="0.4" fill="#FFFFFF" d="M474.935,803.895c1.425,1.281,1.993,2.562,1.705,3.849c-0.289,1.285-1.361,2.19-3.219,2.719
			l-30.288,8.609c-1.858,0.528-3.248,0.321-4.171-0.62c-0.92-0.941-1.112-2.331-0.573-4.171l7.3-24.606l-2.982-10.49l-1.684,0.478
			c-0.456,0.13-0.897,0.075-1.324-0.164c-0.427-0.238-0.706-0.585-0.835-1.04c-0.13-0.457-0.076-0.898,0.162-1.325
			c0.238-0.428,0.585-0.706,1.04-0.836l13.463-3.827c0.454-0.13,0.897-0.074,1.325,0.165c0.427,0.237,0.706,0.584,0.836,1.041
			c0.129,0.454,0.075,0.897-0.164,1.324c-0.237,0.428-0.585,0.707-1.04,0.836l-1.684,0.479l2.981,10.491L474.935,803.895z
			 M449.035,790.655l-3.944,13.311l18.72-5.319l-10.358-9.248l-0.757-0.665l-0.276-0.973l-2.98-10.491l-3.366,0.958l2.979,10.49
			l0.277,0.973L449.035,790.655z"/>
		<path opacity="0.4" fill="#FFFFFF" d="M151.224,53.588c2.382,2.142,3.332,4.282,2.85,6.433c-0.483,2.147-2.275,3.661-5.38,4.544
			l-50.623,14.39c-3.106,0.883-5.429,0.537-6.971-1.037c-1.538-1.573-1.859-3.896-0.958-6.971l12.201-41.127l-4.985-17.533
			l-2.814,0.798c-0.762,0.217-1.5,0.126-2.213-0.274c-0.713-0.397-1.18-0.978-1.396-1.738c-0.217-0.764-0.127-1.501,0.271-2.215
			c0.398-0.715,0.978-1.18,1.738-1.396l22.501-6.397c0.759-0.217,1.5-0.124,2.215,0.276c0.713,0.396,1.18,0.976,1.397,1.74
			c0.216,0.759,0.126,1.5-0.274,2.213c-0.396,0.715-0.978,1.182-1.738,1.397l-2.813,0.8l4.983,17.534L151.224,53.588z
			 M107.935,31.458l-6.592,22.247l31.288-8.891l-17.313-15.457l-1.265-1.111l-0.462-1.626l-4.981-17.535l-5.626,1.602l4.98,17.533
			l0.464,1.626L107.935,31.458z"/>
		<path opacity="0.4" fill="#FFFFFF" d="M1474.351,508.161c1.832,1.461,2.621,2.985,2.361,4.576s-1.504,2.774-3.735,3.555
			l-36.374,12.719c-2.23,0.781-3.943,0.628-5.139-0.455c-1.192-1.082-1.528-2.767-1.004-5.053l7.13-30.59l-4.407-12.597
			l-2.021,0.704c-0.547,0.192-1.09,0.156-1.63-0.103c-0.538-0.262-0.905-0.667-1.095-1.213c-0.192-0.547-0.159-1.09,0.101-1.628
			c0.261-0.541,0.662-0.906,1.21-1.097l16.167-5.655c0.548-0.191,1.092-0.154,1.631,0.105c0.541,0.259,0.906,0.663,1.098,1.211
			c0.191,0.545,0.158,1.092-0.104,1.63c-0.258,0.54-0.664,0.905-1.21,1.098l-2.021,0.705l4.403,12.601L1474.351,508.161z
			 M1441.749,493.867l-3.852,16.548l22.48-7.857l-13.326-10.545l-0.972-0.758l-0.408-1.17l-4.403-12.6l-4.044,1.417l4.401,12.599
			l0.412,1.166L1441.749,493.867z"/>
		<path opacity="0.4" fill="#FFFFFF" d="M1429.905,159.913c1.992-1.204,3.986-1.663,5.977-1.377c1.992,0.294,3.576,1.41,4.752,3.353
			c0.613,1.013,0.977,2.092,1.088,3.258c0.115,1.153,0.086,2.164-0.084,3.025c-0.17,0.854-0.217,1.836-0.141,2.931
			c0.076,1.101,0.389,2.103,0.938,3.015c1.641,2.709,3.984,3.139,7.039,1.291c0.957-0.583,2.254-1.637,3.885-3.161
			c1.635-1.524,2.938-2.567,3.912-3.121l0.188-0.114c0.326,0.538,0.586,0.941,0.775,1.193c0.578,0.795,1.443,1.91,2.602,3.346
			c1.152,1.436,2.18,2.762,3.076,3.963c0.898,1.203,1.693,2.373,2.377,3.503c0.908,1.503,1.35,2.972,1.324,4.397
			s-0.746,2.566-2.145,3.412c-0.912,0.555-1.916,0.866-3.012,0.941c-1.1,0.076-2.076,0.031-2.936-0.136
			c-0.861-0.171-1.869-0.2-3.029-0.085c-1.158,0.11-2.242,0.471-3.252,1.082c-1.941,1.178-3.062,2.762-3.354,4.756
			c-0.287,1.992,0.168,3.984,1.377,5.978c1.248,2.065,2.875,3.489,4.873,4.26c2,0.776,4.01,0.554,6.027-0.667
			c1.055-0.642,1.965-1.444,2.729-2.413c0.76-0.961,1.303-1.855,1.633-2.676c0.326-0.82,0.73-1.628,1.207-2.421
			c0.477-0.794,0.986-1.354,1.529-1.682c1.107-0.667,2.547-0.767,4.311-0.289c1.414,0.391,2.717,1.566,3.906,3.539
			c1.42,2.336,2.947,5.53,4.594,9.576c0.078,0.253,0.236,0.619,0.461,1.109c0.23,0.483,0.387,0.852,0.473,1.103l0.215,0.523
			c0.014,0.024,0.025,0.069,0.029,0.136c0.029,0.046,0.029,0.08,0.008,0.094l-37.805,22.882c-0.002-0.063-0.092-0.304-0.262-0.723
			c-0.166-0.42-0.361-0.872-0.576-1.369c-0.211-0.491-0.33-0.781-0.346-0.874c-1.646-4.048-3.174-7.24-4.592-9.577
			c-1.189-1.969-2.492-3.147-3.908-3.535c-1.764-0.479-3.203-0.382-4.309,0.288c-0.543,0.326-1.057,0.889-1.533,1.682
			c-0.479,0.793-0.879,1.602-1.209,2.423c-0.326,0.817-0.871,1.713-1.631,2.674c-0.762,0.968-1.674,1.771-2.729,2.41
			c-2.02,1.224-4.029,1.446-6.027,0.668c-2-0.773-3.629-2.203-4.896-4.296c-1.189-1.968-1.645-3.947-1.352-5.941
			c0.291-1.994,1.408-3.578,3.352-4.753c1.012-0.612,2.094-0.972,3.254-1.089c1.162-0.115,2.17-0.086,3.027,0.089
			c0.855,0.167,1.834,0.214,2.934,0.137c1.1-0.076,2.102-0.388,3.012-0.938c1.4-0.852,2.121-1.988,2.148-3.414
			c0.027-1.428-0.416-2.894-1.328-4.395c-0.953-1.576-2.475-3.681-4.572-6.312c-2.1-2.631-3.521-4.51-4.271-5.633l0.074-0.047
			c0.062-0.009,0.303-0.094,0.721-0.267c0.42-0.165,0.879-0.358,1.367-0.57c0.498-0.215,0.783-0.331,0.875-0.354
			c4.049-1.643,7.242-3.172,9.576-4.589c1.969-1.191,3.154-2.493,3.543-3.908c0.477-1.767,0.377-3.204-0.293-4.31
			c-0.328-0.545-0.885-1.054-1.68-1.529c-0.795-0.482-1.598-0.881-2.422-1.21c-0.822-0.326-1.715-0.871-2.68-1.632
			c-0.963-0.764-1.766-1.671-2.41-2.732c-1.217-2.015-1.441-4.021-0.668-6.024C1426.414,162.787,1427.836,161.161,1429.905,159.913z
			"/>
		<path opacity="0.4" fill="#FFFFFF" d="M28.363,359.184c-1.815,1.728-3.805,2.67-5.963,2.83c-2.163,0.15-4.086-0.656-5.772-2.425
			c-0.879-0.923-1.51-1.973-1.896-3.175c-0.39-1.185-0.59-2.253-0.611-3.197c-0.02-0.938-0.197-1.98-0.53-3.114
			c-0.335-1.139-0.895-2.12-1.684-2.953c-2.35-2.468-4.916-2.376-7.695,0.273c-0.874,0.832-1.993,2.24-3.355,4.222
			c-1.365,1.977-2.493,3.377-3.39,4.186l-0.172,0.161c-0.466-0.488-0.833-0.852-1.091-1.074c-0.789-0.701-1.959-1.675-3.509-2.915
			c-1.542-1.242-2.931-2.398-4.151-3.452c-1.22-1.058-2.327-2.104-3.308-3.134c-1.302-1.369-2.106-2.812-2.41-4.316
			c-0.303-1.505,0.19-2.872,1.466-4.084c0.831-0.793,1.812-1.354,2.949-1.686c1.137-0.335,2.174-0.515,3.116-0.535
			c0.945-0.021,2.011-0.223,3.205-0.613c1.189-0.383,2.246-1.013,3.167-1.89c1.77-1.688,2.581-3.611,2.425-5.774
			c-0.158-2.162-1.1-4.15-2.83-5.966c-1.79-1.88-3.829-3.001-6.108-3.352c-2.283-0.352-4.342,0.348-6.181,2.095
			c-0.96,0.921-1.733,1.976-2.311,3.171c-0.576,1.186-0.94,2.251-1.098,3.19c-0.154,0.938-0.391,1.881-0.708,2.824
			c-0.319,0.945-0.725,1.649-1.22,2.12c-1.008,0.958-2.501,1.396-4.463,1.302c-1.578-0.084-3.22-1.018-4.925-2.816
			c-2.033-2.128-4.377-5.134-7.044-9.005c-0.14-0.246-0.393-0.595-0.741-1.058c-0.355-0.456-0.603-0.807-0.751-1.051l-0.347-0.502
			c-0.021-0.021-0.043-0.065-0.063-0.133c-0.041-0.044-0.05-0.078-0.03-0.1l34.449-32.798c0.016,0.068,0.167,0.3,0.441,0.7
			c0.272,0.402,0.581,0.832,0.922,1.307c0.337,0.467,0.53,0.745,0.567,0.836c2.667,3.875,5.012,6.877,7.042,9.005
			c1.706,1.796,3.347,2.734,4.924,2.813c1.964,0.096,3.457-0.34,4.465-1.299c0.495-0.469,0.904-1.177,1.222-2.123
			c0.321-0.944,0.554-1.887,0.71-2.826c0.152-0.935,0.519-2,1.096-3.188c0.578-1.192,1.349-2.249,2.311-3.163
			c1.84-1.753,3.899-2.453,6.181-2.099c2.282,0.353,4.325,1.478,6.142,3.384c1.704,1.795,2.641,3.77,2.795,5.932
			c0.154,2.164-0.653,4.089-2.423,5.772c-0.92,0.877-1.977,1.508-3.169,1.899c-1.195,0.389-2.26,0.592-3.204,0.605
			c-0.937,0.023-1.977,0.201-3.114,0.534c-1.138,0.335-2.121,0.896-2.95,1.685c-1.277,1.218-1.769,2.582-1.469,4.086
			c0.303,1.506,1.106,2.944,2.415,4.311c1.365,1.438,3.451,3.298,6.264,5.579c2.818,2.28,4.744,3.925,5.794,4.933l-0.066,0.068
			c-0.064,0.021-0.297,0.169-0.698,0.445c-0.404,0.273-0.838,0.58-1.304,0.916c-0.476,0.342-0.746,0.53-0.839,0.576
			c-3.875,2.662-6.877,5.009-9.003,7.04c-1.796,1.707-2.739,3.348-2.82,4.925c-0.091,1.969,0.343,3.457,1.304,4.463
			c0.47,0.498,1.173,0.904,2.12,1.221c0.947,0.323,1.884,0.556,2.824,0.71c0.941,0.154,2.007,0.521,3.196,1.097
			c1.188,0.579,2.242,1.349,3.165,2.315c1.747,1.837,2.445,3.892,2.095,6.177C31.367,355.356,30.25,357.393,28.363,359.184z"/>
		<path opacity="0.4" fill="#FFFFFF" d="M1283.398,752.42c0,8.824-1.339,16.453-4.013,22.887c-2.68,6.432-7.17,12.818-13.475,19.162
			c-2.872,2.835-6.328,5.953-10.367,9.354l-1.062,20.148c-0.074,0.568-0.354,1.029-0.854,1.383l-20.411,11.908
			c-0.247,0.14-0.533,0.211-0.849,0.211c-0.428,0-0.832-0.16-1.222-0.479l-3.402-3.402c-0.465-0.496-0.606-1.064-0.428-1.701
			l4.519-14.673l-14.938-14.934l-14.673,4.518c-0.106,0.034-0.268,0.054-0.474,0.054c-0.502,0-0.907-0.16-1.229-0.481l-3.398-3.399
			c-0.602-0.674-0.691-1.362-0.268-2.074l11.909-20.413c0.353-0.492,0.816-0.777,1.382-0.849l20.146-1.064
			c3.402-4.041,6.518-7.496,9.357-10.365c6.658-6.627,13-11.199,19.031-13.715c6.021-2.516,13.657-3.775,22.908-3.775
			c0.497,0,0.921,0.171,1.274,0.508C1283.217,751.562,1283.398,751.961,1283.398,752.42z M1270.002,771.345
			c0.991-0.993,1.488-2.194,1.488-3.614c0-1.417-0.497-2.622-1.488-3.614c-0.994-0.994-2.198-1.49-3.617-1.49
			c-1.415,0-2.62,0.496-3.612,1.49c-0.993,0.992-1.489,2.197-1.489,3.614c0,1.42,0.496,2.621,1.489,3.614
			c0.992,0.99,2.197,1.487,3.612,1.487C1267.804,772.833,1269.008,772.336,1270.002,771.345z"/>
		<path opacity="0.4" fill="#FFFFFF" d="M1297.204-26.166c9.483,1.783,17.411,4.762,23.784,8.936
			c6.371,4.178,12.328,10.295,17.872,18.351c2.466,3.659,5.119,8.003,7.958,13.03l21.438,5.213c0.596,0.194,1.034,0.588,1.313,1.195
			l8.674,24.341c0.101,0.294,0.12,0.615,0.056,0.954c-0.086,0.459-0.341,0.862-0.761,1.216l-4.345,2.97
			c-0.627,0.399-1.266,0.437-1.914,0.116l-14.855-7.819l-19.065,13.035l1.892,16.682c0.016,0.121,0.003,0.297-0.039,0.52
			c-0.102,0.539-0.355,0.943-0.766,1.223l-4.34,2.966c-0.846,0.51-1.603,0.468-2.282-0.132l-19.53-16.921
			c-0.459-0.479-0.672-1.034-0.634-1.657l2.926-21.865c-3.655-4.472-6.739-8.518-9.249-12.149
			c-5.777-8.494-9.409-16.232-10.895-23.222c-1.488-6.979-1.299-15.439,0.569-25.381c0.101-0.534,0.37-0.956,0.804-1.268
			C1296.246-26.146,1296.711-26.258,1297.204-26.166z M1314.837-7.948c-0.867-1.266-2.058-2.042-3.583-2.329
			c-1.523-0.286-2.918,0.006-4.185,0.869c-1.27,0.868-2.046,2.062-2.332,3.587c-0.286,1.521,0.003,2.915,0.872,4.183
			c0.865,1.268,2.061,2.044,3.583,2.33c1.526,0.287,2.917-0.003,4.185-0.87c1.265-0.866,2.042-2.061,2.328-3.581
			C1315.991-5.285,1315.7-6.68,1314.837-7.948z"/>
		<path opacity="0.4" fill="#FFFFFF" d="M1.857,34.642c5.224-0.709,10.596-0.318,16.112,1.172c5.51,1.488,10.346,3.857,14.504,7.102
			c4.158,3.246,7.129,6.939,8.927,11.078c1.791,4.141,2.145,8.219,1.061,12.23c-1.084,4.013-3.443,7.359-7.076,10.028
			c-3.638,2.675-8.066,4.368-13.295,5.076c-5.225,0.708-10.595,0.319-16.106-1.169c-2.485-0.674-4.961-1.592-7.437-2.754
			c-4.268,1.571-8.778,2.336-13.535,2.285c-1.11-0.018-2.417-0.122-3.913-0.312l-0.13-0.035c-0.318-0.084-0.582-0.281-0.792-0.585
			c-0.215-0.305-0.296-0.653-0.251-1.042c-0.008-0.094,0.004-0.191,0.034-0.293c0.026-0.103,0.057-0.193,0.096-0.279
			c0.034-0.082,0.089-0.159,0.155-0.233c0.066-0.075,0.124-0.136,0.167-0.188c0.046-0.051,0.118-0.117,0.217-0.197
			c0.097-0.083,0.178-0.14,0.233-0.17c0.056-0.032,0.137-0.087,0.251-0.164c0.115-0.077,0.19-0.126,0.227-0.147
			c0.19-0.135,0.619-0.405,1.29-0.815c0.668-0.406,1.158-0.731,1.468-0.972c0.314-0.241,0.752-0.571,1.316-0.991
			c0.562-0.423,1.075-0.883,1.533-1.377c0.459-0.493,0.926-1.05,1.406-1.664c-3.02-3.048-5.146-6.363-6.375-9.946
			c-1.231-3.587-1.383-7.097-0.453-10.533c1.083-4.013,3.444-7.357,7.08-10.028C-7.8,37.043-3.371,35.354,1.857,34.642z
			 M28.244,46.956c-3.434-2.54-7.358-4.406-11.776-5.6c-4.418-1.192-8.749-1.56-12.995-1.094c-4.243,0.462-7.846,1.671-10.808,3.63
			c-2.96,1.958-4.837,4.408-5.633,7.353c-0.64,2.366-0.495,4.854,0.446,7.461c0.936,2.608,2.572,5.097,4.904,7.462l3.547,3.561
			l-2.499,3.228c1.138-0.315,2.186-0.634,3.143-0.965l2.267-0.827l2.177,1.055c2.143,1.012,4.296,1.81,6.464,2.396
			c4.417,1.191,8.749,1.561,12.992,1.096c4.248-0.464,7.85-1.673,10.809-3.633c2.96-1.955,4.84-4.406,5.638-7.351
			c0.796-2.944,0.406-6.01-1.165-9.191C34.184,52.354,31.68,49.494,28.244,46.956z M39.881,96.056
			c0.101,0.771,0.229,1.485,0.374,2.146c0.146,0.66,0.356,1.312,0.634,1.959c0.271,0.648,0.485,1.152,0.631,1.519
			c0.148,0.365,0.412,0.893,0.781,1.583c0.374,0.688,0.606,1.139,0.705,1.352c0.021,0.036,0.06,0.117,0.12,0.242
			c0.06,0.123,0.107,0.214,0.139,0.269c0.031,0.053,0.07,0.144,0.114,0.261c0.044,0.121,0.072,0.217,0.086,0.284
			c0.012,0.062,0.027,0.144,0.049,0.241c0.021,0.1,0.026,0.195,0.017,0.285c-0.005,0.092-0.026,0.188-0.053,0.287
			c-0.028,0.102-0.069,0.191-0.12,0.271c-0.195,0.382-0.467,0.646-0.822,0.8c-0.347,0.152-0.695,0.168-1.034,0.047
			c-1.388-0.593-2.569-1.162-3.538-1.7c-4.133-2.357-7.646-5.289-10.541-8.797c-2.72-0.24-5.326-0.696-7.807-1.367
			C11.793,93.623,5.492,89.877,0.72,84.5c1.644,0.566,2.896,0.964,3.766,1.199c4.646,1.258,9.283,1.813,13.904,1.67
			c4.624-0.146,8.938-0.977,12.944-2.498c4.325-1.679,7.926-3.992,10.795-6.933c2.872-2.942,4.828-6.348,5.873-10.215
			c0.601-2.224,0.864-4.509,0.783-6.853c3.171,3.056,5.424,6.424,6.752,10.097c1.329,3.676,1.516,7.286,0.557,10.835
			c-0.937,3.465-2.838,6.431-5.703,8.895C47.526,93.159,44.022,94.945,39.881,96.056z"/>
		<path opacity="0.4" fill="#FFFFFF" d="M614.889,780.563c0.781-0.496,1.625-0.643,2.527-0.439c0.904,0.203,1.604,0.695,2.1,1.478
			c0.494,0.782,0.641,1.626,0.439,2.528c-0.203,0.903-0.695,1.604-1.479,2.099l5.385,8.499c0.486,0.767,0.625,1.607,0.42,2.524
			c-0.205,0.915-0.691,1.616-1.461,2.104c-9.393-1.223-17.16-0.232-23.297,2.972c-0.678,0.823-1.041,1.737-1.088,2.737
			c-0.049,1.003,0.193,1.889,0.723,2.659c0.531,0.771,1.256,1.267,2.182,1.487c0.014,0.673,0.15,1.263,0.41,1.771
			c0.26,0.509,0.574,0.907,0.945,1.199c0.371,0.293,0.875,0.542,1.514,0.748c0.635,0.207,1.225,0.35,1.762,0.434
			s1.229,0.168,2.068,0.256c0.115,1.126-0.318,2.26-1.303,3.399s-2.174,2.013-3.566,2.617c-1.396,0.605-2.629,0.812-3.701,0.623
			c-0.318-0.275-0.945-0.782-1.879-1.524c-0.938-0.74-1.613-1.287-2.033-1.642c-0.42-0.354-1.006-0.903-1.758-1.647
			c-0.75-0.744-1.334-1.419-1.748-2.024c-0.416-0.605-0.85-1.348-1.303-2.229c-0.455-0.88-0.809-1.798-1.062-2.754l-2.701,1.71
			c-0.973,0.616-2.025,0.799-3.158,0.544c-1.135-0.254-2.008-0.867-2.625-1.841l-2.691-4.25c-0.617-0.974-0.799-2.026-0.543-3.161
			c0.254-1.131,0.867-2.006,1.84-2.623l10.625-6.729c6.416-4.066,11.232-11.086,14.443-21.061c0.77-0.487,1.611-0.627,2.527-0.42
			c0.916,0.205,1.615,0.69,2.104,1.458L614.889,780.563z M620.522,795.725l-13.373-21.113c-2.992,8.139-7.053,14.257-12.189,18.357
			l3.785,5.976C604.699,796.042,611.959,794.968,620.522,795.725z"/>
		<path opacity="0.4" fill="#FFFFFF" d="M1423.627,281.151c-0.205-0.993-0.021-1.927,0.555-2.802
			c0.574-0.875,1.359-1.416,2.352-1.623c10.318,5.505,19.628,7.395,27.931,5.675l13.743-2.85c1.258-0.261,2.429-0.036,3.511,0.674
			c1.085,0.712,1.757,1.696,2.017,2.955l1.141,5.497c0.262,1.26,0.037,2.431-0.674,3.516c-0.713,1.082-1.697,1.754-2.957,2.015
			l-3.492,0.726c0.539,0.964,0.967,1.974,1.285,3.032c0.322,1.06,0.549,1.99,0.687,2.798s0.194,1.803,0.171,2.982
			c-0.025,1.18-0.069,2.074-0.131,2.684c-0.062,0.611-0.182,1.574-0.355,2.895s-0.283,2.213-0.324,2.681
			c-0.713,0.985-1.861,1.774-3.451,2.373c-1.588,0.597-3.218,0.821-4.891,0.671c-1.674-0.15-2.902-0.723-3.686-1.715
			c0.606-0.722,1.095-1.325,1.461-1.811c0.365-0.485,0.729-1.056,1.076-1.716c0.354-0.661,0.562-1.251,0.633-1.774
			c0.07-0.521,0.016-1.086-0.172-1.695c-0.186-0.608-0.535-1.188-1.047-1.738c0.573-0.896,0.769-1.856,0.597-2.885
			c-0.175-1.031-0.669-1.928-1.485-2.695c-0.814-0.764-1.815-1.216-2.997-1.349c-7.409,2.194-14.405,7.43-20.989,15.701
			c-0.992,0.206-1.928,0.021-2.801-0.556c-0.878-0.573-1.418-1.355-1.623-2.35l-2.281-10.993c-1.011,0.21-1.949,0.03-2.812-0.537
			c-0.863-0.564-1.401-1.354-1.611-2.369c-0.209-1.009-0.029-1.946,0.537-2.812c0.565-0.864,1.354-1.4,2.367-1.61L1423.627,281.151z
			 M1453.121,294.353l-1.604-7.728c-7.301,0.696-15.307-1.056-24.021-5.259l5.664,27.31
			C1439.44,301.423,1446.094,296.648,1453.121,294.353z"/>
		<path opacity="0.4" fill="#FFFFFF" d="M21.815,542.605c0.066,0.507,0.061,1.178-0.012,2.02c-0.073,0.839-0.179,1.505-0.317,2
			c-0.257,0.989-1.228,2.128-2.915,3.415c-1.574,1.181-3.192,1.877-4.854,2.095c-0.487,0.063-0.966,0.093-1.436,0.086
			c-0.467-0.005-1.003-0.053-1.604-0.146c-0.6-0.092-1.048-0.173-1.341-0.24c-0.293-0.064-0.819-0.193-1.579-0.38
			c-0.76-0.186-1.225-0.298-1.394-0.332c-1.857-0.424-3.539-0.995-5.048-1.713c-2.507-1.179-5.161-2.888-7.961-5.125
			c-2.801-2.237-5.073-4.464-6.815-6.676c-1.056-1.33-2.02-2.873-2.893-4.631c-0.077-0.159-0.299-0.599-0.668-1.312
			c-0.37-0.716-0.623-1.21-0.761-1.488c-0.137-0.278-0.326-0.705-0.567-1.286c-0.241-0.577-0.426-1.104-0.551-1.573
			c-0.126-0.468-0.221-0.956-0.288-1.463c-0.226-1.726,0.008-3.531,0.698-5.414c0.764-2.024,1.572-3.295,2.425-3.808
			c0.423-0.266,1.017-0.543,1.777-0.834c0.763-0.289,1.387-0.466,1.875-0.529c0.252-0.034,0.445-0.03,0.581,0.009
			c0.339,0.07,0.912,0.719,1.715,1.948c0.245,0.33,0.582,0.803,1.012,1.414c0.429,0.611,0.822,1.164,1.183,1.662
			c0.357,0.496,0.704,0.961,1.035,1.395c0.064,0.067,0.254,0.28,0.566,0.64c0.313,0.36,0.552,0.671,0.714,0.925
			c0.162,0.255,0.261,0.513,0.294,0.776c0.049,0.374-0.146,0.879-0.589,1.507c-0.44,0.631-0.932,1.218-1.477,1.769
			c-0.544,0.546-1.039,1.116-1.484,1.711c-0.446,0.592-0.647,1.056-0.603,1.393c0.022,0.171,0.095,0.376,0.218,0.615
			c0.123,0.242,0.226,0.424,0.306,0.549c0.082,0.122,0.236,0.332,0.467,0.625c0.232,0.296,0.359,0.459,0.382,0.494
			c1.709,2.39,3.57,4.386,5.582,5.993c2.011,1.606,4.347,2.959,7.008,4.062c0.039,0.013,0.225,0.101,0.557,0.255
			c0.333,0.157,0.567,0.26,0.702,0.31s0.33,0.105,0.586,0.166c0.257,0.062,0.465,0.082,0.629,0.062
			c0.326-0.044,0.706-0.363,1.142-0.966c0.435-0.601,0.839-1.244,1.208-1.931c0.369-0.688,0.79-1.335,1.262-1.94
			c0.473-0.606,0.889-0.93,1.25-0.979c0.253-0.032,0.52-0.001,0.799,0.097c0.278,0.097,0.625,0.257,1.04,0.478
			c0.416,0.224,0.663,0.356,0.743,0.403c0.487,0.224,1.01,0.452,1.563,0.683c0.556,0.233,1.17,0.487,1.851,0.761
			c0.677,0.271,1.203,0.491,1.572,0.65c1.351,0.491,2.103,0.899,2.254,1.223C21.729,542.151,21.781,542.344,21.815,542.605z"/>
		<path opacity="0.4" fill="#FFFFFF" d="M1451.069,378.372c2.861,2.455,4.578,5.364,5.149,8.729s-0.091,6.677-1.983,9.939
			c-1.891,3.26-4.75,6.068-8.579,8.423c-3.827,2.354-8.154,3.943-12.984,4.762c-2.175,0.369-4.433,0.555-6.774,0.551
			c-2.771,2.665-6.023,4.812-9.756,6.438c-0.87,0.373-1.926,0.751-3.161,1.135l-0.115,0.021c-0.278,0.047-0.554-0.005-0.826-0.159
			c-0.274-0.152-0.461-0.382-0.565-0.688c-0.035-0.07-0.064-0.146-0.078-0.232c-0.014-0.082-0.021-0.164-0.021-0.239
			c0.001-0.074,0.014-0.151,0.041-0.228c0.024-0.08,0.046-0.145,0.062-0.2c0.017-0.054,0.051-0.126,0.099-0.221
			c0.049-0.097,0.09-0.164,0.121-0.209c0.031-0.041,0.08-0.112,0.141-0.211c0.061-0.094,0.104-0.158,0.123-0.188
			c0.104-0.168,0.342-0.518,0.721-1.057c0.376-0.539,0.645-0.951,0.803-1.241c0.161-0.286,0.384-0.684,0.676-1.193
			c0.292-0.513,0.527-1.031,0.709-1.559c0.184-0.532,0.354-1.107,0.508-1.732c-3.432-1.212-6.26-2.938-8.486-5.174
			c-2.226-2.237-3.583-4.797-4.074-7.68c-0.57-3.364,0.09-6.676,1.984-9.938c1.893-3.261,4.75-6.069,8.577-8.427
			c3.829-2.356,8.155-3.942,12.984-4.763c4.831-0.82,9.441-0.749,13.831,0.213C1444.582,374.209,1448.207,375.917,1451.069,378.372z
			 M1472.361,393.928c0.492,2.907,0.054,5.777-1.31,8.61c-1.369,2.837-3.471,5.39-6.311,7.665c0.352,0.538,0.703,1.029,1.049,1.466
			c0.35,0.443,0.742,0.852,1.186,1.237c0.443,0.385,0.785,0.691,1.032,0.91c0.245,0.222,0.636,0.522,1.17,0.904
			c0.533,0.385,0.874,0.637,1.026,0.76c0.024,0.02,0.089,0.064,0.178,0.138c0.09,0.073,0.156,0.124,0.203,0.151
			c0.043,0.031,0.104,0.084,0.181,0.156c0.077,0.074,0.132,0.135,0.167,0.179c0.033,0.043,0.075,0.099,0.123,0.165
			c0.053,0.065,0.09,0.134,0.115,0.207c0.024,0.071,0.045,0.145,0.057,0.23c0.019,0.087,0.016,0.168,0.003,0.242
			c-0.019,0.354-0.138,0.647-0.356,0.883c-0.22,0.236-0.484,0.368-0.791,0.396c-1.294,0.044-2.412,0.038-3.358-0.027
			c-4.06-0.311-7.837-1.261-11.336-2.86c-2.208,0.771-4.401,1.345-6.575,1.713c-6.853,1.163-13.09,0.574-18.716-1.76
			c1.484-0.152,2.606-0.291,3.362-0.419c4.072-0.691,7.888-1.896,11.443-3.623c3.556-1.724,6.632-3.852,9.221-6.381
			c2.779-2.766,4.771-5.746,5.973-8.936c1.203-3.196,1.529-6.414,0.979-9.659c-0.316-1.867-0.922-3.656-1.812-5.372
			c3.556,1.165,6.5,2.884,8.837,5.153C1470.434,388.325,1471.854,390.95,1472.361,393.928z"/>
		<path opacity="0.4" fill="#FFFFFF" d="M1140.539,798.24c-0.6,1.545-1.653,2.834-3.157,3.873c-1.504,1.035-3.165,1.775-4.98,2.219
			c-9.339,2.25-15.149,3.654-17.438,4.208c-0.248,0.06-0.777,0.196-1.593,0.411c-0.812,0.211-1.488,0.379-2.017,0.502
			c-0.53,0.118-1.163,0.24-1.896,0.359c-0.733,0.12-1.397,0.166-1.994,0.139c-0.6-0.03-1.12-0.133-1.569-0.307l-0.029-0.012
			l-0.03-0.014c-0.451-0.173-0.904-0.449-1.365-0.83c-0.46-0.382-0.918-0.865-1.379-1.449c-0.462-0.583-0.846-1.098-1.158-1.544
			c-0.308-0.448-0.693-1.026-1.149-1.731c-0.458-0.705-0.757-1.166-0.9-1.377c-1.296-1.945-3.164-4.724-5.61-8.342
			c-2.446-3.617-3.912-5.789-4.393-6.517c-0.894-1.292-1.6-2.868-2.119-4.723c-0.517-1.854-0.535-3.397-0.058-4.63
			c0.591-1.526,1.49-2.639,2.698-3.34c1.205-0.703,2.561-0.765,4.069-0.182l43.195,16.765c1.271,0.495,2.192,1.384,2.766,2.663
			C1141.003,795.662,1141.04,796.947,1140.539,798.24z M1137.191,806.865l-9.041,23.3c-0.501,1.292-1.391,2.221-2.667,2.784
			c-1.277,0.561-2.558,0.592-3.851,0.092l-43.196-16.765c-1.293-0.501-2.221-1.39-2.781-2.665c-0.563-1.276-0.593-2.562-0.092-3.854
			l9.043-23.3c0.487,1.294,1.146,2.528,1.974,3.703c5.213,7.563,8.765,12.823,10.654,15.785c0.796,1.255,1.453,2.247,1.968,2.977
			c0.519,0.728,1.258,1.558,2.227,2.481c0.969,0.928,1.952,1.586,2.949,1.973l0.03,0.011l0.029,0.012
			c0.998,0.387,2.165,0.566,3.506,0.534c1.34-0.03,2.447-0.139,3.319-0.332c0.874-0.189,2.027-0.479,3.461-0.871
			c4.261-1.113,10.439-2.596,18.542-4.451C1134.678,807.95,1135.986,807.479,1137.191,806.865z"/>
		<path opacity="0.4" fill="#FFFFFF" d="M1456.534,569.308c0.849,0.619,1.198,1.443,1.042,2.473l-9.883,59.301
			c-0.131,0.746-0.539,1.324-1.235,1.736c-0.36,0.205-0.759,0.311-1.196,0.311c-0.285,0-0.593-0.063-0.928-0.191l-17.489-7.145
			l-9.344,11.391c-0.463,0.591-1.092,0.888-1.892,0.888c-0.334,0-0.617-0.054-0.848-0.154c-0.49-0.18-0.884-0.483-1.179-0.909
			c-0.296-0.423-0.443-0.893-0.443-1.409v-13.472l33.356-40.885l-41.271,35.71l-15.249-6.255c-0.953-0.361-1.467-1.066-1.544-2.124
			c-0.053-1.026,0.359-1.787,1.234-2.276l64.243-37.062c0.386-0.232,0.798-0.347,1.234-0.347
			C1455.66,568.887,1456.121,569.029,1456.534,569.308z"/>
		<path opacity="0.4" fill="#FFFFFF" d="M259.585,12.836c0.849,0.619,1.198,1.443,1.042,2.473l-9.883,59.301
			c-0.131,0.746-0.539,1.324-1.235,1.736c-0.36,0.205-0.759,0.311-1.196,0.311c-0.285,0-0.593-0.063-0.928-0.191l-17.489-7.145
			l-9.344,11.391c-0.463,0.591-1.092,0.888-1.892,0.888c-0.334,0-0.617-0.054-0.848-0.154c-0.49-0.18-0.884-0.483-1.179-0.909
			c-0.296-0.423-0.443-0.893-0.443-1.409V65.654l33.356-40.885l-41.271,35.71l-15.249-6.255c-0.953-0.361-1.467-1.066-1.544-2.124
			c-0.053-1.026,0.359-1.787,1.234-2.276l64.243-37.062c0.386-0.232,0.798-0.347,1.234-0.347
			C258.711,12.415,259.172,12.556,259.585,12.836z"/>
		<path opacity="0.4" fill="#FFFFFF" d="M247.772,706.479c1.482,1.691,1.816,3.575,1.005,5.647l-48.644,118.996
			c-0.625,1.493-1.754,2.504-3.403,3.033c-0.847,0.26-1.728,0.289-2.641,0.082c-0.591-0.135-1.202-0.414-1.839-0.837l-38.505-26.931
			l-29.962,20.889c-1.218,0.905-2.607,1.184-4.165,0.828c-0.752-0.169-1.344-0.42-1.78-0.738c-0.936-0.606-1.596-1.424-1.987-2.441
			c-0.391-1.02-0.459-2.063-0.217-3.141l8.25-36.388l-34.482-24.155c-1.815-1.205-2.551-2.92-2.216-5.164
			c0.315-2.123,1.533-3.518,3.655-4.161l151.495-46.915C244.469,704.385,246.281,704.846,247.772,706.479z M192.879,820.927
			l41.937-102.483L104.272,758.85l24.547,17.164l81.148-35.694l-53.035,55.447L192.879,820.927z"/>
	</g>
</g>
</svg>
