<?xml version="1.0" encoding="utf-8"?>
<!-- Generator: Adobe Illustrator 16.0.0, SVG Export Plug-In . SVG Version: 6.00 Build 0)  -->
<!DOCTYPE svg PUBLIC "-//W3C//DTD SVG 1.1//EN" "http://www.w3.org/Graphics/SVG/1.1/DTD/svg11.dtd">
<svg version="1.1" id="Layer_1" xmlns="http://www.w3.org/2000/svg" xmlns:xlink="http://www.w3.org/1999/xlink" x="0px" y="0px"
	 width="1438px" height="405.5px" viewBox="0.5 203.75 1438 405.5" enable-background="new 0.5 203.75 1438 405.5"
	 xml:space="preserve">
<title>BG_icon1</title>
<desc>Created with Sketch.</desc>
<rect x="0.5" y="203.75" fill="#FFFFFF" width="1438" height="405.5"/>
<g>
	<defs>
		<rect id="SVGID_1_" x="0.5" y="204" width="1436" height="405"/>
	</defs>
	<clipPath id="SVGID_2_">
		<use xlink:href="#SVGID_1_"  overflow="visible"/>
	</clipPath>
	<path clip-path="url(#SVGID_2_)" fill="#26A9E0" d="M176.308,590.278c-0.707,4.162-3.584,8.027-8.625,11.605l-20.466,13.949
		c-0.397,0.282-0.839,0.381-1.329,0.298c-0.489-0.084-0.873-0.323-1.155-0.72l-14.729-19.988c-0.164-0.183-0.38-0.472-0.651-0.866
		c-0.271-0.393-0.689-1.1-1.252-2.115c-0.564-1.016-1.047-2.041-1.453-3.079c-0.403-1.035-0.715-2.259-0.929-3.673
		c-0.216-1.41-0.216-2.746-0.003-4.009c0.704-4.139,2.449-7.174,5.236-9.1c2.788-1.927,6.289-2.533,10.504-1.817
		c1.167,0.198,2.322,0.602,3.468,1.214c1.145,0.61,2.182,1.349,3.109,2.213c0.927,0.865,1.716,1.661,2.367,2.392
		c0.651,0.729,1.256,1.491,1.82,2.283c0.792-0.562,1.617-1.08,2.471-1.554c0.855-0.475,1.863-0.966,3.024-1.476
		c1.162-0.51,2.384-0.863,3.667-1.062c1.282-0.198,2.507-0.198,3.673,0.001c4.215,0.715,7.32,2.443,9.313,5.184
		C176.366,582.698,177.011,586.139,176.308,590.278z M172.694,589.664c0.258-1.523,0.285-2.904,0.08-4.139
		c-0.208-1.236-0.566-2.252-1.081-3.047c-0.514-0.792-1.187-1.482-2.016-2.069c-0.829-0.585-1.665-1.028-2.505-1.326
		s-1.749-0.531-2.728-0.696c-0.98-0.167-2.074-0.105-3.285,0.184c-1.21,0.288-2.354,0.715-3.425,1.276
		c-1.075,0.562-2.004,1.104-2.787,1.616c-0.787,0.516-1.449,0.999-1.99,1.45c-0.41,0.354-0.906,0.484-1.489,0.386
		c-0.584-0.1-1.011-0.386-1.279-0.857c-0.362-0.604-0.828-1.277-1.399-2.023c-0.569-0.745-1.269-1.562-2.096-2.447
		c-0.826-0.886-1.764-1.665-2.812-2.337c-1.048-0.673-2.062-1.092-3.04-1.258c-0.98-0.167-1.915-0.246-2.806-0.244
		c-0.892,0.005-1.824,0.146-2.801,0.425s-1.84,0.709-2.587,1.289c-0.748,0.58-1.421,1.419-2.025,2.517
		c-0.603,1.099-1.032,2.41-1.292,3.935c-0.539,3.161,0.654,6.801,3.576,10.918l13.713,18.596l19.057-12.998
		C169.819,595.876,172.157,592.826,172.694,589.664z"/>
	<path clip-path="url(#SVGID_2_)" fill="#26A9E0" d="M33.604,434.646c-0.262,0.302-0.726,0.477-1.392,0.525l-13.79,0.823
		l-7.14,11.839c-0.068,0.105-0.181,0.25-0.337,0.429c-0.248,0.288-0.532,0.47-0.849,0.544c-0.316,0.075-0.612-0.006-0.887-0.244
		c-0.262-0.226-0.464-0.547-0.61-0.96l-5.046-12.867l-13.459-3.14c-0.445-0.097-0.791-0.252-1.038-0.466
		c-0.288-0.248-0.418-0.536-0.391-0.859c0.027-0.324,0.167-0.631,0.416-0.919c0.072-0.083,0.204-0.209,0.398-0.377l10.685-8.771
		l-1.192-13.783c-0.021-0.668,0.092-1.146,0.342-1.435c0.439-0.508,1.098-0.492,1.975,0.051l11.645,7.443l12.747-5.366
		c0.747-0.338,1.327-0.328,1.74,0.029c0.412,0.355,0.506,0.929,0.279,1.718l-3.474,13.387l9.043,10.451
		C33.932,433.489,34.043,434.138,33.604,434.646z"/>
	<path clip-path="url(#SVGID_2_)" fill="#26A9E0" d="M1459.21,292.598l-9.462,24.116c-0.383,0.976-1.058,1.674-2.024,2.097
		c-0.967,0.421-1.938,0.441-2.914,0.059l-32.627-12.801c-0.977-0.383-1.674-1.058-2.097-2.024c-0.422-0.967-0.441-1.938-0.059-2.913
		l9.461-24.116c0.383-0.977,1.058-1.674,2.024-2.096c0.967-0.423,1.938-0.443,2.914-0.061l32.628,12.801
		c0.976,0.383,1.673,1.058,2.095,2.025C1459.572,290.652,1459.592,291.623,1459.21,292.598z M1456.05,292.305
		c0.012-0.029,0.044-0.111,0.096-0.244c0.053-0.133,0.092-0.232,0.117-0.3c0.026-0.065,0.061-0.163,0.104-0.292
		c0.041-0.129,0.055-0.229,0.041-0.303s-0.027-0.156-0.043-0.247c-0.016-0.092-0.061-0.174-0.135-0.244
		c-0.074-0.072-0.17-0.133-0.288-0.179l-32.628-12.8c-0.193-0.076-0.387-0.071-0.582,0.015s-0.33,0.226-0.406,0.416
		c-0.974,2.482-0.711,5.008,0.789,7.574c1.971,3.364,4.015,6.868,6.131,10.514c0.061,0.108,0.232,0.428,0.52,0.958
		s0.519,0.941,0.695,1.231c0.175,0.29,0.412,0.651,0.711,1.085c0.299,0.433,0.594,0.782,0.881,1.049
		c0.287,0.266,0.579,0.456,0.875,0.572l0.021,0.009l0.023,0.009c0.295,0.116,0.639,0.175,1.03,0.176
		c0.392,0,0.845-0.057,1.358-0.172c0.514-0.113,0.934-0.218,1.261-0.312c0.326-0.093,0.774-0.235,1.346-0.431
		c0.57-0.193,0.915-0.311,1.032-0.349c4.03-1.233,7.912-2.412,11.645-3.54c1.047-0.322,2.125-0.884,3.232-1.686
		C1454.984,294.013,1455.708,293.177,1456.05,292.305z M1446.911,315.601l6.678-17.023c-0.682,0.346-1.383,0.634-2.103,0.863
		c-5.155,1.491-9.282,2.754-12.382,3.787c-1.004,0.341-1.811,0.594-2.423,0.764c-0.612,0.169-1.392,0.276-2.339,0.322
		c-0.948,0.047-1.775-0.07-2.484-0.348l-0.023-0.009l-0.021-0.009c-0.709-0.278-1.396-0.756-2.059-1.435
		c-0.664-0.679-1.162-1.287-1.496-1.827s-0.753-1.275-1.258-2.207c-1.569-2.865-3.737-6.599-6.502-11.196
		c-0.374-0.657-0.691-1.346-0.956-2.063l-6.679,17.023c-0.075,0.192-0.07,0.387,0.016,0.581c0.084,0.196,0.223,0.332,0.416,0.407
		l32.627,12.8c0.192,0.075,0.387,0.07,0.582-0.015S1446.835,315.794,1446.911,315.601z"/>
	<path clip-path="url(#SVGID_2_)" fill="#26A9E0" d="M31.4,612.592l2.189,8.479c0.11,0.412,0.064,0.787-0.133,1.119
		c-0.194,0.335-0.502,0.554-0.913,0.664l-8.481,2.188c-0.413,0.108-0.789,0.062-1.12-0.135c-0.333-0.195-0.551-0.501-0.658-0.912
		l-2.195-8.483c-0.104-0.41-0.059-0.783,0.137-1.117c0.196-0.333,0.5-0.554,0.911-0.66l8.483-2.192
		c0.411-0.106,0.783-0.062,1.122,0.137C31.071,611.873,31.293,612.179,31.4,612.592z M46.9,602.552l3.654,14.138
		c0.106,0.412,0.061,0.782-0.137,1.117c-0.196,0.332-0.5,0.555-0.91,0.659l-8.48,2.195c-0.415,0.104-0.791,0.061-1.122-0.137
		c-0.334-0.194-0.555-0.5-0.659-0.912l-3.655-14.14c-0.103-0.411-0.061-0.779,0.133-1.116c0.198-0.332,0.501-0.553,0.916-0.659
		l8.48-2.189c0.412-0.11,0.787-0.066,1.119,0.132C46.573,601.839,46.794,602.14,46.9,602.552z M60.941,586.863l6.574,25.439
		c0.106,0.412,0.064,0.787-0.131,1.119c-0.198,0.335-0.501,0.554-0.916,0.661l-8.48,2.191c-0.414,0.108-0.787,0.064-1.119-0.135
		c-0.333-0.195-0.553-0.502-0.658-0.914l-6.578-25.439c-0.106-0.416-0.061-0.787,0.133-1.121c0.194-0.333,0.501-0.555,0.912-0.661
		l8.484-2.191c0.412-0.106,0.785-0.062,1.117,0.135C60.615,586.144,60.832,586.447,60.941,586.863z M73.518,565.513L84.48,607.92
		c0.106,0.413,0.061,0.785-0.137,1.118c-0.194,0.332-0.498,0.555-0.913,0.665l-8.481,2.188c-0.415,0.106-0.785,0.062-1.12-0.135
		c-0.331-0.198-0.553-0.5-0.657-0.913L62.21,568.436c-0.106-0.411-0.061-0.787,0.133-1.121c0.198-0.331,0.502-0.552,0.914-0.66
		l8.482-2.191c0.414-0.105,0.783-0.061,1.118,0.136C73.191,564.797,73.409,565.1,73.518,565.513z M84.635,538.511l16.808,65.022
		c0.106,0.412,0.059,0.787-0.137,1.119c-0.198,0.335-0.5,0.555-0.912,0.661l-8.48,2.189c-0.415,0.108-0.787,0.062-1.121-0.133
		c-0.334-0.197-0.551-0.502-0.66-0.916l-16.808-65.021c-0.106-0.41-0.061-0.783,0.135-1.115c0.198-0.335,0.502-0.558,0.914-0.664
		l8.482-2.19c0.413-0.11,0.783-0.062,1.116,0.135C84.309,537.795,84.529,538.099,84.635,538.511z"/>
	<path clip-path="url(#SVGID_2_)" fill="#26A9E0" d="M1432.88,438.756v2.693c0,0.098-0.032,0.19-0.097,0.279
		c-0.064,0.09-0.146,0.142-0.243,0.158l-2.243,0.34c-0.154,0.437-0.312,0.805-0.475,1.104c0.283,0.404,0.717,0.963,1.299,1.674
		c0.08,0.098,0.121,0.198,0.121,0.304s-0.036,0.198-0.109,0.28c-0.218,0.298-0.617,0.735-1.201,1.31
		c-0.582,0.574-0.962,0.861-1.141,0.861c-0.096,0-0.202-0.037-0.314-0.11l-1.675-1.31c-0.356,0.187-0.724,0.34-1.104,0.461
		c-0.129,1.101-0.246,1.853-0.352,2.257c-0.057,0.226-0.201,0.34-0.436,0.34h-2.694c-0.113,0-0.212-0.035-0.297-0.104
		s-0.132-0.156-0.14-0.261l-0.34-2.232c-0.396-0.13-0.76-0.279-1.092-0.449l-1.711,1.298c-0.081,0.073-0.182,0.11-0.303,0.11
		c-0.113,0-0.215-0.045-0.305-0.134c-1.018-0.922-1.686-1.601-2.002-2.037c-0.057-0.082-0.084-0.175-0.084-0.28
		c0-0.097,0.032-0.189,0.098-0.279c0.12-0.17,0.326-0.438,0.617-0.807s0.511-0.653,0.656-0.855
		c-0.218-0.403-0.384-0.804-0.498-1.201l-2.22-0.328c-0.105-0.015-0.19-0.066-0.255-0.15c-0.064-0.085-0.097-0.181-0.097-0.285
		v-2.693c0-0.098,0.032-0.19,0.097-0.279s0.141-0.142,0.23-0.158l2.256-0.34c0.114-0.37,0.271-0.743,0.475-1.115
		c-0.324-0.461-0.757-1.02-1.299-1.675c-0.081-0.097-0.121-0.193-0.121-0.291c0-0.081,0.036-0.174,0.109-0.279
		c0.21-0.291,0.608-0.726,1.195-1.305c0.586-0.577,0.968-0.867,1.146-0.867c0.104,0,0.211,0.041,0.314,0.121l1.675,1.299
		c0.356-0.186,0.724-0.34,1.104-0.461c0.129-1.1,0.246-1.852,0.352-2.257c0.057-0.226,0.201-0.34,0.437-0.34h2.694
		c0.112,0,0.211,0.035,0.296,0.104c0.085,0.069,0.132,0.155,0.14,0.261l0.34,2.232c0.396,0.13,0.76,0.279,1.092,0.449l1.723-1.299
		c0.073-0.073,0.17-0.109,0.291-0.109c0.105,0,0.206,0.041,0.305,0.121c1.043,0.964,1.711,1.65,2.002,2.063
		c0.056,0.064,0.084,0.153,0.084,0.267c0,0.098-0.032,0.189-0.098,0.278c-0.12,0.171-0.326,0.439-0.617,0.807
		c-0.291,0.369-0.511,0.654-0.656,0.856c0.21,0.404,0.376,0.801,0.498,1.188l2.22,0.34c0.104,0.017,0.19,0.067,0.255,0.151
		C1432.848,438.556,1432.88,438.651,1432.88,438.756z M1425.758,442.275c0.607-0.607,0.91-1.339,0.91-2.196
		c0-0.856-0.303-1.59-0.91-2.196c-0.606-0.606-1.338-0.91-2.195-0.91s-1.59,0.304-2.195,0.91c-0.607,0.606-0.91,1.34-0.91,2.196
		c0,0.857,0.303,1.589,0.91,2.196c0.605,0.606,1.338,0.908,2.195,0.908S1425.152,442.882,1425.758,442.275z"/>
	<path clip-path="url(#SVGID_2_)" fill="#26A9E0" d="M1416.153,568.646c4.836,3.299,8.541,7.653,11.113,13.062
		c2.571,5.407,3.611,11.029,3.119,16.863c-0.495,5.835-2.392,11.172-5.691,16.01c-3.299,4.836-7.653,8.542-13.061,11.114
		c-5.409,2.572-11.031,3.61-16.866,3.118c-5.834-0.493-11.171-2.391-16.008-5.69c-4.836-3.299-8.541-7.653-11.112-13.062
		c-2.572-5.408-3.612-11.03-3.12-16.863c0.493-5.835,2.39-11.172,5.688-16.009c3.301-4.837,7.654-8.543,13.062-11.115
		s11.031-3.61,16.864-3.118C1405.977,563.45,1411.314,565.346,1416.153,568.646z M1420.779,597.788
		c0.349-4.134-0.387-8.114-2.208-11.944c-1.821-3.829-4.445-6.913-7.872-9.251c-3.428-2.334-7.209-3.677-11.341-4.028
		c-4.134-0.351-8.114,0.384-11.945,2.205c-3.829,1.821-6.912,4.447-9.248,7.874c-2.338,3.428-3.68,7.208-4.031,11.339
		c-0.35,4.135,0.385,8.117,2.206,11.946c1.821,3.83,4.446,6.911,7.874,9.249c3.428,2.336,7.206,3.681,11.341,4.028
		c4.132,0.352,8.114-0.384,11.944-2.205s6.911-4.446,9.248-7.874C1419.082,605.702,1420.427,601.922,1420.779,597.788z
		 M1395.925,579.86l8.271,17.39c0.172,0.361,0.196,0.715,0.075,1.058c-0.121,0.344-0.365,0.603-0.728,0.774l-12.42,5.906
		c-0.362,0.173-0.716,0.198-1.059,0.076c-0.344-0.122-0.602-0.364-0.773-0.726l-1.183-2.485c-0.172-0.362-0.197-0.716-0.074-1.059
		c0.121-0.344,0.364-0.602,0.727-0.773l8.694-4.136l-6.498-13.663c-0.172-0.362-0.197-0.717-0.075-1.059
		c0.121-0.344,0.363-0.603,0.727-0.775l2.483-1.181c0.362-0.172,0.717-0.198,1.06-0.074
		C1395.493,579.255,1395.753,579.497,1395.925,579.86z"/>
	<path clip-path="url(#SVGID_2_)" fill="#26A9E0" d="M1370.031,303.137l-0.812,2.821c-0.108,0.381-0.344,0.671-0.703,0.869
		c-0.359,0.199-0.729,0.243-1.111,0.134l-3.148-0.906c-1.224,2.207-2.947,3.925-5.168,5.155c-2.222,1.23-4.594,1.776-7.113,1.64
		l-0.906,3.148c-0.109,0.383-0.344,0.674-0.704,0.87c-0.359,0.199-0.729,0.244-1.11,0.135l-2.819-0.811
		c-0.382-0.111-0.673-0.346-0.871-0.705c-0.199-0.358-0.244-0.729-0.133-1.111l0.906-3.149c-2.209-1.223-3.927-2.944-5.156-5.166
		c-1.229-2.223-1.775-4.594-1.639-7.114l-3.147-0.905c-0.385-0.11-0.674-0.344-0.873-0.703c-0.198-0.359-0.243-0.729-0.132-1.111
		l0.81-2.82c0.108-0.381,0.344-0.671,0.705-0.871c0.357-0.198,0.728-0.242,1.11-0.134l3.149,0.906
		c1.223-2.207,2.945-3.926,5.166-5.155c2.222-1.228,4.594-1.774,7.113-1.639l0.906-3.149c0.109-0.381,0.344-0.672,0.704-0.87
		c0.359-0.198,0.729-0.244,1.112-0.134l2.818,0.81c0.381,0.111,0.672,0.346,0.871,0.706c0.197,0.359,0.243,0.729,0.133,1.11
		l-0.905,3.149c2.208,1.225,3.925,2.946,5.154,5.166c1.229,2.224,1.775,4.594,1.639,7.114l3.149,0.905
		c0.383,0.11,0.672,0.346,0.871,0.703C1370.098,302.386,1370.141,302.757,1370.031,303.137z M1361.349,305.219l-2.401-0.691
		c-0.381-0.109-0.673-0.343-0.871-0.702s-0.243-0.731-0.134-1.112l0.812-2.819c0.11-0.381,0.344-0.671,0.703-0.872
		c0.359-0.196,0.731-0.241,1.112-0.132l2.399,0.689c-0.014-1.721-0.44-3.342-1.282-4.864c-0.842-1.521-1.988-2.745-3.439-3.671
		l-0.69,2.401c-0.108,0.381-0.346,0.671-0.703,0.869c-0.359,0.199-0.729,0.244-1.112,0.135l-2.819-0.811
		c-0.383-0.111-0.671-0.346-0.869-0.705c-0.2-0.359-0.244-0.73-0.136-1.111l0.691-2.4c-1.721,0.014-3.343,0.44-4.863,1.284
		c-1.522,0.842-2.747,1.987-3.672,3.438l2.399,0.691c0.381,0.109,0.672,0.345,0.871,0.702c0.198,0.361,0.243,0.732,0.134,1.114
		l-0.812,2.818c-0.11,0.381-0.344,0.672-0.703,0.871c-0.359,0.198-0.729,0.243-1.112,0.133l-2.399-0.69
		c0.014,1.721,0.44,3.343,1.284,4.864c0.842,1.522,1.988,2.745,3.438,3.671l0.691-2.4c0.109-0.381,0.345-0.672,0.702-0.868
		c0.361-0.201,0.729-0.244,1.112-0.136l2.819,0.812c0.381,0.11,0.673,0.344,0.871,0.705c0.198,0.356,0.244,0.729,0.134,1.109
		l-0.691,2.401c1.722-0.014,3.343-0.441,4.865-1.284C1359.199,307.817,1360.422,306.67,1361.349,305.219z"/>
	<path clip-path="url(#SVGID_2_)" fill="#26A9E0" d="M1297.76,603.596l-19.783,26.887c-0.718,0.971-1.679,1.551-2.889,1.733
		c-1.184,0.182-2.286-0.083-3.304-0.792l-4.19-3.144c-0.99-0.687-1.58-1.649-1.768-2.88c-0.185-1.208,0.092-2.312,0.825-3.31
		l19.754-26.848c1.229,2.1,2.838,3.881,4.82,5.34C1293.211,602.044,1295.387,603.051,1297.76,603.596z M1277.496,622.961
		c0.368-0.5,0.506-1.047,0.416-1.64c-0.09-0.594-0.385-1.075-0.885-1.44c-0.499-0.368-1.044-0.507-1.639-0.416
		c-0.594,0.091-1.074,0.386-1.439,0.886c-0.367,0.497-0.509,1.044-0.417,1.64c0.091,0.591,0.384,1.071,0.884,1.438
		c0.502,0.369,1.046,0.505,1.638,0.417C1276.649,623.756,1277.127,623.46,1277.496,622.961z M1317.184,585.415
		c0.137,0.888,0.059,2.137-0.231,3.745c-0.61,3.222-2.108,5.985-4.496,8.299c-2.392,2.312-5.194,3.713-8.411,4.201
		c-4.221,0.644-8.056-0.307-11.514-2.85c-3.455-2.542-5.504-5.925-6.149-10.144c-0.64-4.221,0.31-8.059,2.853-11.514
		c2.542-3.457,5.923-5.506,10.145-6.149c1.322-0.2,2.736-0.223,4.24-0.066c1.509,0.156,2.814,0.499,3.922,1.032
		c0.406,0.194,0.635,0.486,0.693,0.875c0.059,0.387-0.074,0.734-0.399,1.041l-9.146,7.305l1.167,7.666l7.158,2.652
		c0.105-0.084,0.923-0.771,2.452-2.066s2.934-2.454,4.213-3.477c1.283-1.024,2.021-1.551,2.229-1.584
		c0.34-0.051,0.627,0.022,0.857,0.221C1316.993,584.802,1317.133,585.072,1317.184,585.415z"/>
	<path clip-path="url(#SVGID_2_)" fill="#26A9E0" d="M97.174,375.616c0.596,2.396,0.277,4.176-0.959,5.339
		c-1.234,1.164-3.035,1.358-5.399,0.581L52.27,368.865c-2.365-0.776-3.699-2.001-4.003-3.67c-0.304-1.67,0.494-3.292,2.396-4.868
		l25.553-21.001l4.389-13.351l-2.142-0.704c-0.58-0.189-1.013-0.567-1.296-1.131c-0.285-0.562-0.332-1.134-0.141-1.714
		c0.19-0.581,0.567-1.013,1.131-1.297c0.562-0.284,1.134-0.331,1.714-0.142l17.132,5.631c0.58,0.191,1.012,0.569,1.297,1.132
		c0.284,0.562,0.332,1.135,0.141,1.715c-0.19,0.58-0.567,1.012-1.131,1.296c-0.563,0.285-1.135,0.332-1.715,0.141l-2.142-0.703
		l-4.388,13.351L97.174,375.616z M79.081,342.789l-13.819,11.364l23.824,7.83l-4.383-17.347l-0.328-1.256l0.406-1.238l4.389-13.351
		l-4.283-1.407l-4.389,13.35l-0.407,1.237L79.081,342.789z"/>
	<path clip-path="url(#SVGID_2_)" fill="#26A9E0" d="M1438.64,349.33c1.075,0.801,1.554,1.658,1.434,2.572
		c-0.117,0.913-0.807,1.614-2.066,2.101l-20.547,7.936c-1.261,0.488-2.242,0.433-2.943-0.164c-0.702-0.597-0.925-1.553-0.669-2.869
		l3.51-17.608l-2.749-7.116l-1.142,0.441c-0.309,0.12-0.62,0.109-0.933-0.03c-0.313-0.138-0.53-0.361-0.648-0.671
		c-0.121-0.31-0.11-0.62,0.028-0.934c0.138-0.312,0.362-0.528,0.671-0.648l9.132-3.527c0.31-0.119,0.621-0.108,0.935,0.029
		c0.312,0.139,0.529,0.362,0.648,0.672s0.109,0.62-0.029,0.933c-0.139,0.313-0.362,0.53-0.672,0.649l-1.142,0.44l2.749,7.117
		L1438.64,349.33z M1419.752,341.765l-1.896,9.525l12.698-4.904l-7.806-5.779l-0.57-0.414l-0.256-0.659l-2.748-7.116l-2.283,0.882
		l2.748,7.116l0.255,0.659L1419.752,341.765z"/>
	<path clip-path="url(#SVGID_2_)" fill="#26A9E0" d="M1372.657,535.556c0.536,1.868,0.333,3.654-0.609,5.354
		c-0.943,1.703-2.35,2.821-4.218,3.356l-19.179,5.504c-2.175,0.624-4.256,0.385-6.245-0.717c-1.989-1.103-3.295-2.74-3.919-4.914
		c-0.445-1.552-0.436-3.091,0.029-4.617c0.466-1.526,1.289-2.803,2.47-3.828c-0.117-0.321-0.202-0.571-0.252-0.748
		c-0.716-2.49-0.444-4.871,0.812-7.14c1.257-2.268,3.132-3.761,5.623-4.475c1.855-0.533,3.688-0.499,5.495,0.101
		c1.807,0.603,3.297,1.638,4.469,3.106c0.613-0.964,1.485-1.608,2.613-1.932c1.245-0.357,2.435-0.223,3.569,0.405
		c1.136,0.63,1.88,1.567,2.237,2.812c0.254,0.881,0.246,1.762-0.023,2.64c1.618-0.082,3.095,0.35,4.435,1.293
		C1371.305,532.706,1372.201,533.97,1372.657,535.556z"/>
	<path clip-path="url(#SVGID_2_)" fill="#26A9E0" d="M-70.656,264.935c0.945,0.945,1.418,2.093,1.418,3.443
		s-0.473,2.498-1.418,3.443s-2.094,1.418-3.443,1.418c-1.352,0-2.498-0.473-3.443-1.418s-1.418-2.093-1.418-3.443
		s0.473-2.498,1.418-3.443s2.092-1.418,3.443-1.418C-72.75,263.517-71.601,263.99-70.656,264.935z M-70.656,277.898
		c0.945,0.946,1.418,2.094,1.418,3.444s-0.473,2.498-1.418,3.443s-2.094,1.418-3.443,1.418c-1.352,0-2.498-0.473-3.443-1.418
		s-1.418-2.093-1.418-3.443s0.473-2.498,1.418-3.444c0.945-0.944,2.092-1.418,3.443-1.418
		C-72.75,276.48-71.601,276.954-70.656,277.898z M-70.656,290.862c0.945,0.945,1.418,2.094,1.418,3.443
		c0,1.351-0.473,2.499-1.418,3.443c-0.945,0.945-2.094,1.418-3.443,1.418c-1.352,0-2.498-0.473-3.443-1.418
		c-0.945-0.944-1.418-2.093-1.418-3.443c0-1.35,0.473-2.498,1.418-3.443s2.092-1.418,3.443-1.418
		C-72.75,289.444-71.601,289.917-70.656,290.862z M-33.588,265.948v4.861c0,0.22-0.08,0.409-0.24,0.569
		c-0.162,0.161-0.352,0.24-0.57,0.24h-30.789c-0.219,0-0.41-0.079-0.57-0.24c-0.16-0.16-0.24-0.35-0.24-0.569v-4.861
		c0-0.22,0.08-0.409,0.24-0.57c0.16-0.16,0.352-0.24,0.57-0.24h30.789c0.219,0,0.408,0.08,0.57,0.24
		C-33.668,265.539-33.588,265.728-33.588,265.948z M-33.588,278.911v4.862c0,0.219-0.08,0.409-0.24,0.569
		c-0.162,0.16-0.352,0.24-0.57,0.24h-30.789c-0.219,0-0.41-0.08-0.57-0.24s-0.24-0.351-0.24-0.569v-4.862
		c0-0.219,0.08-0.408,0.24-0.569c0.16-0.16,0.352-0.24,0.57-0.24h30.789c0.219,0,0.408,0.08,0.57,0.24
		C-33.668,278.503-33.588,278.692-33.588,278.911z M-33.588,291.875v4.861c0,0.22-0.08,0.41-0.24,0.57
		c-0.162,0.16-0.352,0.24-0.57,0.24h-30.789c-0.219,0-0.41-0.08-0.57-0.24s-0.24-0.351-0.24-0.57v-4.861
		c0-0.219,0.08-0.409,0.24-0.569s0.352-0.24,0.57-0.24h30.789c0.219,0,0.408,0.08,0.57,0.24
		C-33.668,291.466-33.588,291.656-33.588,291.875z"/>
	<path clip-path="url(#SVGID_2_)" fill="#26A9E0" d="M1304.953,243.599c-1.846-1.25-3.044-2.8-3.591-4.646
		c-0.542-1.852-0.205-3.676,1.015-5.478c0.636-0.938,1.429-1.686,2.397-2.249c0.959-0.564,1.848-0.942,2.665-1.139
		c0.813-0.195,1.686-0.549,2.608-1.051c0.924-0.507,1.673-1.181,2.247-2.024c1.698-2.51,1.132-4.723-1.698-6.64
		c-0.889-0.601-2.324-1.307-4.304-2.115c-1.981-0.812-3.409-1.525-4.284-2.152l-0.171-0.117c0.337-0.5,0.583-0.887,0.727-1.153
		c0.46-0.819,1.083-2.021,1.868-3.603c0.788-1.577,1.527-3.002,2.215-4.263c0.688-1.263,1.387-2.424,2.096-3.47
		c0.944-1.395,2.045-2.365,3.295-2.914c1.252-0.548,2.532-0.38,3.83,0.499c0.845,0.572,1.519,1.319,2.023,2.243
		c0.507,0.926,0.858,1.795,1.058,2.608c0.194,0.817,0.573,1.706,1.138,2.67c0.562,0.962,1.309,1.761,2.244,2.395
		c1.801,1.219,3.629,1.559,5.481,1.014c1.847-0.548,3.396-1.743,4.648-3.591c1.298-1.914,1.882-3.898,1.755-5.946
		c-0.128-2.05-1.125-3.71-2.994-4.975c-0.98-0.663-2.044-1.134-3.192-1.409c-1.14-0.276-2.137-0.39-2.981-0.349
		c-0.846,0.044-1.708,0.017-2.59-0.08c-0.881-0.099-1.572-0.316-2.073-0.658c-1.025-0.695-1.688-1.908-1.98-3.635
		c-0.227-1.387,0.275-2.99,1.513-4.815c1.467-2.17,3.633-4.778,6.496-7.83c0.188-0.17,0.44-0.454,0.777-0.846
		c0.329-0.394,0.586-0.677,0.771-0.853l0.369-0.396c0.015-0.022,0.05-0.05,0.104-0.079c0.031-0.044,0.059-0.059,0.081-0.045
		l35.046,23.725c-0.056,0.028-0.229,0.202-0.525,0.518c-0.298,0.312-0.615,0.663-0.96,1.05c-0.344,0.381-0.549,0.601-0.62,0.651
		c-2.862,3.054-5.029,5.66-6.496,7.83c-1.235,1.824-1.738,3.428-1.511,4.813c0.291,1.727,0.953,2.94,1.979,3.635
		c0.501,0.341,1.193,0.562,2.075,0.659c0.882,0.1,1.747,0.123,2.592,0.082c0.841-0.044,1.84,0.07,2.98,0.349
		c1.146,0.273,2.21,0.745,3.189,1.409c1.872,1.265,2.869,2.924,2.994,4.975c0.129,2.049-0.463,4.041-1.776,5.98
		c-1.236,1.822-2.777,3.01-4.627,3.555c-1.851,0.545-3.677,0.208-5.479-1.012c-0.936-0.636-1.683-1.433-2.248-2.396
		c-0.565-0.963-0.943-1.853-1.137-2.668c-0.197-0.812-0.549-1.683-1.054-2.607c-0.508-0.925-1.181-1.672-2.024-2.244
		c-1.301-0.879-2.577-1.049-3.83-0.501s-2.351,1.521-3.292,2.915c-0.99,1.459-2.211,3.625-3.66,6.504
		c-1.446,2.881-2.513,4.87-3.191,5.973l-0.068-0.047c-0.032-0.05-0.203-0.226-0.521-0.521c-0.312-0.299-0.663-0.619-1.044-0.959
		c-0.386-0.347-0.601-0.549-0.657-0.619c-3.051-2.865-5.661-5.029-7.828-6.492c-1.825-1.238-3.432-1.746-4.816-1.518
		c-1.729,0.293-2.938,0.953-3.634,1.98c-0.343,0.504-0.562,1.19-0.657,2.073c-0.1,0.885-0.127,1.744-0.084,2.591
		c0.049,0.847-0.068,1.841-0.346,2.984c-0.277,1.145-0.745,2.207-1.412,3.191c-1.264,1.866-2.922,2.865-4.973,2.995
		C1308.853,245.486,1306.868,244.9,1304.953,243.599z"/>
	<path clip-path="url(#SVGID_2_)" fill="#26A9E0" d="M1420.984,226.112l22.336,9.112c-1.164,2.932-2.862,5.544-5.098,7.834
		c-2.23,2.296-4.854,4.076-7.867,5.342c-4.013,1.688-8.13,2.252-12.349,1.701c-4.221-0.553-8.031-2.112-11.432-4.669
		c-3.402-2.558-5.948-5.84-7.635-9.853c-1.684-4.013-2.25-8.131-1.695-12.35c0.554-4.222,2.104-8.03,4.664-11.435
		c2.556-3.398,5.844-5.944,9.854-7.631L1420.984,226.112z M1445.315,211.752l-22.116,9.295l-9.296-22.117
		c4.01-1.686,8.127-2.253,12.346-1.701c4.221,0.556,8.031,2.11,11.434,4.667C1441.082,204.455,1443.629,207.737,1445.315,211.752z
		 M1426.448,224.016l22.258-9.353c1.269,3.016,1.896,6.119,1.889,9.323c-0.012,3.2-0.629,6.252-1.846,9.159L1426.448,224.016z"/>
	<path clip-path="url(#SVGID_2_)" fill="#26A9E0" d="M1419.337,476.385c3.658-0.391,7.397-0.011,11.215,1.139
		c3.813,1.149,7.14,2.898,9.975,5.245c2.835,2.348,4.835,4.982,6.005,7.906c1.167,2.924,1.332,5.774,0.495,8.552
		c-0.836,2.777-2.548,5.063-5.136,6.854c-2.591,1.793-5.714,2.885-9.375,3.274c-3.658,0.39-7.396,0.011-11.212-1.139
		c-1.72-0.519-3.429-1.208-5.132-2.069c-3.008,1.011-6.169,1.454-9.486,1.324c-0.774-0.035-1.684-0.134-2.723-0.297l-0.091-0.026
		c-0.22-0.066-0.399-0.208-0.541-0.424c-0.144-0.217-0.193-0.462-0.154-0.733c-0.003-0.065,0.007-0.133,0.029-0.203
		c0.021-0.07,0.044-0.134,0.072-0.192c0.026-0.057,0.065-0.109,0.113-0.16s0.089-0.093,0.119-0.128
		c0.033-0.034,0.085-0.078,0.156-0.133c0.069-0.056,0.127-0.093,0.165-0.113c0.04-0.022,0.098-0.059,0.18-0.11
		c0.081-0.052,0.135-0.084,0.161-0.098c0.135-0.091,0.439-0.271,0.915-0.543c0.475-0.271,0.822-0.487,1.044-0.648
		c0.224-0.162,0.535-0.384,0.938-0.665c0.4-0.284,0.767-0.594,1.097-0.93c0.331-0.336,0.667-0.714,1.014-1.133
		c-2.045-2.186-3.462-4.542-4.248-7.065c-0.787-2.526-0.822-4.978-0.105-7.356c0.836-2.777,2.55-5.062,5.14-6.854
		C1412.553,477.866,1415.676,476.775,1419.337,476.385z M1437.496,485.502c-2.344-1.841-5.044-3.221-8.102-4.142
		c-3.059-0.921-6.072-1.263-9.043-1.023c-2.969,0.237-5.506,1.009-7.611,2.315c-2.104,1.307-3.462,2.979-4.076,5.017
		c-0.494,1.638-0.442,3.375,0.162,5.213c0.601,1.839,1.692,3.606,3.271,5.303l2.402,2.555l-1.808,2.201
		c0.8-0.196,1.537-0.398,2.211-0.61l1.598-0.531l1.498,0.779c1.474,0.748,2.96,1.349,4.461,1.801c3.057,0.92,6.07,1.264,9.04,1.024
		c2.972-0.238,5.51-1.01,7.612-2.317c2.104-1.305,3.464-2.977,4.079-5.015c0.614-2.038,0.403-4.184-0.629-6.435
		C1441.531,489.386,1439.842,487.342,1437.496,485.502z M1444.631,519.984c0.055,0.539,0.129,1.04,0.218,1.504
		c0.088,0.463,0.223,0.921,0.402,1.379c0.177,0.457,0.315,0.813,0.41,1.072c0.097,0.257,0.27,0.631,0.513,1.119
		c0.247,0.487,0.4,0.807,0.465,0.957c0.014,0.025,0.039,0.082,0.078,0.172c0.039,0.087,0.071,0.15,0.092,0.189
		c0.021,0.038,0.046,0.102,0.074,0.186c0.028,0.085,0.046,0.151,0.055,0.198c0.007,0.045,0.017,0.102,0.029,0.171
		c0.012,0.069,0.014,0.136,0.006,0.198c-0.006,0.063-0.021,0.13-0.043,0.199c-0.021,0.07-0.052,0.132-0.089,0.187
		c-0.144,0.262-0.339,0.441-0.589,0.541c-0.246,0.1-0.488,0.104-0.723,0.012c-0.956-0.44-1.769-0.861-2.434-1.257
		c-2.836-1.727-5.228-3.842-7.177-6.347c-1.893-0.222-3.7-0.592-5.418-1.109c-5.414-1.632-9.733-4.371-12.955-8.218
		c1.136,0.429,2.001,0.731,2.603,0.913c3.216,0.97,6.438,1.45,9.665,1.442c3.229-0.009,6.255-0.502,9.079-1.482
		c3.051-1.085,5.608-2.626,7.669-4.62c2.062-1.995,3.494-4.331,4.301-7.008c0.464-1.539,0.692-3.127,0.684-4.764
		c2.15,2.194,3.654,4.589,4.508,7.178c0.854,2.59,0.912,5.112,0.171,7.569c-0.723,2.397-2.108,4.428-4.155,6.089
		C1450.021,518.115,1447.541,519.292,1444.631,519.984z"/>
	<path clip-path="url(#SVGID_2_)" fill="#26A9E0" d="M57.871,239.421c1.621-1.025,3.367-1.329,5.24-0.908
		c1.874,0.421,3.325,1.44,4.352,3.062s1.328,3.368,0.909,5.24c-0.421,1.873-1.44,3.324-3.062,4.351l11.158,17.616
		c1.01,1.59,1.299,3.332,0.871,5.231c-0.423,1.898-1.432,3.352-3.023,4.361c-19.473-2.535-35.572-0.482-48.292,6.161
		c-1.405,1.705-2.159,3.599-2.257,5.672c-0.1,2.078,0.401,3.915,1.497,5.513c1.102,1.596,2.605,2.624,4.524,3.081
		c0.029,1.395,0.313,2.62,0.85,3.671c0.536,1.054,1.189,1.881,1.961,2.486c0.766,0.607,1.813,1.123,3.135,1.55
		c1.317,0.43,2.539,0.728,3.652,0.898c1.117,0.174,2.547,0.348,4.29,0.532c0.236,2.333-0.664,4.684-2.702,7.046
		c-2.037,2.362-4.505,4.17-7.396,5.425c-2.892,1.254-5.447,1.684-7.669,1.29c-0.658-0.569-1.959-1.621-3.896-3.159
		c-1.939-1.535-3.343-2.668-4.214-3.402c-0.871-0.733-2.082-1.873-3.64-3.414c-1.559-1.544-2.765-2.943-3.626-4.197
		c-0.86-1.255-1.761-2.795-2.699-4.623c-0.942-1.822-1.676-3.726-2.204-5.707l-5.596,3.546c-2.02,1.277-4.199,1.654-6.547,1.127
		c-2.351-0.526-4.164-1.797-5.441-3.816l-5.58-8.81c-1.277-2.017-1.654-4.199-1.127-6.551c0.528-2.346,1.799-4.16,3.816-5.438
		l22.021-13.948c13.302-8.429,23.284-22.977,29.942-43.652c1.592-1.01,3.338-1.299,5.236-0.871c1.899,0.425,3.351,1.433,4.358,3.022
		L57.871,239.421z M69.549,270.85l-27.722-43.764c-6.199,16.869-14.617,29.551-25.263,38.052l7.846,12.385
		C36.752,271.506,51.801,269.279,69.549,270.85z"/>
	<path clip-path="url(#SVGID_2_)" fill="#26A9E0" d="M45.521,494.61c1.042,2.263,1.554,4.28,1.54,6.049l-0.231,29.329
		c-0.016,0.837-0.262,1.605-0.734,2.302c-0.473,0.694-1.082,1.216-1.83,1.56c-0.747,0.344-1.54,0.47-2.374,0.378
		c-0.836-0.095-1.568-0.411-2.195-0.952l-22.472-18.871c-1.357-1.137-2.554-2.838-3.597-5.1c-2.027-4.402-2.203-8.877-0.523-13.427
		c1.68-4.55,4.72-7.839,9.122-9.866c4.402-2.029,8.877-2.203,13.427-0.523S43.491,490.208,45.521,494.61z M37.808,504.997
		c0.84-2.274,0.751-4.511-0.262-6.712s-2.658-3.723-4.933-4.562c-2.274-0.838-4.513-0.752-6.714,0.264
		c-2.201,1.013-3.72,2.657-4.562,4.931c-0.836,2.277-0.752,4.514,0.262,6.715c1.012,2.2,2.659,3.721,4.934,4.56
		c2.274,0.84,4.512,0.754,6.712-0.261C35.447,508.917,36.967,507.273,37.808,504.997z"/>
</g>
</svg>
