<?xml version="1.0" encoding="UTF-8"?>
<!DOCTYPE svg  PUBLIC '-//W3C//DTD SVG 1.1//EN'  'http://www.w3.org/Graphics/SVG/1.1/DTD/svg11.dtd'>
<svg enable-background="new 0 0 1440 811" version="1.1" viewBox="0 0 1440 811" xml:space="preserve" xmlns="http://www.w3.org/2000/svg" xmlns:xlink="http://www.w3.org/1999/xlink">
<title>BG_icon1</title>
<desc>Created with Sketch.</desc>
	<defs>
		<rect id="b" x="1" width="1438" height="811"/>
	</defs>
	<clipPath id="a">
		<use overflow="visible" xlink:href="#b"/>
	</clipPath>
	<rect x="1" width="1438" height="811" clip-path="url(#a)" fill="#EF8A88"/>
	<path d="m130.32 758.08l-1.143 2.568c-0.04 0.093-0.112 0.169-0.217 0.229-0.104 0.059-0.199 0.074-0.287 0.046l-2.3-0.623c-0.246 0.278-0.55 0.564-0.913 0.857 0.117 0.584 0.297 1.302 0.539 2.153 0.024 0.121 0.016 0.228-0.025 0.32-0.05 0.111-0.122 0.185-0.216 0.221-0.336 0.183-0.901 0.428-1.696 0.733-0.797 0.306-1.283 0.42-1.458 0.342-0.103-0.046-0.185-0.121-0.248-0.228l-1.041-1.959c-0.422 0.023-0.841 9e-3 -1.261-0.046-0.547 0.955-0.972 1.626-1.275 2.012-0.165 0.193-0.354 0.242-0.565 0.148l-2.583-1.148c-0.103-0.046-0.179-0.121-0.231-0.228s-0.062-0.208-0.03-0.306l0.624-2.266c-0.273-0.232-0.557-0.53-0.849-0.894l-2.188 0.508c-0.094 0.035-0.2 0.027-0.321-0.026-0.103-0.045-0.183-0.126-0.242-0.241-0.785-1.823-1.123-2.86-1.012-3.11 0.037-0.083 0.109-0.156 0.215-0.221 0.15-0.088 0.448-0.249 0.896-0.482 0.447-0.234 0.789-0.419 1.029-0.557-0.033-0.502-0.026-0.954 0.02-1.355l-1.963-1.271c-0.088-0.051-0.147-0.13-0.178-0.237-0.029-0.107-0.021-0.212 0.024-0.313l1.141-2.569c0.042-0.093 0.114-0.168 0.218-0.228 0.104-0.059 0.2-0.074 0.287-0.047l2.301 0.624c0.246-0.279 0.55-0.564 0.913-0.857-0.117-0.585-0.297-1.303-0.54-2.153-0.019-0.131-0.01-0.238 0.027-0.32 0.049-0.112 0.122-0.189 0.22-0.234 0.327-0.188 0.891-0.431 1.688-0.729 0.798-0.3 1.284-0.41 1.461-0.333 0.102 0.047 0.185 0.122 0.248 0.228l1.042 1.959c0.388-0.026 0.811-0.017 1.266 0.031 0.547-0.954 0.97-1.62 1.271-1.996 0.163-0.193 0.352-0.243 0.564-0.148l2.583 1.147c0.102 0.046 0.179 0.122 0.231 0.229s0.062 0.208 0.03 0.305l-0.624 2.267c0.272 0.232 0.556 0.53 0.85 0.893l2.188-0.507c0.103-0.032 0.21-0.022 0.32 0.026 0.102 0.045 0.184 0.125 0.242 0.24 0.787 1.824 1.123 2.86 1.013 3.111-0.037 0.083-0.108 0.155-0.214 0.22-0.178 0.1-0.483 0.262-0.917 0.491-0.435 0.229-0.767 0.413-0.995 0.555 0.015 0.539 3e-3 0.989-0.035 1.349l1.97 1.258c0.084 0.06 0.141 0.143 0.171 0.251 0.027 0.104 0.02 0.209-0.025 0.311zm-8.051 0.943c1.002-0.386 1.721-1.069 2.157-2.05 0.437-0.981 0.461-1.974 0.076-2.977-0.386-1.003-1.069-1.723-2.05-2.158-0.981-0.437-1.975-0.461-2.977-0.076-1.003 0.387-1.723 1.069-2.158 2.051-0.437 0.98-0.463 1.974-0.076 2.976 0.386 1.004 1.069 1.723 2.051 2.158 0.981 0.436 1.973 0.462 2.977 0.076zm19.968-3.81l-0.863 1.943c-0.066 0.148-0.819-0.015-2.261-0.488-0.223 0.199-0.469 0.379-0.738 0.536 8e-3 1.256-0.041 2-0.143 2.231-0.017 0.036-0.05 0.061-0.1 0.072-1.421 0.155-2.141 0.229-2.16 0.221-0.073-0.034-0.189-0.346-0.348-0.937-0.158-0.592-0.259-1.014-0.303-1.266-0.193-0.063-0.336-0.116-0.428-0.157-0.094-0.041-0.228-0.112-0.405-0.213-0.216 0.136-0.597 0.345-1.142 0.623s-0.854 0.401-0.929 0.369c-0.019-9e-3 -0.446-0.593-1.283-1.751-0.025-0.045-0.029-0.086-0.014-0.122 0.104-0.232 0.624-0.766 1.561-1.602-0.063-0.306-0.096-0.608-0.096-0.907-1.317-0.753-1.943-1.202-1.878-1.351l0.864-1.944c0.065-0.147 0.819 0.016 2.261 0.49 0.239-0.215 0.485-0.394 0.737-0.537-7e-3 -1.256 0.041-1.999 0.144-2.23 0.017-0.037 0.05-0.062 0.1-0.073 0.044-2e-3 0.248-0.022 0.608-0.062 0.362-0.039 0.704-0.075 1.029-0.108 0.325-0.032 0.497-0.044 0.516-0.037 0.073 0.033 0.191 0.344 0.352 0.931s0.262 1.006 0.306 1.258c0.192 0.063 0.336 0.116 0.43 0.157 0.092 0.042 0.227 0.112 0.403 0.213 0.765-0.447 1.421-0.776 1.969-0.987l0.096 0.01c0.036 0.016 0.467 0.596 1.29 1.737 0.024 0.044 0.028 0.085 0.012 0.122-0.103 0.231-0.623 0.766-1.561 1.601 0.062 0.283 0.095 0.586 0.096 0.907 1.318 0.752 1.944 1.202 1.878 1.351zm-6.321 14.217l-0.863 1.944c-0.066 0.148-0.819-0.016-2.261-0.49-0.223 0.201-0.468 0.38-0.738 0.538 8e-3 1.255-0.04 1.999-0.143 2.23-0.017 0.037-0.05 0.061-0.099 0.073-1.422 0.155-2.142 0.229-2.16 0.22-0.074-0.033-0.19-0.345-0.349-0.937s-0.259-1.014-0.303-1.265c-0.193-0.064-0.336-0.116-0.429-0.157s-0.227-0.113-0.404-0.213c-0.216 0.136-0.597 0.344-1.142 0.623-0.545 0.277-0.855 0.4-0.929 0.368-0.019-8e-3 -0.446-0.592-1.284-1.751-0.024-0.045-0.029-0.085-0.013-0.122 0.104-0.231 0.624-0.766 1.561-1.602-0.063-0.306-0.096-0.607-0.096-0.907-1.317-0.752-1.943-1.201-1.878-1.35l0.865-1.944c0.065-0.147 0.818 0.016 2.26 0.489 0.239-0.214 0.485-0.395 0.738-0.536-8e-3 -1.257 0.04-2 0.143-2.231 0.017-0.037 0.05-0.062 0.1-0.073 0.045-1e-3 0.248-0.021 0.609-0.061 0.36-0.039 0.703-0.075 1.028-0.108s0.497-0.046 0.516-0.037c0.074 0.033 0.19 0.343 0.352 0.93s0.262 1.006 0.306 1.258c0.193 0.064 0.336 0.116 0.43 0.158 0.092 0.04 0.226 0.112 0.403 0.213 0.765-0.447 1.42-0.777 1.968-0.988l0.096 0.01c0.037 0.017 0.468 0.596 1.291 1.737 0.024 0.044 0.028 0.085 0.012 0.122-0.104 0.232-0.623 0.765-1.56 1.601 0.062 0.284 0.094 0.586 0.096 0.908 1.317 0.752 1.943 1.203 1.877 1.35zm2.334-14.827c0.214-0.48 0.223-0.975 0.028-1.483-0.196-0.509-0.534-0.869-1.016-1.083s-0.976-0.224-1.484-0.028c-0.509 0.196-0.869 0.534-1.082 1.015-0.219 0.492-0.231 0.988-0.039 1.489 0.193 0.501 0.534 0.861 1.025 1.079 0.49 0.218 0.987 0.23 1.487 0.037 0.503-0.193 0.864-0.535 1.081-1.026zm-6.321 14.219c0.215-0.48 0.225-0.976 0.029-1.484s-0.534-0.868-1.016-1.082c-0.481-0.215-0.977-0.224-1.484-0.028-0.508 0.196-0.869 0.534-1.082 1.015-0.219 0.492-0.231 0.987-0.039 1.488 0.193 0.501 0.534 0.861 1.025 1.079 0.49 0.219 0.986 0.231 1.488 0.038s0.861-0.535 1.079-1.026z" clip-path="url(#a)" fill="#fff" opacity=".4"/>
	<path d="m72.942 38.505l-16.479 42.005c-0.667 1.698-1.842 2.915-3.527 3.651-1.684 0.733-3.375 0.769-5.075 0.102l-56.828-22.295c-1.698-0.667-2.916-1.843-3.651-3.526-0.733-1.684-0.769-3.375-0.102-5.074l16.479-42.005c0.667-1.699 1.841-2.914 3.525-3.649 1.685-0.737 3.377-0.773 5.075-0.105l56.831 22.295c1.698 0.667 2.913 1.843 3.649 3.528 0.735 1.683 0.77 3.373 0.103 5.073zm-5.502-0.51c0.021-0.051 0.075-0.194 0.166-0.425 0.091-0.232 0.16-0.405 0.205-0.522 0.045-0.113 0.104-0.284 0.178-0.507 0.071-0.226 0.096-0.401 0.073-0.529-0.023-0.127-0.05-0.271-0.075-0.43-0.028-0.16-0.105-0.303-0.234-0.426-0.128-0.126-0.298-0.23-0.503-0.31l-56.83-22.294c-0.336-0.134-0.672-0.125-1.011 0.025-0.342 0.149-0.577 0.393-0.709 0.724-1.696 4.324-1.238 8.724 1.374 13.193 3.433 5.859 6.994 11.962 10.68 18.312 0.105 0.189 0.405 0.745 0.904 1.668 0.5 0.923 0.903 1.64 1.208 2.146 0.306 0.504 0.72 1.134 1.242 1.889 0.52 0.754 1.032 1.363 1.531 1.827 0.501 0.463 1.01 0.794 1.525 0.998l0.039 0.015 0.039 0.015c0.515 0.204 1.113 0.305 1.795 0.308 0.684 0 1.473-0.099 2.368-0.3 0.893-0.197 1.625-0.379 2.194-0.543 0.568-0.16 1.349-0.41 2.344-0.749 0.993-0.337 1.592-0.541 1.798-0.606 7.019-2.148 13.78-4.203 20.283-6.167 1.823-0.562 3.698-1.539 5.628-2.935 1.93-1.402 3.192-2.857 3.788-4.377zm-15.918 40.576l11.632-29.65c-1.187 0.603-2.408 1.103-3.662 1.503-8.979 2.598-16.168 4.797-21.568 6.596-1.747 0.593-3.153 1.034-4.219 1.33-1.066 0.294-2.423 0.481-4.074 0.562s-3.092-0.124-4.329-0.606l-0.038-0.015-0.039-0.016c-1.236-0.485-2.432-1.317-3.586-2.499-1.155-1.183-2.024-2.243-2.606-3.182-0.581-0.942-1.311-2.222-2.188-3.844-2.735-4.99-6.511-11.492-11.326-19.501-0.652-1.144-1.205-2.344-1.665-3.594l-11.632 29.65c-0.132 0.335-0.125 0.673 0.025 1.012 0.148 0.342 0.39 0.578 0.725 0.709l56.83 22.294c0.334 0.131 0.673 0.124 1.012-0.024s0.577-0.391 0.708-0.725z" clip-path="url(#a)" fill="#fff" opacity=".4"/>
	<path d="m218.38 21.883c2.382 2.143 3.332 4.283 2.85 6.434-0.483 2.146-2.275 3.66-5.38 4.543l-50.623 14.39c-3.106 0.883-5.429 0.537-6.971-1.037-1.538-1.574-1.859-3.896-0.958-6.971l12.201-41.127-4.985-17.533-2.814 0.797c-0.762 0.217-1.5 0.127-2.213-0.273-0.713-0.398-1.18-0.979-1.396-1.738-0.217-0.764-0.127-1.502 0.271-2.215 0.398-0.715 0.978-1.18 1.738-1.396l22.501-6.398c0.759-0.217 1.5-0.123 2.215 0.277 0.713 0.396 1.18 0.975 1.397 1.74 0.216 0.758 0.126 1.5-0.274 2.213-0.396 0.715-0.978 1.182-1.738 1.396l-2.813 0.801 4.983 17.533 32.009 28.564zm-43.289-22.129l-6.593 22.246 31.288-8.891-17.313-15.457-1.265-1.111-0.462-1.625-4.981-17.535-5.626 1.602 4.98 17.533 0.464 1.625-0.492 1.613z" clip-path="url(#a)" fill="#fff" opacity=".4"/>
	<path d="m1441.7 535.18c0.477 1.703 0.288 2.983-0.572 3.844-0.86 0.859-2.144 1.036-3.855 0.53l-27.883-8.246c-1.71-0.505-2.691-1.354-2.945-2.545-0.253-1.188 0.283-2.367 1.613-3.537l17.852-15.59 2.854-9.657-1.547-0.459c-0.42-0.124-0.736-0.386-0.953-0.781-0.215-0.397-0.26-0.808-0.136-1.226 0.124-0.42 0.383-0.737 0.779-0.953 0.397-0.216 0.805-0.263 1.225-0.138l12.394 3.664c0.42 0.124 0.736 0.387 0.952 0.783 0.218 0.397 0.263 0.806 0.139 1.226-0.123 0.418-0.384 0.738-0.782 0.953-0.396 0.216-0.806 0.261-1.225 0.139l-1.549-0.46-2.858 9.657 6.497 22.796zm-13.665-23.126l-9.654 8.437 17.231 5.099-3.512-12.333-0.261-0.893 0.266-0.896 2.858-9.658-3.102-0.915-2.859 9.656-0.262 0.896-0.705 0.607z" clip-path="url(#a)" fill="#fff" opacity=".4"/>
	<path d="m-1.535 580.98c2.497-1.509 4.997-2.084 7.491-1.725 2.497 0.368 4.482 1.767 5.956 4.201 0.768 1.27 1.224 2.622 1.364 4.084 0.145 1.445 0.108 2.712-0.105 3.792-0.213 1.071-0.272 2.302-0.177 3.674 0.097 1.379 0.488 2.636 1.176 3.778 2.057 3.396 4.994 3.935 8.823 1.618 1.2-0.73 2.826-2.051 4.87-3.962 2.049-1.91 3.683-3.218 4.904-3.912l0.235-0.144c0.409 0.674 0.735 1.181 0.972 1.495 0.725 0.997 1.809 2.396 3.26 4.194 1.445 1.799 2.733 3.462 3.856 4.968 1.126 1.508 2.123 2.975 2.979 4.392 1.138 1.884 1.691 3.725 1.659 5.512-0.032 1.786-0.934 3.217-2.688 4.277-1.144 0.694-2.402 1.085-3.775 1.179-1.378 0.096-2.602 0.039-3.679-0.17-1.081-0.213-2.344-0.25-3.798-0.106-1.451 0.138-2.811 0.59-4.075 1.356-2.435 1.477-3.839 3.462-4.205 5.962-0.359 2.497 0.211 4.994 1.727 7.492 1.564 2.589 3.604 4.374 6.107 5.34 2.507 0.973 5.027 0.694 7.556-0.837 1.321-0.804 2.463-1.811 3.42-3.023 0.952-1.205 1.633-2.326 2.046-3.354 0.409-1.028 0.916-2.041 1.513-3.035 0.598-0.995 1.236-1.696 1.917-2.107 1.388-0.837 3.193-0.961 5.403-0.363 1.772 0.49 3.406 1.964 4.896 4.438 1.78 2.927 3.694 6.931 5.758 12.003 0.098 0.317 0.296 0.775 0.578 1.391 0.29 0.606 0.485 1.066 0.593 1.382l0.269 0.656c0.017 0.03 0.032 0.086 0.037 0.17 0.037 0.058 0.037 0.101 9e-3 0.118l-47.386 28.682c-3e-3 -0.08-0.116-0.381-0.329-0.907-0.208-0.525-0.453-1.093-0.722-1.716-0.264-0.616-0.414-0.979-0.433-1.096-2.064-5.072-3.979-9.074-5.756-12.004-1.49-2.468-3.124-3.945-4.899-4.432-2.21-0.601-4.015-0.479-5.4 0.361-0.681 0.409-1.324 1.113-1.922 2.107-0.6 0.994-1.102 2.009-1.516 3.038-0.409 1.024-1.092 2.146-2.044 3.352-0.955 1.212-2.098 2.22-3.42 3.021-2.531 1.533-5.051 1.812-7.555 0.836-2.507-0.97-4.55-2.761-6.138-5.385-1.491-2.467-2.062-4.947-1.694-7.447 0.365-2.499 1.766-4.484 4.202-5.957 1.267-0.769 2.624-1.219 4.078-1.365 1.458-0.145 2.721-0.107 3.796 0.112 1.071 0.208 2.298 0.268 3.676 0.171 1.379-0.097 2.634-0.486 3.775-1.177 1.756-1.067 2.658-2.492 2.693-4.279 0.034-1.79-0.522-3.627-1.665-5.508-1.194-1.978-3.103-4.614-5.731-7.913-2.632-3.298-4.414-5.653-5.354-7.061l0.093-0.059c0.079-0.012 0.379-0.118 0.904-0.334 0.525-0.207 1.101-0.449 1.712-0.716 0.625-0.27 0.982-0.414 1.097-0.444 5.076-2.058 9.078-3.975 12.004-5.752 2.468-1.493 3.953-3.124 4.44-4.897 0.598-2.216 0.473-4.017-0.367-5.403-0.411-0.683-1.109-1.32-2.106-1.917-0.995-0.604-2.002-1.104-3.035-1.516-1.031-0.409-2.149-1.092-3.359-2.047-1.207-0.957-2.212-2.093-3.021-3.425-1.524-2.524-1.806-5.04-0.836-7.551 0.971-2.502 2.753-4.54 5.346-6.106z" clip-path="url(#a)" fill="#fff" opacity=".4"/>
	<path d="m1455.3 255.88c-1.418 1.601-3.042 2.548-4.866 2.841-1.828 0.288-3.521-0.258-5.085-1.64-0.814-0.721-1.428-1.568-1.845-2.561-0.417-0.98-0.667-1.875-0.754-2.676-0.085-0.796-0.312-1.67-0.678-2.61-0.369-0.944-0.917-1.738-1.647-2.388-2.181-1.927-4.354-1.664-6.527 0.793-0.68 0.772-1.53 2.051-2.543 3.834-1.018 1.784-1.875 3.056-2.578 3.808l-0.133 0.152c-0.434-0.382-0.772-0.666-1.007-0.834-0.725-0.54-1.788-1.282-3.196-2.224-1.404-0.943-2.669-1.826-3.783-2.635-1.117-0.809-2.134-1.619-3.043-2.423-1.208-1.069-1.996-2.237-2.364-3.495-0.368-1.257-0.048-2.455 0.947-3.58 0.649-0.735 1.444-1.284 2.385-1.648 0.944-0.368 1.813-0.596 2.612-0.684 0.802-0.087 1.694-0.336 2.681-0.754 0.985-0.413 1.838-1.026 2.556-1.838 1.382-1.564 1.931-3.26 1.642-5.09-0.293-1.825-1.237-3.448-2.843-4.866-1.66-1.47-3.477-2.274-5.438-2.404-1.968-0.134-3.67 0.611-5.105 2.234-0.749 0.851-1.329 1.805-1.733 2.862-0.403 1.051-0.635 1.984-0.701 2.794-0.061 0.809-0.194 1.627-0.396 2.454s-0.496 1.457-0.882 1.893c-0.789 0.888-2.025 1.37-3.701 1.433-1.348 0.043-2.812-0.631-4.396-2.037-1.884-1.66-4.099-4.044-6.648-7.143-0.138-0.201-0.376-0.479-0.707-0.848-0.335-0.361-0.572-0.64-0.718-0.837l-0.33-0.4c-0.02-0.018-0.042-0.053-0.063-0.111-0.038-0.033-0.048-0.063-0.032-0.081l26.902-30.41c0.02 0.056 0.164 0.241 0.429 0.563 0.26 0.322 0.556 0.666 0.88 1.043 0.318 0.374 0.503 0.595 0.541 0.672 2.551 3.099 4.765 5.482 6.647 7.144 1.581 1.402 3.047 2.08 4.396 2.032 1.677-0.062 2.913-0.541 3.699-1.431 0.388-0.435 0.685-1.068 0.887-1.894 0.202-0.827 0.332-1.646 0.396-2.457 0.062-0.806 0.296-1.74 0.699-2.791 0.403-1.057 0.984-2.011 1.733-2.86 1.437-1.625 3.14-2.371 5.104-2.233 1.967 0.131 3.787 0.939 5.471 2.429 1.582 1.401 2.522 3.012 2.811 4.842 0.29 1.829-0.257 3.523-1.641 5.085-0.719 0.814-1.569 1.425-2.555 1.845-0.989 0.419-1.881 0.669-2.681 0.75-0.796 0.088-1.667 0.314-2.61 0.683s-1.738 0.915-2.385 1.647c-0.996 1.13-1.316 2.324-0.951 3.583 0.367 1.26 1.156 2.424 2.366 3.491 1.268 1.123 3.179 2.551 5.738 4.287 2.561 1.734 4.322 2.993 5.286 3.773l-0.053 0.061c-0.052 0.025-0.239 0.166-0.56 0.431-0.321 0.259-0.672 0.555-1.041 0.875-0.379 0.325-0.597 0.504-0.672 0.55-3.103 2.547-5.485 4.762-7.145 6.645-1.401 1.583-2.085 3.049-2.039 4.396 0.064 1.682 0.546 2.914 1.436 3.702 0.437 0.388 1.063 0.682 1.892 0.882 0.828 0.206 1.643 0.335 2.455 0.398 0.811 0.062 1.742 0.295 2.797 0.7 1.055 0.406 2.005 0.981 2.862 1.737 1.618 1.434 2.363 3.133 2.233 5.101-0.133 1.962-0.937 3.777-2.408 5.438z" clip-path="url(#a)" fill="#fff" opacity=".4"/>
	<path d="m1365.7 709.25c0.625-1.23 1.613-2.065 2.969-2.503 1.352-0.443 2.646-0.352 3.873 0.271 6.287 14.604 14.569 24.514 24.844 29.734l17.014 8.641c1.559 0.788 2.611 2.022 3.158 3.695 0.546 1.676 0.426 3.291-0.368 4.851l-3.455 6.804c-0.791 1.56-2.023 2.613-3.698 3.16-1.676 0.545-3.292 0.424-4.853-0.368l-4.323-2.193c-0.246 1.48-0.648 2.915-1.208 4.311-0.559 1.397-1.108 2.58-1.646 3.553-0.541 0.976-1.324 2.08-2.35 3.312-1.029 1.233-1.836 2.145-2.418 2.739-0.584 0.596-1.527 1.518-2.834 2.772-1.306 1.253-2.181 2.109-2.619 2.571-1.593 0.44-3.483 0.305-5.679-0.41-2.191-0.714-4.114-1.858-5.764-3.439-1.65-1.579-2.47-3.231-2.458-4.947 1.256-0.253 2.289-0.479 3.087-0.685 0.799-0.206 1.671-0.502 2.6-0.908 0.938-0.4 1.659-0.85 2.178-1.348 0.517-0.493 0.94-1.139 1.258-1.945 0.319-0.803 0.438-1.716 0.362-2.734 1.37-0.464 2.395-1.318 3.084-2.557 0.688-1.243 0.927-2.615 0.709-4.124-0.215-1.503-0.896-2.832-2.037-3.978-9.731-3.957-21.605-4.336-35.616-1.14-1.229-0.623-2.064-1.614-2.503-2.968-0.446-1.355-0.355-2.644 0.27-3.872l6.911-13.612c-1.252-0.635-2.098-1.622-2.532-2.956-0.438-1.334-0.339-2.629 0.301-3.884 0.634-1.25 1.619-2.093 2.956-2.532 1.334-0.438 2.628-0.338 3.883 0.3l6.904-13.611zm20.115 39.055l4.858-9.568c-8.347-5.456-15.358-14.113-21.047-25.974l-17.165 33.809c12.825-2.373 23.944-1.794 33.354 1.733z" clip-path="url(#a)" fill="#fff" opacity=".4"/>
	<path d="m1496.7 579.26c0.523 0.597 0.642 1.262 0.354 1.994l-17.176 42.018c-0.221 0.527-0.619 0.885-1.201 1.072-0.3 0.092-0.61 0.102-0.934 0.028-0.208-0.048-0.424-0.146-0.648-0.296l-13.597-9.509-10.58 7.376c-0.431 0.319-0.921 0.418-1.471 0.292-0.266-0.06-0.474-0.147-0.628-0.261-0.331-0.214-0.564-0.502-0.702-0.861-0.138-0.36-0.162-0.729-0.077-1.109l2.914-12.849-12.176-8.53c-0.642-0.425-0.901-1.03-0.783-1.822 0.111-0.75 0.541-1.242 1.291-1.47l53.494-16.566c0.753-0.247 1.393-0.084 1.92 0.493zm-19.384 40.413l14.809-36.188-46.096 14.268 8.668 6.061 28.654-12.604-18.728 19.579 12.693 8.884z" clip-path="url(#a)" fill="#fff" opacity=".4"/>
	<path d="m1443.4-6.292c5.668 4.983 9.724 11.137 12.16 18.46 2.439 7.325 2.884 14.681 1.334 22.067-1.551 7.387-4.817 13.915-9.802 19.583-4.983 5.669-11.137 9.723-18.46 12.162-7.325 2.438-14.68 2.882-22.067 1.331-7.387-1.548-13.913-4.816-19.583-9.798-5.669-4.983-9.723-11.139-12.16-18.462-2.439-7.324-2.883-14.679-1.333-22.065 1.55-7.387 4.817-13.914 9.8-19.584 4.983-5.667 11.137-9.722 18.462-12.16 7.324-2.438 14.68-2.882 22.065-1.333 7.387 1.55 13.915 4.816 19.584 9.799zm1.326 38.009c1.099-5.232 0.787-10.441-0.939-15.629-1.727-5.185-4.599-9.542-8.616-13.072-4.017-3.528-8.642-5.842-13.872-6.942-5.231-1.099-10.442-0.787-15.626 0.94-5.188 1.727-9.546 4.6-13.074 8.616s-5.844 8.641-6.942 13.873c-1.1 5.233-0.786 10.442 0.94 15.627 1.726 5.187 4.598 9.544 8.614 13.072 4.018 3.529 8.642 5.843 13.874 6.942 5.231 1.1 10.44 0.788 15.628-0.939 5.186-1.727 9.544-4.598 13.072-8.616 3.527-4.016 5.844-8.64 6.941-13.872zm-28.966-26.85l7.84 23.548c0.164 0.491 0.14 0.946-0.07 1.366-0.211 0.421-0.561 0.712-1.051 0.875l-16.82 5.601c-0.491 0.163-0.947 0.141-1.367-0.071-0.42-0.21-0.712-0.561-0.875-1.05l-1.121-3.365c-0.162-0.491-0.139-0.947 0.071-1.367s0.56-0.712 1.05-0.876l11.775-3.92-6.159-18.502c-0.163-0.491-0.14-0.946 0.07-1.368 0.21-0.418 0.56-0.711 1.05-0.875l3.365-1.12c0.491-0.164 0.947-0.14 1.367 0.07 0.42 0.212 0.712 0.563 0.875 1.054z" clip-path="url(#a)" fill="#fff" opacity=".4"/>
	<path d="m51.892 212.96v3.355c0 0.455-0.166 0.85-0.499 1.181-0.332 0.333-0.726 0.499-1.18 0.499h-3.75c-0.646 2.814-1.998 5.249-4.052 7.303-2.055 2.055-4.489 3.406-7.304 4.053v3.75c0 0.453-0.167 0.848-0.498 1.18-0.332 0.332-0.727 0.498-1.181 0.498h-3.356c-0.455 0-0.849-0.166-1.181-0.498s-0.498-0.727-0.498-1.18v-3.75c-2.815-0.646-5.25-1.998-7.304-4.053-2.055-2.054-3.405-4.488-4.052-7.303h-3.75c-0.455 0-0.849-0.166-1.181-0.499-0.332-0.331-0.498-0.726-0.498-1.181v-3.355c0-0.455 0.166-0.849 0.498-1.181s0.726-0.499 1.181-0.499h3.75c0.646-2.814 1.997-5.248 4.052-7.303 2.054-2.055 4.488-3.405 7.304-4.053v-3.75c0-0.455 0.166-0.848 0.498-1.18s0.726-0.498 1.181-0.498h3.356c0.454 0 0.849 0.166 1.181 0.498 0.331 0.332 0.498 0.725 0.498 1.18v3.75c2.814 0.647 5.249 1.998 7.304 4.053 2.054 2.055 3.405 4.488 4.052 7.303h3.75c0.454 0 0.848 0.167 1.18 0.499 0.333 0.332 0.499 0.726 0.499 1.181zm-8.891 5.035h-2.858c-0.455 0-0.849-0.166-1.18-0.499-0.333-0.331-0.499-0.726-0.499-1.181v-3.355c0-0.455 0.166-0.849 0.499-1.181 0.331-0.332 0.725-0.499 1.18-0.499h2.858c-0.56-1.888-1.543-3.535-2.95-4.943-1.408-1.406-3.055-2.391-4.943-2.949v2.857c0 0.455-0.167 0.849-0.498 1.181-0.332 0.333-0.727 0.498-1.181 0.498h-3.356c-0.455 0-0.849-0.165-1.181-0.498-0.332-0.332-0.498-0.726-0.498-1.181v-2.857c-1.888 0.559-3.536 1.543-4.943 2.949-1.408 1.408-2.392 3.056-2.95 4.943h2.858c0.454 0 0.848 0.167 1.18 0.499s0.499 0.726 0.499 1.181v3.355c0 0.455-0.167 0.85-0.499 1.181-0.332 0.333-0.726 0.499-1.18 0.499h-2.859c0.559 1.888 1.542 3.535 2.95 4.943 1.407 1.407 3.056 2.391 4.943 2.949v-2.857c0-0.455 0.166-0.849 0.498-1.181 0.332-0.331 0.726-0.498 1.181-0.498h3.356c0.454 0 0.849 0.167 1.181 0.498 0.331 0.332 0.498 0.726 0.498 1.181v2.857c1.889-0.559 3.535-1.542 4.943-2.949 1.408-1.408 2.392-3.056 2.951-4.943z" clip-path="url(#a)" fill="#fff" opacity=".4"/>
	<path d="m1448.4 683.14c0.811 3.008 0.646 5.828-0.496 8.461-1.143 2.632-3.089 4.681-5.838 6.144-2.75 1.463-5.946 2.175-9.586 2.137-3.642-0.037-7.271-0.841-10.889-2.41-1.629-0.706-3.229-1.581-4.802-2.623-3.072 0.646-6.23 0.718-9.477 0.21-0.756-0.125-1.636-0.326-2.641-0.605l-0.085-0.037c-0.208-0.091-0.37-0.249-0.484-0.479s-0.137-0.476-0.067-0.738c6e-3 -0.064 0.022-0.131 0.052-0.197 0.028-0.066 0.06-0.126 0.094-0.179s0.078-0.101 0.132-0.146c0.053-0.045 0.096-0.081 0.132-0.111 0.035-0.029 0.09-0.066 0.168-0.113 0.075-0.046 0.134-0.076 0.174-0.093 0.041-0.016 0.104-0.044 0.189-0.086 0.087-0.042 0.143-0.067 0.17-0.079 0.145-0.072 0.465-0.215 0.961-0.427 0.497-0.212 0.865-0.384 1.103-0.518s0.569-0.315 0.997-0.547c0.427-0.231 0.821-0.493 1.185-0.786 0.363-0.292 0.738-0.625 1.124-0.997-1.756-2.383-2.877-4.86-3.357-7.432-0.483-2.573-0.235-4.985 0.743-7.239 1.142-2.633 3.088-4.681 5.838-6.144 2.749-1.462 5.944-2.175 9.585-2.138 3.642 0.038 7.271 0.842 10.888 2.41 3.617 1.569 6.685 3.671 9.2 6.303 2.513 2.632 4.176 5.453 4.987 8.459zm7.259 20.466c-0.986 2.273-2.581 4.107-4.784 5.504s-4.774 2.267-7.716 2.611c-8e-3 0.537 7e-3 1.038 0.041 1.504 0.035 0.465 0.112 0.932 0.235 1.401s0.217 0.835 0.282 1.101c0.065 0.265 0.19 0.651 0.376 1.159 0.185 0.507 0.299 0.839 0.345 0.993 0.01 0.027 0.03 0.086 0.059 0.178 0.027 0.091 0.05 0.156 0.066 0.197s0.032 0.104 0.051 0.191c0.02 0.086 0.029 0.152 0.032 0.199 2e-3 0.046 6e-3 0.104 9e-3 0.173 4e-3 0.069-2e-3 0.134-0.017 0.195-0.016 0.061-0.038 0.124-0.066 0.19-0.029 0.066-0.064 0.124-0.108 0.172-0.171 0.241-0.385 0.396-0.64 0.466-0.256 0.069-0.492 0.046-0.712-0.072-0.89-0.544-1.638-1.049-2.246-1.515-2.588-2.023-4.695-4.378-6.32-7.062-1.837-0.436-3.569-1.008-5.198-1.715-5.134-2.227-9.061-5.416-11.783-9.567 1.065 0.552 1.882 0.951 2.45 1.198 3.05 1.322 6.16 2.166 9.334 2.529 3.173 0.363 6.203 0.227 9.091-0.412 3.124-0.715 5.812-1.934 8.067-3.656s3.934-3.852 5.034-6.391c0.633-1.458 1.039-2.992 1.22-4.603 1.86 2.405 3.061 4.93 3.603 7.572 0.541 2.646 0.305 5.131-0.705 7.46z" clip-path="url(#a)" fill="#fff" opacity=".4"/>
	<path d="m49.757 841.34l-2.321 4.515c-0.084 0.163-0.223 0.292-0.416 0.388-0.194 0.097-0.367 0.115-0.522 0.056l-4.083-1.358c-0.472 0.477-1.05 0.961-1.734 1.452 0.151 1.065 0.402 2.377 0.753 3.936 0.03 0.222 3e-3 0.413-0.081 0.575-0.1 0.195-0.236 0.32-0.409 0.376-0.625 0.296-1.67 0.679-3.135 1.149-1.466 0.47-2.353 0.625-2.662 0.467-0.18-0.093-0.321-0.237-0.425-0.435l-1.677-3.639c-0.761 0-1.517-0.069-2.268-0.21-1.083 1.665-1.917 2.83-2.506 3.494-0.314 0.332-0.659 0.401-1.033 0.209l-4.538-2.333c-0.179-0.093-0.311-0.237-0.394-0.435s-0.093-0.381-0.025-0.552l1.358-4.022c-0.469-0.447-0.95-1.012-1.441-1.697l-3.996 0.691c-0.172 0.056-0.364 0.029-0.575-0.08-0.179-0.092-0.317-0.244-0.412-0.459-1.23-3.367-1.733-5.271-1.507-5.71 0.075-0.146 0.211-0.271 0.409-0.376 0.28-0.144 0.835-0.403 1.666-0.779 0.83-0.375 1.467-0.674 1.912-0.898-7e-3 -0.908 0.052-1.721 0.175-2.439l-3.408-2.492c-0.155-0.1-0.254-0.249-0.296-0.445-0.043-0.196-0.019-0.385 0.074-0.564l2.321-4.514c0.083-0.162 0.222-0.291 0.416-0.388 0.193-0.097 0.368-0.114 0.522-0.056l4.083 1.359c0.471-0.478 1.049-0.962 1.734-1.453-0.152-1.065-0.403-2.377-0.753-3.936-0.022-0.237 4e-3 -0.43 0.08-0.575 0.1-0.195 0.241-0.329 0.421-0.4 0.609-0.304 1.648-0.685 3.118-1.144 1.469-0.457 2.358-0.607 2.667-0.447 0.179 0.092 0.32 0.236 0.425 0.434l1.676 3.639c0.704-8e-3 1.464 0.054 2.281 0.185 1.082-1.664 1.913-2.82 2.494-3.469 0.314-0.331 0.658-0.401 1.033-0.209l4.538 2.333c0.179 0.092 0.31 0.236 0.394 0.434s0.091 0.383 0.025 0.553l-1.358 4.021c0.469 0.447 0.949 1.014 1.44 1.698l3.996-0.691c0.188-0.048 0.381-0.021 0.576 0.08 0.179 0.092 0.316 0.244 0.412 0.459 1.23 3.368 1.733 5.271 1.507 5.71-0.075 0.146-0.212 0.271-0.409 0.376-0.329 0.159-0.896 0.424-1.702 0.79-0.806 0.369-1.423 0.668-1.851 0.9-0.027 0.973-0.094 1.781-0.199 2.428l3.421 2.468c0.146 0.116 0.24 0.272 0.283 0.47 0.042 0.193 0.018 0.381-0.074 0.56zm-14.613 0.879c1.848-0.592 3.214-1.751 4.101-3.476 0.887-1.724 1.033-3.51 0.441-5.357-0.593-1.847-1.752-3.214-3.476-4.101-1.725-0.887-3.51-1.033-5.358-0.441-1.847 0.594-3.214 1.752-4.101 3.477s-1.033 3.511-0.441 5.357c0.593 1.848 1.752 3.214 3.476 4.101s3.512 1.032 5.358 0.44zm36.388-4.831l-1.756 3.416c-0.134 0.261-1.476-0.11-4.025-1.112-0.421 0.339-0.882 0.636-1.384 0.892-0.116 2.266-0.277 3.602-0.486 4.008-0.034 0.064-0.096 0.104-0.185 0.12-2.58 0.135-3.885 0.193-3.917 0.177-0.13-0.066-0.309-0.642-0.533-1.724-0.225-1.083-0.364-1.853-0.416-2.312-0.342-0.135-0.594-0.244-0.757-0.328s-0.398-0.225-0.707-0.425c-0.404 0.224-1.111 0.561-2.122 1.007-1.012 0.447-1.582 0.637-1.712 0.57-0.033-0.018-0.744-1.113-2.134-3.288-0.041-0.083-0.044-0.156-0.01-0.222 0.209-0.406 1.201-1.314 2.976-2.727-0.083-0.558-0.11-1.105-0.08-1.646-2.299-1.489-3.381-2.365-3.247-2.625l1.756-3.416c0.134-0.26 1.475 0.111 4.025 1.113 0.453-0.363 0.915-0.66 1.384-0.893 0.116-2.265 0.278-3.6 0.487-4.008 0.033-0.064 0.095-0.104 0.186-0.12 0.081 1e-3 0.45-0.016 1.105-0.048 0.654-0.035 1.277-0.064 1.866-0.09s0.9-0.031 0.933-0.015c0.13 0.066 0.31 0.638 0.539 1.712s0.369 1.84 0.422 2.299c0.342 0.135 0.595 0.244 0.757 0.328 0.162 0.083 0.398 0.225 0.707 0.425 1.423-0.729 2.64-1.255 3.65-1.579l0.171 0.027c0.065 0.033 0.781 1.121 2.148 3.264 0.039 0.082 0.043 0.156 0.01 0.221-0.209 0.406-1.202 1.315-2.976 2.727 0.083 0.518 0.11 1.065 0.08 1.646 2.297 1.492 3.379 2.367 3.245 2.626zm-12.846 24.987l-1.756 3.416c-0.134 0.26-1.476-0.111-4.025-1.113-0.421 0.339-0.882 0.637-1.384 0.893-0.115 2.264-0.277 3.6-0.487 4.007-0.033 0.064-0.095 0.104-0.185 0.121-2.579 0.134-3.884 0.192-3.917 0.177-0.13-0.067-0.308-0.643-0.532-1.725-0.225-1.082-0.364-1.853-0.416-2.312-0.342-0.135-0.594-0.243-0.757-0.327s-0.398-0.226-0.707-0.426c-0.404 0.225-1.11 0.561-2.122 1.008-1.012 0.446-1.583 0.637-1.712 0.569-0.033-0.017-0.744-1.112-2.135-3.288-0.041-0.082-0.043-0.156-0.01-0.221 0.21-0.407 1.202-1.316 2.976-2.728-0.083-0.558-0.11-1.106-0.08-1.646-2.299-1.49-3.381-2.365-3.247-2.626l1.756-3.415c0.133-0.26 1.475 0.109 4.025 1.112 0.454-0.363 0.915-0.66 1.384-0.892 0.115-2.266 0.278-3.602 0.487-4.008 0.033-0.064 0.095-0.105 0.185-0.121 0.082 2e-3 0.45-0.016 1.105-0.049s1.277-0.062 1.867-0.089c0.589-0.026 0.899-0.031 0.933-0.015 0.13 0.066 0.31 0.638 0.539 1.713 0.23 1.073 0.37 1.84 0.422 2.299 0.342 0.135 0.594 0.244 0.757 0.328 0.162 0.083 0.397 0.225 0.707 0.424 1.423-0.729 2.64-1.254 3.65-1.578l0.171 0.026c0.064 0.033 0.781 1.122 2.148 3.264 0.039 0.083 0.043 0.156 9e-3 0.222-0.209 0.406-1.201 1.314-2.976 2.727 0.084 0.518 0.111 1.064 0.08 1.646 2.299 1.49 3.381 2.367 3.247 2.627zm5.721-26.49c0.435-0.846 0.502-1.736 0.202-2.672-0.301-0.937-0.874-1.622-1.719-2.057-0.846-0.436-1.737-0.502-2.673-0.202-0.937 0.301-1.621 0.874-2.056 1.72-0.443 0.862-0.517 1.755-0.221 2.678 0.296 0.924 0.875 1.607 1.738 2.051 0.862 0.443 1.755 0.518 2.678 0.221 0.925-0.298 1.608-0.876 2.051-1.739zm-12.845 24.986c0.434-0.846 0.501-1.737 0.202-2.673-0.301-0.937-0.874-1.621-1.719-2.056-0.846-0.436-1.737-0.503-2.673-0.203-0.936 0.301-1.621 0.874-2.056 1.72-0.443 0.862-0.516 1.755-0.22 2.679s0.875 1.607 1.738 2.051c0.862 0.443 1.755 0.517 2.678 0.221 0.923-0.298 1.606-0.877 2.05-1.739z" clip-path="url(#a)" fill="#fff" opacity=".4"/>
	<path d="m1379.9 139.23l-1.47 2.859c-0.053 0.103-0.141 0.185-0.263 0.246-0.123 0.061-0.232 0.073-0.331 0.035l-2.586-0.86c-0.298 0.302-0.664 0.608-1.098 0.919 0.097 0.675 0.255 1.505 0.478 2.492 0.019 0.14 2e-3 0.262-0.051 0.364-0.063 0.124-0.149 0.203-0.26 0.238-0.396 0.187-1.058 0.43-1.985 0.728-0.929 0.297-1.49 0.396-1.686 0.295-0.113-0.059-0.203-0.15-0.269-0.275l-1.062-2.304c-0.482 0-0.961-0.044-1.437-0.133-0.685 1.054-1.214 1.792-1.587 2.212-0.198 0.21-0.417 0.254-0.654 0.132l-2.873-1.477c-0.113-0.059-0.196-0.15-0.249-0.275-0.054-0.125-0.06-0.241-0.017-0.349l0.86-2.547c-0.297-0.283-0.602-0.641-0.912-1.075l-2.53 0.438c-0.108 0.035-0.231 0.019-0.365-0.051-0.112-0.058-0.199-0.155-0.261-0.291-0.778-2.132-1.097-3.337-0.953-3.616 0.047-0.093 0.134-0.172 0.259-0.238 0.177-0.091 0.529-0.255 1.055-0.493 0.525-0.237 0.929-0.427 1.211-0.569-5e-3 -0.575 0.032-1.09 0.11-1.545l-2.157-1.578c-0.099-0.063-0.161-0.158-0.188-0.282-0.026-0.124-0.011-0.244 0.048-0.357l1.469-2.858c0.053-0.103 0.141-0.185 0.264-0.246 0.122-0.062 0.232-0.072 0.33-0.035l2.586 0.861c0.298-0.303 0.664-0.609 1.098-0.92-0.096-0.675-0.255-1.505-0.477-2.492-0.014-0.15 3e-3 -0.272 0.051-0.364 0.063-0.124 0.152-0.208 0.267-0.254 0.386-0.192 1.044-0.433 1.974-0.724 0.93-0.289 1.494-0.384 1.689-0.283 0.113 0.059 0.203 0.15 0.27 0.275l1.062 2.304c0.445-5e-3 0.926 0.034 1.443 0.117 0.686-1.054 1.212-1.786 1.579-2.197 0.199-0.209 0.417-0.254 0.654-0.132l2.873 1.478c0.113 0.058 0.196 0.149 0.25 0.274 0.053 0.125 0.058 0.243 0.016 0.35l-0.859 2.546c0.297 0.283 0.601 0.642 0.911 1.075l2.53-0.438c0.119-0.03 0.241-0.013 0.365 0.05 0.113 0.059 0.2 0.155 0.261 0.291 0.779 2.133 1.097 3.337 0.954 3.615-0.048 0.093-0.135 0.172-0.259 0.238-0.209 0.101-0.567 0.269-1.079 0.5-0.51 0.234-0.9 0.423-1.172 0.57-0.017 0.616-0.06 1.128-0.126 1.537l2.167 1.563c0.092 0.073 0.151 0.172 0.179 0.297 0.026 0.127 0.01 0.246-0.047 0.359zm-9.253 0.556c1.17-0.375 2.035-1.109 2.597-2.201 0.562-1.091 0.654-2.223 0.279-3.393-0.376-1.169-1.108-2.035-2.2-2.596s-2.223-0.654-3.393-0.28c-1.17 0.376-2.035 1.109-2.597 2.202-0.562 1.092-0.654 2.223-0.279 3.392 0.376 1.17 1.109 2.035 2.201 2.597s2.223 0.655 3.392 0.279zm23.041-3.058l-1.111 2.163c-0.086 0.165-0.935-0.07-2.549-0.704-0.267 0.214-0.559 0.402-0.877 0.564-0.073 1.435-0.176 2.281-0.308 2.538-0.021 0.041-0.061 0.066-0.117 0.076-1.634 0.085-2.46 0.123-2.48 0.112-0.082-0.042-0.195-0.406-0.337-1.091-0.143-0.686-0.23-1.173-0.264-1.464-0.217-0.085-0.377-0.154-0.479-0.208s-0.252-0.142-0.447-0.269c-0.256 0.142-0.704 0.355-1.343 0.638-0.642 0.283-1.002 0.403-1.085 0.361-0.021-0.011-0.472-0.705-1.352-2.082-0.025-0.052-0.027-0.099-7e-3 -0.14 0.133-0.257 0.761-0.833 1.885-1.727-0.053-0.353-0.07-0.7-0.051-1.042-1.455-0.943-2.141-1.498-2.057-1.662l1.113-2.163c0.084-0.165 0.934 0.07 2.548 0.705 0.287-0.23 0.58-0.418 0.877-0.565 0.073-1.434 0.176-2.279 0.308-2.538 0.021-0.041 0.061-0.066 0.117-0.076 0.053 0 0.286-0.01 0.7-0.03 0.415-0.022 0.81-0.041 1.182-0.057 0.373-0.017 0.57-0.02 0.591-0.01 0.082 0.042 0.196 0.404 0.342 1.084 0.145 0.681 0.233 1.165 0.267 1.456 0.217 0.085 0.377 0.154 0.479 0.208 0.104 0.053 0.252 0.142 0.447 0.269 0.901-0.461 1.672-0.794 2.312-1l0.108 0.018c0.041 0.021 0.495 0.71 1.36 2.066 0.024 0.052 0.027 0.099 7e-3 0.14-0.134 0.257-0.762 0.833-1.885 1.727 0.053 0.328 0.069 0.675 0.05 1.042 1.455 0.943 2.142 1.496 2.056 1.661zm-8.134 15.822l-1.112 2.163c-0.085 0.164-0.935-0.071-2.549-0.705-0.266 0.214-0.558 0.403-0.877 0.565-0.072 1.434-0.175 2.279-0.308 2.537-0.021 0.041-0.061 0.066-0.117 0.077-1.633 0.085-2.459 0.122-2.479 0.112-0.083-0.043-0.195-0.407-0.338-1.092s-0.23-1.173-0.264-1.463c-0.216-0.085-0.376-0.154-0.479-0.208-0.104-0.053-0.252-0.143-0.447-0.27-0.256 0.142-0.704 0.355-1.344 0.638-0.641 0.283-1.003 0.403-1.084 0.36-0.021-0.01-0.472-0.704-1.352-2.082-0.026-0.052-0.028-0.099-7e-3 -0.14 0.133-0.258 0.761-0.833 1.884-1.727-0.053-0.353-0.069-0.701-0.05-1.042-1.456-0.943-2.142-1.498-2.057-1.663l1.112-2.163c0.084-0.165 0.935 0.069 2.549 0.705 0.287-0.23 0.579-0.418 0.877-0.564 0.072-1.435 0.176-2.281 0.308-2.538 0.021-0.041 0.06-0.067 0.118-0.077 0.051 1e-3 0.284-0.01 0.699-0.031 0.414-0.021 0.808-0.04 1.182-0.057 0.373-0.017 0.57-0.02 0.591-9e-3 0.081 0.042 0.195 0.403 0.341 1.084 0.146 0.68 0.234 1.165 0.268 1.456 0.217 0.085 0.376 0.154 0.479 0.208 0.103 0.052 0.251 0.142 0.446 0.268 0.902-0.461 1.673-0.794 2.312-1l0.108 0.017c0.041 0.021 0.494 0.71 1.359 2.066 0.025 0.053 0.027 0.099 6e-3 0.14-0.132 0.257-0.761 0.833-1.884 1.727 0.054 0.328 0.07 0.674 0.051 1.042 1.457 0.946 2.142 1.501 2.058 1.666zm3.622-16.774c0.276-0.536 0.318-1.1 0.129-1.692-0.19-0.593-0.554-1.027-1.089-1.302-0.535-0.276-1.101-0.318-1.692-0.128-0.593 0.19-1.026 0.553-1.303 1.089-0.28 0.546-0.326 1.111-0.14 1.696 0.188 0.585 0.555 1.018 1.101 1.298 0.547 0.281 1.112 0.328 1.696 0.14 0.585-0.189 1.018-0.555 1.298-1.101zm-8.134 15.821c0.275-0.535 0.318-1.1 0.128-1.692-0.19-0.593-0.553-1.026-1.089-1.302-0.535-0.275-1.1-0.318-1.692-0.128-0.593 0.19-1.025 0.554-1.302 1.089-0.28 0.546-0.326 1.111-0.14 1.696 0.188 0.585 0.555 1.018 1.101 1.298s1.112 0.327 1.696 0.14c0.584-0.188 1.018-0.555 1.298-1.101z" clip-path="url(#a)" fill="#fff" opacity=".4"/>
	<path d="m119.97 86.5c-1.279 1.913-3.046 3.094-5.305 3.543-2.257 0.45-4.343 0.035-6.256-1.243l-19.636-13.12c-2.226-1.486-3.602-3.55-4.126-6.189-0.525-2.639-0.043-5.071 1.443-7.297 1.061-1.589 2.458-2.755 4.193-3.503 1.734-0.746 3.517-0.978 5.346-0.696 0.201-0.354 0.362-0.62 0.482-0.8 1.704-2.551 4.062-4.125 7.073-4.724 3.01-0.599 5.791-0.047 8.342 1.657 1.9 1.271 3.271 2.952 4.109 5.044 0.838 2.091 1.042 4.229 0.61 6.411 1.34-0.183 2.588 0.111 3.744 0.883 1.274 0.852 2.062 2.03 2.362 3.536s0.022 2.895-0.829 4.17c-0.603 0.903-1.405 1.568-2.404 1.997 1.312 1.398 2.051 3.063 2.222 4.996 0.173 1.932-0.285 3.71-1.37 5.335z" clip-path="url(#a)" fill="#fff" opacity=".4"/>
	<path d="m71.898 728.31c4.723 5.126 7.28 10.868 7.674 17.232 0.394 6.363-1.437 12.38-5.492 18.044-4.055 5.668-9.754 10.297-17.095 13.89-7.342 3.594-15.474 5.665-24.397 6.217-2.561 0.16-5.22 0.177-7.982 0.055-6.845 6.848-14.985 11.793-24.415 14.836-1.761 0.623-3.82 1.154-6.18 1.594l-0.275 0.016c-0.548 0.035-1.053-0.128-1.516-0.484-0.462-0.356-0.786-0.842-0.97-1.454l-3e-3 -0.054c-0.12-0.139-0.144-0.358-0.07-0.656 0.074-0.299 0.1-0.484 0.077-0.556-0.023-0.074 0.047-0.253 0.215-0.537 0.165-0.285 0.265-0.456 0.299-0.516 0.031-0.057 0.15-0.219 0.354-0.488s0.339-0.442 0.409-0.52c0.236-0.31 0.765-0.977 1.582-1.997 0.818-1.026 1.406-1.762 1.765-2.203 0.358-0.447 0.88-1.202 1.566-2.272s1.223-2.041 1.609-2.907c0.388-0.869 0.815-1.979 1.282-3.33s0.856-2.77 1.168-4.257c-5.944-2.899-10.719-6.644-14.324-11.23-3.606-4.586-5.579-9.624-5.919-15.107-0.393-6.363 1.438-12.379 5.493-18.046 4.055-5.666 9.752-10.294 17.093-13.89 7.341-3.592 15.473-5.665 24.397-6.217s17.249 0.502 24.978 3.165c7.729 2.659 13.955 6.55 18.677 11.672zm-22.054-5.299c-6.65-2.138-13.704-2.979-21.164-2.517-7.463 0.461-14.36 2.164-20.695 5.106-6.335 2.943-11.28 6.691-14.835 11.243-3.555 4.553-5.177 9.333-4.867 14.344 0.253 4.097 1.802 7.921 4.646 11.47 2.844 3.553 6.728 6.533 11.65 8.946l4.943 2.445-1.156 5.357c-0.673 3.385-1.759 6.609-3.258 9.675 5.417-2.646 10.253-6.084 14.507-10.312l2.231-2.23 3.146 0.135c2.542 0.137 4.927 0.136 7.159-3e-3 7.461-0.461 14.358-2.163 20.693-5.106 6.333-2.944 11.28-6.689 14.836-11.244 3.553-4.551 5.176-9.333 4.866-14.344-0.309-5.011-2.509-9.555-6.597-13.635-4.087-4.077-9.456-7.187-16.105-9.33z" clip-path="url(#a)" fill="#fff" opacity=".4"/>
	<path d="m44.386 115.87c0 6.39-0.969 11.915-2.906 16.573-1.938 4.657-5.191 9.284-9.759 13.878-2.079 2.053-4.581 4.312-7.506 6.773l-0.77 14.592c-0.052 0.411-0.257 0.744-0.617 1l-14.782 8.624c-0.18 0.101-0.385 0.153-0.616 0.153-0.307 0-0.603-0.115-0.885-0.347l-2.464-2.464c-0.334-0.359-0.437-0.77-0.308-1.23l3.272-10.626-10.817-10.816-10.625 3.271c-0.077 0.026-0.193 0.04-0.347 0.04-0.359 0-0.655-0.116-0.885-0.348l-2.464-2.464c-0.437-0.487-0.5-0.987-0.192-1.501l8.623-14.782c0.256-0.36 0.59-0.563 1-0.616l14.591-0.77c2.464-2.927 4.722-5.429 6.775-7.507 4.825-4.799 9.418-8.109 13.782-9.932 4.363-1.822 9.894-2.733 16.592-2.733 0.359 0 0.667 0.121 0.924 0.364 0.256 0.246 0.384 0.536 0.384 0.868zm-9.701 13.705c0.718-0.719 1.078-1.591 1.078-2.619 0-1.025-0.36-1.898-1.078-2.617-0.719-0.718-1.592-1.077-2.618-1.077-1.027 0-1.9 0.359-2.618 1.077-0.719 0.719-1.078 1.592-1.078 2.617 0 1.028 0.358 1.9 1.078 2.619 0.718 0.718 1.591 1.078 2.618 1.078s1.9-0.36 2.618-1.078z" clip-path="url(#a)" fill="#fff" opacity=".4"/>
	<g clip-path="url(#a)" fill="#fff" opacity=".4">
		<path d="m1363.5 798.64c3.253 2.255 8.35 55.379 2.528 65.2-2.963 4.999-10.601 8.899-23.813 20.446-7.333 6.407-9.505 9.191-17.138 4.962-12.502-6.927-12.615-9.821-11.878-16.179 0.705-6.084 0.881-8.803-1.828-11.391-2.454-2.344-13.802-14.453-21.721-12.908-29.927 5.838-31.248 2.272-31.575-3.955-0.739-14.053-1.117-33.55 5.565-37.713 6.709-4.178 36.825-15.443 40.735-16.246 25.562-5.252 28.403-2.567 30.259-1.666 5.983 2.906 12.2 5.758 9.87 8.002-2.057 1.98-8.665 5.675-8.105 7.928 0.71 2.861 9.375 12.502 12.367 12.562 3.149 0.064 10.602-14.258 12.643-18.319 0.614-1.223 1.337-1.246 2.091-0.723z"/>
		<path d="m1316.1 892.33c0.455-3.164 2.236-2.967 3.527-1.839 1.449 1.267 3.178 2.88 5.455 5.235 2.985 3.09 1.059 3.57-3.498 5.625-5.179 2.335-6.215 2.583-6.49 0.506-0.235-1.783 0.491-5.951 1.006-9.527z"/>
	</g>
	<path d="m268.28 829.6l-9.109 22.541c-0.422 1.045-1.146 1.783-2.17 2.219-1.025 0.436-2.061 0.441-3.105 0.02l-37.564-15.182c-1.043-0.424-1.783-1.146-2.219-2.172-0.434-1.025-0.442-2.059-0.02-3.104l9.11-22.541c0.421-1.041 1.144-1.781 2.169-2.215 1.025-0.436 2.059-0.443 3.105-0.02l1.25 0.504 3.037-7.514c1.941-4.801 5.328-8.225 10.165-10.279 4.835-2.053 9.651-2.107 14.452-0.166 4.799 1.939 8.226 5.326 10.277 10.162 2.051 4.838 2.107 9.654 0.168 14.455l-3.037 7.512 1.252 0.506c1.043 0.424 1.783 1.148 2.219 2.172 0.434 1.028 0.441 2.061 0.02 3.102zm-31.039-16.912l20.035 8.098 3.037-7.514c1.117-2.766 1.094-5.523-0.07-8.27-1.168-2.746-3.134-4.678-5.898-5.797-2.768-1.117-5.522-1.094-8.268 0.072-2.748 1.164-4.682 3.131-5.799 5.896l-3.037 7.515z" clip-path="url(#a)" fill="#fff" opacity=".4"/>
	<path d="m1339.5 69.084l-16.235 27.215c-0.645 1.08-1.569 1.772-2.776 2.078-1.208 0.305-2.351 0.135-3.431-0.509l-38.88-23.193c-1.08-0.645-1.771-1.57-2.077-2.777-0.304-1.207-0.136-2.351 0.509-3.431l3.865-6.479-22.029-13.142c-1.081-0.645-1.774-1.57-2.078-2.777-0.306-1.207-0.136-2.35 0.509-3.43l32.471-54.431c0.644-1.08 1.569-1.772 2.776-2.077 1.205-0.306 2.351-0.136 3.432 0.508l44.062 26.285c1.08 0.645 1.771 1.571 2.077 2.778 0.304 1.206 0.136 2.351-0.509 3.43l-7.924 13.284c0.357 0.69 0.618 1.357 0.781 2.003l6.666 26.381c0.306 1.208 0.341 2.62 0.108 4.237-0.235 1.619-0.673 2.968-1.317 4.047zm-11.775-50.954l1.546-2.591c0.209-0.351 0.262-0.731 0.16-1.141-0.106-0.41-0.333-0.72-0.683-0.93l-28.511-17.008c-0.351-0.209-0.731-0.261-1.141-0.158-0.41 0.104-0.719 0.332-0.928 0.682l-1.546 2.592c-0.21 0.352-0.264 0.731-0.16 1.141s0.331 0.718 0.682 0.928l28.512 17.008c0.351 0.209 0.73 0.263 1.142 0.16 0.408-0.105 0.718-0.331 0.927-0.683zm-45.157 52.134l36.287 21.647 15.462-25.919-16.849-10.051c-1.08-0.645-1.771-1.57-2.076-2.776-0.306-1.207-0.137-2.352 0.508-3.432l10.05-16.847-15.551-9.277-27.831 46.655zm39.29-18.733l12.108 7.223-4.885-19.333-7.223 12.11z" clip-path="url(#a)" fill="#fff" opacity=".4"/>
	<path d="m137.11 833.17l-29.182 29.18c-1.055 1.057-2.338 1.584-3.851 1.584-1.483 0-2.781-0.527-3.893-1.584l-4.536-4.62c-1.085-1.026-1.626-2.312-1.626-3.851 0-1.512 0.541-2.811 1.626-3.894l29.138-29.139c1.113 2.796 2.746 5.271 4.899 7.424s4.628 3.786 7.425 4.9zm-28.369 19.896c0.542-0.543 0.812-1.185 0.812-1.927 0-0.741-0.271-1.383-0.812-1.925-0.542-0.541-1.185-0.812-1.925-0.812-0.743 0-1.384 0.271-1.926 0.812-0.542 0.542-0.813 1.184-0.813 1.925 0 0.742 0.271 1.384 0.813 1.927 0.542 0.541 1.183 0.812 1.926 0.812 0.741 1e-3 1.383-0.271 1.925-0.812zm55.495-38.51c0 1.113-0.327 2.625-0.984 4.535-1.341 3.823-3.687 6.926-7.039 9.307-3.352 2.382-7.039 3.573-11.061 3.573-5.277 0-9.792-1.876-13.542-5.626-3.75-3.752-5.627-8.266-5.627-13.543s1.876-9.791 5.627-13.542 8.266-5.628 13.542-5.628c1.654 0 3.387 0.236 5.199 0.707 1.811 0.471 3.344 1.135 4.6 1.99 0.457 0.312 0.685 0.713 0.685 1.197 0 0.486-0.229 0.885-0.685 1.198l-12.537 7.231v9.584l8.258 4.579c0.142-0.087 1.269-0.777 3.38-2.075 2.11-1.299 4.044-2.454 5.798-3.467 1.754-1.012 2.76-1.52 3.017-1.52 0.428 0 0.763 0.144 1.006 0.429 0.242 0.288 0.363 0.644 0.363 1.071z" clip-path="url(#a)" fill="#fff" opacity=".4"/>
	<path d="m24.214 319.06l15.952 38.061c0.579 1.376 0.581 2.764 8e-3 4.164-0.562 1.372-1.542 2.374-2.941 3.003l-5.994 2.448c-1.361 0.615-2.755 0.629-4.18 0.046-1.399-0.573-2.396-1.565-2.987-2.98l-15.931-38.004c3.009 0.029 5.917-0.545 8.726-1.723s5.257-2.849 7.347-5.015zm7.668 33.79c-0.297-0.707-0.788-1.2-1.475-1.481-0.686-0.281-1.382-0.273-2.089 0.023-0.706 0.297-1.201 0.789-1.481 1.474-0.282 0.688-0.273 1.384 0.022 2.09 0.297 0.707 0.788 1.201 1.474 1.481 0.687 0.281 1.384 0.273 2.091-0.022 0.706-0.297 1.2-0.788 1.481-1.475 0.281-0.685 0.272-1.383-0.023-2.09zm-14.62-65.946c1.03 0.421 2.306 1.297 3.825 2.628 3.03 2.689 5.013 6.035 5.947 10.039 0.935 4.004 0.641 7.868-0.883 11.59-1.999 4.884-5.445 8.352-10.336 10.402-4.893 2.05-9.781 2.077-14.665 0.078s-8.351-5.445-10.401-10.337-2.078-9.781-0.079-14.665c0.626-1.531 1.501-3.045 2.624-4.543 1.122-1.498 2.317-2.665 3.584-3.503 0.462-0.304 0.919-0.364 1.368-0.181 0.45 0.184 0.732 0.547 0.85 1.088l1.944 14.342 8.87 3.63 7.366-5.908c-0.027-0.165-0.239-1.469-0.64-3.915-0.403-2.445-0.74-4.672-1.013-6.679-0.272-2.007-0.361-3.129-0.264-3.367 0.162-0.396 0.422-0.652 0.778-0.769 0.354-0.115 0.729-0.092 1.125 0.07z" clip-path="url(#a)" fill="#fff" opacity=".4"/>
	<path d="m1426.2 135.36c-2.305-1.092-4.62-1.146-6.945-0.163l-2.813-1.441c-1.149-0.589-1.97-1.367-2.464-2.336-0.493-0.97-0.461-2 0.099-3.092 2.533-4.944 4.668-6.971 6.404-6.081 0.084 0.043 0.313 0.346 0.688 0.909s0.904 1.211 1.591 1.942c0.686 0.731 1.442 1.308 2.269 1.731 0.938 0.48 1.952 0.797 3.041 0.948-0.336 0.482-0.607 0.926-0.815 1.333-0.999 1.947-1.351 4.03-1.055 6.25zm8.247-17.548c0.512 1.589 0.388 3.125-0.373 4.609s-1.935 2.482-3.522 2.996c-1.589 0.512-3.126 0.387-4.609-0.373-1.485-0.761-2.483-1.935-2.996-3.523-0.512-1.589-0.388-3.125 0.373-4.609s1.935-2.482 3.522-2.995c1.589-0.512 3.125-0.388 4.609 0.373 1.485 0.76 2.484 1.934 2.996 3.522zm7.396 42.454c-0.86 1.681-2.052 2.744-3.572 3.195-1.521 0.449-3.129 0.239-4.824-0.629l-18.359-9.404c-1.693-0.868-2.804-2.052-3.327-3.549-0.523-1.496-0.355-3.085 0.506-4.766 0.381-0.742 0.775-1.454 1.188-2.136 0.411-0.683 0.9-1.396 1.467-2.139 0.566-0.745 1.141-1.409 1.725-1.995 0.582-0.585 1.233-1.113 1.952-1.585 0.719-0.471 1.443-0.816 2.174-1.034 0.731-0.219 1.521-0.286 2.372-0.204s1.703 0.342 2.557 0.78c0.142 0.072 0.365 0.376 0.673 0.914 0.309 0.538 0.647 1.137 1.017 1.793 0.369 0.659 0.947 1.379 1.731 2.16 0.783 0.782 1.652 1.417 2.604 1.904 0.953 0.488 1.975 0.822 3.067 1.001 1.093 0.18 2.014 0.229 2.765 0.144 0.749-0.084 1.433-0.158 2.05-0.223 0.616-0.064 0.994-0.061 1.135 0.012 0.854 0.438 1.562 0.978 2.126 1.619 0.564 0.643 0.971 1.323 1.221 2.044 0.249 0.721 0.394 1.511 0.431 2.369s-0.012 1.696-0.146 2.511c-0.135 0.815-0.338 1.67-0.611 2.564-0.272 0.895-0.566 1.707-0.879 2.44-0.317 0.735-0.662 1.471-1.043 2.214zm3.445-29.116c0.769 2.383 0.583 4.688-0.558 6.914s-2.902 3.724-5.285 4.491c-2.383 0.77-4.687 0.584-6.914-0.557s-3.724-2.903-4.492-5.286c-0.768-2.382-0.582-4.688 0.559-6.913 1.141-2.227 2.902-3.724 5.285-4.493s4.687-0.582 6.914 0.559c2.226 1.141 3.724 2.902 4.491 5.285zm13.358-0.941c0.512 1.589 0.388 3.126-0.372 4.61-0.761 1.484-1.936 2.482-3.524 2.995-1.588 0.512-3.125 0.388-4.609-0.373s-2.482-1.935-2.994-3.522c-0.513-1.589-0.389-3.125 0.372-4.609 0.761-1.485 1.935-2.483 3.523-2.996 1.588-0.512 3.124-0.388 4.608 0.373s2.483 1.934 2.996 3.522zm-4.238 18.78c-0.559 1.093-1.376 1.721-2.451 1.887-1.074 0.165-2.187-0.046-3.335-0.635l-2.814-1.441c-0.56-2.462-1.956-4.309-4.189-5.541 1.974-1.057 3.46-2.559 4.457-4.506 0.208-0.406 0.409-0.886 0.604-1.439 0.76 0.795 1.608 1.433 2.547 1.913 0.826 0.424 1.735 0.7 2.73 0.829 0.995 0.13 1.83 0.182 2.505 0.156 0.677-0.024 1.058-0.016 1.141 0.027 1.737 0.89 1.338 3.807-1.195 8.75z" clip-path="url(#a)" fill="#fff" opacity=".4"/>
	<path d="m50.587 447.29l4.853 9.033c0.404 0.752 0.484 1.534 0.241 2.344-0.245 0.81-0.743 1.418-1.495 1.822l-9.033 4.853c-0.753 0.404-1.534 0.484-2.344 0.24-0.811-0.243-1.417-0.742-1.822-1.494l-4.853-9.033c-0.405-0.752-0.485-1.533-0.241-2.344s0.742-1.417 1.494-1.821l2.71-1.456-2.912-5.42-14.453 7.765 2.912 5.42 2.71-1.456c0.752-0.404 1.534-0.484 2.343-0.241 0.811 0.244 1.417 0.743 1.822 1.495l4.853 9.033c0.404 0.752 0.484 1.534 0.241 2.344-0.243 0.811-0.742 1.418-1.494 1.822l-9.033 4.853c-0.753 0.405-1.535 0.485-2.344 0.241-0.81-0.244-1.417-0.743-1.822-1.495l-4.853-9.032c-0.404-0.753-0.484-1.534-0.241-2.345 0.244-0.81 0.742-1.417 1.495-1.821l2.71-1.457-2.912-5.419-14.453 7.765 2.912 5.42 2.709-1.456c0.753-0.404 1.534-0.484 2.344-0.241 0.81 0.245 1.417 0.742 1.822 1.496l4.853 9.032c0.404 0.753 0.484 1.534 0.241 2.345-0.244 0.81-0.742 1.416-1.495 1.821l-9.032 4.853c-0.753 0.404-1.535 0.485-2.345 0.241-0.811-0.244-1.417-0.743-1.822-1.495l-4.853-9.033c-0.405-0.752-0.485-1.533-0.241-2.344 0.244-0.81 0.742-1.417 1.495-1.822l2.71-1.455-2.912-5.421c-0.525-0.978-0.623-2.017-0.292-3.116 0.331-1.1 0.985-1.911 1.964-2.438l14.453-7.765-2.912-5.42-2.71 1.456c-0.753 0.404-1.535 0.484-2.344 0.241s-1.417-0.742-1.822-1.495l-4.853-9.033c-0.404-0.752-0.484-1.533-0.24-2.344 0.243-0.81 0.741-1.418 1.495-1.822l9.033-4.853c0.752-0.405 1.535-0.484 2.344-0.24 0.81 0.243 1.417 0.742 1.822 1.494l4.853 9.033c0.404 0.753 0.485 1.534 0.241 2.345-0.244 0.81-0.742 1.416-1.494 1.82l-2.71 1.456 2.912 5.42 14.452-7.765c0.979-0.525 2.018-0.623 3.117-0.292s1.912 0.985 2.437 1.964l2.912 5.42 2.71-1.456c0.752-0.404 1.534-0.484 2.344-0.241 0.811 0.243 1.418 0.742 1.823 1.494z" clip-path="url(#a)" fill="#fff" opacity=".4"/>
	<path d="m1457.7 348.88c0 2.204-0.781 4.068-2.342 5.593l-4.05 4.022c-1.524 1.524-3.389 2.287-5.593 2.287-2.222 0-4.096-0.78-5.62-2.341l-5.675-5.703c-1.525-1.524-2.287-3.389-2.287-5.593 0-2.259 0.809-4.178 2.425-5.758l-2.425-2.425c-1.58 1.616-3.49 2.425-5.73 2.425-2.203 0-4.077-0.771-5.62-2.314l-5.729-5.73c-1.543-1.542-2.314-3.416-2.314-5.62s0.78-4.067 2.342-5.593l4.05-4.022c1.524-1.524 3.388-2.287 5.593-2.287 2.222 0 4.095 0.781 5.62 2.342l5.675 5.703c1.524 1.524 2.286 3.388 2.286 5.592 0 2.259-0.808 4.179-2.424 5.758l2.424 2.424c1.58-1.616 3.489-2.424 5.73-2.424 2.204 0 4.077 0.771 5.62 2.314l5.73 5.73c1.543 1.542 2.314 3.415 2.314 5.62zm-24.657-19.423c0-0.734-0.257-1.359-0.771-1.873l-5.676-5.703c-0.515-0.514-1.139-0.771-1.873-0.771-0.717 0-1.342 0.247-1.874 0.743l-4.05 4.022c-0.514 0.514-0.771 1.13-0.771 1.846 0 0.735 0.258 1.359 0.771 1.874l5.73 5.73c0.496 0.496 1.12 0.744 1.873 0.744 0.771 0 1.433-0.285 1.984-0.854-0.056-0.055-0.23-0.225-0.523-0.51-0.295-0.284-0.492-0.482-0.593-0.592s-0.238-0.285-0.413-0.523-0.294-0.473-0.358-0.703c-0.064-0.229-0.097-0.482-0.097-0.758 0-0.734 0.258-1.359 0.771-1.873 0.514-0.514 1.139-0.771 1.874-0.771 0.275 0 0.527 0.032 0.757 0.096s0.465 0.184 0.703 0.358c0.238 0.175 0.413 0.312 0.523 0.414s0.308 0.298 0.592 0.592c0.285 0.294 0.455 0.468 0.51 0.523 0.609-0.569 0.911-1.24 0.911-2.011zm19.367 19.423c0-0.734-0.257-1.359-0.771-1.873l-5.73-5.731c-0.515-0.513-1.139-0.771-1.874-0.771-0.771 0-1.433 0.294-1.983 0.882 0.055 0.055 0.229 0.225 0.523 0.509s0.491 0.482 0.592 0.592c0.102 0.11 0.239 0.285 0.414 0.524 0.174 0.238 0.293 0.473 0.357 0.702 0.064 0.23 0.097 0.482 0.097 0.758 0 0.735-0.257 1.359-0.771 1.874-0.514 0.514-1.139 0.771-1.873 0.771-0.275 0-0.528-0.032-0.757-0.097-0.23-0.064-0.465-0.184-0.703-0.358s-0.413-0.312-0.523-0.413-0.309-0.298-0.592-0.592c-0.285-0.294-0.455-0.469-0.511-0.524-0.605 0.569-0.908 1.24-0.908 2.011 0 0.734 0.257 1.359 0.771 1.873l5.676 5.703c0.496 0.496 1.12 0.744 1.873 0.744 0.734 0 1.359-0.239 1.874-0.717l4.05-4.022c0.513-0.513 0.769-1.129 0.769-1.845z" clip-path="url(#a)" fill="#fff" opacity=".4"/>
	<path d="m1403.3 627.14c0 0.393-0.231 0.82-0.696 1.285l-9.723 9.482 2.303 13.393c0.018 0.125 0.027 0.303 0.027 0.535 0 0.893-0.367 1.34-1.099 1.34-0.339 0-0.696-0.107-1.071-0.322l-12.027-6.32-12.026 6.32c-0.394 0.215-0.75 0.322-1.071 0.322-0.375 0-0.656-0.129-0.844-0.389-0.188-0.258-0.281-0.576-0.281-0.951 0-0.107 0.018-0.285 0.054-0.535l2.304-13.393-9.75-9.482c-0.447-0.482-0.67-0.91-0.67-1.285 0-0.66 0.5-1.072 1.5-1.232l13.446-1.955 6.026-12.188c0.34-0.732 0.777-1.1 1.312-1.1 0.536 0 0.974 0.367 1.312 1.1l6.027 12.188 13.446 1.955c1.001 0.16 1.501 0.572 1.501 1.232zm-14.116 9.563l8.197-7.955-11.305-1.662-5.062-10.232-5.062 10.232-11.303 1.662 8.196 7.955-1.956 11.275 10.125-5.33 10.099 5.33-1.929-11.275z" clip-path="url(#a)" fill="#fff" opacity=".4"/>
	<path d="m963.96 768.59c0 0.676-0.236 1.25-0.709 1.723l-18.331 18.332-3.443 3.443c-0.473 0.473-1.047 0.709-1.723 0.709-0.675 0-1.249-0.236-1.721-0.709l-3.443-3.443-9.166-9.166c-0.473-0.473-0.709-1.047-0.709-1.723 0-0.674 0.236-1.248 0.709-1.721l3.443-3.443c0.473-0.473 1.047-0.709 1.722-0.709s1.249 0.236 1.722 0.709l7.443 7.469 16.61-16.635c0.472-0.473 1.046-0.709 1.722-0.709 0.675 0 1.249 0.236 1.722 0.709l3.443 3.443c0.473 0.473 0.709 1.047 0.709 1.721z" clip-path="url(#a)" fill="#fff" opacity=".4"/>
	<path d="m1267.2 695.25c-0.558 1.474-1.636 2.349-3.237 2.633l-14.653 38.82c-0.102 0.267-0.285 0.458-0.552 0.578-0.268 0.123-0.536 0.135-0.803 0.033l-1.962-0.742c-0.265-0.098-0.458-0.282-0.578-0.552-0.121-0.267-0.131-0.533-0.031-0.799l14.655-38.82c-1.018-1.271-1.246-2.641-0.69-4.115 0.41-1.084 1.142-1.864 2.198-2.341s2.127-0.514 3.209-0.102c1.084 0.405 1.864 1.141 2.341 2.198 0.476 1.056 0.513 2.125 0.103 3.209zm44.399 19.001l-8.833 23.397c-0.193 0.511-0.469 0.855-0.831 1.035-0.36 0.181-0.868 0.308-1.526 0.387-5.294 0.713-9.512 0.477-12.661-0.713-1.246-0.473-2.424-1.174-3.53-2.104-1.108-0.934-2.033-1.842-2.772-2.728-0.741-0.889-1.735-1.823-2.986-2.81s-2.622-1.763-4.115-2.326c-3.924-1.481-9.232-1.777-15.919-0.893-0.417 0.053-0.79 0.019-1.114-0.104-0.533-0.203-0.919-0.57-1.161-1.104-0.242-0.536-0.263-1.069-0.061-1.602l8.588-22.753c0.247-0.656 0.776-1.095 1.588-1.328 0.537-0.123 1.511-0.259 2.921-0.404 5.749-0.631 10.516-0.233 14.297 1.192 2.187 0.825 4.119 1.898 5.8 3.208 1.675 1.309 3.575 3.054 5.694 5.232 0.631 0.68 1.458 1.216 2.479 1.599 1.104 0.42 2.387 0.656 3.848 0.717 1.459 0.063 2.765 7e-3 3.916-0.165 1.15-0.173 2.232-0.315 3.243-0.424 1.01-0.109 1.647-0.113 1.913-0.012 0.533 0.199 0.92 0.566 1.159 1.103 0.243 0.534 0.261 1.071 0.063 1.6z" clip-path="url(#a)" fill="#fff" opacity=".4"/>
	<path d="m1155.5 778.41l-0.812 2.82c-0.108 0.381-0.344 0.672-0.703 0.869-0.359 0.199-0.729 0.244-1.111 0.135l-3.148-0.906c-1.224 2.207-2.947 3.924-5.168 5.154-2.222 1.23-4.594 1.777-7.113 1.641l-0.906 3.148c-0.109 0.383-0.344 0.674-0.704 0.869-0.359 0.199-0.729 0.244-1.11 0.135l-2.819-0.811c-0.382-0.111-0.673-0.346-0.871-0.705-0.199-0.357-0.244-0.729-0.133-1.111l0.906-3.148c-2.209-1.223-3.927-2.945-5.156-5.166-1.229-2.223-1.775-4.594-1.639-7.115l-3.147-0.904c-0.385-0.111-0.674-0.344-0.873-0.703-0.198-0.359-0.243-0.73-0.132-1.111l0.81-2.82c0.108-0.381 0.344-0.672 0.705-0.871 0.357-0.199 0.728-0.242 1.11-0.135l3.149 0.906c1.223-2.207 2.945-3.926 5.166-5.154 2.222-1.229 4.594-1.775 7.113-1.639l0.906-3.15c0.109-0.381 0.344-0.672 0.704-0.869 0.359-0.199 0.729-0.244 1.112-0.135l2.818 0.811c0.381 0.111 0.672 0.346 0.871 0.705 0.197 0.359 0.243 0.73 0.133 1.111l-0.905 3.148c2.208 1.225 3.925 2.947 5.154 5.166 1.229 2.225 1.775 4.594 1.639 7.115l3.149 0.904c0.383 0.111 0.672 0.346 0.871 0.703 0.2 0.361 0.243 0.732 0.134 1.113zm-8.683 2.082l-2.401-0.691c-0.381-0.109-0.673-0.344-0.871-0.703s-0.243-0.73-0.134-1.111l0.812-2.82c0.11-0.381 0.344-0.67 0.703-0.871 0.359-0.197 0.731-0.242 1.112-0.133l2.399 0.689c-0.014-1.721-0.44-3.342-1.282-4.863s-1.988-2.746-3.439-3.672l-0.69 2.402c-0.108 0.381-0.346 0.67-0.703 0.869-0.359 0.199-0.729 0.244-1.112 0.135l-2.819-0.811c-0.383-0.111-0.671-0.346-0.869-0.705-0.2-0.359-0.244-0.73-0.136-1.111l0.691-2.4c-1.721 0.014-3.343 0.439-4.863 1.283-1.522 0.842-2.747 1.988-3.672 3.438l2.399 0.691c0.381 0.109 0.672 0.346 0.871 0.703 0.198 0.361 0.243 0.732 0.134 1.113l-0.812 2.818c-0.11 0.381-0.344 0.672-0.703 0.871s-0.729 0.244-1.112 0.133l-2.399-0.689c0.014 1.721 0.44 3.342 1.284 4.863 0.842 1.523 1.988 2.746 3.438 3.672l0.691-2.4c0.109-0.381 0.345-0.672 0.702-0.869 0.361-0.201 0.729-0.244 1.112-0.135l2.819 0.811c0.381 0.111 0.673 0.344 0.871 0.705 0.198 0.357 0.244 0.729 0.134 1.109l-0.691 2.402c1.722-0.014 3.343-0.441 4.865-1.285 1.522-0.84 2.745-1.989 3.671-3.438z" clip-path="url(#a)" fill="#fff" opacity=".4"/>
	<path d="m1046.7 795.54c1.425 1.281 1.993 2.562 1.705 3.85-0.289 1.285-1.361 2.189-3.219 2.719l-30.288 8.609c-1.858 0.527-3.248 0.32-4.171-0.621-0.92-0.941-1.112-2.33-0.573-4.17l7.3-24.607-2.982-10.49-1.684 0.479c-0.456 0.129-0.897 0.074-1.324-0.164s-0.706-0.586-0.835-1.041c-0.13-0.457-0.076-0.898 0.162-1.324 0.238-0.428 0.585-0.707 1.04-0.836l13.463-3.828c0.454-0.129 0.897-0.074 1.325 0.166 0.427 0.236 0.706 0.584 0.836 1.041 0.129 0.453 0.075 0.896-0.164 1.324-0.237 0.428-0.585 0.707-1.04 0.836l-1.684 0.479 2.981 10.49 19.152 17.088zm-25.9-13.24l-3.944 13.311 18.72-5.318-10.358-9.248-0.757-0.666-0.276-0.973-2.98-10.49-3.366 0.957 2.979 10.49 0.277 0.973-0.295 0.964z" clip-path="url(#a)" fill="#fff" opacity=".4"/>
	<path d="m1237.6 766.68c1.26 1.436 1.914 2.979 1.965 4.628 0.051 1.651-0.624 3.091-2.024 4.318-0.729 0.64-1.552 1.089-2.471 1.343-0.919 0.259-1.739 0.38-2.456 0.367-0.717-0.015-1.516 0.089-2.389 0.305-0.877 0.221-1.642 0.617-2.3 1.192-1.951 1.713-1.962 3.667-0.033 5.867 0.607 0.692 1.645 1.588 3.11 2.684 1.466 1.1 2.493 2.005 3.082 2.71l0.116 0.135c-0.391 0.34-0.676 0.609-0.854 0.797-0.556 0.581-1.332 1.441-2.324 2.578-0.995 1.142-1.916 2.156-2.758 3.055-0.847 0.9-1.675 1.705-2.491 2.421-1.083 0.951-2.202 1.518-3.359 1.7-1.158 0.183-2.178-0.231-3.066-1.243-0.573-0.655-0.97-1.422-1.188-2.297-0.221-0.875-0.323-1.672-0.311-2.39 0.016-0.719-0.106-1.538-0.365-2.457-0.256-0.918-0.704-1.743-1.341-2.471-1.23-1.401-2.67-2.076-4.317-2.025-1.653 0.051-3.196 0.706-4.634 1.967-1.487 1.304-2.401 2.821-2.741 4.547-0.338 1.726 0.131 3.316 1.405 4.771 0.669 0.761 1.446 1.38 2.337 1.857 0.886 0.475 1.687 0.789 2.396 0.934 0.708 0.147 1.419 0.355 2.128 0.627 0.71 0.273 1.234 0.604 1.577 0.994 0.7 0.8 0.984 1.946 0.853 3.44-0.114 1.198-0.877 2.418-2.297 3.664-1.686 1.477-4.042 3.167-7.079 5.077-0.19 0.104-0.463 0.282-0.823 0.533-0.359 0.254-0.636 0.432-0.826 0.538l-0.391 0.248c-0.018 0.016-0.055 0.031-0.104 0.044-0.036 0.03-0.062 0.038-0.075 0.02l-23.895-27.243c0.052-0.01 0.235-0.119 0.547-0.314 0.316-0.198 0.656-0.416 1.022-0.662 0.367-0.241 0.585-0.376 0.651-0.403 3.036-1.911 5.393-3.601 7.08-5.08 1.419-1.246 2.185-2.464 2.295-3.661 0.132-1.495-0.152-2.642-0.853-3.441-0.343-0.391-0.867-0.723-1.577-0.994-0.71-0.274-1.419-0.482-2.129-0.63-0.707-0.146-1.507-0.456-2.396-0.934-0.887-0.477-1.665-1.096-2.334-1.857-1.275-1.453-1.743-3.045-1.407-4.77 0.342-1.724 1.263-3.248 2.771-4.57 1.419-1.243 2.952-1.893 4.602-1.943 1.651-0.051 3.09 0.627 4.319 2.027 0.639 0.726 1.083 1.55 1.343 2.472 0.257 0.918 0.38 1.737 0.365 2.456-0.015 0.715 0.089 1.512 0.308 2.388 0.219 0.875 0.617 1.642 1.191 2.296 0.886 1.013 1.907 1.429 3.064 1.243 1.158-0.183 2.277-0.748 3.357-1.7 1.137-0.994 2.617-2.526 4.44-4.598 1.824-2.07 3.139-3.491 3.94-4.252l0.046 0.051c0.014 0.051 0.118 0.233 0.317 0.545 0.195 0.314 0.416 0.657 0.66 1.022 0.242 0.368 0.378 0.587 0.408 0.652 1.906 3.037 3.601 5.395 5.078 7.079 1.243 1.419 2.465 2.185 3.66 2.297 1.496 0.129 2.643-0.152 3.44-0.853 0.392-0.343 0.72-0.868 0.994-1.576 0.272-0.713 0.481-1.421 0.629-2.131 0.145-0.708 0.458-1.508 0.934-2.396 0.476-0.889 1.095-1.665 1.858-2.334 1.453-1.276 3.045-1.744 4.77-1.409 1.727 0.34 3.242 1.256 4.55 2.745z" clip-path="url(#a)" fill="#fff" opacity=".4"/>
	<path d="m216.74 745.36c0.892 2.685 1.217 5.023 0.981 7.017l-3.929 33.051c-0.123 0.942-0.496 1.777-1.115 2.503-0.621 0.725-1.373 1.235-2.259 1.534-0.885 0.293-1.796 0.336-2.725 0.126-0.932-0.211-1.718-0.66-2.357-1.347l-22.986-24.097c-1.389-1.45-2.526-3.519-3.42-6.199-1.735-5.221-1.374-10.289 1.089-15.212 2.464-4.92 6.305-8.251 11.522-9.986 5.219-1.739 10.288-1.374 15.209 1.089 4.922 2.461 8.252 6.302 9.99 11.521zm-9.998 10.752c1.232-2.46 1.412-4.994 0.544-7.604-0.867-2.61-2.532-4.53-4.993-5.764-2.46-1.229-4.997-1.41-7.605-0.542-2.61 0.868-4.529 2.53-5.762 4.99-1.229 2.465-1.414 4.999-0.545 7.608 0.867 2.605 2.535 4.528 4.996 5.759 2.459 1.232 4.994 1.415 7.603 0.546 2.609-0.866 4.529-2.532 5.762-4.993z" clip-path="url(#a)" fill="#fff" opacity=".4"/>
	<path d="m327.88 800.35l1.487 5.758c0.075 0.279 0.044 0.535-0.09 0.759-0.132 0.228-0.341 0.377-0.62 0.452l-5.76 1.486c-0.28 0.072-0.536 0.042-0.76-0.093-0.226-0.132-0.374-0.341-0.446-0.619l-1.491-5.761c-0.071-0.279-0.04-0.532 0.093-0.76 0.133-0.224 0.339-0.374 0.618-0.446l5.761-1.489c0.279-0.072 0.532-0.041 0.761 0.093 0.223 0.132 0.374 0.339 0.447 0.62zm10.525-6.819l2.481 9.602c0.072 0.278 0.042 0.531-0.093 0.759-0.133 0.225-0.339 0.377-0.618 0.446l-5.758 1.492c-0.282 0.069-0.537 0.041-0.762-0.093-0.227-0.132-0.377-0.341-0.448-0.62l-2.482-9.602c-0.069-0.278-0.041-0.529 0.09-0.759 0.134-0.225 0.341-0.374 0.622-0.446l5.759-1.487c0.28-0.074 0.534-0.046 0.76 0.088 0.227 0.137 0.377 0.341 0.449 0.62zm9.535-10.652l4.464 17.275c0.072 0.278 0.044 0.534-0.089 0.759-0.134 0.227-0.341 0.377-0.622 0.449l-5.759 1.489c-0.281 0.072-0.534 0.044-0.76-0.093-0.226-0.132-0.375-0.341-0.447-0.62l-4.467-17.275c-0.072-0.284-0.041-0.534 0.091-0.761 0.131-0.228 0.34-0.377 0.619-0.449l5.761-1.489c0.28-0.072 0.533-0.042 0.759 0.093 0.229 0.133 0.376 0.338 0.45 0.622zm8.541-14.498l7.444 28.797c0.072 0.279 0.042 0.532-0.093 0.759-0.132 0.225-0.338 0.377-0.62 0.452l-5.76 1.484c-0.281 0.072-0.533 0.044-0.76-0.091-0.225-0.134-0.375-0.341-0.446-0.619l-7.444-28.798c-0.072-0.278-0.041-0.534 0.09-0.762 0.134-0.225 0.341-0.374 0.621-0.449l5.76-1.486c0.281-0.072 0.532-0.041 0.759 0.091 0.227 0.133 0.375 0.339 0.449 0.622zm7.55-18.337l11.414 44.155c0.072 0.279 0.04 0.534-0.093 0.759-0.134 0.228-0.339 0.377-0.62 0.449l-5.758 1.487c-0.282 0.074-0.535 0.044-0.762-0.091-0.227-0.134-0.374-0.341-0.448-0.622l-11.414-44.152c-0.072-0.279-0.042-0.532 0.091-0.759 0.134-0.228 0.341-0.377 0.621-0.449l5.76-1.489c0.28-0.075 0.532-0.042 0.757 0.093 0.23 0.131 0.38 0.338 0.452 0.619z" clip-path="url(#a)" fill="#fff" opacity=".4"/>
	<path d="m91.677 129.62v4.428c0 0.162-0.054 0.314-0.159 0.459-0.105 0.148-0.239 0.232-0.399 0.26l-3.688 0.559c-0.253 0.719-0.513 1.324-0.778 1.816 0.465 0.664 1.177 1.58 2.135 2.75 0.131 0.16 0.198 0.326 0.198 0.5s-0.06 0.326-0.18 0.459c-0.358 0.49-1.016 1.211-1.975 2.154-0.957 0.943-1.581 1.416-1.874 1.416-0.159 0-0.333-0.061-0.519-0.182l-2.753-2.152c-0.585 0.305-1.189 0.559-1.815 0.758-0.211 1.809-0.405 3.045-0.577 3.709-0.094 0.371-0.332 0.559-0.718 0.559h-4.429c-0.186 0-0.349-0.057-0.487-0.17-0.141-0.113-0.217-0.256-0.23-0.428l-0.559-3.67c-0.651-0.213-1.249-0.459-1.794-0.738l-2.812 2.133c-0.134 0.121-0.3 0.182-0.499 0.182-0.186 0-0.352-0.074-0.499-0.221-1.675-1.516-2.772-2.631-3.291-3.35-0.094-0.133-0.139-0.285-0.139-0.459 0-0.16 0.053-0.312 0.16-0.459 0.197-0.279 0.537-0.723 1.016-1.326 0.479-0.605 0.839-1.074 1.078-1.406-0.358-0.664-0.631-1.322-0.818-1.975l-3.649-0.539c-0.174-0.025-0.313-0.109-0.419-0.248-0.106-0.141-0.159-0.297-0.159-0.469v-4.428c0-0.16 0.053-0.312 0.159-0.459 0.105-0.146 0.231-0.234 0.379-0.26l3.709-0.559c0.187-0.609 0.445-1.223 0.778-1.834-0.532-0.758-1.243-1.676-2.135-2.752-0.133-0.16-0.198-0.32-0.198-0.479 0-0.135 0.06-0.287 0.18-0.461 0.345-0.479 1-1.191 1.965-2.145 0.963-0.949 1.591-1.424 1.884-1.424 0.173 0 0.347 0.066 0.519 0.199l2.753 2.133c0.585-0.305 1.189-0.557 1.815-0.756 0.211-1.809 0.403-3.045 0.577-3.711 0.094-0.371 0.332-0.559 0.718-0.559h4.429c0.186 0 0.349 0.057 0.487 0.17 0.141 0.113 0.217 0.256 0.23 0.428l0.559 3.672c0.651 0.213 1.249 0.459 1.794 0.736l2.832-2.133c0.12-0.121 0.28-0.18 0.479-0.18 0.173 0 0.338 0.066 0.499 0.199 1.715 1.582 2.812 2.713 3.291 3.391 0.093 0.105 0.14 0.252 0.14 0.439 0 0.158-0.054 0.311-0.161 0.457-0.197 0.279-0.537 0.723-1.016 1.326-0.479 0.605-0.839 1.074-1.078 1.406 0.346 0.666 0.618 1.316 0.818 1.955l3.649 0.559c0.173 0.027 0.313 0.109 0.419 0.248 0.104 0.144 0.158 0.3 0.158 0.472zm-11.707 5.785c0.997-0.996 1.496-2.199 1.496-3.609 0-1.408-0.499-2.613-1.496-3.611-0.998-0.996-2.201-1.496-3.609-1.496-1.411 0-2.614 0.5-3.61 1.496-0.997 0.998-1.495 2.203-1.495 3.611 0 1.41 0.498 2.613 1.495 3.609 0.996 0.998 2.199 1.494 3.61 1.494 1.408 0 2.611-0.496 3.609-1.494z" clip-path="url(#a)" fill="#fff" opacity=".4"/>
	<path d="m36.474 527.86l16.885 6.889c-0.88 2.217-2.164 4.191-3.854 5.922-1.687 1.736-3.67 3.082-5.947 4.039-3.033 1.275-6.146 1.701-9.335 1.285-3.19-0.418-6.071-1.596-8.642-3.529-2.572-1.934-4.497-4.414-5.771-7.447-1.273-3.033-1.701-6.146-1.282-9.336 0.419-3.191 1.591-6.07 3.526-8.645 1.932-2.568 4.417-4.494 7.449-5.768l6.971 16.59zm18.393-10.855l-16.719 7.027-7.027-16.721c3.031-1.273 6.144-1.703 9.333-1.285 3.19 0.42 6.071 1.596 8.644 3.527 2.57 1.936 4.495 4.417 5.769 7.452zm-14.263 9.271l16.826-7.07c0.959 2.279 1.434 4.627 1.428 7.049-9e-3 2.418-0.476 4.727-1.396 6.924l-16.858-6.903z" clip-path="url(#a)" fill="#fff" opacity=".4"/>
</svg>
