<?xml version="1.0" encoding="UTF-8"?>
<!DOCTYPE svg  PUBLIC '-//W3C//DTD SVG 1.1//EN'  'http://www.w3.org/Graphics/SVG/1.1/DTD/svg11.dtd'>
<svg width="1438px" height="405.5px" enable-background="new 0.5 203.75 1438 405.5" version="1.1" viewBox="0.5 203.75 1438 405.5" xml:space="preserve" xmlns="http://www.w3.org/2000/svg" xmlns:xlink="http://www.w3.org/1999/xlink">
<title>BG_icon1</title>
<desc>Created with Sketch.</desc>
<rect x=".5" y="203.75" width="1438" height="405.5" fill="#fff"/>
	<defs>
		<rect id="b" x=".5" y="204" width="1436" height="405"/>
	</defs>
	<clipPath id="a">
		<use overflow="visible" xlink:href="#b"/>
	</clipPath>
	<path d="m176.31 590.28c-0.707 4.162-3.584 8.027-8.625 11.605l-20.466 13.949c-0.397 0.282-0.839 0.381-1.329 0.298-0.489-0.084-0.873-0.323-1.155-0.72l-14.729-19.988c-0.164-0.183-0.38-0.472-0.651-0.866-0.271-0.393-0.689-1.1-1.252-2.115-0.564-1.016-1.047-2.041-1.453-3.079-0.403-1.035-0.715-2.259-0.929-3.673-0.216-1.41-0.216-2.746-3e-3 -4.009 0.704-4.139 2.449-7.174 5.236-9.1 2.788-1.927 6.289-2.533 10.504-1.817 1.167 0.198 2.322 0.602 3.468 1.214 1.145 0.61 2.182 1.349 3.109 2.213 0.927 0.865 1.716 1.661 2.367 2.392 0.651 0.729 1.256 1.491 1.82 2.283 0.792-0.562 1.617-1.08 2.471-1.554 0.855-0.475 1.863-0.966 3.024-1.476 1.162-0.51 2.384-0.863 3.667-1.062 1.282-0.198 2.507-0.198 3.673 1e-3 4.215 0.715 7.32 2.443 9.313 5.184 1.998 2.74 2.643 6.181 1.94 10.32zm-3.614-0.614c0.258-1.523 0.285-2.904 0.08-4.139-0.208-1.236-0.566-2.252-1.081-3.047-0.514-0.792-1.187-1.482-2.016-2.069-0.829-0.585-1.665-1.028-2.505-1.326s-1.749-0.531-2.728-0.696c-0.98-0.167-2.074-0.105-3.285 0.184-1.21 0.288-2.354 0.715-3.425 1.276-1.075 0.562-2.004 1.104-2.787 1.616-0.787 0.516-1.449 0.999-1.99 1.45-0.41 0.354-0.906 0.484-1.489 0.386-0.584-0.1-1.011-0.386-1.279-0.857-0.362-0.604-0.828-1.277-1.399-2.023-0.569-0.745-1.269-1.562-2.096-2.447-0.826-0.886-1.764-1.665-2.812-2.337-1.048-0.673-2.062-1.092-3.04-1.258-0.98-0.167-1.915-0.246-2.806-0.244-0.892 5e-3 -1.824 0.146-2.801 0.425s-1.84 0.709-2.587 1.289c-0.748 0.58-1.421 1.419-2.025 2.517-0.603 1.099-1.032 2.41-1.292 3.935-0.539 3.161 0.654 6.801 3.576 10.918l13.713 18.596 19.057-12.998c4.142-2.939 6.48-5.989 7.017-9.151z" clip-path="url(#a)" fill="#26A9E0"/>
	<path d="m33.604 434.65c-0.262 0.302-0.726 0.477-1.392 0.525l-13.79 0.823-7.14 11.839c-0.068 0.105-0.181 0.25-0.337 0.429-0.248 0.288-0.532 0.47-0.849 0.544-0.316 0.075-0.612-6e-3 -0.887-0.244-0.262-0.226-0.464-0.547-0.61-0.96l-5.046-12.867-13.459-3.14c-0.445-0.097-0.791-0.252-1.038-0.466-0.288-0.248-0.418-0.536-0.391-0.859 0.027-0.324 0.167-0.631 0.416-0.919 0.072-0.083 0.204-0.209 0.398-0.377l10.685-8.771-1.192-13.783c-0.021-0.668 0.092-1.146 0.342-1.435 0.439-0.508 1.098-0.492 1.975 0.051l11.645 7.443 12.747-5.366c0.747-0.338 1.327-0.328 1.74 0.029 0.412 0.355 0.506 0.929 0.279 1.718l-3.474 13.387 9.043 10.451c0.663 0.791 0.774 1.44 0.335 1.948z" clip-path="url(#a)" fill="#26A9E0"/>
	<path d="m1459.2 292.6l-9.462 24.116c-0.383 0.976-1.058 1.674-2.024 2.097-0.967 0.421-1.938 0.441-2.914 0.059l-32.627-12.801c-0.977-0.383-1.674-1.058-2.097-2.024-0.422-0.967-0.441-1.938-0.059-2.913l9.461-24.116c0.383-0.977 1.058-1.674 2.024-2.096 0.967-0.423 1.938-0.443 2.914-0.061l32.628 12.801c0.976 0.383 1.673 1.058 2.095 2.025 0.423 0.967 0.443 1.938 0.061 2.913zm-3.16-0.293c0.012-0.029 0.044-0.111 0.096-0.244 0.053-0.133 0.092-0.232 0.117-0.3 0.026-0.065 0.061-0.163 0.104-0.292 0.041-0.129 0.055-0.229 0.041-0.303s-0.027-0.156-0.043-0.247c-0.016-0.092-0.061-0.174-0.135-0.244-0.074-0.072-0.17-0.133-0.288-0.179l-32.628-12.8c-0.193-0.076-0.387-0.071-0.582 0.015s-0.33 0.226-0.406 0.416c-0.974 2.482-0.711 5.008 0.789 7.574 1.971 3.364 4.015 6.868 6.131 10.514 0.061 0.108 0.232 0.428 0.52 0.958s0.519 0.941 0.695 1.231c0.175 0.29 0.412 0.651 0.711 1.085 0.299 0.433 0.594 0.782 0.881 1.049 0.287 0.266 0.579 0.456 0.875 0.572l0.021 9e-3 0.023 9e-3c0.295 0.116 0.639 0.175 1.03 0.176 0.392 0 0.845-0.057 1.358-0.172 0.514-0.113 0.934-0.218 1.261-0.312 0.326-0.093 0.774-0.235 1.346-0.431 0.57-0.193 0.915-0.311 1.032-0.349 4.03-1.233 7.912-2.412 11.645-3.54 1.047-0.322 2.125-0.884 3.232-1.686 1.108-0.801 1.832-1.637 2.174-2.509zm-9.139 23.296l6.678-17.023c-0.682 0.346-1.383 0.634-2.103 0.863-5.155 1.491-9.282 2.754-12.382 3.787-1.004 0.341-1.811 0.594-2.423 0.764-0.612 0.169-1.392 0.276-2.339 0.322-0.948 0.047-1.775-0.07-2.484-0.348l-0.023-9e-3 -0.021-9e-3c-0.709-0.278-1.396-0.756-2.059-1.435-0.664-0.679-1.162-1.287-1.496-1.827s-0.753-1.275-1.258-2.207c-1.569-2.865-3.737-6.599-6.502-11.196-0.374-0.657-0.691-1.346-0.956-2.063l-6.679 17.023c-0.075 0.192-0.07 0.387 0.016 0.581 0.084 0.196 0.223 0.332 0.416 0.407l32.627 12.8c0.192 0.075 0.387 0.07 0.582-0.015s0.33-0.222 0.406-0.415z" clip-path="url(#a)" fill="#26A9E0"/>
	<path d="m31.4 612.59l2.189 8.479c0.11 0.412 0.064 0.787-0.133 1.119-0.194 0.335-0.502 0.554-0.913 0.664l-8.481 2.188c-0.413 0.108-0.789 0.062-1.12-0.135-0.333-0.195-0.551-0.501-0.658-0.912l-2.195-8.483c-0.104-0.41-0.059-0.783 0.137-1.117 0.196-0.333 0.5-0.554 0.911-0.66l8.483-2.192c0.411-0.106 0.783-0.062 1.122 0.137 0.329 0.193 0.551 0.499 0.658 0.912zm15.5-10.04l3.654 14.138c0.106 0.412 0.061 0.782-0.137 1.117-0.196 0.332-0.5 0.555-0.91 0.659l-8.48 2.195c-0.415 0.104-0.791 0.061-1.122-0.137-0.334-0.194-0.555-0.5-0.659-0.912l-3.655-14.14c-0.103-0.411-0.061-0.779 0.133-1.116 0.198-0.332 0.501-0.553 0.916-0.659l8.48-2.189c0.412-0.11 0.787-0.066 1.119 0.132 0.334 0.199 0.555 0.5 0.661 0.912zm14.041-15.689l6.574 25.439c0.106 0.412 0.064 0.787-0.131 1.119-0.198 0.335-0.501 0.554-0.916 0.661l-8.48 2.191c-0.414 0.108-0.787 0.064-1.119-0.135-0.333-0.195-0.553-0.502-0.658-0.914l-6.578-25.439c-0.106-0.416-0.061-0.787 0.133-1.121 0.194-0.333 0.501-0.555 0.912-0.661l8.484-2.191c0.412-0.106 0.785-0.062 1.117 0.135 0.336 0.197 0.553 0.5 0.662 0.916zm12.577-21.35l10.962 42.407c0.106 0.413 0.061 0.785-0.137 1.118-0.194 0.332-0.498 0.555-0.913 0.665l-8.481 2.188c-0.415 0.106-0.785 0.062-1.12-0.135-0.331-0.198-0.553-0.5-0.657-0.913l-10.962-42.407c-0.106-0.411-0.061-0.787 0.133-1.121 0.198-0.331 0.502-0.552 0.914-0.66l8.482-2.191c0.414-0.105 0.783-0.061 1.118 0.136 0.334 0.197 0.552 0.5 0.661 0.913zm11.117-27.002l16.808 65.022c0.106 0.412 0.059 0.787-0.137 1.119-0.198 0.335-0.5 0.555-0.912 0.661l-8.48 2.189c-0.415 0.108-0.787 0.062-1.121-0.133-0.334-0.197-0.551-0.502-0.66-0.916l-16.808-65.021c-0.106-0.41-0.061-0.783 0.135-1.115 0.198-0.335 0.502-0.558 0.914-0.664l8.482-2.19c0.413-0.11 0.783-0.062 1.116 0.135 0.337 0.197 0.557 0.501 0.663 0.913z" clip-path="url(#a)" fill="#26A9E0"/>
	<path d="m1432.9 438.76v2.693c0 0.098-0.032 0.19-0.097 0.279-0.064 0.09-0.146 0.142-0.243 0.158l-2.243 0.34c-0.154 0.437-0.312 0.805-0.475 1.104 0.283 0.404 0.717 0.963 1.299 1.674 0.08 0.098 0.121 0.198 0.121 0.304s-0.036 0.198-0.109 0.28c-0.218 0.298-0.617 0.735-1.201 1.31-0.582 0.574-0.962 0.861-1.141 0.861-0.096 0-0.202-0.037-0.314-0.11l-1.675-1.31c-0.356 0.187-0.724 0.34-1.104 0.461-0.129 1.101-0.246 1.853-0.352 2.257-0.057 0.226-0.201 0.34-0.436 0.34h-2.694c-0.113 0-0.212-0.035-0.297-0.104s-0.132-0.156-0.14-0.261l-0.34-2.232c-0.396-0.13-0.76-0.279-1.092-0.449l-1.711 1.298c-0.081 0.073-0.182 0.11-0.303 0.11-0.113 0-0.215-0.045-0.305-0.134-1.018-0.922-1.686-1.601-2.002-2.037-0.057-0.082-0.084-0.175-0.084-0.28 0-0.097 0.032-0.189 0.098-0.279 0.12-0.17 0.326-0.438 0.617-0.807s0.511-0.653 0.656-0.855c-0.218-0.403-0.384-0.804-0.498-1.201l-2.22-0.328c-0.105-0.015-0.19-0.066-0.255-0.15-0.064-0.085-0.097-0.181-0.097-0.285v-2.693c0-0.098 0.032-0.19 0.097-0.279s0.141-0.142 0.23-0.158l2.256-0.34c0.114-0.37 0.271-0.743 0.475-1.115-0.324-0.461-0.757-1.02-1.299-1.675-0.081-0.097-0.121-0.193-0.121-0.291 0-0.081 0.036-0.174 0.109-0.279 0.21-0.291 0.608-0.726 1.195-1.305 0.586-0.577 0.968-0.867 1.146-0.867 0.104 0 0.211 0.041 0.314 0.121l1.675 1.299c0.356-0.186 0.724-0.34 1.104-0.461 0.129-1.1 0.246-1.852 0.352-2.257 0.057-0.226 0.201-0.34 0.437-0.34h2.694c0.112 0 0.211 0.035 0.296 0.104s0.132 0.155 0.14 0.261l0.34 2.232c0.396 0.13 0.76 0.279 1.092 0.449l1.723-1.299c0.073-0.073 0.17-0.109 0.291-0.109 0.105 0 0.206 0.041 0.305 0.121 1.043 0.964 1.711 1.65 2.002 2.063 0.056 0.064 0.084 0.153 0.084 0.267 0 0.098-0.032 0.189-0.098 0.278-0.12 0.171-0.326 0.439-0.617 0.807-0.291 0.369-0.511 0.654-0.656 0.856 0.21 0.404 0.376 0.801 0.498 1.188l2.22 0.34c0.104 0.017 0.19 0.067 0.255 0.151 0.066 0.084 0.098 0.179 0.098 0.284zm-7.122 3.519c0.607-0.607 0.91-1.339 0.91-2.196 0-0.856-0.303-1.59-0.91-2.196-0.606-0.606-1.338-0.91-2.195-0.91s-1.59 0.304-2.195 0.91c-0.607 0.606-0.91 1.34-0.91 2.196 0 0.857 0.303 1.589 0.91 2.196 0.605 0.606 1.338 0.908 2.195 0.908s1.589-0.301 2.195-0.908z" clip-path="url(#a)" fill="#26A9E0"/>
	<path d="m1416.2 568.65c4.836 3.299 8.541 7.653 11.113 13.062 2.571 5.407 3.611 11.029 3.119 16.863-0.495 5.835-2.392 11.172-5.691 16.01-3.299 4.836-7.653 8.542-13.061 11.114-5.409 2.572-11.031 3.61-16.866 3.118-5.834-0.493-11.171-2.391-16.008-5.69-4.836-3.299-8.541-7.653-11.112-13.062-2.572-5.408-3.612-11.03-3.12-16.863 0.493-5.835 2.39-11.172 5.688-16.009 3.301-4.837 7.654-8.543 13.062-11.115s11.031-3.61 16.864-3.118c5.836 0.494 11.173 2.39 16.012 5.69zm4.626 29.142c0.349-4.134-0.387-8.114-2.208-11.944-1.821-3.829-4.445-6.913-7.872-9.251-3.428-2.334-7.209-3.677-11.341-4.028-4.134-0.351-8.114 0.384-11.945 2.205-3.829 1.821-6.912 4.447-9.248 7.874-2.338 3.428-3.68 7.208-4.031 11.339-0.35 4.135 0.385 8.117 2.206 11.946 1.821 3.83 4.446 6.911 7.874 9.249 3.428 2.336 7.206 3.681 11.341 4.028 4.132 0.352 8.114-0.384 11.944-2.205s6.911-4.446 9.248-7.874c2.335-3.425 3.68-7.205 4.032-11.339zm-24.854-17.928l8.271 17.39c0.172 0.361 0.196 0.715 0.075 1.058-0.121 0.344-0.365 0.603-0.728 0.774l-12.42 5.906c-0.362 0.173-0.716 0.198-1.059 0.076-0.344-0.122-0.602-0.364-0.773-0.726l-1.183-2.485c-0.172-0.362-0.197-0.716-0.074-1.059 0.121-0.344 0.364-0.602 0.727-0.773l8.694-4.136-6.498-13.663c-0.172-0.362-0.197-0.717-0.075-1.059 0.121-0.344 0.363-0.603 0.727-0.775l2.483-1.181c0.362-0.172 0.717-0.198 1.06-0.074 0.341 0.122 0.601 0.364 0.773 0.727z" clip-path="url(#a)" fill="#26A9E0"/>
	<path d="m1370 303.14l-0.812 2.821c-0.108 0.381-0.344 0.671-0.703 0.869-0.359 0.199-0.729 0.243-1.111 0.134l-3.148-0.906c-1.224 2.207-2.947 3.925-5.168 5.155-2.222 1.23-4.594 1.776-7.113 1.64l-0.906 3.148c-0.109 0.383-0.344 0.674-0.704 0.87-0.359 0.199-0.729 0.244-1.11 0.135l-2.819-0.811c-0.382-0.111-0.673-0.346-0.871-0.705-0.199-0.358-0.244-0.729-0.133-1.111l0.906-3.149c-2.209-1.223-3.927-2.944-5.156-5.166-1.229-2.223-1.775-4.594-1.639-7.114l-3.147-0.905c-0.385-0.11-0.674-0.344-0.873-0.703-0.198-0.359-0.243-0.729-0.132-1.111l0.81-2.82c0.108-0.381 0.344-0.671 0.705-0.871 0.357-0.198 0.728-0.242 1.11-0.134l3.149 0.906c1.223-2.207 2.945-3.926 5.166-5.155 2.222-1.228 4.594-1.774 7.113-1.639l0.906-3.149c0.109-0.381 0.344-0.672 0.704-0.87 0.359-0.198 0.729-0.244 1.112-0.134l2.818 0.81c0.381 0.111 0.672 0.346 0.871 0.706 0.197 0.359 0.243 0.729 0.133 1.11l-0.905 3.149c2.208 1.225 3.925 2.946 5.154 5.166 1.229 2.224 1.775 4.594 1.639 7.114l3.149 0.905c0.383 0.11 0.672 0.346 0.871 0.703 0.201 0.361 0.244 0.732 0.134 1.112zm-8.682 2.082l-2.401-0.691c-0.381-0.109-0.673-0.343-0.871-0.702s-0.243-0.731-0.134-1.112l0.812-2.819c0.11-0.381 0.344-0.671 0.703-0.872 0.359-0.196 0.731-0.241 1.112-0.132l2.399 0.689c-0.014-1.721-0.44-3.342-1.282-4.864-0.842-1.521-1.988-2.745-3.439-3.671l-0.69 2.401c-0.108 0.381-0.346 0.671-0.703 0.869-0.359 0.199-0.729 0.244-1.112 0.135l-2.819-0.811c-0.383-0.111-0.671-0.346-0.869-0.705-0.2-0.359-0.244-0.73-0.136-1.111l0.691-2.4c-1.721 0.014-3.343 0.44-4.863 1.284-1.522 0.842-2.747 1.987-3.672 3.438l2.399 0.691c0.381 0.109 0.672 0.345 0.871 0.702 0.198 0.361 0.243 0.732 0.134 1.114l-0.812 2.818c-0.11 0.381-0.344 0.672-0.703 0.871-0.359 0.198-0.729 0.243-1.112 0.133l-2.399-0.69c0.014 1.721 0.44 3.343 1.284 4.864 0.842 1.522 1.988 2.745 3.438 3.671l0.691-2.4c0.109-0.381 0.345-0.672 0.702-0.868 0.361-0.201 0.729-0.244 1.112-0.136l2.819 0.812c0.381 0.11 0.673 0.344 0.871 0.705 0.198 0.356 0.244 0.729 0.134 1.109l-0.691 2.401c1.722-0.014 3.343-0.441 4.865-1.284 1.521-0.841 2.744-1.988 3.671-3.439z" clip-path="url(#a)" fill="#26A9E0"/>
	<path d="m1297.8 603.6l-19.783 26.887c-0.718 0.971-1.679 1.551-2.889 1.733-1.184 0.182-2.286-0.083-3.304-0.792l-4.19-3.144c-0.99-0.687-1.58-1.649-1.768-2.88-0.185-1.208 0.092-2.312 0.825-3.31l19.754-26.848c1.229 2.1 2.838 3.881 4.82 5.34 1.986 1.462 4.162 2.469 6.535 3.014zm-20.264 19.365c0.368-0.5 0.506-1.047 0.416-1.64-0.09-0.594-0.385-1.075-0.885-1.44-0.499-0.368-1.044-0.507-1.639-0.416-0.594 0.091-1.074 0.386-1.439 0.886-0.367 0.497-0.509 1.044-0.417 1.64 0.091 0.591 0.384 1.071 0.884 1.438 0.502 0.369 1.046 0.505 1.638 0.417 0.595-0.09 1.073-0.386 1.442-0.885zm39.688-37.546c0.137 0.888 0.059 2.137-0.231 3.745-0.61 3.222-2.108 5.985-4.496 8.299-2.392 2.312-5.194 3.713-8.411 4.201-4.221 0.644-8.056-0.307-11.514-2.85-3.455-2.542-5.504-5.925-6.149-10.144-0.64-4.221 0.31-8.059 2.853-11.514 2.542-3.457 5.923-5.506 10.145-6.149 1.322-0.2 2.736-0.223 4.24-0.066 1.509 0.156 2.814 0.499 3.922 1.032 0.406 0.194 0.635 0.486 0.693 0.875 0.059 0.387-0.074 0.734-0.399 1.041l-9.146 7.305 1.167 7.666 7.158 2.652c0.105-0.084 0.923-0.771 2.452-2.066s2.934-2.454 4.213-3.477c1.283-1.024 2.021-1.551 2.229-1.584 0.34-0.051 0.627 0.022 0.857 0.221 0.226 0.2 0.366 0.47 0.417 0.813z" clip-path="url(#a)" fill="#26A9E0"/>
	<path d="m97.174 375.62c0.596 2.396 0.277 4.176-0.959 5.339-1.234 1.164-3.035 1.358-5.399 0.581l-38.546-12.671c-2.365-0.776-3.699-2.001-4.003-3.67-0.304-1.67 0.494-3.292 2.396-4.868l25.553-21.001 4.389-13.351-2.142-0.704c-0.58-0.189-1.013-0.567-1.296-1.131-0.285-0.562-0.332-1.134-0.141-1.714 0.19-0.581 0.567-1.013 1.131-1.297 0.562-0.284 1.134-0.331 1.714-0.142l17.132 5.631c0.58 0.191 1.012 0.569 1.297 1.132 0.284 0.562 0.332 1.135 0.141 1.715-0.19 0.58-0.567 1.012-1.131 1.296-0.563 0.285-1.135 0.332-1.715 0.141l-2.142-0.703-4.388 13.351 8.109 32.066zm-18.093-32.827l-13.819 11.364 23.824 7.83-4.383-17.347-0.328-1.256 0.406-1.238 4.389-13.351-4.283-1.407-4.389 13.35-0.407 1.237-1.01 0.818z" clip-path="url(#a)" fill="#26A9E0"/>
	<path d="m1438.6 349.33c1.075 0.801 1.554 1.658 1.434 2.572-0.117 0.913-0.807 1.614-2.066 2.101l-20.547 7.936c-1.261 0.488-2.242 0.433-2.943-0.164-0.702-0.597-0.925-1.553-0.669-2.869l3.51-17.608-2.749-7.116-1.142 0.441c-0.309 0.12-0.62 0.109-0.933-0.03-0.313-0.138-0.53-0.361-0.648-0.671-0.121-0.31-0.11-0.62 0.028-0.934 0.138-0.312 0.362-0.528 0.671-0.648l9.132-3.527c0.31-0.119 0.621-0.108 0.935 0.029 0.312 0.139 0.529 0.362 0.648 0.672s0.109 0.62-0.029 0.933c-0.139 0.313-0.362 0.53-0.672 0.649l-1.142 0.44 2.749 7.117 14.433 10.677zm-18.888-7.565l-1.896 9.525 12.698-4.904-7.806-5.779-0.57-0.414-0.256-0.659-2.748-7.116-2.283 0.882 2.748 7.116 0.255 0.659-0.142 0.69z" clip-path="url(#a)" fill="#26A9E0"/>
	<path d="m1372.7 535.56c0.536 1.868 0.333 3.654-0.609 5.354-0.943 1.703-2.35 2.821-4.218 3.356l-19.179 5.504c-2.175 0.624-4.256 0.385-6.245-0.717-1.989-1.103-3.295-2.74-3.919-4.914-0.445-1.552-0.436-3.091 0.029-4.617 0.466-1.526 1.289-2.803 2.47-3.828-0.117-0.321-0.202-0.571-0.252-0.748-0.716-2.49-0.444-4.871 0.812-7.14 1.257-2.268 3.132-3.761 5.623-4.475 1.855-0.533 3.688-0.499 5.495 0.101 1.807 0.603 3.297 1.638 4.469 3.106 0.613-0.964 1.485-1.608 2.613-1.932 1.245-0.357 2.435-0.223 3.569 0.405 1.136 0.63 1.88 1.567 2.237 2.812 0.254 0.881 0.246 1.762-0.023 2.64 1.618-0.082 3.095 0.35 4.435 1.293 1.341 0.95 2.237 2.214 2.693 3.8z" clip-path="url(#a)" fill="#26A9E0"/>
	<path d="m-70.656 264.94c0.945 0.945 1.418 2.093 1.418 3.443s-0.473 2.498-1.418 3.443-2.094 1.418-3.443 1.418c-1.352 0-2.498-0.473-3.443-1.418s-1.418-2.093-1.418-3.443 0.473-2.498 1.418-3.443 2.092-1.418 3.443-1.418c1.349 0 2.498 0.473 3.443 1.418zm0 12.963c0.945 0.946 1.418 2.094 1.418 3.444s-0.473 2.498-1.418 3.443-2.094 1.418-3.443 1.418c-1.352 0-2.498-0.473-3.443-1.418s-1.418-2.093-1.418-3.443 0.473-2.498 1.418-3.444c0.945-0.944 2.092-1.418 3.443-1.418 1.349 0 2.498 0.474 3.443 1.418zm0 12.964c0.945 0.945 1.418 2.094 1.418 3.443 0 1.351-0.473 2.499-1.418 3.443-0.945 0.945-2.094 1.418-3.443 1.418-1.352 0-2.498-0.473-3.443-1.418-0.945-0.944-1.418-2.093-1.418-3.443s0.473-2.498 1.418-3.443 2.092-1.418 3.443-1.418c1.349 0 2.498 0.473 3.443 1.418zm37.068-24.914v4.861c0 0.22-0.08 0.409-0.24 0.569-0.162 0.161-0.352 0.24-0.57 0.24h-30.789c-0.219 0-0.41-0.079-0.57-0.24-0.16-0.16-0.24-0.35-0.24-0.569v-4.861c0-0.22 0.08-0.409 0.24-0.57 0.16-0.16 0.352-0.24 0.57-0.24h30.789c0.219 0 0.408 0.08 0.57 0.24 0.16 0.161 0.24 0.35 0.24 0.57zm0 12.963v4.862c0 0.219-0.08 0.409-0.24 0.569-0.162 0.16-0.352 0.24-0.57 0.24h-30.789c-0.219 0-0.41-0.08-0.57-0.24s-0.24-0.351-0.24-0.569v-4.862c0-0.219 0.08-0.408 0.24-0.569 0.16-0.16 0.352-0.24 0.57-0.24h30.789c0.219 0 0.408 0.08 0.57 0.24 0.16 0.161 0.24 0.35 0.24 0.569zm0 12.964v4.861c0 0.22-0.08 0.41-0.24 0.57-0.162 0.16-0.352 0.24-0.57 0.24h-30.789c-0.219 0-0.41-0.08-0.57-0.24s-0.24-0.351-0.24-0.57v-4.861c0-0.219 0.08-0.409 0.24-0.569s0.352-0.24 0.57-0.24h30.789c0.219 0 0.408 0.08 0.57 0.24 0.16 0.16 0.24 0.35 0.24 0.569z" clip-path="url(#a)" fill="#26A9E0"/>
	<path d="m1305 243.6c-1.846-1.25-3.044-2.8-3.591-4.646-0.542-1.852-0.205-3.676 1.015-5.478 0.636-0.938 1.429-1.686 2.397-2.249 0.959-0.564 1.848-0.942 2.665-1.139 0.813-0.195 1.686-0.549 2.608-1.051 0.924-0.507 1.673-1.181 2.247-2.024 1.698-2.51 1.132-4.723-1.698-6.64-0.889-0.601-2.324-1.307-4.304-2.115-1.981-0.812-3.409-1.525-4.284-2.152l-0.171-0.117c0.337-0.5 0.583-0.887 0.727-1.153 0.46-0.819 1.083-2.021 1.868-3.603 0.788-1.577 1.527-3.002 2.215-4.263 0.688-1.263 1.387-2.424 2.096-3.47 0.944-1.395 2.045-2.365 3.295-2.914 1.252-0.548 2.532-0.38 3.83 0.499 0.845 0.572 1.519 1.319 2.023 2.243 0.507 0.926 0.858 1.795 1.058 2.608 0.194 0.817 0.573 1.706 1.138 2.67 0.562 0.962 1.309 1.761 2.244 2.395 1.801 1.219 3.629 1.559 5.481 1.014 1.847-0.548 3.396-1.743 4.648-3.591 1.298-1.914 1.882-3.898 1.755-5.946-0.128-2.05-1.125-3.71-2.994-4.975-0.98-0.663-2.044-1.134-3.192-1.409-1.14-0.276-2.137-0.39-2.981-0.349-0.846 0.044-1.708 0.017-2.59-0.08-0.881-0.099-1.572-0.316-2.073-0.658-1.025-0.695-1.688-1.908-1.98-3.635-0.227-1.387 0.275-2.99 1.513-4.815 1.467-2.17 3.633-4.778 6.496-7.83 0.188-0.17 0.44-0.454 0.777-0.846 0.329-0.394 0.586-0.677 0.771-0.853l0.369-0.396c0.015-0.022 0.05-0.05 0.104-0.079 0.031-0.044 0.059-0.059 0.081-0.045l35.046 23.725c-0.056 0.028-0.229 0.202-0.525 0.518-0.298 0.312-0.615 0.663-0.96 1.05-0.344 0.381-0.549 0.601-0.62 0.651-2.862 3.054-5.029 5.66-6.496 7.83-1.235 1.824-1.738 3.428-1.511 4.813 0.291 1.727 0.953 2.94 1.979 3.635 0.501 0.341 1.193 0.562 2.075 0.659 0.882 0.1 1.747 0.123 2.592 0.082 0.841-0.044 1.84 0.07 2.98 0.349 1.146 0.273 2.21 0.745 3.189 1.409 1.872 1.265 2.869 2.924 2.994 4.975 0.129 2.049-0.463 4.041-1.776 5.98-1.236 1.822-2.777 3.01-4.627 3.555-1.851 0.545-3.677 0.208-5.479-1.012-0.936-0.636-1.683-1.433-2.248-2.396s-0.943-1.853-1.137-2.668c-0.197-0.812-0.549-1.683-1.054-2.607-0.508-0.925-1.181-1.672-2.024-2.244-1.301-0.879-2.577-1.049-3.83-0.501s-2.351 1.521-3.292 2.915c-0.99 1.459-2.211 3.625-3.66 6.504-1.446 2.881-2.513 4.87-3.191 5.973l-0.068-0.047c-0.032-0.05-0.203-0.226-0.521-0.521-0.312-0.299-0.663-0.619-1.044-0.959-0.386-0.347-0.601-0.549-0.657-0.619-3.051-2.865-5.661-5.029-7.828-6.492-1.825-1.238-3.432-1.746-4.816-1.518-1.729 0.293-2.938 0.953-3.634 1.98-0.343 0.504-0.562 1.19-0.657 2.073-0.1 0.885-0.127 1.744-0.084 2.591 0.049 0.847-0.068 1.841-0.346 2.984-0.277 1.145-0.745 2.207-1.412 3.191-1.264 1.866-2.922 2.865-4.973 2.995-2.048 0.126-4.033-0.46-5.948-1.761z" clip-path="url(#a)" fill="#26A9E0"/>
	<path d="m1421 226.11l22.336 9.112c-1.164 2.932-2.862 5.544-5.098 7.834-2.23 2.296-4.854 4.076-7.867 5.342-4.013 1.688-8.13 2.252-12.349 1.701-4.221-0.553-8.031-2.112-11.432-4.669-3.402-2.558-5.948-5.84-7.635-9.853-1.684-4.013-2.25-8.131-1.695-12.35 0.554-4.222 2.104-8.03 4.664-11.435 2.556-3.398 5.844-5.944 9.854-7.631l9.222 21.949zm24.331-14.36l-22.116 9.295-9.296-22.117c4.01-1.686 8.127-2.253 12.346-1.701 4.221 0.556 8.031 2.11 11.434 4.667 3.399 2.559 5.946 5.841 7.632 9.856zm-18.867 12.264l22.258-9.353c1.269 3.016 1.896 6.119 1.889 9.323-0.012 3.2-0.629 6.252-1.846 9.159l-22.301-9.129z" clip-path="url(#a)" fill="#26A9E0"/>
	<path d="m1419.3 476.38c3.658-0.391 7.397-0.011 11.215 1.139 3.813 1.149 7.14 2.898 9.975 5.245 2.835 2.348 4.835 4.982 6.005 7.906 1.167 2.924 1.332 5.774 0.495 8.552-0.836 2.777-2.548 5.063-5.136 6.854-2.591 1.793-5.714 2.885-9.375 3.274-3.658 0.39-7.396 0.011-11.212-1.139-1.72-0.519-3.429-1.208-5.132-2.069-3.008 1.011-6.169 1.454-9.486 1.324-0.774-0.035-1.684-0.134-2.723-0.297l-0.091-0.026c-0.22-0.066-0.399-0.208-0.541-0.424-0.144-0.217-0.193-0.462-0.154-0.733-3e-3 -0.065 7e-3 -0.133 0.029-0.203 0.021-0.07 0.044-0.134 0.072-0.192 0.026-0.057 0.065-0.109 0.113-0.16s0.089-0.093 0.119-0.128c0.033-0.034 0.085-0.078 0.156-0.133 0.069-0.056 0.127-0.093 0.165-0.113 0.04-0.022 0.098-0.059 0.18-0.11 0.081-0.052 0.135-0.084 0.161-0.098 0.135-0.091 0.439-0.271 0.915-0.543 0.475-0.271 0.822-0.487 1.044-0.648 0.224-0.162 0.535-0.384 0.938-0.665 0.4-0.284 0.767-0.594 1.097-0.93 0.331-0.336 0.667-0.714 1.014-1.133-2.045-2.186-3.462-4.542-4.248-7.065-0.787-2.526-0.822-4.978-0.105-7.356 0.836-2.777 2.55-5.062 5.14-6.854 2.586-1.794 5.709-2.885 9.37-3.275zm18.159 9.117c-2.344-1.841-5.044-3.221-8.102-4.142-3.059-0.921-6.072-1.263-9.043-1.023-2.969 0.237-5.506 1.009-7.611 2.315-2.104 1.307-3.462 2.979-4.076 5.017-0.494 1.638-0.442 3.375 0.162 5.213 0.601 1.839 1.692 3.606 3.271 5.303l2.402 2.555-1.808 2.201c0.8-0.196 1.537-0.398 2.211-0.61l1.598-0.531 1.498 0.779c1.474 0.748 2.96 1.349 4.461 1.801 3.057 0.92 6.07 1.264 9.04 1.024 2.972-0.238 5.51-1.01 7.612-2.317 2.104-1.305 3.464-2.977 4.079-5.015 0.614-2.038 0.403-4.184-0.629-6.435-1.03-2.251-2.719-4.295-5.065-6.135zm7.135 34.482c0.055 0.539 0.129 1.04 0.218 1.504 0.088 0.463 0.223 0.921 0.402 1.379 0.177 0.457 0.315 0.813 0.41 1.072 0.097 0.257 0.27 0.631 0.513 1.119 0.247 0.487 0.4 0.807 0.465 0.957 0.014 0.025 0.039 0.082 0.078 0.172 0.039 0.087 0.071 0.15 0.092 0.189 0.021 0.038 0.046 0.102 0.074 0.186 0.028 0.085 0.046 0.151 0.055 0.198 7e-3 0.045 0.017 0.102 0.029 0.171s0.014 0.136 6e-3 0.198c-6e-3 0.063-0.021 0.13-0.043 0.199-0.021 0.07-0.052 0.132-0.089 0.187-0.144 0.262-0.339 0.441-0.589 0.541-0.246 0.1-0.488 0.104-0.723 0.012-0.956-0.44-1.769-0.861-2.434-1.257-2.836-1.727-5.228-3.842-7.177-6.347-1.893-0.222-3.7-0.592-5.418-1.109-5.414-1.632-9.733-4.371-12.955-8.218 1.136 0.429 2.001 0.731 2.603 0.913 3.216 0.97 6.438 1.45 9.665 1.442 3.229-9e-3 6.255-0.502 9.079-1.482 3.051-1.085 5.608-2.626 7.669-4.62 2.062-1.995 3.494-4.331 4.301-7.008 0.464-1.539 0.692-3.127 0.684-4.764 2.15 2.194 3.654 4.589 4.508 7.178 0.854 2.59 0.912 5.112 0.171 7.569-0.723 2.397-2.108 4.428-4.155 6.089-2.049 1.661-4.529 2.838-7.439 3.53z" clip-path="url(#a)" fill="#26A9E0"/>
	<path d="m57.871 239.42c1.621-1.025 3.367-1.329 5.24-0.908 1.874 0.421 3.325 1.44 4.352 3.062s1.328 3.368 0.909 5.24c-0.421 1.873-1.44 3.324-3.062 4.351l11.158 17.616c1.01 1.59 1.299 3.332 0.871 5.231-0.423 1.898-1.432 3.352-3.023 4.361-19.473-2.535-35.572-0.482-48.292 6.161-1.405 1.705-2.159 3.599-2.257 5.672-0.1 2.078 0.401 3.915 1.497 5.513 1.102 1.596 2.605 2.624 4.524 3.081 0.029 1.395 0.313 2.62 0.85 3.671 0.536 1.054 1.189 1.881 1.961 2.486 0.766 0.607 1.813 1.123 3.135 1.55 1.317 0.43 2.539 0.728 3.652 0.898 1.117 0.174 2.547 0.348 4.29 0.532 0.236 2.333-0.664 4.684-2.702 7.046-2.037 2.362-4.505 4.17-7.396 5.425-2.892 1.254-5.447 1.684-7.669 1.29-0.658-0.569-1.959-1.621-3.896-3.159-1.939-1.535-3.343-2.668-4.214-3.402-0.871-0.733-2.082-1.873-3.64-3.414-1.559-1.544-2.765-2.943-3.626-4.197-0.86-1.255-1.761-2.795-2.699-4.623-0.942-1.822-1.676-3.726-2.204-5.707l-5.596 3.546c-2.02 1.277-4.199 1.654-6.547 1.127-2.351-0.526-4.164-1.797-5.441-3.816l-5.58-8.81c-1.277-2.017-1.654-4.199-1.127-6.551 0.528-2.346 1.799-4.16 3.816-5.438l22.021-13.948c13.302-8.429 23.284-22.977 29.942-43.652 1.592-1.01 3.338-1.299 5.236-0.871 1.899 0.425 3.351 1.433 4.358 3.022l11.159 17.615zm11.678 31.429l-27.722-43.764c-6.199 16.869-14.617 29.551-25.263 38.052l7.846 12.385c12.342-6.017 27.391-8.244 45.139-6.673z" clip-path="url(#a)" fill="#26A9E0"/>
	<path d="m45.521 494.61c1.042 2.263 1.554 4.28 1.54 6.049l-0.231 29.329c-0.016 0.837-0.262 1.605-0.734 2.302-0.473 0.694-1.082 1.216-1.83 1.56-0.747 0.344-1.54 0.47-2.374 0.378-0.836-0.095-1.568-0.411-2.195-0.952l-22.472-18.871c-1.357-1.137-2.554-2.838-3.597-5.1-2.027-4.402-2.203-8.877-0.523-13.427s4.72-7.839 9.122-9.866c4.402-2.029 8.877-2.203 13.427-0.523s7.837 4.719 9.867 9.121zm-7.713 10.387c0.84-2.274 0.751-4.511-0.262-6.712s-2.658-3.723-4.933-4.562c-2.274-0.838-4.513-0.752-6.714 0.264-2.201 1.013-3.72 2.657-4.562 4.931-0.836 2.277-0.752 4.514 0.262 6.715 1.012 2.2 2.659 3.721 4.934 4.56 2.274 0.84 4.512 0.754 6.712-0.261 2.202-1.015 3.722-2.659 4.563-4.935z" clip-path="url(#a)" fill="#26A9E0"/>
</svg>
