<?xml version="1.0" encoding="utf-8"?>
<!-- Generator: Adobe Illustrator 16.0.0, SVG Export Plug-In . SVG Version: 6.00 Build 0)  -->
<!DOCTYPE svg PUBLIC "-//W3C//DTD SVG 1.1//EN" "http://www.w3.org/Graphics/SVG/1.1/DTD/svg11.dtd">
<svg version="1.1" id="Layer_1" xmlns="http://www.w3.org/2000/svg" xmlns:xlink="http://www.w3.org/1999/xlink" x="0px" y="0px"
	 width="1438px" height="405.5px" viewBox="0.5 203.75 1438 405.5" enable-background="new 0.5 203.75 1438 405.5"
	 xml:space="preserve">
<title>BG_icon1</title>
<desc>Created with Sketch.</desc>
<g>
	<defs>
		<rect id="SVGID_1_" x="0.5" y="203.75" width="1438" height="405.5"/>
	</defs>
	<clipPath id="SVGID_2_">
		<use xlink:href="#SVGID_1_"  overflow="visible"/>
	</clipPath>
	<rect x="0.5" y="203.75" clip-path="url(#SVGID_2_)" fill="#26A9E0" width="1438" height="405.5"/>
	<path opacity="0.4" clip-path="url(#SVGID_2_)" fill="#FFFFFF" d="M176.308,184.278c-0.707,4.162-3.584,8.027-8.625,11.605
		l-20.466,13.949c-0.397,0.282-0.839,0.381-1.329,0.298c-0.489-0.084-0.873-0.323-1.155-0.72l-14.729-19.988
		c-0.164-0.183-0.38-0.472-0.651-0.866c-0.271-0.393-0.689-1.1-1.252-2.115c-0.564-1.016-1.047-2.041-1.453-3.079
		c-0.403-1.035-0.715-2.259-0.929-3.673c-0.216-1.41-0.216-2.746-0.003-4.009c0.704-4.139,2.449-7.174,5.236-9.1
		c2.788-1.927,6.289-2.533,10.504-1.817c1.167,0.198,2.322,0.602,3.468,1.214c1.145,0.61,2.182,1.349,3.109,2.213
		c0.927,0.865,1.716,1.661,2.367,2.392c0.651,0.729,1.256,1.491,1.82,2.283c0.792-0.562,1.617-1.08,2.471-1.554
		c0.855-0.475,1.863-0.966,3.024-1.476c1.162-0.51,2.384-0.863,3.667-1.062c1.282-0.198,2.507-0.198,3.673,0.001
		c4.215,0.715,7.32,2.443,9.313,5.184C176.366,176.698,177.011,180.139,176.308,184.278z M172.694,183.664
		c0.258-1.523,0.285-2.904,0.08-4.139c-0.208-1.236-0.566-2.252-1.081-3.047c-0.514-0.792-1.187-1.482-2.016-2.069
		c-0.829-0.585-1.665-1.028-2.505-1.326s-1.749-0.531-2.728-0.696c-0.98-0.167-2.074-0.105-3.285,0.184
		c-1.21,0.288-2.354,0.715-3.425,1.276c-1.075,0.562-2.004,1.104-2.787,1.616c-0.787,0.516-1.449,0.999-1.99,1.45
		c-0.41,0.354-0.906,0.484-1.489,0.386c-0.584-0.1-1.011-0.386-1.279-0.857c-0.362-0.604-0.828-1.277-1.399-2.023
		c-0.569-0.745-1.269-1.562-2.096-2.447c-0.826-0.886-1.764-1.665-2.812-2.337c-1.048-0.673-2.062-1.092-3.04-1.258
		c-0.98-0.167-1.915-0.246-2.806-0.244c-0.892,0.005-1.824,0.146-2.801,0.425s-1.84,0.709-2.587,1.289
		c-0.748,0.58-1.421,1.419-2.025,2.517c-0.603,1.099-1.032,2.41-1.292,3.935c-0.539,3.161,0.654,6.801,3.576,10.918l13.713,18.596
		l19.057-12.998C169.819,189.876,172.157,186.826,172.694,183.664z"/>
	<path opacity="0.4" clip-path="url(#SVGID_2_)" fill="#FFFFFF" d="M31.4,206.592l2.189,8.479c0.11,0.412,0.064,0.787-0.133,1.119
		c-0.194,0.335-0.502,0.554-0.913,0.664l-8.481,2.188c-0.413,0.108-0.789,0.062-1.12-0.135c-0.333-0.195-0.551-0.501-0.658-0.912
		l-2.195-8.483c-0.104-0.41-0.059-0.783,0.137-1.117c0.196-0.333,0.5-0.554,0.911-0.66l8.483-2.192
		c0.411-0.106,0.783-0.062,1.122,0.137C31.071,205.873,31.293,206.179,31.4,206.592z M46.9,196.552l3.654,14.138
		c0.106,0.412,0.061,0.782-0.137,1.117c-0.196,0.332-0.5,0.555-0.91,0.659l-8.48,2.195c-0.415,0.104-0.791,0.061-1.122-0.137
		c-0.334-0.194-0.555-0.5-0.659-0.912l-3.655-14.14c-0.103-0.411-0.061-0.779,0.133-1.116c0.198-0.332,0.501-0.553,0.916-0.659
		l8.48-2.189c0.412-0.11,0.787-0.066,1.119,0.132C46.573,195.839,46.794,196.14,46.9,196.552z M60.941,180.863l6.574,25.439
		c0.106,0.412,0.064,0.787-0.131,1.119c-0.198,0.335-0.501,0.554-0.916,0.661l-8.48,2.191c-0.414,0.108-0.787,0.064-1.119-0.135
		c-0.333-0.195-0.553-0.502-0.658-0.914l-6.578-25.439c-0.106-0.416-0.061-0.787,0.133-1.121c0.194-0.333,0.501-0.555,0.912-0.661
		l8.484-2.191c0.412-0.106,0.785-0.062,1.117,0.135C60.615,180.144,60.832,180.447,60.941,180.863z M73.518,159.513L84.48,201.92
		c0.106,0.413,0.061,0.785-0.137,1.118c-0.194,0.332-0.498,0.555-0.913,0.665l-8.481,2.188c-0.415,0.106-0.785,0.062-1.12-0.135
		c-0.331-0.198-0.553-0.5-0.657-0.913L62.21,162.436c-0.106-0.411-0.061-0.787,0.133-1.121c0.198-0.331,0.502-0.552,0.914-0.66
		l8.482-2.191c0.414-0.105,0.783-0.061,1.118,0.136C73.191,158.797,73.409,159.1,73.518,159.513z M84.635,132.511l16.808,65.022
		c0.106,0.412,0.059,0.787-0.137,1.119c-0.198,0.335-0.5,0.555-0.912,0.661l-8.48,2.189c-0.415,0.108-0.787,0.062-1.121-0.133
		c-0.334-0.197-0.551-0.502-0.66-0.916l-16.808-65.021c-0.106-0.41-0.061-0.783,0.135-1.115c0.198-0.335,0.502-0.558,0.914-0.664
		l8.482-2.19c0.413-0.11,0.783-0.062,1.116,0.135C84.309,131.795,84.529,132.099,84.635,132.511z"/>
	<path opacity="0.4" clip-path="url(#SVGID_2_)" fill="#FFFFFF" d="M1416.153,162.646c4.836,3.299,8.541,7.653,11.113,13.062
		c2.571,5.407,3.611,11.029,3.119,16.863c-0.495,5.835-2.392,11.172-5.691,16.01c-3.299,4.836-7.653,8.542-13.061,11.114
		c-5.409,2.572-11.031,3.61-16.866,3.118c-5.834-0.493-11.171-2.391-16.008-5.69c-4.836-3.299-8.541-7.653-11.112-13.062
		c-2.572-5.408-3.612-11.03-3.12-16.863c0.493-5.835,2.39-11.172,5.688-16.009c3.301-4.837,7.654-8.543,13.062-11.115
		s11.031-3.61,16.864-3.118C1405.977,157.45,1411.314,159.346,1416.153,162.646z M1420.779,191.788
		c0.349-4.134-0.387-8.114-2.208-11.944c-1.821-3.829-4.445-6.913-7.872-9.251c-3.428-2.334-7.209-3.677-11.341-4.028
		c-4.134-0.351-8.114,0.384-11.945,2.205c-3.829,1.821-6.912,4.447-9.248,7.874c-2.338,3.428-3.68,7.208-4.031,11.339
		c-0.35,4.135,0.385,8.117,2.206,11.946c1.821,3.83,4.446,6.911,7.874,9.249c3.428,2.336,7.206,3.681,11.341,4.028
		c4.132,0.352,8.114-0.384,11.944-2.205s6.911-4.446,9.248-7.874C1419.082,199.702,1420.427,195.922,1420.779,191.788z
		 M1395.925,173.86l8.271,17.39c0.172,0.361,0.196,0.715,0.075,1.058c-0.121,0.344-0.365,0.603-0.728,0.774l-12.42,5.906
		c-0.362,0.173-0.716,0.198-1.059,0.076c-0.344-0.122-0.602-0.364-0.773-0.726l-1.183-2.485c-0.172-0.362-0.197-0.716-0.074-1.059
		c0.121-0.344,0.364-0.602,0.727-0.773l8.694-4.136l-6.498-13.663c-0.172-0.362-0.197-0.717-0.075-1.059
		c0.121-0.344,0.363-0.603,0.727-0.775l2.483-1.181c0.362-0.172,0.717-0.198,1.06-0.074
		C1395.493,173.255,1395.753,173.497,1395.925,173.86z"/>
	<path opacity="0.4" clip-path="url(#SVGID_2_)" fill="#FFFFFF" d="M1297.76,197.596l-19.783,26.887
		c-0.718,0.971-1.679,1.551-2.889,1.733c-1.184,0.182-2.286-0.083-3.304-0.792l-4.19-3.144c-0.99-0.687-1.58-1.649-1.768-2.88
		c-0.185-1.208,0.092-2.312,0.825-3.31l19.754-26.848c1.229,2.1,2.838,3.881,4.82,5.34
		C1293.211,196.044,1295.387,197.051,1297.76,197.596z M1277.496,216.961c0.368-0.5,0.506-1.047,0.416-1.64
		c-0.09-0.594-0.385-1.075-0.885-1.44c-0.499-0.368-1.044-0.507-1.639-0.416c-0.594,0.091-1.074,0.386-1.439,0.886
		c-0.367,0.497-0.509,1.044-0.417,1.64c0.091,0.591,0.384,1.071,0.884,1.438c0.502,0.369,1.046,0.505,1.638,0.417
		C1276.649,217.756,1277.127,217.46,1277.496,216.961z M1317.184,179.415c0.137,0.888,0.059,2.137-0.231,3.745
		c-0.61,3.222-2.108,5.985-4.496,8.299c-2.392,2.312-5.194,3.713-8.411,4.201c-4.221,0.644-8.056-0.307-11.514-2.85
		c-3.455-2.542-5.504-5.925-6.149-10.144c-0.64-4.221,0.31-8.059,2.853-11.514c2.542-3.457,5.923-5.506,10.145-6.149
		c1.322-0.2,2.736-0.223,4.24-0.066c1.509,0.156,2.814,0.499,3.922,1.032c0.406,0.194,0.635,0.486,0.693,0.875
		c0.059,0.387-0.074,0.734-0.399,1.041l-9.146,7.305l1.167,7.666l7.158,2.652c0.105-0.084,0.923-0.771,2.452-2.066
		s2.934-2.454,4.213-3.477c1.283-1.024,2.021-1.551,2.229-1.584c0.34-0.051,0.627,0.022,0.857,0.221
		C1316.993,178.802,1317.133,179.072,1317.184,179.415z"/>
	<path opacity="0.4" clip-path="url(#SVGID_2_)" fill="#FFFFFF" d="M105.881,602.673c-2.184,2.108-4.762,3.437-7.736,3.986
		c-0.597,1.003-1.336,1.93-2.219,2.782c-1.887,1.822-4.104,3.062-6.645,3.717c-0.444,0.57-0.936,1.116-1.475,1.636
		c-2.477,2.393-5.369,3.764-8.677,4.115c-3.386,3.315-7.081,4.871-11.091,4.67c-4.011-0.204-7.685-2.033-11.022-5.49l-1.278-1.324
		l-3.303-3.42c-2.272-2.354-4.24-4.943-5.902-7.769c-1.662-2.826-3.421-6.255-5.279-10.288c-1.767-3.791-2.908-5.956-3.43-6.495
		l-10.227-10.592c-1.256-1.3-1.866-2.853-1.835-4.661c0.03-1.806,0.696-3.336,1.996-4.592l23.536-22.728
		c1.301-1.255,2.854-1.867,4.66-1.835c1.808,0.032,3.338,0.696,4.594,1.996l9.73,10.077c1.44,0.313,4.963,0.158,10.564-0.466
		c3.213-0.354,6.047-0.558,8.508-0.61c1.18-0.004,2.648-0.581,4.404-1.731s3.668-2.273,5.736-3.37s4.125-1.615,6.173-1.556
		c1.831,0.08,3.35,0.746,4.558,1.996c1.988,2.061,3.377,4.295,4.167,6.708c0.788,2.412,0.753,4.862-0.11,7.354
		s-2.729,5.122-5.598,7.893c-2.28,2.202-5.202,3.887-8.766,5.053l6.25,6.474c2.462,2.55,3.662,5.656,3.597,9.318
		C109.698,597.184,108.405,600.235,105.881,602.673z M36.873,576.989c0.916,0.016,1.693-0.284,2.33-0.899
		c0.638-0.616,0.964-1.382,0.981-2.297c0.015-0.915-0.284-1.692-0.899-2.329c-0.617-0.639-1.383-0.965-2.297-0.981
		c-0.916-0.015-1.692,0.284-2.33,0.9c-0.638,0.615-0.965,1.382-0.98,2.297c-0.018,0.916,0.283,1.691,0.899,2.329
		C35.193,576.646,35.957,576.973,36.873,576.989z M101.297,598.002c1.251-1.208,1.886-2.745,1.906-4.613
		c0.021-1.867-0.561-3.415-1.744-4.641l-12.501-12.945c1.421-1.372,3.946-2.673,7.571-3.898c3.625-1.227,6.16-2.537,7.606-3.935
		c2.403-2.319,3.802-4.43,4.196-6.326c0.395-1.898-0.545-4.022-2.817-6.376c-1.253-0.022-2.744,0.519-4.475,1.62
		c-1.731,1.103-3.631,2.215-5.698,3.336c-2.07,1.122-4.117,1.688-6.141,1.7c-1.086,0.006-3.111,0.138-6.082,0.4
		c-0.217,0.02-0.857,0.093-1.92,0.22c-1.062,0.125-1.938,0.225-2.625,0.297c-0.689,0.071-1.619,0.153-2.789,0.241
		c-1.171,0.088-2.184,0.118-3.039,0.091s-1.745-0.08-2.672-0.156c-0.928-0.075-1.731-0.247-2.414-0.512
		c-0.683-0.264-1.213-0.594-1.592-0.985l-1.137-1.177L41.396,583.07l1.137,1.177c0.307,0.318,0.643,0.74,1.009,1.265
		c0.364,0.524,0.674,1.007,0.932,1.445s0.573,1.033,0.946,1.786c0.37,0.755,0.646,1.32,0.818,1.697
		c0.175,0.376,0.44,0.96,0.802,1.749c0.36,0.79,0.574,1.269,0.644,1.44c3.205,6.901,6.358,11.957,9.46,15.169l4.298,4.45
		c4.545,4.707,8.866,5.083,12.96,1.13c0.637-0.615,1.264-1.339,1.883-2.173c1.102,0.358,2.307,0.318,3.617-0.116
		c1.309-0.437,2.417-1.091,3.324-1.968c0.906-0.875,1.539-1.913,1.897-3.111c2.479,0.115,4.567-0.643,6.259-2.276
		c0.613-0.592,1.174-1.372,1.686-2.339c0.512-0.968,0.797-1.836,0.859-2.606c0.781,0.762,1.991,0.86,3.628,0.299
		C99.19,599.525,100.439,598.831,101.297,598.002z"/>
	<path opacity="0.4" clip-path="url(#SVGID_2_)" fill="#FFFFFF" d="M120.49,454.135c2.444,3.1,3.326,7.521,2.646,13.263
		l-3.153,22.953c-0.054,0.451-0.263,0.82-0.627,1.108c-0.364,0.287-0.772,0.403-1.224,0.351l-23.109-2.313
		c-0.229-0.001-0.566-0.032-1.01-0.091c-0.444-0.059-1.195-0.211-2.254-0.458c-1.059-0.245-2.073-0.553-3.047-0.923
		c-0.974-0.369-2.018-0.921-3.133-1.658c-1.114-0.734-2.042-1.573-2.783-2.513c-2.432-3.084-3.443-6.198-3.033-9.341
		s2.186-5.953,5.327-8.43c0.869-0.686,1.874-1.234,3.017-1.646c1.143-0.411,2.305-0.668,3.486-0.77s2.23-0.149,3.145-0.144
		c0.914,0.007,1.824,0.063,2.727,0.17c0.107-0.902,0.264-1.8,0.471-2.69s0.498-1.898,0.873-3.024s0.896-2.195,1.562-3.211
		c0.667-1.015,1.435-1.863,2.305-2.549c3.142-2.477,6.288-3.548,9.439-3.214C115.266,449.341,118.059,451.051,120.49,454.135z
		 M117.798,456.258c-0.896-1.135-1.837-2.019-2.823-2.65c-0.987-0.632-1.917-1.019-2.791-1.16c-0.873-0.141-1.773-0.107-2.701,0.1
		c-0.927,0.209-1.758,0.511-2.49,0.908c-0.734,0.396-1.467,0.881-2.195,1.456s-1.373,1.373-1.932,2.395
		c-0.561,1.021-0.98,2.081-1.264,3.178c-0.283,1.099-0.49,2.082-0.625,2.949c-0.135,0.868-0.215,1.631-0.242,2.289
		c-0.01,0.507-0.231,0.933-0.666,1.275c-0.436,0.343-0.9,0.459-1.396,0.35c-0.646-0.127-1.406-0.227-2.282-0.299
		c-0.875-0.071-1.879-0.098-3.014-0.079c-1.133,0.019-2.262,0.18-3.385,0.486c-1.123,0.306-2.051,0.746-2.779,1.32
		c-0.729,0.575-1.372,1.174-1.928,1.794c-0.558,0.621-1.045,1.358-1.464,2.211c-0.419,0.854-0.661,1.722-0.728,2.604
		c-0.066,0.883,0.093,1.877,0.477,2.984c0.385,1.107,1.024,2.228,1.92,3.364c1.857,2.355,5.131,3.811,9.82,4.365l21.508,2.144
		l2.93-21.377C120.305,462.149,119.656,458.614,117.798,456.258z"/>
	<path opacity="0.4" clip-path="url(#SVGID_2_)" fill="#FFFFFF" d="M174.832,552.135l-1.48,3.328
		c-0.053,0.12-0.146,0.219-0.281,0.296c-0.135,0.076-0.259,0.097-0.373,0.061l-2.98-0.809c-0.318,0.361-0.713,0.732-1.184,1.112
		c0.152,0.757,0.385,1.687,0.699,2.79c0.031,0.157,0.02,0.296-0.033,0.415c-0.064,0.145-0.158,0.239-0.279,0.287
		c-0.436,0.236-1.169,0.554-2.199,0.95c-1.032,0.396-1.662,0.544-1.89,0.442c-0.132-0.059-0.239-0.156-0.321-0.294l-1.35-2.539
		c-0.546,0.03-1.09,0.011-1.634-0.06c-0.708,1.237-1.259,2.106-1.653,2.607c-0.213,0.25-0.457,0.313-0.732,0.191l-3.348-1.488
		c-0.133-0.06-0.231-0.157-0.3-0.295c-0.067-0.139-0.081-0.27-0.04-0.396l0.81-2.937c-0.354-0.302-0.722-0.688-1.101-1.158
		l-2.836,0.658c-0.121,0.046-0.26,0.035-0.416-0.034c-0.133-0.059-0.237-0.163-0.314-0.312c-1.018-2.363-1.455-3.708-1.312-4.031
		c0.048-0.108,0.142-0.203,0.278-0.286c0.195-0.114,0.582-0.323,1.162-0.625c0.58-0.304,1.023-0.544,1.334-0.722
		c-0.042-0.651-0.033-1.236,0.025-1.757l-2.543-1.647c-0.115-0.065-0.191-0.168-0.23-0.307c-0.038-0.14-0.028-0.275,0.031-0.407
		l1.479-3.329c0.054-0.12,0.148-0.218,0.282-0.295c0.134-0.076,0.259-0.097,0.372-0.061l2.982,0.808
		c0.318-0.361,0.712-0.731,1.183-1.111c-0.151-0.758-0.385-1.688-0.699-2.79c-0.024-0.17-0.014-0.309,0.034-0.416
		c0.064-0.145,0.159-0.245,0.285-0.304c0.424-0.243,1.154-0.558,2.188-0.945c1.034-0.389,1.665-0.531,1.894-0.431
		c0.132,0.06,0.239,0.157,0.322,0.295l1.35,2.538c0.503-0.034,1.051-0.021,1.641,0.041c0.709-1.237,1.257-2.1,1.646-2.587
		c0.212-0.251,0.455-0.315,0.732-0.192l3.347,1.487c0.132,0.059,0.231,0.158,0.3,0.296s0.081,0.27,0.04,0.395l-0.81,2.938
		c0.354,0.302,0.721,0.688,1.102,1.157l2.835-0.657c0.134-0.041,0.272-0.029,0.416,0.034c0.132,0.059,0.237,0.162,0.313,0.312
		c1.02,2.364,1.456,3.707,1.312,4.032c-0.048,0.107-0.141,0.202-0.277,0.285c-0.23,0.129-0.626,0.34-1.188,0.637
		c-0.562,0.296-0.993,0.535-1.29,0.719c0.02,0.699,0.004,1.282-0.045,1.748l2.553,1.63c0.108,0.077,0.183,0.186,0.221,0.325
		C174.901,551.866,174.891,552.003,174.832,552.135z M164.397,553.356c1.299-0.499,2.231-1.385,2.797-2.656s0.598-2.558,0.099-3.857
		c-0.5-1.3-1.386-2.232-2.657-2.798s-2.559-0.598-3.857-0.099c-1.3,0.501-2.232,1.387-2.798,2.658
		c-0.565,1.271-0.599,2.558-0.099,3.856c0.5,1.301,1.387,2.232,2.658,2.798S163.096,553.857,164.397,553.356z M190.278,548.418
		l-1.119,2.52c-0.086,0.192-1.062-0.02-2.93-0.634c-0.289,0.259-0.607,0.492-0.957,0.695c0.01,1.628-0.053,2.592-0.186,2.892
		c-0.021,0.048-0.064,0.079-0.128,0.094c-1.843,0.201-2.775,0.297-2.8,0.286c-0.096-0.044-0.246-0.447-0.451-1.214
		s-0.336-1.313-0.393-1.64c-0.25-0.083-0.436-0.151-0.555-0.204c-0.121-0.053-0.295-0.146-0.524-0.275
		c-0.28,0.176-0.773,0.446-1.479,0.807c-0.707,0.361-1.108,0.521-1.204,0.479c-0.024-0.011-0.579-0.768-1.663-2.27
		c-0.033-0.058-0.038-0.11-0.018-0.158c0.135-0.301,0.809-0.992,2.022-2.075c-0.083-0.396-0.124-0.788-0.124-1.176
		c-1.707-0.976-2.519-1.559-2.434-1.751l1.12-2.52c0.085-0.191,1.062,0.02,2.93,0.635c0.31-0.278,0.629-0.51,0.956-0.695
		c-0.01-1.628,0.053-2.592,0.186-2.892c0.021-0.048,0.064-0.08,0.129-0.095c0.058-0.002,0.321-0.029,0.789-0.079
		c0.469-0.051,0.912-0.098,1.334-0.141c0.422-0.042,0.644-0.058,0.668-0.048c0.096,0.043,0.248,0.444,0.456,1.205
		s0.339,1.304,0.396,1.631c0.25,0.082,0.436,0.15,0.557,0.204c0.119,0.054,0.294,0.146,0.523,0.275
		c0.99-0.579,1.841-1.006,2.552-1.279l0.124,0.013c0.047,0.021,0.604,0.771,1.672,2.252c0.031,0.057,0.036,0.109,0.016,0.157
		c-0.134,0.3-0.809,0.992-2.022,2.075c0.081,0.367,0.122,0.759,0.124,1.176C189.552,547.642,190.364,548.225,190.278,548.418z
		 M182.086,566.845l-1.119,2.52c-0.086,0.192-1.062-0.02-2.93-0.635c-0.289,0.261-0.607,0.492-0.957,0.697
		c0.01,1.627-0.053,2.591-0.186,2.891c-0.021,0.049-0.064,0.079-0.128,0.095c-1.843,0.201-2.775,0.296-2.8,0.285
		c-0.096-0.043-0.246-0.447-0.451-1.214s-0.336-1.313-0.393-1.64c-0.25-0.083-0.436-0.15-0.556-0.203
		c-0.12-0.054-0.294-0.146-0.524-0.276c-0.279,0.177-0.772,0.445-1.479,0.808c-0.706,0.36-1.108,0.52-1.203,0.478
		c-0.024-0.011-0.579-0.768-1.664-2.27c-0.032-0.058-0.038-0.11-0.017-0.158c0.134-0.3,0.809-0.992,2.022-2.075
		c-0.083-0.396-0.124-0.788-0.124-1.176c-1.708-0.976-2.52-1.558-2.434-1.75l1.12-2.52c0.085-0.191,1.062,0.02,2.929,0.634
		c0.311-0.277,0.63-0.511,0.957-0.695c-0.01-1.628,0.053-2.592,0.186-2.892c0.021-0.048,0.064-0.08,0.129-0.095
		c0.058-0.002,0.321-0.028,0.789-0.079c0.468-0.05,0.912-0.097,1.334-0.14c0.421-0.043,0.644-0.06,0.668-0.049
		c0.096,0.043,0.247,0.444,0.455,1.205c0.209,0.761,0.34,1.304,0.396,1.631c0.25,0.083,0.436,0.15,0.557,0.204
		c0.119,0.053,0.293,0.146,0.523,0.276c0.99-0.58,1.84-1.007,2.551-1.28l0.124,0.012c0.048,0.021,0.605,0.772,1.672,2.252
		c0.032,0.058,0.037,0.11,0.017,0.158c-0.135,0.301-0.809,0.991-2.022,2.075c0.081,0.367,0.122,0.759,0.124,1.177
		C181.36,566.07,182.171,566.654,182.086,566.845z M185.111,547.629c0.277-0.623,0.289-1.264,0.036-1.923
		c-0.254-0.659-0.691-1.127-1.315-1.404s-1.265-0.289-1.924-0.036c-0.659,0.254-1.127,0.692-1.403,1.315
		c-0.283,0.638-0.3,1.28-0.05,1.93s0.692,1.116,1.329,1.398c0.636,0.282,1.279,0.299,1.928,0.049
		C184.362,548.708,184.828,548.265,185.111,547.629z M176.918,566.057c0.277-0.623,0.29-1.265,0.037-1.924
		c-0.254-0.658-0.691-1.126-1.315-1.403c-0.624-0.278-1.266-0.289-1.925-0.036c-0.658,0.254-1.126,0.692-1.402,1.315
		c-0.283,0.637-0.3,1.279-0.05,1.929s0.692,1.116,1.329,1.398c0.635,0.283,1.278,0.3,1.928,0.049
		C176.17,567.136,176.636,566.693,176.918,566.057z"/>
	<path opacity="0.4" clip-path="url(#SVGID_2_)" fill="#FFFFFF" d="M1420.897,587.259l-2.078,4.673
		c-0.074,0.168-0.206,0.307-0.396,0.415c-0.188,0.107-0.363,0.136-0.523,0.085l-4.185-1.135c-0.447,0.507-1.001,1.028-1.662,1.562
		c0.214,1.062,0.54,2.368,0.981,3.917c0.044,0.221,0.028,0.416-0.046,0.583c-0.091,0.203-0.223,0.336-0.393,0.403
		c-0.611,0.331-1.641,0.777-3.088,1.334c-1.449,0.557-2.334,0.764-2.653,0.621c-0.185-0.082-0.336-0.22-0.451-0.413l-1.895-3.564
		c-0.767,0.042-1.53,0.015-2.294-0.084c-0.994,1.737-1.768,2.958-2.321,3.661c-0.299,0.351-0.642,0.44-1.028,0.269l-4.7-2.09
		c-0.187-0.083-0.325-0.221-0.421-0.414c-0.095-0.194-0.114-0.378-0.057-0.555l1.137-4.123c-0.497-0.424-1.013-0.966-1.545-1.627
		l-3.982,0.925c-0.17,0.064-0.364,0.049-0.584-0.048c-0.186-0.083-0.333-0.229-0.441-0.439c-1.429-3.317-2.043-5.206-1.841-5.66
		c0.067-0.151,0.198-0.285,0.391-0.401c0.274-0.16,0.817-0.454,1.632-0.878c0.814-0.426,1.437-0.764,1.873-1.013
		c-0.06-0.915-0.047-1.736,0.035-2.467l-3.57-2.313c-0.162-0.092-0.269-0.235-0.323-0.431c-0.054-0.195-0.04-0.386,0.044-0.571
		l2.075-4.674c0.075-0.169,0.209-0.307,0.396-0.414s0.363-0.136,0.522-0.085l4.188,1.134c0.447-0.508,1-1.027,1.66-1.561
		c-0.212-1.064-0.54-2.369-0.981-3.917c-0.034-0.239-0.02-0.434,0.048-0.585c0.091-0.202,0.224-0.344,0.4-0.426
		c0.595-0.342,1.621-0.783,3.072-1.327c1.452-0.546,2.338-0.746,2.659-0.605c0.185,0.084,0.336,0.221,0.452,0.414l1.896,3.564
		c0.706-0.049,1.476-0.029,2.304,0.058c0.995-1.737,1.764-2.948,2.312-3.633c0.297-0.353,0.639-0.442,1.028-0.27l4.698,2.088
		c0.186,0.082,0.325,0.222,0.421,0.415c0.097,0.193,0.114,0.379,0.057,0.555l-1.137,4.124c0.496,0.424,1.012,0.965,1.547,1.625
		l3.98-0.923c0.188-0.058,0.383-0.041,0.584,0.048c0.186,0.082,0.333,0.228,0.44,0.438c1.431,3.319,2.044,5.205,1.843,5.661
		c-0.067,0.151-0.197,0.284-0.39,0.4c-0.323,0.182-0.879,0.478-1.669,0.895c-0.79,0.415-1.395,0.751-1.812,1.009
		c0.028,0.981,0.006,1.801-0.062,2.454l3.584,2.289c0.152,0.108,0.257,0.26,0.31,0.456
		C1420.992,586.882,1420.979,587.073,1420.897,587.259z M1406.245,588.973c1.823-0.7,3.133-1.944,3.927-3.729
		s0.839-3.591,0.139-5.416c-0.702-1.825-1.946-3.135-3.731-3.928c-1.785-0.794-3.593-0.84-5.416-0.139
		c-1.825,0.703-3.134,1.946-3.928,3.732c-0.794,1.783-0.841,3.591-0.139,5.414c0.702,1.826,1.946,3.135,3.732,3.929
		C1402.615,589.631,1404.418,589.677,1406.245,588.973z M1442.583,582.04l-1.571,3.537c-0.121,0.271-1.492-0.027-4.114-0.89
		c-0.405,0.363-0.853,0.691-1.343,0.977c0.014,2.285-0.074,3.639-0.261,4.06c-0.03,0.067-0.091,0.111-0.18,0.132
		c-2.588,0.282-3.897,0.417-3.932,0.401c-0.134-0.062-0.345-0.628-0.633-1.704s-0.472-1.844-0.552-2.302
		c-0.351-0.117-0.611-0.213-0.778-0.287c-0.17-0.074-0.414-0.204-0.736-0.387c-0.394,0.247-1.086,0.627-2.077,1.133
		c-0.993,0.508-1.557,0.73-1.691,0.672c-0.034-0.015-0.812-1.078-2.335-3.187c-0.046-0.081-0.053-0.155-0.024-0.222
		c0.189-0.423,1.136-1.394,2.84-2.914c-0.117-0.557-0.174-1.106-0.174-1.651c-2.397-1.369-3.537-2.188-3.417-2.458l1.572-3.537
		c0.119-0.27,1.49,0.027,4.113,0.891c0.435-0.391,0.884-0.716,1.343-0.976c-0.014-2.286,0.074-3.64,0.261-4.061
		c0.03-0.067,0.09-0.112,0.181-0.133c0.081-0.003,0.451-0.041,1.107-0.111c0.658-0.071,1.281-0.137,1.873-0.197
		c0.593-0.059,0.904-0.081,0.938-0.067c0.134,0.061,0.348,0.624,0.64,1.692s0.477,1.83,0.556,2.29
		c0.351,0.115,0.611,0.211,0.781,0.286c0.168,0.075,0.413,0.204,0.735,0.387c1.391-0.813,2.584-1.412,3.583-1.796l0.174,0.018
		c0.065,0.028,0.849,1.083,2.348,3.162c0.044,0.079,0.051,0.153,0.021,0.221c-0.188,0.421-1.135,1.393-2.84,2.913
		c0.114,0.516,0.172,1.065,0.175,1.651C1441.564,580.951,1442.703,581.769,1442.583,582.04z M1431.082,607.913l-1.572,3.538
		c-0.12,0.27-1.491-0.027-4.113-0.892c-0.405,0.366-0.853,0.691-1.344,0.979c0.014,2.285-0.074,3.638-0.26,4.059
		c-0.03,0.069-0.091,0.111-0.18,0.134c-2.588,0.282-3.897,0.415-3.932,0.4c-0.134-0.061-0.346-0.628-0.633-1.705
		c-0.288-1.076-0.473-1.844-0.552-2.302c-0.351-0.116-0.611-0.211-0.78-0.285c-0.168-0.075-0.412-0.206-0.736-0.388
		c-0.392,0.248-1.084,0.625-2.077,1.134c-0.991,0.506-1.556,0.729-1.689,0.67c-0.034-0.015-0.812-1.077-2.336-3.187
		c-0.046-0.08-0.054-0.154-0.023-0.222c0.188-0.421,1.136-1.394,2.84-2.914c-0.117-0.557-0.175-1.106-0.175-1.65
		c-2.397-1.37-3.537-2.188-3.416-2.457l1.572-3.538c0.119-0.269,1.49,0.027,4.112,0.891c0.436-0.39,0.884-0.718,1.344-0.977
		c-0.014-2.286,0.073-3.639,0.261-4.06c0.029-0.067,0.09-0.113,0.181-0.134c0.081-0.002,0.451-0.039,1.107-0.11
		c0.657-0.07,1.281-0.136,1.873-0.196c0.591-0.061,0.903-0.084,0.938-0.068c0.134,0.06,0.347,0.623,0.639,1.691
		c0.293,1.068,0.477,1.831,0.557,2.29c0.351,0.116,0.611,0.211,0.781,0.286c0.168,0.074,0.411,0.205,0.735,0.389
		c1.39-0.814,2.583-1.414,3.581-1.798l0.174,0.017c0.067,0.03,0.851,1.084,2.348,3.162c0.045,0.08,0.053,0.154,0.023,0.222
		c-0.189,0.423-1.135,1.392-2.84,2.914c0.114,0.516,0.172,1.065,0.175,1.652C1430.062,606.824,1431.201,607.644,1431.082,607.913z
		 M1435.328,580.931c0.389-0.874,0.405-1.773,0.051-2.699c-0.356-0.926-0.971-1.582-1.848-1.972
		c-0.876-0.39-1.775-0.406-2.701-0.051c-0.925,0.356-1.582,0.972-1.97,1.847c-0.397,0.896-0.421,1.798-0.07,2.709
		c0.352,0.912,0.973,1.567,1.866,1.964c0.893,0.396,1.797,0.42,2.707,0.068C1434.277,582.447,1434.932,581.826,1435.328,580.931z
		 M1423.825,606.806c0.39-0.875,0.407-1.775,0.053-2.701c-0.356-0.924-0.972-1.581-1.848-1.97c-0.876-0.392-1.776-0.406-2.702-0.051
		c-0.924,0.356-1.581,0.972-1.969,1.847c-0.397,0.894-0.421,1.796-0.07,2.708c0.352,0.912,0.973,1.567,1.866,1.963
		c0.892,0.398,1.795,0.421,2.707,0.069C1422.776,608.322,1423.43,607.699,1423.825,606.806z"/>
	<path opacity="0.4" clip-path="url(#SVGID_2_)" fill="#FFFFFF" d="M1349.45,544.021c0,0.393-0.231,0.821-0.696,1.286l-9.723,9.481
		l2.303,13.394c0.018,0.124,0.027,0.303,0.027,0.535c0,0.893-0.367,1.34-1.099,1.34c-0.339,0-0.696-0.107-1.071-0.322l-12.027-6.321
		l-12.026,6.321c-0.394,0.215-0.75,0.322-1.071,0.322c-0.375,0-0.656-0.13-0.844-0.389s-0.281-0.576-0.281-0.951
		c0-0.107,0.018-0.286,0.054-0.535l2.304-13.394l-9.75-9.481c-0.447-0.482-0.67-0.911-0.67-1.286c0-0.66,0.5-1.071,1.5-1.232
		l13.446-1.955l6.026-12.188c0.34-0.732,0.777-1.099,1.312-1.099c0.536,0,0.974,0.366,1.312,1.099l6.027,12.188l13.446,1.955
		C1348.95,542.95,1349.45,543.361,1349.45,544.021z M1335.334,553.584l8.197-7.955l-11.305-1.661l-5.062-10.232l-5.062,10.232
		l-11.303,1.661l8.196,7.955l-1.956,11.276l10.125-5.33l10.099,5.33L1335.334,553.584z"/>
	<path opacity="0.4" clip-path="url(#SVGID_2_)" fill="#FFFFFF" d="M1425.55,393.26c-0.407-0.173-0.691-0.461-0.854-0.863
		l-8.645-20.381c-0.104-0.191-0.233-0.487-0.388-0.886c-0.153-0.398-0.369-1.097-0.648-2.095c-0.279-0.996-0.485-1.985-0.623-2.97
		c-0.138-0.982-0.153-2.108-0.047-3.378c0.104-1.268,0.381-2.428,0.827-3.477c1.465-3.445,3.606-5.719,6.421-6.813
		c2.814-1.096,5.979-0.897,9.487,0.595c0.972,0.413,1.891,1.002,2.758,1.769c0.866,0.768,1.613,1.621,2.239,2.562
		c0.626,0.943,1.146,1.797,1.559,2.565c0.415,0.768,0.782,1.553,1.107,2.356c0.804-0.323,1.625-0.603,2.465-0.838
		c0.839-0.234,1.815-0.453,2.929-0.655c1.112-0.2,2.245-0.256,3.398-0.163c1.154,0.093,2.215,0.347,3.188,0.76
		c3.509,1.492,5.844,3.633,7.008,6.422c1.163,2.788,1.012,5.906-0.454,9.351c-1.473,3.464-4.766,6.224-9.878,8.286l-20.635,7.87
		C1426.361,393.439,1425.955,393.433,1425.55,393.26z"/>
	<path opacity="0.4" clip-path="url(#SVGID_2_)" fill="#FFFFFF" d="M255.824,592.33l-9.462,24.116
		c-0.383,0.976-1.058,1.674-2.024,2.097c-0.967,0.421-1.938,0.441-2.914,0.059l-32.627-12.801c-0.977-0.383-1.674-1.058-2.097-2.024
		c-0.422-0.967-0.441-1.938-0.059-2.913l9.461-24.116c0.383-0.977,1.058-1.674,2.024-2.096c0.967-0.423,1.938-0.443,2.914-0.061
		l32.628,12.801c0.976,0.383,1.673,1.058,2.095,2.025C256.186,590.384,256.206,591.354,255.824,592.33z M252.664,592.037
		c0.012-0.029,0.044-0.111,0.096-0.244c0.053-0.133,0.092-0.232,0.117-0.3c0.026-0.065,0.061-0.163,0.104-0.292
		c0.041-0.129,0.055-0.229,0.041-0.303s-0.027-0.156-0.043-0.247c-0.016-0.092-0.061-0.174-0.135-0.244
		c-0.074-0.072-0.17-0.133-0.288-0.179l-32.628-12.8c-0.193-0.076-0.387-0.071-0.582,0.015s-0.33,0.226-0.406,0.416
		c-0.974,2.482-0.711,5.008,0.789,7.574c1.971,3.364,4.015,6.868,6.131,10.514c0.061,0.108,0.232,0.428,0.52,0.958
		s0.519,0.941,0.695,1.231c0.175,0.29,0.412,0.651,0.711,1.085c0.299,0.433,0.594,0.782,0.881,1.049
		c0.287,0.266,0.579,0.456,0.875,0.572l0.021,0.009l0.023,0.009c0.295,0.116,0.639,0.175,1.03,0.176
		c0.392,0,0.845-0.057,1.358-0.172c0.514-0.113,0.934-0.218,1.261-0.312c0.326-0.093,0.774-0.235,1.346-0.431
		c0.57-0.193,0.915-0.311,1.032-0.349c4.03-1.233,7.912-2.412,11.645-3.54c1.047-0.322,2.125-0.884,3.232-1.686
		C251.598,593.745,252.323,592.909,252.664,592.037z M243.526,615.333l6.678-17.023c-0.682,0.346-1.383,0.634-2.103,0.863
		c-5.155,1.491-9.282,2.754-12.382,3.787c-1.004,0.341-1.811,0.594-2.423,0.764c-0.612,0.169-1.392,0.276-2.339,0.322
		c-0.948,0.047-1.775-0.07-2.484-0.348l-0.023-0.009l-0.021-0.009c-0.709-0.278-1.396-0.756-2.059-1.435
		c-0.664-0.679-1.162-1.287-1.496-1.827s-0.753-1.275-1.258-2.207c-1.569-2.865-3.737-6.599-6.502-11.196
		c-0.374-0.657-0.691-1.346-0.956-2.063l-6.679,17.023c-0.075,0.192-0.07,0.387,0.016,0.581c0.084,0.196,0.223,0.332,0.416,0.407
		l32.627,12.8c0.192,0.075,0.387,0.07,0.582-0.015S243.449,615.525,243.526,615.333z"/>
	<path opacity="0.4" clip-path="url(#SVGID_2_)" fill="#FFFFFF" d="M347.24,591.578c2.235,1.753,3.889,3.979,4.961,6.679
		c1.071,2.7,1.395,5.453,0.969,8.262c-0.426,2.81-1.516,5.331-3.268,7.566c-1.751,2.235-3.977,3.89-6.678,4.96
		c-2.699,1.072-5.454,1.396-8.262,0.97c-2.809-0.426-5.33-1.515-7.566-3.268c-2.235-1.751-3.889-3.978-4.961-6.677
		c-1.072-2.701-1.395-5.453-0.969-8.264c0.426-2.808,1.514-5.329,3.267-7.565c1.752-2.235,3.978-3.888,6.679-4.96
		c2.699-1.072,5.454-1.395,8.262-0.969C342.483,588.738,345.004,589.826,347.24,591.578z M350.643,604.449
		c0.051-1.792-0.256-3.528-0.923-5.209c-0.665-1.679-1.633-3.153-2.899-4.422c-1.267-1.27-2.67-2.238-4.214-2.904
		c-1.543-0.666-3.211-1.025-5.003-1.076c-1.793-0.051-3.528,0.256-5.207,0.923c-1.68,0.667-3.154,1.634-4.424,2.899
		c-1.27,1.267-2.237,2.672-2.904,4.214c-0.665,1.543-1.023,3.211-1.075,5.003c-0.052,1.793,0.257,3.529,0.923,5.209
		s1.634,3.153,2.899,4.423c1.268,1.27,2.671,2.237,4.214,2.903s3.211,1.024,5.003,1.076c1.793,0.052,3.528-0.257,5.208-0.923
		c1.68-0.667,3.154-1.634,4.424-2.9c1.27-1.265,2.236-2.67,2.902-4.214C350.234,607.908,350.592,606.241,350.643,604.449z
		 M331.446,598.721c0.678,0.292,1.152,0.78,1.424,1.464c0.271,0.686,0.262,1.367-0.031,2.043c-0.293,0.677-0.779,1.15-1.465,1.423
		c-0.686,0.271-1.365,0.262-2.043-0.03c-0.676-0.293-1.15-0.781-1.422-1.465c-0.271-0.686-0.262-1.367,0.03-2.043
		c0.293-0.677,0.78-1.15,1.466-1.423C330.088,598.42,330.77,598.429,331.446,598.721z M345.787,604.816
		c0.143,1.754-0.249,3.367-1.174,4.842c-0.927,1.473-2.209,2.536-3.85,3.187c-1.641,0.651-3.303,0.758-4.987,0.318
		c-1.685-0.438-3.076-1.343-4.174-2.717c-0.232-0.281-0.33-0.605-0.296-0.97c0.035-0.365,0.199-0.666,0.494-0.903
		c0.283-0.231,0.605-0.329,0.971-0.296c0.365,0.035,0.666,0.2,0.902,0.494c0.733,0.906,1.662,1.506,2.789,1.799
		c1.125,0.293,2.23,0.225,3.316-0.206s1.937-1.14,2.555-2.124c0.619-0.986,0.884-2.061,0.797-3.221
		c-0.029-0.377,0.079-0.705,0.328-0.983c0.248-0.278,0.555-0.429,0.918-0.454c0.365-0.025,0.685,0.084,0.96,0.326
		C345.612,604.149,345.763,604.454,345.787,604.816z M341.367,594.783c0.677,0.292,1.151,0.781,1.424,1.466
		c0.271,0.684,0.262,1.365-0.031,2.042c-0.291,0.677-0.779,1.151-1.465,1.423c-0.686,0.272-1.365,0.262-2.042-0.03
		s-1.151-0.781-1.424-1.466c-0.271-0.685-0.261-1.366,0.031-2.042c0.292-0.677,0.78-1.151,1.465-1.423
		C340.011,594.48,340.692,594.492,341.367,594.783z"/>
	<path opacity="0.4" clip-path="url(#SVGID_2_)" fill="#FFFFFF" d="M1453.396,508.148c0.373,3.632-0.209,7.146-1.751,10.545
		c-1.54,3.399-3.801,6.153-6.777,8.265s-6.28,3.354-9.909,3.728c-3.631,0.374-7.145-0.21-10.544-1.752
		c-3.4-1.541-6.154-3.8-8.267-6.776c-2.111-2.976-3.352-6.279-3.727-9.91c-0.374-3.629,0.211-7.144,1.752-10.542
		c1.541-3.4,3.8-6.155,6.776-8.267c2.978-2.11,6.28-3.354,9.91-3.728c3.631-0.372,7.145,0.211,10.542,1.752
		c3.4,1.542,6.156,3.801,8.267,6.776C1451.78,501.216,1453.021,504.519,1453.396,508.148z M1444.53,522.776
		c1.703-1.552,3.033-3.385,3.992-5.5c0.958-2.113,1.46-4.322,1.504-6.625c0.045-2.304-0.312-4.466-1.071-6.486
		c-0.762-2.021-1.917-3.883-3.468-5.587c-1.552-1.703-3.385-3.034-5.498-3.993c-2.114-0.959-4.324-1.46-6.627-1.504
		c-2.303-0.045-4.466,0.313-6.487,1.072c-2.02,0.762-3.882,1.918-5.586,3.468c-1.703,1.552-3.034,3.385-3.991,5.499
		c-0.96,2.113-1.461,4.322-1.507,6.625c-0.043,2.305,0.314,4.467,1.074,6.486c0.76,2.021,1.917,3.885,3.468,5.586
		c1.551,1.704,3.384,3.035,5.498,3.993c2.113,0.96,4.322,1.462,6.626,1.505c2.303,0.046,4.466-0.312,6.487-1.072
		C1440.963,525.483,1442.825,524.327,1444.53,522.776z M1432.702,499.915c0.334,0.886,0.306,1.76-0.085,2.622
		c-0.39,0.863-1.029,1.46-1.916,1.793c-0.886,0.334-1.76,0.306-2.622-0.085c-0.862-0.392-1.459-1.03-1.792-1.918
		c-0.335-0.885-0.306-1.76,0.086-2.621c0.391-0.861,1.028-1.461,1.915-1.793c0.887-0.334,1.761-0.305,2.623,0.086
		C1431.773,498.389,1432.371,499.029,1432.702,499.915z M1440.188,517.823c0.168,0.447,0.156,0.884-0.034,1.306
		c-0.193,0.424-0.513,0.72-0.961,0.888c-0.45,0.17-0.887,0.157-1.308-0.034l-15.614-7.079c-0.423-0.191-0.718-0.512-0.888-0.961
		c-0.169-0.449-0.157-0.884,0.034-1.307c0.192-0.423,0.512-0.72,0.961-0.888c0.449-0.169,0.886-0.157,1.309,0.034l15.614,7.079
		C1439.722,517.052,1440.019,517.374,1440.188,517.823z M1445.195,505.579c0.333,0.885,0.304,1.759-0.086,2.621
		c-0.392,0.861-1.03,1.46-1.916,1.793c-0.887,0.333-1.762,0.305-2.623-0.086c-0.863-0.392-1.459-1.029-1.793-1.916
		c-0.334-0.885-0.305-1.761,0.087-2.623c0.391-0.861,1.029-1.459,1.916-1.792s1.76-0.306,2.622,0.085
		C1444.263,504.052,1444.86,504.691,1445.195,505.579z"/>
	<path opacity="0.4" clip-path="url(#SVGID_2_)" fill="#FFFFFF" d="M1364.197,236.63c0,1.014-0.354,1.874-1.062,2.582
		l-27.472,27.472l-5.16,5.16c-0.708,0.708-1.568,1.062-2.582,1.062c-1.011,0-1.871-0.354-2.578-1.062l-5.16-5.16l-13.736-13.736
		c-0.709-0.707-1.062-1.567-1.062-2.581c0-1.011,0.354-1.871,1.062-2.58l5.16-5.16c0.708-0.708,1.568-1.062,2.58-1.062
		c1.011,0,1.871,0.354,2.58,1.062l11.154,11.194l24.894-24.931c0.706-0.707,1.567-1.062,2.58-1.062c1.011,0,1.872,0.355,2.58,1.062
		l5.16,5.16C1363.842,234.76,1364.197,235.619,1364.197,236.63z"/>
	<path opacity="0.4" clip-path="url(#SVGID_2_)" fill="#FFFFFF" d="M1397.713,312.178v3.198c0,0.116-0.038,0.227-0.115,0.332
		c-0.076,0.106-0.172,0.168-0.288,0.188l-2.664,0.403c-0.183,0.519-0.371,0.956-0.563,1.311c0.336,0.48,0.852,1.144,1.543,1.988
		c0.095,0.115,0.144,0.235,0.144,0.36s-0.043,0.235-0.13,0.333c-0.259,0.354-0.733,0.873-1.427,1.555
		c-0.691,0.682-1.143,1.023-1.354,1.023c-0.113,0-0.24-0.045-0.373-0.132l-1.989-1.555c-0.423,0.222-0.859,0.403-1.312,0.547
		c-0.153,1.308-0.292,2.2-0.418,2.681c-0.066,0.268-0.238,0.403-0.517,0.403h-3.2c-0.134,0-0.251-0.042-0.352-0.123
		c-0.102-0.081-0.157-0.186-0.166-0.31l-0.404-2.651c-0.471-0.154-0.902-0.331-1.296-0.533l-2.032,1.541
		c-0.096,0.087-0.215,0.132-0.359,0.132c-0.135,0-0.255-0.054-0.361-0.159c-1.209-1.095-2.002-1.9-2.378-2.419
		c-0.067-0.098-0.1-0.208-0.1-0.333c0-0.115,0.038-0.225,0.116-0.332c0.143-0.201,0.387-0.521,0.732-0.958
		c0.346-0.437,0.607-0.775,0.779-1.016c-0.258-0.479-0.455-0.954-0.591-1.426l-2.636-0.39c-0.126-0.018-0.227-0.079-0.303-0.179
		c-0.077-0.102-0.115-0.215-0.115-0.339v-3.198c0-0.116,0.038-0.227,0.115-0.332c0.076-0.105,0.167-0.168,0.273-0.188l2.679-0.404
		c0.136-0.439,0.322-0.882,0.563-1.324c-0.385-0.547-0.898-1.21-1.542-1.988c-0.097-0.115-0.144-0.229-0.144-0.346
		c0-0.097,0.043-0.206,0.129-0.332c0.25-0.346,0.723-0.861,1.42-1.549c0.695-0.686,1.149-1.03,1.361-1.03
		c0.124,0,0.251,0.049,0.373,0.145l1.989,1.542c0.423-0.221,0.859-0.403,1.312-0.548c0.153-1.306,0.293-2.198,0.418-2.68
		c0.066-0.268,0.238-0.403,0.518-0.403h3.2c0.134,0,0.251,0.042,0.352,0.123c0.101,0.082,0.156,0.184,0.165,0.31l0.404,2.65
		c0.471,0.154,0.902,0.332,1.297,0.534l2.045-1.543c0.087-0.087,0.202-0.13,0.346-0.13c0.125,0,0.244,0.049,0.361,0.145
		c1.239,1.145,2.032,1.959,2.378,2.45c0.065,0.076,0.1,0.182,0.1,0.316c0,0.116-0.038,0.225-0.116,0.33
		c-0.143,0.203-0.387,0.522-0.732,0.958c-0.346,0.438-0.606,0.777-0.779,1.018c0.249,0.479,0.446,0.95,0.592,1.411l2.636,0.403
		c0.124,0.02,0.226,0.08,0.302,0.18C1397.675,311.942,1397.713,312.054,1397.713,312.178z M1389.256,316.358
		c0.721-0.722,1.08-1.59,1.08-2.608c0-1.017-0.359-1.888-1.08-2.608c-0.721-0.72-1.589-1.08-2.607-1.08
		c-1.018,0-1.888,0.36-2.607,1.08c-0.721,0.721-1.08,1.592-1.08,2.608c0,1.019,0.359,1.887,1.08,2.608
		c0.72,0.72,1.59,1.078,2.607,1.078C1387.667,317.436,1388.535,317.078,1389.256,316.358z"/>
	<path opacity="0.4" clip-path="url(#SVGID_2_)" fill="#FFFFFF" d="M1313.569,599.388c-0.29,0.768-0.852,1.223-1.686,1.371
		l-7.629,20.212c-0.053,0.138-0.148,0.238-0.287,0.301c-0.14,0.063-0.279,0.069-0.418,0.017l-1.021-0.386
		c-0.138-0.052-0.238-0.147-0.301-0.287c-0.063-0.14-0.068-0.278-0.017-0.416l7.63-20.212c-0.529-0.662-0.648-1.375-0.359-2.143
		c0.214-0.563,0.595-0.97,1.145-1.219c0.55-0.248,1.107-0.267,1.671-0.053c0.564,0.212,0.971,0.594,1.219,1.145
		C1313.763,598.267,1313.781,598.825,1313.569,599.388z M1336.684,609.282l-4.599,12.182c-0.101,0.266-0.244,0.445-0.433,0.539
		c-0.188,0.093-0.452,0.16-0.795,0.2c-2.756,0.371-4.952,0.248-6.592-0.371c-0.648-0.245-1.262-0.61-1.838-1.096
		c-0.577-0.485-1.059-0.959-1.443-1.42c-0.386-0.462-0.903-0.949-1.555-1.463s-1.365-0.917-2.143-1.21
		c-2.043-0.771-4.807-0.927-8.288-0.466c-0.217,0.027-0.411,0.01-0.58-0.055c-0.277-0.104-0.479-0.296-0.604-0.574
		s-0.137-0.557-0.031-0.834l4.471-11.846c0.129-0.341,0.404-0.57,0.827-0.691c0.279-0.064,0.786-0.135,1.521-0.21
		c2.993-0.329,5.475-0.122,7.443,0.621c1.139,0.43,2.145,0.987,3.02,1.669c0.872,0.682,1.861,1.591,2.965,2.725
		c0.328,0.354,0.759,0.633,1.291,0.833c0.574,0.218,1.242,0.342,2.003,0.373c0.76,0.032,1.439,0.003,2.039-0.087
		c0.599-0.09,1.162-0.164,1.688-0.22c0.525-0.057,0.857-0.06,0.996-0.007c0.277,0.104,0.479,0.295,0.604,0.574
		C1336.778,608.727,1336.787,609.006,1336.684,609.282z"/>
	<path opacity="0.4" clip-path="url(#SVGID_2_)" fill="#FFFFFF" d="M48.862,320.042v2.849c0,0.386-0.141,0.719-0.422,1.001
		c-0.283,0.281-0.616,0.422-1.002,0.422h-3.182c-0.549,2.389-1.694,4.454-3.438,6.196c-1.742,1.743-3.808,2.889-6.195,3.438v3.182
		c0,0.386-0.141,0.72-0.423,1.001s-0.616,0.423-1.001,0.423h-2.848c-0.387,0-0.72-0.142-1.002-0.423
		c-0.281-0.281-0.422-0.615-0.422-1.001v-3.182c-2.389-0.549-4.453-1.694-6.196-3.438c-1.743-1.742-2.889-3.808-3.437-6.196h-3.182
		c-0.387,0-0.72-0.141-1.002-0.422c-0.281-0.282-0.422-0.615-0.422-1.001v-2.849c0-0.385,0.141-0.719,0.422-1.001
		c0.282-0.281,0.615-0.422,1.002-0.422h3.182c0.548-2.389,1.693-4.454,3.437-6.196c1.743-1.743,3.808-2.889,6.196-3.438v-3.181
		c0-0.387,0.141-0.721,0.422-1.002c0.282-0.281,0.615-0.423,1.002-0.423h2.848c0.385,0,0.719,0.142,1.001,0.423
		s0.423,0.615,0.423,1.002v3.181c2.388,0.549,4.453,1.694,6.195,3.438c1.743,1.742,2.889,3.808,3.438,6.196h3.182
		c0.386,0,0.719,0.141,1.002,0.422C48.721,319.323,48.862,319.657,48.862,320.042z M41.32,324.313h-2.425
		c-0.386,0-0.72-0.141-1.002-0.422c-0.281-0.282-0.422-0.615-0.422-1.001v-2.849c0-0.385,0.141-0.719,0.422-1.001
		c0.282-0.281,0.616-0.422,1.002-0.422h2.425c-0.476-1.603-1.31-3-2.503-4.193c-1.194-1.195-2.592-2.029-4.193-2.504v2.426
		c0,0.385-0.141,0.719-0.423,1c-0.282,0.282-0.616,0.423-1.001,0.423h-2.848c-0.387,0-0.72-0.141-1.002-0.423
		c-0.281-0.281-0.422-0.615-0.422-1v-2.426c-1.603,0.475-3,1.309-4.194,2.504c-1.194,1.193-2.028,2.591-2.503,4.193h2.426
		c0.385,0,0.719,0.141,1,0.422c0.283,0.282,0.424,0.616,0.424,1.001v2.849c0,0.386-0.141,0.719-0.424,1.001
		c-0.281,0.281-0.615,0.422-1,0.422h-2.426c0.475,1.603,1.309,3,2.503,4.194s2.592,2.028,4.194,2.502v-2.425
		c0-0.385,0.141-0.719,0.422-1c0.282-0.282,0.615-0.423,1.002-0.423h2.848c0.385,0,0.719,0.141,1.001,0.423
		c0.282,0.281,0.423,0.615,0.423,1v2.425c1.602-0.474,2.999-1.308,4.193-2.502C40.01,327.313,40.844,325.916,41.32,324.313z"/>
	<path opacity="0.4" clip-path="url(#SVGID_2_)" fill="#FFFFFF" d="M1217.531,544.015l-0.812,2.821
		c-0.108,0.381-0.344,0.671-0.703,0.869c-0.359,0.199-0.729,0.243-1.111,0.134l-3.148-0.906c-1.224,2.207-2.947,3.925-5.168,5.155
		c-2.222,1.23-4.594,1.776-7.113,1.64l-0.906,3.148c-0.109,0.383-0.344,0.674-0.704,0.87c-0.359,0.199-0.729,0.244-1.11,0.135
		l-2.819-0.811c-0.382-0.111-0.673-0.346-0.871-0.705c-0.199-0.358-0.244-0.729-0.133-1.111l0.906-3.149
		c-2.209-1.223-3.927-2.944-5.156-5.166c-1.229-2.223-1.775-4.594-1.639-7.114l-3.147-0.905c-0.385-0.11-0.674-0.344-0.873-0.703
		c-0.198-0.359-0.243-0.729-0.132-1.111l0.81-2.82c0.108-0.381,0.344-0.671,0.705-0.871c0.357-0.198,0.728-0.242,1.11-0.134
		l3.149,0.906c1.223-2.207,2.945-3.926,5.166-5.155c2.222-1.228,4.594-1.774,7.113-1.639l0.906-3.149
		c0.109-0.381,0.344-0.672,0.704-0.87c0.359-0.198,0.729-0.244,1.112-0.134l2.818,0.81c0.381,0.111,0.672,0.346,0.871,0.706
		c0.197,0.359,0.243,0.729,0.133,1.11l-0.905,3.149c2.208,1.225,3.925,2.946,5.154,5.166c1.229,2.224,1.775,4.594,1.639,7.114
		l3.149,0.905c0.383,0.11,0.672,0.346,0.871,0.703C1217.597,543.264,1217.64,543.635,1217.531,544.015z M1208.848,546.097
		l-2.401-0.691c-0.381-0.109-0.673-0.343-0.871-0.702s-0.243-0.731-0.134-1.112l0.812-2.819c0.11-0.381,0.344-0.671,0.703-0.872
		c0.359-0.196,0.731-0.241,1.112-0.132l2.399,0.689c-0.014-1.721-0.44-3.342-1.282-4.864c-0.842-1.521-1.988-2.745-3.439-3.671
		l-0.69,2.401c-0.108,0.381-0.346,0.671-0.703,0.869c-0.359,0.199-0.729,0.244-1.112,0.135l-2.819-0.811
		c-0.383-0.111-0.671-0.346-0.869-0.705c-0.2-0.359-0.244-0.73-0.136-1.111l0.691-2.4c-1.721,0.014-3.343,0.44-4.863,1.284
		c-1.522,0.842-2.747,1.987-3.672,3.438l2.399,0.691c0.381,0.109,0.672,0.345,0.871,0.702c0.198,0.361,0.243,0.732,0.134,1.114
		l-0.812,2.818c-0.11,0.381-0.344,0.672-0.703,0.871c-0.359,0.198-0.729,0.243-1.112,0.133l-2.399-0.69
		c0.014,1.721,0.44,3.343,1.284,4.864c0.842,1.522,1.988,2.745,3.438,3.671l0.691-2.4c0.109-0.381,0.345-0.672,0.702-0.868
		c0.361-0.201,0.729-0.244,1.112-0.136l2.819,0.812c0.381,0.11,0.673,0.344,0.871,0.705c0.198,0.356,0.244,0.729,0.134,1.109
		l-0.691,2.401c1.722-0.014,3.343-0.441,4.865-1.284C1206.698,548.695,1207.921,547.548,1208.848,546.097z"/>
	<path opacity="0.4" clip-path="url(#SVGID_2_)" fill="#FFFFFF" d="M24.791,508.871c-0.069,0.307-0.231,0.598-0.483,0.872
		c-1.736,1.787-3.814,3.062-6.232,3.824c-2.42,0.762-4.816,0.873-7.188,0.332c-2.373-0.542-4.482-1.684-6.33-3.424
		c-1.848-1.741-3.167-3.789-3.959-6.143c-0.108-0.356-0.128-0.688-0.057-0.996c0.069-0.306,0.23-0.597,0.483-0.871
		c1.733-1.777,3.811-3.051,6.23-3.818c2.421-0.767,4.815-0.879,7.188-0.338s4.483,1.683,6.331,3.424
		c1.848,1.74,3.167,3.789,3.959,6.143C24.841,508.232,24.862,508.564,24.791,508.871z M23.06,508.475
		c-0.886-2.441-2.242-4.427-4.066-5.952c0.336,1.063,0.38,2.141,0.131,3.232c-0.381,1.669-1.301,2.961-2.756,3.876
		c-1.459,0.916-3.021,1.184-4.689,0.803c-1.67-0.381-2.961-1.3-3.878-2.757c-0.915-1.457-1.183-3.02-0.802-4.688
		c0.25-1.093,0.756-2.044,1.52-2.856c-2.307,0.584-4.388,1.784-6.245,3.599c0.778,2.124,1.946,3.94,3.505,5.449
		s3.394,2.504,5.505,2.986c2.11,0.481,4.195,0.381,6.255-0.303C19.597,511.181,21.437,510.052,23.06,508.475z M14.207,501.471
		c0.155-0.096,0.254-0.234,0.295-0.416c0.041-0.18,0.013-0.348-0.085-0.503s-0.237-0.254-0.416-0.295
		c-1.129-0.257-2.188-0.073-3.18,0.55s-1.615,1.498-1.874,2.626c-0.041,0.181-0.013,0.349,0.085,0.503
		c0.098,0.155,0.236,0.254,0.417,0.295c0.18,0.041,0.348,0.013,0.503-0.085c0.155-0.097,0.254-0.236,0.295-0.416
		c0.177-0.776,0.604-1.377,1.279-1.802c0.675-0.424,1.401-0.548,2.178-0.371C13.884,501.598,14.052,501.571,14.207,501.471z"/>
	<path opacity="0.4" clip-path="url(#SVGID_2_)" fill="#FFFFFF" d="M43.001,387.951c2.929,2.409,4.739,5.312,5.429,8.713
		c0.688,3.4,0.152,6.779-1.609,10.137c-1.76,3.359-4.484,6.279-8.172,8.768c-3.688,2.486-7.916,4.213-12.684,5.18
		c-1.367,0.277-2.801,0.485-4.297,0.627c-3.178,4.203-7.193,7.48-12.047,9.827c-0.902,0.467-1.975,0.908-3.213,1.321
		c-0.324,0.106-0.64,0.08-0.947-0.082c-0.307-0.161-0.535-0.411-0.686-0.745l-0.006-0.03c-0.073-0.065-0.103-0.183-0.086-0.349
		c0.018-0.167,0.018-0.269,0-0.306s0.006-0.139,0.076-0.304c0.066-0.167,0.107-0.267,0.121-0.301s0.065-0.13,0.155-0.29
		c0.09-0.161,0.149-0.265,0.181-0.312c0.105-0.183,0.34-0.582,0.704-1.194c0.364-0.613,0.626-1.054,0.786-1.32
		c0.16-0.265,0.383-0.713,0.674-1.341c0.289-0.629,0.506-1.19,0.649-1.688c0.144-0.497,0.29-1.127,0.441-1.89
		c0.15-0.764,0.253-1.558,0.31-2.382c-3.42-1.118-6.274-2.777-8.562-4.979c-2.288-2.202-3.729-4.77-4.322-7.699
		c-0.515-2.54-0.313-5.109,0.604-7.707s2.38-4.974,4.385-7.131c2.004-2.154,4.528-4.056,7.572-5.7
		c3.044-1.643,6.345-2.826,9.902-3.547c4.768-0.967,9.334-1.022,13.699-0.166C36.425,383.913,40.073,385.545,43.001,387.951z"/>
	<path opacity="0.4" clip-path="url(#SVGID_2_)" fill="#FFFFFF" d="M1119.568,616.968c1.425,1.281,1.993,2.562,1.705,3.849
		c-0.289,1.285-1.361,2.19-3.219,2.719l-30.288,8.609c-1.858,0.528-3.248,0.321-4.171-0.62c-0.92-0.941-1.112-2.331-0.573-4.171
		l7.3-24.606l-2.982-10.49l-1.684,0.478c-0.456,0.13-0.897,0.075-1.324-0.164c-0.427-0.238-0.706-0.585-0.835-1.04
		c-0.13-0.457-0.076-0.898,0.162-1.325c0.238-0.428,0.585-0.706,1.04-0.836l13.463-3.827c0.454-0.13,0.897-0.074,1.325,0.165
		c0.427,0.237,0.706,0.584,0.836,1.041c0.129,0.454,0.075,0.897-0.164,1.324c-0.237,0.428-0.585,0.707-1.04,0.836l-1.684,0.479
		l2.981,10.491L1119.568,616.968z M1093.667,603.727l-3.944,13.311l18.72-5.319l-10.358-9.248l-0.757-0.665l-0.276-0.973
		l-2.98-10.491l-3.366,0.958l2.979,10.49l0.277,0.973L1093.667,603.727z"/>
	<path opacity="0.4" clip-path="url(#SVGID_2_)" fill="#FFFFFF" d="M46.872,293.544c-1.02,1.858-2.38,3.126-4.081,3.806
		c-1.7,0.678-3.457,0.521-5.267-0.472c-0.942-0.517-1.724-1.208-2.337-2.065c-0.62-0.86-1.057-1.668-1.315-2.423
		c-0.258-0.752-0.671-1.543-1.226-2.372c-0.562-0.829-1.266-1.479-2.114-1.943c-2.524-1.385-4.568-0.654-6.129,2.189
		c-0.49,0.895-1.03,2.314-1.615,4.262c-0.59,1.945-1.143,3.357-1.655,4.241l-0.095,0.173c-0.507-0.278-0.893-0.477-1.156-0.59
		c-0.817-0.359-2.006-0.842-3.572-1.444c-1.562-0.605-2.973-1.176-4.228-1.714c-1.259-0.542-2.413-1.1-3.469-1.679
		c-1.4-0.768-2.414-1.72-3.045-2.856c-0.631-1.135-0.586-2.359,0.13-3.664c0.466-0.85,1.112-1.555,1.942-2.115
		c0.829-0.56,1.622-0.969,2.375-1.229c0.754-0.256,1.562-0.694,2.42-1.312c0.86-0.617,1.549-1.395,2.064-2.336
		c0.994-1.811,1.152-3.57,0.478-5.27c-0.682-1.699-1.951-3.06-3.81-4.078c-1.928-1.058-3.854-1.438-5.781-1.135
		c-1.926,0.303-3.404,1.394-4.436,3.274c-0.541,0.986-0.889,2.034-1.05,3.141c-0.159,1.105-0.181,2.056-0.065,2.853
		c0.115,0.796,0.169,1.613,0.154,2.455c-0.014,0.844-0.159,1.518-0.436,2.021c-0.566,1.032-1.655,1.764-3.265,2.192
		c-1.29,0.339-2.851,0.005-4.687-1.002c-2.181-1.196-4.839-3.012-7.98-5.45c-0.181-0.161-0.471-0.377-0.869-0.658
		c-0.398-0.275-0.691-0.496-0.873-0.654l-0.406-0.313c-0.027-0.015-0.053-0.044-0.085-0.093c-0.046-0.025-0.064-0.049-0.053-0.071
		l19.327-35.242c0.033,0.05,0.214,0.2,0.537,0.45c0.324,0.257,0.683,0.526,1.077,0.816c0.391,0.291,0.616,0.465,0.67,0.525
		c3.143,2.437,5.8,4.255,7.981,5.451c1.836,1.006,3.396,1.34,4.686,1.002c1.609-0.428,2.698-1.161,3.265-2.193
		c0.276-0.504,0.423-1.18,0.436-2.021c0.016-0.843-0.038-1.661-0.153-2.457c-0.116-0.795-0.095-1.745,0.064-2.85
		c0.161-1.107,0.509-2.155,1.05-3.142c1.032-1.882,2.511-2.974,4.437-3.274s3.864,0.084,5.816,1.154
		c1.835,1.006,3.094,2.357,3.773,4.059c0.675,1.699,0.518,3.457-0.476,5.269c-0.517,0.94-1.204,1.719-2.065,2.337
		c-0.859,0.619-1.667,1.057-2.421,1.312c-0.752,0.259-1.545,0.669-2.373,1.227c-0.83,0.561-1.478,1.266-1.943,2.115
		c-0.716,1.307-0.761,2.529-0.13,3.664c0.631,1.139,1.645,2.09,3.045,2.857c1.469,0.805,3.627,1.768,6.478,2.881
		c2.85,1.115,4.827,1.947,5.931,2.493l-0.037,0.067c-0.047,0.033-0.201,0.21-0.451,0.536c-0.253,0.324-0.523,0.684-0.813,1.075
		c-0.293,0.395-0.466,0.616-0.528,0.673c-2.438,3.142-4.253,5.8-5.447,7.979c-1.007,1.836-1.343,3.401-1.004,4.688
		c0.429,1.609,1.162,2.695,2.194,3.262c0.505,0.276,1.179,0.426,2.02,0.438c0.845,0.014,1.664-0.036,2.458-0.151
		c0.794-0.118,1.745-0.097,2.853,0.062c1.105,0.161,2.151,0.509,3.139,1.051c1.881,1.032,2.972,2.515,3.273,4.437
		C48.305,289.687,47.928,291.617,46.872,293.544z"/>
	<path opacity="0.4" clip-path="url(#SVGID_2_)" fill="#FFFFFF" d="M1243.546,598.077c0.97,1.105,1.474,2.293,1.513,3.562
		c0.039,1.271-0.48,2.38-1.559,3.325c-0.561,0.491-1.194,0.837-1.901,1.033c-0.708,0.198-1.339,0.293-1.891,0.282
		s-1.167,0.069-1.839,0.235c-0.675,0.169-1.264,0.475-1.771,0.918c-1.502,1.317-1.51,2.822-0.025,4.515
		c0.468,0.533,1.266,1.223,2.395,2.067c1.128,0.846,1.919,1.542,2.372,2.086l0.09,0.103c-0.301,0.263-0.521,0.469-0.658,0.614
		c-0.428,0.447-1.025,1.109-1.789,1.984c-0.766,0.878-1.475,1.66-2.123,2.352c-0.651,0.692-1.289,1.312-1.917,1.863
		c-0.834,0.731-1.695,1.167-2.586,1.308c-0.892,0.142-1.677-0.178-2.36-0.956c-0.441-0.505-0.747-1.095-0.914-1.769
		c-0.17-0.673-0.249-1.286-0.239-1.839c0.012-0.553-0.082-1.184-0.281-1.891c-0.197-0.707-0.542-1.342-1.032-1.902
		c-0.947-1.078-2.055-1.598-3.323-1.559c-1.272,0.039-2.46,0.542-3.566,1.513c-1.146,1.005-1.849,2.173-2.11,3.501
		c-0.26,1.328,0.101,2.552,1.082,3.671c0.515,0.587,1.113,1.063,1.799,1.431c0.682,0.365,1.298,0.606,1.844,0.719
		c0.545,0.113,1.092,0.273,1.638,0.482c0.547,0.211,0.95,0.465,1.214,0.765c0.539,0.615,0.758,1.498,0.656,2.649
		c-0.088,0.922-0.675,1.86-1.768,2.819c-1.298,1.137-3.111,2.438-5.449,3.908c-0.146,0.08-0.356,0.218-0.634,0.411
		c-0.276,0.195-0.489,0.331-0.636,0.414l-0.301,0.191c-0.014,0.012-0.042,0.022-0.08,0.033c-0.027,0.023-0.047,0.028-0.058,0.016
		l-18.393-20.971c0.04-0.009,0.181-0.092,0.421-0.243c0.243-0.151,0.505-0.319,0.787-0.509c0.282-0.187,0.45-0.29,0.501-0.312
		c2.337-1.471,4.151-2.771,5.45-3.91c1.092-0.958,1.682-1.896,1.767-2.818c0.102-1.15-0.117-2.033-0.656-2.648
		c-0.264-0.3-0.668-0.556-1.214-0.765c-0.547-0.211-1.093-0.371-1.639-0.485c-0.545-0.112-1.16-0.351-1.845-0.719
		c-0.683-0.366-1.282-0.843-1.797-1.429c-0.981-1.12-1.342-2.344-1.083-3.673c0.263-1.326,0.972-2.499,2.133-3.517
		c1.093-0.957,2.272-1.457,3.542-1.496c1.271-0.039,2.379,0.481,3.325,1.56c0.491,0.56,0.834,1.194,1.033,1.902
		c0.198,0.707,0.293,1.338,0.281,1.891c-0.011,0.552,0.068,1.165,0.237,1.839c0.168,0.673,0.475,1.264,0.917,1.768
		c0.682,0.778,1.468,1.099,2.358,0.957c0.892-0.142,1.753-0.577,2.585-1.309c0.875-0.766,2.015-1.945,3.418-3.539
		c1.404-1.594,2.416-2.688,3.033-3.274l0.035,0.04c0.011,0.038,0.091,0.18,0.244,0.42c0.15,0.242,0.32,0.505,0.508,0.787
		c0.187,0.282,0.291,0.45,0.314,0.502c1.468,2.337,2.771,4.151,3.909,5.448c0.957,1.093,1.897,1.683,2.817,1.768
		c1.151,0.101,2.034-0.117,2.648-0.656c0.301-0.264,0.554-0.667,0.765-1.213c0.21-0.548,0.371-1.094,0.484-1.64
		c0.111-0.545,0.353-1.16,0.719-1.845c0.366-0.683,0.843-1.281,1.431-1.797c1.118-0.981,2.344-1.342,3.671-1.083
		C1241.373,596.225,1242.539,596.929,1243.546,598.077z"/>
	<path opacity="0.4" clip-path="url(#SVGID_2_)" fill="#FFFFFF" d="M1397.701,470.718c0.638,3.641,0.635,6.884-0.002,9.73
		c-0.641,2.846-2.031,5.806-4.174,8.877c-0.979,1.377-2.18,2.912-3.6,4.608l1.017,8.386c0.01,0.239-0.071,0.45-0.253,0.632
		l-7.559,6.386c-0.091,0.076-0.204,0.126-0.334,0.148c-0.176,0.031-0.355-0.006-0.539-0.109l-1.649-1.157
		c-0.228-0.171-0.327-0.395-0.299-0.671l0.804-6.378l-7.24-5.081l-5.727,2.924c-0.041,0.021-0.105,0.042-0.19,0.057
		c-0.207,0.037-0.386-0.002-0.542-0.109l-1.646-1.158c-0.297-0.233-0.384-0.512-0.26-0.836l3.437-9.28
		c0.11-0.229,0.281-0.38,0.51-0.45l8.233-1.893c1.111-1.913,2.146-3.563,3.111-4.952c2.266-3.214,4.553-5.558,6.857-7.032
		c2.303-1.473,5.361-2.543,9.176-3.211c0.206-0.035,0.393,0.003,0.562,0.117C1397.566,470.377,1397.668,470.528,1397.701,470.718z
		 M1393.542,479.492c0.338-0.481,0.456-1.013,0.354-1.599c-0.103-0.585-0.394-1.047-0.876-1.384
		c-0.48-0.338-1.014-0.456-1.599-0.353c-0.584,0.103-1.044,0.395-1.383,0.875c-0.337,0.481-0.455,1.014-0.353,1.599
		s0.394,1.045,0.875,1.383c0.482,0.339,1.014,0.455,1.598,0.353C1392.743,480.264,1393.205,479.972,1393.542,479.492z"/>
	<path opacity="0.4" clip-path="url(#SVGID_2_)" fill="#FFFFFF" d="M1454.916,258.502c0.832,2.483,0.73,4.699-0.299,6.644
		c-1.03,1.945-2.798,3.338-5.303,4.177l-27.146,9.083c-2.506,0.839-4.755,0.789-6.748-0.143c-1.993-0.933-3.404-2.643-4.235-5.126
		c-0.368-1.098-0.691-2.183-0.968-3.251c-0.279-1.072-0.51-2.248-0.697-3.532c-0.189-1.282-0.291-2.498-0.307-3.644
		c-0.016-1.148,0.092-2.306,0.324-3.478c0.229-1.171,0.59-2.223,1.081-3.159c0.495-0.937,1.192-1.786,2.101-2.551
		c0.907-0.763,1.992-1.357,3.254-1.779c0.187-0.062,0.695,0.015,1.531,0.23c0.83,0.217,1.768,0.455,2.809,0.716
		c1.045,0.263,2.332,0.385,3.855,0.368c1.526-0.014,2.984-0.254,4.369-0.719c1.389-0.465,2.697-1.148,3.924-2.056
		c1.229-0.905,2.18-1.776,2.855-2.613c0.674-0.836,1.279-1.592,1.815-2.266c0.534-0.674,0.894-1.041,1.081-1.104
		c1.264-0.423,2.486-0.602,3.673-0.539c1.183,0.065,2.251,0.323,3.209,0.773c0.956,0.452,1.881,1.075,2.769,1.87
		c0.889,0.799,1.672,1.657,2.349,2.584c0.677,0.924,1.328,1.956,1.952,3.094c0.621,1.139,1.145,2.217,1.566,3.24
		C1454.153,256.344,1454.549,257.404,1454.916,258.502z M1429.379,226.827c3.109,1.552,5.213,3.971,6.314,7.265
		c1.103,3.292,0.878,6.49-0.671,9.602c-1.55,3.108-3.972,5.216-7.264,6.315c-3.294,1.103-6.492,0.879-9.603-0.672
		c-3.109-1.551-5.215-3.971-6.316-7.264c-1.103-3.292-0.877-6.492,0.674-9.604c1.549-3.108,3.969-5.214,7.262-6.316
		C1423.069,225.053,1426.27,225.277,1429.379,226.827z"/>
</g>
</svg>
