<?xml version="1.0" encoding="utf-8"?>
<!-- Generator: Adobe Illustrator 16.0.0, SVG Export Plug-In . SVG Version: 6.00 Build 0)  -->
<!DOCTYPE svg PUBLIC "-//W3C//DTD SVG 1.1//EN" "http://www.w3.org/Graphics/SVG/1.1/DTD/svg11.dtd">
<svg version="1.1" id="Layer_1" xmlns="http://www.w3.org/2000/svg" xmlns:xlink="http://www.w3.org/1999/xlink" x="0px" y="0px"
	 width="1440px" height="811px" viewBox="0 0 1440 811" enable-background="new 0 0 1440 811" xml:space="preserve">
<title>BG_icon1</title>
<desc>Created with Sketch.</desc>
<g>
	<defs>
		<rect id="SVGID_1_" x="1" y="0" width="1438" height="811"/>
	</defs>
	<clipPath id="SVGID_2_">
		<use xlink:href="#SVGID_1_"  overflow="visible"/>
	</clipPath>
	<rect x="1" y="-0.001" clip-path="url(#SVGID_2_)" fill="#70C0B2" width="1438" height="811"/>
	<rect x="1" y="0" clip-path="url(#SVGID_2_)" fill="#70C0B2" width="1438" height="811"/>
	<path opacity="0.4" clip-path="url(#SVGID_2_)" fill="#FFFFFF" d="M1418.834,573.066l-1.143,2.568
		c-0.04,0.093-0.112,0.169-0.217,0.229c-0.104,0.059-0.199,0.074-0.287,0.046l-2.3-0.623c-0.246,0.278-0.55,0.564-0.913,0.857
		c0.117,0.584,0.297,1.302,0.539,2.153c0.024,0.121,0.016,0.228-0.025,0.32c-0.05,0.111-0.122,0.185-0.216,0.221
		c-0.336,0.183-0.901,0.428-1.696,0.733c-0.797,0.306-1.283,0.42-1.458,0.342c-0.103-0.046-0.185-0.121-0.248-0.228l-1.041-1.959
		c-0.422,0.023-0.841,0.009-1.261-0.046c-0.547,0.955-0.972,1.626-1.275,2.012c-0.165,0.193-0.354,0.242-0.565,0.148l-2.583-1.148
		c-0.103-0.046-0.179-0.121-0.231-0.228c-0.052-0.107-0.062-0.208-0.03-0.306l0.624-2.266c-0.273-0.232-0.557-0.53-0.849-0.894
		l-2.188,0.508c-0.094,0.035-0.2,0.027-0.321-0.026c-0.103-0.045-0.183-0.126-0.242-0.241c-0.785-1.823-1.123-2.86-1.012-3.11
		c0.037-0.083,0.109-0.156,0.215-0.221c0.15-0.088,0.448-0.249,0.896-0.482c0.447-0.234,0.789-0.419,1.029-0.557
		c-0.033-0.502-0.026-0.954,0.02-1.355l-1.963-1.271c-0.088-0.051-0.147-0.13-0.178-0.237c-0.029-0.107-0.021-0.212,0.024-0.313
		l1.141-2.569c0.042-0.093,0.114-0.168,0.218-0.228c0.104-0.059,0.2-0.074,0.287-0.047l2.301,0.624
		c0.246-0.279,0.55-0.564,0.913-0.857c-0.117-0.585-0.297-1.303-0.54-2.153c-0.019-0.131-0.01-0.238,0.027-0.32
		c0.049-0.112,0.122-0.189,0.22-0.234c0.327-0.188,0.891-0.431,1.688-0.729c0.798-0.3,1.284-0.41,1.461-0.333
		c0.102,0.047,0.185,0.122,0.248,0.228l1.042,1.959c0.388-0.026,0.811-0.017,1.266,0.031c0.547-0.954,0.97-1.62,1.271-1.996
		c0.163-0.193,0.352-0.243,0.564-0.148l2.583,1.147c0.102,0.046,0.179,0.122,0.231,0.229s0.062,0.208,0.03,0.305l-0.624,2.267
		c0.272,0.232,0.556,0.53,0.85,0.893l2.188-0.507c0.103-0.032,0.21-0.022,0.32,0.026c0.102,0.045,0.184,0.125,0.242,0.24
		c0.787,1.824,1.123,2.86,1.013,3.111c-0.037,0.083-0.108,0.155-0.214,0.22c-0.178,0.1-0.483,0.262-0.917,0.491
		c-0.435,0.229-0.767,0.413-0.995,0.555c0.015,0.539,0.003,0.989-0.035,1.349l1.97,1.258c0.084,0.06,0.141,0.143,0.171,0.251
		C1418.887,572.859,1418.879,572.965,1418.834,573.066z M1410.783,574.01c1.002-0.386,1.721-1.069,2.157-2.05
		c0.437-0.981,0.461-1.974,0.076-2.977c-0.386-1.003-1.069-1.723-2.05-2.158c-0.981-0.437-1.975-0.461-2.977-0.076
		c-1.003,0.387-1.723,1.069-2.158,2.051c-0.437,0.98-0.463,1.974-0.076,2.976c0.386,1.004,1.069,1.723,2.051,2.158
		C1408.787,574.37,1409.78,574.395,1410.783,574.01z M1430.751,570.199l-0.863,1.943c-0.066,0.148-0.819-0.015-2.261-0.488
		c-0.223,0.199-0.469,0.379-0.738,0.536c0.008,1.256-0.041,2-0.143,2.231c-0.017,0.036-0.05,0.061-0.1,0.072
		c-1.421,0.155-2.141,0.229-2.16,0.221c-0.073-0.034-0.189-0.346-0.348-0.937c-0.158-0.592-0.259-1.014-0.303-1.266
		c-0.193-0.063-0.336-0.116-0.428-0.157c-0.094-0.041-0.228-0.112-0.405-0.213c-0.216,0.136-0.597,0.345-1.142,0.623
		s-0.854,0.401-0.929,0.369c-0.019-0.009-0.446-0.593-1.283-1.751c-0.025-0.045-0.029-0.086-0.014-0.122
		c0.104-0.232,0.624-0.766,1.561-1.602c-0.063-0.306-0.096-0.608-0.096-0.907c-1.317-0.753-1.943-1.202-1.878-1.351l0.864-1.944
		c0.065-0.147,0.819,0.016,2.261,0.49c0.239-0.215,0.485-0.394,0.737-0.537c-0.007-1.256,0.041-1.999,0.144-2.23
		c0.017-0.037,0.05-0.062,0.1-0.073c0.044-0.002,0.248-0.022,0.608-0.062c0.362-0.039,0.704-0.075,1.029-0.108
		c0.325-0.032,0.497-0.044,0.516-0.037c0.073,0.033,0.191,0.344,0.352,0.931c0.161,0.587,0.262,1.006,0.306,1.258
		c0.192,0.063,0.336,0.116,0.43,0.157c0.092,0.042,0.227,0.112,0.403,0.213c0.765-0.447,1.421-0.776,1.969-0.987l0.096,0.01
		c0.036,0.016,0.467,0.596,1.29,1.737c0.024,0.044,0.028,0.085,0.012,0.122c-0.103,0.231-0.623,0.766-1.561,1.601
		c0.062,0.283,0.095,0.586,0.096,0.907C1430.192,569.6,1430.818,570.051,1430.751,570.199z M1424.431,584.417l-0.863,1.944
		c-0.066,0.148-0.819-0.016-2.261-0.49c-0.223,0.201-0.468,0.38-0.738,0.538c0.008,1.255-0.04,1.999-0.143,2.23
		c-0.017,0.037-0.05,0.061-0.099,0.073c-1.422,0.155-2.142,0.229-2.16,0.22c-0.074-0.033-0.19-0.345-0.349-0.937
		s-0.259-1.014-0.303-1.265c-0.193-0.064-0.336-0.116-0.429-0.157s-0.227-0.113-0.404-0.213c-0.216,0.136-0.597,0.344-1.142,0.623
		c-0.545,0.277-0.855,0.4-0.929,0.368c-0.019-0.008-0.446-0.592-1.284-1.751c-0.024-0.045-0.029-0.085-0.013-0.122
		c0.104-0.231,0.624-0.766,1.561-1.602c-0.063-0.306-0.096-0.607-0.096-0.907c-1.317-0.752-1.943-1.201-1.878-1.35l0.865-1.944
		c0.065-0.147,0.818,0.016,2.26,0.489c0.239-0.214,0.485-0.395,0.738-0.536c-0.008-1.257,0.04-2,0.143-2.231
		c0.017-0.037,0.05-0.062,0.1-0.073c0.045-0.001,0.248-0.021,0.609-0.061c0.36-0.039,0.703-0.075,1.028-0.108
		s0.497-0.046,0.516-0.037c0.074,0.033,0.19,0.343,0.352,0.93s0.262,1.006,0.306,1.258c0.193,0.064,0.336,0.116,0.43,0.158
		c0.092,0.04,0.226,0.112,0.403,0.213c0.765-0.447,1.42-0.777,1.968-0.988l0.096,0.01c0.037,0.017,0.468,0.596,1.291,1.737
		c0.024,0.044,0.028,0.085,0.012,0.122c-0.104,0.232-0.623,0.765-1.56,1.601c0.062,0.284,0.094,0.586,0.096,0.908
		C1423.87,583.818,1424.496,584.269,1424.431,584.417z M1426.765,569.59c0.214-0.48,0.223-0.975,0.028-1.483
		c-0.196-0.509-0.534-0.869-1.016-1.083s-0.976-0.224-1.484-0.028c-0.509,0.196-0.869,0.534-1.082,1.015
		c-0.219,0.492-0.231,0.988-0.039,1.489c0.193,0.501,0.534,0.861,1.025,1.079c0.49,0.218,0.987,0.23,1.487,0.037
		C1426.187,570.423,1426.547,570.081,1426.765,569.59z M1420.444,583.808c0.215-0.48,0.225-0.976,0.029-1.484
		c-0.196-0.508-0.534-0.868-1.016-1.082c-0.481-0.215-0.977-0.224-1.484-0.028c-0.508,0.196-0.869,0.534-1.082,1.015
		c-0.219,0.492-0.231,0.987-0.039,1.488c0.193,0.501,0.534,0.861,1.025,1.079c0.49,0.219,0.986,0.231,1.488,0.038
		C1419.866,584.641,1420.226,584.3,1420.444,583.808z"/>
	<path opacity="0.4" clip-path="url(#SVGID_2_)" fill="#FFFFFF" d="M1463.752,175.577l-13.274,33.837
		c-0.537,1.368-1.483,2.348-2.841,2.941c-1.356,0.591-2.719,0.62-4.088,0.082l-45.778-17.96c-1.368-0.537-2.349-1.484-2.941-2.841
		c-0.591-1.356-0.619-2.719-0.082-4.087l13.274-33.837c0.537-1.37,1.483-2.348,2.84-2.94c1.357-0.593,2.721-0.623,4.088-0.084
		l45.78,17.959c1.368,0.537,2.347,1.484,2.939,2.842C1464.262,172.846,1464.289,174.208,1463.752,175.577z M1459.321,175.166
		c0.017-0.041,0.061-0.156,0.134-0.343c0.073-0.186,0.129-0.326,0.165-0.42c0.036-0.091,0.084-0.229,0.144-0.409
		c0.058-0.182,0.077-0.323,0.059-0.425s-0.04-0.219-0.061-0.347c-0.022-0.129-0.085-0.244-0.188-0.343
		c-0.104-0.101-0.24-0.186-0.405-0.25l-45.779-17.959c-0.271-0.107-0.541-0.101-0.814,0.021c-0.275,0.12-0.465,0.316-0.571,0.583
		c-1.366,3.483-0.997,7.026,1.106,10.627c2.766,4.72,5.634,9.636,8.604,14.751c0.085,0.152,0.326,0.6,0.729,1.344
		c0.402,0.744,0.728,1.321,0.974,1.728s0.58,0.914,1,1.522c0.419,0.607,0.831,1.098,1.233,1.472c0.404,0.373,0.813,0.64,1.229,0.803
		l0.031,0.013l0.031,0.012c0.415,0.163,0.896,0.246,1.446,0.247c0.551,0,1.187-0.08,1.907-0.241c0.72-0.159,1.309-0.306,1.768-0.438
		c0.458-0.129,1.087-0.33,1.889-0.604c0.8-0.271,1.282-0.436,1.448-0.489c5.654-1.73,11.101-3.385,16.339-4.967
		c1.469-0.452,2.979-1.24,4.534-2.365C1457.823,177.562,1458.84,176.39,1459.321,175.166z M1446.497,207.851l9.37-23.885
		c-0.956,0.485-1.939,0.889-2.95,1.211c-7.233,2.093-13.024,3.864-17.374,5.313c-1.407,0.478-2.54,0.833-3.398,1.072
		c-0.858,0.237-1.952,0.387-3.281,0.452c-1.33,0.066-2.491-0.099-3.487-0.488l-0.03-0.012l-0.031-0.012
		c-0.996-0.391-1.959-1.061-2.889-2.013c-0.931-0.952-1.631-1.806-2.1-2.563c-0.468-0.758-1.056-1.79-1.763-3.097
		c-2.203-4.02-5.245-9.258-9.124-15.709c-0.525-0.922-0.971-1.888-1.341-2.895l-9.37,23.885c-0.106,0.27-0.101,0.542,0.021,0.815
		c0.119,0.275,0.314,0.466,0.584,0.571l45.778,17.958c0.27,0.105,0.542,0.099,0.815-0.021
		C1446.2,208.316,1446.392,208.121,1446.497,207.851z"/>
	<path opacity="0.4" clip-path="url(#SVGID_2_)" fill="#FFFFFF" d="M1451.231,765.123c0.256,6.204-1.102,12.11-4.072,17.722
		c-2.972,5.611-7.093,10.052-12.369,13.328c-5.274,3.274-11.013,5.041-17.215,5.298c-6.203,0.254-12.111-1.104-17.721-4.074
		c-5.611-2.972-10.055-7.094-13.329-12.368c-3.276-5.274-5.041-11.014-5.296-17.219c-0.257-6.201,1.102-12.107,4.073-17.719
		c2.971-5.611,7.091-10.053,12.366-13.33c5.275-3.272,11.016-5.038,17.218-5.294c6.201-0.257,12.106,1.101,17.72,4.072
		c5.611,2.971,10.054,7.094,13.329,12.369C1449.207,753.181,1450.974,758.921,1451.231,765.123z M1434.65,789.035
		c3.054-2.455,5.506-5.43,7.355-8.92c1.845-3.49,2.929-7.187,3.243-11.095c0.316-3.906-0.067-7.616-1.146-11.129
		c-1.08-3.509-2.849-6.792-5.303-9.846c-2.458-3.052-5.432-5.505-8.922-7.354c-3.49-1.848-7.188-2.928-11.094-3.244
		c-3.906-0.313-7.616,0.066-11.127,1.147c-3.51,1.081-6.794,2.849-9.848,5.305c-3.056,2.458-5.503,5.433-7.354,8.921
		c-1.847,3.492-2.931,7.188-3.245,11.095c-0.315,3.906,0.068,7.616,1.147,11.126c1.082,3.512,2.849,6.795,5.305,9.849
		c2.455,3.055,5.43,5.503,8.919,7.352c3.491,1.849,7.188,2.93,11.096,3.243c3.905,0.319,7.615-0.062,11.128-1.146
		C1428.314,793.259,1431.597,791.49,1434.65,789.035z M1416.954,748.983c0.473,1.542,0.333,3.024-0.421,4.442
		c-0.753,1.426-1.898,2.374-3.439,2.847c-1.539,0.474-3.02,0.333-4.443-0.418c-1.423-0.754-2.373-1.899-2.847-3.441
		c-0.472-1.54-0.332-3.021,0.419-4.441c0.756-1.426,1.903-2.373,3.441-2.847c1.54-0.474,3.021-0.334,4.445,0.42
		C1415.531,746.298,1416.481,747.444,1416.954,748.983z M1427.155,781.479c-2.715,2.725-5.957,4.361-9.719,4.912
		c-3.764,0.551-7.351-0.075-10.759-1.884c-3.411-1.804-5.945-4.419-7.604-7.843c-1.659-3.419-2.128-7.017-1.398-10.794
		c0.139-0.783,0.537-1.407,1.194-1.869c0.654-0.457,1.39-0.611,2.201-0.457c0.783,0.141,1.406,0.538,1.867,1.196
		c0.461,0.654,0.614,1.391,0.459,2.2c-0.465,2.504-0.145,4.903,0.963,7.188c1.111,2.288,2.791,4.03,5.047,5.226
		c2.255,1.192,4.641,1.604,7.158,1.237c2.517-0.371,4.677-1.451,6.483-3.245c0.586-0.581,1.284-0.865,2.1-0.848
		c0.815,0.019,1.503,0.314,2.061,0.886c0.556,0.57,0.829,1.256,0.819,2.058C1428.013,780.243,1427.721,780.925,1427.155,781.479z
		 M1437.573,759.903c0.474,1.538,0.333,3.02-0.42,4.444c-0.752,1.421-1.899,2.37-3.439,2.843c-1.54,0.475-3.023,0.336-4.445-0.418
		c-1.424-0.753-2.37-1.901-2.845-3.44s-0.334-3.022,0.42-4.445c0.752-1.421,1.9-2.372,3.439-2.844
		c1.54-0.476,3.022-0.334,4.446,0.419C1436.151,757.214,1437.098,758.362,1437.573,759.903z"/>
	<path opacity="0.4" clip-path="url(#SVGID_2_)" fill="#FFFFFF" d="M103.224,850.047c2.382,2.143,3.332,4.283,2.85,6.434
		c-0.483,2.146-2.275,3.66-5.38,4.543l-50.623,14.391c-3.106,0.883-5.429,0.537-6.971-1.037c-1.538-1.574-1.859-3.896-0.958-6.971
		l12.201-41.127l-4.985-17.533l-2.814,0.797c-0.762,0.217-1.5,0.127-2.213-0.273c-0.713-0.398-1.18-0.979-1.396-1.738
		c-0.217-0.764-0.127-1.502,0.271-2.215c0.398-0.715,0.978-1.18,1.738-1.396l22.501-6.398c0.759-0.217,1.5-0.123,2.215,0.277
		c0.713,0.396,1.18,0.975,1.397,1.74c0.216,0.758,0.126,1.5-0.274,2.213c-0.396,0.715-0.978,1.182-1.738,1.396l-2.813,0.801
		l4.983,17.533L103.224,850.047z M59.935,827.918l-6.592,22.246l31.288-8.891l-17.313-15.457l-1.265-1.111l-0.462-1.625
		l-4.981-17.535l-5.626,1.602l4.98,17.533l0.464,1.625L59.935,827.918z"/>
	<path opacity="0.4" clip-path="url(#SVGID_2_)" fill="#FFFFFF" d="M1459.696,73.479c2.286,1.824,3.271,3.727,2.947,5.712
		c-0.324,1.985-1.877,3.463-4.663,4.437l-45.404,15.876c-2.784,0.975-4.922,0.784-6.414-0.568c-1.488-1.351-1.908-3.453-1.253-6.307
		l8.899-38.184l-5.501-15.724l-2.522,0.879c-0.683,0.24-1.36,0.195-2.034-0.128c-0.672-0.327-1.13-0.833-1.366-1.514
		c-0.24-0.683-0.199-1.361,0.125-2.032c0.325-0.675,0.827-1.131,1.511-1.369l20.181-7.059c0.684-0.239,1.362-0.192,2.035,0.132
		c0.676,0.323,1.132,0.828,1.37,1.511c0.239,0.68,0.198,1.363-0.129,2.035c-0.322,0.674-0.829,1.13-1.51,1.37l-2.523,0.88
		l5.496,15.729L1459.696,73.479z M1419,55.636l-4.809,20.656l28.062-9.808l-16.635-13.163l-1.213-0.946l-0.51-1.46l-5.496-15.728
		l-5.049,1.769l5.494,15.727l0.515,1.456L1419,55.636z"/>
	<path opacity="0.4" clip-path="url(#SVGID_2_)" fill="#FFFFFF" d="M1418.117,630.955c1.921-1.161,3.844-1.604,5.763-1.327
		c1.921,0.283,3.448,1.359,4.582,3.232c0.591,0.977,0.941,2.017,1.049,3.142c0.111,1.111,0.083,2.086-0.081,2.917
		c-0.164,0.824-0.209,1.771-0.136,2.826c0.074,1.061,0.375,2.027,0.904,2.906c1.582,2.612,3.842,3.026,6.787,1.245
		c0.923-0.562,2.174-1.578,3.746-3.048c1.576-1.47,2.833-2.476,3.772-3.01l0.181-0.11c0.314,0.519,0.565,0.908,0.748,1.15
		c0.558,0.767,1.392,1.843,2.508,3.227c1.111,1.384,2.103,2.663,2.967,3.821c0.866,1.16,1.633,2.288,2.292,3.378
		c0.875,1.449,1.301,2.865,1.276,4.24c-0.024,1.374-0.719,2.475-2.067,3.29c-0.88,0.534-1.848,0.835-2.904,0.907
		c-1.061,0.073-2.002,0.03-2.83-0.131c-0.831-0.164-1.803-0.192-2.922-0.082c-1.116,0.106-2.162,0.454-3.135,1.044
		c-1.873,1.136-2.953,2.663-3.234,4.586c-0.276,1.921,0.162,3.842,1.328,5.764c1.203,1.991,2.772,3.364,4.698,4.107
		c1.929,0.748,3.867,0.534,5.812-0.644c1.017-0.618,1.895-1.393,2.631-2.326c0.732-0.927,1.256-1.789,1.574-2.58
		c0.314-0.791,0.704-1.57,1.164-2.335c0.46-0.766,0.951-1.305,1.475-1.621c1.067-0.644,2.456-0.739,4.156-0.279
		c1.363,0.377,2.62,1.511,3.767,3.413c1.369,2.252,2.842,5.332,4.43,9.233c0.075,0.244,0.228,0.597,0.444,1.07
		c0.223,0.466,0.373,0.82,0.456,1.062l0.207,0.505c0.013,0.023,0.024,0.066,0.028,0.131c0.028,0.044,0.028,0.077,0.007,0.091
		l-36.452,22.063c-0.002-0.062-0.089-0.293-0.253-0.697c-0.16-0.404-0.349-0.841-0.556-1.32c-0.203-0.474-0.318-0.753-0.333-0.843
		c-1.588-3.902-3.061-6.98-4.428-9.234c-1.146-1.898-2.403-3.035-3.769-3.409c-1.7-0.462-3.089-0.368-4.154,0.278
		c-0.523,0.314-1.019,0.856-1.479,1.621c-0.462,0.765-0.848,1.545-1.166,2.337c-0.314,0.788-0.84,1.651-1.572,2.578
		c-0.734,0.933-1.614,1.708-2.631,2.324c-1.947,1.18-3.886,1.395-5.812,0.644c-1.929-0.746-3.5-2.124-4.722-4.143
		c-1.147-1.897-1.586-3.806-1.304-5.729c0.281-1.923,1.358-3.45,3.232-4.583c0.975-0.591,2.019-0.938,3.137-1.05
		c1.121-0.111,2.093-0.083,2.92,0.086c0.824,0.16,1.768,0.206,2.828,0.132s2.026-0.374,2.904-0.905
		c1.351-0.821,2.045-1.917,2.071-3.292c0.026-1.377-0.401-2.79-1.28-4.237c-0.919-1.521-2.387-3.549-4.409-6.087
		c-2.024-2.537-3.396-4.349-4.118-5.432l0.071-0.045c0.061-0.009,0.292-0.091,0.695-0.257c0.404-0.159,0.847-0.346,1.317-0.551
		c0.48-0.207,0.756-0.318,0.844-0.342c3.904-1.583,6.983-3.058,9.234-4.425c1.898-1.148,3.041-2.403,3.416-3.768
		c0.46-1.704,0.363-3.09-0.282-4.156c-0.316-0.525-0.854-1.016-1.62-1.475c-0.766-0.465-1.54-0.849-2.335-1.166
		c-0.793-0.314-1.653-0.84-2.584-1.574c-0.929-0.736-1.702-1.61-2.324-2.635c-1.173-1.942-1.39-3.877-0.644-5.809
		C1414.752,633.726,1416.123,632.159,1418.117,630.955z"/>
	<path opacity="0.4" clip-path="url(#SVGID_2_)" fill="#FFFFFF" d="M1223.967,784.732c5.225-0.709,10.597-0.318,16.112,1.172
		c5.51,1.488,10.347,3.857,14.504,7.102c4.157,3.246,7.13,6.939,8.927,11.078c1.791,4.141,2.146,8.219,1.061,12.23
		c-1.084,4.014-3.442,7.359-7.075,10.029c-3.638,2.674-8.066,4.367-13.295,5.076c-5.225,0.707-10.595,0.318-16.106-1.17
		c-2.485-0.674-4.961-1.592-7.438-2.754c-4.268,1.572-8.777,2.336-13.534,2.285c-1.11-0.018-2.417-0.121-3.913-0.312l-0.129-0.035
		c-0.318-0.084-0.582-0.281-0.793-0.584c-0.215-0.305-0.297-0.654-0.252-1.043c-0.008-0.094,0.005-0.191,0.034-0.293
		c0.026-0.102,0.058-0.193,0.096-0.279c0.034-0.082,0.089-0.158,0.155-0.232c0.066-0.076,0.123-0.137,0.166-0.188
		c0.046-0.051,0.117-0.117,0.217-0.197c0.098-0.084,0.179-0.141,0.233-0.17c0.056-0.033,0.138-0.088,0.251-0.164
		c0.115-0.078,0.191-0.127,0.227-0.148c0.19-0.135,0.619-0.404,1.29-0.814c0.668-0.406,1.158-0.732,1.468-0.973
		c0.314-0.24,0.752-0.57,1.316-0.99c0.562-0.424,1.074-0.883,1.533-1.377s0.926-1.051,1.405-1.664
		c-3.02-3.049-5.146-6.363-6.376-9.947c-1.23-3.586-1.383-7.096-0.453-10.533c1.083-4.012,3.445-7.357,7.08-10.027
		C1214.311,787.133,1218.74,785.445,1223.967,784.732z M1250.355,797.047c-3.434-2.541-7.358-4.406-11.776-5.6
		s-8.749-1.561-12.995-1.094c-4.243,0.461-7.846,1.67-10.808,3.629c-2.961,1.959-4.838,4.408-5.633,7.354
		c-0.641,2.365-0.495,4.854,0.446,7.461c0.937,2.607,2.572,5.096,4.904,7.461l3.547,3.561l-2.499,3.229
		c1.138-0.316,2.186-0.635,3.143-0.965l2.267-0.828l2.177,1.055c2.143,1.012,4.297,1.811,6.465,2.396
		c4.417,1.191,8.748,1.561,12.991,1.096c4.247-0.463,7.851-1.672,10.809-3.633c2.96-1.955,4.84-4.406,5.638-7.35
		c0.796-2.945,0.406-6.01-1.165-9.191C1256.294,802.445,1253.79,799.584,1250.355,797.047z M1261.991,846.146
		c0.101,0.771,0.229,1.486,0.374,2.146s0.356,1.312,0.634,1.959c0.271,0.648,0.485,1.152,0.632,1.52
		c0.148,0.365,0.412,0.893,0.78,1.582c0.374,0.689,0.606,1.139,0.704,1.352c0.021,0.037,0.061,0.117,0.12,0.242
		c0.06,0.123,0.107,0.215,0.139,0.27c0.03,0.053,0.069,0.143,0.114,0.26c0.044,0.121,0.072,0.217,0.086,0.285
		c0.012,0.062,0.027,0.143,0.049,0.24c0.021,0.1,0.026,0.195,0.018,0.285c-0.006,0.092-0.026,0.188-0.054,0.287
		c-0.028,0.102-0.069,0.191-0.12,0.271c-0.195,0.381-0.467,0.646-0.822,0.799c-0.346,0.152-0.694,0.168-1.033,0.047
		c-1.388-0.592-2.569-1.162-3.538-1.699c-4.133-2.357-7.646-5.289-10.54-8.797c-2.721-0.24-5.326-0.697-7.808-1.367
		c-7.823-2.115-14.123-5.861-18.896-11.238c1.645,0.566,2.896,0.965,3.766,1.199c4.646,1.258,9.283,1.814,13.904,1.67
		c4.624-0.146,8.938-0.977,12.944-2.498c4.325-1.678,7.926-3.992,10.796-6.932c2.871-2.943,4.828-6.348,5.873-10.215
		c0.601-2.225,0.863-4.51,0.783-6.854c3.171,3.057,5.424,6.424,6.752,10.098c1.328,3.676,1.516,7.285,0.557,10.834
		c-0.938,3.465-2.839,6.432-5.703,8.895C1269.636,843.25,1266.133,845.035,1261.991,846.146z"/>
	<path opacity="0.4" clip-path="url(#SVGID_2_)" fill="#FFFFFF" d="M1341.887,696.219c1.483-0.941,3.086-1.219,4.801-0.834
		c1.718,0.387,3.045,1.322,3.988,2.808c0.938,1.485,1.216,3.088,0.836,4.802c-0.387,1.716-1.323,3.046-2.811,3.987l10.229,16.144
		c0.926,1.456,1.188,3.053,0.798,4.795c-0.389,1.738-1.314,3.07-2.774,3.995c-17.841-2.323-32.597-0.441-44.252,5.645
		c-1.288,1.564-1.979,3.302-2.067,5.2c-0.093,1.906,0.368,3.587,1.373,5.051c1.009,1.465,2.386,2.406,4.144,2.824
		c0.025,1.279,0.286,2.398,0.778,3.363c0.495,0.966,1.093,1.725,1.798,2.279c0.704,0.556,1.662,1.029,2.875,1.419
		c1.206,0.394,2.324,0.666,3.347,0.824c1.02,0.161,2.333,0.32,3.928,0.486c0.218,2.14-0.605,4.293-2.474,6.457
		c-1.87,2.165-4.13,3.824-6.775,4.972c-2.653,1.15-4.993,1.544-7.029,1.184c-0.606-0.523-1.797-1.484-3.57-2.896
		c-1.78-1.406-3.063-2.445-3.861-3.117c-0.799-0.673-1.91-1.717-3.34-3.13c-1.424-1.415-2.533-2.696-3.32-3.846
		c-0.789-1.15-1.613-2.56-2.474-4.235c-0.865-1.671-1.536-3.414-2.019-5.23l-5.131,3.249c-1.848,1.169-3.846,1.517-5.999,1.031
		c-2.155-0.48-3.813-1.646-4.985-3.495l-5.113-8.073c-1.173-1.851-1.516-3.85-1.03-6.005c0.482-2.147,1.646-3.811,3.493-4.983
		l20.184-12.779c12.187-7.725,21.336-21.06,27.436-40.004c1.46-0.928,3.06-1.191,4.8-0.798c1.739,0.39,3.068,1.31,3.995,2.77
		L1341.887,696.219z M1352.585,725.02l-25.401-40.104c-5.684,15.461-13.395,27.081-23.153,34.87l7.19,11.35
		C1322.532,725.623,1336.322,723.583,1352.585,725.02z"/>
	<path opacity="0.4" clip-path="url(#SVGID_2_)" fill="#FFFFFF" d="M61.797,75.638c0.166-0.687,0.559-1.22,1.183-1.6
		c0.622-0.38,1.277-0.487,1.964-0.323c4.862,6.536,10.163,10.496,15.904,11.882l9.504,2.292c0.87,0.21,1.54,0.7,2.011,1.469
		c0.472,0.771,0.602,1.591,0.391,2.461l-0.917,3.801c-0.209,0.872-0.699,1.542-1.47,2.014c-0.771,0.469-1.591,0.6-2.462,0.39
		l-2.415-0.582c0.053,0.767,0.022,1.53-0.092,2.292c-0.112,0.763-0.247,1.417-0.4,1.966c-0.154,0.55-0.414,1.193-0.779,1.929
		c-0.367,0.736-0.661,1.286-0.881,1.651c-0.221,0.367-0.583,0.938-1.085,1.717c-0.502,0.78-0.836,1.31-1.001,1.592
		c-0.742,0.408-1.7,0.564-2.879,0.468c-1.177-0.096-2.271-0.439-3.28-1.032c-1.01-0.592-1.613-1.318-1.811-2.176
		c0.596-0.274,1.083-0.509,1.458-0.706c0.375-0.197,0.773-0.448,1.188-0.76c0.419-0.312,0.727-0.621,0.926-0.93
		c0.199-0.307,0.333-0.679,0.396-1.119c0.064-0.438,0.016-0.907-0.143-1.406c0.628-0.394,1.037-0.941,1.234-1.64
		c0.196-0.702,0.152-1.413-0.134-2.14c-0.286-0.723-0.782-1.306-1.487-1.741c-5.319-0.822-11.283,0.395-17.89,3.647
		c-0.687-0.166-1.22-0.561-1.599-1.184c-0.383-0.622-0.49-1.275-0.324-1.962l1.833-7.603c-0.699-0.168-1.237-0.561-1.612-1.175
		c-0.376-0.612-0.48-1.27-0.31-1.971c0.168-0.698,0.56-1.235,1.175-1.612c0.613-0.376,1.269-0.48,1.97-0.311L61.797,75.638z
		 M76.447,92.726l1.289-5.344c-4.806-1.732-9.327-5.217-13.566-10.457L59.614,95.81C65.727,93.109,71.338,92.081,76.447,92.726z"/>
	<path opacity="0.4" clip-path="url(#SVGID_2_)" fill="#FFFFFF" d="M27.472,521.473c-0.065,0.391-0.222,0.886-0.465,1.492
		c-0.244,0.605-0.473,1.074-0.687,1.409c-0.414,0.675-1.39,1.298-2.929,1.87c-1.432,0.519-2.788,0.669-4.067,0.455
		c-0.375-0.063-0.736-0.15-1.083-0.261c-0.345-0.109-0.73-0.266-1.154-0.471c-0.423-0.204-0.737-0.365-0.938-0.48
		c-0.203-0.114-0.563-0.329-1.083-0.639c-0.521-0.309-0.839-0.497-0.957-0.561c-1.28-0.733-2.396-1.536-3.351-2.408
		c-1.59-1.439-3.168-3.305-4.737-5.594c-1.569-2.289-2.748-4.451-3.539-6.481c-0.48-1.224-0.846-2.584-1.095-4.083
		c-0.021-0.135-0.086-0.51-0.198-1.122c-0.112-0.613-0.188-1.036-0.227-1.273c-0.038-0.237-0.082-0.596-0.129-1.081
		c-0.048-0.481-0.066-0.913-0.052-1.289c0.012-0.374,0.052-0.758,0.117-1.147c0.222-1.329,0.803-2.613,1.739-3.852
		c1.023-1.326,1.908-2.084,2.655-2.271c0.374-0.101,0.876-0.172,1.504-0.216c0.63-0.042,1.132-0.031,1.509,0.032
		c0.194,0.031,0.336,0.077,0.428,0.137c0.235,0.129,0.513,0.738,0.829,1.831c0.107,0.299,0.25,0.726,0.43,1.274
		c0.18,0.55,0.346,1.048,0.5,1.498c0.153,0.448,0.304,0.871,0.452,1.267c0.033,0.064,0.125,0.265,0.275,0.602
		c0.15,0.338,0.257,0.621,0.32,0.846c0.062,0.225,0.077,0.439,0.042,0.642c-0.048,0.288-0.307,0.617-0.777,0.982
		c-0.468,0.368-0.965,0.691-1.493,0.976c-0.526,0.282-1.022,0.592-1.485,0.932c-0.464,0.338-0.718,0.636-0.761,0.895
		c-0.022,0.132-0.015,0.3,0.022,0.505c0.037,0.207,0.072,0.365,0.103,0.476c0.033,0.109,0.1,0.3,0.205,0.568
		c0.105,0.271,0.162,0.421,0.171,0.452c0.726,2.155,1.653,4.054,2.779,5.698c1.126,1.644,2.55,3.173,4.271,4.59
		c0.026,0.019,0.144,0.126,0.355,0.314c0.211,0.192,0.361,0.321,0.45,0.389c0.089,0.066,0.221,0.152,0.396,0.255
		c0.176,0.104,0.326,0.166,0.452,0.188c0.251,0.041,0.604-0.109,1.064-0.457c0.458-0.347,0.902-0.731,1.33-1.156
		c0.429-0.426,0.887-0.811,1.373-1.151c0.487-0.343,0.868-0.488,1.147-0.442c0.194,0.033,0.385,0.116,0.57,0.252
		c0.184,0.134,0.405,0.331,0.662,0.589c0.257,0.259,0.411,0.413,0.459,0.466c0.31,0.276,0.646,0.563,1.003,0.858
		c0.359,0.299,0.756,0.626,1.199,0.981c0.44,0.354,0.779,0.636,1.017,0.837c0.889,0.669,1.354,1.141,1.393,1.415
		C27.511,521.118,27.507,521.272,27.472,521.473z"/>
	<path opacity="0.4" clip-path="url(#SVGID_2_)" fill="#FFFFFF" d="M198.317,810.969c-0.6,1.545-1.653,2.834-3.157,3.873
		c-1.504,1.035-3.165,1.775-4.98,2.219c-9.339,2.25-15.149,3.654-17.438,4.209c-0.248,0.059-0.777,0.195-1.593,0.41
		c-0.812,0.211-1.488,0.379-2.017,0.502c-0.53,0.119-1.163,0.24-1.896,0.359c-0.733,0.121-1.397,0.166-1.994,0.139
		c-0.6-0.029-1.12-0.133-1.569-0.307l-0.029-0.012l-0.03-0.014c-0.451-0.172-0.904-0.449-1.365-0.83
		c-0.46-0.381-0.918-0.865-1.379-1.449c-0.462-0.582-0.846-1.098-1.158-1.543c-0.308-0.449-0.693-1.027-1.149-1.732
		c-0.458-0.705-0.757-1.166-0.9-1.377c-1.296-1.945-3.164-4.723-5.61-8.342c-2.446-3.617-3.912-5.789-4.393-6.516
		c-0.894-1.293-1.6-2.869-2.119-4.723c-0.517-1.854-0.535-3.398-0.058-4.631c0.591-1.525,1.49-2.639,2.698-3.34
		c1.205-0.703,2.561-0.764,4.069-0.182l43.195,16.766c1.271,0.494,2.192,1.383,2.766,2.662
		C198.781,808.39,198.818,809.676,198.317,810.969z M194.968,819.594l-9.041,23.301c-0.501,1.291-1.391,2.221-2.667,2.783
		c-1.277,0.561-2.558,0.592-3.851,0.092l-43.196-16.764c-1.293-0.502-2.221-1.391-2.781-2.666c-0.563-1.275-0.593-2.562-0.092-3.854
		l9.043-23.299c0.487,1.293,1.146,2.527,1.974,3.703c5.213,7.562,8.765,12.822,10.654,15.785c0.796,1.254,1.453,2.246,1.968,2.977
		c0.519,0.727,1.258,1.557,2.227,2.48c0.969,0.928,1.952,1.586,2.949,1.973l0.03,0.012l0.029,0.012
		c0.998,0.387,2.165,0.566,3.506,0.533c1.34-0.029,2.447-0.139,3.319-0.332c0.874-0.189,2.027-0.479,3.461-0.871
		c4.261-1.113,10.439-2.596,18.542-4.451C192.455,820.679,193.763,820.209,194.968,819.594z"/>
	<path opacity="0.4" clip-path="url(#SVGID_2_)" fill="#FFFFFF" d="M43.325,79.261c0.523,0.597,0.642,1.263,0.355,1.994
		l-17.176,42.019c-0.221,0.527-0.62,0.884-1.202,1.071c-0.299,0.092-0.61,0.102-0.933,0.029c-0.208-0.047-0.424-0.146-0.649-0.295
		l-13.597-9.509l-10.58,7.376c-0.43,0.319-0.921,0.418-1.471,0.292c-0.266-0.06-0.474-0.148-0.628-0.261
		c-0.331-0.214-0.563-0.502-0.702-0.862c-0.138-0.36-0.162-0.729-0.077-1.109l2.913-12.849l-12.176-8.53
		c-0.641-0.425-0.901-1.031-0.782-1.823c0.111-0.75,0.541-1.242,1.29-1.469l53.495-16.566
		C42.159,78.521,42.799,78.684,43.325,79.261z M23.942,119.674l14.809-36.188L-7.346,97.754l8.668,6.061l28.654-12.604
		L11.249,110.79L23.942,119.674z"/>
	<path opacity="0.4" clip-path="url(#SVGID_2_)" fill="#FFFFFF" d="M41.505,176.797c-0.184,0.32-0.574,0.561-1.168,0.722
		l-12.353,3.176l-4.386,11.984c-0.044,0.11-0.12,0.26-0.229,0.449c-0.175,0.305-0.4,0.52-0.674,0.644
		c-0.273,0.122-0.556,0.101-0.847-0.066c-0.276-0.159-0.517-0.413-0.722-0.763l-6.839-10.771l-12.75-0.475
		c-0.42-0.009-0.761-0.089-1.023-0.24c-0.305-0.175-0.474-0.413-0.506-0.71c-0.031-0.299,0.041-0.601,0.216-0.906
		c0.05-0.087,0.148-0.225,0.294-0.412l8.138-9.83l-3.507-12.282c-0.138-0.601-0.12-1.055,0.056-1.36
		c0.309-0.538,0.908-0.639,1.798-0.301l11.865,4.694l10.607-7.108c0.619-0.438,1.146-0.531,1.583-0.281s0.622,0.753,0.556,1.508
		l-0.791,12.744l10.037,7.88C41.598,175.69,41.814,176.259,41.505,176.797z"/>
	<path opacity="0.4" clip-path="url(#SVGID_2_)" fill="#FFFFFF" d="M29.593,601.887c3.743,3.291,6.421,7.355,8.031,12.192
		c1.611,4.838,1.904,9.696,0.88,14.574c-1.024,4.879-3.182,9.19-6.473,12.934c-3.291,3.744-7.355,6.422-12.192,8.032
		c-4.837,1.61-9.696,1.903-14.574,0.879c-4.879-1.022-9.19-3.181-12.934-6.472c-3.744-3.291-6.422-7.356-8.032-12.193
		s-1.904-9.694-0.88-14.573c1.023-4.879,3.181-9.189,6.473-12.935c3.291-3.743,7.355-6.421,12.193-8.031
		c4.837-1.61,9.695-1.903,14.573-0.88C21.537,596.439,25.848,598.596,29.593,601.887z M30.469,626.991
		c0.726-3.456,0.52-6.896-0.621-10.322c-1.14-3.425-3.037-6.303-5.69-8.634c-2.653-2.33-5.707-3.858-9.162-4.585
		c-3.456-0.726-6.896-0.52-10.321,0.621c-3.426,1.141-6.304,3.038-8.634,5.69c-2.331,2.652-3.859,5.707-4.585,9.162
		c-0.727,3.456-0.52,6.896,0.621,10.321c1.14,3.426,3.037,6.304,5.689,8.634c2.653,2.331,5.707,3.859,9.163,4.585
		c3.455,0.727,6.896,0.521,10.322-0.62c3.425-1.141,6.303-3.037,8.634-5.69C28.214,633.501,29.742,630.447,30.469,626.991z
		 M11.337,609.258l5.178,15.553c0.108,0.324,0.092,0.625-0.046,0.902c-0.139,0.278-0.371,0.471-0.694,0.578L4.665,629.99
		c-0.325,0.107-0.625,0.093-0.903-0.047c-0.277-0.139-0.47-0.37-0.578-0.693l-0.739-2.223c-0.108-0.324-0.093-0.625,0.046-0.902
		s0.37-0.471,0.694-0.579l7.777-2.589l-4.068-12.22c-0.108-0.324-0.092-0.625,0.046-0.903c0.139-0.276,0.37-0.47,0.694-0.578
		l2.222-0.739c0.324-0.108,0.625-0.093,0.902,0.046C11.036,608.702,11.229,608.933,11.337,609.258z"/>
	<path opacity="0.4" clip-path="url(#SVGID_2_)" fill="#FFFFFF" d="M233.587,779.225c0.416,0.768,0.393,1.539-0.069,2.313
		l10.985,20.248c0.075,0.138,0.089,0.286,0.043,0.442c-0.047,0.156-0.139,0.271-0.278,0.347l-1.023,0.556
		c-0.139,0.075-0.286,0.089-0.442,0.043c-0.157-0.046-0.272-0.139-0.347-0.277l-10.984-20.247c-0.902-0.035-1.562-0.437-1.978-1.204
		c-0.307-0.565-0.369-1.156-0.186-1.773c0.184-0.615,0.558-1.077,1.123-1.384s1.156-0.368,1.772-0.187
		C232.819,778.286,233.28,778.66,233.587,779.225z M257.684,767.476l6.62,12.203c0.145,0.267,0.189,0.509,0.134,0.724
		c-0.055,0.217-0.186,0.478-0.394,0.782c-1.621,2.481-3.253,4.167-4.895,5.058c-0.65,0.353-1.373,0.593-2.166,0.72
		s-1.511,0.186-2.151,0.174c-0.641-0.011-1.396,0.067-2.264,0.234s-1.691,0.463-2.47,0.885c-2.047,1.111-4.099,3.23-6.154,6.361
		c-0.13,0.193-0.28,0.337-0.45,0.43c-0.277,0.15-0.572,0.179-0.885,0.086c-0.312-0.092-0.543-0.277-0.694-0.555l-6.438-11.866
		c-0.185-0.341-0.179-0.725,0.019-1.148c0.143-0.271,0.439-0.729,0.89-1.374c1.823-2.644,3.72-4.501,5.692-5.571
		c1.141-0.619,2.291-1.043,3.45-1.271s2.581-0.393,4.266-0.493c0.515-0.018,1.039-0.171,1.572-0.46
		c0.576-0.312,1.142-0.764,1.697-1.354c0.556-0.592,1.006-1.16,1.351-1.707c0.346-0.545,0.679-1.05,1-1.515
		c0.321-0.464,0.551-0.733,0.689-0.809c0.277-0.15,0.572-0.179,0.884-0.087C257.302,767.014,257.533,767.2,257.684,767.476z"/>
	<path opacity="0.4" clip-path="url(#SVGID_2_)" fill="#FFFFFF" d="M1440,254.448v3.356c0,0.455-0.166,0.849-0.499,1.18
		c-0.332,0.333-0.726,0.499-1.18,0.499h-3.75c-0.646,2.815-1.998,5.25-4.052,7.304c-2.055,2.055-4.489,3.405-7.304,4.052v3.75
		c0,0.454-0.167,0.848-0.498,1.18c-0.332,0.332-0.727,0.499-1.181,0.499h-3.356c-0.455,0-0.849-0.167-1.181-0.499
		c-0.332-0.333-0.498-0.726-0.498-1.18v-3.75c-2.815-0.646-5.25-1.997-7.304-4.052c-2.055-2.054-3.405-4.488-4.052-7.304h-3.75
		c-0.455,0-0.849-0.166-1.181-0.499c-0.332-0.332-0.498-0.725-0.498-1.18v-3.356c0-0.455,0.166-0.848,0.498-1.18
		s0.726-0.499,1.181-0.499h3.75c0.646-2.814,1.997-5.249,4.052-7.304c2.054-2.054,4.488-3.405,7.304-4.052v-3.75
		c0-0.455,0.166-0.848,0.498-1.181c0.332-0.332,0.726-0.498,1.181-0.498h3.356c0.454,0,0.849,0.167,1.181,0.498
		c0.331,0.333,0.498,0.726,0.498,1.181v3.75c2.814,0.647,5.249,1.998,7.304,4.052c2.054,2.055,3.405,4.489,4.052,7.304h3.75
		c0.454,0,0.848,0.167,1.18,0.499C1439.834,253.6,1440,253.994,1440,254.448z M1431.11,259.484h-2.858
		c-0.455,0-0.849-0.166-1.18-0.499c-0.333-0.332-0.499-0.725-0.499-1.18v-3.356c0-0.455,0.166-0.848,0.499-1.18
		c0.331-0.332,0.725-0.499,1.18-0.499h2.858c-0.56-1.888-1.543-3.536-2.95-4.943c-1.408-1.407-3.055-2.391-4.943-2.95v2.858
		c0,0.455-0.167,0.848-0.498,1.18c-0.332,0.333-0.727,0.498-1.181,0.498h-3.356c-0.455,0-0.849-0.166-1.181-0.498
		c-0.332-0.332-0.498-0.725-0.498-1.18v-2.858c-1.888,0.56-3.536,1.543-4.943,2.95c-1.408,1.407-2.392,3.055-2.95,4.943h2.858
		c0.454,0,0.848,0.167,1.18,0.499s0.499,0.726,0.499,1.18v3.356c0,0.455-0.167,0.849-0.499,1.18
		c-0.332,0.333-0.726,0.499-1.18,0.499h-2.858c0.559,1.888,1.542,3.536,2.95,4.943c1.407,1.408,3.056,2.391,4.943,2.95v-2.858
		c0-0.455,0.166-0.848,0.498-1.18c0.332-0.332,0.726-0.498,1.181-0.498h3.356c0.454,0,0.849,0.167,1.181,0.498
		c0.331,0.332,0.498,0.726,0.498,1.18v2.858c1.889-0.559,3.535-1.542,4.943-2.95C1429.567,263.02,1430.55,261.372,1431.11,259.484z"
		/>
	<path opacity="0.4" clip-path="url(#SVGID_2_)" fill="#FFFFFF" d="M1440.351,337.135c0.811,3.008,0.646,5.828-0.496,8.461
		c-1.143,2.632-3.089,4.68-5.838,6.143c-2.75,1.463-5.946,2.175-9.586,2.138c-3.642-0.038-7.271-0.841-10.889-2.411
		c-1.629-0.706-3.229-1.581-4.802-2.623c-3.072,0.647-6.23,0.718-9.477,0.21c-0.756-0.125-1.636-0.326-2.641-0.605l-0.085-0.037
		c-0.208-0.09-0.37-0.249-0.484-0.48c-0.114-0.229-0.137-0.475-0.067-0.738c0.006-0.065,0.022-0.131,0.052-0.197
		c0.028-0.066,0.06-0.126,0.094-0.179s0.078-0.101,0.132-0.146c0.053-0.045,0.096-0.081,0.132-0.111
		c0.035-0.029,0.09-0.067,0.168-0.113c0.075-0.046,0.134-0.076,0.174-0.093c0.041-0.016,0.104-0.044,0.189-0.086
		c0.087-0.042,0.143-0.068,0.17-0.079c0.145-0.073,0.465-0.215,0.961-0.427c0.497-0.212,0.865-0.384,1.103-0.518
		c0.238-0.133,0.569-0.316,0.997-0.547c0.427-0.231,0.821-0.493,1.185-0.786c0.363-0.292,0.738-0.625,1.124-0.997
		c-1.756-2.383-2.877-4.86-3.357-7.432c-0.483-2.573-0.235-4.985,0.743-7.239c1.142-2.633,3.088-4.681,5.838-6.144
		c2.749-1.462,5.944-2.175,9.585-2.137c3.642,0.038,7.271,0.841,10.888,2.41c3.617,1.569,6.685,3.671,9.2,6.303
		C1437.877,331.308,1439.54,334.129,1440.351,337.135z M1447.61,357.602c-0.986,2.273-2.581,4.107-4.784,5.503
		c-2.203,1.396-4.774,2.267-7.716,2.611c-0.008,0.537,0.007,1.038,0.041,1.503c0.035,0.465,0.112,0.932,0.235,1.402
		c0.123,0.47,0.217,0.835,0.282,1.101c0.065,0.265,0.19,0.651,0.376,1.159c0.185,0.507,0.299,0.839,0.345,0.993
		c0.01,0.027,0.03,0.086,0.059,0.178c0.027,0.091,0.05,0.156,0.066,0.197c0.016,0.041,0.032,0.104,0.051,0.191
		c0.02,0.086,0.029,0.153,0.032,0.199c0.002,0.046,0.006,0.104,0.009,0.173c0.004,0.069-0.002,0.134-0.017,0.195
		c-0.016,0.061-0.038,0.124-0.066,0.19c-0.029,0.066-0.064,0.124-0.108,0.172c-0.171,0.241-0.385,0.396-0.64,0.465
		c-0.256,0.069-0.492,0.045-0.712-0.072c-0.89-0.544-1.638-1.049-2.246-1.515c-2.588-2.023-4.695-4.378-6.32-7.063
		c-1.837-0.436-3.569-1.008-5.198-1.714c-5.134-2.227-9.061-5.416-11.783-9.567c1.065,0.552,1.882,0.951,2.45,1.198
		c3.05,1.323,6.16,2.166,9.334,2.53c3.173,0.363,6.203,0.226,9.091-0.412c3.124-0.715,5.812-1.935,8.067-3.657
		s3.934-3.852,5.034-6.39c0.633-1.458,1.039-2.993,1.22-4.603c1.86,2.406,3.061,4.93,3.603,7.572
		C1448.856,352.787,1448.62,355.272,1447.61,357.602z"/>
	<path opacity="0.4" clip-path="url(#SVGID_2_)" fill="#FFFFFF" d="M49.757,29.338l-2.321,4.515
		c-0.084,0.163-0.223,0.292-0.416,0.388c-0.194,0.096-0.367,0.115-0.522,0.055l-4.083-1.359c-0.472,0.478-1.05,0.962-1.734,1.453
		c0.151,1.065,0.402,2.377,0.753,3.936c0.03,0.221,0.003,0.413-0.081,0.576c-0.1,0.195-0.236,0.32-0.409,0.375
		c-0.625,0.296-1.67,0.679-3.135,1.149c-1.466,0.47-2.353,0.625-2.662,0.467c-0.18-0.093-0.321-0.237-0.425-0.435l-1.677-3.639
		c-0.761,0-1.517-0.07-2.268-0.209c-1.083,1.665-1.917,2.83-2.506,3.493c-0.314,0.333-0.659,0.402-1.033,0.21l-4.538-2.333
		c-0.179-0.092-0.311-0.237-0.394-0.434c-0.083-0.198-0.093-0.381-0.025-0.552l1.358-4.022c-0.469-0.447-0.95-1.012-1.441-1.697
		l-3.996,0.691c-0.172,0.056-0.364,0.029-0.575-0.08c-0.179-0.092-0.317-0.245-0.412-0.459c-1.23-3.367-1.733-5.271-1.507-5.71
		c0.075-0.146,0.211-0.271,0.409-0.376c0.28-0.144,0.835-0.403,1.666-0.779c0.83-0.375,1.467-0.675,1.912-0.898
		c-0.007-0.908,0.052-1.721,0.175-2.44l-3.408-2.493c-0.155-0.1-0.254-0.249-0.296-0.445c-0.043-0.196-0.019-0.385,0.074-0.564
		l2.321-4.514c0.083-0.162,0.222-0.292,0.416-0.388c0.193-0.096,0.368-0.114,0.522-0.055l4.083,1.359
		c0.471-0.478,1.049-0.962,1.734-1.454c-0.152-1.065-0.403-2.377-0.753-3.935c-0.022-0.238,0.004-0.43,0.08-0.576
		c0.1-0.195,0.241-0.329,0.421-0.4c0.609-0.304,1.648-0.685,3.118-1.143c1.469-0.458,2.358-0.607,2.667-0.448
		c0.179,0.092,0.32,0.237,0.425,0.434l1.676,3.639c0.704-0.008,1.464,0.054,2.281,0.185c1.082-1.664,1.913-2.82,2.494-3.469
		c0.314-0.332,0.658-0.402,1.033-0.209l4.538,2.333c0.179,0.092,0.31,0.237,0.394,0.434c0.084,0.198,0.091,0.382,0.025,0.552
		l-1.358,4.022c0.469,0.447,0.949,1.013,1.44,1.698l3.996-0.691c0.188-0.047,0.381-0.021,0.576,0.08
		c0.179,0.092,0.316,0.244,0.412,0.459c1.23,3.368,1.733,5.271,1.507,5.71c-0.075,0.146-0.212,0.271-0.409,0.375
		c-0.329,0.16-0.896,0.424-1.702,0.791c-0.806,0.368-1.423,0.667-1.851,0.9c-0.027,0.973-0.094,1.782-0.199,2.427l3.421,2.468
		c0.146,0.116,0.24,0.272,0.283,0.469C49.873,28.971,49.849,29.159,49.757,29.338z M35.144,30.217
		c1.848-0.593,3.214-1.751,4.101-3.476c0.887-1.724,1.033-3.51,0.441-5.357c-0.593-1.847-1.752-3.214-3.476-4.101
		c-1.725-0.886-3.51-1.033-5.358-0.441c-1.847,0.593-3.214,1.752-4.101,3.476c-0.887,1.725-1.033,3.511-0.441,5.357
		c0.593,1.848,1.752,3.214,3.476,4.101S33.298,30.809,35.144,30.217z M71.532,25.386l-1.756,3.416
		c-0.134,0.261-1.476-0.11-4.025-1.112c-0.421,0.338-0.882,0.636-1.384,0.892c-0.116,2.265-0.277,3.601-0.486,4.007
		c-0.034,0.065-0.096,0.105-0.185,0.121c-2.58,0.135-3.885,0.193-3.917,0.177c-0.13-0.067-0.309-0.642-0.533-1.724
		c-0.225-1.083-0.364-1.853-0.416-2.312c-0.342-0.135-0.594-0.245-0.757-0.328c-0.163-0.084-0.398-0.225-0.707-0.425
		c-0.404,0.224-1.111,0.561-2.122,1.007c-1.012,0.447-1.582,0.637-1.712,0.57c-0.033-0.017-0.744-1.113-2.134-3.288
		c-0.041-0.083-0.044-0.156-0.01-0.222c0.209-0.406,1.201-1.315,2.976-2.727c-0.083-0.557-0.11-1.105-0.08-1.646
		c-2.299-1.49-3.381-2.365-3.247-2.625l1.756-3.416c0.134-0.26,1.475,0.11,4.025,1.112c0.453-0.363,0.915-0.66,1.384-0.893
		c0.116-2.264,0.278-3.6,0.487-4.007c0.033-0.065,0.095-0.105,0.186-0.121c0.081,0.001,0.45-0.016,1.105-0.048
		c0.654-0.034,1.277-0.064,1.866-0.09c0.589-0.026,0.9-0.031,0.933-0.014c0.13,0.066,0.31,0.637,0.539,1.711
		c0.229,1.075,0.369,1.841,0.422,2.3c0.342,0.134,0.595,0.244,0.757,0.327c0.162,0.083,0.398,0.226,0.707,0.425
		c1.423-0.729,2.64-1.254,3.65-1.579l0.171,0.026c0.065,0.033,0.781,1.122,2.148,3.264c0.039,0.082,0.043,0.156,0.01,0.22
		c-0.209,0.407-1.202,1.316-2.976,2.727c0.083,0.518,0.11,1.065,0.08,1.646C70.584,24.251,71.666,25.127,71.532,25.386z
		 M58.686,50.372l-1.756,3.416c-0.134,0.261-1.476-0.111-4.025-1.113c-0.421,0.339-0.882,0.636-1.384,0.892
		c-0.115,2.265-0.277,3.6-0.487,4.007c-0.033,0.064-0.095,0.105-0.185,0.121c-2.579,0.134-3.884,0.193-3.917,0.177
		c-0.13-0.067-0.308-0.642-0.532-1.724c-0.225-1.083-0.364-1.853-0.416-2.312c-0.342-0.135-0.594-0.244-0.757-0.327
		c-0.163-0.084-0.398-0.226-0.707-0.426c-0.404,0.224-1.11,0.56-2.122,1.007c-1.012,0.447-1.583,0.637-1.712,0.57
		c-0.033-0.017-0.744-1.113-2.135-3.288c-0.041-0.083-0.043-0.156-0.01-0.221c0.21-0.407,1.202-1.316,2.976-2.728
		c-0.083-0.557-0.11-1.106-0.08-1.645c-2.299-1.491-3.381-2.365-3.247-2.626l1.756-3.416c0.133-0.26,1.475,0.11,4.025,1.113
		c0.454-0.363,0.915-0.66,1.384-0.892c0.115-2.265,0.278-3.601,0.487-4.007c0.033-0.065,0.095-0.105,0.185-0.121
		c0.082,0.001,0.45-0.016,1.105-0.049c0.655-0.034,1.277-0.063,1.867-0.089c0.589-0.026,0.899-0.031,0.933-0.014
		c0.13,0.066,0.31,0.637,0.539,1.712c0.23,1.074,0.37,1.84,0.422,2.299c0.342,0.135,0.594,0.244,0.757,0.328
		c0.162,0.083,0.397,0.225,0.707,0.425c1.423-0.729,2.64-1.254,3.65-1.578l0.171,0.026c0.064,0.033,0.781,1.122,2.148,3.264
		c0.039,0.083,0.043,0.156,0.009,0.221c-0.209,0.407-1.201,1.315-2.976,2.727c0.084,0.517,0.111,1.064,0.08,1.646
		C57.738,49.237,58.82,50.113,58.686,50.372z M64.407,23.883c0.435-0.846,0.502-1.737,0.202-2.673
		c-0.301-0.936-0.874-1.622-1.719-2.056c-0.846-0.435-1.737-0.502-2.673-0.202c-0.937,0.301-1.621,0.874-2.056,1.72
		c-0.443,0.862-0.517,1.755-0.221,2.678c0.296,0.924,0.875,1.607,1.738,2.05c0.862,0.443,1.755,0.517,2.678,0.221
		C63.281,25.324,63.964,24.745,64.407,23.883z M51.562,48.868c0.434-0.845,0.501-1.737,0.202-2.672
		c-0.301-0.936-0.874-1.621-1.719-2.056c-0.846-0.435-1.737-0.503-2.673-0.203s-1.621,0.874-2.056,1.719
		c-0.443,0.863-0.516,1.755-0.22,2.679c0.296,0.923,0.875,1.607,1.738,2.051c0.862,0.443,1.755,0.517,2.678,0.22
		C50.435,50.31,51.118,49.731,51.562,48.868z"/>
	<path opacity="0.4" clip-path="url(#SVGID_2_)" fill="#FFFFFF" d="M86.103,724.433c1.705,4.762,1.476,9.43-0.688,14.005
		c-2.163,4.575-5.625,7.715-10.386,9.419l-48.874,17.497c-5.541,1.983-10.985,1.711-16.332-0.818
		c-5.348-2.526-9.013-6.562-10.997-12.103c-1.415-3.952-1.647-7.948-0.694-11.989c0.952-4.041,2.875-7.49,5.771-10.352
		c-0.361-0.817-0.621-1.45-0.782-1.899c-2.273-6.349-1.967-12.574,0.917-18.674s7.5-10.286,13.849-12.56
		c4.731-1.693,9.494-1.911,14.286-0.653c4.791,1.258,8.831,3.696,12.121,7.316c1.431-2.606,3.584-4.426,6.46-5.455
		c3.174-1.136,6.286-0.983,9.336,0.459c3.05,1.441,5.143,3.75,6.279,6.924c0.804,2.246,0.929,4.532,0.377,6.858
		c4.185-0.485,8.096,0.388,11.731,2.617C82.115,717.255,84.656,720.39,86.103,724.433z"/>
	<path opacity="0.4" clip-path="url(#SVGID_2_)" fill="#FFFFFF" d="M45.627,280.844c3.473,2.263,5.787,5.199,6.945,8.81
		c1.158,3.611,0.983,7.347-0.526,11.206c-1.508,3.86-4.116,7.363-7.822,10.508c-3.707,3.146-8.091,5.53-13.155,7.154
		c-1.453,0.466-2.983,0.866-4.593,1.198c-2.944,4.95-6.913,8.992-11.904,12.126c-0.924,0.616-2.034,1.224-3.329,1.823l-0.156,0.05
		c-0.311,0.1-0.626,0.081-0.945-0.058c-0.319-0.138-0.577-0.37-0.772-0.696l-0.01-0.031c-0.089-0.063-0.135-0.186-0.136-0.368
		c-0.001-0.183-0.014-0.293-0.037-0.332c-0.024-0.039-0.01-0.152,0.045-0.341c0.053-0.188,0.085-0.302,0.097-0.34
		c0.01-0.038,0.055-0.149,0.133-0.334c0.078-0.185,0.131-0.305,0.16-0.36c0.091-0.212,0.298-0.674,0.62-1.383
		c0.321-0.71,0.553-1.22,0.695-1.528c0.141-0.309,0.331-0.821,0.57-1.539s0.406-1.355,0.502-1.912
		c0.096-0.557,0.18-1.259,0.251-2.106c0.072-0.847,0.089-1.722,0.051-2.625c-3.851-0.802-7.151-2.261-9.901-4.378
		c-2.75-2.116-4.625-4.731-5.623-7.844c-1.158-3.61-0.983-7.346,0.526-11.206c1.508-3.86,4.116-7.362,7.822-10.508
		c3.707-3.146,8.091-5.53,13.155-7.154c5.063-1.624,10.017-2.234,14.862-1.831C37.997,277.249,42.156,278.582,45.627,280.844z
		 M32.139,281.015c-4.146-0.26-8.336,0.288-12.569,1.646c-4.234,1.358-7.961,3.349-11.183,5.972
		c-3.221,2.624-5.523,5.509-6.907,8.652c-1.383,3.145-1.619,6.138-0.707,8.98c0.746,2.325,2.198,4.303,4.357,5.933
		c2.159,1.632,4.834,2.782,8.025,3.452l3.208,0.688l0.118,3.258c0.107,2.048-0.047,4.066-0.462,6.053
		c2.735-2.319,5.021-5.008,6.854-8.068l0.959-1.613l1.834-0.382c1.485-0.292,2.86-0.643,4.126-1.048
		c4.234-1.358,7.961-3.348,11.182-5.972c3.221-2.624,5.523-5.507,6.907-8.652c1.382-3.144,1.618-6.138,0.707-8.981
		s-2.845-5.141-5.798-6.895C39.835,282.284,36.285,281.277,32.139,281.015z"/>
	<path opacity="0.4" clip-path="url(#SVGID_2_)" fill="#FFFFFF" d="M158.37,710.672c0,4.26-0.646,7.943-1.938,11.049
		c-1.292,3.104-3.461,6.189-6.506,9.252c-1.386,1.368-3.054,2.874-5.004,4.516l-0.513,9.728c-0.035,0.274-0.171,0.496-0.411,0.667
		l-9.855,5.749c-0.12,0.067-0.256,0.103-0.411,0.103c-0.205,0-0.402-0.077-0.59-0.231l-1.643-1.643
		c-0.223-0.239-0.291-0.513-0.206-0.82l2.182-7.084l-7.211-7.211l-7.083,2.181c-0.051,0.018-0.128,0.026-0.231,0.026
		c-0.24,0-0.437-0.077-0.59-0.231l-1.643-1.643c-0.291-0.325-0.333-0.658-0.128-1.001l5.749-9.854
		c0.171-0.24,0.394-0.376,0.667-0.411l9.727-0.513c1.643-1.951,3.148-3.619,4.517-5.005c3.217-3.199,6.279-5.406,9.188-6.621
		c2.909-1.215,6.596-1.822,11.061-1.822c0.24,0,0.445,0.081,0.616,0.243C158.284,710.257,158.37,710.45,158.37,710.672z
		 M151.903,719.808c0.479-0.479,0.719-1.061,0.719-1.746c0-0.684-0.24-1.266-0.719-1.745c-0.479-0.479-1.061-0.718-1.745-0.718
		c-0.685,0-1.267,0.239-1.745,0.718c-0.479,0.479-0.718,1.062-0.718,1.745c0,0.686,0.239,1.267,0.718,1.746
		c0.479,0.479,1.061,0.719,1.745,0.719C150.842,720.527,151.424,720.287,151.903,719.808z"/>
	<g opacity="0.4" clip-path="url(#SVGID_2_)">
		<path fill="#FFFFFF" d="M1363.48-13.358c3.253,2.255,8.35,55.379,2.528,65.2c-2.963,4.999-10.601,8.899-23.813,20.446
			c-7.333,6.408-9.505,9.191-17.138,4.962c-12.502-6.927-12.615-9.821-11.878-16.179c0.705-6.083,0.881-8.802-1.828-11.39
			c-2.454-2.345-13.802-14.454-21.721-12.908c-29.927,5.838-31.248,2.272-31.575-3.955c-0.739-14.053-1.117-33.55,5.565-37.713
			c6.709-4.179,36.825-15.443,40.735-16.247c25.562-5.252,28.403-2.567,30.259-1.666c5.983,2.906,12.2,5.757,9.87,8.001
			c-2.057,1.98-8.665,5.675-8.105,7.928c0.71,2.861,9.375,12.502,12.367,12.563c3.149,0.064,10.602-14.257,12.643-18.319
			C1362.003-13.858,1362.726-13.881,1363.48-13.358z"/>
		<path fill="#FFFFFF" d="M1316.115,80.326c0.455-3.165,2.236-2.968,3.527-1.839c1.449,1.266,3.178,2.879,5.455,5.236
			c2.985,3.089,1.059,3.57-3.498,5.625c-5.179,2.335-6.215,2.583-6.49,0.505C1314.874,88.07,1315.6,83.903,1316.115,80.326z"/>
	</g>
	<path opacity="0.4" clip-path="url(#SVGID_2_)" fill="#FFFFFF" d="M268.279,17.596l-9.109,22.541
		c-0.422,1.044-1.146,1.782-2.17,2.218c-1.025,0.436-2.061,0.441-3.105,0.02l-37.564-15.182c-1.043-0.423-1.783-1.146-2.219-2.171
		c-0.434-1.026-0.442-2.06-0.02-3.104l9.11-22.542c0.421-1.041,1.144-1.78,2.169-2.215c1.025-0.436,2.059-0.442,3.105-0.02
		l1.25,0.505l3.037-7.515c1.941-4.8,5.328-8.225,10.165-10.279c4.835-2.053,9.651-2.106,14.452-0.166
		c4.799,1.939,8.226,5.326,10.277,10.162c2.051,4.838,2.107,9.654,0.168,14.455l-3.037,7.513l1.252,0.506
		c1.043,0.423,1.783,1.147,2.219,2.171C268.693,15.521,268.7,16.554,268.279,17.596z M237.24,0.683l20.035,8.098l3.037-7.514
		c1.117-2.766,1.094-5.523-0.07-8.27c-1.168-2.745-3.134-4.678-5.898-5.797c-2.768-1.117-5.522-1.093-8.268,0.072
		c-2.748,1.164-4.682,3.131-5.799,5.897L237.24,0.683z"/>
	<path opacity="0.4" clip-path="url(#SVGID_2_)" fill="#FFFFFF" d="M584.593,1200.042v31.689c0,1.258-0.44,2.326-1.32,3.207
		c-0.881,0.88-1.95,1.32-3.207,1.32h-45.271c-1.258,0-2.327-0.44-3.207-1.32c-0.88-0.881-1.32-1.949-1.32-3.207v-7.545h-25.653
		c-1.258,0-2.327-0.439-3.207-1.32c-0.881-0.88-1.32-1.949-1.32-3.207v-63.38c0-1.257,0.439-2.326,1.32-3.206
		c0.88-0.88,1.949-1.321,3.207-1.321h51.308c1.257,0,2.326,0.441,3.206,1.321s1.321,1.949,1.321,3.206v15.468
		c0.66,0.409,1.226,0.849,1.697,1.32l19.24,19.24c0.88,0.881,1.635,2.075,2.264,3.584
		C584.278,1197.401,584.593,1198.785,584.593,1200.042z M548.375,1162.315v-3.018c0-0.408-0.149-0.762-0.447-1.062
		c-0.3-0.298-0.653-0.448-1.062-0.448h-33.199c-0.408,0-0.763,0.15-1.061,0.448c-0.299,0.3-0.448,0.653-0.448,1.062v3.018
		c0,0.409,0.149,0.763,0.448,1.062c0.298,0.299,0.652,0.447,1.061,0.447h33.199c0.408,0,0.762-0.148,1.062-0.447
		C548.225,1163.078,548.375,1162.724,548.375,1162.315z M536.302,1230.222h42.254v-30.181h-19.618c-1.258,0-2.327-0.44-3.206-1.32
		c-0.881-0.88-1.321-1.949-1.321-3.207v-19.617h-18.108V1230.222z M560.448,1194.006h14.1l-14.1-14.101V1194.006z"/>
	<path opacity="0.4" clip-path="url(#SVGID_2_)" fill="#FFFFFF" d="M341.58,781.183c0,2.155-0.764,3.978-2.29,5.468l-3.959,3.933
		c-1.491,1.49-3.313,2.235-5.468,2.235c-2.173,0-4.004-0.763-5.495-2.289l-5.549-5.576c-1.491-1.49-2.236-3.312-2.236-5.468
		c0-2.209,0.791-4.084,2.371-5.629l-2.371-2.371c-1.544,1.581-3.412,2.371-5.603,2.371c-2.155,0-3.986-0.754-5.495-2.263
		l-5.603-5.603c-1.508-1.509-2.262-3.34-2.262-5.495c0-2.154,0.763-3.977,2.289-5.468l3.96-3.933c1.49-1.49,3.312-2.235,5.468-2.235
		c2.172,0,4.004,0.764,5.495,2.29l5.548,5.575c1.491,1.49,2.236,3.312,2.236,5.468c0,2.209-0.791,4.085-2.37,5.63l2.37,2.37
		c1.544-1.58,3.411-2.37,5.603-2.37c2.155,0,3.986,0.754,5.495,2.262l5.603,5.603C340.826,777.197,341.58,779.028,341.58,781.183z
		 M317.473,762.194c0-0.718-0.251-1.329-0.754-1.831l-5.549-5.576c-0.502-0.502-1.113-0.754-1.831-0.754
		c-0.701,0-1.312,0.242-1.832,0.727l-3.96,3.933c-0.502,0.503-0.754,1.104-0.754,1.805c0,0.719,0.251,1.329,0.754,1.832l5.603,5.603
		c0.485,0.484,1.095,0.728,1.831,0.728c0.754,0,1.401-0.278,1.939-0.835c-0.054-0.055-0.225-0.22-0.511-0.499
		c-0.288-0.277-0.481-0.472-0.58-0.579s-0.233-0.278-0.404-0.512c-0.171-0.232-0.288-0.462-0.351-0.687s-0.094-0.472-0.094-0.741
		c0-0.718,0.252-1.328,0.754-1.831s1.113-0.754,1.832-0.754c0.27,0,0.516,0.031,0.741,0.094c0.225,0.063,0.454,0.18,0.687,0.35
		c0.233,0.172,0.405,0.306,0.512,0.404c0.108,0.1,0.301,0.292,0.579,0.579c0.278,0.288,0.444,0.458,0.498,0.512
		C317.177,763.604,317.473,762.948,317.473,762.194z M336.408,781.183c0-0.718-0.251-1.329-0.754-1.831l-5.603-5.604
		c-0.503-0.502-1.113-0.754-1.832-0.754c-0.754,0-1.401,0.288-1.939,0.862c0.053,0.054,0.224,0.22,0.511,0.498
		c0.288,0.278,0.48,0.472,0.579,0.579s0.233,0.279,0.404,0.512c0.17,0.233,0.287,0.463,0.35,0.687
		c0.063,0.226,0.095,0.472,0.095,0.741c0,0.719-0.252,1.329-0.754,1.832c-0.502,0.502-1.113,0.754-1.831,0.754
		c-0.27,0-0.517-0.031-0.741-0.095c-0.225-0.062-0.454-0.18-0.688-0.35c-0.233-0.171-0.404-0.306-0.511-0.404
		c-0.108-0.099-0.301-0.292-0.579-0.579c-0.279-0.287-0.444-0.458-0.499-0.512c-0.592,0.557-0.889,1.212-0.889,1.966
		c0,0.719,0.251,1.329,0.754,1.832l5.548,5.575c0.485,0.485,1.096,0.728,1.832,0.728c0.718,0,1.329-0.233,1.832-0.7l3.959-3.933
		C336.157,782.485,336.408,781.884,336.408,781.183z"/>
	<path opacity="0.4" clip-path="url(#SVGID_2_)" fill="#FFFFFF" d="M137.112,21.174l-29.182,29.18
		c-1.055,1.056-2.338,1.583-3.851,1.583c-1.483,0-2.781-0.528-3.893-1.583l-4.536-4.621c-1.085-1.027-1.626-2.311-1.626-3.851
		c0-1.512,0.541-2.81,1.626-3.894L124.788,8.85c1.113,2.796,2.746,5.27,4.899,7.424S134.315,20.06,137.112,21.174z M108.743,41.07
		c0.542-0.542,0.812-1.184,0.812-1.926c0-0.741-0.271-1.383-0.812-1.925c-0.542-0.541-1.185-0.812-1.925-0.812
		c-0.743,0-1.384,0.271-1.926,0.812c-0.542,0.542-0.813,1.185-0.813,1.925c0,0.742,0.271,1.384,0.813,1.926
		c0.542,0.542,1.183,0.813,1.926,0.813C107.559,41.883,108.201,41.611,108.743,41.07z M164.238,2.561
		c0,1.113-0.327,2.624-0.984,4.535c-1.341,3.823-3.687,6.925-7.039,9.307c-3.352,2.381-7.039,3.573-11.061,3.573
		c-5.277,0-9.792-1.876-13.542-5.626c-3.75-3.751-5.627-8.266-5.627-13.542s1.876-9.792,5.627-13.542
		c3.751-3.751,8.266-5.627,13.542-5.627c1.654,0,3.387,0.236,5.199,0.706c1.811,0.471,3.344,1.135,4.6,1.991
		c0.457,0.313,0.685,0.712,0.685,1.198c0,0.486-0.229,0.884-0.685,1.198L142.417-6.04v9.584l8.258,4.579
		c0.142-0.086,1.269-0.777,3.38-2.075c2.11-1.298,4.044-2.454,5.798-3.467c1.754-1.012,2.76-1.519,3.017-1.519
		c0.428,0,0.763,0.143,1.006,0.428C164.117,1.777,164.238,2.133,164.238,2.561z"/>
	<path opacity="0.4" clip-path="url(#SVGID_2_)" fill="#FFFFFF" d="M1314.602,646.568c-0.194,0.833-0.651,1.475-1.37,1.922
		l-27.916,17.356l-5.244,3.261c-0.72,0.447-1.497,0.574-2.33,0.38c-0.834-0.194-1.475-0.652-1.922-1.371l-3.26-5.244l-8.68-13.958
		c-0.447-0.719-0.574-1.496-0.379-2.33c0.193-0.833,0.65-1.474,1.371-1.922l5.243-3.261c0.72-0.447,1.496-0.573,2.331-0.38
		c0.833,0.195,1.474,0.652,1.922,1.372l7.041,11.366l25.301-15.758c0.719-0.447,1.496-0.574,2.33-0.379
		c0.834,0.193,1.475,0.651,1.922,1.37l3.261,5.244C1314.669,644.957,1314.796,645.734,1314.602,646.568z"/>
	<path opacity="0.4" clip-path="url(#SVGID_2_)" fill="#FFFFFF" d="M1347.326,597.039c-2.305-1.092-4.62-1.146-6.945-0.163
		l-2.813-1.441c-1.149-0.589-1.97-1.367-2.464-2.336c-0.493-0.97-0.461-2,0.099-3.092c2.533-4.944,4.668-6.971,6.404-6.081
		c0.084,0.043,0.313,0.346,0.688,0.909c0.375,0.563,0.904,1.211,1.591,1.942c0.686,0.731,1.442,1.308,2.269,1.731
		c0.938,0.48,1.952,0.797,3.041,0.948c-0.336,0.482-0.607,0.926-0.815,1.333C1347.382,592.736,1347.031,594.819,1347.326,597.039z
		 M1355.573,579.491c0.512,1.589,0.388,3.125-0.373,4.609s-1.935,2.482-3.522,2.996c-1.589,0.512-3.126,0.387-4.609-0.373
		c-1.485-0.761-2.483-1.935-2.996-3.523c-0.512-1.589-0.388-3.125,0.373-4.609s1.935-2.482,3.522-2.995
		c1.589-0.512,3.125-0.388,4.609,0.373C1354.062,576.728,1355.061,577.903,1355.573,579.491z M1362.969,621.945
		c-0.86,1.681-2.052,2.744-3.572,3.195c-1.521,0.449-3.129,0.239-4.824-0.629l-18.359-9.404c-1.693-0.868-2.804-2.052-3.327-3.549
		c-0.523-1.496-0.355-3.085,0.506-4.766c0.381-0.742,0.775-1.454,1.188-2.136c0.411-0.683,0.9-1.396,1.467-2.139
		c0.566-0.745,1.141-1.409,1.725-1.995c0.582-0.585,1.233-1.113,1.952-1.585c0.719-0.471,1.443-0.816,2.174-1.034
		c0.731-0.219,1.521-0.286,2.372-0.204s1.703,0.342,2.557,0.78c0.142,0.072,0.365,0.376,0.673,0.914
		c0.309,0.538,0.647,1.137,1.017,1.793c0.369,0.659,0.947,1.379,1.731,2.16c0.783,0.782,1.652,1.417,2.604,1.904
		c0.953,0.488,1.975,0.822,3.067,1.001c1.093,0.18,2.014,0.229,2.765,0.144c0.749-0.084,1.433-0.158,2.05-0.223
		c0.616-0.064,0.994-0.061,1.135,0.012c0.854,0.438,1.562,0.978,2.126,1.619c0.564,0.643,0.971,1.323,1.221,2.044
		c0.249,0.721,0.394,1.511,0.431,2.369s-0.012,1.696-0.146,2.511c-0.135,0.815-0.338,1.67-0.611,2.564
		c-0.272,0.895-0.566,1.707-0.879,2.44C1363.696,620.466,1363.35,621.202,1362.969,621.945z M1366.414,592.829
		c0.769,2.383,0.583,4.688-0.558,6.914c-1.141,2.226-2.902,3.724-5.285,4.491c-2.383,0.77-4.687,0.584-6.914-0.557
		c-2.227-1.141-3.724-2.903-4.492-5.286c-0.768-2.382-0.582-4.688,0.559-6.913c1.141-2.227,2.902-3.724,5.285-4.493
		c2.383-0.769,4.687-0.582,6.914,0.559C1364.15,588.684,1365.647,590.446,1366.414,592.829z M1379.773,591.887
		c0.512,1.589,0.388,3.126-0.372,4.61c-0.761,1.484-1.936,2.482-3.524,2.995c-1.588,0.512-3.125,0.388-4.609-0.373
		s-2.482-1.935-2.994-3.522c-0.513-1.589-0.389-3.125,0.372-4.609c0.761-1.485,1.935-2.483,3.523-2.996
		c1.588-0.512,3.124-0.388,4.608,0.373S1379.259,590.3,1379.773,591.887z M1375.534,610.668c-0.559,1.093-1.376,1.721-2.451,1.887
		c-1.074,0.165-2.187-0.046-3.335-0.635l-2.814-1.441c-0.56-2.462-1.956-4.309-4.189-5.541c1.974-1.057,3.46-2.559,4.457-4.506
		c0.208-0.406,0.409-0.886,0.604-1.439c0.76,0.795,1.608,1.433,2.547,1.913c0.826,0.424,1.735,0.7,2.73,0.829
		c0.995,0.13,1.83,0.182,2.505,0.156c0.677-0.024,1.058-0.016,1.141,0.027C1378.466,602.807,1378.068,605.724,1375.534,610.668z"/>
</g>
</svg>
