<?xml version="1.0" encoding="UTF-8"?>
<!DOCTYPE svg  PUBLIC '-//W3C//DTD SVG 1.1//EN'  'http://www.w3.org/Graphics/SVG/1.1/DTD/svg11.dtd'>
<svg enable-background="new 0 0 1440 811" version="1.1" viewBox="0 0 1440 811" xml:space="preserve" xmlns="http://www.w3.org/2000/svg" xmlns:xlink="http://www.w3.org/1999/xlink">
<title>BG_icon1</title>
<desc>Created with Sketch.</desc>
	<defs>
		<rect id="b" width="1438" height="811"/>
	</defs>
	<clipPath id="a">
		<use overflow="visible" xlink:href="#b"/>
	</clipPath>
	<rect x=".5" width="1438" height="811" clip-path="url(#a)" fill="#26A9E0"/>
	<g clip-path="url(#a)" fill="#fff">
		<path d="m1135.1 14.453c1.425 1.281 1.993 2.562 1.705 3.849-0.289 1.285-1.361 2.19-3.219 2.719l-30.288 8.609c-1.858 0.528-3.248 0.321-4.171-0.62-0.92-0.941-1.112-2.331-0.573-4.171l7.3-24.606-2.982-10.49-1.684 0.478c-0.456 0.13-0.897 0.075-1.324-0.164-0.427-0.238-0.706-0.585-0.835-1.04-0.13-0.457-0.076-0.898 0.162-1.325 0.238-0.428 0.585-0.706 1.04-0.836l13.463-3.827c0.454-0.13 0.897-0.074 1.325 0.165 0.427 0.237 0.706 0.584 0.836 1.041 0.129 0.454 0.075 0.897-0.164 1.324-0.237 0.428-0.585 0.707-1.04 0.836l-1.684 0.479 2.981 10.491 19.152 17.088zm-25.9-13.24l-3.944 13.311 18.72-5.319-10.358-9.248-0.757-0.665-0.276-0.973-2.98-10.491-3.366 0.958 2.979 10.49 0.277 0.973-0.295 0.964z" opacity=".4"/>
		<path d="m1259.1-4.438c0.97 1.105 1.474 2.293 1.513 3.562 0.039 1.271-0.48 2.38-1.559 3.325-0.561 0.491-1.194 0.837-1.901 1.033-0.708 0.198-1.339 0.293-1.891 0.282s-1.167 0.069-1.839 0.235c-0.675 0.169-1.264 0.475-1.771 0.918-1.502 1.317-1.51 2.822-0.025 4.515 0.468 0.533 1.266 1.223 2.395 2.067 1.128 0.846 1.919 1.542 2.372 2.086l0.09 0.103c-0.301 0.263-0.521 0.469-0.658 0.614-0.428 0.447-1.025 1.109-1.789 1.984-0.766 0.878-1.475 1.66-2.123 2.352-0.651 0.692-1.289 1.312-1.917 1.863-0.834 0.731-1.695 1.167-2.586 1.308-0.892 0.142-1.677-0.178-2.36-0.956-0.441-0.505-0.747-1.095-0.914-1.769-0.17-0.673-0.249-1.286-0.239-1.839 0.012-0.553-0.082-1.184-0.281-1.891-0.197-0.707-0.542-1.342-1.032-1.902-0.947-1.078-2.055-1.598-3.323-1.559-1.272 0.039-2.46 0.542-3.566 1.513-1.146 1.005-1.849 2.173-2.11 3.501-0.26 1.328 0.101 2.552 1.082 3.671 0.515 0.587 1.113 1.063 1.799 1.431 0.682 0.365 1.298 0.606 1.844 0.719 0.545 0.113 1.092 0.273 1.638 0.482 0.547 0.211 0.95 0.465 1.214 0.765 0.539 0.615 0.758 1.498 0.656 2.649-0.088 0.922-0.675 1.86-1.768 2.819-1.298 1.137-3.111 2.438-5.449 3.908-0.146 0.08-0.356 0.218-0.634 0.411-0.276 0.195-0.489 0.331-0.636 0.414l-0.301 0.191c-0.014 0.012-0.042 0.022-0.08 0.033-0.027 0.023-0.047 0.028-0.058 0.016l-18.393-20.971c0.04-9e-3 0.181-0.092 0.421-0.243 0.243-0.151 0.505-0.319 0.787-0.509 0.282-0.187 0.45-0.29 0.501-0.312 2.337-1.471 4.151-2.771 5.45-3.91 1.092-0.958 1.682-1.896 1.767-2.818 0.102-1.15-0.117-2.033-0.656-2.648-0.264-0.3-0.668-0.556-1.214-0.765-0.547-0.211-1.093-0.371-1.639-0.485-0.545-0.112-1.16-0.351-1.845-0.719-0.683-0.366-1.282-0.843-1.797-1.429-0.981-1.12-1.342-2.344-1.083-3.673 0.263-1.326 0.972-2.499 2.133-3.517 1.093-0.957 2.272-1.457 3.542-1.496 1.271-0.039 2.379 0.481 3.325 1.56 0.491 0.56 0.834 1.194 1.033 1.902 0.198 0.707 0.293 1.338 0.281 1.891-0.011 0.552 0.068 1.165 0.237 1.839 0.168 0.673 0.475 1.264 0.917 1.768 0.682 0.778 1.468 1.099 2.358 0.957 0.892-0.142 1.753-0.577 2.585-1.309 0.875-0.766 2.015-1.945 3.418-3.539 1.404-1.594 2.416-2.688 3.033-3.274l0.035 0.04c0.011 0.038 0.091 0.18 0.244 0.42 0.15 0.242 0.32 0.505 0.508 0.787 0.187 0.282 0.291 0.45 0.314 0.502 1.468 2.337 2.771 4.151 3.909 5.448 0.957 1.093 1.897 1.683 2.817 1.768 1.151 0.101 2.034-0.117 2.648-0.656 0.301-0.264 0.554-0.667 0.765-1.213 0.21-0.548 0.371-1.094 0.484-1.64 0.111-0.545 0.353-1.16 0.719-1.845 0.366-0.683 0.843-1.281 1.431-1.797 1.118-0.981 2.344-1.342 3.671-1.083 1.328 0.264 2.494 0.968 3.501 2.115z" opacity=".4"/>
		<path d="m1434.9 785.59l-1.48 3.328c-0.053 0.12-0.146 0.219-0.281 0.296-0.135 0.076-0.259 0.097-0.373 0.061l-2.98-0.809c-0.318 0.361-0.713 0.732-1.184 1.112 0.152 0.757 0.385 1.687 0.699 2.79 0.031 0.157 0.02 0.296-0.033 0.415-0.064 0.145-0.158 0.239-0.279 0.287-0.436 0.236-1.169 0.554-2.199 0.95-1.032 0.396-1.662 0.544-1.89 0.442-0.132-0.059-0.239-0.156-0.321-0.294l-1.35-2.539c-0.546 0.03-1.09 0.011-1.634-0.06-0.708 1.237-1.259 2.106-1.653 2.607-0.213 0.25-0.457 0.313-0.732 0.191l-3.348-1.488c-0.133-0.06-0.231-0.157-0.3-0.295-0.067-0.139-0.081-0.27-0.04-0.396l0.81-2.937c-0.354-0.302-0.722-0.688-1.101-1.158l-2.836 0.658c-0.121 0.046-0.26 0.035-0.416-0.034-0.133-0.059-0.237-0.163-0.314-0.312-1.018-2.363-1.455-3.708-1.312-4.031 0.048-0.108 0.142-0.203 0.278-0.286 0.195-0.114 0.582-0.323 1.162-0.625 0.58-0.304 1.023-0.544 1.334-0.722-0.042-0.651-0.033-1.236 0.025-1.757l-2.543-1.647c-0.115-0.065-0.191-0.168-0.23-0.307-0.038-0.14-0.028-0.275 0.031-0.407l1.479-3.329c0.054-0.12 0.148-0.218 0.282-0.295 0.134-0.076 0.259-0.097 0.372-0.061l2.982 0.808c0.318-0.361 0.712-0.731 1.183-1.111-0.151-0.758-0.385-1.688-0.699-2.79-0.024-0.17-0.014-0.309 0.034-0.416 0.064-0.145 0.159-0.245 0.285-0.304 0.424-0.243 1.154-0.558 2.188-0.945 1.034-0.389 1.665-0.531 1.894-0.431 0.132 0.06 0.239 0.157 0.322 0.295l1.35 2.538c0.503-0.034 1.051-0.021 1.641 0.041 0.709-1.237 1.257-2.1 1.646-2.587 0.212-0.251 0.455-0.315 0.732-0.192l3.347 1.487c0.132 0.059 0.231 0.158 0.3 0.296s0.081 0.27 0.04 0.395l-0.81 2.938c0.354 0.302 0.721 0.688 1.102 1.157l2.835-0.657c0.134-0.041 0.272-0.029 0.416 0.034 0.132 0.059 0.237 0.162 0.313 0.312 1.02 2.364 1.456 3.707 1.312 4.032-0.048 0.107-0.141 0.202-0.277 0.285-0.23 0.129-0.626 0.34-1.188 0.637-0.562 0.296-0.993 0.535-1.29 0.719 0.02 0.699 4e-3 1.282-0.045 1.748l2.553 1.63c0.108 0.077 0.183 0.186 0.221 0.325 0.039 0.139 0.029 0.276-0.03 0.408zm-10.435 1.221c1.299-0.499 2.231-1.385 2.797-2.656s0.598-2.558 0.099-3.857c-0.5-1.3-1.386-2.232-2.657-2.798s-2.559-0.598-3.857-0.099c-1.3 0.501-2.232 1.387-2.798 2.658-0.565 1.271-0.599 2.558-0.099 3.856 0.5 1.301 1.387 2.232 2.658 2.798s2.556 0.599 3.857 0.098zm25.881-4.938l-1.119 2.52c-0.086 0.192-1.062-0.02-2.93-0.634-0.289 0.259-0.607 0.492-0.957 0.695 0.01 1.628-0.053 2.592-0.186 2.892-0.021 0.048-0.064 0.079-0.128 0.094-1.843 0.201-2.775 0.297-2.8 0.286-0.096-0.044-0.246-0.447-0.451-1.214s-0.336-1.313-0.393-1.64c-0.25-0.083-0.436-0.151-0.555-0.204-0.121-0.053-0.295-0.146-0.524-0.275-0.28 0.176-0.773 0.446-1.479 0.807-0.707 0.361-1.108 0.521-1.204 0.479-0.024-0.011-0.579-0.768-1.663-2.27-0.033-0.058-0.038-0.11-0.018-0.158 0.135-0.301 0.809-0.992 2.022-2.075-0.083-0.396-0.124-0.788-0.124-1.176-1.707-0.976-2.519-1.559-2.434-1.751l1.12-2.52c0.085-0.191 1.062 0.02 2.93 0.635 0.31-0.278 0.629-0.51 0.956-0.695-0.01-1.628 0.053-2.592 0.186-2.892 0.021-0.048 0.064-0.08 0.129-0.095 0.058-2e-3 0.321-0.029 0.789-0.079 0.469-0.051 0.912-0.098 1.334-0.141 0.422-0.042 0.644-0.058 0.668-0.048 0.096 0.043 0.248 0.444 0.456 1.205s0.339 1.304 0.396 1.631c0.25 0.082 0.436 0.15 0.557 0.204 0.119 0.054 0.294 0.146 0.523 0.275 0.99-0.579 1.841-1.006 2.552-1.279l0.124 0.013c0.047 0.021 0.604 0.771 1.672 2.252 0.031 0.057 0.036 0.109 0.016 0.157-0.134 0.3-0.809 0.992-2.022 2.075 0.081 0.367 0.122 0.759 0.124 1.176 1.707 0.974 2.519 1.557 2.433 1.75zm-8.192 18.428l-1.119 2.52c-0.086 0.192-1.062-0.02-2.93-0.635-0.289 0.261-0.607 0.492-0.957 0.697 0.01 1.627-0.053 2.591-0.186 2.891-0.021 0.049-0.064 0.079-0.128 0.095-1.843 0.201-2.775 0.296-2.8 0.285-0.096-0.043-0.246-0.447-0.451-1.214s-0.336-1.313-0.393-1.64c-0.25-0.083-0.436-0.15-0.556-0.203-0.12-0.054-0.294-0.146-0.524-0.276-0.279 0.177-0.772 0.445-1.479 0.808-0.706 0.36-1.108 0.52-1.203 0.478-0.024-0.011-0.579-0.768-1.664-2.27-0.032-0.058-0.038-0.11-0.017-0.158 0.134-0.3 0.809-0.992 2.022-2.075-0.083-0.396-0.124-0.788-0.124-1.176-1.708-0.976-2.52-1.558-2.434-1.75l1.12-2.52c0.085-0.191 1.062 0.02 2.929 0.634 0.311-0.277 0.63-0.511 0.957-0.695-0.01-1.628 0.053-2.592 0.186-2.892 0.021-0.048 0.064-0.08 0.129-0.095 0.058-2e-3 0.321-0.028 0.789-0.079 0.468-0.05 0.912-0.097 1.334-0.14 0.421-0.043 0.644-0.06 0.668-0.049 0.096 0.043 0.247 0.444 0.455 1.205 0.209 0.761 0.34 1.304 0.396 1.631 0.25 0.083 0.436 0.15 0.557 0.204 0.119 0.053 0.293 0.146 0.523 0.276 0.99-0.58 1.84-1.007 2.551-1.28l0.124 0.012c0.048 0.021 0.605 0.772 1.672 2.252 0.032 0.058 0.037 0.11 0.017 0.158-0.135 0.301-0.809 0.991-2.022 2.075 0.081 0.367 0.122 0.759 0.124 1.177 1.708 0.973 2.519 1.557 2.434 1.749zm3.025-19.217c0.277-0.623 0.289-1.264 0.036-1.923-0.254-0.659-0.691-1.127-1.315-1.404s-1.265-0.289-1.924-0.036c-0.659 0.254-1.127 0.692-1.403 1.315-0.283 0.638-0.3 1.28-0.05 1.93s0.692 1.116 1.329 1.398c0.636 0.282 1.279 0.299 1.928 0.049 0.65-0.25 1.116-0.692 1.399-1.329zm-8.193 18.429c0.277-0.623 0.29-1.265 0.037-1.924-0.254-0.658-0.691-1.126-1.315-1.403-0.624-0.278-1.266-0.289-1.925-0.036-0.658 0.254-1.126 0.692-1.402 1.315-0.283 0.637-0.3 1.279-0.05 1.929s0.692 1.116 1.329 1.398c0.635 0.283 1.278 0.3 1.928 0.049 0.65-0.249 1.116-0.693 1.398-1.328z" opacity=".4"/>
		<path d="m42.109 697.77l-2.242-2.521c-0.081-0.09-0.128-0.207-0.142-0.351-0.012-0.142 0.018-0.255 0.092-0.337l1.821-2.205c-0.183-0.406-0.346-0.882-0.485-1.424-0.697-0.16-1.57-0.32-2.621-0.477-0.145-0.033-0.257-0.096-0.338-0.187-0.097-0.11-0.141-0.225-0.135-0.345-0.033-0.459-0.02-1.198 0.039-2.219 0.06-1.022 0.176-1.61 0.349-1.764 0.1-0.088 0.223-0.142 0.37-0.158l2.658-0.168c0.183-0.473 0.408-0.924 0.675-1.355-0.773-1.07-1.296-1.867-1.568-2.391-0.129-0.275-0.09-0.506 0.118-0.691l2.535-2.256c0.102-0.089 0.221-0.135 0.363-0.14 0.144-4e-3 0.258 0.034 0.349 0.117l2.168 1.806c0.39-0.185 0.855-0.347 1.397-0.486l0.528-2.644c8e-3 -0.12 0.07-0.233 0.188-0.338 0.1-0.09 0.229-0.138 0.384-0.146 2.382 0.044 3.684 0.188 3.901 0.434 0.073 0.082 0.117 0.197 0.135 0.344 0.021 0.209 0.05 0.615 0.083 1.22 0.035 0.604 0.068 1.071 0.1 1.4 0.565 0.214 1.055 0.444 1.472 0.693l2.362-1.516c0.099-0.073 0.214-0.098 0.346-0.078 0.132 0.022 0.243 0.082 0.332 0.183l2.244 2.52c0.081 0.091 0.127 0.208 0.141 0.351 0.013 0.143-0.017 0.256-0.091 0.337l-1.821 2.207c0.184 0.407 0.345 0.881 0.486 1.422 0.697 0.162 1.57 0.321 2.621 0.478 0.152 0.044 0.265 0.105 0.338 0.187 0.097 0.11 0.146 0.229 0.147 0.357 0.043 0.45 0.029 1.186-0.04 2.207-0.067 1.021-0.188 1.607-0.36 1.762-0.101 0.089-0.224 0.142-0.372 0.16l-2.657 0.168c-0.163 0.438-0.384 0.895-0.661 1.369 0.772 1.069 1.291 1.861 1.553 2.377 0.13 0.274 0.092 0.504-0.118 0.691l-2.534 2.254c-0.1 0.09-0.222 0.135-0.364 0.141-0.142 5e-3 -0.258-0.035-0.348-0.117l-2.168-1.805c-0.39 0.183-0.855 0.344-1.397 0.486l-0.529 2.643c-0.017 0.129-0.08 0.241-0.188 0.338-0.1 0.089-0.227 0.139-0.383 0.146-2.383-0.044-3.683-0.188-3.902-0.435-0.072-0.081-0.117-0.195-0.135-0.342-0.021-0.244-0.047-0.658-0.083-1.246-0.035-0.588-0.072-1.042-0.113-1.363-0.598-0.25-1.083-0.486-1.458-0.706l-2.35 1.53c-0.107 0.062-0.227 0.084-0.358 0.062-0.134-0.018-0.245-0.078-0.334-0.179zm2.956-9.269c-0.075 1.286 0.316 2.411 1.172 3.374 0.857 0.964 1.93 1.482 3.216 1.558 1.288 0.075 2.413-0.315 3.376-1.173 0.962-0.855 1.481-1.93 1.557-3.216 0.074-1.288-0.317-2.413-1.173-3.376-0.855-0.962-1.929-1.482-3.216-1.557-1.288-0.075-2.413 0.316-3.375 1.174-0.963 0.855-1.482 1.928-1.557 3.216zm-5.723 23.719l-1.698-1.907c-0.129-0.146 0.422-0.889 1.654-2.229-0.108-0.343-0.184-0.699-0.221-1.072-1.377-0.614-2.167-1.035-2.369-1.262-0.032-0.037-0.042-0.085-0.03-0.145 0.535-1.631 0.811-2.454 0.829-2.471 0.074-0.063 0.471-0.036 1.196 0.084 0.726 0.12 1.236 0.218 1.533 0.295 0.166-0.179 0.294-0.31 0.384-0.39 0.091-0.082 0.236-0.193 0.433-0.338-0.041-0.304-0.081-0.822-0.115-1.556s-0.016-1.134 0.057-1.199c0.019-0.017 0.869-0.194 2.55-0.535 0.061-6e-3 0.107 0.01 0.14 0.045 0.202 0.229 0.528 1.062 0.978 2.499 0.366 0.082 0.712 0.197 1.039 0.345 1.476-1.066 2.278-1.528 2.407-1.383l1.697 1.907c0.129 0.146-0.422 0.888-1.655 2.229 0.117 0.368 0.19 0.726 0.221 1.073 1.377 0.613 2.166 1.034 2.368 1.261 0.032 0.036 0.043 0.085 0.031 0.146-0.021 0.049-0.098 0.281-0.235 0.695-0.136 0.415-0.266 0.807-0.391 1.18-0.126 0.371-0.197 0.564-0.215 0.581-0.073 0.064-0.47 0.039-1.191-0.075-0.722-0.116-1.229-0.213-1.527-0.29-0.165 0.179-0.293 0.31-0.385 0.392-0.091 0.08-0.235 0.192-0.432 0.337 0.109 1.056 0.145 1.937 0.104 2.641l-0.058 0.101c-0.035 0.031-0.881 0.214-2.538 0.549-0.06 5e-3 -0.106-0.011-0.139-0.047-0.202-0.228-0.528-1.061-0.978-2.499-0.34-0.071-0.687-0.187-1.039-0.345-1.473 1.068-2.275 1.53-2.405 1.383zm-12.415-13.951l-1.698-1.907c-0.129-0.146 0.423-0.889 1.656-2.229-0.11-0.344-0.184-0.701-0.223-1.074-1.376-0.613-2.166-1.034-2.368-1.261-0.033-0.037-0.042-0.085-0.031-0.145 0.535-1.632 0.811-2.454 0.829-2.471 0.073-0.064 0.471-0.036 1.196 0.083 0.726 0.12 1.237 0.219 1.533 0.296 0.166-0.18 0.293-0.31 0.384-0.392 0.091-0.081 0.236-0.191 0.434-0.337-0.042-0.304-0.081-0.821-0.116-1.557-0.034-0.733-0.014-1.134 0.057-1.197 0.019-0.017 0.869-0.195 2.55-0.536 0.061-5e-3 0.107 0.01 0.14 0.047 0.202 0.227 0.527 1.06 0.978 2.499 0.366 0.081 0.712 0.196 1.039 0.344 1.476-1.068 2.277-1.53 2.406-1.384l1.697 1.907c0.129 0.145-0.422 0.889-1.653 2.229 0.115 0.367 0.19 0.727 0.221 1.073 1.376 0.614 2.166 1.035 2.368 1.262 0.032 0.036 0.043 0.085 0.03 0.145-0.02 0.05-0.098 0.282-0.234 0.696s-0.267 0.807-0.392 1.179c-0.125 0.371-0.195 0.565-0.214 0.581-0.073 0.065-0.469 0.039-1.19-0.076-0.722-0.114-1.23-0.211-1.528-0.289-0.166 0.18-0.293 0.311-0.385 0.393-0.09 0.08-0.234 0.191-0.433 0.336 0.111 1.057 0.146 1.937 0.105 2.641l-0.057 0.101c-0.036 0.031-0.883 0.215-2.539 0.55-0.061 5e-3 -0.107-0.012-0.14-0.047-0.202-0.229-0.527-1.061-0.978-2.499-0.34-0.072-0.687-0.188-1.041-0.345-1.471 1.067-2.274 1.529-2.403 1.384zm15.055 9.895c0.419 0.471 0.956 0.726 1.608 0.765 0.653 0.038 1.215-0.153 1.687-0.573 0.473-0.421 0.728-0.956 0.766-1.609 0.037-0.652-0.154-1.215-0.574-1.687-0.43-0.482-0.965-0.742-1.609-0.779-0.643-0.037-1.206 0.157-1.687 0.587-0.481 0.429-0.741 0.965-0.778 1.607-0.037 0.644 0.158 1.207 0.587 1.689zm-12.415-13.954c0.419 0.473 0.957 0.729 1.609 0.767 0.652 0.037 1.214-0.152 1.686-0.573 0.474-0.42 0.728-0.956 0.767-1.609 0.037-0.652-0.154-1.215-0.574-1.686-0.43-0.481-0.965-0.742-1.608-0.779-0.644-0.037-1.207 0.157-1.688 0.587-0.482 0.428-0.742 0.964-0.778 1.607-0.038 0.643 0.157 1.205 0.586 1.686z" opacity=".4"/>
		<path d="m1445.4 44.926l-3.67-4.126c-0.133-0.147-0.211-0.339-0.232-0.573-0.021-0.232 0.028-0.418 0.15-0.552l2.979-3.609c-0.299-0.665-0.565-1.443-0.794-2.331-1.141-0.262-2.57-0.523-4.29-0.779-0.237-0.055-0.421-0.156-0.554-0.305-0.158-0.182-0.229-0.368-0.221-0.564-0.054-0.752-0.033-1.961 0.063-3.632 0.099-1.673 0.288-2.636 0.571-2.887 0.164-0.144 0.365-0.231 0.605-0.259l4.351-0.275c0.3-0.773 0.667-1.512 1.104-2.219-1.266-1.751-2.121-3.056-2.566-3.912-0.211-0.451-0.147-0.828 0.193-1.132l4.148-3.692c0.166-0.145 0.362-0.221 0.596-0.229 0.234-6e-3 0.422 0.057 0.57 0.191l3.549 2.956c0.639-0.302 1.4-0.567 2.287-0.796l0.865-4.326c0.012-0.197 0.115-0.383 0.307-0.554 0.164-0.147 0.375-0.226 0.629-0.238 3.898 0.071 6.029 0.309 6.387 0.71 0.119 0.135 0.191 0.322 0.221 0.562 0.034 0.342 0.082 1.007 0.135 1.996 0.059 0.99 0.112 1.754 0.164 2.292 0.924 0.351 1.727 0.728 2.408 1.136l3.866-2.481c0.161-0.12 0.351-0.159 0.567-0.128 0.216 0.037 0.396 0.135 0.542 0.299l3.673 4.124c0.132 0.148 0.207 0.341 0.229 0.573 0.021 0.234-0.028 0.42-0.148 0.553l-2.981 3.611c0.301 0.667 0.565 1.441 0.795 2.328 1.141 0.265 2.57 0.525 4.291 0.781 0.249 0.072 0.433 0.172 0.553 0.305 0.158 0.181 0.238 0.375 0.241 0.586 0.07 0.736 0.048 1.939-0.065 3.611-0.109 1.672-0.307 2.631-0.588 2.884-0.165 0.146-0.367 0.231-0.609 0.263l-4.35 0.274c-0.266 0.716-0.629 1.464-1.082 2.241 1.265 1.75 2.113 3.046 2.543 3.891 0.213 0.449 0.15 0.824-0.193 1.131l-4.146 3.689c-0.163 0.146-0.363 0.221-0.596 0.23-0.232 8e-3 -0.424-0.059-0.57-0.192l-3.549-2.954c-0.639 0.299-1.4 0.562-2.287 0.797l-0.865 4.324c-0.027 0.211-0.131 0.395-0.308 0.553-0.163 0.146-0.372 0.228-0.626 0.238-3.901-0.071-6.029-0.309-6.388-0.711-0.118-0.133-0.192-0.319-0.221-0.559-0.034-0.4-0.077-1.078-0.136-2.04-0.057-0.962-0.118-1.706-0.186-2.231-0.979-0.409-1.773-0.796-2.385-1.156l-3.848 2.506c-0.174 0.102-0.371 0.137-0.586 0.102-0.215-0.032-0.398-0.131-0.542-0.295zm4.839-15.172c-0.122 2.104 0.518 3.945 1.919 5.521 1.402 1.578 3.158 2.427 5.264 2.55 2.108 0.123 3.949-0.517 5.525-1.919 1.576-1.4 2.426-3.159 2.549-5.264 0.121-2.108-0.519-3.949-1.92-5.525-1.4-1.574-3.158-2.427-5.264-2.549-2.108-0.123-3.949 0.519-5.525 1.922-1.576 1.4-2.425 3.155-2.548 5.264zm-9.368 38.822l-2.778-3.121c-0.213-0.238 0.691-1.455 2.707-3.649-0.177-0.562-0.301-1.145-0.361-1.755-2.254-1.006-3.546-1.694-3.877-2.065-0.053-0.061-0.068-0.14-0.049-0.236 0.875-2.669 1.326-4.017 1.355-4.044 0.121-0.104 0.771-0.059 1.959 0.137 1.188 0.197 2.021 0.357 2.509 0.483 0.271-0.292 0.481-0.507 0.628-0.638 0.149-0.135 0.387-0.316 0.709-0.553-0.066-0.498-0.133-1.346-0.188-2.547s-0.025-1.855 0.093-1.963c0.03-0.027 1.422-0.318 4.174-0.875 0.1-0.01 0.176 0.016 0.229 0.073 0.331 0.376 0.865 1.737 1.602 4.09 0.598 0.134 1.166 0.323 1.7 0.564 2.415-1.745 3.728-2.501 3.94-2.263l2.777 3.121c0.211 0.238-0.691 1.453-2.709 3.647 0.191 0.603 0.311 1.188 0.361 1.757 2.254 1.004 3.546 1.692 3.877 2.062 0.053 0.06 0.07 0.14 0.051 0.238-0.033 0.08-0.16 0.461-0.385 1.139-0.223 0.68-0.435 1.32-0.64 1.931-0.206 0.607-0.323 0.924-0.353 0.951-0.118 0.105-0.77 0.063-1.949-0.123-1.181-0.19-2.012-0.349-2.498-0.476-0.27 0.293-0.48 0.508-0.63 0.642-0.149 0.131-0.385 0.315-0.708 0.552 0.18 1.728 0.238 3.17 0.17 4.322l-0.096 0.164c-0.057 0.051-1.441 0.35-4.153 0.898-0.099 8e-3 -0.175-0.018-0.228-0.077-0.33-0.372-0.864-1.735-1.601-4.09-0.556-0.116-1.124-0.306-1.7-0.564-2.413 1.752-3.726 2.508-3.938 2.268zm-20.32-22.834l-2.778-3.121c-0.212-0.238 0.691-1.455 2.71-3.648-0.181-0.562-0.301-1.147-0.365-1.758-2.253-1.004-3.544-1.693-3.876-2.063-0.053-0.062-0.067-0.14-0.05-0.237 0.875-2.67 1.327-4.016 1.356-4.043 0.121-0.105 0.771-0.06 1.959 0.136s2.023 0.358 2.51 0.484c0.27-0.294 0.479-0.507 0.627-0.642 0.15-0.133 0.387-0.312 0.71-0.551-0.069-0.498-0.132-1.344-0.19-2.548-0.055-1.2-0.022-1.856 0.094-1.96 0.031-0.027 1.422-0.319 4.174-0.877 0.1-8e-3 0.176 0.016 0.23 0.076 0.33 0.371 0.862 1.734 1.6 4.09 0.6 0.133 1.166 0.322 1.7 0.562 2.415-1.748 3.727-2.504 3.938-2.264l2.777 3.121c0.212 0.236-0.689 1.455-2.705 3.647 0.188 0.601 0.311 1.188 0.361 1.757 2.252 1.005 3.545 1.693 3.877 2.064 0.053 0.06 0.07 0.14 0.049 0.236-0.033 0.082-0.161 0.463-0.385 1.141-0.223 0.678-0.436 1.32-0.641 1.929-0.204 0.607-0.319 0.926-0.351 0.951-0.119 0.106-0.769 0.063-1.948-0.124-1.182-0.188-2.014-0.346-2.5-0.474-0.271 0.294-0.479 0.509-0.63 0.643-0.147 0.131-0.384 0.313-0.708 0.55 0.181 1.729 0.238 3.17 0.171 4.322l-0.093 0.164c-0.06 0.051-1.445 0.352-4.155 0.9-0.101 8e-3 -0.176-0.02-0.229-0.077-0.33-0.374-0.862-1.735-1.601-4.091-0.557-0.117-1.124-0.307-1.703-0.563-2.411 1.748-3.723 2.504-3.935 2.268zm24.642 16.194c0.687 0.771 1.564 1.188 2.633 1.251 1.068 0.062 1.988-0.25 2.761-0.938 0.773-0.689 1.19-1.564 1.254-2.635 0.061-1.067-0.252-1.988-0.938-2.76-0.705-0.789-1.58-1.215-2.635-1.275-1.052-0.061-1.973 0.258-2.762 0.961-0.787 0.701-1.212 1.578-1.272 2.631-0.063 1.055 0.256 1.977 0.959 2.765zm-20.321-22.839c0.686 0.773 1.564 1.192 2.633 1.254 1.066 0.062 1.986-0.248 2.76-0.938 0.775-0.688 1.191-1.564 1.254-2.635 0.061-1.066-0.252-1.988-0.938-2.758-0.704-0.788-1.58-1.215-2.632-1.275-1.053-0.061-1.975 0.257-2.762 0.961-0.789 0.699-1.215 1.576-1.273 2.631-0.063 1.053 0.257 1.973 0.958 2.76z" opacity=".4"/>
		<path d="m540.43 765.01l-0.96 2.159c-0.034 0.077-0.095 0.142-0.183 0.191s-0.168 0.063-0.242 0.04l-1.934-0.525c-0.207 0.234-0.462 0.476-0.768 0.722 0.099 0.491 0.25 1.095 0.454 1.81 0.02 0.103 0.012 0.192-0.022 0.27-0.042 0.094-0.103 0.155-0.181 0.187-0.282 0.153-0.758 0.359-1.427 0.616-0.669 0.258-1.078 0.354-1.226 0.287-0.085-0.038-0.155-0.102-0.208-0.19l-0.875-1.647c-0.354 0.02-0.707 7e-3 -1.06-0.039-0.459 0.803-0.817 1.367-1.073 1.691-0.138 0.163-0.296 0.204-0.475 0.125l-2.171-0.966c-0.086-0.038-0.15-0.102-0.195-0.191-0.043-0.09-0.052-0.175-0.026-0.257l0.525-1.904c-0.23-0.195-0.468-0.446-0.714-0.752l-1.839 0.428c-0.079 0.029-0.168 0.022-0.27-0.022-0.086-0.038-0.154-0.105-0.204-0.202-0.66-1.533-0.944-2.406-0.851-2.615 0.031-0.07 0.092-0.132 0.181-0.186 0.126-0.074 0.377-0.21 0.754-0.406 0.376-0.197 0.664-0.353 0.865-0.468-0.027-0.423-0.021-0.802 0.017-1.14l-1.65-1.068c-0.075-0.043-0.124-0.109-0.149-0.199-0.025-0.091-0.019-0.179 0.02-0.264l0.959-2.16c0.035-0.078 0.096-0.142 0.183-0.191s0.168-0.062 0.241-0.039l1.935 0.523c0.207-0.234 0.462-0.475 0.768-0.721-0.099-0.491-0.25-1.095-0.454-1.81-0.016-0.11-9e-3 -0.2 0.022-0.271 0.042-0.094 0.104-0.158 0.185-0.196 0.275-0.158 0.749-0.362 1.419-0.613 0.671-0.253 1.08-0.345 1.229-0.279 0.085 0.038 0.155 0.102 0.209 0.19l0.875 1.646c0.326-0.021 0.682-0.013 1.064 0.027 0.46-0.803 0.815-1.362 1.068-1.678 0.138-0.163 0.295-0.205 0.475-0.125l2.171 0.965c0.085 0.037 0.15 0.103 0.195 0.191 0.044 0.09 0.052 0.175 0.026 0.256l-0.525 1.906c0.229 0.195 0.468 0.445 0.715 0.75l1.839-0.426c0.087-0.027 0.177-0.02 0.27 0.021 0.085 0.038 0.154 0.105 0.203 0.202 0.662 1.534 0.945 2.405 0.852 2.616-0.031 0.069-0.091 0.131-0.18 0.185-0.15 0.084-0.406 0.221-0.771 0.413s-0.644 0.348-0.836 0.467c0.013 0.453 2e-3 0.831-0.029 1.134l1.656 1.058c0.07 0.05 0.119 0.12 0.144 0.211 0.023 0.089 0.016 0.177-0.021 0.263zm-6.77 0.793c0.842-0.324 1.447-0.898 1.814-1.724 0.367-0.825 0.388-1.659 0.064-2.502-0.325-0.844-0.899-1.448-1.724-1.815s-1.66-0.388-2.502-0.064c-0.843 0.325-1.448 0.9-1.814 1.725-0.367 0.824-0.389 1.659-0.064 2.502 0.325 0.844 0.9 1.448 1.725 1.814 0.823 0.366 1.657 0.388 2.501 0.064zm16.789-3.205l-0.726 1.635c-0.056 0.124-0.689-0.013-1.901-0.411-0.188 0.168-0.394 0.318-0.621 0.451 6e-3 1.056-0.034 1.681-0.12 1.875-0.014 0.031-0.042 0.052-0.083 0.061-1.196 0.131-1.801 0.193-1.816 0.187-0.062-0.028-0.16-0.29-0.293-0.788-0.133-0.497-0.218-0.852-0.254-1.063-0.162-0.054-0.283-0.099-0.36-0.132-0.079-0.035-0.191-0.095-0.34-0.179-0.182 0.114-0.501 0.289-0.959 0.522-0.459 0.234-0.719 0.338-0.781 0.311-0.016-7e-3 -0.375-0.498-1.079-1.472-0.021-0.038-0.024-0.071-0.011-0.103 0.087-0.195 0.525-0.645 1.312-1.347-0.054-0.257-0.081-0.511-0.081-0.763-1.107-0.633-1.634-1.011-1.579-1.136l0.727-1.635c0.055-0.124 0.688 0.013 1.9 0.412 0.201-0.181 0.408-0.331 0.621-0.451-6e-3 -1.056 0.034-1.681 0.12-1.876 0.014-0.031 0.042-0.052 0.083-0.061 0.038-2e-3 0.208-0.02 0.512-0.052 0.304-0.033 0.591-0.063 0.865-0.091s0.417-0.038 0.433-0.031c0.062 0.027 0.161 0.288 0.296 0.781 0.135 0.494 0.22 0.846 0.257 1.059 0.162 0.053 0.282 0.098 0.361 0.132 0.078 0.035 0.191 0.095 0.34 0.179 0.642-0.376 1.194-0.652 1.655-0.83l0.081 9e-3c0.03 0.013 0.392 0.5 1.084 1.46 0.02 0.037 0.023 0.071 0.01 0.103-0.087 0.194-0.525 0.644-1.312 1.347 0.053 0.238 0.08 0.492 0.081 0.762 1.107 0.633 1.633 1.01 1.578 1.135zm-5.314 11.955l-0.726 1.635c-0.056 0.125-0.689-0.013-1.9-0.412-0.188 0.169-0.394 0.319-0.621 0.452 6e-3 1.056-0.034 1.681-0.12 1.875-0.014 0.032-0.042 0.052-0.083 0.062-1.195 0.131-1.8 0.192-1.816 0.186-0.062-0.028-0.16-0.291-0.292-0.788-0.133-0.497-0.218-0.852-0.255-1.063-0.162-0.054-0.282-0.098-0.36-0.132s-0.19-0.095-0.34-0.179c-0.181 0.114-0.501 0.289-0.959 0.523s-0.719 0.337-0.781 0.31c-0.016-7e-3 -0.375-0.497-1.079-1.472-0.021-0.037-0.025-0.072-0.011-0.103 0.087-0.194 0.525-0.644 1.312-1.347-0.054-0.257-0.081-0.511-0.081-0.763-1.108-0.633-1.634-1.011-1.579-1.135l0.727-1.635c0.055-0.124 0.688 0.013 1.9 0.411 0.201-0.18 0.409-0.331 0.621-0.451-6e-3 -1.056 0.034-1.682 0.12-1.876 0.014-0.03 0.042-0.052 0.084-0.062 0.037-1e-3 0.208-0.018 0.512-0.051 0.304-0.032 0.592-0.062 0.865-0.091s0.417-0.038 0.434-0.031c0.062 0.027 0.16 0.288 0.295 0.781 0.136 0.493 0.221 0.846 0.257 1.058 0.162 0.055 0.283 0.098 0.361 0.133 0.077 0.034 0.19 0.095 0.339 0.18 0.643-0.377 1.193-0.653 1.655-0.831l0.081 8e-3c0.031 0.014 0.393 0.501 1.084 1.461 0.021 0.037 0.024 0.071 0.011 0.103-0.087 0.195-0.524 0.643-1.312 1.346 0.053 0.238 0.079 0.492 0.081 0.764 1.104 0.631 1.631 1.01 1.576 1.134zm1.962-12.466c0.18-0.404 0.188-0.819 0.023-1.247s-0.449-0.731-0.854-0.911c-0.405-0.181-0.82-0.188-1.248-0.023-0.427 0.165-0.731 0.449-0.91 0.853-0.184 0.414-0.194 0.831-0.032 1.252 0.162 0.422 0.449 0.725 0.862 0.907 0.412 0.184 0.83 0.194 1.25 0.032 0.423-0.163 0.726-0.45 0.909-0.863zm-5.314 11.954c0.18-0.404 0.188-0.82 0.024-1.248-0.165-0.427-0.448-0.73-0.853-0.91s-0.821-0.188-1.249-0.023c-0.427 0.165-0.73 0.449-0.909 0.854-0.184 0.413-0.195 0.83-0.033 1.251 0.162 0.422 0.449 0.725 0.862 0.907 0.412 0.184 0.829 0.195 1.25 0.032 0.422-0.163 0.724-0.45 0.908-0.863z" opacity=".4"/>
		<path d="m1377.4 801.72c-0.294 0.549-0.938 0.973-1.937 1.272l-20.69 5.931-6.847 20.424c-0.067 0.186-0.188 0.442-0.362 0.767-0.671 1.246-1.52 1.595-2.541 1.045-0.473-0.255-0.891-0.673-1.253-1.254l-12.038-17.856-21.533-0.209c-0.71 4e-3 -1.288-0.113-1.736-0.354-0.524-0.282-0.818-0.675-0.887-1.177-0.067-0.502 0.041-1.016 0.322-1.539 0.081-0.149 0.239-0.386 0.477-0.706l13.275-16.964-6.487-20.556c-0.263-1.008-0.251-1.773 0.031-2.298 0.495-0.921 1.502-1.12 3.019-0.594l20.235 7.371 17.564-12.484c1.023-0.767 1.909-0.949 2.656-0.547 0.748 0.402 1.084 1.242 1.007 2.519l-0.741 21.536 17.299 12.828c1.275 0.974 1.663 1.924 1.167 2.845zm-26.882 2.744l17.415-4.945-14.53-10.809 0.62-18.084-14.751 10.479-17.022-6.17 5.465 17.258-11.199 14.27 18.135 0.166 10.092 15.022 5.775-17.187z" opacity=".4"/>
		<path d="m127.04 703.31c-0.137 0.254-0.435 0.45-0.896 0.589l-9.577 2.746-3.17 9.453c-0.031 0.085-0.087 0.205-0.167 0.355-0.311 0.576-0.704 0.736-1.177 0.482-0.218-0.116-0.412-0.311-0.58-0.58l-5.572-8.265-9.968-0.098c-0.329 1e-3 -0.596-0.053-0.804-0.163-0.242-0.131-0.378-0.312-0.41-0.545-0.031-0.234 0.019-0.471 0.15-0.713 0.037-0.07 0.11-0.178 0.22-0.326l6.145-7.853-3.002-9.515c-0.122-0.467-0.116-0.822 0.015-1.064 0.229-0.427 0.695-0.52 1.397-0.275l9.366 3.412 8.13-5.779c0.474-0.354 0.884-0.439 1.23-0.252 0.346 0.186 0.501 0.575 0.466 1.165l-0.343 9.97 8.008 5.938c0.589 0.452 0.768 0.892 0.539 1.318zm-12.444 1.271l8.062-2.29-6.727-5.003 0.288-8.371-6.829 4.852-7.879-2.855 2.529 7.988-5.184 6.605 8.395 0.076 4.672 6.953 2.673-7.955z" opacity=".4"/>
		<path d="m49.789 774.24l-17.575 44.799c-0.711 1.812-1.964 3.109-3.761 3.895-1.797 0.782-3.6 0.82-5.412 0.108l-60.609-23.778c-1.812-0.711-3.109-1.965-3.895-3.761-0.783-1.796-0.82-3.601-0.108-5.411l17.575-44.799c0.711-1.813 1.963-3.109 3.76-3.893 1.797-0.785 3.602-0.824 5.412-0.112l60.611 23.778c1.811 0.711 3.107 1.965 3.892 3.763 0.784 1.796 0.821 3.598 0.11 5.411zm-5.868-0.544c0.022-0.055 0.081-0.207 0.178-0.454 0.097-0.246 0.17-0.432 0.218-0.557 0.049-0.121 0.111-0.303 0.19-0.542 0.076-0.24 0.103-0.427 0.078-0.562-0.025-0.136-0.053-0.29-0.081-0.459-0.029-0.171-0.112-0.323-0.249-0.454-0.138-0.134-0.317-0.246-0.536-0.331l-60.611-23.777c-0.357-0.142-0.716-0.133-1.078 0.027-0.364 0.159-0.615 0.419-0.756 0.772-1.809 4.611-1.32 9.303 1.465 14.07 3.661 6.249 7.458 12.758 11.391 19.53 0.112 0.201 0.432 0.794 0.965 1.779 0.532 0.985 0.963 1.749 1.289 2.287 0.326 0.539 0.768 1.21 1.323 2.016 0.555 0.804 1.101 1.453 1.634 1.948 0.535 0.494 1.077 0.848 1.626 1.063l0.042 0.017 0.041 0.016c0.549 0.216 1.187 0.325 1.915 0.327 0.729 0 1.57-0.105 2.524-0.319 0.953-0.211 1.733-0.405 2.341-0.579 0.606-0.172 1.438-0.438 2.5-0.8 1.06-0.359 1.698-0.577 1.917-0.647 7.487-2.291 14.697-4.481 21.633-6.576 1.944-0.599 3.945-1.642 6.003-3.131 2.057-1.491 3.402-3.044 4.038-4.664zm-16.977 43.274l12.406-31.623c-1.266 0.643-2.568 1.178-3.906 1.604-9.576 2.771-17.243 5.116-23.002 7.035-1.863 0.633-3.363 1.104-4.5 1.419-1.137 0.313-2.585 0.513-4.344 0.599-1.762 0.087-3.299-0.131-4.617-0.646l-0.041-0.016-0.041-0.017c-1.318-0.517-2.594-1.404-3.824-2.665-1.232-1.261-2.159-2.391-2.779-3.394-0.62-1.004-1.398-2.369-2.335-4.101-2.916-5.322-6.943-12.257-12.08-20.798-0.694-1.221-1.284-2.5-1.774-3.833l-12.406 31.623c-0.141 0.357-0.133 0.718 0.027 1.079 0.158 0.364 0.416 0.617 0.773 0.757l60.609 23.776c0.356 0.14 0.717 0.131 1.079-0.027 0.362-0.156 0.615-0.414 0.755-0.772z" opacity=".4"/>
		<path d="m13.97 142.81l12.121 30.123c0.49 1.219 0.477 2.436-0.041 3.654-0.52 1.215-1.387 2.07-2.605 2.561l-40.756 16.398c-1.219 0.49-2.436 0.476-3.653-0.043-1.216-0.52-2.069-1.387-2.558-2.604l-12.123-30.123c-0.491-1.222-0.477-2.437 0.043-3.652 0.518-1.217 1.385-2.072 2.604-2.562l40.756-16.399c1.218-0.491 2.435-0.475 3.652 0.044s2.07 1.385 2.56 2.603zm-3.132 2.453c-0.014-0.039-0.056-0.141-0.122-0.307-0.067-0.166-0.116-0.29-0.151-0.374-0.032-0.082-0.085-0.2-0.157-0.354-0.073-0.153-0.147-0.258-0.222-0.312-0.076-0.056-0.161-0.118-0.254-0.188-0.092-0.069-0.204-0.107-0.332-0.107-0.129-2e-3 -0.27 0.027-0.416 0.087l-40.754 16.398c-0.242 0.097-0.414 0.267-0.518 0.514-0.105 0.247-0.108 0.491-0.014 0.729 1.248 3.102 3.66 5.177 7.236 6.226 4.689 1.373 9.566 2.808 14.633 4.311 0.148 0.047 0.58 0.19 1.298 0.428s1.282 0.41 1.691 0.524c0.409 0.113 0.937 0.239 1.583 0.376 0.645 0.137 1.213 0.204 1.704 0.199s0.921-0.083 1.29-0.231l0.028-0.012 0.028-0.011c0.369-0.147 0.732-0.391 1.092-0.726 0.356-0.336 0.721-0.778 1.09-1.325 0.369-0.546 0.663-1.002 0.881-1.369 0.217-0.364 0.502-0.88 0.856-1.551 0.353-0.666 0.566-1.07 0.642-1.204 2.612-4.593 5.136-9.006 7.569-13.247 0.677-1.192 1.177-2.633 1.496-4.316s0.262-3.071-0.177-4.158zm11.71 29.096l-8.558-21.264c-0.322 0.902-0.715 1.768-1.174 2.597-3.416 5.795-6.092 10.496-8.029 14.104-0.621 1.174-1.14 2.1-1.551 2.78-0.413 0.681-1.031 1.449-1.855 2.306-0.824 0.858-1.68 1.464-2.564 1.821l-0.027 0.01-0.028 0.013c-0.886 0.356-1.923 0.511-3.11 0.462-1.188-0.048-2.166-0.173-2.936-0.379-0.77-0.205-1.783-0.515-3.045-0.931-3.896-1.261-9.084-2.798-15.561-4.611-0.904-0.277-1.787-0.633-2.645-1.058l8.557 21.263c0.096 0.24 0.268 0.413 0.513 0.517 0.247 0.106 0.49 0.11 0.729 0.014l40.754-16.4c0.24-0.096 0.412-0.267 0.518-0.513s0.108-0.49 0.012-0.731z" opacity=".4"/>
		<path d="m1463.8 673.83l11.034 34.812c0.446 1.407 0.327 2.771-0.356 4.092-0.686 1.319-1.731 2.203-3.14 2.649l-47.098 14.93c-1.408 0.446-2.771 0.326-4.092-0.357-1.319-0.685-2.203-1.732-2.648-3.14l-11.036-34.81c-0.447-1.408-0.327-2.771 0.358-4.092 0.685-1.32 1.729-2.205 3.138-2.652l47.097-14.929c1.409-0.447 2.771-0.326 4.093 0.359 1.319 0.685 2.203 1.73 2.65 3.138zm-3.719 2.482c-0.015-0.042-0.053-0.161-0.113-0.353-0.06-0.191-0.105-0.336-0.137-0.433-0.03-0.094-0.079-0.231-0.146-0.41-0.07-0.179-0.144-0.3-0.224-0.369-0.079-0.068-0.169-0.146-0.267-0.231-0.098-0.088-0.221-0.138-0.363-0.149-0.146-0.013-0.306 7e-3 -0.475 0.062l-47.097 14.931c-0.278 0.087-0.486 0.264-0.624 0.531-0.139 0.268-0.162 0.541-0.075 0.816 1.135 3.584 3.665 6.115 7.585 7.597 5.143 1.937 10.49 3.961 16.044 6.075 0.163 0.064 0.634 0.263 1.419 0.588 0.785 0.327 1.402 0.572 1.854 0.733 0.449 0.162 1.028 0.348 1.742 0.557 0.711 0.209 1.344 0.331 1.895 0.368 0.55 0.036 1.039-0.014 1.466-0.149l0.032-0.01 0.033-0.012c0.426-0.134 0.854-0.375 1.285-0.722 0.429-0.348 0.875-0.812 1.335-1.393 0.461-0.58 0.829-1.067 1.104-1.46 0.274-0.391 0.639-0.946 1.092-1.666 0.453-0.718 0.727-1.151 0.822-1.298 3.319-4.928 6.524-9.662 9.612-14.21 0.862-1.282 1.545-2.854 2.046-4.715s0.553-3.419 0.155-4.678zm10.659 33.627l-7.79-24.572c-0.44 0.982-0.953 1.921-1.538 2.812-4.322 6.207-7.724 11.252-10.202 15.134-0.796 1.264-1.456 2.258-1.976 2.986-0.521 0.728-1.28 1.537-2.275 2.428-0.998 0.894-2.009 1.5-3.03 1.824l-0.033 0.011-0.031 0.011c-1.023 0.324-2.201 0.41-3.529 0.254-1.328-0.154-2.414-0.377-3.259-0.674-0.845-0.295-1.956-0.728-3.336-1.302-4.261-1.745-9.948-3.911-17.057-6.493-0.993-0.39-1.952-0.861-2.878-1.412l7.79 24.572c0.087 0.277 0.266 0.486 0.531 0.622 0.267 0.141 0.54 0.166 0.817 0.078l47.096-14.932c0.276-0.087 0.485-0.264 0.623-0.531s0.165-0.539 0.077-0.816z" opacity=".4"/>
		<path d="m350.69 805.54c0.227 5.5-0.978 10.736-3.611 15.711-2.635 4.975-6.288 8.911-10.965 11.815-4.676 2.903-9.763 4.469-15.261 4.697-5.5 0.225-10.737-0.979-15.709-3.612-4.976-2.635-8.915-6.289-11.817-10.965-2.904-4.676-4.469-9.764-4.695-15.265-0.228-5.497 0.977-10.733 3.611-15.708s6.287-8.912 10.964-11.817c4.676-2.901 9.765-4.466 15.263-4.693 5.498-0.228 10.733 0.976 15.709 3.61 4.975 2.634 8.913 6.289 11.817 10.966 2.9 4.675 4.466 9.763 4.694 15.261zm-14.699 21.199c2.707-2.177 4.88-4.813 6.52-7.908 1.636-3.094 2.596-6.371 2.875-9.836 0.28-3.463-0.06-6.752-1.016-9.865-0.958-3.111-2.525-6.021-4.702-8.729-2.179-2.706-4.814-4.881-7.909-6.521-3.094-1.638-6.373-2.595-9.835-2.876-3.462-0.277-6.751 0.06-9.864 1.018-3.111 0.958-6.022 2.525-8.729 4.703-2.708 2.179-4.879 4.815-6.52 7.908-1.637 3.096-2.597 6.373-2.876 9.836-0.28 3.463 0.06 6.752 1.017 9.863 0.959 3.113 2.526 6.023 4.704 8.73 2.176 2.708 4.813 4.879 7.906 6.518 3.094 1.639 6.373 2.598 9.836 2.875 3.462 0.283 6.751-0.055 9.865-1.016 3.11-0.956 6.021-2.524 8.728-4.7zm-15.688-35.507c0.419 1.367 0.296 2.681-0.372 3.938-0.668 1.264-1.685 2.104-3.05 2.523-1.364 0.42-2.677 0.295-3.939-0.371-1.261-0.668-2.103-1.684-2.523-3.051-0.419-1.365-0.295-2.679 0.372-3.938 0.669-1.264 1.687-2.104 3.051-2.523 1.365-0.42 2.677-0.296 3.94 0.372 1.259 0.669 2.101 1.686 2.521 3.05zm9.043 28.809c-2.407 2.415-5.28 3.866-8.616 4.354s-6.516-0.066-9.538-1.67c-3.023-1.6-5.271-3.918-6.74-6.953-1.471-3.031-1.887-6.221-1.24-9.569 0.123-0.694 0.476-1.247 1.058-1.656 0.581-0.405 1.232-0.542 1.953-0.405 0.695 0.124 1.246 0.477 1.656 1.061 0.408 0.58 0.543 1.232 0.405 1.95-0.412 2.22-0.127 4.347 0.854 6.373 0.985 2.028 2.475 3.572 4.474 4.632 2 1.058 4.115 1.423 6.346 1.098 2.232-0.329 4.147-1.287 5.749-2.877 0.52-0.516 1.139-0.768 1.862-0.752 0.722 0.017 1.332 0.279 1.826 0.785 0.493 0.506 0.735 1.113 0.726 1.824-0.014 0.708-0.273 1.313-0.775 1.805zm9.236-19.128c0.42 1.363 0.295 2.677-0.372 3.939-0.667 1.26-1.684 2.102-3.049 2.521-1.366 0.421-2.68 0.298-3.941-0.37-1.262-0.668-2.102-1.686-2.522-3.051-0.419-1.364-0.296-2.679 0.374-3.94 0.666-1.26 1.684-2.103 3.049-2.521 1.364-0.421 2.679-0.296 3.94 0.372 1.26 0.665 2.099 1.684 2.521 3.05z" opacity=".4"/>
		<path d="m1390.9 108.09c3.868 2.638 6.831 6.121 8.889 10.447 2.058 4.325 2.888 8.822 2.495 13.488-0.396 4.667-1.912 8.936-4.553 12.805-2.639 3.868-6.121 6.833-10.446 8.89-4.325 2.058-8.823 2.888-13.489 2.494-4.666-0.395-8.936-1.912-12.804-4.551s-6.831-6.122-8.889-10.447c-2.058-4.326-2.888-8.822-2.495-13.488 0.395-4.667 1.911-8.936 4.549-12.805 2.641-3.868 6.123-6.832 10.448-8.89s8.823-2.888 13.489-2.494 8.936 1.911 12.806 4.551zm3.7 23.307c0.278-3.306-0.309-6.489-1.767-9.553-1.456-3.062-3.556-5.529-6.296-7.399-2.741-1.866-5.766-2.94-9.07-3.222-3.307-0.281-6.49 0.307-9.555 1.764-3.062 1.457-5.529 3.557-7.396 6.298-1.871 2.741-2.943 5.765-3.225 9.069-0.28 3.307 0.308 6.492 1.765 9.555 1.456 3.063 3.556 5.527 6.298 7.397 2.741 1.868 5.764 2.944 9.071 3.222 3.304 0.281 6.489-0.307 9.552-1.764 3.064-1.456 5.529-3.556 7.397-6.297 1.869-2.74 2.945-5.763 3.226-9.07zm-19.879-14.339l6.615 13.909c0.137 0.289 0.157 0.572 0.061 0.846-0.097 0.275-0.292 0.482-0.582 0.619l-9.935 4.725c-0.289 0.138-0.571 0.158-0.847 0.061s-0.48-0.291-0.619-0.58l-0.944-1.988c-0.138-0.289-0.158-0.572-0.06-0.847 0.097-0.274 0.291-0.481 0.581-0.618l6.953-3.309-5.197-10.928c-0.138-0.29-0.157-0.573-0.06-0.847 0.098-0.274 0.291-0.481 0.582-0.62l1.984-0.944c0.291-0.138 0.574-0.159 0.849-0.06 0.274 0.098 0.482 0.291 0.619 0.581z" opacity=".4"/>
		<path d="m48.988 230.28l-0.812 2.821c-0.108 0.381-0.344 0.671-0.703 0.869-0.359 0.199-0.729 0.243-1.111 0.134l-3.148-0.906c-1.224 2.207-2.947 3.925-5.168 5.155-2.222 1.23-4.594 1.776-7.113 1.64l-0.906 3.148c-0.109 0.383-0.344 0.674-0.704 0.87-0.359 0.199-0.729 0.244-1.11 0.135l-2.819-0.811c-0.382-0.111-0.673-0.346-0.871-0.705-0.199-0.358-0.244-0.729-0.133-1.111l0.906-3.149c-2.209-1.223-3.927-2.944-5.156-5.166-1.229-2.223-1.775-4.594-1.639-7.114l-3.147-0.905c-0.385-0.11-0.674-0.344-0.873-0.703-0.198-0.359-0.243-0.729-0.132-1.111l0.81-2.82c0.108-0.381 0.344-0.671 0.705-0.871 0.357-0.198 0.728-0.242 1.11-0.134l3.149 0.906c1.223-2.207 2.945-3.926 5.166-5.155 2.222-1.228 4.594-1.774 7.113-1.639l0.906-3.149c0.109-0.381 0.344-0.672 0.704-0.87 0.359-0.198 0.729-0.244 1.112-0.134l2.818 0.81c0.381 0.111 0.672 0.346 0.871 0.706 0.197 0.359 0.243 0.729 0.133 1.11l-0.905 3.149c2.208 1.225 3.925 2.946 5.154 5.166 1.229 2.224 1.775 4.594 1.639 7.114l3.149 0.905c0.383 0.11 0.672 0.346 0.871 0.703 0.2 0.361 0.243 0.731 0.134 1.112zm-8.683 2.082l-2.401-0.691c-0.381-0.109-0.673-0.343-0.871-0.702s-0.243-0.731-0.134-1.112l0.812-2.819c0.11-0.381 0.344-0.671 0.703-0.872 0.359-0.196 0.731-0.241 1.112-0.132l2.399 0.689c-0.014-1.721-0.44-3.342-1.282-4.864-0.842-1.521-1.988-2.745-3.439-3.671l-0.69 2.401c-0.108 0.381-0.346 0.671-0.703 0.869-0.359 0.199-0.729 0.244-1.112 0.135l-2.819-0.811c-0.383-0.111-0.671-0.346-0.869-0.705-0.2-0.359-0.244-0.73-0.136-1.111l0.691-2.4c-1.721 0.014-3.343 0.44-4.863 1.284-1.522 0.842-2.747 1.987-3.672 3.438l2.399 0.691c0.381 0.109 0.672 0.345 0.871 0.702 0.198 0.361 0.243 0.732 0.134 1.114l-0.812 2.818c-0.11 0.381-0.344 0.672-0.703 0.871-0.359 0.198-0.729 0.243-1.112 0.133l-2.399-0.69c0.014 1.721 0.44 3.343 1.284 4.864 0.842 1.522 1.988 2.745 3.438 3.671l0.691-2.4c0.109-0.381 0.345-0.672 0.702-0.868 0.361-0.201 0.729-0.244 1.112-0.136l2.819 0.812c0.381 0.11 0.673 0.344 0.871 0.705 0.198 0.356 0.244 0.729 0.134 1.109l-0.691 2.401c1.722-0.014 3.343-0.441 4.865-1.284 1.522-0.841 2.744-1.989 3.671-3.439z" opacity=".4"/>
		<path d="m317.54 728.84l-0.812 2.821c-0.108 0.381-0.344 0.671-0.703 0.869-0.359 0.199-0.729 0.243-1.111 0.134l-3.148-0.906c-1.224 2.207-2.947 3.925-5.168 5.155-2.222 1.23-4.594 1.776-7.113 1.64l-0.906 3.148c-0.109 0.383-0.344 0.674-0.704 0.87-0.359 0.199-0.729 0.244-1.11 0.135l-2.819-0.811c-0.382-0.111-0.673-0.346-0.871-0.705-0.199-0.358-0.244-0.729-0.133-1.111l0.906-3.149c-2.209-1.223-3.927-2.944-5.156-5.166-1.229-2.223-1.775-4.594-1.639-7.114l-3.147-0.905c-0.385-0.11-0.674-0.344-0.873-0.703-0.198-0.359-0.243-0.729-0.132-1.111l0.81-2.82c0.108-0.381 0.344-0.671 0.705-0.871 0.357-0.198 0.728-0.242 1.11-0.134l3.149 0.906c1.223-2.207 2.945-3.926 5.166-5.155 2.222-1.228 4.594-1.774 7.113-1.639l0.906-3.149c0.109-0.381 0.344-0.672 0.704-0.87 0.359-0.198 0.729-0.244 1.112-0.134l2.818 0.81c0.381 0.111 0.672 0.346 0.871 0.706 0.197 0.359 0.243 0.729 0.133 1.11l-0.905 3.149c2.208 1.225 3.925 2.946 5.154 5.166 1.229 2.224 1.775 4.594 1.639 7.114l3.149 0.905c0.383 0.11 0.672 0.346 0.871 0.703 0.201 0.362 0.244 0.732 0.134 1.112zm-8.682 2.083l-2.401-0.691c-0.381-0.109-0.673-0.343-0.871-0.702s-0.243-0.731-0.134-1.112l0.812-2.819c0.11-0.381 0.344-0.671 0.703-0.872 0.359-0.196 0.731-0.241 1.112-0.132l2.399 0.689c-0.014-1.721-0.44-3.342-1.282-4.864-0.842-1.521-1.988-2.745-3.439-3.671l-0.69 2.401c-0.108 0.381-0.346 0.671-0.703 0.869-0.359 0.199-0.729 0.244-1.112 0.135l-2.819-0.811c-0.383-0.111-0.671-0.346-0.869-0.705-0.2-0.359-0.244-0.73-0.136-1.111l0.691-2.4c-1.721 0.014-3.343 0.44-4.863 1.284-1.522 0.842-2.747 1.987-3.672 3.438l2.399 0.691c0.381 0.109 0.672 0.345 0.871 0.702 0.198 0.361 0.243 0.732 0.134 1.114l-0.812 2.818c-0.11 0.381-0.344 0.672-0.703 0.871-0.359 0.198-0.729 0.243-1.112 0.133l-2.399-0.69c0.014 1.721 0.44 3.343 1.284 4.864 0.842 1.522 1.988 2.745 3.438 3.671l0.691-2.4c0.109-0.381 0.345-0.672 0.702-0.868 0.361-0.201 0.729-0.244 1.112-0.136l2.819 0.812c0.381 0.11 0.673 0.344 0.871 0.705 0.198 0.356 0.244 0.729 0.134 1.109l-0.691 2.401c1.722-0.014 3.343-0.441 4.865-1.284 1.521-0.842 2.744-1.989 3.671-3.439z" opacity=".4"/>
		<path d="m29.712 597.44c2.929 2.409 4.739 5.312 5.429 8.713 0.688 3.4 0.152 6.779-1.609 10.137-1.76 3.359-4.484 6.279-8.172 8.768-3.688 2.486-7.916 4.213-12.684 5.18-1.367 0.277-2.801 0.485-4.297 0.627-3.178 4.203-7.193 7.48-12.047 9.827-0.902 0.467-1.975 0.908-3.213 1.321-0.324 0.106-0.64 0.08-0.947-0.082-0.307-0.161-0.535-0.411-0.686-0.745l-6e-3 -0.03c-0.073-0.065-0.103-0.183-0.086-0.349 0.018-0.167 0.018-0.269 0-0.306s6e-3 -0.139 0.076-0.304c0.066-0.167 0.107-0.267 0.121-0.301s0.065-0.13 0.155-0.29c0.09-0.161 0.149-0.265 0.181-0.312 0.105-0.183 0.34-0.582 0.704-1.194 0.364-0.613 0.626-1.054 0.786-1.32 0.16-0.265 0.383-0.713 0.674-1.341 0.289-0.629 0.506-1.19 0.649-1.688 0.144-0.497 0.29-1.127 0.441-1.89 0.15-0.764 0.253-1.558 0.31-2.382-3.42-1.118-6.274-2.777-8.562-4.979s-3.729-4.77-4.322-7.699c-0.515-2.54-0.313-5.109 0.604-7.707s2.38-4.974 4.385-7.131c2.004-2.154 4.528-4.056 7.572-5.7 3.044-1.643 6.345-2.826 9.902-3.547 4.768-0.967 9.334-1.022 13.699-0.166 4.367 0.852 8.014 2.484 10.943 4.89z" opacity=".4"/>
		<path d="m474.94 803.9c1.425 1.281 1.993 2.562 1.705 3.849-0.289 1.285-1.361 2.19-3.219 2.719l-30.288 8.609c-1.858 0.528-3.248 0.321-4.171-0.62-0.92-0.941-1.112-2.331-0.573-4.171l7.3-24.606-2.982-10.49-1.684 0.478c-0.456 0.13-0.897 0.075-1.324-0.164-0.427-0.238-0.706-0.585-0.835-1.04-0.13-0.457-0.076-0.898 0.162-1.325 0.238-0.428 0.585-0.706 1.04-0.836l13.463-3.827c0.454-0.13 0.897-0.074 1.325 0.165 0.427 0.237 0.706 0.584 0.836 1.041 0.129 0.454 0.075 0.897-0.164 1.324-0.237 0.428-0.585 0.707-1.04 0.836l-1.684 0.479 2.981 10.491 19.152 17.088zm-25.9-13.24l-3.944 13.311 18.72-5.319-10.358-9.248-0.757-0.665-0.276-0.973-2.98-10.491-3.366 0.958 2.979 10.49 0.277 0.973-0.295 0.964z" opacity=".4"/>
		<path d="m151.22 53.588c2.382 2.142 3.332 4.282 2.85 6.433-0.483 2.147-2.275 3.661-5.38 4.544l-50.623 14.39c-3.106 0.883-5.429 0.537-6.971-1.037-1.538-1.573-1.859-3.896-0.958-6.971l12.201-41.127-4.985-17.533-2.814 0.798c-0.762 0.217-1.5 0.126-2.213-0.274-0.713-0.397-1.18-0.978-1.396-1.738-0.217-0.764-0.127-1.501 0.271-2.215 0.398-0.715 0.978-1.18 1.738-1.396l22.501-6.397c0.759-0.217 1.5-0.124 2.215 0.276 0.713 0.396 1.18 0.976 1.397 1.74 0.216 0.759 0.126 1.5-0.274 2.213-0.396 0.715-0.978 1.182-1.738 1.397l-2.813 0.8 4.983 17.534 32.009 28.563zm-43.289-22.13l-6.592 22.247 31.288-8.891-17.313-15.457-1.265-1.111-0.462-1.626-4.981-17.535-5.626 1.602 4.98 17.533 0.464 1.626-0.493 1.612z" opacity=".4"/>
		<path d="m1474.4 508.16c1.832 1.461 2.621 2.985 2.361 4.576s-1.504 2.774-3.735 3.555l-36.374 12.719c-2.23 0.781-3.943 0.628-5.139-0.455-1.192-1.082-1.528-2.767-1.004-5.053l7.13-30.59-4.407-12.597-2.021 0.704c-0.547 0.192-1.09 0.156-1.63-0.103-0.538-0.262-0.905-0.667-1.095-1.213-0.192-0.547-0.159-1.09 0.101-1.628 0.261-0.541 0.662-0.906 1.21-1.097l16.167-5.655c0.548-0.191 1.092-0.154 1.631 0.105 0.541 0.259 0.906 0.663 1.098 1.211 0.191 0.545 0.158 1.092-0.104 1.63-0.258 0.54-0.664 0.905-1.21 1.098l-2.021 0.705 4.403 12.601 24.639 19.487zm-32.602-14.294l-3.852 16.548 22.48-7.857-13.326-10.545-0.972-0.758-0.408-1.17-4.403-12.6-4.044 1.417 4.401 12.599 0.412 1.166-0.288 1.2z" opacity=".4"/>
		<path d="m1429.9 159.91c1.992-1.204 3.986-1.663 5.977-1.377 1.992 0.294 3.576 1.41 4.752 3.353 0.613 1.013 0.977 2.092 1.088 3.258 0.115 1.153 0.086 2.164-0.084 3.025-0.17 0.854-0.217 1.836-0.141 2.931 0.076 1.101 0.389 2.103 0.938 3.015 1.641 2.709 3.984 3.139 7.039 1.291 0.957-0.583 2.254-1.637 3.885-3.161 1.635-1.524 2.938-2.567 3.912-3.121l0.188-0.114c0.326 0.538 0.586 0.941 0.775 1.193 0.578 0.795 1.443 1.91 2.602 3.346 1.152 1.436 2.18 2.762 3.076 3.963 0.898 1.203 1.693 2.373 2.377 3.503 0.908 1.503 1.35 2.972 1.324 4.397s-0.746 2.566-2.145 3.412c-0.912 0.555-1.916 0.866-3.012 0.941-1.1 0.076-2.076 0.031-2.936-0.136-0.861-0.171-1.869-0.2-3.029-0.085-1.158 0.11-2.242 0.471-3.252 1.082-1.941 1.178-3.062 2.762-3.354 4.756-0.287 1.992 0.168 3.984 1.377 5.978 1.248 2.065 2.875 3.489 4.873 4.26 2 0.776 4.01 0.554 6.027-0.667 1.055-0.642 1.965-1.444 2.729-2.413 0.76-0.961 1.303-1.855 1.633-2.676 0.326-0.82 0.73-1.628 1.207-2.421 0.477-0.794 0.986-1.354 1.529-1.682 1.107-0.667 2.547-0.767 4.311-0.289 1.414 0.391 2.717 1.566 3.906 3.539 1.42 2.336 2.947 5.53 4.594 9.576 0.078 0.253 0.236 0.619 0.461 1.109 0.23 0.483 0.387 0.852 0.473 1.103l0.215 0.523c0.014 0.024 0.025 0.069 0.029 0.136 0.029 0.046 0.029 0.08 8e-3 0.094l-37.805 22.882c-2e-3 -0.063-0.092-0.304-0.262-0.723-0.166-0.42-0.361-0.872-0.576-1.369-0.211-0.491-0.33-0.781-0.346-0.874-1.646-4.048-3.174-7.24-4.592-9.577-1.189-1.969-2.492-3.147-3.908-3.535-1.764-0.479-3.203-0.382-4.309 0.288-0.543 0.326-1.057 0.889-1.533 1.682-0.479 0.793-0.879 1.602-1.209 2.423-0.326 0.817-0.871 1.713-1.631 2.674-0.762 0.968-1.674 1.771-2.729 2.41-2.02 1.224-4.029 1.446-6.027 0.668-2-0.773-3.629-2.203-4.896-4.296-1.189-1.968-1.645-3.947-1.352-5.941 0.291-1.994 1.408-3.578 3.352-4.753 1.012-0.612 2.094-0.972 3.254-1.089 1.162-0.115 2.17-0.086 3.027 0.089 0.855 0.167 1.834 0.214 2.934 0.137 1.1-0.076 2.102-0.388 3.012-0.938 1.4-0.852 2.121-1.988 2.148-3.414 0.027-1.428-0.416-2.894-1.328-4.395-0.953-1.576-2.475-3.681-4.572-6.312-2.1-2.631-3.521-4.51-4.271-5.633l0.074-0.047c0.062-9e-3 0.303-0.094 0.721-0.267 0.42-0.165 0.879-0.358 1.367-0.57 0.498-0.215 0.783-0.331 0.875-0.354 4.049-1.643 7.242-3.172 9.576-4.589 1.969-1.191 3.154-2.493 3.543-3.908 0.477-1.767 0.377-3.204-0.293-4.31-0.328-0.545-0.885-1.054-1.68-1.529-0.795-0.482-1.598-0.881-2.422-1.21-0.822-0.326-1.715-0.871-2.68-1.632-0.963-0.764-1.766-1.671-2.41-2.732-1.217-2.015-1.441-4.021-0.668-6.024 0.773-2 2.195-3.626 4.264-4.874z" opacity=".4"/>
		<path d="m28.363 359.18c-1.815 1.728-3.805 2.67-5.963 2.83-2.163 0.15-4.086-0.656-5.772-2.425-0.879-0.923-1.51-1.973-1.896-3.175-0.39-1.185-0.59-2.253-0.611-3.197-0.02-0.938-0.197-1.98-0.53-3.114-0.335-1.139-0.895-2.12-1.684-2.953-2.35-2.468-4.916-2.376-7.695 0.273-0.874 0.832-1.993 2.24-3.355 4.222-1.365 1.977-2.493 3.377-3.39 4.186l-0.172 0.161c-0.466-0.488-0.833-0.852-1.091-1.074-0.789-0.701-1.959-1.675-3.509-2.915-1.542-1.242-2.931-2.398-4.151-3.452-1.22-1.058-2.327-2.104-3.308-3.134-1.302-1.369-2.106-2.812-2.41-4.316-0.303-1.505 0.19-2.872 1.466-4.084 0.831-0.793 1.812-1.354 2.949-1.686 1.137-0.335 2.174-0.515 3.116-0.535 0.945-0.021 2.011-0.223 3.205-0.613 1.189-0.383 2.246-1.013 3.167-1.89 1.77-1.688 2.581-3.611 2.425-5.774-0.158-2.162-1.1-4.15-2.83-5.966-1.79-1.88-3.829-3.001-6.108-3.352-2.283-0.352-4.342 0.348-6.181 2.095-0.96 0.921-1.733 1.976-2.311 3.171-0.576 1.186-0.94 2.251-1.098 3.19-0.154 0.938-0.391 1.881-0.708 2.824-0.319 0.945-0.725 1.649-1.22 2.12-1.008 0.958-2.501 1.396-4.463 1.302-1.578-0.084-3.22-1.018-4.925-2.816-2.033-2.128-4.377-5.134-7.044-9.005-0.14-0.246-0.393-0.595-0.741-1.058-0.355-0.456-0.603-0.807-0.751-1.051l-0.347-0.502c-0.021-0.021-0.043-0.065-0.063-0.133-0.041-0.044-0.05-0.078-0.03-0.1l34.449-32.798c0.016 0.068 0.167 0.3 0.441 0.7 0.272 0.402 0.581 0.832 0.922 1.307 0.337 0.467 0.53 0.745 0.567 0.836 2.667 3.875 5.012 6.877 7.042 9.005 1.706 1.796 3.347 2.734 4.924 2.813 1.964 0.096 3.457-0.34 4.465-1.299 0.495-0.469 0.904-1.177 1.222-2.123 0.321-0.944 0.554-1.887 0.71-2.826 0.152-0.935 0.519-2 1.096-3.188 0.578-1.192 1.349-2.249 2.311-3.163 1.84-1.753 3.899-2.453 6.181-2.099 2.282 0.353 4.325 1.478 6.142 3.384 1.704 1.795 2.641 3.77 2.795 5.932 0.154 2.164-0.653 4.089-2.423 5.772-0.92 0.877-1.977 1.508-3.169 1.899-1.195 0.389-2.26 0.592-3.204 0.605-0.937 0.023-1.977 0.201-3.114 0.534-1.138 0.335-2.121 0.896-2.95 1.685-1.277 1.218-1.769 2.582-1.469 4.086 0.303 1.506 1.106 2.944 2.415 4.311 1.365 1.438 3.451 3.298 6.264 5.579 2.818 2.28 4.744 3.925 5.794 4.933l-0.066 0.068c-0.064 0.021-0.297 0.169-0.698 0.445-0.404 0.273-0.838 0.58-1.304 0.916-0.476 0.342-0.746 0.53-0.839 0.576-3.875 2.662-6.877 5.009-9.003 7.04-1.796 1.707-2.739 3.348-2.82 4.925-0.091 1.969 0.343 3.457 1.304 4.463 0.47 0.498 1.173 0.904 2.12 1.221 0.947 0.323 1.884 0.556 2.824 0.71 0.941 0.154 2.007 0.521 3.196 1.097 1.188 0.579 2.242 1.349 3.165 2.315 1.747 1.837 2.445 3.892 2.095 6.177-0.352 2.28-1.469 4.317-3.356 6.108z" opacity=".4"/>
		<path d="m1283.4 752.42c0 8.824-1.339 16.453-4.013 22.887-2.68 6.432-7.17 12.818-13.475 19.162-2.872 2.835-6.328 5.953-10.367 9.354l-1.062 20.148c-0.074 0.568-0.354 1.029-0.854 1.383l-20.411 11.908c-0.247 0.14-0.533 0.211-0.849 0.211-0.428 0-0.832-0.16-1.222-0.479l-3.402-3.402c-0.465-0.496-0.606-1.064-0.428-1.701l4.519-14.673-14.938-14.934-14.673 4.518c-0.106 0.034-0.268 0.054-0.474 0.054-0.502 0-0.907-0.16-1.229-0.481l-3.398-3.399c-0.602-0.674-0.691-1.362-0.268-2.074l11.909-20.413c0.353-0.492 0.816-0.777 1.382-0.849l20.146-1.064c3.402-4.041 6.518-7.496 9.357-10.365 6.658-6.627 13-11.199 19.031-13.715 6.021-2.516 13.657-3.775 22.908-3.775 0.497 0 0.921 0.171 1.274 0.508 0.356 0.333 0.537 0.732 0.537 1.191zm-13.396 18.925c0.991-0.993 1.488-2.194 1.488-3.614 0-1.417-0.497-2.622-1.488-3.614-0.994-0.994-2.198-1.49-3.617-1.49-1.415 0-2.62 0.496-3.612 1.49-0.993 0.992-1.489 2.197-1.489 3.614 0 1.42 0.496 2.621 1.489 3.614 0.992 0.99 2.197 1.487 3.612 1.487 1.419 1e-3 2.623-0.496 3.617-1.487z" opacity=".4"/>
		<path d="m1297.2-26.166c9.483 1.783 17.411 4.762 23.784 8.936 6.371 4.178 12.328 10.295 17.872 18.351 2.466 3.659 5.119 8.003 7.958 13.03l21.438 5.213c0.596 0.194 1.034 0.588 1.313 1.195l8.674 24.341c0.101 0.294 0.12 0.615 0.056 0.954-0.086 0.459-0.341 0.862-0.761 1.216l-4.345 2.97c-0.627 0.399-1.266 0.437-1.914 0.116l-14.855-7.819-19.065 13.035 1.892 16.682c0.016 0.121 3e-3 0.297-0.039 0.52-0.102 0.539-0.355 0.943-0.766 1.223l-4.34 2.966c-0.846 0.51-1.603 0.468-2.282-0.132l-19.53-16.921c-0.459-0.479-0.672-1.034-0.634-1.657l2.926-21.865c-3.655-4.472-6.739-8.518-9.249-12.149-5.777-8.494-9.409-16.232-10.895-23.222-1.488-6.979-1.299-15.439 0.569-25.381 0.101-0.534 0.37-0.956 0.804-1.268 0.431-0.314 0.896-0.426 1.389-0.334zm17.633 18.218c-0.867-1.266-2.058-2.042-3.583-2.329-1.523-0.286-2.918 6e-3 -4.185 0.869-1.27 0.868-2.046 2.062-2.332 3.587-0.286 1.521 3e-3 2.915 0.872 4.183 0.865 1.268 2.061 2.044 3.583 2.33 1.526 0.287 2.917-3e-3 4.185-0.87 1.265-0.866 2.042-2.061 2.328-3.581 0.286-1.526-5e-3 -2.921-0.868-4.189z" opacity=".4"/>
		<path d="m1.857 34.642c5.224-0.709 10.596-0.318 16.112 1.172 5.51 1.488 10.346 3.857 14.504 7.102 4.158 3.246 7.129 6.939 8.927 11.078 1.791 4.141 2.145 8.219 1.061 12.23-1.084 4.013-3.443 7.359-7.076 10.028-3.638 2.675-8.066 4.368-13.295 5.076-5.225 0.708-10.595 0.319-16.106-1.169-2.485-0.674-4.961-1.592-7.437-2.754-4.268 1.571-8.778 2.336-13.535 2.285-1.11-0.018-2.417-0.122-3.913-0.312l-0.13-0.035c-0.318-0.084-0.582-0.281-0.792-0.585-0.215-0.305-0.296-0.653-0.251-1.042-8e-3 -0.094 4e-3 -0.191 0.034-0.293 0.026-0.103 0.057-0.193 0.096-0.279 0.034-0.082 0.089-0.159 0.155-0.233 0.066-0.075 0.124-0.136 0.167-0.188 0.046-0.051 0.118-0.117 0.217-0.197 0.097-0.083 0.178-0.14 0.233-0.17 0.056-0.032 0.137-0.087 0.251-0.164 0.115-0.077 0.19-0.126 0.227-0.147 0.19-0.135 0.619-0.405 1.29-0.815 0.668-0.406 1.158-0.731 1.468-0.972 0.314-0.241 0.752-0.571 1.316-0.991 0.562-0.423 1.075-0.883 1.533-1.377 0.459-0.493 0.926-1.05 1.406-1.664-3.02-3.048-5.146-6.363-6.375-9.946-1.231-3.587-1.383-7.097-0.453-10.533 1.083-4.013 3.444-7.357 7.08-10.028 3.629-2.676 8.058-4.365 13.286-5.077zm26.387 12.314c-3.434-2.54-7.358-4.406-11.776-5.6-4.418-1.192-8.749-1.56-12.995-1.094-4.243 0.462-7.846 1.671-10.808 3.63-2.96 1.958-4.837 4.408-5.633 7.353-0.64 2.366-0.495 4.854 0.446 7.461 0.936 2.608 2.572 5.097 4.904 7.462l3.547 3.561-2.499 3.228c1.138-0.315 2.186-0.634 3.143-0.965l2.267-0.827 2.177 1.055c2.143 1.012 4.296 1.81 6.464 2.396 4.417 1.191 8.749 1.561 12.992 1.096 4.248-0.464 7.85-1.673 10.809-3.633 2.96-1.955 4.84-4.406 5.638-7.351 0.796-2.944 0.406-6.01-1.165-9.191-1.571-3.183-4.075-6.043-7.511-8.581zm11.637 49.1c0.101 0.771 0.229 1.485 0.374 2.146 0.146 0.66 0.356 1.312 0.634 1.959 0.271 0.648 0.485 1.152 0.631 1.519 0.148 0.365 0.412 0.893 0.781 1.583 0.374 0.688 0.606 1.139 0.705 1.352 0.021 0.036 0.06 0.117 0.12 0.242 0.06 0.123 0.107 0.214 0.139 0.269 0.031 0.053 0.07 0.144 0.114 0.261 0.044 0.121 0.072 0.217 0.086 0.284 0.012 0.062 0.027 0.144 0.049 0.241 0.021 0.1 0.026 0.195 0.017 0.285-5e-3 0.092-0.026 0.188-0.053 0.287-0.028 0.102-0.069 0.191-0.12 0.271-0.195 0.382-0.467 0.646-0.822 0.8-0.347 0.152-0.695 0.168-1.034 0.047-1.388-0.593-2.569-1.162-3.538-1.7-4.133-2.357-7.646-5.289-10.541-8.797-2.72-0.24-5.326-0.696-7.807-1.367-7.823-2.115-14.124-5.861-18.896-11.238 1.644 0.566 2.896 0.964 3.766 1.199 4.646 1.258 9.283 1.813 13.904 1.67 4.624-0.146 8.938-0.977 12.944-2.498 4.325-1.679 7.926-3.992 10.795-6.933 2.872-2.942 4.828-6.348 5.873-10.215 0.601-2.224 0.864-4.509 0.783-6.853 3.171 3.056 5.424 6.424 6.752 10.097 1.329 3.676 1.516 7.286 0.557 10.835-0.937 3.465-2.838 6.431-5.703 8.895-2.865 2.462-6.369 4.248-10.51 5.359z" opacity=".4"/>
		<path d="m614.89 780.56c0.781-0.496 1.625-0.643 2.527-0.439 0.904 0.203 1.604 0.695 2.1 1.478 0.494 0.782 0.641 1.626 0.439 2.528-0.203 0.903-0.695 1.604-1.479 2.099l5.385 8.499c0.486 0.767 0.625 1.607 0.42 2.524-0.205 0.915-0.691 1.616-1.461 2.104-9.393-1.223-17.16-0.232-23.297 2.972-0.678 0.823-1.041 1.737-1.088 2.737-0.049 1.003 0.193 1.889 0.723 2.659 0.531 0.771 1.256 1.267 2.182 1.487 0.014 0.673 0.15 1.263 0.41 1.771 0.26 0.509 0.574 0.907 0.945 1.199 0.371 0.293 0.875 0.542 1.514 0.748 0.635 0.207 1.225 0.35 1.762 0.434s1.229 0.168 2.068 0.256c0.115 1.126-0.318 2.26-1.303 3.399s-2.174 2.013-3.566 2.617c-1.396 0.605-2.629 0.812-3.701 0.623-0.318-0.275-0.945-0.782-1.879-1.524-0.938-0.74-1.613-1.287-2.033-1.642-0.42-0.354-1.006-0.903-1.758-1.647-0.75-0.744-1.334-1.419-1.748-2.024-0.416-0.605-0.85-1.348-1.303-2.229-0.455-0.88-0.809-1.798-1.062-2.754l-2.701 1.71c-0.973 0.616-2.025 0.799-3.158 0.544-1.135-0.254-2.008-0.867-2.625-1.841l-2.691-4.25c-0.617-0.974-0.799-2.026-0.543-3.161 0.254-1.131 0.867-2.006 1.84-2.623l10.625-6.729c6.416-4.066 11.232-11.086 14.443-21.061 0.77-0.487 1.611-0.627 2.527-0.42 0.916 0.205 1.615 0.69 2.104 1.458l5.382 8.498zm5.633 15.162l-13.373-21.113c-2.992 8.139-7.053 14.257-12.189 18.357l3.785 5.976c5.954-2.903 13.214-3.977 21.777-3.22z" opacity=".4"/>
		<path d="m1423.6 281.15c-0.205-0.993-0.021-1.927 0.555-2.802 0.574-0.875 1.359-1.416 2.352-1.623 10.318 5.505 19.628 7.395 27.931 5.675l13.743-2.85c1.258-0.261 2.429-0.036 3.511 0.674 1.085 0.712 1.757 1.696 2.017 2.955l1.141 5.497c0.262 1.26 0.037 2.431-0.674 3.516-0.713 1.082-1.697 1.754-2.957 2.015l-3.492 0.726c0.539 0.964 0.967 1.974 1.285 3.032 0.322 1.06 0.549 1.99 0.687 2.798s0.194 1.803 0.171 2.982c-0.025 1.18-0.069 2.074-0.131 2.684-0.062 0.611-0.182 1.574-0.355 2.895s-0.283 2.213-0.324 2.681c-0.713 0.985-1.861 1.774-3.451 2.373-1.588 0.597-3.218 0.821-4.891 0.671-1.674-0.15-2.902-0.723-3.686-1.715 0.606-0.722 1.095-1.325 1.461-1.811 0.365-0.485 0.729-1.056 1.076-1.716 0.354-0.661 0.562-1.251 0.633-1.774 0.07-0.521 0.016-1.086-0.172-1.695-0.186-0.608-0.535-1.188-1.047-1.738 0.573-0.896 0.769-1.856 0.597-2.885-0.175-1.031-0.669-1.928-1.485-2.695-0.814-0.764-1.815-1.216-2.997-1.349-7.409 2.194-14.405 7.43-20.989 15.701-0.992 0.206-1.928 0.021-2.801-0.556-0.878-0.573-1.418-1.355-1.623-2.35l-2.281-10.993c-1.011 0.21-1.949 0.03-2.812-0.537-0.863-0.564-1.401-1.354-1.611-2.369-0.209-1.009-0.029-1.946 0.537-2.812 0.565-0.864 1.354-1.4 2.367-1.61l-2.285-10.995zm29.494 13.202l-1.604-7.728c-7.301 0.696-15.307-1.056-24.021-5.259l5.664 27.31c6.28-7.253 12.934-12.028 19.961-14.323z" opacity=".4"/>
		<path d="m21.815 542.6c0.066 0.507 0.061 1.178-0.012 2.02-0.073 0.839-0.179 1.505-0.317 2-0.257 0.989-1.228 2.128-2.915 3.415-1.574 1.181-3.192 1.877-4.854 2.095-0.487 0.063-0.966 0.093-1.436 0.086-0.467-5e-3 -1.003-0.053-1.604-0.146-0.6-0.092-1.048-0.173-1.341-0.24-0.293-0.064-0.819-0.193-1.579-0.38-0.76-0.186-1.225-0.298-1.394-0.332-1.857-0.424-3.539-0.995-5.048-1.713-2.507-1.179-5.161-2.888-7.961-5.125-2.801-2.237-5.073-4.464-6.815-6.676-1.056-1.33-2.02-2.873-2.893-4.631-0.077-0.159-0.299-0.599-0.668-1.312-0.37-0.716-0.623-1.21-0.761-1.488-0.137-0.278-0.326-0.705-0.567-1.286-0.241-0.577-0.426-1.104-0.551-1.573-0.126-0.468-0.221-0.956-0.288-1.463-0.226-1.726 8e-3 -3.531 0.698-5.414 0.764-2.024 1.572-3.295 2.425-3.808 0.423-0.266 1.017-0.543 1.777-0.834 0.763-0.289 1.387-0.466 1.875-0.529 0.252-0.034 0.445-0.03 0.581 9e-3 0.339 0.07 0.912 0.719 1.715 1.948 0.245 0.33 0.582 0.803 1.012 1.414 0.429 0.611 0.822 1.164 1.183 1.662 0.357 0.496 0.704 0.961 1.035 1.395 0.064 0.067 0.254 0.28 0.566 0.64 0.313 0.36 0.552 0.671 0.714 0.925 0.162 0.255 0.261 0.513 0.294 0.776 0.049 0.374-0.146 0.879-0.589 1.507-0.44 0.631-0.932 1.218-1.477 1.769-0.544 0.546-1.039 1.116-1.484 1.711-0.446 0.592-0.647 1.056-0.603 1.393 0.022 0.171 0.095 0.376 0.218 0.615 0.123 0.242 0.226 0.424 0.306 0.549 0.082 0.122 0.236 0.332 0.467 0.625 0.232 0.296 0.359 0.459 0.382 0.494 1.709 2.39 3.57 4.386 5.582 5.993 2.011 1.606 4.347 2.959 7.008 4.062 0.039 0.013 0.225 0.101 0.557 0.255 0.333 0.157 0.567 0.26 0.702 0.31s0.33 0.105 0.586 0.166c0.257 0.062 0.465 0.082 0.629 0.062 0.326-0.044 0.706-0.363 1.142-0.966 0.435-0.601 0.839-1.244 1.208-1.931 0.369-0.688 0.79-1.335 1.262-1.94 0.473-0.606 0.889-0.93 1.25-0.979 0.253-0.032 0.52-1e-3 0.799 0.097 0.278 0.097 0.625 0.257 1.04 0.478 0.416 0.224 0.663 0.356 0.743 0.403 0.487 0.224 1.01 0.452 1.563 0.683 0.556 0.233 1.17 0.487 1.851 0.761 0.677 0.271 1.203 0.491 1.572 0.65 1.351 0.491 2.103 0.899 2.254 1.223 0.075 0.121 0.127 0.314 0.161 0.575z" opacity=".4"/>
		<path d="m1451.1 378.37c2.861 2.455 4.578 5.364 5.149 8.729s-0.091 6.677-1.983 9.939c-1.891 3.26-4.75 6.068-8.579 8.423-3.827 2.354-8.154 3.943-12.984 4.762-2.175 0.369-4.433 0.555-6.774 0.551-2.771 2.665-6.023 4.812-9.756 6.438-0.87 0.373-1.926 0.751-3.161 1.135l-0.115 0.021c-0.278 0.047-0.554-5e-3 -0.826-0.159-0.274-0.152-0.461-0.382-0.565-0.688-0.035-0.07-0.064-0.146-0.078-0.232-0.014-0.082-0.021-0.164-0.021-0.239 1e-3 -0.074 0.014-0.151 0.041-0.228 0.024-0.08 0.046-0.145 0.062-0.2 0.017-0.054 0.051-0.126 0.099-0.221 0.049-0.097 0.09-0.164 0.121-0.209 0.031-0.041 0.08-0.112 0.141-0.211 0.061-0.094 0.104-0.158 0.123-0.188 0.104-0.168 0.342-0.518 0.721-1.057 0.376-0.539 0.645-0.951 0.803-1.241 0.161-0.286 0.384-0.684 0.676-1.193 0.292-0.513 0.527-1.031 0.709-1.559 0.184-0.532 0.354-1.107 0.508-1.732-3.432-1.212-6.26-2.938-8.486-5.174-2.226-2.237-3.583-4.797-4.074-7.68-0.57-3.364 0.09-6.676 1.984-9.938 1.893-3.261 4.75-6.069 8.577-8.427 3.829-2.356 8.155-3.942 12.984-4.763 4.831-0.82 9.441-0.749 13.831 0.213 4.386 0.965 8.011 2.673 10.873 5.128zm21.292 15.556c0.492 2.907 0.054 5.777-1.31 8.61-1.369 2.837-3.471 5.39-6.311 7.665 0.352 0.538 0.703 1.029 1.049 1.466 0.35 0.443 0.742 0.852 1.186 1.237 0.443 0.385 0.785 0.691 1.032 0.91 0.245 0.222 0.636 0.522 1.17 0.904 0.533 0.385 0.874 0.637 1.026 0.76 0.024 0.02 0.089 0.064 0.178 0.138 0.09 0.073 0.156 0.124 0.203 0.151 0.043 0.031 0.104 0.084 0.181 0.156 0.077 0.074 0.132 0.135 0.167 0.179 0.033 0.043 0.075 0.099 0.123 0.165 0.053 0.065 0.09 0.134 0.115 0.207 0.024 0.071 0.045 0.145 0.057 0.23 0.019 0.087 0.016 0.168 3e-3 0.242-0.019 0.354-0.138 0.647-0.356 0.883-0.22 0.236-0.484 0.368-0.791 0.396-1.294 0.044-2.412 0.038-3.358-0.027-4.06-0.311-7.837-1.261-11.336-2.86-2.208 0.771-4.401 1.345-6.575 1.713-6.853 1.163-13.09 0.574-18.716-1.76 1.484-0.152 2.606-0.291 3.362-0.419 4.072-0.691 7.888-1.896 11.443-3.623 3.556-1.724 6.632-3.852 9.221-6.381 2.779-2.766 4.771-5.746 5.973-8.936 1.203-3.196 1.529-6.414 0.979-9.659-0.316-1.867-0.922-3.656-1.812-5.372 3.556 1.165 6.5 2.884 8.837 5.153 2.333 2.269 3.753 4.894 4.26 7.872z" opacity=".4"/>
		<path d="m1140.5 798.24c-0.6 1.545-1.653 2.834-3.157 3.873-1.504 1.035-3.165 1.775-4.98 2.219-9.339 2.25-15.149 3.654-17.438 4.208-0.248 0.06-0.777 0.196-1.593 0.411-0.812 0.211-1.488 0.379-2.017 0.502-0.53 0.118-1.163 0.24-1.896 0.359-0.733 0.12-1.397 0.166-1.994 0.139-0.6-0.03-1.12-0.133-1.569-0.307l-0.029-0.012-0.03-0.014c-0.451-0.173-0.904-0.449-1.365-0.83-0.46-0.382-0.918-0.865-1.379-1.449-0.462-0.583-0.846-1.098-1.158-1.544-0.308-0.448-0.693-1.026-1.149-1.731-0.458-0.705-0.757-1.166-0.9-1.377-1.296-1.945-3.164-4.724-5.61-8.342-2.446-3.617-3.912-5.789-4.393-6.517-0.894-1.292-1.6-2.868-2.119-4.723-0.517-1.854-0.535-3.397-0.058-4.63 0.591-1.526 1.49-2.639 2.698-3.34 1.205-0.703 2.561-0.765 4.069-0.182l43.195 16.765c1.271 0.495 2.192 1.384 2.766 2.663 0.57 1.281 0.607 2.566 0.106 3.859zm-3.348 8.625l-9.041 23.3c-0.501 1.292-1.391 2.221-2.667 2.784-1.277 0.561-2.558 0.592-3.851 0.092l-43.196-16.765c-1.293-0.501-2.221-1.39-2.781-2.665-0.563-1.276-0.593-2.562-0.092-3.854l9.043-23.3c0.487 1.294 1.146 2.528 1.974 3.703 5.213 7.563 8.765 12.823 10.654 15.785 0.796 1.255 1.453 2.247 1.968 2.977 0.519 0.728 1.258 1.558 2.227 2.481 0.969 0.928 1.952 1.586 2.949 1.973l0.03 0.011 0.029 0.012c0.998 0.387 2.165 0.566 3.506 0.534 1.34-0.03 2.447-0.139 3.319-0.332 0.874-0.189 2.027-0.479 3.461-0.871 4.261-1.113 10.439-2.596 18.542-4.451 1.413-0.329 2.721-0.8 3.926-1.414z" opacity=".4"/>
		<path d="m1456.5 569.31c0.849 0.619 1.198 1.443 1.042 2.473l-9.883 59.301c-0.131 0.746-0.539 1.324-1.235 1.736-0.36 0.205-0.759 0.311-1.196 0.311-0.285 0-0.593-0.063-0.928-0.191l-17.489-7.145-9.344 11.391c-0.463 0.591-1.092 0.888-1.892 0.888-0.334 0-0.617-0.054-0.848-0.154-0.49-0.18-0.884-0.483-1.179-0.909-0.296-0.423-0.443-0.893-0.443-1.409v-13.472l33.356-40.885-41.271 35.71-15.249-6.255c-0.953-0.361-1.467-1.066-1.544-2.124-0.053-1.026 0.359-1.787 1.234-2.276l64.243-37.062c0.386-0.232 0.798-0.347 1.234-0.347 0.518-2e-3 0.979 0.14 1.392 0.419z" opacity=".4"/>
		<path d="m259.58 12.836c0.849 0.619 1.198 1.443 1.042 2.473l-9.883 59.301c-0.131 0.746-0.539 1.324-1.235 1.736-0.36 0.205-0.759 0.311-1.196 0.311-0.285 0-0.593-0.063-0.928-0.191l-17.489-7.145-9.344 11.391c-0.463 0.591-1.092 0.888-1.892 0.888-0.334 0-0.617-0.054-0.848-0.154-0.49-0.18-0.884-0.483-1.179-0.909-0.296-0.423-0.443-0.893-0.443-1.409v-13.474l33.356-40.885-41.271 35.71-15.249-6.255c-0.953-0.361-1.467-1.066-1.544-2.124-0.053-1.026 0.359-1.787 1.234-2.276l64.243-37.062c0.386-0.232 0.798-0.347 1.234-0.347 0.518 0 0.979 0.141 1.392 0.421z" opacity=".4"/>
		<path d="m247.77 706.48c1.482 1.691 1.816 3.575 1.005 5.647l-48.644 119c-0.625 1.493-1.754 2.504-3.403 3.033-0.847 0.26-1.728 0.289-2.641 0.082-0.591-0.135-1.202-0.414-1.839-0.837l-38.505-26.931-29.962 20.889c-1.218 0.905-2.607 1.184-4.165 0.828-0.752-0.169-1.344-0.42-1.78-0.738-0.936-0.606-1.596-1.424-1.987-2.441-0.391-1.02-0.459-2.063-0.217-3.141l8.25-36.388-34.482-24.155c-1.815-1.205-2.551-2.92-2.216-5.164 0.315-2.123 1.533-3.518 3.655-4.161l151.5-46.915c2.133-0.698 3.945-0.237 5.436 1.396zm-54.893 114.45l41.937-102.48-130.54 40.406 24.547 17.164 81.148-35.694-53.035 55.447 35.947 25.16z" opacity=".4"/>
	</g>
</svg>
