<?xml version="1.0" encoding="UTF-8"?>
<!DOCTYPE svg  PUBLIC '-//W3C//DTD SVG 1.1//EN'  'http://www.w3.org/Graphics/SVG/1.1/DTD/svg11.dtd'>
<svg width="1436px" height="1346px" enable-background="new 0.5 -568 1436 1346" version="1.1" viewBox="0.5 -568 1436 1346" xml:space="preserve" xmlns="http://www.w3.org/2000/svg" xmlns:xlink="http://www.w3.org/1999/xlink">
<title>BG_icon1</title>
<desc>Created with Sketch.</desc>
	<defs>
		<rect id="b" x=".5" y="-568" width="1436" height="1346"/>
	</defs>
	<clipPath id="a">
		<use overflow="visible" xlink:href="#b"/>
	</clipPath>
	<rect x=".5" y="-568" width="1436" height="1346" clip-path="url(#a)" fill="#FBB03B"/>
	<path d="m38.308 180.28c-0.707 4.162-3.584 8.027-8.625 11.605l-20.465 13.95c-0.397 0.282-0.839 0.381-1.329 0.298-0.489-0.084-0.873-0.323-1.155-0.72l-14.729-19.988c-0.164-0.183-0.38-0.472-0.651-0.866-0.271-0.393-0.689-1.1-1.252-2.115-0.564-1.016-1.047-2.041-1.453-3.079-0.403-1.035-0.715-2.259-0.929-3.673-0.216-1.41-0.216-2.746-3e-3 -4.009 0.704-4.139 2.449-7.174 5.236-9.1 2.788-1.927 6.289-2.533 10.504-1.817 1.167 0.198 2.322 0.602 3.468 1.214 1.145 0.61 2.182 1.349 3.109 2.213 0.927 0.865 1.716 1.661 2.367 2.392 0.651 0.729 1.256 1.491 1.82 2.283 0.792-0.562 1.617-1.08 2.471-1.554 0.855-0.475 1.863-0.966 3.024-1.476 1.162-0.51 2.384-0.863 3.667-1.062 1.282-0.198 2.507-0.198 3.673 1e-3 4.215 0.715 7.32 2.443 9.313 5.184 1.997 2.739 2.642 6.18 1.939 10.319zm-3.614-0.614c0.258-1.523 0.285-2.904 0.08-4.139-0.208-1.236-0.566-2.252-1.081-3.047-0.514-0.792-1.187-1.482-2.016-2.069-0.829-0.585-1.665-1.028-2.505-1.326s-1.749-0.531-2.728-0.696c-0.98-0.167-2.074-0.105-3.285 0.184-1.21 0.288-2.354 0.715-3.425 1.276-1.075 0.562-2.004 1.104-2.787 1.616-0.787 0.516-1.449 0.999-1.99 1.45-0.41 0.354-0.906 0.484-1.489 0.386-0.584-0.1-1.011-0.386-1.279-0.857-0.362-0.604-0.828-1.277-1.399-2.023-0.569-0.745-1.269-1.562-2.096-2.447-0.826-0.886-1.764-1.665-2.812-2.337-1.048-0.673-2.062-1.092-3.04-1.258-0.98-0.167-1.915-0.246-2.806-0.244-0.892 5e-3 -1.824 0.146-2.801 0.425s-1.84 0.709-2.587 1.289c-0.748 0.58-1.421 1.419-2.025 2.517-0.603 1.099-1.032 2.41-1.292 3.935-0.539 3.161 0.654 6.801 3.576 10.918l13.715 18.593 19.057-12.998c4.14-2.936 6.478-5.986 7.015-9.148z" clip-path="url(#a)" fill="#fff" opacity=".4"/>
	<path d="m1400.7 222.78l2.189 8.479c0.109 0.412 0.064 0.787-0.133 1.119-0.194 0.335-0.502 0.554-0.913 0.664l-8.481 2.188c-0.412 0.108-0.789 0.062-1.119-0.135-0.333-0.195-0.552-0.501-0.658-0.912l-2.195-8.483c-0.104-0.41-0.059-0.783 0.137-1.117 0.196-0.333 0.5-0.554 0.911-0.66l8.483-2.192c0.41-0.106 0.783-0.062 1.121 0.137 0.328 0.193 0.55 0.5 0.658 0.912zm15.5-10.04l3.654 14.138c0.106 0.412 0.061 0.782-0.137 1.117-0.195 0.332-0.5 0.555-0.91 0.659l-8.48 2.195c-0.414 0.104-0.79 0.061-1.121-0.137-0.334-0.194-0.555-0.5-0.659-0.912l-3.655-14.14c-0.102-0.411-0.061-0.779 0.134-1.116 0.198-0.332 0.501-0.553 0.916-0.659l8.479-2.189c0.412-0.11 0.787-0.066 1.119 0.132 0.332 0.199 0.553 0.501 0.66 0.912zm14.041-15.688l6.573 25.439c0.106 0.412 0.064 0.787-0.132 1.119-0.197 0.335-0.501 0.554-0.916 0.661l-8.479 2.191c-0.414 0.108-0.786 0.064-1.119-0.135-0.333-0.195-0.554-0.502-0.657-0.914l-6.578-25.439c-0.106-0.416-0.061-0.787 0.133-1.121 0.194-0.333 0.502-0.555 0.912-0.661l8.483-2.191c0.412-0.106 0.785-0.062 1.117 0.135 0.336 0.197 0.553 0.5 0.663 0.916zm12.576-21.35l10.963 42.406c0.105 0.413 0.061 0.785-0.137 1.118-0.194 0.332-0.498 0.555-0.913 0.665l-8.481 2.188c-0.414 0.106-0.785 0.062-1.119-0.135-0.331-0.198-0.553-0.5-0.658-0.913l-10.961-42.406c-0.107-0.411-0.062-0.787 0.133-1.121 0.197-0.331 0.502-0.552 0.914-0.66l8.481-2.191c0.414-0.105 0.783-0.061 1.118 0.136 0.334 0.196 0.552 0.5 0.66 0.913zm11.118-27.002l16.808 65.022c0.106 0.412 0.059 0.787-0.137 1.119-0.197 0.335-0.5 0.555-0.912 0.661l-8.48 2.189c-0.414 0.108-0.786 0.062-1.121-0.133-0.334-0.197-0.551-0.502-0.659-0.916l-16.808-65.021c-0.106-0.41-0.061-0.783 0.135-1.115 0.197-0.335 0.502-0.558 0.914-0.664l8.482-2.19c0.412-0.11 0.783-0.062 1.115 0.135 0.336 0.196 0.556 0.501 0.663 0.913z" clip-path="url(#a)" fill="#fff" opacity=".4"/>
	<path d="m1440.1 288.8c4.836 3.299 8.541 7.653 11.113 13.062 2.571 5.407 3.611 11.029 3.119 16.863-0.495 5.835-2.392 11.172-5.691 16.01-3.299 4.836-7.653 8.542-13.061 11.114-5.409 2.572-11.031 3.61-16.866 3.118-5.834-0.493-11.171-2.391-16.008-5.69-4.836-3.299-8.541-7.653-11.112-13.062-2.572-5.408-3.612-11.03-3.12-16.863 0.493-5.835 2.39-11.172 5.688-16.009 3.301-4.837 7.654-8.543 13.062-11.115s11.031-3.61 16.864-3.118c5.836 0.494 11.173 2.391 16.012 5.69zm4.626 29.142c0.349-4.134-0.387-8.114-2.208-11.944-1.821-3.829-4.445-6.913-7.872-9.251-3.428-2.334-7.209-3.677-11.341-4.028-4.134-0.351-8.114 0.384-11.945 2.205-3.829 1.821-6.912 4.447-9.248 7.874-2.338 3.428-3.68 7.208-4.031 11.339-0.35 4.135 0.385 8.117 2.206 11.946 1.821 3.83 4.446 6.911 7.874 9.249 3.428 2.336 7.206 3.681 11.341 4.028 4.132 0.352 8.114-0.384 11.944-2.205s6.911-4.446 9.248-7.874c2.336-3.425 3.681-7.205 4.032-11.339zm-24.853-17.928l8.271 17.39c0.172 0.361 0.196 0.715 0.075 1.058-0.121 0.344-0.365 0.603-0.728 0.774l-12.42 5.906c-0.362 0.173-0.716 0.198-1.059 0.076-0.344-0.122-0.602-0.364-0.773-0.726l-1.183-2.485c-0.172-0.362-0.197-0.716-0.074-1.059 0.121-0.344 0.364-0.602 0.727-0.773l8.694-4.136-6.498-13.663c-0.172-0.362-0.197-0.717-0.075-1.059 0.121-0.344 0.363-0.603 0.727-0.775l2.483-1.181c0.362-0.172 0.717-0.198 1.06-0.074 0.341 0.122 0.601 0.364 0.773 0.727z" clip-path="url(#a)" fill="#fff" opacity=".4"/>
	<path d="m21.76-56.404l-19.783 26.887c-0.718 0.971-1.679 1.551-2.889 1.733-1.184 0.182-2.286-0.083-3.304-0.792l-4.19-3.144c-0.99-0.687-1.58-1.649-1.768-2.88-0.185-1.208 0.092-2.312 0.825-3.31l19.754-26.848c1.229 2.1 2.838 3.881 4.82 5.34 1.986 1.462 4.162 2.469 6.535 3.014zm-20.264 19.365c0.368-0.5 0.506-1.047 0.416-1.64-0.09-0.594-0.385-1.075-0.885-1.44-0.499-0.368-1.044-0.507-1.639-0.416-0.594 0.091-1.074 0.386-1.439 0.886-0.367 0.497-0.509 1.044-0.417 1.64 0.091 0.591 0.384 1.071 0.884 1.438 0.502 0.369 1.046 0.505 1.638 0.417 0.595-0.09 1.073-0.386 1.442-0.885zm39.688-37.546c0.137 0.888 0.059 2.137-0.231 3.745-0.61 3.222-2.108 5.985-4.496 8.299-2.392 2.312-5.194 3.713-8.411 4.201-4.221 0.644-8.056-0.307-11.514-2.85-3.455-2.542-5.504-5.925-6.149-10.144-0.64-4.221 0.31-8.059 2.853-11.514 2.542-3.457 5.923-5.506 10.145-6.149 1.322-0.2 2.736-0.223 4.24-0.066 1.509 0.156 2.814 0.499 3.922 1.032 0.406 0.194 0.635 0.486 0.693 0.875 0.059 0.387-0.074 0.734-0.399 1.041l-9.147 7.305 1.167 7.666 7.158 2.652c0.105-0.084 0.923-0.771 2.452-2.066s2.934-2.454 4.213-3.477c1.283-1.024 2.021-1.551 2.229-1.584 0.34-0.051 0.627 0.022 0.857 0.221 0.227 0.2 0.367 0.47 0.418 0.813z" clip-path="url(#a)" fill="#fff" opacity=".4"/>
	<path d="m105.88 766.67c-2.184 2.108-4.762 3.437-7.736 3.986-0.597 1.003-1.336 1.93-2.219 2.782-1.887 1.822-4.104 3.062-6.645 3.717-0.444 0.57-0.936 1.116-1.475 1.636-2.477 2.393-5.369 3.764-8.677 4.115-3.386 3.315-7.081 4.871-11.091 4.67-4.011-0.204-7.685-2.033-11.022-5.49l-1.278-1.324-3.303-3.42c-2.272-2.354-4.24-4.943-5.902-7.769s-3.421-6.255-5.279-10.288c-1.767-3.791-2.908-5.956-3.43-6.495l-10.227-10.592c-1.256-1.3-1.866-2.853-1.835-4.661 0.03-1.806 0.696-3.336 1.996-4.592l23.536-22.728c1.301-1.255 2.854-1.867 4.66-1.835 1.808 0.032 3.338 0.696 4.594 1.996l9.73 10.077c1.44 0.313 4.963 0.158 10.564-0.466 3.213-0.354 6.047-0.558 8.508-0.61 1.18-4e-3 2.648-0.581 4.404-1.731s3.668-2.273 5.736-3.37 4.125-1.615 6.173-1.556c1.831 0.08 3.35 0.746 4.558 1.996 1.988 2.061 3.377 4.295 4.167 6.708 0.788 2.412 0.753 4.862-0.11 7.354s-2.729 5.122-5.598 7.893c-2.28 2.202-5.202 3.887-8.766 5.053l6.25 6.474c2.462 2.55 3.662 5.656 3.597 9.318-0.063 3.663-1.356 6.714-3.88 9.152zm-69.008-25.684c0.916 0.016 1.693-0.284 2.33-0.899 0.638-0.616 0.964-1.382 0.981-2.297 0.015-0.915-0.284-1.692-0.899-2.329-0.617-0.639-1.383-0.965-2.297-0.981-0.916-0.015-1.692 0.284-2.33 0.9-0.638 0.615-0.965 1.382-0.98 2.297-0.018 0.916 0.283 1.691 0.899 2.329 0.616 0.637 1.38 0.964 2.296 0.98zm64.424 21.013c1.251-1.208 1.886-2.745 1.906-4.613 0.021-1.867-0.561-3.415-1.744-4.641l-12.501-12.945c1.421-1.372 3.946-2.673 7.571-3.898 3.625-1.227 6.16-2.537 7.606-3.935 2.403-2.319 3.802-4.43 4.196-6.326 0.395-1.898-0.545-4.022-2.817-6.376-1.253-0.022-2.744 0.519-4.475 1.62-1.731 1.103-3.631 2.215-5.698 3.336-2.07 1.122-4.117 1.688-6.141 1.7-1.086 6e-3 -3.111 0.138-6.082 0.4-0.217 0.02-0.857 0.093-1.92 0.22-1.062 0.125-1.938 0.225-2.625 0.297-0.689 0.071-1.619 0.153-2.789 0.241-1.171 0.088-2.184 0.118-3.039 0.091s-1.745-0.08-2.672-0.156c-0.928-0.075-1.731-0.247-2.414-0.512-0.683-0.264-1.213-0.594-1.592-0.985l-1.137-1.177-23.534 22.727 1.137 1.177c0.307 0.318 0.643 0.74 1.009 1.265 0.364 0.524 0.674 1.007 0.932 1.445s0.573 1.033 0.946 1.786c0.37 0.755 0.646 1.32 0.818 1.697 0.175 0.376 0.44 0.96 0.802 1.749 0.36 0.79 0.574 1.269 0.644 1.44 3.205 6.901 6.358 11.957 9.46 15.169l4.298 4.45c4.545 4.707 8.866 5.083 12.96 1.13 0.637-0.615 1.264-1.339 1.883-2.173 1.102 0.358 2.307 0.318 3.617-0.116 1.309-0.437 2.417-1.091 3.324-1.968 0.906-0.875 1.539-1.913 1.897-3.111 2.479 0.115 4.567-0.643 6.259-2.276 0.613-0.592 1.174-1.372 1.686-2.339 0.512-0.968 0.797-1.836 0.859-2.606 0.781 0.762 1.991 0.86 3.628 0.299 1.635-0.563 2.884-1.257 3.742-2.086z" clip-path="url(#a)" fill="#fff" opacity=".4"/>
	<path d="m120.49 618.14c2.444 3.1 3.326 7.521 2.646 13.263l-3.153 22.953c-0.054 0.451-0.263 0.82-0.627 1.108-0.364 0.287-0.772 0.403-1.224 0.351l-23.109-2.313c-0.229-1e-3 -0.566-0.032-1.01-0.091s-1.195-0.211-2.254-0.458c-1.059-0.245-2.073-0.553-3.047-0.923-0.974-0.369-2.018-0.921-3.133-1.658-1.114-0.734-2.042-1.573-2.783-2.513-2.432-3.084-3.443-6.198-3.033-9.341s2.186-5.953 5.327-8.43c0.869-0.686 1.874-1.234 3.017-1.646 1.143-0.411 2.305-0.668 3.486-0.77s2.23-0.149 3.145-0.144c0.914 7e-3 1.824 0.063 2.727 0.17 0.107-0.902 0.264-1.8 0.471-2.69s0.498-1.898 0.873-3.024 0.896-2.195 1.562-3.211c0.667-1.015 1.435-1.863 2.305-2.549 3.142-2.477 6.288-3.548 9.439-3.214 3.151 0.336 5.944 2.046 8.375 5.13zm-2.692 2.123c-0.896-1.135-1.837-2.019-2.823-2.65-0.987-0.632-1.917-1.019-2.791-1.16-0.873-0.141-1.773-0.107-2.701 0.1-0.927 0.209-1.758 0.511-2.49 0.908-0.734 0.396-1.467 0.881-2.195 1.456s-1.373 1.373-1.932 2.395c-0.561 1.021-0.98 2.081-1.264 3.178-0.283 1.099-0.49 2.082-0.625 2.949-0.135 0.868-0.215 1.631-0.242 2.289-0.01 0.507-0.231 0.933-0.666 1.275-0.436 0.343-0.9 0.459-1.396 0.35-0.646-0.127-1.406-0.227-2.282-0.299-0.875-0.071-1.879-0.098-3.014-0.079-1.133 0.019-2.262 0.18-3.385 0.486s-2.051 0.746-2.779 1.32c-0.729 0.575-1.372 1.174-1.928 1.794-0.558 0.621-1.045 1.358-1.464 2.211-0.419 0.854-0.661 1.722-0.728 2.604-0.066 0.883 0.093 1.877 0.477 2.984 0.385 1.107 1.024 2.228 1.92 3.364 1.857 2.355 5.131 3.811 9.82 4.365l21.508 2.144 2.93-21.377c0.557-4.716-0.092-8.251-1.95-10.607z" clip-path="url(#a)" fill="#fff" opacity=".4"/>
	<path d="m174.83 716.14l-1.48 3.328c-0.053 0.12-0.146 0.219-0.281 0.296-0.135 0.076-0.259 0.097-0.373 0.061l-2.98-0.809c-0.318 0.361-0.713 0.732-1.184 1.112 0.152 0.757 0.385 1.687 0.699 2.79 0.031 0.157 0.02 0.296-0.033 0.415-0.064 0.145-0.158 0.239-0.279 0.287-0.436 0.236-1.169 0.554-2.199 0.95-1.032 0.396-1.662 0.544-1.89 0.442-0.132-0.059-0.239-0.156-0.321-0.294l-1.35-2.539c-0.546 0.03-1.09 0.011-1.634-0.06-0.708 1.237-1.259 2.106-1.653 2.607-0.213 0.25-0.457 0.313-0.732 0.191l-3.348-1.488c-0.133-0.06-0.231-0.157-0.3-0.295-0.067-0.139-0.081-0.27-0.04-0.396l0.81-2.937c-0.354-0.302-0.722-0.688-1.101-1.158l-2.836 0.658c-0.121 0.046-0.26 0.035-0.416-0.034-0.133-0.059-0.237-0.163-0.314-0.312-1.018-2.363-1.455-3.708-1.312-4.031 0.048-0.108 0.142-0.203 0.278-0.286 0.195-0.114 0.582-0.323 1.162-0.625 0.58-0.304 1.023-0.544 1.334-0.722-0.042-0.651-0.033-1.236 0.025-1.757l-2.543-1.647c-0.115-0.065-0.191-0.168-0.23-0.307-0.038-0.14-0.028-0.275 0.031-0.407l1.479-3.329c0.054-0.12 0.148-0.218 0.282-0.295 0.134-0.076 0.259-0.097 0.372-0.061l2.982 0.808c0.318-0.361 0.712-0.731 1.183-1.111-0.151-0.758-0.385-1.688-0.699-2.79-0.024-0.17-0.014-0.309 0.034-0.416 0.064-0.145 0.159-0.245 0.285-0.304 0.424-0.243 1.154-0.558 2.188-0.945 1.034-0.389 1.665-0.531 1.894-0.431 0.132 0.06 0.239 0.157 0.322 0.295l1.35 2.538c0.503-0.034 1.051-0.021 1.641 0.041 0.709-1.237 1.257-2.1 1.646-2.587 0.212-0.251 0.455-0.315 0.732-0.192l3.347 1.487c0.132 0.059 0.231 0.158 0.3 0.296s0.081 0.27 0.04 0.395l-0.81 2.938c0.354 0.302 0.721 0.688 1.102 1.157l2.835-0.657c0.134-0.041 0.272-0.029 0.416 0.034 0.132 0.059 0.237 0.162 0.313 0.312 1.02 2.364 1.456 3.707 1.312 4.032-0.048 0.107-0.141 0.202-0.277 0.285-0.23 0.129-0.626 0.34-1.188 0.637-0.562 0.296-0.993 0.535-1.29 0.719 0.02 0.699 4e-3 1.282-0.045 1.748l2.553 1.63c0.108 0.077 0.183 0.186 0.221 0.325 0.039 0.139 0.029 0.276-0.03 0.408zm-10.435 1.221c1.299-0.499 2.231-1.385 2.797-2.656s0.598-2.558 0.099-3.857c-0.5-1.3-1.386-2.232-2.657-2.798s-2.559-0.598-3.857-0.099c-1.3 0.501-2.232 1.387-2.798 2.658-0.565 1.271-0.599 2.558-0.099 3.856 0.5 1.301 1.387 2.232 2.658 2.798s2.556 0.599 3.857 0.098zm25.881-4.938l-1.119 2.52c-0.086 0.192-1.062-0.02-2.93-0.634-0.289 0.259-0.607 0.492-0.957 0.695 0.01 1.628-0.053 2.592-0.186 2.892-0.021 0.048-0.064 0.079-0.128 0.094-1.843 0.201-2.775 0.297-2.8 0.286-0.096-0.044-0.246-0.447-0.451-1.214s-0.336-1.313-0.393-1.64c-0.25-0.083-0.436-0.151-0.555-0.204-0.121-0.053-0.295-0.146-0.524-0.275-0.28 0.176-0.773 0.446-1.479 0.807-0.707 0.361-1.108 0.521-1.204 0.479-0.024-0.011-0.579-0.768-1.663-2.27-0.033-0.058-0.038-0.11-0.018-0.158 0.135-0.301 0.809-0.992 2.022-2.075-0.083-0.396-0.124-0.788-0.124-1.176-1.707-0.976-2.519-1.559-2.434-1.751l1.12-2.52c0.085-0.191 1.062 0.02 2.93 0.635 0.31-0.278 0.629-0.51 0.956-0.695-0.01-1.628 0.053-2.592 0.186-2.892 0.021-0.048 0.064-0.08 0.129-0.095 0.058-2e-3 0.321-0.029 0.789-0.079 0.469-0.051 0.912-0.098 1.334-0.141 0.422-0.042 0.644-0.058 0.668-0.048 0.096 0.043 0.248 0.444 0.456 1.205s0.339 1.304 0.396 1.631c0.25 0.082 0.436 0.15 0.557 0.204 0.119 0.054 0.294 0.146 0.523 0.275 0.99-0.579 1.841-1.006 2.552-1.279l0.124 0.013c0.047 0.021 0.604 0.771 1.672 2.252 0.031 0.057 0.036 0.109 0.016 0.157-0.134 0.3-0.809 0.992-2.022 2.075 0.081 0.367 0.122 0.759 0.124 1.176 1.707 0.974 2.519 1.557 2.433 1.75zm-8.192 18.427l-1.119 2.52c-0.086 0.192-1.062-0.02-2.93-0.635-0.289 0.261-0.607 0.492-0.957 0.697 0.01 1.627-0.053 2.591-0.186 2.891-0.021 0.049-0.064 0.079-0.128 0.095-1.843 0.201-2.775 0.296-2.8 0.285-0.096-0.043-0.246-0.447-0.451-1.214s-0.336-1.313-0.393-1.64c-0.25-0.083-0.436-0.15-0.556-0.203-0.12-0.054-0.294-0.146-0.524-0.276-0.279 0.177-0.772 0.445-1.479 0.808-0.706 0.36-1.108 0.52-1.203 0.478-0.024-0.011-0.579-0.768-1.664-2.27-0.032-0.058-0.038-0.11-0.017-0.158 0.134-0.3 0.809-0.992 2.022-2.075-0.083-0.396-0.124-0.788-0.124-1.176-1.708-0.976-2.52-1.558-2.434-1.75l1.12-2.52c0.085-0.191 1.062 0.02 2.929 0.634 0.311-0.277 0.63-0.511 0.957-0.695-0.01-1.628 0.053-2.592 0.186-2.892 0.021-0.048 0.064-0.08 0.129-0.095 0.058-2e-3 0.321-0.028 0.789-0.079 0.468-0.05 0.912-0.097 1.334-0.14 0.421-0.043 0.644-0.06 0.668-0.049 0.096 0.043 0.247 0.444 0.455 1.205 0.209 0.761 0.34 1.304 0.396 1.631 0.25 0.083 0.436 0.15 0.557 0.204 0.119 0.053 0.293 0.146 0.523 0.276 0.99-0.58 1.84-1.007 2.551-1.28l0.124 0.012c0.048 0.021 0.605 0.772 1.672 2.252 0.032 0.058 0.037 0.11 0.017 0.158-0.135 0.301-0.809 0.991-2.022 2.075 0.081 0.367 0.122 0.759 0.124 1.177 1.708 0.974 2.519 1.558 2.434 1.749zm3.025-19.216c0.277-0.623 0.289-1.264 0.036-1.923-0.254-0.659-0.691-1.127-1.315-1.404s-1.265-0.289-1.924-0.036c-0.659 0.254-1.127 0.692-1.403 1.315-0.283 0.638-0.3 1.28-0.05 1.93s0.692 1.116 1.329 1.398c0.636 0.282 1.279 0.299 1.928 0.049 0.65-0.25 1.116-0.693 1.399-1.329zm-8.193 18.428c0.277-0.623 0.29-1.265 0.037-1.924-0.254-0.658-0.691-1.126-1.315-1.403-0.624-0.278-1.266-0.289-1.925-0.036-0.658 0.254-1.126 0.692-1.402 1.315-0.283 0.637-0.3 1.279-0.05 1.929s0.692 1.116 1.329 1.398c0.635 0.283 1.278 0.3 1.928 0.049 0.65-0.249 1.116-0.692 1.398-1.328z" clip-path="url(#a)" fill="#fff" opacity=".4"/>
	<path d="m1420.9 751.26l-2.078 4.673c-0.074 0.168-0.206 0.307-0.396 0.415-0.188 0.107-0.363 0.136-0.523 0.085l-4.185-1.135c-0.447 0.507-1.001 1.028-1.662 1.562 0.214 1.062 0.54 2.368 0.981 3.917 0.044 0.221 0.028 0.416-0.046 0.583-0.091 0.203-0.223 0.336-0.393 0.403-0.611 0.331-1.641 0.777-3.088 1.334-1.449 0.557-2.334 0.764-2.653 0.621-0.185-0.082-0.336-0.22-0.451-0.413l-1.895-3.564c-0.767 0.042-1.53 0.015-2.294-0.084-0.994 1.737-1.768 2.958-2.321 3.661-0.299 0.351-0.642 0.44-1.028 0.269l-4.7-2.09c-0.187-0.083-0.325-0.221-0.421-0.414-0.095-0.194-0.114-0.378-0.057-0.555l1.137-4.123c-0.497-0.424-1.013-0.966-1.545-1.627l-3.982 0.925c-0.17 0.064-0.364 0.049-0.584-0.048-0.186-0.083-0.333-0.229-0.441-0.439-1.429-3.317-2.043-5.206-1.841-5.66 0.067-0.151 0.198-0.285 0.391-0.401 0.274-0.16 0.817-0.454 1.632-0.878 0.814-0.426 1.437-0.764 1.873-1.013-0.06-0.915-0.047-1.736 0.035-2.467l-3.57-2.313c-0.162-0.092-0.269-0.235-0.323-0.431-0.054-0.195-0.04-0.386 0.044-0.571l2.075-4.674c0.075-0.169 0.209-0.307 0.396-0.414s0.363-0.136 0.522-0.085l4.188 1.134c0.447-0.508 1-1.027 1.66-1.561-0.212-1.064-0.54-2.369-0.981-3.917-0.034-0.239-0.02-0.434 0.048-0.585 0.091-0.202 0.224-0.344 0.4-0.426 0.595-0.342 1.621-0.783 3.072-1.327 1.452-0.546 2.338-0.746 2.659-0.605 0.185 0.084 0.336 0.221 0.452 0.414l1.896 3.564c0.706-0.049 1.476-0.029 2.304 0.058 0.995-1.737 1.764-2.948 2.312-3.633 0.297-0.353 0.639-0.442 1.028-0.27l4.698 2.088c0.186 0.082 0.325 0.222 0.421 0.415 0.097 0.193 0.114 0.379 0.057 0.555l-1.137 4.124c0.496 0.424 1.012 0.965 1.547 1.625l3.98-0.923c0.188-0.058 0.383-0.041 0.584 0.048 0.186 0.082 0.333 0.228 0.44 0.438 1.431 3.319 2.044 5.205 1.843 5.661-0.067 0.151-0.197 0.284-0.39 0.4-0.323 0.182-0.879 0.478-1.669 0.895-0.79 0.415-1.395 0.751-1.812 1.009 0.028 0.981 6e-3 1.801-0.062 2.454l3.584 2.289c0.152 0.108 0.257 0.26 0.31 0.456 0.054 0.194 0.041 0.385-0.041 0.571zm-14.652 1.714c1.823-0.7 3.133-1.944 3.927-3.729s0.839-3.591 0.139-5.416c-0.702-1.825-1.946-3.135-3.731-3.928-1.785-0.794-3.593-0.84-5.416-0.139-1.825 0.703-3.134 1.946-3.928 3.732-0.794 1.783-0.841 3.591-0.139 5.414 0.702 1.826 1.946 3.135 3.732 3.929 1.786 0.795 3.589 0.841 5.416 0.137zm36.338-6.933l-1.571 3.537c-0.121 0.271-1.492-0.027-4.114-0.89-0.405 0.363-0.853 0.691-1.343 0.977 0.014 2.285-0.074 3.639-0.261 4.06-0.03 0.067-0.091 0.111-0.18 0.132-2.588 0.282-3.897 0.417-3.932 0.401-0.134-0.062-0.345-0.628-0.633-1.704s-0.472-1.844-0.552-2.302c-0.351-0.117-0.611-0.213-0.778-0.287-0.17-0.074-0.414-0.204-0.736-0.387-0.394 0.247-1.086 0.627-2.077 1.133-0.993 0.508-1.557 0.73-1.691 0.672-0.034-0.015-0.812-1.078-2.335-3.187-0.046-0.081-0.053-0.155-0.024-0.222 0.189-0.423 1.136-1.394 2.84-2.914-0.117-0.557-0.174-1.106-0.174-1.651-2.397-1.369-3.537-2.188-3.417-2.458l1.572-3.537c0.119-0.27 1.49 0.027 4.113 0.891 0.435-0.391 0.884-0.716 1.343-0.976-0.014-2.286 0.074-3.64 0.261-4.061 0.03-0.067 0.09-0.112 0.181-0.133 0.081-3e-3 0.451-0.041 1.107-0.111 0.658-0.071 1.281-0.137 1.873-0.197 0.593-0.059 0.904-0.081 0.938-0.067 0.134 0.061 0.348 0.624 0.64 1.692s0.477 1.83 0.556 2.29c0.351 0.115 0.611 0.211 0.781 0.286 0.168 0.075 0.413 0.204 0.735 0.387 1.391-0.813 2.584-1.412 3.583-1.796l0.174 0.018c0.065 0.028 0.849 1.083 2.348 3.162 0.044 0.079 0.051 0.153 0.021 0.221-0.188 0.421-1.135 1.393-2.84 2.913 0.114 0.516 0.172 1.065 0.175 1.651 2.398 1.368 3.537 2.186 3.417 2.457zm-11.501 25.873l-1.572 3.538c-0.12 0.27-1.491-0.027-4.113-0.892-0.405 0.366-0.853 0.691-1.344 0.979 0.014 2.285-0.074 3.638-0.26 4.059-0.03 0.069-0.091 0.111-0.18 0.134-2.588 0.282-3.897 0.415-3.932 0.4-0.134-0.061-0.346-0.628-0.633-1.705-0.288-1.076-0.473-1.844-0.552-2.302-0.351-0.116-0.611-0.211-0.78-0.285-0.168-0.075-0.412-0.206-0.736-0.388-0.392 0.248-1.084 0.625-2.077 1.134-0.991 0.506-1.556 0.729-1.689 0.67-0.034-0.015-0.812-1.077-2.336-3.187-0.046-0.08-0.054-0.154-0.023-0.222 0.188-0.421 1.136-1.394 2.84-2.914-0.117-0.557-0.175-1.106-0.175-1.65-2.397-1.37-3.537-2.188-3.416-2.457l1.572-3.538c0.119-0.269 1.49 0.027 4.112 0.891 0.436-0.39 0.884-0.718 1.344-0.977-0.014-2.286 0.073-3.639 0.261-4.06 0.029-0.067 0.09-0.113 0.181-0.134 0.081-2e-3 0.451-0.039 1.107-0.11 0.657-0.07 1.281-0.136 1.873-0.196 0.591-0.061 0.903-0.084 0.938-0.068 0.134 0.06 0.347 0.623 0.639 1.691 0.293 1.068 0.477 1.831 0.557 2.29 0.351 0.116 0.611 0.211 0.781 0.286 0.168 0.074 0.411 0.205 0.735 0.389 1.39-0.814 2.583-1.414 3.581-1.798l0.174 0.017c0.067 0.03 0.851 1.084 2.348 3.162 0.045 0.08 0.053 0.154 0.023 0.222-0.189 0.423-1.135 1.392-2.84 2.914 0.114 0.516 0.172 1.065 0.175 1.652 2.397 1.366 3.536 2.186 3.417 2.455zm4.246-26.982c0.389-0.874 0.405-1.773 0.051-2.699-0.356-0.926-0.971-1.582-1.848-1.972-0.876-0.39-1.775-0.406-2.701-0.051-0.925 0.356-1.582 0.972-1.97 1.847-0.397 0.896-0.421 1.798-0.07 2.709 0.352 0.912 0.973 1.567 1.866 1.964 0.893 0.396 1.797 0.42 2.707 0.068 0.914-0.35 1.569-0.971 1.965-1.866zm-11.503 25.875c0.39-0.875 0.407-1.775 0.053-2.701-0.356-0.924-0.972-1.581-1.848-1.97-0.876-0.392-1.776-0.406-2.702-0.051-0.924 0.356-1.581 0.972-1.969 1.847-0.397 0.894-0.421 1.796-0.07 2.708 0.352 0.912 0.973 1.567 1.866 1.963 0.892 0.398 1.795 0.421 2.707 0.069 0.914-0.349 1.568-0.972 1.963-1.865z" clip-path="url(#a)" fill="#fff" opacity=".4"/>
	<path d="m1349.4 708.02c0 0.393-0.231 0.821-0.696 1.286l-9.723 9.481 2.303 13.394c0.018 0.124 0.027 0.303 0.027 0.535 0 0.893-0.367 1.34-1.099 1.34-0.339 0-0.696-0.107-1.071-0.322l-12.027-6.321-12.026 6.321c-0.394 0.215-0.75 0.322-1.071 0.322-0.375 0-0.656-0.13-0.844-0.389s-0.281-0.576-0.281-0.951c0-0.107 0.018-0.286 0.054-0.535l2.304-13.394-9.75-9.481c-0.447-0.482-0.67-0.911-0.67-1.286 0-0.66 0.5-1.071 1.5-1.232l13.446-1.955 6.026-12.188c0.34-0.732 0.777-1.099 1.312-1.099 0.536 0 0.974 0.366 1.312 1.099l6.027 12.188 13.446 1.955c1.001 0.161 1.501 0.572 1.501 1.232zm-14.116 9.563l8.197-7.955-11.305-1.661-5.062-10.232-5.062 10.232-11.303 1.661 8.196 7.955-1.956 11.276 10.125-5.33 10.099 5.33-1.929-11.276z" clip-path="url(#a)" fill="#fff" opacity=".4"/>
	<path d="m1425.6 557.26c-0.407-0.173-0.691-0.461-0.854-0.863l-8.645-20.381c-0.104-0.191-0.233-0.487-0.388-0.886-0.153-0.398-0.369-1.097-0.648-2.095-0.279-0.996-0.485-1.985-0.623-2.97-0.138-0.982-0.153-2.108-0.047-3.378 0.104-1.268 0.381-2.428 0.827-3.477 1.465-3.445 3.606-5.719 6.421-6.813 2.814-1.096 5.979-0.897 9.487 0.595 0.972 0.413 1.891 1.002 2.758 1.769 0.866 0.768 1.613 1.621 2.239 2.562 0.626 0.943 1.146 1.797 1.559 2.565 0.415 0.768 0.782 1.553 1.107 2.356 0.804-0.323 1.625-0.603 2.465-0.838 0.839-0.234 1.815-0.453 2.929-0.655 1.112-0.2 2.245-0.256 3.398-0.163 1.154 0.093 2.215 0.347 3.188 0.76 3.509 1.492 5.844 3.633 7.008 6.422 1.163 2.788 1.012 5.906-0.454 9.351-1.473 3.464-4.766 6.224-9.878 8.286l-20.635 7.87c-0.403 0.162-0.809 0.156-1.214-0.017z" clip-path="url(#a)" fill="#fff" opacity=".4"/>
	<path d="m255.82 756.33l-9.462 24.116c-0.383 0.976-1.058 1.674-2.024 2.097-0.967 0.421-1.938 0.441-2.914 0.059l-32.627-12.801c-0.977-0.383-1.674-1.058-2.097-2.024-0.422-0.967-0.441-1.938-0.059-2.913l9.461-24.116c0.383-0.977 1.058-1.674 2.024-2.096 0.967-0.423 1.938-0.443 2.914-0.061l32.628 12.801c0.976 0.383 1.673 1.058 2.095 2.025 0.423 0.967 0.443 1.937 0.061 2.913zm-3.16-0.293c0.012-0.029 0.044-0.111 0.096-0.244 0.053-0.133 0.092-0.232 0.117-0.3 0.026-0.065 0.061-0.163 0.104-0.292 0.041-0.129 0.055-0.229 0.041-0.303s-0.027-0.156-0.043-0.247c-0.016-0.092-0.061-0.174-0.135-0.244-0.074-0.072-0.17-0.133-0.288-0.179l-32.628-12.8c-0.193-0.076-0.387-0.071-0.582 0.015s-0.33 0.226-0.406 0.416c-0.974 2.482-0.711 5.008 0.789 7.574 1.971 3.364 4.015 6.868 6.131 10.514 0.061 0.108 0.232 0.428 0.52 0.958s0.519 0.941 0.695 1.231c0.175 0.29 0.412 0.651 0.711 1.085 0.299 0.433 0.594 0.782 0.881 1.049 0.287 0.266 0.579 0.456 0.875 0.572l0.021 9e-3 0.023 9e-3c0.295 0.116 0.639 0.175 1.03 0.176 0.392 0 0.845-0.057 1.358-0.172 0.514-0.113 0.934-0.218 1.261-0.312 0.326-0.093 0.774-0.235 1.346-0.431 0.57-0.193 0.915-0.311 1.032-0.349 4.03-1.233 7.912-2.412 11.645-3.54 1.047-0.322 2.125-0.884 3.232-1.686 1.108-0.801 1.833-1.637 2.174-2.509zm-9.138 23.296l6.678-17.023c-0.682 0.346-1.383 0.634-2.103 0.863-5.155 1.491-9.282 2.754-12.382 3.787-1.004 0.341-1.811 0.594-2.423 0.764-0.612 0.169-1.392 0.276-2.339 0.322-0.948 0.047-1.775-0.07-2.484-0.348l-0.023-9e-3 -0.021-9e-3c-0.709-0.278-1.396-0.756-2.059-1.435-0.664-0.679-1.162-1.287-1.496-1.827s-0.753-1.275-1.258-2.207c-1.569-2.865-3.737-6.599-6.502-11.196-0.374-0.657-0.691-1.346-0.956-2.063l-6.679 17.023c-0.075 0.192-0.07 0.387 0.016 0.581 0.084 0.196 0.223 0.332 0.416 0.407l32.627 12.8c0.192 0.075 0.387 0.07 0.582-0.015s0.329-0.223 0.406-0.415z" clip-path="url(#a)" fill="#fff" opacity=".4"/>
	<path d="m1461.5-64.306l17.67 40.491c0.716 1.639 0.742 3.294 0.087 4.97-0.658 1.673-1.804 2.869-3.443 3.584l-54.779 23.908c-1.639 0.716-3.294 0.743-4.97 0.088-1.675-0.658-2.869-1.806-3.583-3.442l-17.674-40.49c-0.714-1.639-0.742-3.293-0.085-4.968 0.656-1.676 1.804-2.872 3.44-3.587l54.781-23.909c1.638-0.715 3.293-0.742 4.969-0.084 1.675 0.656 2.871 1.801 3.587 3.439zm-4.165 3.457c-0.021-0.049-0.082-0.187-0.179-0.41s-0.169-0.391-0.221-0.503c-0.047-0.11-0.124-0.27-0.227-0.476-0.106-0.206-0.212-0.343-0.315-0.415-0.106-0.071-0.223-0.156-0.352-0.247-0.128-0.091-0.281-0.136-0.456-0.131-0.177 1e-3 -0.364 0.045-0.562 0.131l-54.78 23.91c-0.324 0.141-0.553 0.38-0.684 0.719-0.132 0.34-0.127 0.67 0.012 0.992 1.818 4.167 5.181 6.896 10.085 8.182 6.434 1.681 13.123 3.441 20.071 5.285 0.203 0.058 0.796 0.235 1.782 0.529 0.984 0.293 1.761 0.51 2.323 0.647 0.56 0.138 1.282 0.288 2.165 0.45s1.658 0.228 2.326 0.203c0.666-0.026 1.249-0.148 1.745-0.365l0.037-0.015 0.04-0.019c0.494-0.215 0.979-0.56 1.454-1.03 0.471-0.472 0.949-1.086 1.43-1.845 0.483-0.756 0.863-1.389 1.145-1.896 0.281-0.505 0.651-1.217 1.104-2.142 0.454-0.921 0.729-1.479 0.824-1.665 3.372-6.348 6.632-12.45 9.772-18.312 0.874-1.65 1.497-3.628 1.865-5.93 0.371-2.301 0.236-4.183-0.404-5.647zm17.072 39.111l-12.476-28.58c-0.405 1.238-0.904 2.432-1.494 3.576-4.42 8.016-7.874 14.514-10.365 19.498-0.8 1.622-1.468 2.899-2 3.842-0.535 0.943-1.345 2.012-2.432 3.209-1.088 1.2-2.227 2.056-3.416 2.576l-0.038 0.019-0.037 0.015c-1.19 0.52-2.596 0.773-4.211 0.753-1.621-0.019-2.955-0.151-4.009-0.399-1.055-0.249-2.445-0.63-4.179-1.145-5.346-1.563-12.464-3.451-21.34-5.661-1.244-0.342-2.459-0.789-3.643-1.335l12.476 28.581c0.14 0.323 0.381 0.552 0.72 0.682 0.338 0.136 0.667 0.131 0.992-0.011l54.777-23.909c0.323-0.141 0.552-0.381 0.686-0.719 0.134-0.337 0.129-0.666-0.011-0.992z" clip-path="url(#a)" fill="#fff" opacity=".4"/>
	<path d="m347.24 755.58c2.235 1.753 3.889 3.979 4.961 6.679 1.071 2.7 1.395 5.453 0.969 8.262-0.426 2.81-1.516 5.331-3.268 7.566-1.751 2.235-3.977 3.89-6.678 4.96-2.699 1.072-5.454 1.396-8.262 0.97-2.809-0.426-5.33-1.515-7.566-3.268-2.235-1.751-3.889-3.978-4.961-6.677-1.072-2.701-1.395-5.453-0.969-8.264 0.426-2.808 1.514-5.329 3.267-7.565 1.752-2.235 3.978-3.888 6.679-4.96 2.699-1.072 5.454-1.395 8.262-0.969 2.809 0.426 5.33 1.514 7.566 3.266zm3.403 12.871c0.051-1.792-0.256-3.528-0.923-5.209-0.665-1.679-1.633-3.153-2.899-4.422-1.267-1.27-2.67-2.238-4.214-2.904-1.543-0.666-3.211-1.025-5.003-1.076-1.793-0.051-3.528 0.256-5.207 0.923-1.68 0.667-3.154 1.634-4.424 2.899-1.27 1.267-2.237 2.672-2.904 4.214-0.665 1.543-1.023 3.211-1.075 5.003-0.052 1.793 0.257 3.529 0.923 5.209s1.634 3.153 2.899 4.423c1.268 1.27 2.671 2.237 4.214 2.903s3.211 1.024 5.003 1.076c1.793 0.052 3.528-0.257 5.208-0.923 1.68-0.667 3.154-1.634 4.424-2.9 1.27-1.265 2.236-2.67 2.902-4.214 0.667-1.543 1.025-3.21 1.076-5.002zm-19.197-5.728c0.678 0.292 1.152 0.78 1.424 1.464 0.271 0.686 0.262 1.367-0.031 2.043-0.293 0.677-0.779 1.15-1.465 1.423-0.686 0.271-1.365 0.262-2.043-0.03-0.676-0.293-1.15-0.781-1.422-1.465-0.271-0.686-0.262-1.367 0.03-2.043 0.293-0.677 0.78-1.15 1.466-1.423 0.683-0.27 1.365-0.261 2.041 0.031zm14.341 6.095c0.143 1.754-0.249 3.367-1.174 4.842-0.927 1.473-2.209 2.536-3.85 3.187s-3.303 0.758-4.987 0.318c-1.685-0.438-3.076-1.343-4.174-2.717-0.232-0.281-0.33-0.605-0.296-0.97 0.035-0.365 0.199-0.666 0.494-0.903 0.283-0.231 0.605-0.329 0.971-0.296 0.365 0.035 0.666 0.2 0.902 0.494 0.733 0.906 1.662 1.506 2.789 1.799 1.125 0.293 2.23 0.225 3.316-0.206s1.937-1.14 2.555-2.124c0.619-0.986 0.884-2.061 0.797-3.221-0.029-0.377 0.079-0.705 0.328-0.983 0.248-0.278 0.555-0.429 0.918-0.454 0.365-0.025 0.685 0.084 0.96 0.326 0.276 0.241 0.427 0.546 0.451 0.908zm-4.42-10.033c0.677 0.292 1.151 0.781 1.424 1.466 0.271 0.684 0.262 1.365-0.031 2.042-0.291 0.677-0.779 1.151-1.465 1.423s-1.365 0.262-2.042-0.03-1.151-0.781-1.424-1.466c-0.271-0.685-0.261-1.366 0.031-2.042 0.292-0.677 0.78-1.151 1.465-1.423 0.686-0.273 1.367-0.261 2.042 0.03z" clip-path="url(#a)" fill="#fff" opacity=".4"/>
	<path d="m147.85-568.3c4.299 3.371 7.479 7.651 9.541 12.843 2.06 5.193 2.682 10.487 1.863 15.888-0.819 5.403-2.915 10.252-6.284 14.55-3.367 4.299-7.647 7.48-12.842 9.539-5.191 2.062-10.489 2.684-15.888 1.865-5.401-0.819-10.25-2.913-14.551-6.284-4.299-3.367-7.478-7.649-9.54-12.84-2.062-5.194-2.682-10.487-1.863-15.892 0.819-5.399 2.911-10.248 6.282-14.549 3.369-4.299 7.649-7.476 12.843-9.538 5.191-2.062 10.489-2.682 15.888-1.863 5.401 0.819 10.251 2.911 14.551 6.281zm6.543 24.751c0.098-3.446-0.492-6.785-1.774-10.017-1.279-3.229-3.14-6.064-5.576-8.504-2.436-2.441-5.134-4.304-8.104-5.585-2.967-1.281-6.175-1.972-9.621-2.07-3.448-0.098-6.785 0.492-10.014 1.775-3.23 1.283-6.066 3.142-8.507 5.576-2.441 2.436-4.302 5.138-5.585 8.104-1.279 2.967-1.968 6.175-2.068 9.621-0.099 3.448 0.494 6.787 1.775 10.017s3.142 6.064 5.576 8.505c2.438 2.441 5.136 4.303 8.104 5.583s6.175 1.97 9.621 2.069c3.448 0.1 6.785-0.494 10.015-1.774 3.23-1.283 6.066-3.142 8.507-5.578 2.441-2.432 4.301-5.135 5.582-8.104 1.282-2.966 1.971-6.172 2.069-9.618zm-36.918-11.014c1.303 0.562 2.216 1.5 2.738 2.815 0.522 1.318 0.503 2.629-0.06 3.929-0.563 1.301-1.499 2.212-2.817 2.736-1.318 0.522-2.625 0.503-3.929-0.058-1.299-0.563-2.212-1.502-2.734-2.817-0.522-1.318-0.503-2.629 0.059-3.929 0.563-1.301 1.5-2.212 2.819-2.736 1.314-0.52 2.625-0.502 3.924 0.06zm27.58 11.721c0.274 3.373-0.479 6.475-2.257 9.311-1.782 2.832-4.248 4.877-7.403 6.128-3.155 1.252-6.352 1.457-9.591 0.612-3.24-0.841-5.916-2.583-8.027-5.225-0.447-0.541-0.635-1.165-0.569-1.865 0.067-0.703 0.383-1.281 0.95-1.737 0.544-0.445 1.165-0.633 1.867-0.569 0.703 0.067 1.281 0.385 1.735 0.95 1.41 1.743 3.196 2.896 5.363 3.459 2.164 0.563 4.29 0.432 6.378-0.396s3.724-2.192 4.913-4.085c1.191-1.896 1.7-3.962 1.533-6.193-0.057-0.725 0.152-1.356 0.631-1.891 0.477-0.535 1.067-0.825 1.766-0.874 0.702-0.049 1.316 0.162 1.846 0.627 0.528 0.465 0.819 1.051 0.865 1.748zm-8.499-19.295c1.301 0.562 2.214 1.502 2.738 2.819 0.521 1.314 0.503 2.625-0.06 3.927-0.56 1.301-1.499 2.214-2.817 2.736-1.318 0.524-2.625 0.503-3.927-0.058s-2.214-1.502-2.738-2.819c-0.52-1.317-0.501-2.627 0.06-3.927 0.562-1.301 1.5-2.214 2.817-2.736 1.318-0.524 2.627-0.501 3.927 0.058z" clip-path="url(#a)" fill="#fff" opacity=".4"/>
	<path d="m1453.4 672.15c0.373 3.632-0.209 7.146-1.751 10.545-1.54 3.399-3.801 6.153-6.777 8.265s-6.28 3.354-9.909 3.728c-3.631 0.374-7.145-0.21-10.544-1.752-3.4-1.541-6.154-3.8-8.267-6.776-2.111-2.976-3.352-6.279-3.727-9.91-0.374-3.629 0.211-7.144 1.752-10.542 1.541-3.4 3.8-6.155 6.776-8.267 2.978-2.11 6.28-3.354 9.91-3.728 3.631-0.372 7.145 0.211 10.542 1.752 3.4 1.542 6.156 3.801 8.267 6.776 2.112 2.977 3.353 6.28 3.728 9.909zm-8.866 14.628c1.703-1.552 3.033-3.385 3.992-5.5 0.958-2.113 1.46-4.322 1.504-6.625 0.045-2.304-0.312-4.466-1.071-6.486-0.762-2.021-1.917-3.883-3.468-5.587-1.552-1.703-3.385-3.034-5.498-3.993-2.114-0.959-4.324-1.46-6.627-1.504-2.303-0.045-4.466 0.313-6.487 1.072-2.02 0.762-3.882 1.918-5.586 3.468-1.703 1.552-3.034 3.385-3.991 5.499-0.96 2.113-1.461 4.322-1.507 6.625-0.043 2.305 0.314 4.467 1.074 6.486 0.76 2.021 1.917 3.885 3.468 5.586 1.551 1.704 3.384 3.035 5.498 3.993 2.113 0.96 4.322 1.462 6.626 1.505 2.303 0.046 4.466-0.312 6.487-1.072 2.019-0.76 3.881-1.916 5.586-3.467zm-11.828-22.861c0.334 0.886 0.306 1.76-0.085 2.622-0.39 0.863-1.029 1.46-1.916 1.793-0.886 0.334-1.76 0.306-2.622-0.085-0.862-0.392-1.459-1.03-1.792-1.918-0.335-0.885-0.306-1.76 0.086-2.621 0.391-0.861 1.028-1.461 1.915-1.793 0.887-0.334 1.761-0.305 2.623 0.086 0.862 0.39 1.46 1.03 1.791 1.916zm7.486 17.908c0.168 0.447 0.156 0.884-0.034 1.306-0.193 0.424-0.513 0.72-0.961 0.888-0.45 0.17-0.887 0.157-1.308-0.034l-15.614-7.079c-0.423-0.191-0.718-0.512-0.888-0.961-0.169-0.449-0.157-0.884 0.034-1.307 0.192-0.423 0.512-0.72 0.961-0.888 0.449-0.169 0.886-0.157 1.309 0.034l15.614 7.079c0.421 0.191 0.718 0.513 0.887 0.962zm5.007-12.244c0.333 0.885 0.304 1.759-0.086 2.621-0.392 0.861-1.03 1.46-1.916 1.793-0.887 0.333-1.762 0.305-2.623-0.086-0.863-0.392-1.459-1.029-1.793-1.916-0.334-0.885-0.305-1.761 0.087-2.623 0.391-0.861 1.029-1.459 1.916-1.792s1.76-0.306 2.622 0.085c0.861 0.391 1.458 1.03 1.793 1.918z" clip-path="url(#a)" fill="#fff" opacity=".4"/>
	<path d="m42.777 270.81c0 1.014-0.354 1.874-1.062 2.582l-27.472 27.472-5.16 5.16c-0.708 0.708-1.568 1.062-2.582 1.062-1.011 0-1.871-0.354-2.578-1.062l-5.16-5.16-13.736-13.736c-0.709-0.707-1.062-1.567-1.062-2.581 0-1.011 0.354-1.871 1.062-2.58l5.16-5.16c0.708-0.708 1.568-1.062 2.58-1.062 1.011 0 1.871 0.354 2.58 1.062l11.153 11.194 24.894-24.931c0.706-0.707 1.567-1.062 2.58-1.062 1.011 0 1.872 0.355 2.58 1.062l5.16 5.16c0.708 0.71 1.063 1.57 1.063 2.58z" clip-path="url(#a)" fill="#fff" opacity=".4"/>
	<path d="m1397.7 476.18v3.198c0 0.116-0.038 0.227-0.115 0.332-0.076 0.106-0.172 0.168-0.288 0.188l-2.664 0.403c-0.183 0.519-0.371 0.956-0.563 1.311 0.336 0.48 0.852 1.144 1.543 1.988 0.095 0.115 0.144 0.235 0.144 0.36s-0.043 0.235-0.13 0.333c-0.259 0.354-0.733 0.873-1.427 1.555-0.691 0.682-1.143 1.023-1.354 1.023-0.113 0-0.24-0.045-0.373-0.132l-1.989-1.555c-0.423 0.222-0.859 0.403-1.312 0.547-0.153 1.308-0.292 2.2-0.418 2.681-0.066 0.268-0.238 0.403-0.517 0.403h-3.2c-0.134 0-0.251-0.042-0.352-0.123-0.102-0.081-0.157-0.186-0.166-0.31l-0.404-2.651c-0.471-0.154-0.902-0.331-1.296-0.533l-2.032 1.541c-0.096 0.087-0.215 0.132-0.359 0.132-0.135 0-0.255-0.054-0.361-0.159-1.209-1.095-2.002-1.9-2.378-2.419-0.067-0.098-0.1-0.208-0.1-0.333 0-0.115 0.038-0.225 0.116-0.332 0.143-0.201 0.387-0.521 0.732-0.958 0.346-0.437 0.607-0.775 0.779-1.016-0.258-0.479-0.455-0.954-0.591-1.426l-2.636-0.39c-0.126-0.018-0.227-0.079-0.303-0.179-0.077-0.102-0.115-0.215-0.115-0.339v-3.198c0-0.116 0.038-0.227 0.115-0.332 0.076-0.105 0.167-0.168 0.273-0.188l2.679-0.404c0.136-0.439 0.322-0.882 0.563-1.324-0.385-0.547-0.898-1.21-1.542-1.988-0.097-0.115-0.144-0.229-0.144-0.346 0-0.097 0.043-0.206 0.129-0.332 0.25-0.346 0.723-0.861 1.42-1.549 0.695-0.686 1.149-1.03 1.361-1.03 0.124 0 0.251 0.049 0.373 0.145l1.989 1.542c0.423-0.221 0.859-0.403 1.312-0.548 0.153-1.306 0.293-2.198 0.418-2.68 0.066-0.268 0.238-0.403 0.518-0.403h3.2c0.134 0 0.251 0.042 0.352 0.123 0.101 0.082 0.156 0.184 0.165 0.31l0.404 2.65c0.471 0.154 0.902 0.332 1.297 0.534l2.045-1.543c0.087-0.087 0.202-0.13 0.346-0.13 0.125 0 0.244 0.049 0.361 0.145 1.239 1.145 2.032 1.959 2.378 2.45 0.065 0.076 0.1 0.182 0.1 0.316 0 0.116-0.038 0.225-0.116 0.33-0.143 0.203-0.387 0.522-0.732 0.958-0.346 0.438-0.606 0.777-0.779 1.018 0.249 0.479 0.446 0.95 0.592 1.411l2.636 0.403c0.124 0.02 0.226 0.08 0.302 0.18 0.076 0.104 0.114 0.216 0.114 0.34zm-8.457 4.18c0.721-0.722 1.08-1.59 1.08-2.608 0-1.017-0.359-1.888-1.08-2.608s-1.589-1.08-2.607-1.08-1.888 0.36-2.607 1.08c-0.721 0.721-1.08 1.592-1.08 2.608 0 1.019 0.359 1.887 1.08 2.608 0.72 0.72 1.59 1.078 2.607 1.078 1.018 0 1.886-0.358 2.607-1.078z" clip-path="url(#a)" fill="#fff" opacity=".4"/>
	<path d="m63.246-533.26v5.997c0 0.218-0.072 0.425-0.216 0.623-0.143 0.2-0.322 0.315-0.54 0.352l-4.995 0.756c-0.342 0.972-0.696 1.792-1.057 2.457 0.63 0.901 1.597 2.145 2.893 3.729 0.178 0.216 0.269 0.441 0.269 0.675s-0.081 0.441-0.244 0.625c-0.485 0.663-1.375 1.637-2.675 2.915-1.296 1.278-2.143 1.919-2.54 1.919-0.212 0-0.45-0.084-0.699-0.247l-3.73-2.915c-0.792 0.416-1.611 0.756-2.459 1.025-0.288 2.452-0.547 4.125-0.784 5.026-0.125 0.501-0.447 0.756-0.969 0.756h-6c-0.251 0-0.471-0.079-0.659-0.23-0.19-0.152-0.295-0.348-0.312-0.581l-0.758-4.971c-0.883-0.29-1.692-0.621-2.43-1l-3.81 2.89c-0.18 0.163-0.403 0.247-0.674 0.247-0.253 0-0.478-0.101-0.678-0.298-2.267-2.053-3.754-3.563-4.458-4.536-0.126-0.183-0.187-0.39-0.187-0.625 0-0.216 0.071-0.421 0.218-0.623 0.268-0.377 0.726-0.976 1.374-1.796 0.648-0.819 1.139-1.454 1.461-1.904-0.483-0.897-0.854-1.789-1.108-2.674l-4.942-0.73c-0.236-0.033-0.425-0.148-0.568-0.335-0.145-0.19-0.216-0.403-0.216-0.635v-5.997c0-0.218 0.072-0.425 0.216-0.623 0.143-0.197 0.313-0.314 0.513-0.352l5.022-0.758c0.254-0.824 0.604-1.653 1.057-2.483-0.721-1.025-1.685-2.269-2.891-3.728-0.182-0.216-0.27-0.43-0.27-0.648 0-0.181 0.081-0.386 0.242-0.622 0.469-0.648 1.354-1.615 2.662-2.904 1.304-1.285 2.155-1.932 2.553-1.932 0.232 0 0.47 0.091 0.699 0.271l3.73 2.891c0.792-0.414 1.611-0.756 2.459-1.027 0.288-2.448 0.549-4.122 0.784-5.024 0.125-0.501 0.447-0.756 0.971-0.756h6c0.251 0 0.471 0.079 0.659 0.23 0.188 0.154 0.293 0.344 0.31 0.581l0.758 4.969c0.883 0.29 1.692 0.623 2.432 1.002l3.834-2.894c0.163-0.163 0.379-0.243 0.648-0.243 0.234 0 0.458 0.091 0.678 0.271 2.324 2.146 3.811 3.673 4.458 4.594 0.123 0.143 0.187 0.34 0.187 0.593 0 0.218-0.071 0.421-0.218 0.619-0.268 0.381-0.726 0.979-1.374 1.796-0.648 0.822-1.137 1.458-1.461 1.908 0.467 0.899 0.837 1.782 1.11 2.646l4.942 0.756c0.232 0.037 0.423 0.15 0.566 0.337 0.146 0.193 0.217 0.403 0.217 0.635zm-15.857 7.837c1.352-1.353 2.025-2.981 2.025-4.891 0-1.906-0.674-3.54-2.025-4.891-1.351-1.349-2.979-2.025-4.889-2.025-1.908 0-3.54 0.676-4.889 2.025-1.352 1.352-2.025 2.985-2.025 4.891 0 1.91 0.674 3.538 2.025 4.891 1.349 1.35 2.98 2.021 4.889 2.021 1.91 1e-3 3.538-0.671 4.889-2.021z" clip-path="url(#a)" fill="#fff" opacity=".4"/>
	<path d="m1313.6 763.39c-0.29 0.768-0.852 1.223-1.686 1.371l-7.629 20.212c-0.053 0.138-0.148 0.238-0.287 0.301-0.14 0.063-0.279 0.069-0.418 0.017l-1.021-0.386c-0.138-0.052-0.238-0.147-0.301-0.287s-0.068-0.278-0.017-0.416l7.63-20.212c-0.529-0.662-0.648-1.375-0.359-2.143 0.214-0.563 0.595-0.97 1.145-1.219 0.55-0.248 1.107-0.267 1.671-0.053 0.564 0.212 0.971 0.594 1.219 1.145 0.247 0.549 0.265 1.107 0.053 1.67zm23.115 9.894l-4.599 12.182c-0.101 0.266-0.244 0.445-0.433 0.539-0.188 0.093-0.452 0.16-0.795 0.2-2.756 0.371-4.952 0.248-6.592-0.371-0.648-0.245-1.262-0.61-1.838-1.096-0.577-0.485-1.059-0.959-1.443-1.42-0.386-0.462-0.903-0.949-1.555-1.463s-1.365-0.917-2.143-1.21c-2.043-0.771-4.807-0.927-8.288-0.466-0.217 0.027-0.411 0.01-0.58-0.055-0.277-0.104-0.479-0.296-0.604-0.574s-0.137-0.557-0.031-0.834l4.471-11.846c0.129-0.341 0.404-0.57 0.827-0.691 0.279-0.064 0.786-0.135 1.521-0.21 2.993-0.329 5.475-0.122 7.443 0.621 1.139 0.43 2.145 0.987 3.02 1.669 0.872 0.682 1.861 1.591 2.965 2.725 0.328 0.354 0.759 0.633 1.291 0.833 0.574 0.218 1.242 0.342 2.003 0.373 0.76 0.032 1.439 3e-3 2.039-0.087 0.599-0.09 1.162-0.164 1.688-0.22 0.525-0.057 0.857-0.06 0.996-7e-3 0.277 0.104 0.479 0.295 0.604 0.574 0.127 0.279 0.136 0.558 0.033 0.834z" clip-path="url(#a)" fill="#fff" opacity=".4"/>
	<path d="m48.862 484.04v2.849c0 0.386-0.141 0.719-0.422 1.001-0.283 0.281-0.616 0.422-1.002 0.422h-3.182c-0.549 2.389-1.694 4.454-3.438 6.196-1.742 1.743-3.808 2.889-6.195 3.438v3.182c0 0.386-0.141 0.72-0.423 1.001s-0.616 0.423-1.001 0.423h-2.848c-0.387 0-0.72-0.142-1.002-0.423-0.281-0.281-0.422-0.615-0.422-1.001v-3.182c-2.389-0.549-4.453-1.694-6.196-3.438-1.743-1.742-2.889-3.808-3.437-6.196h-3.182c-0.387 0-0.72-0.141-1.002-0.422-0.281-0.282-0.422-0.615-0.422-1.001v-2.849c0-0.385 0.141-0.719 0.422-1.001 0.282-0.281 0.615-0.422 1.002-0.422h3.182c0.548-2.389 1.693-4.454 3.437-6.196 1.743-1.743 3.808-2.889 6.196-3.438v-3.181c0-0.387 0.141-0.721 0.422-1.002 0.282-0.281 0.615-0.423 1.002-0.423h2.848c0.385 0 0.719 0.142 1.001 0.423s0.423 0.615 0.423 1.002v3.181c2.388 0.549 4.453 1.694 6.195 3.438 1.743 1.742 2.889 3.808 3.438 6.196h3.182c0.386 0 0.719 0.141 1.002 0.422 0.281 0.282 0.422 0.616 0.422 1.001zm-7.542 4.271h-2.425c-0.386 0-0.72-0.141-1.002-0.422-0.281-0.282-0.422-0.615-0.422-1.001v-2.849c0-0.385 0.141-0.719 0.422-1.001 0.282-0.281 0.616-0.422 1.002-0.422h2.425c-0.476-1.603-1.31-3-2.503-4.193-1.194-1.195-2.592-2.029-4.193-2.504v2.426c0 0.385-0.141 0.719-0.423 1-0.282 0.282-0.616 0.423-1.001 0.423h-2.848c-0.387 0-0.72-0.141-1.002-0.423-0.281-0.281-0.422-0.615-0.422-1v-2.426c-1.603 0.475-3 1.309-4.194 2.504-1.194 1.193-2.028 2.591-2.503 4.193h2.426c0.385 0 0.719 0.141 1 0.422 0.283 0.282 0.424 0.616 0.424 1.001v2.849c0 0.386-0.141 0.719-0.424 1.001-0.281 0.281-0.615 0.422-1 0.422h-2.426c0.475 1.603 1.309 3 2.503 4.194s2.592 2.028 4.194 2.502v-2.425c0-0.385 0.141-0.719 0.422-1 0.282-0.282 0.615-0.423 1.002-0.423h2.848c0.385 0 0.719 0.141 1.001 0.423 0.282 0.281 0.423 0.615 0.423 1v2.425c1.602-0.474 2.999-1.308 4.193-2.502 1.193-1.194 2.027-2.591 2.503-4.194z" clip-path="url(#a)" fill="#fff" opacity=".4"/>
	<path d="m1251.6 719.56l-0.812 2.821c-0.108 0.381-0.344 0.671-0.703 0.869-0.359 0.199-0.729 0.243-1.111 0.134l-3.148-0.906c-1.224 2.207-2.947 3.925-5.168 5.155-2.222 1.23-4.594 1.776-7.113 1.64l-0.906 3.148c-0.109 0.383-0.344 0.674-0.704 0.87-0.359 0.199-0.729 0.244-1.11 0.135l-2.819-0.811c-0.382-0.111-0.673-0.346-0.871-0.705-0.199-0.358-0.244-0.729-0.133-1.111l0.906-3.149c-2.209-1.223-3.927-2.944-5.156-5.166-1.229-2.223-1.775-4.594-1.639-7.114l-3.147-0.905c-0.385-0.11-0.674-0.344-0.873-0.703-0.198-0.359-0.243-0.729-0.132-1.111l0.81-2.82c0.108-0.381 0.344-0.671 0.705-0.871 0.357-0.198 0.728-0.242 1.11-0.134l3.149 0.906c1.223-2.207 2.945-3.926 5.166-5.155 2.222-1.228 4.594-1.774 7.113-1.639l0.906-3.149c0.109-0.381 0.344-0.672 0.704-0.87 0.359-0.198 0.729-0.244 1.112-0.134l2.818 0.81c0.381 0.111 0.672 0.346 0.871 0.706 0.197 0.359 0.243 0.729 0.133 1.11l-0.905 3.149c2.208 1.225 3.925 2.946 5.154 5.166 1.229 2.224 1.775 4.594 1.639 7.114l3.149 0.905c0.383 0.11 0.672 0.346 0.871 0.703 0.2 0.361 0.243 0.732 0.134 1.112zm-8.683 2.082l-2.401-0.691c-0.381-0.109-0.673-0.343-0.871-0.702s-0.243-0.731-0.134-1.112l0.812-2.819c0.11-0.381 0.344-0.671 0.703-0.872 0.359-0.196 0.731-0.241 1.112-0.132l2.399 0.689c-0.014-1.721-0.44-3.342-1.282-4.864-0.842-1.521-1.988-2.745-3.439-3.671l-0.69 2.401c-0.108 0.381-0.346 0.671-0.703 0.869-0.359 0.199-0.729 0.244-1.112 0.135l-2.819-0.811c-0.383-0.111-0.671-0.346-0.869-0.705-0.2-0.359-0.244-0.73-0.136-1.111l0.691-2.4c-1.721 0.014-3.343 0.44-4.863 1.284-1.522 0.842-2.747 1.987-3.672 3.438l2.399 0.691c0.381 0.109 0.672 0.345 0.871 0.702 0.198 0.361 0.243 0.732 0.134 1.114l-0.812 2.818c-0.11 0.381-0.344 0.672-0.703 0.871-0.359 0.198-0.729 0.243-1.112 0.133l-2.399-0.69c0.014 1.721 0.44 3.343 1.284 4.864 0.842 1.522 1.988 2.745 3.438 3.671l0.691-2.4c0.109-0.381 0.345-0.672 0.702-0.868 0.361-0.201 0.729-0.244 1.112-0.136l2.819 0.812c0.381 0.11 0.673 0.344 0.871 0.705 0.198 0.356 0.244 0.729 0.134 1.109l-0.691 2.401c1.722-0.014 3.343-0.441 4.865-1.284 1.522-0.841 2.744-1.988 3.671-3.439z" clip-path="url(#a)" fill="#fff" opacity=".4"/>
	<path d="m1424-459.75l-0.812 2.821c-0.108 0.381-0.344 0.671-0.703 0.869-0.359 0.199-0.729 0.243-1.111 0.134l-3.148-0.906c-1.224 2.207-2.947 3.925-5.168 5.155-2.222 1.23-4.594 1.776-7.113 1.64l-0.906 3.148c-0.109 0.383-0.344 0.674-0.704 0.87-0.359 0.199-0.729 0.244-1.11 0.135l-2.819-0.811c-0.382-0.111-0.673-0.346-0.871-0.705-0.199-0.358-0.244-0.729-0.133-1.111l0.906-3.149c-2.209-1.223-3.927-2.944-5.156-5.166-1.229-2.223-1.775-4.594-1.639-7.114l-3.147-0.905c-0.385-0.11-0.674-0.344-0.873-0.703-0.198-0.359-0.243-0.729-0.132-1.111l0.81-2.82c0.108-0.381 0.344-0.671 0.705-0.871 0.357-0.198 0.728-0.242 1.11-0.134l3.149 0.906c1.223-2.207 2.945-3.926 5.166-5.155 2.222-1.228 4.594-1.774 7.113-1.639l0.906-3.149c0.109-0.381 0.344-0.672 0.704-0.87 0.359-0.198 0.729-0.244 1.112-0.134l2.818 0.81c0.381 0.111 0.672 0.346 0.871 0.706 0.197 0.359 0.243 0.729 0.133 1.11l-0.905 3.149c2.208 1.225 3.925 2.946 5.154 5.166 1.229 2.224 1.775 4.594 1.639 7.114l3.149 0.905c0.383 0.11 0.672 0.346 0.871 0.703 0.201 0.361 0.244 0.731 0.134 1.112zm-8.682 2.082l-2.401-0.691c-0.381-0.109-0.673-0.343-0.871-0.702s-0.243-0.731-0.134-1.112l0.812-2.819c0.11-0.381 0.344-0.671 0.703-0.872 0.359-0.196 0.731-0.241 1.112-0.132l2.399 0.689c-0.014-1.721-0.44-3.342-1.282-4.864-0.842-1.521-1.988-2.745-3.439-3.671l-0.69 2.401c-0.108 0.381-0.346 0.671-0.703 0.869-0.359 0.199-0.729 0.244-1.112 0.135l-2.819-0.811c-0.383-0.111-0.671-0.346-0.869-0.705-0.2-0.359-0.244-0.73-0.136-1.111l0.691-2.4c-1.721 0.014-3.343 0.44-4.863 1.284-1.522 0.842-2.747 1.987-3.672 3.438l2.399 0.691c0.381 0.109 0.672 0.345 0.871 0.702 0.198 0.361 0.243 0.732 0.134 1.114l-0.812 2.818c-0.11 0.381-0.344 0.672-0.703 0.871-0.359 0.198-0.729 0.243-1.112 0.133l-2.399-0.69c0.014 1.721 0.44 3.343 1.284 4.864 0.842 1.522 1.988 2.745 3.438 3.671l0.691-2.4c0.109-0.381 0.345-0.672 0.702-0.868 0.361-0.201 0.729-0.244 1.112-0.136l2.819 0.812c0.381 0.11 0.673 0.344 0.871 0.705 0.198 0.356 0.244 0.729 0.134 1.109l-0.691 2.401c1.722-0.014 3.343-0.441 4.865-1.284 1.521-0.841 2.744-1.989 3.671-3.439z" clip-path="url(#a)" fill="#fff" opacity=".4"/>
	<path d="m24.791 672.87c-0.069 0.307-0.231 0.598-0.483 0.872-1.736 1.787-3.814 3.062-6.232 3.824-2.42 0.762-4.816 0.873-7.188 0.332-2.373-0.542-4.482-1.684-6.33-3.424-1.848-1.741-3.167-3.789-3.959-6.143-0.108-0.356-0.128-0.688-0.057-0.996 0.069-0.306 0.23-0.597 0.483-0.871 1.733-1.777 3.811-3.051 6.23-3.818 2.421-0.767 4.815-0.879 7.188-0.338s4.483 1.683 6.331 3.424c1.848 1.74 3.167 3.789 3.959 6.143 0.108 0.356 0.129 0.688 0.058 0.995zm-1.731-0.396c-0.886-2.441-2.242-4.427-4.066-5.952 0.336 1.063 0.38 2.141 0.131 3.232-0.381 1.669-1.301 2.961-2.756 3.876-1.459 0.916-3.021 1.184-4.689 0.803-1.67-0.381-2.961-1.3-3.878-2.757-0.915-1.457-1.183-3.02-0.802-4.688 0.25-1.093 0.756-2.044 1.52-2.856-2.307 0.584-4.388 1.784-6.245 3.599 0.778 2.124 1.946 3.94 3.505 5.449s3.394 2.504 5.505 2.986c2.11 0.481 4.195 0.381 6.255-0.303 2.057-0.683 3.897-1.812 5.52-3.389zm-8.853-7.004c0.155-0.096 0.254-0.234 0.295-0.416 0.041-0.18 0.013-0.348-0.085-0.503s-0.237-0.254-0.416-0.295c-1.129-0.257-2.188-0.073-3.18 0.55s-1.615 1.498-1.874 2.626c-0.041 0.181-0.013 0.349 0.085 0.503 0.098 0.155 0.236 0.254 0.417 0.295 0.18 0.041 0.348 0.013 0.503-0.085 0.155-0.097 0.254-0.236 0.295-0.416 0.177-0.776 0.604-1.377 1.279-1.802 0.675-0.424 1.401-0.548 2.178-0.371 0.18 0.041 0.348 0.014 0.503-0.086z" clip-path="url(#a)" fill="#fff" opacity=".4"/>
	<path d="m1441.3 94.731c-0.105 0.465-0.351 0.906-0.732 1.322-2.631 2.708-5.78 4.639-9.444 5.794-3.667 1.154-7.298 1.323-10.891 0.503-3.596-0.821-6.792-2.551-9.592-5.188-2.8-2.639-4.799-5.742-5.999-9.308-0.164-0.541-0.194-1.043-0.086-1.51 0.105-0.463 0.35-0.904 0.732-1.32 2.627-2.693 5.774-4.623 9.441-5.786 3.668-1.162 7.296-1.332 10.893-0.512 3.596 0.82 6.793 2.55 9.593 5.188 2.8 2.637 4.799 5.742 5.999 9.308 0.161 0.541 0.193 1.045 0.086 1.509zm-2.624-0.599c-1.342-3.699-3.397-6.708-6.161-9.019 0.509 1.611 0.575 3.244 0.198 4.898-0.577 2.529-1.972 4.487-4.177 5.873-2.21 1.388-4.578 1.793-7.105 1.216-2.53-0.577-4.486-1.969-5.876-4.177-1.387-2.208-1.792-4.575-1.215-7.104 0.379-1.656 1.146-3.098 2.303-4.329-3.495 0.885-6.648 2.704-9.464 5.453 1.18 3.218 2.949 5.971 5.312 8.257 2.361 2.287 5.142 3.794 8.341 4.525 3.198 0.729 6.357 0.577 9.479-0.459 3.118-1.033 5.906-2.746 8.365-5.134zm-13.414-10.613c0.235-0.145 0.385-0.355 0.447-0.63 0.062-0.272 0.019-0.527-0.129-0.762s-0.359-0.385-0.63-0.447c-1.711-0.389-3.315-0.111-4.818 0.833-1.504 0.944-2.447 2.27-2.84 3.979-0.062 0.274-0.02 0.528 0.129 0.762 0.147 0.235 0.357 0.385 0.632 0.447 0.272 0.062 0.526 0.02 0.762-0.128 0.235-0.146 0.385-0.358 0.447-0.63 0.268-1.177 0.914-2.087 1.938-2.73 1.022-0.642 2.123-0.83 3.3-0.562 0.273 0.061 0.527 0.019 0.762-0.132z" clip-path="url(#a)" fill="#fff" opacity=".4"/>
	<path d="m43.001 551.95c2.929 2.409 4.739 5.312 5.429 8.713 0.688 3.4 0.152 6.779-1.609 10.137-1.76 3.359-4.484 6.279-8.172 8.768-3.688 2.486-7.916 4.213-12.684 5.18-1.367 0.277-2.801 0.485-4.297 0.627-3.178 4.203-7.193 7.48-12.047 9.827-0.902 0.467-1.975 0.908-3.213 1.321-0.324 0.106-0.64 0.08-0.947-0.082-0.307-0.161-0.535-0.411-0.686-0.745l-6e-3 -0.03c-0.073-0.065-0.103-0.183-0.086-0.349 0.018-0.167 0.018-0.269 0-0.306s6e-3 -0.139 0.076-0.304c0.066-0.167 0.107-0.267 0.121-0.301s0.065-0.13 0.155-0.29c0.09-0.161 0.149-0.265 0.181-0.312 0.105-0.183 0.34-0.582 0.704-1.194 0.364-0.613 0.626-1.054 0.786-1.32 0.16-0.265 0.383-0.713 0.674-1.341 0.289-0.629 0.506-1.19 0.649-1.688 0.144-0.497 0.29-1.127 0.441-1.89 0.15-0.764 0.253-1.558 0.31-2.382-3.42-1.118-6.274-2.777-8.562-4.979s-3.729-4.77-4.322-7.699c-0.515-2.54-0.313-5.109 0.604-7.707s2.38-4.974 4.385-7.131c2.004-2.154 4.528-4.056 7.572-5.7 3.044-1.643 6.345-2.826 9.902-3.547 4.768-0.967 9.334-1.022 13.699-0.166 4.367 0.852 8.015 2.484 10.943 4.89z" clip-path="url(#a)" fill="#fff" opacity=".4"/>
	<path d="m1119.6 780.97c1.425 1.281 1.993 2.562 1.705 3.849-0.289 1.285-1.361 2.19-3.219 2.719l-30.288 8.609c-1.858 0.528-3.248 0.321-4.171-0.62-0.92-0.941-1.112-2.331-0.573-4.171l7.3-24.606-2.982-10.49-1.684 0.478c-0.456 0.13-0.897 0.075-1.324-0.164-0.427-0.238-0.706-0.585-0.835-1.04-0.13-0.457-0.076-0.898 0.162-1.325 0.238-0.428 0.585-0.706 1.04-0.836l13.463-3.827c0.454-0.13 0.897-0.074 1.325 0.165 0.427 0.237 0.706 0.584 0.836 1.041 0.129 0.454 0.075 0.897-0.164 1.324-0.237 0.428-0.585 0.707-1.04 0.836l-1.684 0.479 2.981 10.491 19.152 17.088zm-25.901-13.241l-3.944 13.311 18.72-5.319-10.358-9.248-0.757-0.665-0.276-0.973-2.98-10.491-3.366 0.958 2.979 10.49 0.277 0.973-0.295 0.964z" clip-path="url(#a)" fill="#fff" opacity=".4"/>
	<path d="m35.33 83.432c1.733 1.559 2.425 3.117 2.074 4.682-0.352 1.563-1.656 2.665-3.916 3.307l-36.847 10.474c-2.261 0.643-3.951 0.391-5.074-0.754-1.119-1.146-1.353-2.836-0.697-5.074l8.881-29.935-3.629-12.762-2.048 0.581c-0.555 0.158-1.092 0.092-1.611-0.199-0.519-0.29-0.859-0.712-1.016-1.266-0.158-0.556-0.093-1.093 0.197-1.612 0.29-0.52 0.711-0.859 1.265-1.017l16.378-4.656c0.552-0.158 1.092-0.09 1.612 0.201 0.52 0.289 0.859 0.71 1.017 1.266 0.157 0.552 0.092 1.092-0.2 1.611-0.289 0.521-0.711 0.86-1.265 1.017l-2.048 0.583 3.627 12.763 23.3 20.79zm-31.509-16.107l-4.799 16.193 22.774-6.471-12.602-11.251-0.921-0.809-0.336-1.183-3.626-12.764-4.095 1.166 3.625 12.762 0.337 1.184-0.357 1.173z" clip-path="url(#a)" fill="#fff" opacity=".4"/>
	<path d="m224.56-483.42c0.586 2.256 0.303 3.938-0.852 5.05-1.156 1.11-2.852 1.309-5.091 0.599l-36.513-11.586c-2.24-0.711-3.511-1.854-3.816-3.428-0.302-1.573 0.436-3.112 2.217-4.617l23.919-20.072 4.012-12.647-2.029-0.645c-0.55-0.174-0.961-0.525-1.234-1.055-0.273-0.528-0.324-1.067-0.149-1.616 0.174-0.551 0.525-0.963 1.054-1.236 0.528-0.274 1.067-0.324 1.616-0.15l16.23 5.149c0.548 0.173 0.96 0.527 1.233 1.057 0.274 0.527 0.325 1.066 0.15 1.617-0.174 0.547-0.526 0.961-1.055 1.233-0.528 0.275-1.068 0.325-1.616 0.151l-2.03-0.644-4.014 12.646 7.968 30.194zm-17.399-30.815l-12.934 10.86 22.566 7.163-4.306-16.335-0.322-1.183 0.372-1.172 4.015-12.646-4.059-1.287-4.016 12.645-0.371 1.173-0.945 0.782z" clip-path="url(#a)" fill="#fff" opacity=".4"/>
	<path d="m50.872 423.54c-1.02 1.858-2.38 3.126-4.081 3.806-1.7 0.678-3.457 0.521-5.267-0.472-0.942-0.517-1.724-1.208-2.337-2.065-0.62-0.86-1.057-1.668-1.315-2.423-0.258-0.752-0.671-1.543-1.226-2.372-0.562-0.829-1.266-1.479-2.114-1.943-2.524-1.385-4.568-0.654-6.129 2.189-0.49 0.895-1.03 2.314-1.615 4.262-0.59 1.945-1.143 3.357-1.655 4.241l-0.095 0.173c-0.507-0.278-0.893-0.477-1.156-0.59-0.817-0.359-2.006-0.842-3.572-1.444-1.562-0.605-2.973-1.176-4.228-1.714-1.259-0.542-2.413-1.1-3.469-1.679-1.4-0.768-2.414-1.72-3.045-2.856-0.631-1.135-0.586-2.359 0.13-3.664 0.466-0.85 1.112-1.555 1.942-2.115 0.829-0.56 1.622-0.969 2.375-1.229 0.754-0.256 1.562-0.694 2.42-1.312 0.86-0.617 1.549-1.395 2.064-2.336 0.994-1.811 1.152-3.57 0.478-5.27-0.682-1.699-1.951-3.06-3.81-4.078-1.928-1.058-3.854-1.438-5.781-1.135-1.926 0.303-3.404 1.394-4.436 3.274-0.541 0.986-0.889 2.034-1.05 3.141-0.159 1.105-0.181 2.056-0.065 2.853 0.115 0.796 0.169 1.613 0.154 2.455-0.014 0.844-0.159 1.518-0.436 2.021-0.566 1.032-1.655 1.764-3.265 2.192-1.29 0.339-2.851 5e-3 -4.687-1.002-2.181-1.196-4.839-3.012-7.98-5.45-0.181-0.161-0.471-0.377-0.869-0.658-0.398-0.275-0.691-0.496-0.873-0.654l-0.406-0.313c-0.027-0.015-0.053-0.044-0.085-0.093-0.046-0.025-0.064-0.049-0.053-0.071l19.327-35.242c0.033 0.05 0.214 0.2 0.537 0.45 0.324 0.257 0.683 0.526 1.077 0.816 0.391 0.291 0.616 0.465 0.67 0.525 3.143 2.437 5.8 4.255 7.981 5.451 1.836 1.006 3.396 1.34 4.686 1.002 1.609-0.428 2.698-1.161 3.265-2.193 0.276-0.504 0.423-1.18 0.436-2.021 0.016-0.843-0.038-1.661-0.153-2.457-0.116-0.795-0.095-1.745 0.064-2.85 0.161-1.107 0.509-2.155 1.05-3.142 1.032-1.882 2.511-2.974 4.437-3.274s3.864 0.084 5.816 1.154c1.835 1.006 3.094 2.357 3.773 4.059 0.675 1.699 0.518 3.457-0.476 5.269-0.517 0.94-1.204 1.719-2.065 2.337-0.859 0.619-1.667 1.057-2.421 1.312-0.752 0.259-1.545 0.669-2.373 1.227-0.83 0.561-1.478 1.266-1.943 2.115-0.716 1.307-0.761 2.529-0.13 3.664 0.631 1.139 1.645 2.09 3.045 2.857 1.469 0.805 3.627 1.768 6.478 2.881 2.85 1.115 4.827 1.947 5.931 2.493l-0.037 0.067c-0.047 0.033-0.201 0.21-0.451 0.536-0.253 0.324-0.523 0.684-0.813 1.075-0.293 0.395-0.466 0.616-0.528 0.673-2.438 3.142-4.253 5.8-5.447 7.979-1.007 1.836-1.343 3.401-1.004 4.688 0.429 1.609 1.162 2.695 2.194 3.262 0.505 0.276 1.179 0.426 2.02 0.438 0.845 0.014 1.664-0.036 2.458-0.151 0.794-0.118 1.745-0.097 2.853 0.062 1.105 0.161 2.151 0.509 3.139 1.051 1.881 1.032 2.972 2.515 3.273 4.437 0.301 1.924-0.076 3.854-1.132 5.781z" clip-path="url(#a)" fill="#fff" opacity=".4"/>
	<path d="m1379.6-527.82c-1.2-2.506-1.512-4.924-0.937-7.256 0.577-2.329 2.087-4.081 4.527-5.251 1.271-0.609 2.604-0.913 3.987-0.911 1.391-3e-3 2.584 0.149 3.586 0.45 0.998 0.299 2.157 0.465 3.465 0.507 1.312 0.035 2.543-0.219 3.686-0.768 3.405-1.631 4.188-4.367 2.352-8.203-0.579-1.206-1.679-2.866-3.307-4.978-1.622-2.115-2.704-3.783-3.253-5.005l-0.113-0.233c0.684-0.328 1.191-0.587 1.513-0.781 1.008-0.597 2.43-1.495 4.269-2.703 1.84-1.202 3.525-2.268 5.057-3.194 1.54-0.927 3.017-1.731 4.44-2.413 1.888-0.906 3.676-1.258 5.37-1.062 1.69 0.195 2.962 1.179 3.804 2.938 0.55 1.146 0.808 2.373 0.771 3.686-0.039 1.312-0.208 2.469-0.508 3.47-0.303 0.999-0.453 2.195-0.45 3.581 0 1.389 0.302 2.716 0.911 3.985 1.169 2.442 2.924 3.956 5.25 4.536 2.331 0.573 4.751 0.26 7.255-0.942 2.601-1.246 4.478-3.008 5.628-5.292 1.149-2.283 1.117-4.692-0.099-7.228-0.638-1.331-1.488-2.502-2.545-3.519-1.056-1.015-2.052-1.764-2.988-2.25s-1.848-1.053-2.733-1.712c-0.889-0.659-1.495-1.329-1.821-2.009-0.667-1.393-0.614-3.112 0.159-5.154 0.625-1.633 2.173-3.041 4.649-4.227 2.941-1.409 6.906-2.854 11.905-4.337 0.31-0.069 0.761-0.214 1.365-0.423 0.598-0.214 1.058-0.357 1.364-0.43l0.645-0.192c0.036-0.019 0.087-0.023 0.164-0.021 0.062-0.029 0.101-0.031 0.116-2e-3l22.778 47.524c-0.078-3e-3 -0.377 0.075-0.891 0.229-0.521 0.149-1.083 0.325-1.693 0.523-0.608 0.193-0.966 0.301-1.071 0.312-4.998 1.486-8.965 2.927-11.907 4.338-2.475 1.188-4.022 2.593-4.648 4.226-0.774 2.042-0.824 3.763-0.158 5.155 0.326 0.679 0.935 1.352 1.821 2.009 0.885 0.661 1.799 1.229 2.734 1.714 0.936 0.484 1.932 1.233 2.987 2.247 1.056 1.018 1.907 2.19 2.545 3.519 1.215 2.538 1.248 4.948 0.098 7.229-1.151 2.281-3.043 4.053-5.674 5.314-2.475 1.187-4.876 1.495-7.209 0.919-2.325-0.58-4.078-2.091-5.25-4.533-0.606-1.269-0.91-2.596-0.911-3.987-3e-3 -1.389 0.148-2.583 0.452-3.582 0.299-0.999 0.469-2.157 0.507-3.465 0.037-1.313-0.219-2.542-0.769-3.688-0.845-1.76-2.113-2.742-3.804-2.938-1.695-0.198-3.484 0.155-5.372 1.06-1.98 0.95-4.655 2.513-8.02 4.7-3.365 2.184-5.764 3.655-7.189 4.414l-0.043-0.091c1e-3 -0.076-0.069-0.375-0.227-0.891-0.151-0.517-0.328-1.079-0.524-1.688-0.195-0.614-0.299-0.968-0.312-1.078-1.484-4.998-2.93-8.963-4.339-11.901-1.187-2.476-2.598-4.029-4.228-4.652-2.043-0.773-3.76-0.821-5.151-0.154-0.681 0.326-1.354 0.93-2.012 1.816-0.659 0.889-1.233 1.8-1.717 2.734-0.48 0.936-1.23 1.933-2.246 2.992-1.017 1.055-2.186 1.902-3.518 2.54-2.537 1.215-4.95 1.245-7.228 0.098-2.281-1.146-4.05-3.023-5.295-5.621z" clip-path="url(#a)" fill="#fff" opacity=".4"/>
	<path d="m1243.5 762.08c0.97 1.105 1.474 2.293 1.513 3.562 0.039 1.271-0.48 2.38-1.559 3.325-0.561 0.491-1.194 0.837-1.901 1.033-0.708 0.198-1.339 0.293-1.891 0.282s-1.167 0.069-1.839 0.235c-0.675 0.169-1.264 0.475-1.771 0.918-1.502 1.317-1.51 2.822-0.025 4.515 0.468 0.533 1.266 1.223 2.395 2.067 1.128 0.846 1.919 1.542 2.372 2.086l0.09 0.103c-0.301 0.263-0.521 0.469-0.658 0.614-0.428 0.447-1.025 1.109-1.789 1.984-0.766 0.878-1.475 1.66-2.123 2.352-0.651 0.692-1.289 1.312-1.917 1.863-0.834 0.731-1.695 1.167-2.586 1.308-0.892 0.142-1.677-0.178-2.36-0.956-0.441-0.505-0.747-1.095-0.914-1.769-0.17-0.673-0.249-1.286-0.239-1.839 0.012-0.553-0.082-1.184-0.281-1.891-0.197-0.707-0.542-1.342-1.032-1.902-0.947-1.078-2.055-1.598-3.323-1.559-1.272 0.039-2.46 0.542-3.566 1.513-1.146 1.005-1.849 2.173-2.11 3.501-0.26 1.328 0.101 2.552 1.082 3.671 0.515 0.587 1.113 1.063 1.799 1.431 0.682 0.365 1.298 0.606 1.844 0.719 0.545 0.113 1.092 0.273 1.638 0.482 0.547 0.211 0.95 0.465 1.214 0.765 0.539 0.615 0.758 1.498 0.656 2.649-0.088 0.922-0.675 1.86-1.768 2.819-1.298 1.137-3.111 2.438-5.449 3.908-0.146 0.08-0.356 0.218-0.634 0.411-0.276 0.195-0.489 0.331-0.636 0.414l-0.301 0.191c-0.014 0.012-0.042 0.022-0.08 0.033-0.027 0.023-0.047 0.028-0.058 0.016l-18.393-20.971c0.04-9e-3 0.181-0.092 0.421-0.243 0.243-0.151 0.505-0.319 0.787-0.509 0.282-0.187 0.45-0.29 0.501-0.312 2.337-1.471 4.151-2.771 5.45-3.91 1.092-0.958 1.682-1.896 1.767-2.818 0.102-1.15-0.117-2.033-0.656-2.648-0.264-0.3-0.668-0.556-1.214-0.765-0.547-0.211-1.093-0.371-1.639-0.485-0.545-0.112-1.16-0.351-1.845-0.719-0.683-0.366-1.282-0.843-1.797-1.429-0.981-1.12-1.342-2.344-1.083-3.673 0.263-1.326 0.972-2.499 2.133-3.517 1.093-0.957 2.272-1.457 3.542-1.496 1.271-0.039 2.379 0.481 3.325 1.56 0.491 0.56 0.834 1.194 1.033 1.902 0.198 0.707 0.293 1.338 0.281 1.891-0.011 0.552 0.068 1.165 0.237 1.839 0.168 0.673 0.475 1.264 0.917 1.768 0.682 0.778 1.468 1.099 2.358 0.957 0.892-0.142 1.753-0.577 2.585-1.309 0.875-0.766 2.015-1.945 3.418-3.539 1.404-1.594 2.416-2.688 3.033-3.274l0.035 0.04c0.011 0.038 0.091 0.18 0.244 0.42 0.15 0.242 0.32 0.505 0.508 0.787 0.187 0.282 0.291 0.45 0.314 0.502 1.468 2.337 2.771 4.151 3.909 5.448 0.957 1.093 1.897 1.683 2.817 1.768 1.151 0.101 2.034-0.117 2.648-0.656 0.301-0.264 0.554-0.667 0.765-1.213 0.21-0.548 0.371-1.094 0.484-1.64 0.111-0.545 0.353-1.16 0.719-1.845 0.366-0.683 0.843-1.281 1.431-1.797 1.118-0.981 2.344-1.342 3.671-1.083 1.328 0.263 2.494 0.967 3.501 2.115z" clip-path="url(#a)" fill="#fff" opacity=".4"/>
	<path d="m1397.7 634.72c0.638 3.641 0.635 6.884-2e-3 9.73-0.641 2.846-2.031 5.806-4.174 8.877-0.979 1.377-2.18 2.912-3.6 4.608l1.017 8.386c0.01 0.239-0.071 0.45-0.253 0.632l-7.559 6.386c-0.091 0.076-0.204 0.126-0.334 0.148-0.176 0.031-0.355-6e-3 -0.539-0.109l-1.649-1.157c-0.228-0.171-0.327-0.395-0.299-0.671l0.804-6.378-7.24-5.081-5.727 2.924c-0.041 0.021-0.105 0.042-0.19 0.057-0.207 0.037-0.386-2e-3 -0.542-0.109l-1.646-1.158c-0.297-0.233-0.384-0.512-0.26-0.836l3.437-9.28c0.11-0.229 0.281-0.38 0.51-0.45l8.233-1.893c1.111-1.913 2.146-3.563 3.111-4.952 2.266-3.214 4.553-5.558 6.857-7.032 2.303-1.473 5.361-2.543 9.176-3.211 0.206-0.035 0.393 3e-3 0.562 0.117 0.172 0.111 0.274 0.262 0.307 0.452zm-4.159 8.774c0.338-0.481 0.456-1.013 0.354-1.599-0.103-0.585-0.394-1.047-0.876-1.384-0.48-0.338-1.014-0.456-1.599-0.353-0.584 0.103-1.044 0.395-1.383 0.875-0.337 0.481-0.455 1.014-0.353 1.599s0.394 1.045 0.875 1.383c0.482 0.339 1.014 0.455 1.598 0.353 0.585-0.102 1.047-0.394 1.384-0.874z" clip-path="url(#a)" fill="#fff" opacity=".4"/>
	<path d="m31.069-245.1c3.023 6.294 4.677 12.193 4.976 17.697 0.292 5.502-0.723 11.597-3.048 18.28-1.075 3.005-2.474 6.411-4.188 10.223l6.14 14.73c0.141 0.43 0.101 0.854-0.137 1.279l-10.479 15.481c-0.125 0.185-0.306 0.333-0.531 0.44-0.304 0.147-0.649 0.171-1.036 0.078l-3.592-1.261c-0.501-0.194-0.797-0.55-0.887-1.066l-1.803-12.011-15.767-5.536-8.918 8.248c-0.064 0.06-0.17 0.13-0.318 0.2-0.357 0.173-0.702 0.194-1.041 0.078l-3.587-1.264c-0.66-0.272-0.96-0.734-0.9-1.388l1.501-18.636c0.083-0.473 0.317-0.834 0.696-1.079l14.005-7.655c1.042-4.048 2.08-7.579 3.125-10.598 2.476-7.005 5.436-12.438 8.872-16.298 3.435-3.856 8.449-7.369 15.045-10.536 0.356-0.168 0.715-0.195 1.082-0.075 0.37 0.118 0.633 0.341 0.79 0.669zm-3.074 18.085c0.368-1.049 0.311-2.074-0.175-3.088-0.485-1.012-1.25-1.702-2.3-2.068-1.047-0.368-2.078-0.311-3.089 0.177-1.009 0.485-1.696 1.252-2.066 2.299-0.366 1.048-0.309 2.077 0.176 3.088 0.486 1.011 1.251 1.699 2.299 2.067 1.052 0.369 2.077 0.309 3.087-0.177 1.011-0.485 1.701-1.252 2.068-2.298z" clip-path="url(#a)" fill="#fff" opacity=".4"/>
	<path d="m1454.9 422.5c0.832 2.483 0.73 4.699-0.299 6.644-1.03 1.945-2.798 3.338-5.303 4.177l-27.146 9.083c-2.506 0.839-4.755 0.789-6.748-0.143-1.993-0.933-3.404-2.643-4.235-5.126-0.368-1.098-0.691-2.183-0.968-3.251-0.279-1.072-0.51-2.248-0.697-3.532-0.189-1.282-0.291-2.498-0.307-3.644-0.016-1.148 0.092-2.306 0.324-3.478 0.229-1.171 0.59-2.223 1.081-3.159 0.495-0.937 1.192-1.786 2.101-2.551 0.907-0.763 1.992-1.357 3.254-1.779 0.187-0.062 0.695 0.015 1.531 0.23 0.83 0.217 1.768 0.455 2.809 0.716 1.045 0.263 2.332 0.385 3.855 0.368 1.526-0.014 2.984-0.254 4.369-0.719 1.389-0.465 2.697-1.148 3.924-2.056 1.229-0.905 2.18-1.776 2.855-2.613 0.674-0.836 1.279-1.592 1.815-2.266 0.534-0.674 0.894-1.041 1.081-1.104 1.264-0.423 2.486-0.602 3.673-0.539 1.183 0.065 2.251 0.323 3.209 0.773 0.956 0.452 1.881 1.075 2.769 1.87 0.889 0.799 1.672 1.657 2.349 2.584 0.677 0.924 1.328 1.956 1.952 3.094 0.621 1.139 1.145 2.217 1.566 3.24 0.423 1.023 0.819 2.083 1.186 3.181zm-25.537-31.675c3.109 1.552 5.213 3.971 6.314 7.265 1.103 3.292 0.878 6.49-0.671 9.602-1.55 3.108-3.972 5.216-7.264 6.315-3.294 1.103-6.492 0.879-9.603-0.672-3.109-1.551-5.215-3.971-6.316-7.264-1.103-3.292-0.877-6.492 0.674-9.604 1.549-3.108 3.969-5.214 7.262-6.316 3.294-1.1 6.495-0.876 9.604 0.674z" clip-path="url(#a)" fill="#fff" opacity=".4"/>
	<path d="m304.2-552.93l-16.376 17.318c-0.662 0.7-1.479 1.064-2.448 1.091-0.971 0.027-1.807-0.289-2.507-0.951l-23.432-22.156c-0.7-0.662-1.063-1.479-1.09-2.45-0.028-0.97 0.29-1.806 0.952-2.506l16.375-17.318c0.663-0.701 1.478-1.064 2.449-1.091 0.971-0.029 1.807 0.289 2.507 0.951l23.431 22.156c0.701 0.662 1.064 1.478 1.09 2.45 0.029 0.97-0.288 1.805-0.951 2.506zm-2.595-1.337c0.021-0.022 0.077-0.081 0.167-0.177 0.089-0.095 0.158-0.167 0.202-0.214 0.045-0.047 0.108-0.12 0.188-0.214 0.08-0.096 0.126-0.177 0.14-0.245 0.013-0.067 0.029-0.143 0.048-0.225 0.019-0.084 8e-3 -0.168-0.031-0.255-0.04-0.087-0.1-0.171-0.185-0.251l-23.432-22.156c-0.138-0.131-0.304-0.193-0.501-0.187-0.197 5e-3 -0.36 0.077-0.49 0.214-1.685 1.782-2.331 4.028-1.934 6.733 0.522 3.551 1.06 7.244 1.61 11.082 0.015 0.113 0.053 0.444 0.115 0.996s0.117 0.981 0.168 1.29c0.05 0.308 0.127 0.699 0.234 1.171 0.105 0.472 0.235 0.871 0.39 1.198 0.155 0.325 0.337 0.589 0.549 0.79l0.016 0.015 0.016 0.015c0.212 0.201 0.486 0.368 0.819 0.504 0.334 0.135 0.74 0.243 1.218 0.322 0.478 0.08 0.872 0.135 1.183 0.168s0.744 0.065 1.298 0.095c0.553 0.031 0.886 0.05 1 0.059 3.864 0.335 7.581 0.666 11.156 0.988 1.004 0.085 2.118-0.023 3.338-0.326 1.22-0.3 2.127-0.765 2.718-1.39zm-15.818 16.729l11.561-12.226c-0.701 0.062-1.399 0.066-2.092 0.012-4.912-0.502-8.868-0.845-11.868-1.03-0.973-0.055-1.749-0.118-2.33-0.183-0.582-0.066-1.284-0.244-2.107-0.53-0.824-0.286-1.491-0.671-2-1.152l-0.017-0.015-0.016-0.015c-0.509-0.481-0.93-1.126-1.262-1.933-0.333-0.807-0.549-1.498-0.647-2.075s-0.204-1.347-0.312-2.315c-0.353-2.985-0.917-6.917-1.693-11.792-0.093-0.688-0.127-1.386-0.105-2.09l-11.561 12.227c-0.13 0.137-0.193 0.304-0.187 0.501 4e-3 0.197 0.077 0.358 0.215 0.489l23.431 22.156c0.138 0.13 0.303 0.194 0.5 0.187 0.197-6e-3 0.359-0.079 0.49-0.216z" clip-path="url(#a)" fill="#fff" opacity=".4"/>
	<path d="m1302-572.51c0.264 0.491 0.316 0.996 0.157 1.52l-7.522 26.802c-0.047 0.269-0.154 0.662-0.317 1.172-0.159 0.512-0.497 1.369-1.008 2.567-0.507 1.196-1.082 2.333-1.722 3.406-0.636 1.072-1.505 2.19-2.604 3.354-1.101 1.164-2.283 2.084-3.547 2.764-4.146 2.231-8.034 2.78-11.658 1.644-3.624-1.135-6.572-3.813-8.845-8.036-0.629-1.168-1.071-2.47-1.318-3.904-0.251-1.432-0.312-2.858-0.188-4.274 0.127-1.417 0.289-2.665 0.483-3.744 0.2-1.079 0.455-2.138 0.766-3.182-1.042-0.315-2.068-0.686-3.078-1.114-1.007-0.431-2.138-0.983-3.39-1.658s-2.407-1.513-3.465-2.512c-1.062-0.996-1.904-2.08-2.532-3.249-2.272-4.222-2.886-8.159-1.836-11.81 1.046-3.651 3.646-6.593 7.792-8.825 4.166-2.243 9.567-2.367 16.207-0.374l26.443 8.484c0.525 0.158 0.919 0.48 1.182 0.969z" clip-path="url(#a)" fill="#fff" opacity=".4"/>
	<path d="m1440.7-373.6c0.101 0.571 0.068 1.225-0.095 1.965-0.165 0.743-0.413 1.352-0.749 1.832l-14.494 20.659c-0.335 0.478-0.787 0.767-1.357 0.867-0.568 0.101-1.094-0.019-1.572-0.354l-24.102-16.909c-0.479-0.336-0.769-0.788-0.867-1.357-0.102-0.57 0.017-1.094 0.353-1.572l20.13-28.693c0.336-0.479 0.789-0.769 1.359-0.867 0.568-0.101 1.092 0.018 1.57 0.354l16.068 11.272c0.479 0.335 0.921 0.825 1.326 1.466 0.406 0.642 0.659 1.248 0.76 1.818l1.67 9.519zm-17.231 22.273l12.884-18.365-7.461-5.234c-0.479-0.335-0.767-0.788-0.867-1.357-0.101-0.57 0.018-1.093 0.354-1.571l5.233-7.46-13.773-9.663-19.325 27.546 22.955 16.104zm12.338-32.236l-4.73 6.742 6.744 4.731c0.122-0.428 0.163-0.767 0.119-1.011l-1.674-9.552c-0.044-0.244-0.196-0.546-0.459-0.91z" clip-path="url(#a)" fill="#fff" opacity=".4"/>
	<path d="m1425-149.68c-3.896 2.67-6.142 6.311-6.737 10.944l-4.926 3.15c-2.014 1.287-4.022 1.87-6.032 1.754-2.009-0.115-3.624-1.129-4.846-3.041-5.533-8.653-6.784-13.956-3.742-15.902 0.146-0.091 0.847-0.175 2.096-0.249 1.247-0.072 2.775-0.313 4.587-0.727 1.806-0.416 3.435-1.083 4.881-2.007 1.643-1.051 3.092-2.376 4.352-3.976 0.459 0.985 0.91 1.835 1.366 2.547 2.176 3.407 5.179 5.91 9.001 7.507zm-20.336-29.536c3.012 0.664 5.352 2.297 7.012 4.893 1.663 2.6 2.162 5.408 1.5 8.42-0.666 3.017-2.3 5.354-4.896 7.015-2.6 1.661-5.408 2.164-8.419 1.5-3.014-0.662-5.355-2.292-7.019-4.894-1.66-2.595-2.158-5.406-1.493-8.419 0.658-3.016 2.293-5.355 4.891-7.017 2.597-1.66 5.404-2.161 8.424-1.498zm74.707 27.777c1.882 2.943 2.472 5.84 1.77 8.689-0.699 2.849-2.532 5.22-5.5 7.118l-32.142 20.553c-2.97 1.898-5.896 2.57-8.772 2.008-2.876-0.561-5.262-2.31-7.142-5.252-0.831-1.299-1.601-2.595-2.307-3.888-0.706-1.295-1.388-2.74-2.049-4.342-0.66-1.598-1.186-3.136-1.576-4.614-0.388-1.473-0.629-3.007-0.711-4.593-0.084-1.59 0.043-3.069 0.376-4.442 0.335-1.366 0.961-2.695 1.884-3.975 0.93-1.285 2.135-2.405 3.631-3.361 0.241-0.155 0.944-0.229 2.089-0.216 1.144 9e-3 2.419 0.025 3.812 0.047 1.401 0.021 3.085-0.227 5.068-0.753 1.977-0.519 3.8-1.316 5.466-2.382 1.668-1.066 3.161-2.388 4.463-3.966 1.306-1.577 2.241-3.005 2.808-4.284 0.564-1.273 1.082-2.436 1.556-3.479 0.469-1.045 0.828-1.648 1.072-1.804 1.496-0.958 3.021-1.584 4.575-1.886 1.551-0.304 3.02-0.314 4.401-0.046 1.384 0.275 2.781 0.781 4.185 1.527 1.406 0.737 2.701 1.6 3.874 2.569 1.174 0.977 2.355 2.098 3.528 3.367 1.178 1.272 2.201 2.499 3.079 3.684 0.879 1.181 1.731 2.423 2.562 3.721zm-43.295-32.659c4.524 0.998 8.033 3.445 10.526 7.342 2.491 3.898 3.238 8.109 2.246 12.633-0.995 4.521-3.443 8.032-7.341 10.525-3.896 2.491-8.109 3.239-12.628 2.244-4.526-0.996-8.035-3.441-10.528-7.339-2.491-3.897-3.24-8.109-2.244-12.636 0.992-4.519 3.44-8.027 7.337-10.519s8.111-3.243 12.632-2.25zm10.954-22.208c3.015 0.663 5.355 2.295 7.016 4.892 1.662 2.6 2.162 5.408 1.497 8.422-0.664 3.014-2.293 5.35-4.893 7.012s-5.402 2.161-8.419 1.5c-3.015-0.663-5.354-2.294-7.016-4.895-1.66-2.596-2.162-5.405-1.498-8.418 0.663-3.019 2.294-5.354 4.893-7.016 2.599-1.663 5.404-2.162 8.42-1.497zm26.045 24.28c1.224 1.912 1.463 3.804 0.726 5.676-0.735 1.871-2.105 3.449-4.12 4.737l-4.928 3.15c-4.458-1.402-8.706-0.89-12.758 1.523 0.149-4.138-0.864-7.912-3.042-11.318-0.455-0.712-1.031-1.483-1.735-2.312 1.98-0.472 3.793-1.232 5.433-2.28 1.45-0.927 2.738-2.126 3.873-3.589 1.129-1.47 1.993-2.755 2.584-3.859 0.59-1.103 0.958-1.703 1.104-1.796 3.04-1.946 7.329 1.415 12.863 10.068z" clip-path="url(#a)" fill="#fff" opacity=".4"/>
	<path d="m1435.9-290.2c1.756 2.155 2.631 4.502 2.631 7.043s-0.875 4.891-2.631 7.044c-1.75 2.155-4.132 3.854-7.139 5.104-3.01 1.249-6.296 1.872-9.859 1.872-1.022 0-2.081-0.057-3.176-0.174-2.892 2.556-6.253 4.321-10.078 5.301-0.715 0.204-1.549 0.364-2.496 0.481-0.249 0.03-0.473-0.036-0.669-0.196-0.196-0.161-0.325-0.372-0.384-0.637v-0.021c-0.042-0.057-0.047-0.146-0.012-0.262 0.038-0.117 0.051-0.191 0.047-0.219-9e-3 -0.03 0.023-0.101 0.098-0.209 0.072-0.108 0.115-0.175 0.132-0.198 0.013-0.021 0.063-0.083 0.153-0.186 0.086-0.103 0.145-0.168 0.175-0.198 0.103-0.117 0.328-0.368 0.677-0.754 0.352-0.388 0.605-0.666 0.759-0.832 0.153-0.169 0.379-0.458 0.677-0.867 0.299-0.409 0.537-0.779 0.712-1.116s0.375-0.767 0.592-1.293c0.22-0.525 0.409-1.079 0.571-1.665-2.294-1.3-4.103-2.905-5.423-4.82-1.323-1.912-1.983-3.964-1.983-6.155 0-1.897 0.518-3.712 1.558-5.443 1.035-1.729 2.43-3.223 4.183-4.479 1.751-1.257 3.84-2.253 6.267-2.99 2.423-0.736 4.964-1.107 7.622-1.107 3.563 0 6.85 0.624 9.859 1.874 3.006 1.246 5.387 2.948 7.137 5.102z" clip-path="url(#a)" fill="#fff" opacity=".4"/>
	<path d="m35.2-442.61c2.71 2.146 4.404 4.76 5.087 7.846 0.684 3.086 0.252 6.175-1.3 9.261-1.547 3.088-3.981 5.792-7.298 8.119-3.319 2.326-7.142 3.966-11.469 4.924-1.954 0.432-3.859 0.686-5.721 0.765-2.39 3.747-5.796 6.631-10.225 8.653-0.881 0.382-1.619 0.666-2.21 0.852-0.208 0.066-0.417 0.055-0.62-0.031-0.205-0.083-0.356-0.217-0.452-0.401-0.132-0.25-0.027-0.619 0.314-1.101 0.068-0.109 0.233-0.345 0.5-0.712 0.261-0.365 0.443-0.622 0.539-0.773 0.097-0.151 0.254-0.425 0.476-0.818 0.217-0.393 0.367-0.72 0.451-0.979 0.083-0.26 0.192-0.629 0.328-1.104 0.135-0.478 0.217-0.94 0.247-1.395 0.031-0.452 0.047-0.991 0.05-1.615 2e-3 -0.625-0.031-1.293-0.097-2.003-2.942-1.023-5.402-2.492-7.379-4.409-1.978-1.915-3.247-4.14-3.809-6.678-0.683-3.086-0.251-6.171 1.301-9.26 1.547-3.086 3.981-5.793 7.298-8.118 3.319-2.327 7.143-3.968 11.47-4.926 4.326-0.958 8.485-1.083 12.476-0.374 3.99 0.706 7.338 2.132 10.043 4.277zm-26.026 17.26c0.521-0.813 0.674-1.688 0.466-2.63-0.208-0.938-0.717-1.67-1.532-2.187-0.812-0.518-1.689-0.671-2.625-0.464-0.942 0.208-1.67 0.717-2.191 1.53-0.514 0.811-0.673 1.691-0.466 2.628 0.209 0.942 0.723 1.669 1.532 2.188 0.815 0.517 1.691 0.674 2.632 0.465 0.936-0.206 1.667-0.719 2.184-1.53zm10.217-2.262c0.517-0.812 0.674-1.688 0.466-2.63-0.208-0.938-0.72-1.669-1.532-2.187-0.815-0.518-1.69-0.671-2.628-0.463-0.939 0.208-1.668 0.716-2.188 1.529-0.519 0.811-0.673 1.691-0.466 2.628 0.208 0.942 0.719 1.67 1.532 2.188 0.815 0.517 1.691 0.674 2.63 0.466 0.938-0.207 1.666-0.719 2.186-1.531zm10.218-2.261c0.515-0.812 0.674-1.688 0.465-2.629-0.208-0.938-0.723-1.669-1.531-2.187-0.815-0.518-1.69-0.672-2.631-0.463-0.94 0.208-1.668 0.716-2.185 1.529-0.521 0.812-0.674 1.69-0.466 2.628 0.208 0.941 0.716 1.67 1.531 2.188 0.812 0.517 1.688 0.674 2.626 0.466 0.943-0.209 1.67-0.721 2.191-1.532z" clip-path="url(#a)" fill="#fff" opacity=".4"/>
	<path d="m86.683-463.09l8.485 30.941c-4.03 1.15-8.162 1.475-12.391 0.977-4.229-0.494-8.232-1.816-12.013-3.97-5.03-2.864-8.959-6.749-11.795-11.646-2.838-4.9-4.291-10.18-4.348-15.842-0.057-5.659 1.346-11.004 4.211-16.035 2.866-5.031 6.748-8.965 11.644-11.801 4.898-2.835 10.183-4.285 15.844-4.341 5.66-0.06 11.002 1.343 16.032 4.208l-15.669 27.509zm34.859 14.024l-27.728-15.793 15.794-27.73c5.032 2.866 8.967 6.747 11.8 11.648 2.835 4.897 4.283 10.174 4.346 15.835 0.056 5.665-1.346 11.008-4.212 16.04zm-28.228-9.96l27.906 15.895c-2.154 3.781-4.918 6.961-8.301 9.545-3.386 2.584-7.104 4.41-11.155 5.482l-8.45-30.922z" clip-path="url(#a)" fill="#fff" opacity=".4"/>
	<path d="m70.135-325.13l1.891 3.869-61.861 30.228-22.671-46.397 3.867-1.89 20.78 42.528 57.994-28.338zm-22.285-35.809l6.421 13.141c0.207 0.423 0.153 0.818-0.154 1.179-0.309 0.362-0.703 0.463-1.184 0.298l-5.439-1.871-9.78 28.465c-0.1 0.301-0.284 0.514-0.545 0.643-0.264 0.129-0.542 0.141-0.841 0.036l-10.479-3.596-6.424 18.705-8.634-2.968 9.037-26.303c0.1-0.301 0.287-0.516 0.545-0.642 0.264-0.129 0.542-0.142 0.847-0.039l10.473 3.599 7.167-20.861-5.44-1.873c-0.481-0.165-0.731-0.482-0.752-0.96-0.021-0.477 0.18-0.818 0.604-1.026l13.138-6.419c0.283-0.138 0.562-0.161 0.83-0.067 0.266 0.093 0.473 0.276 0.61 0.559z" clip-path="url(#a)" fill="#fff" opacity=".4"/>
</svg>
