<?xml version="1.0" encoding="utf-8"?>
<!-- Generator: Adobe Illustrator 16.0.0, SVG Export Plug-In . SVG Version: 6.00 Build 0)  -->
<!DOCTYPE svg PUBLIC "-//W3C//DTD SVG 1.1//EN" "http://www.w3.org/Graphics/SVG/1.1/DTD/svg11.dtd">
<svg version="1.1" id="Layer_1" xmlns="http://www.w3.org/2000/svg" xmlns:xlink="http://www.w3.org/1999/xlink" x="0px" y="0px"
	 width="1436px" height="1346px" viewBox="0.5 -568 1436 1346" enable-background="new 0.5 -568 1436 1346" xml:space="preserve">
<title>BG_icon1</title>
<desc>Created with Sketch.</desc>
<g>
	<defs>
		<rect id="SVGID_1_" x="0.5" y="-568" width="1436" height="1346"/>
	</defs>
	<clipPath id="SVGID_2_">
		<use xlink:href="#SVGID_1_"  overflow="visible"/>
	</clipPath>
	<rect x="0.5" y="-568" clip-path="url(#SVGID_2_)" fill="#FBB03B" width="1436" height="1346"/>
	<path opacity="0.4" clip-path="url(#SVGID_2_)" fill="#FFFFFF" d="M38.308,180.278c-0.707,4.162-3.584,8.027-8.625,11.605
		L9.218,205.833c-0.397,0.282-0.839,0.381-1.329,0.298c-0.489-0.084-0.873-0.323-1.155-0.72l-14.729-19.988
		c-0.164-0.183-0.38-0.472-0.651-0.866c-0.271-0.393-0.689-1.1-1.252-2.115c-0.564-1.016-1.047-2.041-1.453-3.079
		c-0.403-1.035-0.715-2.259-0.929-3.673c-0.216-1.41-0.216-2.746-0.003-4.009c0.704-4.139,2.449-7.174,5.236-9.1
		c2.788-1.927,6.289-2.533,10.504-1.817c1.167,0.198,2.322,0.602,3.468,1.214c1.145,0.61,2.182,1.349,3.109,2.213
		c0.927,0.865,1.716,1.661,2.367,2.392c0.651,0.729,1.256,1.491,1.82,2.283c0.792-0.562,1.617-1.08,2.471-1.554
		c0.855-0.475,1.863-0.966,3.024-1.476c1.162-0.51,2.384-0.863,3.667-1.062c1.282-0.198,2.507-0.198,3.673,0.001
		c4.215,0.715,7.32,2.443,9.313,5.184C38.366,172.698,39.011,176.139,38.308,180.278z M34.694,179.664
		c0.258-1.523,0.285-2.904,0.08-4.139c-0.208-1.236-0.566-2.252-1.081-3.047c-0.514-0.792-1.187-1.482-2.016-2.069
		c-0.829-0.585-1.665-1.028-2.505-1.326s-1.749-0.531-2.728-0.696c-0.98-0.167-2.074-0.105-3.285,0.184
		c-1.21,0.288-2.354,0.715-3.425,1.276c-1.075,0.562-2.004,1.104-2.787,1.616c-0.787,0.516-1.449,0.999-1.99,1.45
		c-0.41,0.354-0.906,0.484-1.489,0.386c-0.584-0.1-1.011-0.386-1.279-0.857c-0.362-0.604-0.828-1.277-1.399-2.023
		c-0.569-0.745-1.269-1.562-2.096-2.447c-0.826-0.886-1.764-1.665-2.812-2.337c-1.048-0.673-2.062-1.092-3.04-1.258
		c-0.98-0.167-1.915-0.246-2.806-0.244c-0.892,0.005-1.824,0.146-2.801,0.425s-1.84,0.709-2.587,1.289
		c-0.748,0.58-1.421,1.419-2.025,2.517c-0.603,1.099-1.032,2.41-1.292,3.935c-0.539,3.161,0.654,6.801,3.576,10.918L8.622,201.81
		l19.057-12.998C31.819,185.876,34.157,182.826,34.694,179.664z"/>
	<path opacity="0.4" clip-path="url(#SVGID_2_)" fill="#FFFFFF" d="M1400.739,222.779l2.189,8.479
		c0.109,0.412,0.064,0.787-0.133,1.119c-0.194,0.335-0.502,0.554-0.913,0.664l-8.481,2.188c-0.412,0.108-0.789,0.062-1.119-0.135
		c-0.333-0.195-0.552-0.501-0.658-0.912l-2.195-8.483c-0.104-0.41-0.059-0.783,0.137-1.117c0.196-0.333,0.5-0.554,0.911-0.66
		l8.483-2.192c0.41-0.106,0.783-0.062,1.121,0.137C1400.409,222.06,1400.631,222.367,1400.739,222.779z M1416.239,212.739
		l3.654,14.138c0.106,0.412,0.061,0.782-0.137,1.117c-0.195,0.332-0.5,0.555-0.91,0.659l-8.48,2.195
		c-0.414,0.104-0.79,0.061-1.121-0.137c-0.334-0.194-0.555-0.5-0.659-0.912l-3.655-14.14c-0.102-0.411-0.061-0.779,0.134-1.116
		c0.198-0.332,0.501-0.553,0.916-0.659l8.479-2.189c0.412-0.11,0.787-0.066,1.119,0.132
		C1415.911,212.026,1416.132,212.328,1416.239,212.739z M1430.28,197.051l6.573,25.439c0.106,0.412,0.064,0.787-0.132,1.119
		c-0.197,0.335-0.501,0.554-0.916,0.661l-8.479,2.191c-0.414,0.108-0.786,0.064-1.119-0.135c-0.333-0.195-0.554-0.502-0.657-0.914
		l-6.578-25.439c-0.106-0.416-0.061-0.787,0.133-1.121c0.194-0.333,0.502-0.555,0.912-0.661L1428.5,196
		c0.412-0.106,0.785-0.062,1.117,0.135C1429.953,196.332,1430.17,196.635,1430.28,197.051z M1442.856,175.701l10.963,42.406
		c0.105,0.413,0.061,0.785-0.137,1.118c-0.194,0.332-0.498,0.555-0.913,0.665l-8.481,2.188c-0.414,0.106-0.785,0.062-1.119-0.135
		c-0.331-0.198-0.553-0.5-0.658-0.913l-10.961-42.406c-0.107-0.411-0.062-0.787,0.133-1.121c0.197-0.331,0.502-0.552,0.914-0.66
		l8.481-2.191c0.414-0.105,0.783-0.061,1.118,0.136C1442.53,174.984,1442.748,175.288,1442.856,175.701z M1453.974,148.699
		l16.808,65.022c0.106,0.412,0.059,0.787-0.137,1.119c-0.197,0.335-0.5,0.555-0.912,0.661l-8.48,2.189
		c-0.414,0.108-0.786,0.062-1.121-0.133c-0.334-0.197-0.551-0.502-0.659-0.916l-16.808-65.021c-0.106-0.41-0.061-0.783,0.135-1.115
		c0.197-0.335,0.502-0.558,0.914-0.664l8.482-2.19c0.412-0.11,0.783-0.062,1.115,0.135
		C1453.647,147.982,1453.867,148.287,1453.974,148.699z"/>
	<path opacity="0.4" clip-path="url(#SVGID_2_)" fill="#FFFFFF" d="M1440.082,288.802c4.836,3.299,8.541,7.653,11.113,13.062
		c2.571,5.407,3.611,11.029,3.119,16.863c-0.495,5.835-2.392,11.172-5.691,16.01c-3.299,4.836-7.653,8.542-13.061,11.114
		c-5.409,2.572-11.031,3.61-16.866,3.118c-5.834-0.493-11.171-2.391-16.008-5.69c-4.836-3.299-8.541-7.653-11.112-13.062
		c-2.572-5.408-3.612-11.03-3.12-16.863c0.493-5.835,2.39-11.172,5.688-16.009c3.301-4.837,7.654-8.543,13.062-11.115
		s11.031-3.61,16.864-3.118C1429.906,283.606,1435.243,285.503,1440.082,288.802z M1444.708,317.944
		c0.349-4.134-0.387-8.114-2.208-11.944c-1.821-3.829-4.445-6.913-7.872-9.251c-3.428-2.334-7.209-3.677-11.341-4.028
		c-4.134-0.351-8.114,0.384-11.945,2.205c-3.829,1.821-6.912,4.447-9.248,7.874c-2.338,3.428-3.68,7.208-4.031,11.339
		c-0.35,4.135,0.385,8.117,2.206,11.946c1.821,3.83,4.446,6.911,7.874,9.249c3.428,2.336,7.206,3.681,11.341,4.028
		c4.132,0.352,8.114-0.384,11.944-2.205s6.911-4.446,9.248-7.874C1443.012,325.858,1444.357,322.078,1444.708,317.944z
		 M1419.855,300.016l8.271,17.39c0.172,0.361,0.196,0.715,0.075,1.058c-0.121,0.344-0.365,0.603-0.728,0.774l-12.42,5.906
		c-0.362,0.173-0.716,0.198-1.059,0.076c-0.344-0.122-0.602-0.364-0.773-0.726l-1.183-2.485c-0.172-0.362-0.197-0.716-0.074-1.059
		c0.121-0.344,0.364-0.602,0.727-0.773l8.694-4.136l-6.498-13.663c-0.172-0.362-0.197-0.717-0.075-1.059
		c0.121-0.344,0.363-0.603,0.727-0.775l2.483-1.181c0.362-0.172,0.717-0.198,1.06-0.074
		C1419.423,299.411,1419.683,299.653,1419.855,300.016z"/>
	<path opacity="0.4" clip-path="url(#SVGID_2_)" fill="#FFFFFF" d="M21.76-56.404L1.977-29.517
		c-0.718,0.971-1.679,1.551-2.889,1.733c-1.184,0.182-2.286-0.083-3.304-0.792l-4.19-3.144c-0.99-0.687-1.58-1.649-1.768-2.88
		c-0.185-1.208,0.092-2.312,0.825-3.31l19.754-26.848c1.229,2.1,2.838,3.881,4.82,5.34C17.211-57.956,19.387-56.949,21.76-56.404z
		 M1.496-37.039c0.368-0.5,0.506-1.047,0.416-1.64c-0.09-0.594-0.385-1.075-0.885-1.44c-0.499-0.368-1.044-0.507-1.639-0.416
		c-0.594,0.091-1.074,0.386-1.439,0.886c-0.367,0.497-0.509,1.044-0.417,1.64c0.091,0.591,0.384,1.071,0.884,1.438
		c0.502,0.369,1.046,0.505,1.638,0.417C0.649-36.244,1.127-36.54,1.496-37.039z M41.184-74.585c0.137,0.888,0.059,2.137-0.231,3.745
		c-0.61,3.222-2.108,5.985-4.496,8.299c-2.392,2.312-5.194,3.713-8.411,4.201c-4.221,0.644-8.056-0.307-11.514-2.85
		c-3.455-2.542-5.504-5.925-6.149-10.144c-0.64-4.221,0.31-8.059,2.853-11.514c2.542-3.457,5.923-5.506,10.145-6.149
		c1.322-0.2,2.736-0.223,4.24-0.066c1.509,0.156,2.814,0.499,3.922,1.032c0.406,0.194,0.635,0.486,0.693,0.875
		c0.059,0.387-0.074,0.734-0.399,1.041L22.69-78.81l1.167,7.666l7.158,2.652c0.105-0.084,0.923-0.771,2.452-2.066
		s2.934-2.454,4.213-3.477c1.283-1.024,2.021-1.551,2.229-1.584c0.34-0.051,0.627,0.022,0.857,0.221
		C40.993-75.198,41.133-74.928,41.184-74.585z"/>
	<path opacity="0.4" clip-path="url(#SVGID_2_)" fill="#FFFFFF" d="M105.881,766.673c-2.184,2.108-4.762,3.437-7.736,3.986
		c-0.597,1.003-1.336,1.93-2.219,2.782c-1.887,1.822-4.104,3.062-6.645,3.717c-0.444,0.57-0.936,1.116-1.475,1.636
		c-2.477,2.393-5.369,3.764-8.677,4.115c-3.386,3.315-7.081,4.871-11.091,4.67c-4.011-0.204-7.685-2.033-11.022-5.49l-1.278-1.324
		l-3.303-3.42c-2.272-2.354-4.24-4.943-5.902-7.769c-1.662-2.826-3.421-6.255-5.279-10.288c-1.767-3.791-2.908-5.956-3.43-6.495
		l-10.227-10.592c-1.256-1.3-1.866-2.853-1.835-4.661c0.03-1.806,0.696-3.336,1.996-4.592l23.536-22.728
		c1.301-1.255,2.854-1.867,4.66-1.835c1.808,0.032,3.338,0.696,4.594,1.996l9.73,10.077c1.44,0.313,4.963,0.158,10.564-0.466
		c3.213-0.354,6.047-0.558,8.508-0.61c1.18-0.004,2.648-0.581,4.404-1.731s3.668-2.273,5.736-3.37s4.125-1.615,6.173-1.556
		c1.831,0.08,3.35,0.746,4.558,1.996c1.988,2.061,3.377,4.295,4.167,6.708c0.788,2.412,0.753,4.862-0.11,7.354
		s-2.729,5.122-5.598,7.893c-2.28,2.202-5.202,3.887-8.766,5.053l6.25,6.474c2.462,2.55,3.662,5.656,3.597,9.318
		C109.698,761.184,108.405,764.235,105.881,766.673z M36.873,740.989c0.916,0.016,1.693-0.284,2.33-0.899
		c0.638-0.616,0.964-1.382,0.981-2.297c0.015-0.915-0.284-1.692-0.899-2.329c-0.617-0.639-1.383-0.965-2.297-0.981
		c-0.916-0.015-1.692,0.284-2.33,0.9c-0.638,0.615-0.965,1.382-0.98,2.297c-0.018,0.916,0.283,1.691,0.899,2.329
		C35.193,740.646,35.957,740.973,36.873,740.989z M101.297,762.002c1.251-1.208,1.886-2.745,1.906-4.613
		c0.021-1.867-0.561-3.415-1.744-4.641l-12.501-12.945c1.421-1.372,3.946-2.673,7.571-3.898c3.625-1.227,6.16-2.537,7.606-3.935
		c2.403-2.319,3.802-4.43,4.196-6.326c0.395-1.898-0.545-4.022-2.817-6.376c-1.253-0.022-2.744,0.519-4.475,1.62
		c-1.731,1.103-3.631,2.215-5.698,3.336c-2.07,1.122-4.117,1.688-6.141,1.7c-1.086,0.006-3.111,0.138-6.082,0.4
		c-0.217,0.02-0.857,0.093-1.92,0.22c-1.062,0.125-1.938,0.225-2.625,0.297c-0.689,0.071-1.619,0.153-2.789,0.241
		c-1.171,0.088-2.184,0.118-3.039,0.091s-1.745-0.08-2.672-0.156c-0.928-0.075-1.731-0.247-2.414-0.512
		c-0.683-0.264-1.213-0.594-1.592-0.985l-1.137-1.177L41.396,747.07l1.137,1.177c0.307,0.318,0.643,0.74,1.009,1.265
		c0.364,0.524,0.674,1.007,0.932,1.445s0.573,1.033,0.946,1.786c0.37,0.755,0.646,1.32,0.818,1.697
		c0.175,0.376,0.44,0.96,0.802,1.749c0.36,0.79,0.574,1.269,0.644,1.44c3.205,6.901,6.358,11.957,9.46,15.169l4.298,4.45
		c4.545,4.707,8.866,5.083,12.96,1.13c0.637-0.615,1.264-1.339,1.883-2.173c1.102,0.358,2.307,0.318,3.617-0.116
		c1.309-0.437,2.417-1.091,3.324-1.968c0.906-0.875,1.539-1.913,1.897-3.111c2.479,0.115,4.567-0.643,6.259-2.276
		c0.613-0.592,1.174-1.372,1.686-2.339c0.512-0.968,0.797-1.836,0.859-2.606c0.781,0.762,1.991,0.86,3.628,0.299
		C99.19,763.525,100.439,762.831,101.297,762.002z"/>
	<path opacity="0.4" clip-path="url(#SVGID_2_)" fill="#FFFFFF" d="M120.49,618.135c2.444,3.1,3.326,7.521,2.646,13.263
		l-3.153,22.953c-0.054,0.451-0.263,0.82-0.627,1.108c-0.364,0.287-0.772,0.403-1.224,0.351l-23.109-2.313
		c-0.229-0.001-0.566-0.032-1.01-0.091c-0.444-0.059-1.195-0.211-2.254-0.458c-1.059-0.245-2.073-0.553-3.047-0.923
		c-0.974-0.369-2.018-0.921-3.133-1.658c-1.114-0.734-2.042-1.573-2.783-2.513c-2.432-3.084-3.443-6.198-3.033-9.341
		s2.186-5.953,5.327-8.43c0.869-0.686,1.874-1.234,3.017-1.646c1.143-0.411,2.305-0.668,3.486-0.77s2.23-0.149,3.145-0.144
		c0.914,0.007,1.824,0.063,2.727,0.17c0.107-0.902,0.264-1.8,0.471-2.69s0.498-1.898,0.873-3.024s0.896-2.195,1.562-3.211
		c0.667-1.015,1.435-1.863,2.305-2.549c3.142-2.477,6.288-3.548,9.439-3.214C115.266,613.341,118.059,615.051,120.49,618.135z
		 M117.798,620.258c-0.896-1.135-1.837-2.019-2.823-2.65c-0.987-0.632-1.917-1.019-2.791-1.16c-0.873-0.141-1.773-0.107-2.701,0.1
		c-0.927,0.209-1.758,0.511-2.49,0.908c-0.734,0.396-1.467,0.881-2.195,1.456s-1.373,1.373-1.932,2.395
		c-0.561,1.021-0.98,2.081-1.264,3.178c-0.283,1.099-0.49,2.082-0.625,2.949c-0.135,0.868-0.215,1.631-0.242,2.289
		c-0.01,0.507-0.231,0.933-0.666,1.275c-0.436,0.343-0.9,0.459-1.396,0.35c-0.646-0.127-1.406-0.227-2.282-0.299
		c-0.875-0.071-1.879-0.098-3.014-0.079c-1.133,0.019-2.262,0.18-3.385,0.486c-1.123,0.306-2.051,0.746-2.779,1.32
		c-0.729,0.575-1.372,1.174-1.928,1.794c-0.558,0.621-1.045,1.358-1.464,2.211c-0.419,0.854-0.661,1.722-0.728,2.604
		c-0.066,0.883,0.093,1.877,0.477,2.984c0.385,1.107,1.024,2.228,1.92,3.364c1.857,2.355,5.131,3.811,9.82,4.365l21.508,2.144
		l2.93-21.377C120.305,626.149,119.656,622.614,117.798,620.258z"/>
	<path opacity="0.4" clip-path="url(#SVGID_2_)" fill="#FFFFFF" d="M174.832,716.135l-1.48,3.328
		c-0.053,0.12-0.146,0.219-0.281,0.296c-0.135,0.076-0.259,0.097-0.373,0.061l-2.98-0.809c-0.318,0.361-0.713,0.732-1.184,1.112
		c0.152,0.757,0.385,1.687,0.699,2.79c0.031,0.157,0.02,0.296-0.033,0.415c-0.064,0.145-0.158,0.239-0.279,0.287
		c-0.436,0.236-1.169,0.554-2.199,0.95c-1.032,0.396-1.662,0.544-1.89,0.442c-0.132-0.059-0.239-0.156-0.321-0.294l-1.35-2.539
		c-0.546,0.03-1.09,0.011-1.634-0.06c-0.708,1.237-1.259,2.106-1.653,2.607c-0.213,0.25-0.457,0.313-0.732,0.191l-3.348-1.488
		c-0.133-0.06-0.231-0.157-0.3-0.295c-0.067-0.139-0.081-0.27-0.04-0.396l0.81-2.937c-0.354-0.302-0.722-0.688-1.101-1.158
		l-2.836,0.658c-0.121,0.046-0.26,0.035-0.416-0.034c-0.133-0.059-0.237-0.163-0.314-0.312c-1.018-2.363-1.455-3.708-1.312-4.031
		c0.048-0.108,0.142-0.203,0.278-0.286c0.195-0.114,0.582-0.323,1.162-0.625c0.58-0.304,1.023-0.544,1.334-0.722
		c-0.042-0.651-0.033-1.236,0.025-1.757l-2.543-1.647c-0.115-0.065-0.191-0.168-0.23-0.307c-0.038-0.14-0.028-0.275,0.031-0.407
		l1.479-3.329c0.054-0.12,0.148-0.218,0.282-0.295c0.134-0.076,0.259-0.097,0.372-0.061l2.982,0.808
		c0.318-0.361,0.712-0.731,1.183-1.111c-0.151-0.758-0.385-1.688-0.699-2.79c-0.024-0.17-0.014-0.309,0.034-0.416
		c0.064-0.145,0.159-0.245,0.285-0.304c0.424-0.243,1.154-0.558,2.188-0.945c1.034-0.389,1.665-0.531,1.894-0.431
		c0.132,0.06,0.239,0.157,0.322,0.295l1.35,2.538c0.503-0.034,1.051-0.021,1.641,0.041c0.709-1.237,1.257-2.1,1.646-2.587
		c0.212-0.251,0.455-0.315,0.732-0.192l3.347,1.487c0.132,0.059,0.231,0.158,0.3,0.296s0.081,0.27,0.04,0.395l-0.81,2.938
		c0.354,0.302,0.721,0.688,1.102,1.157l2.835-0.657c0.134-0.041,0.272-0.029,0.416,0.034c0.132,0.059,0.237,0.162,0.313,0.312
		c1.02,2.364,1.456,3.707,1.312,4.032c-0.048,0.107-0.141,0.202-0.277,0.285c-0.23,0.129-0.626,0.34-1.188,0.637
		c-0.562,0.296-0.993,0.535-1.29,0.719c0.02,0.699,0.004,1.282-0.045,1.748l2.553,1.63c0.108,0.077,0.183,0.186,0.221,0.325
		C174.901,715.866,174.891,716.003,174.832,716.135z M164.397,717.356c1.299-0.499,2.231-1.385,2.797-2.656s0.598-2.558,0.099-3.857
		c-0.5-1.3-1.386-2.232-2.657-2.798s-2.559-0.598-3.857-0.099c-1.3,0.501-2.232,1.387-2.798,2.658
		c-0.565,1.271-0.599,2.558-0.099,3.856c0.5,1.301,1.387,2.232,2.658,2.798S163.096,717.857,164.397,717.356z M190.278,712.418
		l-1.119,2.52c-0.086,0.192-1.062-0.02-2.93-0.634c-0.289,0.259-0.607,0.492-0.957,0.695c0.01,1.628-0.053,2.592-0.186,2.892
		c-0.021,0.048-0.064,0.079-0.128,0.094c-1.843,0.201-2.775,0.297-2.8,0.286c-0.096-0.044-0.246-0.447-0.451-1.214
		s-0.336-1.313-0.393-1.64c-0.25-0.083-0.436-0.151-0.555-0.204c-0.121-0.053-0.295-0.146-0.524-0.275
		c-0.28,0.176-0.773,0.446-1.479,0.807c-0.707,0.361-1.108,0.521-1.204,0.479c-0.024-0.011-0.579-0.768-1.663-2.27
		c-0.033-0.058-0.038-0.11-0.018-0.158c0.135-0.301,0.809-0.992,2.022-2.075c-0.083-0.396-0.124-0.788-0.124-1.176
		c-1.707-0.976-2.519-1.559-2.434-1.751l1.12-2.52c0.085-0.191,1.062,0.02,2.93,0.635c0.31-0.278,0.629-0.51,0.956-0.695
		c-0.01-1.628,0.053-2.592,0.186-2.892c0.021-0.048,0.064-0.08,0.129-0.095c0.058-0.002,0.321-0.029,0.789-0.079
		c0.469-0.051,0.912-0.098,1.334-0.141c0.422-0.042,0.644-0.058,0.668-0.048c0.096,0.043,0.248,0.444,0.456,1.205
		s0.339,1.304,0.396,1.631c0.25,0.082,0.436,0.15,0.557,0.204c0.119,0.054,0.294,0.146,0.523,0.275
		c0.99-0.579,1.841-1.006,2.552-1.279l0.124,0.013c0.047,0.021,0.604,0.771,1.672,2.252c0.031,0.057,0.036,0.109,0.016,0.157
		c-0.134,0.3-0.809,0.992-2.022,2.075c0.081,0.367,0.122,0.759,0.124,1.176C189.552,711.642,190.364,712.225,190.278,712.418z
		 M182.086,730.845l-1.119,2.52c-0.086,0.192-1.062-0.02-2.93-0.635c-0.289,0.261-0.607,0.492-0.957,0.697
		c0.01,1.627-0.053,2.591-0.186,2.891c-0.021,0.049-0.064,0.079-0.128,0.095c-1.843,0.201-2.775,0.296-2.8,0.285
		c-0.096-0.043-0.246-0.447-0.451-1.214s-0.336-1.313-0.393-1.64c-0.25-0.083-0.436-0.15-0.556-0.203
		c-0.12-0.054-0.294-0.146-0.524-0.276c-0.279,0.177-0.772,0.445-1.479,0.808c-0.706,0.36-1.108,0.52-1.203,0.478
		c-0.024-0.011-0.579-0.768-1.664-2.27c-0.032-0.058-0.038-0.11-0.017-0.158c0.134-0.3,0.809-0.992,2.022-2.075
		c-0.083-0.396-0.124-0.788-0.124-1.176c-1.708-0.976-2.52-1.558-2.434-1.75l1.12-2.52c0.085-0.191,1.062,0.02,2.929,0.634
		c0.311-0.277,0.63-0.511,0.957-0.695c-0.01-1.628,0.053-2.592,0.186-2.892c0.021-0.048,0.064-0.08,0.129-0.095
		c0.058-0.002,0.321-0.028,0.789-0.079c0.468-0.05,0.912-0.097,1.334-0.14c0.421-0.043,0.644-0.06,0.668-0.049
		c0.096,0.043,0.247,0.444,0.455,1.205c0.209,0.761,0.34,1.304,0.396,1.631c0.25,0.083,0.436,0.15,0.557,0.204
		c0.119,0.053,0.293,0.146,0.523,0.276c0.99-0.58,1.84-1.007,2.551-1.28l0.124,0.012c0.048,0.021,0.605,0.772,1.672,2.252
		c0.032,0.058,0.037,0.11,0.017,0.158c-0.135,0.301-0.809,0.991-2.022,2.075c0.081,0.367,0.122,0.759,0.124,1.177
		C181.36,730.07,182.171,730.654,182.086,730.845z M185.111,711.629c0.277-0.623,0.289-1.264,0.036-1.923
		c-0.254-0.659-0.691-1.127-1.315-1.404s-1.265-0.289-1.924-0.036c-0.659,0.254-1.127,0.692-1.403,1.315
		c-0.283,0.638-0.3,1.28-0.05,1.93s0.692,1.116,1.329,1.398c0.636,0.282,1.279,0.299,1.928,0.049
		C184.362,712.708,184.828,712.265,185.111,711.629z M176.918,730.057c0.277-0.623,0.29-1.265,0.037-1.924
		c-0.254-0.658-0.691-1.126-1.315-1.403c-0.624-0.278-1.266-0.289-1.925-0.036c-0.658,0.254-1.126,0.692-1.402,1.315
		c-0.283,0.637-0.3,1.279-0.05,1.929s0.692,1.116,1.329,1.398c0.635,0.283,1.278,0.3,1.928,0.049
		C176.17,731.136,176.636,730.693,176.918,730.057z"/>
	<path opacity="0.4" clip-path="url(#SVGID_2_)" fill="#FFFFFF" d="M1420.897,751.259l-2.078,4.673
		c-0.074,0.168-0.206,0.307-0.396,0.415c-0.188,0.107-0.363,0.136-0.523,0.085l-4.185-1.135c-0.447,0.507-1.001,1.028-1.662,1.562
		c0.214,1.062,0.54,2.368,0.981,3.917c0.044,0.221,0.028,0.416-0.046,0.583c-0.091,0.203-0.223,0.336-0.393,0.403
		c-0.611,0.331-1.641,0.777-3.088,1.334c-1.449,0.557-2.334,0.764-2.653,0.621c-0.185-0.082-0.336-0.22-0.451-0.413l-1.895-3.564
		c-0.767,0.042-1.53,0.015-2.294-0.084c-0.994,1.737-1.768,2.958-2.321,3.661c-0.299,0.351-0.642,0.44-1.028,0.269l-4.7-2.09
		c-0.187-0.083-0.325-0.221-0.421-0.414c-0.095-0.194-0.114-0.378-0.057-0.555l1.137-4.123c-0.497-0.424-1.013-0.966-1.545-1.627
		l-3.982,0.925c-0.17,0.064-0.364,0.049-0.584-0.048c-0.186-0.083-0.333-0.229-0.441-0.439c-1.429-3.317-2.043-5.206-1.841-5.66
		c0.067-0.151,0.198-0.285,0.391-0.401c0.274-0.16,0.817-0.454,1.632-0.878c0.814-0.426,1.437-0.764,1.873-1.013
		c-0.06-0.915-0.047-1.736,0.035-2.467l-3.57-2.313c-0.162-0.092-0.269-0.235-0.323-0.431c-0.054-0.195-0.04-0.386,0.044-0.571
		l2.075-4.674c0.075-0.169,0.209-0.307,0.396-0.414s0.363-0.136,0.522-0.085l4.188,1.134c0.447-0.508,1-1.027,1.66-1.561
		c-0.212-1.064-0.54-2.369-0.981-3.917c-0.034-0.239-0.02-0.434,0.048-0.585c0.091-0.202,0.224-0.344,0.4-0.426
		c0.595-0.342,1.621-0.783,3.072-1.327c1.452-0.546,2.338-0.746,2.659-0.605c0.185,0.084,0.336,0.221,0.452,0.414l1.896,3.564
		c0.706-0.049,1.476-0.029,2.304,0.058c0.995-1.737,1.764-2.948,2.312-3.633c0.297-0.353,0.639-0.442,1.028-0.27l4.698,2.088
		c0.186,0.082,0.325,0.222,0.421,0.415c0.097,0.193,0.114,0.379,0.057,0.555l-1.137,4.124c0.496,0.424,1.012,0.965,1.547,1.625
		l3.98-0.923c0.188-0.058,0.383-0.041,0.584,0.048c0.186,0.082,0.333,0.228,0.44,0.438c1.431,3.319,2.044,5.205,1.843,5.661
		c-0.067,0.151-0.197,0.284-0.39,0.4c-0.323,0.182-0.879,0.478-1.669,0.895c-0.79,0.415-1.395,0.751-1.812,1.009
		c0.028,0.981,0.006,1.801-0.062,2.454l3.584,2.289c0.152,0.108,0.257,0.26,0.31,0.456
		C1420.992,750.882,1420.979,751.073,1420.897,751.259z M1406.245,752.973c1.823-0.7,3.133-1.944,3.927-3.729
		s0.839-3.591,0.139-5.416c-0.702-1.825-1.946-3.135-3.731-3.928c-1.785-0.794-3.593-0.84-5.416-0.139
		c-1.825,0.703-3.134,1.946-3.928,3.732c-0.794,1.783-0.841,3.591-0.139,5.414c0.702,1.826,1.946,3.135,3.732,3.929
		C1402.615,753.631,1404.418,753.677,1406.245,752.973z M1442.583,746.04l-1.571,3.537c-0.121,0.271-1.492-0.027-4.114-0.89
		c-0.405,0.363-0.853,0.691-1.343,0.977c0.014,2.285-0.074,3.639-0.261,4.06c-0.03,0.067-0.091,0.111-0.18,0.132
		c-2.588,0.282-3.897,0.417-3.932,0.401c-0.134-0.062-0.345-0.628-0.633-1.704s-0.472-1.844-0.552-2.302
		c-0.351-0.117-0.611-0.213-0.778-0.287c-0.17-0.074-0.414-0.204-0.736-0.387c-0.394,0.247-1.086,0.627-2.077,1.133
		c-0.993,0.508-1.557,0.73-1.691,0.672c-0.034-0.015-0.812-1.078-2.335-3.187c-0.046-0.081-0.053-0.155-0.024-0.222
		c0.189-0.423,1.136-1.394,2.84-2.914c-0.117-0.557-0.174-1.106-0.174-1.651c-2.397-1.369-3.537-2.188-3.417-2.458l1.572-3.537
		c0.119-0.27,1.49,0.027,4.113,0.891c0.435-0.391,0.884-0.716,1.343-0.976c-0.014-2.286,0.074-3.64,0.261-4.061
		c0.03-0.067,0.09-0.112,0.181-0.133c0.081-0.003,0.451-0.041,1.107-0.111c0.658-0.071,1.281-0.137,1.873-0.197
		c0.593-0.059,0.904-0.081,0.938-0.067c0.134,0.061,0.348,0.624,0.64,1.692s0.477,1.83,0.556,2.29
		c0.351,0.115,0.611,0.211,0.781,0.286c0.168,0.075,0.413,0.204,0.735,0.387c1.391-0.813,2.584-1.412,3.583-1.796l0.174,0.018
		c0.065,0.028,0.849,1.083,2.348,3.162c0.044,0.079,0.051,0.153,0.021,0.221c-0.188,0.421-1.135,1.393-2.84,2.913
		c0.114,0.516,0.172,1.065,0.175,1.651C1441.564,744.951,1442.703,745.769,1442.583,746.04z M1431.082,771.913l-1.572,3.538
		c-0.12,0.27-1.491-0.027-4.113-0.892c-0.405,0.366-0.853,0.691-1.344,0.979c0.014,2.285-0.074,3.638-0.26,4.059
		c-0.03,0.069-0.091,0.111-0.18,0.134c-2.588,0.282-3.897,0.415-3.932,0.4c-0.134-0.061-0.346-0.628-0.633-1.705
		c-0.288-1.076-0.473-1.844-0.552-2.302c-0.351-0.116-0.611-0.211-0.78-0.285c-0.168-0.075-0.412-0.206-0.736-0.388
		c-0.392,0.248-1.084,0.625-2.077,1.134c-0.991,0.506-1.556,0.729-1.689,0.67c-0.034-0.015-0.812-1.077-2.336-3.187
		c-0.046-0.08-0.054-0.154-0.023-0.222c0.188-0.421,1.136-1.394,2.84-2.914c-0.117-0.557-0.175-1.106-0.175-1.65
		c-2.397-1.37-3.537-2.188-3.416-2.457l1.572-3.538c0.119-0.269,1.49,0.027,4.112,0.891c0.436-0.39,0.884-0.718,1.344-0.977
		c-0.014-2.286,0.073-3.639,0.261-4.06c0.029-0.067,0.09-0.113,0.181-0.134c0.081-0.002,0.451-0.039,1.107-0.11
		c0.657-0.07,1.281-0.136,1.873-0.196c0.591-0.061,0.903-0.084,0.938-0.068c0.134,0.06,0.347,0.623,0.639,1.691
		c0.293,1.068,0.477,1.831,0.557,2.29c0.351,0.116,0.611,0.211,0.781,0.286c0.168,0.074,0.411,0.205,0.735,0.389
		c1.39-0.814,2.583-1.414,3.581-1.798l0.174,0.017c0.067,0.03,0.851,1.084,2.348,3.162c0.045,0.08,0.053,0.154,0.023,0.222
		c-0.189,0.423-1.135,1.392-2.84,2.914c0.114,0.516,0.172,1.065,0.175,1.652C1430.062,770.824,1431.201,771.644,1431.082,771.913z
		 M1435.328,744.931c0.389-0.874,0.405-1.773,0.051-2.699c-0.356-0.926-0.971-1.582-1.848-1.972
		c-0.876-0.39-1.775-0.406-2.701-0.051c-0.925,0.356-1.582,0.972-1.97,1.847c-0.397,0.896-0.421,1.798-0.07,2.709
		c0.352,0.912,0.973,1.567,1.866,1.964c0.893,0.396,1.797,0.42,2.707,0.068C1434.277,746.447,1434.932,745.826,1435.328,744.931z
		 M1423.825,770.806c0.39-0.875,0.407-1.775,0.053-2.701c-0.356-0.924-0.972-1.581-1.848-1.97c-0.876-0.392-1.776-0.406-2.702-0.051
		c-0.924,0.356-1.581,0.972-1.969,1.847c-0.397,0.894-0.421,1.796-0.07,2.708c0.352,0.912,0.973,1.567,1.866,1.963
		c0.892,0.398,1.795,0.421,2.707,0.069C1422.776,772.322,1423.43,771.699,1423.825,770.806z"/>
	<path opacity="0.4" clip-path="url(#SVGID_2_)" fill="#FFFFFF" d="M1349.45,708.021c0,0.393-0.231,0.821-0.696,1.286l-9.723,9.481
		l2.303,13.394c0.018,0.124,0.027,0.303,0.027,0.535c0,0.893-0.367,1.34-1.099,1.34c-0.339,0-0.696-0.107-1.071-0.322l-12.027-6.321
		l-12.026,6.321c-0.394,0.215-0.75,0.322-1.071,0.322c-0.375,0-0.656-0.13-0.844-0.389s-0.281-0.576-0.281-0.951
		c0-0.107,0.018-0.286,0.054-0.535l2.304-13.394l-9.75-9.481c-0.447-0.482-0.67-0.911-0.67-1.286c0-0.66,0.5-1.071,1.5-1.232
		l13.446-1.955l6.026-12.188c0.34-0.732,0.777-1.099,1.312-1.099c0.536,0,0.974,0.366,1.312,1.099l6.027,12.188l13.446,1.955
		C1348.95,706.95,1349.45,707.361,1349.45,708.021z M1335.334,717.584l8.197-7.955l-11.305-1.661l-5.062-10.232l-5.062,10.232
		l-11.303,1.661l8.196,7.955l-1.956,11.276l10.125-5.33l10.099,5.33L1335.334,717.584z"/>
	<path opacity="0.4" clip-path="url(#SVGID_2_)" fill="#FFFFFF" d="M1425.55,557.26c-0.407-0.173-0.691-0.461-0.854-0.863
		l-8.645-20.381c-0.104-0.191-0.233-0.487-0.388-0.886c-0.153-0.398-0.369-1.097-0.648-2.095c-0.279-0.996-0.485-1.985-0.623-2.97
		c-0.138-0.982-0.153-2.108-0.047-3.378c0.104-1.268,0.381-2.428,0.827-3.477c1.465-3.445,3.606-5.719,6.421-6.813
		c2.814-1.096,5.979-0.897,9.487,0.595c0.972,0.413,1.891,1.002,2.758,1.769c0.866,0.768,1.613,1.621,2.239,2.562
		c0.626,0.943,1.146,1.797,1.559,2.565c0.415,0.768,0.782,1.553,1.107,2.356c0.804-0.323,1.625-0.603,2.465-0.838
		c0.839-0.234,1.815-0.453,2.929-0.655c1.112-0.2,2.245-0.256,3.398-0.163c1.154,0.093,2.215,0.347,3.188,0.76
		c3.509,1.492,5.844,3.633,7.008,6.422c1.163,2.788,1.012,5.906-0.454,9.351c-1.473,3.464-4.766,6.224-9.878,8.286l-20.635,7.87
		C1426.361,557.439,1425.955,557.433,1425.55,557.26z"/>
	<path opacity="0.4" clip-path="url(#SVGID_2_)" fill="#FFFFFF" d="M255.824,756.33l-9.462,24.116
		c-0.383,0.976-1.058,1.674-2.024,2.097c-0.967,0.421-1.938,0.441-2.914,0.059l-32.627-12.801c-0.977-0.383-1.674-1.058-2.097-2.024
		c-0.422-0.967-0.441-1.938-0.059-2.913l9.461-24.116c0.383-0.977,1.058-1.674,2.024-2.096c0.967-0.423,1.938-0.443,2.914-0.061
		l32.628,12.801c0.976,0.383,1.673,1.058,2.095,2.025C256.186,754.384,256.206,755.354,255.824,756.33z M252.664,756.037
		c0.012-0.029,0.044-0.111,0.096-0.244c0.053-0.133,0.092-0.232,0.117-0.3c0.026-0.065,0.061-0.163,0.104-0.292
		c0.041-0.129,0.055-0.229,0.041-0.303s-0.027-0.156-0.043-0.247c-0.016-0.092-0.061-0.174-0.135-0.244
		c-0.074-0.072-0.17-0.133-0.288-0.179l-32.628-12.8c-0.193-0.076-0.387-0.071-0.582,0.015s-0.33,0.226-0.406,0.416
		c-0.974,2.482-0.711,5.008,0.789,7.574c1.971,3.364,4.015,6.868,6.131,10.514c0.061,0.108,0.232,0.428,0.52,0.958
		s0.519,0.941,0.695,1.231c0.175,0.29,0.412,0.651,0.711,1.085c0.299,0.433,0.594,0.782,0.881,1.049
		c0.287,0.266,0.579,0.456,0.875,0.572l0.021,0.009l0.023,0.009c0.295,0.116,0.639,0.175,1.03,0.176
		c0.392,0,0.845-0.057,1.358-0.172c0.514-0.113,0.934-0.218,1.261-0.312c0.326-0.093,0.774-0.235,1.346-0.431
		c0.57-0.193,0.915-0.311,1.032-0.349c4.03-1.233,7.912-2.412,11.645-3.54c1.047-0.322,2.125-0.884,3.232-1.686
		C251.598,757.745,252.323,756.909,252.664,756.037z M243.526,779.333l6.678-17.023c-0.682,0.346-1.383,0.634-2.103,0.863
		c-5.155,1.491-9.282,2.754-12.382,3.787c-1.004,0.341-1.811,0.594-2.423,0.764c-0.612,0.169-1.392,0.276-2.339,0.322
		c-0.948,0.047-1.775-0.07-2.484-0.348l-0.023-0.009l-0.021-0.009c-0.709-0.278-1.396-0.756-2.059-1.435
		c-0.664-0.679-1.162-1.287-1.496-1.827s-0.753-1.275-1.258-2.207c-1.569-2.865-3.737-6.599-6.502-11.196
		c-0.374-0.657-0.691-1.346-0.956-2.063l-6.679,17.023c-0.075,0.192-0.07,0.387,0.016,0.581c0.084,0.196,0.223,0.332,0.416,0.407
		l32.627,12.8c0.192,0.075,0.387,0.07,0.582-0.015S243.449,779.525,243.526,779.333z"/>
	<path opacity="0.4" clip-path="url(#SVGID_2_)" fill="#FFFFFF" d="M1461.462-64.306l17.67,40.491
		c0.716,1.639,0.742,3.294,0.087,4.97c-0.658,1.673-1.804,2.869-3.443,3.584l-54.779,23.908c-1.639,0.716-3.294,0.743-4.97,0.088
		c-1.675-0.658-2.869-1.806-3.583-3.442l-17.674-40.49c-0.714-1.639-0.742-3.293-0.085-4.968c0.656-1.676,1.804-2.872,3.44-3.587
		l54.781-23.909c1.638-0.715,3.293-0.742,4.969-0.084C1459.55-67.089,1460.746-65.944,1461.462-64.306z M1457.297-60.849
		c-0.021-0.049-0.082-0.187-0.179-0.41c-0.097-0.223-0.169-0.391-0.221-0.503c-0.047-0.11-0.124-0.27-0.227-0.476
		c-0.106-0.206-0.212-0.343-0.315-0.415c-0.106-0.071-0.223-0.156-0.352-0.247c-0.128-0.091-0.281-0.136-0.456-0.131
		c-0.177,0.001-0.364,0.045-0.562,0.131l-54.78,23.91c-0.324,0.141-0.553,0.38-0.684,0.719c-0.132,0.34-0.127,0.67,0.012,0.992
		c1.818,4.167,5.181,6.896,10.085,8.182c6.434,1.681,13.123,3.441,20.071,5.285c0.203,0.058,0.796,0.235,1.782,0.529
		c0.984,0.293,1.761,0.51,2.323,0.647c0.56,0.138,1.282,0.288,2.165,0.45s1.658,0.228,2.326,0.203
		c0.666-0.026,1.249-0.148,1.745-0.365l0.037-0.015l0.04-0.019c0.494-0.215,0.979-0.56,1.454-1.03
		c0.471-0.472,0.949-1.086,1.43-1.845c0.483-0.756,0.863-1.389,1.145-1.896c0.281-0.505,0.651-1.217,1.104-2.142
		c0.454-0.921,0.729-1.479,0.824-1.665c3.372-6.348,6.632-12.45,9.772-18.312c0.874-1.65,1.497-3.628,1.865-5.93
		C1458.072-57.503,1457.937-59.385,1457.297-60.849z M1474.369-21.738l-12.476-28.58c-0.405,1.238-0.904,2.432-1.494,3.576
		c-4.42,8.016-7.874,14.514-10.365,19.498c-0.8,1.622-1.468,2.899-2,3.842c-0.535,0.943-1.345,2.012-2.432,3.209
		c-1.088,1.2-2.227,2.056-3.416,2.576l-0.038,0.019l-0.037,0.015c-1.19,0.52-2.596,0.773-4.211,0.753
		c-1.621-0.019-2.955-0.151-4.009-0.399c-1.055-0.249-2.445-0.63-4.179-1.145c-5.346-1.563-12.464-3.451-21.34-5.661
		c-1.244-0.342-2.459-0.789-3.643-1.335l12.476,28.581c0.14,0.323,0.381,0.552,0.72,0.682c0.338,0.136,0.667,0.131,0.992-0.011
		l54.777-23.909c0.323-0.141,0.552-0.381,0.686-0.719C1474.514-21.083,1474.509-21.412,1474.369-21.738z"/>
	<path opacity="0.4" clip-path="url(#SVGID_2_)" fill="#FFFFFF" d="M347.24,755.578c2.235,1.753,3.889,3.979,4.961,6.679
		c1.071,2.7,1.395,5.453,0.969,8.262c-0.426,2.81-1.516,5.331-3.268,7.566c-1.751,2.235-3.977,3.89-6.678,4.96
		c-2.699,1.072-5.454,1.396-8.262,0.97c-2.809-0.426-5.33-1.515-7.566-3.268c-2.235-1.751-3.889-3.978-4.961-6.677
		c-1.072-2.701-1.395-5.453-0.969-8.264c0.426-2.808,1.514-5.329,3.267-7.565c1.752-2.235,3.978-3.888,6.679-4.96
		c2.699-1.072,5.454-1.395,8.262-0.969C342.483,752.738,345.004,753.826,347.24,755.578z M350.643,768.449
		c0.051-1.792-0.256-3.528-0.923-5.209c-0.665-1.679-1.633-3.153-2.899-4.422c-1.267-1.27-2.67-2.238-4.214-2.904
		c-1.543-0.666-3.211-1.025-5.003-1.076c-1.793-0.051-3.528,0.256-5.207,0.923c-1.68,0.667-3.154,1.634-4.424,2.899
		c-1.27,1.267-2.237,2.672-2.904,4.214c-0.665,1.543-1.023,3.211-1.075,5.003c-0.052,1.793,0.257,3.529,0.923,5.209
		s1.634,3.153,2.899,4.423c1.268,1.27,2.671,2.237,4.214,2.903s3.211,1.024,5.003,1.076c1.793,0.052,3.528-0.257,5.208-0.923
		c1.68-0.667,3.154-1.634,4.424-2.9c1.27-1.265,2.236-2.67,2.902-4.214C350.234,771.908,350.592,770.241,350.643,768.449z
		 M331.446,762.721c0.678,0.292,1.152,0.78,1.424,1.464c0.271,0.686,0.262,1.367-0.031,2.043c-0.293,0.677-0.779,1.15-1.465,1.423
		c-0.686,0.271-1.365,0.262-2.043-0.03c-0.676-0.293-1.15-0.781-1.422-1.465c-0.271-0.686-0.262-1.367,0.03-2.043
		c0.293-0.677,0.78-1.15,1.466-1.423C330.088,762.42,330.77,762.429,331.446,762.721z M345.787,768.816
		c0.143,1.754-0.249,3.367-1.174,4.842c-0.927,1.473-2.209,2.536-3.85,3.187c-1.641,0.651-3.303,0.758-4.987,0.318
		c-1.685-0.438-3.076-1.343-4.174-2.717c-0.232-0.281-0.33-0.605-0.296-0.97c0.035-0.365,0.199-0.666,0.494-0.903
		c0.283-0.231,0.605-0.329,0.971-0.296c0.365,0.035,0.666,0.2,0.902,0.494c0.733,0.906,1.662,1.506,2.789,1.799
		c1.125,0.293,2.23,0.225,3.316-0.206s1.937-1.14,2.555-2.124c0.619-0.986,0.884-2.061,0.797-3.221
		c-0.029-0.377,0.079-0.705,0.328-0.983c0.248-0.278,0.555-0.429,0.918-0.454c0.365-0.025,0.685,0.084,0.96,0.326
		C345.612,768.149,345.763,768.454,345.787,768.816z M341.367,758.783c0.677,0.292,1.151,0.781,1.424,1.466
		c0.271,0.684,0.262,1.365-0.031,2.042c-0.291,0.677-0.779,1.151-1.465,1.423c-0.686,0.272-1.365,0.262-2.042-0.03
		s-1.151-0.781-1.424-1.466c-0.271-0.685-0.261-1.366,0.031-2.042c0.292-0.677,0.78-1.151,1.465-1.423
		C340.011,758.48,340.692,758.492,341.367,758.783z"/>
	<path opacity="0.4" clip-path="url(#SVGID_2_)" fill="#FFFFFF" d="M147.851-568.302c4.299,3.371,7.479,7.651,9.541,12.843
		c2.06,5.193,2.682,10.487,1.863,15.888c-0.819,5.403-2.915,10.252-6.284,14.55c-3.367,4.299-7.647,7.48-12.842,9.539
		c-5.191,2.062-10.489,2.684-15.888,1.865c-5.401-0.819-10.25-2.913-14.551-6.284c-4.299-3.367-7.478-7.649-9.54-12.84
		c-2.062-5.194-2.682-10.487-1.863-15.892c0.819-5.399,2.911-10.248,6.282-14.549c3.369-4.299,7.649-7.476,12.843-9.538
		c5.191-2.062,10.489-2.682,15.888-1.863C138.701-573.764,143.551-571.672,147.851-568.302z M154.394-543.551
		c0.098-3.446-0.492-6.785-1.774-10.017c-1.279-3.229-3.14-6.064-5.576-8.504c-2.436-2.441-5.134-4.304-8.104-5.585
		c-2.967-1.281-6.175-1.972-9.621-2.07c-3.448-0.098-6.785,0.492-10.014,1.775c-3.23,1.283-6.066,3.142-8.507,5.576
		c-2.441,2.436-4.302,5.138-5.585,8.104c-1.279,2.967-1.968,6.175-2.068,9.621c-0.099,3.448,0.494,6.787,1.775,10.017
		s3.142,6.064,5.576,8.505c2.438,2.441,5.136,4.303,8.104,5.583s6.175,1.97,9.621,2.069c3.448,0.1,6.785-0.494,10.015-1.774
		c3.23-1.283,6.066-3.142,8.507-5.578c2.441-2.432,4.301-5.135,5.582-8.104C153.607-536.899,154.296-540.105,154.394-543.551z
		 M117.476-554.565c1.303,0.562,2.216,1.5,2.738,2.815c0.522,1.318,0.503,2.629-0.06,3.929c-0.563,1.301-1.499,2.212-2.817,2.736
		c-1.318,0.522-2.625,0.503-3.929-0.058c-1.299-0.563-2.212-1.502-2.734-2.817c-0.522-1.318-0.503-2.629,0.059-3.929
		c0.563-1.301,1.5-2.212,2.819-2.736C114.866-555.145,116.177-555.127,117.476-554.565z M145.056-542.844
		c0.274,3.373-0.479,6.475-2.257,9.311c-1.782,2.832-4.248,4.877-7.403,6.128c-3.155,1.252-6.352,1.457-9.591,0.612
		c-3.24-0.841-5.916-2.583-8.027-5.225c-0.447-0.541-0.635-1.165-0.569-1.865c0.067-0.703,0.383-1.281,0.95-1.737
		c0.544-0.445,1.165-0.633,1.867-0.569c0.703,0.067,1.281,0.385,1.735,0.95c1.41,1.743,3.196,2.896,5.363,3.459
		c2.164,0.563,4.29,0.432,6.378-0.396s3.724-2.192,4.913-4.085c1.191-1.896,1.7-3.962,1.533-6.193
		c-0.057-0.725,0.152-1.356,0.631-1.891c0.477-0.535,1.067-0.825,1.766-0.874c0.702-0.049,1.316,0.162,1.846,0.627
		C144.719-544.127,145.01-543.541,145.056-542.844z M136.557-562.139c1.301,0.562,2.214,1.502,2.738,2.819
		c0.521,1.314,0.503,2.625-0.06,3.927c-0.56,1.301-1.499,2.214-2.817,2.736c-1.318,0.524-2.625,0.503-3.927-0.058
		s-2.214-1.502-2.738-2.819c-0.52-1.317-0.501-2.627,0.06-3.927c0.562-1.301,1.5-2.214,2.817-2.736
		C133.948-562.721,135.257-562.698,136.557-562.139z"/>
	<path opacity="0.4" clip-path="url(#SVGID_2_)" fill="#FFFFFF" d="M1453.396,672.148c0.373,3.632-0.209,7.146-1.751,10.545
		c-1.54,3.399-3.801,6.153-6.777,8.265s-6.28,3.354-9.909,3.728c-3.631,0.374-7.145-0.21-10.544-1.752
		c-3.4-1.541-6.154-3.8-8.267-6.776c-2.111-2.976-3.352-6.279-3.727-9.91c-0.374-3.629,0.211-7.144,1.752-10.542
		c1.541-3.4,3.8-6.155,6.776-8.267c2.978-2.11,6.28-3.354,9.91-3.728c3.631-0.372,7.145,0.211,10.542,1.752
		c3.4,1.542,6.156,3.801,8.267,6.776C1451.78,665.216,1453.021,668.519,1453.396,672.148z M1444.53,686.776
		c1.703-1.552,3.033-3.385,3.992-5.5c0.958-2.113,1.46-4.322,1.504-6.625c0.045-2.304-0.312-4.466-1.071-6.486
		c-0.762-2.021-1.917-3.883-3.468-5.587c-1.552-1.703-3.385-3.034-5.498-3.993c-2.114-0.959-4.324-1.46-6.627-1.504
		c-2.303-0.045-4.466,0.313-6.487,1.072c-2.02,0.762-3.882,1.918-5.586,3.468c-1.703,1.552-3.034,3.385-3.991,5.499
		c-0.96,2.113-1.461,4.322-1.507,6.625c-0.043,2.305,0.314,4.467,1.074,6.486c0.76,2.021,1.917,3.885,3.468,5.586
		c1.551,1.704,3.384,3.035,5.498,3.993c2.113,0.96,4.322,1.462,6.626,1.505c2.303,0.046,4.466-0.312,6.487-1.072
		C1440.963,689.483,1442.825,688.327,1444.53,686.776z M1432.702,663.915c0.334,0.886,0.306,1.76-0.085,2.622
		c-0.39,0.863-1.029,1.46-1.916,1.793c-0.886,0.334-1.76,0.306-2.622-0.085c-0.862-0.392-1.459-1.03-1.792-1.918
		c-0.335-0.885-0.306-1.76,0.086-2.621c0.391-0.861,1.028-1.461,1.915-1.793c0.887-0.334,1.761-0.305,2.623,0.086
		C1431.773,662.389,1432.371,663.029,1432.702,663.915z M1440.188,681.823c0.168,0.447,0.156,0.884-0.034,1.306
		c-0.193,0.424-0.513,0.72-0.961,0.888c-0.45,0.17-0.887,0.157-1.308-0.034l-15.614-7.079c-0.423-0.191-0.718-0.512-0.888-0.961
		c-0.169-0.449-0.157-0.884,0.034-1.307c0.192-0.423,0.512-0.72,0.961-0.888c0.449-0.169,0.886-0.157,1.309,0.034l15.614,7.079
		C1439.722,681.052,1440.019,681.374,1440.188,681.823z M1445.195,669.579c0.333,0.885,0.304,1.759-0.086,2.621
		c-0.392,0.861-1.03,1.46-1.916,1.793c-0.887,0.333-1.762,0.305-2.623-0.086c-0.863-0.392-1.459-1.029-1.793-1.916
		c-0.334-0.885-0.305-1.761,0.087-2.623c0.391-0.861,1.029-1.459,1.916-1.792s1.76-0.306,2.622,0.085
		C1444.263,668.052,1444.86,668.691,1445.195,669.579z"/>
	<path opacity="0.4" clip-path="url(#SVGID_2_)" fill="#FFFFFF" d="M42.777,270.809c0,1.014-0.354,1.874-1.062,2.582l-27.472,27.472
		l-5.16,5.16c-0.708,0.708-1.568,1.062-2.582,1.062c-1.011,0-1.871-0.354-2.578-1.062l-5.16-5.16l-13.736-13.736
		c-0.709-0.707-1.062-1.567-1.062-2.581c0-1.011,0.354-1.871,1.062-2.58l5.16-5.16c0.708-0.708,1.568-1.062,2.58-1.062
		c1.011,0,1.871,0.354,2.58,1.062L6.5,288l24.894-24.931c0.706-0.707,1.567-1.062,2.58-1.062c1.011,0,1.872,0.355,2.58,1.062
		l5.16,5.16C42.422,268.939,42.777,269.799,42.777,270.809z"/>
	<path opacity="0.4" clip-path="url(#SVGID_2_)" fill="#FFFFFF" d="M1397.713,476.178v3.198c0,0.116-0.038,0.227-0.115,0.332
		c-0.076,0.106-0.172,0.168-0.288,0.188l-2.664,0.403c-0.183,0.519-0.371,0.956-0.563,1.311c0.336,0.48,0.852,1.144,1.543,1.988
		c0.095,0.115,0.144,0.235,0.144,0.36s-0.043,0.235-0.13,0.333c-0.259,0.354-0.733,0.873-1.427,1.555
		c-0.691,0.682-1.143,1.023-1.354,1.023c-0.113,0-0.24-0.045-0.373-0.132l-1.989-1.555c-0.423,0.222-0.859,0.403-1.312,0.547
		c-0.153,1.308-0.292,2.2-0.418,2.681c-0.066,0.268-0.238,0.403-0.517,0.403h-3.2c-0.134,0-0.251-0.042-0.352-0.123
		c-0.102-0.081-0.157-0.186-0.166-0.31l-0.404-2.651c-0.471-0.154-0.902-0.331-1.296-0.533l-2.032,1.541
		c-0.096,0.087-0.215,0.132-0.359,0.132c-0.135,0-0.255-0.054-0.361-0.159c-1.209-1.095-2.002-1.9-2.378-2.419
		c-0.067-0.098-0.1-0.208-0.1-0.333c0-0.115,0.038-0.225,0.116-0.332c0.143-0.201,0.387-0.521,0.732-0.958
		c0.346-0.437,0.607-0.775,0.779-1.016c-0.258-0.479-0.455-0.954-0.591-1.426l-2.636-0.39c-0.126-0.018-0.227-0.079-0.303-0.179
		c-0.077-0.102-0.115-0.215-0.115-0.339v-3.198c0-0.116,0.038-0.227,0.115-0.332c0.076-0.105,0.167-0.168,0.273-0.188l2.679-0.404
		c0.136-0.439,0.322-0.882,0.563-1.324c-0.385-0.547-0.898-1.21-1.542-1.988c-0.097-0.115-0.144-0.229-0.144-0.346
		c0-0.097,0.043-0.206,0.129-0.332c0.25-0.346,0.723-0.861,1.42-1.549c0.695-0.686,1.149-1.03,1.361-1.03
		c0.124,0,0.251,0.049,0.373,0.145l1.989,1.542c0.423-0.221,0.859-0.403,1.312-0.548c0.153-1.306,0.293-2.198,0.418-2.68
		c0.066-0.268,0.238-0.403,0.518-0.403h3.2c0.134,0,0.251,0.042,0.352,0.123c0.101,0.082,0.156,0.184,0.165,0.31l0.404,2.65
		c0.471,0.154,0.902,0.332,1.297,0.534l2.045-1.543c0.087-0.087,0.202-0.13,0.346-0.13c0.125,0,0.244,0.049,0.361,0.145
		c1.239,1.145,2.032,1.959,2.378,2.45c0.065,0.076,0.1,0.182,0.1,0.316c0,0.116-0.038,0.225-0.116,0.33
		c-0.143,0.203-0.387,0.522-0.732,0.958c-0.346,0.438-0.606,0.777-0.779,1.018c0.249,0.479,0.446,0.95,0.592,1.411l2.636,0.403
		c0.124,0.02,0.226,0.08,0.302,0.18C1397.675,475.942,1397.713,476.054,1397.713,476.178z M1389.256,480.358
		c0.721-0.722,1.08-1.59,1.08-2.608c0-1.017-0.359-1.888-1.08-2.608c-0.721-0.72-1.589-1.08-2.607-1.08
		c-1.018,0-1.888,0.36-2.607,1.08c-0.721,0.721-1.08,1.592-1.08,2.608c0,1.019,0.359,1.887,1.08,2.608
		c0.72,0.72,1.59,1.078,2.607,1.078C1387.667,481.436,1388.535,481.078,1389.256,480.358z"/>
	<path opacity="0.4" clip-path="url(#SVGID_2_)" fill="#FFFFFF" d="M63.246-533.258v5.997c0,0.218-0.072,0.425-0.216,0.623
		c-0.143,0.2-0.322,0.315-0.54,0.352l-4.995,0.756c-0.342,0.972-0.696,1.792-1.057,2.457c0.63,0.901,1.597,2.145,2.893,3.729
		c0.178,0.216,0.269,0.441,0.269,0.675s-0.081,0.441-0.244,0.625c-0.485,0.663-1.375,1.637-2.675,2.915
		c-1.296,1.278-2.143,1.919-2.54,1.919c-0.212,0-0.45-0.084-0.699-0.247l-3.73-2.915c-0.792,0.416-1.611,0.756-2.459,1.025
		c-0.288,2.452-0.547,4.125-0.784,5.026c-0.125,0.501-0.447,0.756-0.969,0.756h-6c-0.251,0-0.471-0.079-0.659-0.23
		c-0.19-0.152-0.295-0.348-0.312-0.581l-0.758-4.971c-0.883-0.29-1.692-0.621-2.43-1l-3.81,2.89
		c-0.18,0.163-0.403,0.247-0.674,0.247c-0.253,0-0.478-0.101-0.678-0.298c-2.267-2.053-3.754-3.563-4.458-4.536
		c-0.126-0.183-0.187-0.39-0.187-0.625c0-0.216,0.071-0.421,0.218-0.623c0.268-0.377,0.726-0.976,1.374-1.796
		c0.648-0.819,1.139-1.454,1.461-1.904c-0.483-0.897-0.854-1.789-1.108-2.674l-4.942-0.73c-0.236-0.033-0.425-0.148-0.568-0.335
		c-0.145-0.19-0.216-0.403-0.216-0.635v-5.997c0-0.218,0.072-0.425,0.216-0.623c0.143-0.197,0.313-0.314,0.513-0.352l5.022-0.758
		c0.254-0.824,0.604-1.653,1.057-2.483c-0.721-1.025-1.685-2.269-2.891-3.728c-0.182-0.216-0.27-0.43-0.27-0.648
		c0-0.181,0.081-0.386,0.242-0.622c0.469-0.648,1.354-1.615,2.662-2.904c1.304-1.285,2.155-1.932,2.553-1.932
		c0.232,0,0.47,0.091,0.699,0.271l3.73,2.891c0.792-0.414,1.611-0.756,2.459-1.027c0.288-2.448,0.549-4.122,0.784-5.024
		c0.125-0.501,0.447-0.756,0.971-0.756h6c0.251,0,0.471,0.079,0.659,0.23c0.188,0.154,0.293,0.344,0.31,0.581l0.758,4.969
		c0.883,0.29,1.692,0.623,2.432,1.002l3.834-2.894c0.163-0.163,0.379-0.243,0.648-0.243c0.234,0,0.458,0.091,0.678,0.271
		c2.324,2.146,3.811,3.673,4.458,4.594c0.123,0.143,0.187,0.34,0.187,0.593c0,0.218-0.071,0.421-0.218,0.619
		c-0.268,0.381-0.726,0.979-1.374,1.796c-0.648,0.822-1.137,1.458-1.461,1.908c0.467,0.899,0.837,1.782,1.11,2.646l4.942,0.756
		c0.232,0.037,0.423,0.15,0.566,0.337C63.175-533.7,63.246-533.49,63.246-533.258z M47.389-525.421
		c1.352-1.353,2.025-2.981,2.025-4.891c0-1.906-0.674-3.54-2.025-4.891c-1.351-1.349-2.979-2.025-4.889-2.025
		c-1.908,0-3.54,0.676-4.889,2.025c-1.352,1.352-2.025,2.985-2.025,4.891c0,1.91,0.674,3.538,2.025,4.891
		c1.349,1.35,2.98,2.021,4.889,2.021C44.41-523.399,46.038-524.071,47.389-525.421z"/>
	<path opacity="0.4" clip-path="url(#SVGID_2_)" fill="#FFFFFF" d="M1313.569,763.388c-0.29,0.768-0.852,1.223-1.686,1.371
		l-7.629,20.212c-0.053,0.138-0.148,0.238-0.287,0.301c-0.14,0.063-0.279,0.069-0.418,0.017l-1.021-0.386
		c-0.138-0.052-0.238-0.147-0.301-0.287c-0.063-0.14-0.068-0.278-0.017-0.416l7.63-20.212c-0.529-0.662-0.648-1.375-0.359-2.143
		c0.214-0.563,0.595-0.97,1.145-1.219c0.55-0.248,1.107-0.267,1.671-0.053c0.564,0.212,0.971,0.594,1.219,1.145
		C1313.763,762.267,1313.781,762.825,1313.569,763.388z M1336.684,773.282l-4.599,12.182c-0.101,0.266-0.244,0.445-0.433,0.539
		c-0.188,0.093-0.452,0.16-0.795,0.2c-2.756,0.371-4.952,0.248-6.592-0.371c-0.648-0.245-1.262-0.61-1.838-1.096
		c-0.577-0.485-1.059-0.959-1.443-1.42c-0.386-0.462-0.903-0.949-1.555-1.463s-1.365-0.917-2.143-1.21
		c-2.043-0.771-4.807-0.927-8.288-0.466c-0.217,0.027-0.411,0.01-0.58-0.055c-0.277-0.104-0.479-0.296-0.604-0.574
		s-0.137-0.557-0.031-0.834l4.471-11.846c0.129-0.341,0.404-0.57,0.827-0.691c0.279-0.064,0.786-0.135,1.521-0.21
		c2.993-0.329,5.475-0.122,7.443,0.621c1.139,0.43,2.145,0.987,3.02,1.669c0.872,0.682,1.861,1.591,2.965,2.725
		c0.328,0.354,0.759,0.633,1.291,0.833c0.574,0.218,1.242,0.342,2.003,0.373c0.76,0.032,1.439,0.003,2.039-0.087
		c0.599-0.09,1.162-0.164,1.688-0.22c0.525-0.057,0.857-0.06,0.996-0.007c0.277,0.104,0.479,0.295,0.604,0.574
		C1336.778,772.727,1336.787,773.006,1336.684,773.282z"/>
	<path opacity="0.4" clip-path="url(#SVGID_2_)" fill="#FFFFFF" d="M48.862,484.042v2.849c0,0.386-0.141,0.719-0.422,1.001
		c-0.283,0.281-0.616,0.422-1.002,0.422h-3.182c-0.549,2.389-1.694,4.454-3.438,6.196c-1.742,1.743-3.808,2.889-6.195,3.438v3.182
		c0,0.386-0.141,0.72-0.423,1.001s-0.616,0.423-1.001,0.423h-2.848c-0.387,0-0.72-0.142-1.002-0.423
		c-0.281-0.281-0.422-0.615-0.422-1.001v-3.182c-2.389-0.549-4.453-1.694-6.196-3.438c-1.743-1.742-2.889-3.808-3.437-6.196h-3.182
		c-0.387,0-0.72-0.141-1.002-0.422c-0.281-0.282-0.422-0.615-0.422-1.001v-2.849c0-0.385,0.141-0.719,0.422-1.001
		c0.282-0.281,0.615-0.422,1.002-0.422h3.182c0.548-2.389,1.693-4.454,3.437-6.196c1.743-1.743,3.808-2.889,6.196-3.438v-3.181
		c0-0.387,0.141-0.721,0.422-1.002c0.282-0.281,0.615-0.423,1.002-0.423h2.848c0.385,0,0.719,0.142,1.001,0.423
		s0.423,0.615,0.423,1.002v3.181c2.388,0.549,4.453,1.694,6.195,3.438c1.743,1.742,2.889,3.808,3.438,6.196h3.182
		c0.386,0,0.719,0.141,1.002,0.422C48.721,483.323,48.862,483.657,48.862,484.042z M41.32,488.313h-2.425
		c-0.386,0-0.72-0.141-1.002-0.422c-0.281-0.282-0.422-0.615-0.422-1.001v-2.849c0-0.385,0.141-0.719,0.422-1.001
		c0.282-0.281,0.616-0.422,1.002-0.422h2.425c-0.476-1.603-1.31-3-2.503-4.193c-1.194-1.195-2.592-2.029-4.193-2.504v2.426
		c0,0.385-0.141,0.719-0.423,1c-0.282,0.282-0.616,0.423-1.001,0.423h-2.848c-0.387,0-0.72-0.141-1.002-0.423
		c-0.281-0.281-0.422-0.615-0.422-1v-2.426c-1.603,0.475-3,1.309-4.194,2.504c-1.194,1.193-2.028,2.591-2.503,4.193h2.426
		c0.385,0,0.719,0.141,1,0.422c0.283,0.282,0.424,0.616,0.424,1.001v2.849c0,0.386-0.141,0.719-0.424,1.001
		c-0.281,0.281-0.615,0.422-1,0.422h-2.426c0.475,1.603,1.309,3,2.503,4.194s2.592,2.028,4.194,2.502v-2.425
		c0-0.385,0.141-0.719,0.422-1c0.282-0.282,0.615-0.423,1.002-0.423h2.848c0.385,0,0.719,0.141,1.001,0.423
		c0.282,0.281,0.423,0.615,0.423,1v2.425c1.602-0.474,2.999-1.308,4.193-2.502C40.01,491.313,40.844,489.916,41.32,488.313z"/>
	<path opacity="0.4" clip-path="url(#SVGID_2_)" fill="#FFFFFF" d="M1251.563,719.557l-0.812,2.821
		c-0.108,0.381-0.344,0.671-0.703,0.869c-0.359,0.199-0.729,0.243-1.111,0.134l-3.148-0.906c-1.224,2.207-2.947,3.925-5.168,5.155
		c-2.222,1.23-4.594,1.776-7.113,1.64l-0.906,3.148c-0.109,0.383-0.344,0.674-0.704,0.87c-0.359,0.199-0.729,0.244-1.11,0.135
		l-2.819-0.811c-0.382-0.111-0.673-0.346-0.871-0.705c-0.199-0.358-0.244-0.729-0.133-1.111l0.906-3.149
		c-2.209-1.223-3.927-2.944-5.156-5.166c-1.229-2.223-1.775-4.594-1.639-7.114l-3.147-0.905c-0.385-0.11-0.674-0.344-0.873-0.703
		c-0.198-0.359-0.243-0.729-0.132-1.111l0.81-2.82c0.108-0.381,0.344-0.671,0.705-0.871c0.357-0.198,0.728-0.242,1.11-0.134
		l3.149,0.906c1.223-2.207,2.945-3.926,5.166-5.155c2.222-1.228,4.594-1.774,7.113-1.639l0.906-3.149
		c0.109-0.381,0.344-0.672,0.704-0.87c0.359-0.198,0.729-0.244,1.112-0.134l2.818,0.81c0.381,0.111,0.672,0.346,0.871,0.706
		c0.197,0.359,0.243,0.729,0.133,1.11l-0.905,3.149c2.208,1.225,3.925,2.946,5.154,5.166c1.229,2.224,1.775,4.594,1.639,7.114
		l3.149,0.905c0.383,0.11,0.672,0.346,0.871,0.703C1251.629,718.806,1251.672,719.177,1251.563,719.557z M1242.88,721.639
		l-2.401-0.691c-0.381-0.109-0.673-0.343-0.871-0.702s-0.243-0.731-0.134-1.112l0.812-2.819c0.11-0.381,0.344-0.671,0.703-0.872
		c0.359-0.196,0.731-0.241,1.112-0.132L1244.5,716c-0.014-1.721-0.44-3.342-1.282-4.864c-0.842-1.521-1.988-2.745-3.439-3.671
		l-0.69,2.401c-0.108,0.381-0.346,0.671-0.703,0.869c-0.359,0.199-0.729,0.244-1.112,0.135l-2.819-0.811
		c-0.383-0.111-0.671-0.346-0.869-0.705c-0.2-0.359-0.244-0.73-0.136-1.111l0.691-2.4c-1.721,0.014-3.343,0.44-4.863,1.284
		c-1.522,0.842-2.747,1.987-3.672,3.438l2.399,0.691c0.381,0.109,0.672,0.345,0.871,0.702c0.198,0.361,0.243,0.732,0.134,1.114
		l-0.812,2.818c-0.11,0.381-0.344,0.672-0.703,0.871c-0.359,0.198-0.729,0.243-1.112,0.133l-2.399-0.69
		c0.014,1.721,0.44,3.343,1.284,4.864c0.842,1.522,1.988,2.745,3.438,3.671l0.691-2.4c0.109-0.381,0.345-0.672,0.702-0.868
		c0.361-0.201,0.729-0.244,1.112-0.136l2.819,0.812c0.381,0.11,0.673,0.344,0.871,0.705c0.198,0.356,0.244,0.729,0.134,1.109
		l-0.691,2.401c1.722-0.014,3.343-0.441,4.865-1.284C1240.731,724.237,1241.953,723.09,1242.88,721.639z"/>
	<path opacity="0.4" clip-path="url(#SVGID_2_)" fill="#FFFFFF" d="M1423.962-459.753l-0.812,2.821
		c-0.108,0.381-0.344,0.671-0.703,0.869c-0.359,0.199-0.729,0.243-1.111,0.134l-3.148-0.906c-1.224,2.207-2.947,3.925-5.168,5.155
		c-2.222,1.23-4.594,1.776-7.113,1.64l-0.906,3.148c-0.109,0.383-0.344,0.674-0.704,0.87c-0.359,0.199-0.729,0.244-1.11,0.135
		l-2.819-0.811c-0.382-0.111-0.673-0.346-0.871-0.705c-0.199-0.358-0.244-0.729-0.133-1.111l0.906-3.149
		c-2.209-1.223-3.927-2.944-5.156-5.166c-1.229-2.223-1.775-4.594-1.639-7.114l-3.147-0.905c-0.385-0.11-0.674-0.344-0.873-0.703
		c-0.198-0.359-0.243-0.729-0.132-1.111l0.81-2.82c0.108-0.381,0.344-0.671,0.705-0.871c0.357-0.198,0.728-0.242,1.11-0.134
		l3.149,0.906c1.223-2.207,2.945-3.926,5.166-5.155c2.222-1.228,4.594-1.774,7.113-1.639l0.906-3.149
		c0.109-0.381,0.344-0.672,0.704-0.87c0.359-0.198,0.729-0.244,1.112-0.134l2.818,0.81c0.381,0.111,0.672,0.346,0.871,0.706
		c0.197,0.359,0.243,0.729,0.133,1.11l-0.905,3.149c2.208,1.225,3.925,2.946,5.154,5.166c1.229,2.224,1.775,4.594,1.639,7.114
		l3.149,0.905c0.383,0.11,0.672,0.346,0.871,0.703C1424.029-460.504,1424.072-460.134,1423.962-459.753z M1415.28-457.671
		l-2.401-0.691c-0.381-0.109-0.673-0.343-0.871-0.702s-0.243-0.731-0.134-1.112l0.812-2.819c0.11-0.381,0.344-0.671,0.703-0.872
		c0.359-0.196,0.731-0.241,1.112-0.132l2.399,0.689c-0.014-1.721-0.44-3.342-1.282-4.864c-0.842-1.521-1.988-2.745-3.439-3.671
		l-0.69,2.401c-0.108,0.381-0.346,0.671-0.703,0.869c-0.359,0.199-0.729,0.244-1.112,0.135l-2.819-0.811
		c-0.383-0.111-0.671-0.346-0.869-0.705c-0.2-0.359-0.244-0.73-0.136-1.111l0.691-2.4c-1.721,0.014-3.343,0.44-4.863,1.284
		c-1.522,0.842-2.747,1.987-3.672,3.438l2.399,0.691c0.381,0.109,0.672,0.345,0.871,0.702c0.198,0.361,0.243,0.732,0.134,1.114
		l-0.812,2.818c-0.11,0.381-0.344,0.672-0.703,0.871c-0.359,0.198-0.729,0.243-1.112,0.133l-2.399-0.69
		c0.014,1.721,0.44,3.343,1.284,4.864c0.842,1.522,1.988,2.745,3.438,3.671l0.691-2.4c0.109-0.381,0.345-0.672,0.702-0.868
		c0.361-0.201,0.729-0.244,1.112-0.136l2.819,0.812c0.381,0.11,0.673,0.344,0.871,0.705c0.198,0.356,0.244,0.729,0.134,1.109
		l-0.691,2.401c1.722-0.014,3.343-0.441,4.865-1.284C1413.13-455.073,1414.353-456.221,1415.28-457.671z"/>
	<path opacity="0.4" clip-path="url(#SVGID_2_)" fill="#FFFFFF" d="M24.791,672.871c-0.069,0.307-0.231,0.598-0.483,0.872
		c-1.736,1.787-3.814,3.062-6.232,3.824c-2.42,0.762-4.816,0.873-7.188,0.332c-2.373-0.542-4.482-1.684-6.33-3.424
		c-1.848-1.741-3.167-3.789-3.959-6.143c-0.108-0.356-0.128-0.688-0.057-0.996c0.069-0.306,0.23-0.597,0.483-0.871
		c1.733-1.777,3.811-3.051,6.23-3.818c2.421-0.767,4.815-0.879,7.188-0.338s4.483,1.683,6.331,3.424
		c1.848,1.74,3.167,3.789,3.959,6.143C24.841,672.232,24.862,672.564,24.791,672.871z M23.06,672.475
		c-0.886-2.441-2.242-4.427-4.066-5.952c0.336,1.063,0.38,2.141,0.131,3.232c-0.381,1.669-1.301,2.961-2.756,3.876
		c-1.459,0.916-3.021,1.184-4.689,0.803c-1.67-0.381-2.961-1.3-3.878-2.757c-0.915-1.457-1.183-3.02-0.802-4.688
		c0.25-1.093,0.756-2.044,1.52-2.856c-2.307,0.584-4.388,1.784-6.245,3.599c0.778,2.124,1.946,3.94,3.505,5.449
		s3.394,2.504,5.505,2.986c2.11,0.481,4.195,0.381,6.255-0.303C19.597,675.181,21.437,674.052,23.06,672.475z M14.207,665.471
		c0.155-0.096,0.254-0.234,0.295-0.416c0.041-0.18,0.013-0.348-0.085-0.503s-0.237-0.254-0.416-0.295
		c-1.129-0.257-2.188-0.073-3.18,0.55s-1.615,1.498-1.874,2.626c-0.041,0.181-0.013,0.349,0.085,0.503
		c0.098,0.155,0.236,0.254,0.417,0.295c0.18,0.041,0.348,0.013,0.503-0.085c0.155-0.097,0.254-0.236,0.295-0.416
		c0.177-0.776,0.604-1.377,1.279-1.802c0.675-0.424,1.401-0.548,2.178-0.371C13.884,665.598,14.052,665.571,14.207,665.471z"/>
	<path opacity="0.4" clip-path="url(#SVGID_2_)" fill="#FFFFFF" d="M1441.254,94.731c-0.105,0.465-0.351,0.906-0.732,1.322
		c-2.631,2.708-5.78,4.639-9.444,5.794c-3.667,1.154-7.298,1.323-10.891,0.503c-3.596-0.821-6.792-2.551-9.592-5.188
		c-2.8-2.639-4.799-5.742-5.999-9.308c-0.164-0.541-0.194-1.043-0.086-1.51c0.105-0.463,0.35-0.904,0.732-1.32
		c2.627-2.693,5.774-4.623,9.441-5.786c3.668-1.162,7.296-1.332,10.893-0.512c3.596,0.82,6.793,2.55,9.593,5.188
		c2.8,2.637,4.799,5.742,5.999,9.308C1441.329,93.763,1441.361,94.267,1441.254,94.731z M1438.63,94.132
		c-1.342-3.699-3.397-6.708-6.161-9.019c0.509,1.611,0.575,3.244,0.198,4.898c-0.577,2.529-1.972,4.487-4.177,5.873
		c-2.21,1.388-4.578,1.793-7.105,1.216c-2.53-0.577-4.486-1.969-5.876-4.177c-1.387-2.208-1.792-4.575-1.215-7.104
		c0.379-1.656,1.146-3.098,2.303-4.329c-3.495,0.885-6.648,2.704-9.464,5.453c1.18,3.218,2.949,5.971,5.312,8.257
		c2.361,2.287,5.142,3.794,8.341,4.525c3.198,0.729,6.357,0.577,9.479-0.459C1433.383,98.233,1436.171,96.52,1438.63,94.132z
		 M1425.216,83.519c0.235-0.145,0.385-0.355,0.447-0.63c0.062-0.272,0.019-0.527-0.129-0.762s-0.359-0.385-0.63-0.447
		c-1.711-0.389-3.315-0.111-4.818,0.833c-1.504,0.944-2.447,2.27-2.84,3.979c-0.062,0.274-0.02,0.528,0.129,0.762
		c0.147,0.235,0.357,0.385,0.632,0.447c0.272,0.062,0.526,0.02,0.762-0.128c0.235-0.146,0.385-0.358,0.447-0.63
		c0.268-1.177,0.914-2.087,1.938-2.73c1.022-0.642,2.123-0.83,3.3-0.562C1424.727,83.712,1424.981,83.67,1425.216,83.519z"/>
	<path opacity="0.4" clip-path="url(#SVGID_2_)" fill="#FFFFFF" d="M43.001,551.951c2.929,2.409,4.739,5.312,5.429,8.713
		c0.688,3.4,0.152,6.779-1.609,10.137c-1.76,3.359-4.484,6.279-8.172,8.768c-3.688,2.486-7.916,4.213-12.684,5.18
		c-1.367,0.277-2.801,0.485-4.297,0.627c-3.178,4.203-7.193,7.48-12.047,9.827c-0.902,0.467-1.975,0.908-3.213,1.321
		c-0.324,0.106-0.64,0.08-0.947-0.082c-0.307-0.161-0.535-0.411-0.686-0.745l-0.006-0.03c-0.073-0.065-0.103-0.183-0.086-0.349
		c0.018-0.167,0.018-0.269,0-0.306s0.006-0.139,0.076-0.304c0.066-0.167,0.107-0.267,0.121-0.301s0.065-0.13,0.155-0.29
		c0.09-0.161,0.149-0.265,0.181-0.312c0.105-0.183,0.34-0.582,0.704-1.194c0.364-0.613,0.626-1.054,0.786-1.32
		c0.16-0.265,0.383-0.713,0.674-1.341c0.289-0.629,0.506-1.19,0.649-1.688c0.144-0.497,0.29-1.127,0.441-1.89
		c0.15-0.764,0.253-1.558,0.31-2.382c-3.42-1.118-6.274-2.777-8.562-4.979c-2.288-2.202-3.729-4.77-4.322-7.699
		c-0.515-2.54-0.313-5.109,0.604-7.707s2.38-4.974,4.385-7.131c2.004-2.154,4.528-4.056,7.572-5.7
		c3.044-1.643,6.345-2.826,9.902-3.547c4.768-0.967,9.334-1.022,13.699-0.166C36.425,547.913,40.073,549.545,43.001,551.951z"/>
	<path opacity="0.4" clip-path="url(#SVGID_2_)" fill="#FFFFFF" d="M1119.568,780.968c1.425,1.281,1.993,2.562,1.705,3.849
		c-0.289,1.285-1.361,2.19-3.219,2.719l-30.288,8.609c-1.858,0.528-3.248,0.321-4.171-0.62c-0.92-0.941-1.112-2.331-0.573-4.171
		l7.3-24.606l-2.982-10.49l-1.684,0.478c-0.456,0.13-0.897,0.075-1.324-0.164c-0.427-0.238-0.706-0.585-0.835-1.04
		c-0.13-0.457-0.076-0.898,0.162-1.325c0.238-0.428,0.585-0.706,1.04-0.836l13.463-3.827c0.454-0.13,0.897-0.074,1.325,0.165
		c0.427,0.237,0.706,0.584,0.836,1.041c0.129,0.454,0.075,0.897-0.164,1.324c-0.237,0.428-0.585,0.707-1.04,0.836l-1.684,0.479
		l2.981,10.491L1119.568,780.968z M1093.667,767.727l-3.944,13.311l18.72-5.319l-10.358-9.248l-0.757-0.665l-0.276-0.973
		l-2.98-10.491l-3.366,0.958l2.979,10.49l0.277,0.973L1093.667,767.727z"/>
	<path opacity="0.4" clip-path="url(#SVGID_2_)" fill="#FFFFFF" d="M35.33,83.432c1.733,1.559,2.425,3.117,2.074,4.682
		c-0.352,1.563-1.656,2.665-3.916,3.307l-36.847,10.474c-2.261,0.643-3.951,0.391-5.074-0.754c-1.119-1.146-1.353-2.836-0.697-5.074
		l8.881-29.935L-3.878,53.37l-2.048,0.581c-0.555,0.158-1.092,0.092-1.611-0.199c-0.519-0.29-0.859-0.712-1.016-1.266
		c-0.158-0.556-0.093-1.093,0.197-1.612c0.29-0.52,0.711-0.859,1.265-1.017l16.378-4.656c0.552-0.158,1.092-0.09,1.612,0.201
		c0.52,0.289,0.859,0.71,1.017,1.266c0.157,0.552,0.092,1.092-0.2,1.611c-0.289,0.521-0.711,0.86-1.265,1.017l-2.048,0.583
		l3.627,12.763L35.33,83.432z M3.821,67.325l-4.799,16.193l22.774-6.471L9.194,65.796l-0.921-0.809l-0.336-1.183L4.311,51.04
		l-4.095,1.166l3.625,12.762l0.337,1.184L3.821,67.325z"/>
	<path opacity="0.4" clip-path="url(#SVGID_2_)" fill="#FFFFFF" d="M224.556-483.419c0.586,2.256,0.303,3.938-0.852,5.05
		c-1.156,1.11-2.852,1.309-5.091,0.599l-36.513-11.586c-2.24-0.711-3.511-1.854-3.816-3.428c-0.302-1.573,0.436-3.112,2.217-4.617
		l23.919-20.072l4.012-12.647l-2.029-0.645c-0.55-0.174-0.961-0.525-1.234-1.055c-0.273-0.528-0.324-1.067-0.149-1.616
		c0.174-0.551,0.525-0.963,1.054-1.236c0.528-0.274,1.067-0.324,1.616-0.15l16.23,5.149c0.548,0.173,0.96,0.527,1.233,1.057
		c0.274,0.527,0.325,1.066,0.15,1.617c-0.174,0.547-0.526,0.961-1.055,1.233c-0.528,0.275-1.068,0.325-1.616,0.151l-2.03-0.644
		l-4.014,12.646L224.556-483.419z M207.157-514.234l-12.934,10.86l22.566,7.163l-4.306-16.335l-0.322-1.183l0.372-1.172
		l4.015-12.646l-4.059-1.287l-4.016,12.645l-0.371,1.173L207.157-514.234z"/>
	<path opacity="0.4" clip-path="url(#SVGID_2_)" fill="#FFFFFF" d="M50.872,423.544c-1.02,1.858-2.38,3.126-4.081,3.806
		c-1.7,0.678-3.457,0.521-5.267-0.472c-0.942-0.517-1.724-1.208-2.337-2.065c-0.62-0.86-1.057-1.668-1.315-2.423
		c-0.258-0.752-0.671-1.543-1.226-2.372c-0.562-0.829-1.266-1.479-2.114-1.943c-2.524-1.385-4.568-0.654-6.129,2.189
		c-0.49,0.895-1.03,2.314-1.615,4.262c-0.59,1.945-1.143,3.357-1.655,4.241l-0.095,0.173c-0.507-0.278-0.893-0.477-1.156-0.59
		c-0.817-0.359-2.006-0.842-3.572-1.444c-1.562-0.605-2.973-1.176-4.228-1.714c-1.259-0.542-2.413-1.1-3.469-1.679
		c-1.4-0.768-2.414-1.72-3.045-2.856c-0.631-1.135-0.586-2.359,0.13-3.664c0.466-0.85,1.112-1.555,1.942-2.115
		c0.829-0.56,1.622-0.969,2.375-1.229c0.754-0.256,1.562-0.694,2.42-1.312c0.86-0.617,1.549-1.395,2.064-2.336
		c0.994-1.811,1.152-3.57,0.478-5.27c-0.682-1.699-1.951-3.06-3.81-4.078c-1.928-1.058-3.854-1.438-5.781-1.135
		c-1.926,0.303-3.404,1.394-4.436,3.274c-0.541,0.986-0.889,2.034-1.05,3.141c-0.159,1.105-0.181,2.056-0.065,2.853
		c0.115,0.796,0.169,1.613,0.154,2.455c-0.014,0.844-0.159,1.518-0.436,2.021c-0.566,1.032-1.655,1.764-3.265,2.192
		c-1.29,0.339-2.851,0.005-4.687-1.002c-2.181-1.196-4.839-3.012-7.98-5.45c-0.181-0.161-0.471-0.377-0.869-0.658
		c-0.398-0.275-0.691-0.496-0.873-0.654l-0.406-0.313c-0.027-0.015-0.053-0.044-0.085-0.093c-0.046-0.025-0.064-0.049-0.053-0.071
		l19.327-35.242c0.033,0.05,0.214,0.2,0.537,0.45c0.324,0.257,0.683,0.526,1.077,0.816c0.391,0.291,0.616,0.465,0.67,0.525
		c3.143,2.437,5.8,4.255,7.981,5.451c1.836,1.006,3.396,1.34,4.686,1.002c1.609-0.428,2.698-1.161,3.265-2.193
		c0.276-0.504,0.423-1.18,0.436-2.021c0.016-0.843-0.038-1.661-0.153-2.457c-0.116-0.795-0.095-1.745,0.064-2.85
		c0.161-1.107,0.509-2.155,1.05-3.142c1.032-1.882,2.511-2.974,4.437-3.274s3.864,0.084,5.816,1.154
		c1.835,1.006,3.094,2.357,3.773,4.059c0.675,1.699,0.518,3.457-0.476,5.269c-0.517,0.94-1.204,1.719-2.065,2.337
		c-0.859,0.619-1.667,1.057-2.421,1.312c-0.752,0.259-1.545,0.669-2.373,1.227c-0.83,0.561-1.478,1.266-1.943,2.115
		c-0.716,1.307-0.761,2.529-0.13,3.664c0.631,1.139,1.645,2.09,3.045,2.857c1.469,0.805,3.627,1.768,6.478,2.881
		c2.85,1.115,4.827,1.947,5.931,2.493l-0.037,0.067c-0.047,0.033-0.201,0.21-0.451,0.536c-0.253,0.324-0.523,0.684-0.813,1.075
		c-0.293,0.395-0.466,0.616-0.528,0.673c-2.438,3.142-4.253,5.8-5.447,7.979c-1.007,1.836-1.343,3.401-1.004,4.688
		c0.429,1.609,1.162,2.695,2.194,3.262c0.505,0.276,1.179,0.426,2.02,0.438c0.845,0.014,1.664-0.036,2.458-0.151
		c0.794-0.118,1.745-0.097,2.853,0.062c1.105,0.161,2.151,0.509,3.139,1.051c1.881,1.032,2.972,2.515,3.273,4.437
		C52.305,419.687,51.928,421.617,50.872,423.544z"/>
	<path opacity="0.4" clip-path="url(#SVGID_2_)" fill="#FFFFFF" d="M1379.559-527.821c-1.2-2.506-1.512-4.924-0.937-7.256
		c0.577-2.329,2.087-4.081,4.527-5.251c1.271-0.609,2.604-0.913,3.987-0.911c1.391-0.003,2.584,0.149,3.586,0.45
		c0.998,0.299,2.157,0.465,3.465,0.507c1.312,0.035,2.543-0.219,3.686-0.768c3.405-1.631,4.188-4.367,2.352-8.203
		c-0.579-1.206-1.679-2.866-3.307-4.978c-1.622-2.115-2.704-3.783-3.253-5.005l-0.113-0.233c0.684-0.328,1.191-0.587,1.513-0.781
		c1.008-0.597,2.43-1.495,4.269-2.703c1.84-1.202,3.525-2.268,5.057-3.194c1.54-0.927,3.017-1.731,4.44-2.413
		c1.888-0.906,3.676-1.258,5.37-1.062c1.69,0.195,2.962,1.179,3.804,2.938c0.55,1.146,0.808,2.373,0.771,3.686
		c-0.039,1.312-0.208,2.469-0.508,3.47c-0.303,0.999-0.453,2.195-0.45,3.581c0,1.389,0.302,2.716,0.911,3.985
		c1.169,2.442,2.924,3.956,5.25,4.536c2.331,0.573,4.751,0.26,7.255-0.942c2.601-1.246,4.478-3.008,5.628-5.292
		c1.149-2.283,1.117-4.692-0.099-7.228c-0.638-1.331-1.488-2.502-2.545-3.519c-1.056-1.015-2.052-1.764-2.988-2.25
		c-0.936-0.486-1.848-1.053-2.733-1.712c-0.889-0.659-1.495-1.329-1.821-2.009c-0.667-1.393-0.614-3.112,0.159-5.154
		c0.625-1.633,2.173-3.041,4.649-4.227c2.941-1.409,6.906-2.854,11.905-4.337c0.31-0.069,0.761-0.214,1.365-0.423
		c0.598-0.214,1.058-0.357,1.364-0.43l0.645-0.192c0.036-0.019,0.087-0.023,0.164-0.021c0.062-0.029,0.101-0.031,0.116-0.002
		l22.778,47.524c-0.078-0.003-0.377,0.075-0.891,0.229c-0.521,0.149-1.083,0.325-1.693,0.523c-0.608,0.193-0.966,0.301-1.071,0.312
		c-4.998,1.486-8.965,2.927-11.907,4.338c-2.475,1.188-4.022,2.593-4.648,4.226c-0.774,2.042-0.824,3.763-0.158,5.155
		c0.326,0.679,0.935,1.352,1.821,2.009c0.885,0.661,1.799,1.229,2.734,1.714c0.936,0.484,1.932,1.233,2.987,2.247
		c1.056,1.018,1.907,2.19,2.545,3.519c1.215,2.538,1.248,4.948,0.098,7.229c-1.151,2.281-3.043,4.053-5.674,5.314
		c-2.475,1.187-4.876,1.495-7.209,0.919c-2.325-0.58-4.078-2.091-5.25-4.533c-0.606-1.269-0.91-2.596-0.911-3.987
		c-0.003-1.389,0.148-2.583,0.452-3.582c0.299-0.999,0.469-2.157,0.507-3.465c0.037-1.313-0.219-2.542-0.769-3.688
		c-0.845-1.76-2.113-2.742-3.804-2.938c-1.695-0.198-3.484,0.155-5.372,1.06c-1.98,0.95-4.655,2.513-8.02,4.7
		c-3.365,2.184-5.764,3.655-7.189,4.414l-0.043-0.091c0.001-0.076-0.069-0.375-0.227-0.891c-0.151-0.517-0.328-1.079-0.524-1.688
		c-0.195-0.614-0.299-0.968-0.312-1.078c-1.484-4.998-2.93-8.963-4.339-11.901c-1.187-2.476-2.598-4.029-4.228-4.652
		c-2.043-0.773-3.76-0.821-5.151-0.154c-0.681,0.326-1.354,0.93-2.012,1.816c-0.659,0.889-1.233,1.8-1.717,2.734
		c-0.48,0.936-1.23,1.933-2.246,2.992c-1.017,1.055-2.186,1.902-3.518,2.54c-2.537,1.215-4.95,1.245-7.228,0.098
		C1382.573-523.346,1380.804-525.223,1379.559-527.821z"/>
	<path opacity="0.4" clip-path="url(#SVGID_2_)" fill="#FFFFFF" d="M1243.546,762.077c0.97,1.105,1.474,2.293,1.513,3.562
		c0.039,1.271-0.48,2.38-1.559,3.325c-0.561,0.491-1.194,0.837-1.901,1.033c-0.708,0.198-1.339,0.293-1.891,0.282
		s-1.167,0.069-1.839,0.235c-0.675,0.169-1.264,0.475-1.771,0.918c-1.502,1.317-1.51,2.822-0.025,4.515
		c0.468,0.533,1.266,1.223,2.395,2.067c1.128,0.846,1.919,1.542,2.372,2.086l0.09,0.103c-0.301,0.263-0.521,0.469-0.658,0.614
		c-0.428,0.447-1.025,1.109-1.789,1.984c-0.766,0.878-1.475,1.66-2.123,2.352c-0.651,0.692-1.289,1.312-1.917,1.863
		c-0.834,0.731-1.695,1.167-2.586,1.308c-0.892,0.142-1.677-0.178-2.36-0.956c-0.441-0.505-0.747-1.095-0.914-1.769
		c-0.17-0.673-0.249-1.286-0.239-1.839c0.012-0.553-0.082-1.184-0.281-1.891c-0.197-0.707-0.542-1.342-1.032-1.902
		c-0.947-1.078-2.055-1.598-3.323-1.559c-1.272,0.039-2.46,0.542-3.566,1.513c-1.146,1.005-1.849,2.173-2.11,3.501
		c-0.26,1.328,0.101,2.552,1.082,3.671c0.515,0.587,1.113,1.063,1.799,1.431c0.682,0.365,1.298,0.606,1.844,0.719
		c0.545,0.113,1.092,0.273,1.638,0.482c0.547,0.211,0.95,0.465,1.214,0.765c0.539,0.615,0.758,1.498,0.656,2.649
		c-0.088,0.922-0.675,1.86-1.768,2.819c-1.298,1.137-3.111,2.438-5.449,3.908c-0.146,0.08-0.356,0.218-0.634,0.411
		c-0.276,0.195-0.489,0.331-0.636,0.414l-0.301,0.191c-0.014,0.012-0.042,0.022-0.08,0.033c-0.027,0.023-0.047,0.028-0.058,0.016
		l-18.393-20.971c0.04-0.009,0.181-0.092,0.421-0.243c0.243-0.151,0.505-0.319,0.787-0.509c0.282-0.187,0.45-0.29,0.501-0.312
		c2.337-1.471,4.151-2.771,5.45-3.91c1.092-0.958,1.682-1.896,1.767-2.818c0.102-1.15-0.117-2.033-0.656-2.648
		c-0.264-0.3-0.668-0.556-1.214-0.765c-0.547-0.211-1.093-0.371-1.639-0.485c-0.545-0.112-1.16-0.351-1.845-0.719
		c-0.683-0.366-1.282-0.843-1.797-1.429c-0.981-1.12-1.342-2.344-1.083-3.673c0.263-1.326,0.972-2.499,2.133-3.517
		c1.093-0.957,2.272-1.457,3.542-1.496c1.271-0.039,2.379,0.481,3.325,1.56c0.491,0.56,0.834,1.194,1.033,1.902
		c0.198,0.707,0.293,1.338,0.281,1.891c-0.011,0.552,0.068,1.165,0.237,1.839c0.168,0.673,0.475,1.264,0.917,1.768
		c0.682,0.778,1.468,1.099,2.358,0.957c0.892-0.142,1.753-0.577,2.585-1.309c0.875-0.766,2.015-1.945,3.418-3.539
		c1.404-1.594,2.416-2.688,3.033-3.274l0.035,0.04c0.011,0.038,0.091,0.18,0.244,0.42c0.15,0.242,0.32,0.505,0.508,0.787
		c0.187,0.282,0.291,0.45,0.314,0.502c1.468,2.337,2.771,4.151,3.909,5.448c0.957,1.093,1.897,1.683,2.817,1.768
		c1.151,0.101,2.034-0.117,2.648-0.656c0.301-0.264,0.554-0.667,0.765-1.213c0.21-0.548,0.371-1.094,0.484-1.64
		c0.111-0.545,0.353-1.16,0.719-1.845c0.366-0.683,0.843-1.281,1.431-1.797c1.118-0.981,2.344-1.342,3.671-1.083
		C1241.373,760.225,1242.539,760.929,1243.546,762.077z"/>
	<path opacity="0.4" clip-path="url(#SVGID_2_)" fill="#FFFFFF" d="M1397.701,634.718c0.638,3.641,0.635,6.884-0.002,9.73
		c-0.641,2.846-2.031,5.806-4.174,8.877c-0.979,1.377-2.18,2.912-3.6,4.608l1.017,8.386c0.01,0.239-0.071,0.45-0.253,0.632
		l-7.559,6.386c-0.091,0.076-0.204,0.126-0.334,0.148c-0.176,0.031-0.355-0.006-0.539-0.109l-1.649-1.157
		c-0.228-0.171-0.327-0.395-0.299-0.671l0.804-6.378l-7.24-5.081l-5.727,2.924c-0.041,0.021-0.105,0.042-0.19,0.057
		c-0.207,0.037-0.386-0.002-0.542-0.109l-1.646-1.158c-0.297-0.233-0.384-0.512-0.26-0.836l3.437-9.28
		c0.11-0.229,0.281-0.38,0.51-0.45l8.233-1.893c1.111-1.913,2.146-3.563,3.111-4.952c2.266-3.214,4.553-5.558,6.857-7.032
		c2.303-1.473,5.361-2.543,9.176-3.211c0.206-0.035,0.393,0.003,0.562,0.117C1397.566,634.377,1397.668,634.528,1397.701,634.718z
		 M1393.542,643.492c0.338-0.481,0.456-1.013,0.354-1.599c-0.103-0.585-0.394-1.047-0.876-1.384
		c-0.48-0.338-1.014-0.456-1.599-0.353c-0.584,0.103-1.044,0.395-1.383,0.875c-0.337,0.481-0.455,1.014-0.353,1.599
		s0.394,1.045,0.875,1.383c0.482,0.339,1.014,0.455,1.598,0.353C1392.743,644.264,1393.205,643.972,1393.542,643.492z"/>
	<path opacity="0.4" clip-path="url(#SVGID_2_)" fill="#FFFFFF" d="M31.069-245.096c3.023,6.294,4.677,12.193,4.976,17.697
		c0.292,5.502-0.723,11.597-3.048,18.28c-1.075,3.005-2.474,6.411-4.188,10.223l6.14,14.73c0.141,0.43,0.101,0.854-0.137,1.279
		l-10.479,15.481c-0.125,0.185-0.306,0.333-0.531,0.44c-0.304,0.147-0.649,0.171-1.036,0.078l-3.592-1.261
		c-0.501-0.194-0.797-0.55-0.887-1.066l-1.803-12.011l-15.767-5.536l-8.918,8.248c-0.064,0.06-0.17,0.13-0.318,0.2
		c-0.357,0.173-0.702,0.194-1.041,0.078l-3.587-1.264c-0.66-0.272-0.96-0.734-0.9-1.388l1.501-18.636
		c0.083-0.473,0.317-0.834,0.696-1.079l14.005-7.655c1.042-4.048,2.08-7.579,3.125-10.598c2.476-7.005,5.436-12.438,8.872-16.298
		c3.435-3.856,8.449-7.369,15.045-10.536c0.356-0.168,0.715-0.195,1.082-0.075C30.649-245.647,30.912-245.424,31.069-245.096z
		 M27.995-227.011c0.368-1.049,0.311-2.074-0.175-3.088c-0.485-1.012-1.25-1.702-2.3-2.068c-1.047-0.368-2.078-0.311-3.089,0.177
		c-1.009,0.485-1.696,1.252-2.066,2.299c-0.366,1.048-0.309,2.077,0.176,3.088c0.486,1.011,1.251,1.699,2.299,2.067
		c1.052,0.369,2.077,0.309,3.087-0.177C26.938-225.198,27.628-225.965,27.995-227.011z"/>
	<path opacity="0.4" clip-path="url(#SVGID_2_)" fill="#FFFFFF" d="M1454.916,422.502c0.832,2.483,0.73,4.699-0.299,6.644
		c-1.03,1.945-2.798,3.338-5.303,4.177l-27.146,9.083c-2.506,0.839-4.755,0.789-6.748-0.143c-1.993-0.933-3.404-2.643-4.235-5.126
		c-0.368-1.098-0.691-2.183-0.968-3.251c-0.279-1.072-0.51-2.248-0.697-3.532c-0.189-1.282-0.291-2.498-0.307-3.644
		c-0.016-1.148,0.092-2.306,0.324-3.478c0.229-1.171,0.59-2.223,1.081-3.159c0.495-0.937,1.192-1.786,2.101-2.551
		c0.907-0.763,1.992-1.357,3.254-1.779c0.187-0.062,0.695,0.015,1.531,0.23c0.83,0.217,1.768,0.455,2.809,0.716
		c1.045,0.263,2.332,0.385,3.855,0.368c1.526-0.014,2.984-0.254,4.369-0.719c1.389-0.465,2.697-1.148,3.924-2.056
		c1.229-0.905,2.18-1.776,2.855-2.613c0.674-0.836,1.279-1.592,1.815-2.266c0.534-0.674,0.894-1.041,1.081-1.104
		c1.264-0.423,2.486-0.602,3.673-0.539c1.183,0.065,2.251,0.323,3.209,0.773c0.956,0.452,1.881,1.075,2.769,1.87
		c0.889,0.799,1.672,1.657,2.349,2.584c0.677,0.924,1.328,1.956,1.952,3.094c0.621,1.139,1.145,2.217,1.566,3.24
		C1454.153,420.344,1454.549,421.404,1454.916,422.502z M1429.379,390.827c3.109,1.552,5.213,3.971,6.314,7.265
		c1.103,3.292,0.878,6.49-0.671,9.602c-1.55,3.108-3.972,5.216-7.264,6.315c-3.294,1.103-6.492,0.879-9.603-0.672
		c-3.109-1.551-5.215-3.971-6.316-7.264c-1.103-3.292-0.877-6.492,0.674-9.604c1.549-3.108,3.969-5.214,7.262-6.316
		C1423.069,389.053,1426.27,389.277,1429.379,390.827z"/>
	<path opacity="0.4" clip-path="url(#SVGID_2_)" fill="#FFFFFF" d="M304.202-552.928l-16.376,17.318
		c-0.662,0.7-1.479,1.064-2.448,1.091c-0.971,0.027-1.807-0.289-2.507-0.951l-23.432-22.156c-0.7-0.662-1.063-1.479-1.09-2.45
		c-0.028-0.97,0.29-1.806,0.952-2.506l16.375-17.318c0.663-0.701,1.478-1.064,2.449-1.091c0.971-0.029,1.807,0.289,2.507,0.951
		l23.431,22.156c0.701,0.662,1.064,1.478,1.09,2.45C305.182-554.464,304.865-553.629,304.202-552.928z M301.607-554.265
		c0.021-0.022,0.077-0.081,0.167-0.177c0.089-0.095,0.158-0.167,0.202-0.214c0.045-0.047,0.108-0.12,0.188-0.214
		c0.08-0.096,0.126-0.177,0.14-0.245c0.013-0.067,0.029-0.143,0.048-0.225c0.019-0.084,0.008-0.168-0.031-0.255
		c-0.04-0.087-0.1-0.171-0.185-0.251l-23.432-22.156c-0.138-0.131-0.304-0.193-0.501-0.187c-0.197,0.005-0.36,0.077-0.49,0.214
		c-1.685,1.782-2.331,4.028-1.934,6.733c0.522,3.551,1.06,7.244,1.61,11.082c0.015,0.113,0.053,0.444,0.115,0.996
		s0.117,0.981,0.168,1.29c0.05,0.308,0.127,0.699,0.234,1.171c0.105,0.472,0.235,0.871,0.39,1.198
		c0.155,0.325,0.337,0.589,0.549,0.79l0.016,0.015l0.016,0.015c0.212,0.201,0.486,0.368,0.819,0.504
		c0.334,0.135,0.74,0.243,1.218,0.322c0.478,0.08,0.872,0.135,1.183,0.168s0.744,0.065,1.298,0.095c0.553,0.031,0.886,0.05,1,0.059
		c3.864,0.335,7.581,0.666,11.156,0.988c1.004,0.085,2.118-0.023,3.338-0.326C300.109-553.175,301.016-553.64,301.607-554.265z
		 M285.789-537.536l11.561-12.226c-0.701,0.062-1.399,0.066-2.092,0.012c-4.912-0.502-8.868-0.845-11.868-1.03
		c-0.973-0.055-1.749-0.118-2.33-0.183c-0.582-0.066-1.284-0.244-2.107-0.53c-0.824-0.286-1.491-0.671-2-1.152l-0.017-0.015
		l-0.016-0.015c-0.509-0.481-0.93-1.126-1.262-1.933c-0.333-0.807-0.549-1.498-0.647-2.075s-0.204-1.347-0.312-2.315
		c-0.353-2.985-0.917-6.917-1.693-11.792c-0.093-0.688-0.127-1.386-0.105-2.09l-11.561,12.227c-0.13,0.137-0.193,0.304-0.187,0.501
		c0.004,0.197,0.077,0.358,0.215,0.489l23.431,22.156c0.138,0.13,0.303,0.194,0.5,0.187
		C285.496-537.326,285.658-537.399,285.789-537.536z"/>
	<path opacity="0.4" clip-path="url(#SVGID_2_)" fill="#FFFFFF" d="M1301.952-572.509c0.264,0.491,0.316,0.996,0.157,1.52
		l-7.522,26.802c-0.047,0.269-0.154,0.662-0.317,1.172c-0.159,0.512-0.497,1.369-1.008,2.567c-0.507,1.196-1.082,2.333-1.722,3.406
		c-0.636,1.072-1.505,2.19-2.604,3.354c-1.101,1.164-2.283,2.084-3.547,2.764c-4.146,2.231-8.034,2.78-11.658,1.644
		c-3.624-1.135-6.572-3.813-8.845-8.036c-0.629-1.168-1.071-2.47-1.318-3.904c-0.251-1.432-0.312-2.858-0.188-4.274
		c0.127-1.417,0.289-2.665,0.483-3.744c0.2-1.079,0.455-2.138,0.766-3.182c-1.042-0.315-2.068-0.686-3.078-1.114
		c-1.007-0.431-2.138-0.983-3.39-1.658c-1.252-0.675-2.407-1.513-3.465-2.512c-1.062-0.996-1.904-2.08-2.532-3.249
		c-2.272-4.222-2.886-8.159-1.836-11.81c1.046-3.651,3.646-6.593,7.792-8.825c4.166-2.243,9.567-2.367,16.207-0.374l26.443,8.484
		C1301.295-573.32,1301.689-572.998,1301.952-572.509z"/>
	<path opacity="0.4" clip-path="url(#SVGID_2_)" fill="#FFFFFF" d="M1440.721-373.603c0.101,0.571,0.068,1.225-0.095,1.965
		c-0.165,0.743-0.413,1.352-0.749,1.832l-14.494,20.659c-0.335,0.478-0.787,0.767-1.357,0.867c-0.568,0.101-1.094-0.019-1.572-0.354
		l-24.102-16.909c-0.479-0.336-0.769-0.788-0.867-1.357c-0.102-0.57,0.017-1.094,0.353-1.572l20.13-28.693
		c0.336-0.479,0.789-0.769,1.359-0.867c0.568-0.101,1.092,0.018,1.57,0.354l16.068,11.272c0.479,0.335,0.921,0.825,1.326,1.466
		c0.406,0.642,0.659,1.248,0.76,1.818L1440.721-373.603z M1423.49-351.33l12.884-18.365l-7.461-5.234
		c-0.479-0.335-0.767-0.788-0.867-1.357c-0.101-0.57,0.018-1.093,0.354-1.571l5.233-7.46l-13.773-9.663l-19.325,27.546
		L1423.49-351.33z M1435.828-383.566l-4.73,6.742l6.744,4.731c0.122-0.428,0.163-0.767,0.119-1.011l-1.674-9.552
		C1436.243-382.9,1436.091-383.202,1435.828-383.566z"/>
	<path opacity="0.4" clip-path="url(#SVGID_2_)" fill="#FFFFFF" d="M1424.954-149.683c-3.896,2.67-6.142,6.311-6.737,10.944
		l-4.926,3.15c-2.014,1.287-4.022,1.87-6.032,1.754c-2.009-0.115-3.624-1.129-4.846-3.041c-5.533-8.653-6.784-13.956-3.742-15.902
		c0.146-0.091,0.847-0.175,2.096-0.249c1.247-0.072,2.775-0.313,4.587-0.727c1.806-0.416,3.435-1.083,4.881-2.007
		c1.643-1.051,3.092-2.376,4.352-3.976c0.459,0.985,0.91,1.835,1.366,2.547C1418.129-153.783,1421.132-151.28,1424.954-149.683z
		 M1404.618-179.219c3.012,0.664,5.352,2.297,7.012,4.893c1.663,2.6,2.162,5.408,1.5,8.42c-0.666,3.017-2.3,5.354-4.896,7.015
		c-2.6,1.661-5.408,2.164-8.419,1.5c-3.014-0.662-5.355-2.292-7.019-4.894c-1.66-2.595-2.158-5.406-1.493-8.419
		c0.658-3.016,2.293-5.355,4.891-7.017C1398.791-179.381,1401.598-179.882,1404.618-179.219z M1479.325-151.442
		c1.882,2.943,2.472,5.84,1.77,8.689c-0.699,2.849-2.532,5.22-5.5,7.118l-32.142,20.553c-2.97,1.898-5.896,2.57-8.772,2.008
		c-2.876-0.561-5.262-2.31-7.142-5.252c-0.831-1.299-1.601-2.595-2.307-3.888c-0.706-1.295-1.388-2.74-2.049-4.342
		c-0.66-1.598-1.186-3.136-1.576-4.614c-0.388-1.473-0.629-3.007-0.711-4.593c-0.084-1.59,0.043-3.069,0.376-4.442
		c0.335-1.366,0.961-2.695,1.884-3.975c0.93-1.285,2.135-2.405,3.631-3.361c0.241-0.155,0.944-0.229,2.089-0.216
		c1.144,0.009,2.419,0.025,3.812,0.047c1.401,0.021,3.085-0.227,5.068-0.753c1.977-0.519,3.8-1.316,5.466-2.382
		c1.668-1.066,3.161-2.388,4.463-3.966c1.306-1.577,2.241-3.005,2.808-4.284c0.564-1.273,1.082-2.436,1.556-3.479
		c0.469-1.045,0.828-1.648,1.072-1.804c1.496-0.958,3.021-1.584,4.575-1.886c1.551-0.304,3.02-0.314,4.401-0.046
		c1.384,0.275,2.781,0.781,4.185,1.527c1.406,0.737,2.701,1.6,3.874,2.569c1.174,0.977,2.355,2.098,3.528,3.367
		c1.178,1.272,2.201,2.499,3.079,3.684C1477.642-153.982,1478.494-152.74,1479.325-151.442z M1436.03-184.101
		c4.524,0.998,8.033,3.445,10.526,7.342c2.491,3.898,3.238,8.109,2.246,12.633c-0.995,4.521-3.443,8.032-7.341,10.525
		c-3.896,2.491-8.109,3.239-12.628,2.244c-4.526-0.996-8.035-3.441-10.528-7.339c-2.491-3.897-3.24-8.109-2.244-12.636
		c0.992-4.519,3.44-8.027,7.337-10.519C1427.295-184.343,1431.509-185.094,1436.03-184.101z M1446.984-206.309
		c3.015,0.663,5.355,2.295,7.016,4.892c1.662,2.6,2.162,5.408,1.497,8.422c-0.664,3.014-2.293,5.35-4.893,7.012
		s-5.402,2.161-8.419,1.5c-3.015-0.663-5.354-2.294-7.016-4.895c-1.66-2.596-2.162-5.405-1.498-8.418
		c0.663-3.019,2.294-5.354,4.893-7.016C1441.163-206.475,1443.968-206.974,1446.984-206.309z M1473.029-182.029
		c1.224,1.912,1.463,3.804,0.726,5.676c-0.735,1.871-2.105,3.449-4.12,4.737l-4.928,3.15c-4.458-1.402-8.706-0.89-12.758,1.523
		c0.149-4.138-0.864-7.912-3.042-11.318c-0.455-0.712-1.031-1.483-1.735-2.312c1.98-0.472,3.793-1.232,5.433-2.28
		c1.45-0.927,2.738-2.126,3.873-3.589c1.129-1.47,1.993-2.755,2.584-3.859c0.59-1.103,0.958-1.703,1.104-1.796
		C1463.206-194.043,1467.495-190.682,1473.029-182.029z"/>
	<path opacity="0.4" clip-path="url(#SVGID_2_)" fill="#FFFFFF" d="M1435.869-290.2c1.756,2.155,2.631,4.502,2.631,7.043
		s-0.875,4.891-2.631,7.044c-1.75,2.155-4.132,3.854-7.139,5.104c-3.01,1.249-6.296,1.872-9.859,1.872
		c-1.022,0-2.081-0.057-3.176-0.174c-2.892,2.556-6.253,4.321-10.078,5.301c-0.715,0.204-1.549,0.364-2.496,0.481
		c-0.249,0.03-0.473-0.036-0.669-0.196c-0.196-0.161-0.325-0.372-0.384-0.637v-0.021c-0.042-0.057-0.047-0.146-0.012-0.262
		c0.038-0.117,0.051-0.191,0.047-0.219c-0.009-0.03,0.023-0.101,0.098-0.209c0.072-0.108,0.115-0.175,0.132-0.198
		c0.013-0.021,0.063-0.083,0.153-0.186c0.086-0.103,0.145-0.168,0.175-0.198c0.103-0.117,0.328-0.368,0.677-0.754
		c0.352-0.388,0.605-0.666,0.759-0.832c0.153-0.169,0.379-0.458,0.677-0.867c0.299-0.409,0.537-0.779,0.712-1.116
		s0.375-0.767,0.592-1.293c0.22-0.525,0.409-1.079,0.571-1.665c-2.294-1.3-4.103-2.905-5.423-4.82
		c-1.323-1.912-1.983-3.964-1.983-6.155c0-1.897,0.518-3.712,1.558-5.443c1.035-1.729,2.43-3.223,4.183-4.479
		c1.751-1.257,3.84-2.253,6.267-2.99c2.423-0.736,4.964-1.107,7.622-1.107c3.563,0,6.85,0.624,9.859,1.874
		C1431.738-294.056,1434.119-292.354,1435.869-290.2z"/>
	<path opacity="0.4" clip-path="url(#SVGID_2_)" fill="#FFFFFF" d="M35.2-442.606c2.71,2.146,4.404,4.76,5.087,7.846
		c0.684,3.086,0.252,6.175-1.3,9.261c-1.547,3.088-3.981,5.792-7.298,8.119c-3.319,2.326-7.142,3.966-11.469,4.924
		c-1.954,0.432-3.859,0.686-5.721,0.765c-2.39,3.747-5.796,6.631-10.225,8.653c-0.881,0.382-1.619,0.666-2.21,0.852
		c-0.208,0.066-0.417,0.055-0.62-0.031c-0.205-0.083-0.356-0.217-0.452-0.401c-0.132-0.25-0.027-0.619,0.314-1.101
		c0.068-0.109,0.233-0.345,0.5-0.712c0.261-0.365,0.443-0.622,0.539-0.773c0.097-0.151,0.254-0.425,0.476-0.818
		c0.217-0.393,0.367-0.72,0.451-0.979c0.083-0.26,0.192-0.629,0.328-1.104c0.135-0.478,0.217-0.94,0.247-1.395
		c0.031-0.452,0.047-0.991,0.05-1.615c0.002-0.625-0.031-1.293-0.097-2.003c-2.942-1.023-5.402-2.492-7.379-4.409
		c-1.978-1.915-3.247-4.14-3.809-6.678c-0.683-3.086-0.251-6.171,1.301-9.26c1.547-3.086,3.981-5.793,7.298-8.118
		c3.319-2.327,7.143-3.968,11.47-4.926c4.326-0.958,8.485-1.083,12.476-0.374C29.147-446.177,32.495-444.751,35.2-442.606z
		 M9.174-425.346c0.521-0.813,0.674-1.688,0.466-2.63c-0.208-0.938-0.717-1.67-1.532-2.187c-0.812-0.518-1.689-0.671-2.625-0.464
		c-0.942,0.208-1.67,0.717-2.191,1.53c-0.514,0.811-0.673,1.691-0.466,2.628c0.209,0.942,0.723,1.669,1.532,2.188
		c0.815,0.517,1.691,0.674,2.632,0.465C7.926-424.022,8.657-424.535,9.174-425.346z M19.391-427.608
		c0.517-0.812,0.674-1.688,0.466-2.63c-0.208-0.938-0.72-1.669-1.532-2.187c-0.815-0.518-1.69-0.671-2.628-0.463
		c-0.939,0.208-1.668,0.716-2.188,1.529c-0.519,0.811-0.673,1.691-0.466,2.628c0.208,0.942,0.719,1.67,1.532,2.188
		c0.815,0.517,1.691,0.674,2.63,0.466C18.143-426.284,18.871-426.796,19.391-427.608z M29.609-429.869
		c0.515-0.812,0.674-1.688,0.465-2.629c-0.208-0.938-0.723-1.669-1.531-2.187c-0.815-0.518-1.69-0.672-2.631-0.463
		c-0.94,0.208-1.668,0.716-2.185,1.529c-0.521,0.812-0.674,1.69-0.466,2.628c0.208,0.941,0.716,1.67,1.531,2.188
		c0.812,0.517,1.688,0.674,2.626,0.466C28.361-428.546,29.088-429.058,29.609-429.869z"/>
	<path opacity="0.4" clip-path="url(#SVGID_2_)" fill="#FFFFFF" d="M86.683-463.086l8.485,30.941
		c-4.03,1.15-8.162,1.475-12.391,0.977c-4.229-0.494-8.232-1.816-12.013-3.97c-5.03-2.864-8.959-6.749-11.795-11.646
		c-2.838-4.9-4.291-10.18-4.348-15.842c-0.057-5.659,1.346-11.004,4.211-16.035c2.866-5.031,6.748-8.965,11.644-11.801
		c4.898-2.835,10.183-4.285,15.844-4.341c5.66-0.06,11.002,1.343,16.032,4.208L86.683-463.086z M121.542-449.062l-27.728-15.793
		l15.794-27.73c5.032,2.866,8.967,6.747,11.8,11.648c2.835,4.897,4.283,10.174,4.346,15.835
		C125.81-459.437,124.408-454.094,121.542-449.062z M93.314-459.022l27.906,15.895c-2.154,3.781-4.918,6.961-8.301,9.545
		c-3.386,2.584-7.104,4.41-11.155,5.482L93.314-459.022z"/>
	<path opacity="0.4" clip-path="url(#SVGID_2_)" fill="#FFFFFF" d="M70.135-325.13l1.891,3.869l-61.861,30.228l-22.671-46.397
		l3.867-1.89l20.78,42.528L70.135-325.13z M47.85-360.939l6.421,13.141c0.207,0.423,0.153,0.818-0.154,1.179
		c-0.309,0.362-0.703,0.463-1.184,0.298l-5.439-1.871l-9.78,28.465c-0.1,0.301-0.284,0.514-0.545,0.643
		c-0.264,0.129-0.542,0.141-0.841,0.036l-10.479-3.596l-6.424,18.705l-8.634-2.968l9.037-26.303c0.1-0.301,0.287-0.516,0.545-0.642
		c0.264-0.129,0.542-0.142,0.847-0.039l10.473,3.599l7.167-20.861l-5.44-1.873c-0.481-0.165-0.731-0.482-0.752-0.96
		c-0.021-0.477,0.18-0.818,0.604-1.026l13.138-6.419c0.283-0.138,0.562-0.161,0.83-0.067
		C47.506-361.405,47.713-361.222,47.85-360.939z"/>
</g>
</svg>
