<?xml version="1.0" encoding="UTF-8"?>
<!DOCTYPE svg  PUBLIC '-//W3C//DTD SVG 1.1//EN'  'http://www.w3.org/Graphics/SVG/1.1/DTD/svg11.dtd'>
<svg enable-background="new 0 0 1440 811" version="1.1" viewBox="0 0 1440 811" xml:space="preserve" xmlns="http://www.w3.org/2000/svg" xmlns:xlink="http://www.w3.org/1999/xlink">
<title>BG_icon1</title>
<desc>Created with Sketch.</desc>
	<defs>
		<rect id="b" x="1" width="1438" height="811"/>
	</defs>
	<clipPath id="a">
		<use overflow="visible" xlink:href="#b"/>
	</clipPath>
	<rect x="1" y="-.001" width="1438" height="811" clip-path="url(#a)" fill="#70C0B2"/>
	<rect x="1" width="1438" height="811" clip-path="url(#a)" fill="#70C0B2"/>
	<path d="m1418.8 573.07l-1.143 2.568c-0.04 0.093-0.112 0.169-0.217 0.229-0.104 0.059-0.199 0.074-0.287 0.046l-2.3-0.623c-0.246 0.278-0.55 0.564-0.913 0.857 0.117 0.584 0.297 1.302 0.539 2.153 0.024 0.121 0.016 0.228-0.025 0.32-0.05 0.111-0.122 0.185-0.216 0.221-0.336 0.183-0.901 0.428-1.696 0.733-0.797 0.306-1.283 0.42-1.458 0.342-0.103-0.046-0.185-0.121-0.248-0.228l-1.041-1.959c-0.422 0.023-0.841 9e-3 -1.261-0.046-0.547 0.955-0.972 1.626-1.275 2.012-0.165 0.193-0.354 0.242-0.565 0.148l-2.583-1.148c-0.103-0.046-0.179-0.121-0.231-0.228s-0.062-0.208-0.03-0.306l0.624-2.266c-0.273-0.232-0.557-0.53-0.849-0.894l-2.188 0.508c-0.094 0.035-0.2 0.027-0.321-0.026-0.103-0.045-0.183-0.126-0.242-0.241-0.785-1.823-1.123-2.86-1.012-3.11 0.037-0.083 0.109-0.156 0.215-0.221 0.15-0.088 0.448-0.249 0.896-0.482 0.447-0.234 0.789-0.419 1.029-0.557-0.033-0.502-0.026-0.954 0.02-1.355l-1.963-1.271c-0.088-0.051-0.147-0.13-0.178-0.237-0.029-0.107-0.021-0.212 0.024-0.313l1.141-2.569c0.042-0.093 0.114-0.168 0.218-0.228 0.104-0.059 0.2-0.074 0.287-0.047l2.301 0.624c0.246-0.279 0.55-0.564 0.913-0.857-0.117-0.585-0.297-1.303-0.54-2.153-0.019-0.131-0.01-0.238 0.027-0.32 0.049-0.112 0.122-0.189 0.22-0.234 0.327-0.188 0.891-0.431 1.688-0.729 0.798-0.3 1.284-0.41 1.461-0.333 0.102 0.047 0.185 0.122 0.248 0.228l1.042 1.959c0.388-0.026 0.811-0.017 1.266 0.031 0.547-0.954 0.97-1.62 1.271-1.996 0.163-0.193 0.352-0.243 0.564-0.148l2.583 1.147c0.102 0.046 0.179 0.122 0.231 0.229s0.062 0.208 0.03 0.305l-0.624 2.267c0.272 0.232 0.556 0.53 0.85 0.893l2.188-0.507c0.103-0.032 0.21-0.022 0.32 0.026 0.102 0.045 0.184 0.125 0.242 0.24 0.787 1.824 1.123 2.86 1.013 3.111-0.037 0.083-0.108 0.155-0.214 0.22-0.178 0.1-0.483 0.262-0.917 0.491-0.435 0.229-0.767 0.413-0.995 0.555 0.015 0.539 3e-3 0.989-0.035 1.349l1.97 1.258c0.084 0.06 0.141 0.143 0.171 0.251 0.028 0.104 0.02 0.21-0.025 0.311zm-8.051 0.944c1.002-0.386 1.721-1.069 2.157-2.05 0.437-0.981 0.461-1.974 0.076-2.977-0.386-1.003-1.069-1.723-2.05-2.158-0.981-0.437-1.975-0.461-2.977-0.076-1.003 0.387-1.723 1.069-2.158 2.051-0.437 0.98-0.463 1.974-0.076 2.976 0.386 1.004 1.069 1.723 2.051 2.158 0.981 0.436 1.974 0.461 2.977 0.076zm19.968-3.811l-0.863 1.943c-0.066 0.148-0.819-0.015-2.261-0.488-0.223 0.199-0.469 0.379-0.738 0.536 8e-3 1.256-0.041 2-0.143 2.231-0.017 0.036-0.05 0.061-0.1 0.072-1.421 0.155-2.141 0.229-2.16 0.221-0.073-0.034-0.189-0.346-0.348-0.937-0.158-0.592-0.259-1.014-0.303-1.266-0.193-0.063-0.336-0.116-0.428-0.157-0.094-0.041-0.228-0.112-0.405-0.213-0.216 0.136-0.597 0.345-1.142 0.623s-0.854 0.401-0.929 0.369c-0.019-9e-3 -0.446-0.593-1.283-1.751-0.025-0.045-0.029-0.086-0.014-0.122 0.104-0.232 0.624-0.766 1.561-1.602-0.063-0.306-0.096-0.608-0.096-0.907-1.317-0.753-1.943-1.202-1.878-1.351l0.864-1.944c0.065-0.147 0.819 0.016 2.261 0.49 0.239-0.215 0.485-0.394 0.737-0.537-7e-3 -1.256 0.041-1.999 0.144-2.23 0.017-0.037 0.05-0.062 0.1-0.073 0.044-2e-3 0.248-0.022 0.608-0.062 0.362-0.039 0.704-0.075 1.029-0.108 0.325-0.032 0.497-0.044 0.516-0.037 0.073 0.033 0.191 0.344 0.352 0.931s0.262 1.006 0.306 1.258c0.192 0.063 0.336 0.116 0.43 0.157 0.092 0.042 0.227 0.112 0.403 0.213 0.765-0.447 1.421-0.776 1.969-0.987l0.096 0.01c0.036 0.016 0.467 0.596 1.29 1.737 0.024 0.044 0.028 0.085 0.012 0.122-0.103 0.231-0.623 0.766-1.561 1.601 0.062 0.283 0.095 0.586 0.096 0.907 1.319 0.752 1.945 1.203 1.878 1.351zm-6.32 14.218l-0.863 1.944c-0.066 0.148-0.819-0.016-2.261-0.49-0.223 0.201-0.468 0.38-0.738 0.538 8e-3 1.255-0.04 1.999-0.143 2.23-0.017 0.037-0.05 0.061-0.099 0.073-1.422 0.155-2.142 0.229-2.16 0.22-0.074-0.033-0.19-0.345-0.349-0.937s-0.259-1.014-0.303-1.265c-0.193-0.064-0.336-0.116-0.429-0.157s-0.227-0.113-0.404-0.213c-0.216 0.136-0.597 0.344-1.142 0.623-0.545 0.277-0.855 0.4-0.929 0.368-0.019-8e-3 -0.446-0.592-1.284-1.751-0.024-0.045-0.029-0.085-0.013-0.122 0.104-0.231 0.624-0.766 1.561-1.602-0.063-0.306-0.096-0.607-0.096-0.907-1.317-0.752-1.943-1.201-1.878-1.35l0.865-1.944c0.065-0.147 0.818 0.016 2.26 0.489 0.239-0.214 0.485-0.395 0.738-0.536-8e-3 -1.257 0.04-2 0.143-2.231 0.017-0.037 0.05-0.062 0.1-0.073 0.045-1e-3 0.248-0.021 0.609-0.061 0.36-0.039 0.703-0.075 1.028-0.108s0.497-0.046 0.516-0.037c0.074 0.033 0.19 0.343 0.352 0.93s0.262 1.006 0.306 1.258c0.193 0.064 0.336 0.116 0.43 0.158 0.092 0.04 0.226 0.112 0.403 0.213 0.765-0.447 1.42-0.777 1.968-0.988l0.096 0.01c0.037 0.017 0.468 0.596 1.291 1.737 0.024 0.044 0.028 0.085 0.012 0.122-0.104 0.232-0.623 0.765-1.56 1.601 0.062 0.284 0.094 0.586 0.096 0.908 1.316 0.751 1.942 1.202 1.877 1.35zm2.334-14.827c0.214-0.48 0.223-0.975 0.028-1.483-0.196-0.509-0.534-0.869-1.016-1.083s-0.976-0.224-1.484-0.028c-0.509 0.196-0.869 0.534-1.082 1.015-0.219 0.492-0.231 0.988-0.039 1.489 0.193 0.501 0.534 0.861 1.025 1.079 0.49 0.218 0.987 0.23 1.487 0.037 0.503-0.193 0.863-0.535 1.081-1.026zm-6.321 14.218c0.215-0.48 0.225-0.976 0.029-1.484s-0.534-0.868-1.016-1.082c-0.481-0.215-0.977-0.224-1.484-0.028-0.508 0.196-0.869 0.534-1.082 1.015-0.219 0.492-0.231 0.987-0.039 1.488 0.193 0.501 0.534 0.861 1.025 1.079 0.49 0.219 0.986 0.231 1.488 0.038 0.501-0.193 0.861-0.534 1.079-1.026z" clip-path="url(#a)" fill="#fff" opacity=".4"/>
	<path d="m1463.8 175.58l-13.274 33.837c-0.537 1.368-1.483 2.348-2.841 2.941-1.356 0.591-2.719 0.62-4.088 0.082l-45.778-17.96c-1.368-0.537-2.349-1.484-2.941-2.841-0.591-1.356-0.619-2.719-0.082-4.087l13.274-33.837c0.537-1.37 1.483-2.348 2.84-2.94 1.357-0.593 2.721-0.623 4.088-0.084l45.78 17.959c1.368 0.537 2.347 1.484 2.939 2.842 0.593 1.357 0.62 2.719 0.083 4.088zm-4.431-0.411c0.017-0.041 0.061-0.156 0.134-0.343 0.073-0.186 0.129-0.326 0.165-0.42 0.036-0.091 0.084-0.229 0.144-0.409 0.058-0.182 0.077-0.323 0.059-0.425s-0.04-0.219-0.061-0.347c-0.022-0.129-0.085-0.244-0.188-0.343-0.104-0.101-0.24-0.186-0.405-0.25l-45.779-17.959c-0.271-0.107-0.541-0.101-0.814 0.021-0.275 0.12-0.465 0.316-0.571 0.583-1.366 3.483-0.997 7.026 1.106 10.627 2.766 4.72 5.634 9.636 8.604 14.751 0.085 0.152 0.326 0.6 0.729 1.344 0.402 0.744 0.728 1.321 0.974 1.728s0.58 0.914 1 1.522c0.419 0.607 0.831 1.098 1.233 1.472 0.404 0.373 0.813 0.64 1.229 0.803l0.031 0.013 0.031 0.012c0.415 0.163 0.896 0.246 1.446 0.247 0.551 0 1.187-0.08 1.907-0.241 0.72-0.159 1.309-0.306 1.768-0.438 0.458-0.129 1.087-0.33 1.889-0.604 0.8-0.271 1.282-0.436 1.448-0.489 5.654-1.73 11.101-3.385 16.339-4.967 1.469-0.452 2.979-1.24 4.534-2.365 1.55-1.127 2.567-2.299 3.048-3.523zm-12.824 32.685l9.37-23.885c-0.956 0.485-1.939 0.889-2.95 1.211-7.233 2.093-13.024 3.864-17.374 5.313-1.407 0.478-2.54 0.833-3.398 1.072-0.858 0.237-1.952 0.387-3.281 0.452-1.33 0.066-2.491-0.099-3.487-0.488l-0.03-0.012-0.031-0.012c-0.996-0.391-1.959-1.061-2.889-2.013-0.931-0.952-1.631-1.806-2.1-2.563-0.468-0.758-1.056-1.79-1.763-3.097-2.203-4.02-5.245-9.258-9.124-15.709-0.525-0.922-0.971-1.888-1.341-2.895l-9.37 23.885c-0.106 0.27-0.101 0.542 0.021 0.815 0.119 0.275 0.314 0.466 0.584 0.571l45.778 17.958c0.27 0.105 0.542 0.099 0.815-0.021 0.273-0.117 0.465-0.312 0.57-0.582z" clip-path="url(#a)" fill="#fff" opacity=".4"/>
	<path d="m1451.2 765.12c0.256 6.204-1.102 12.11-4.072 17.722-2.972 5.611-7.093 10.052-12.369 13.328-5.274 3.274-11.013 5.041-17.215 5.298-6.203 0.254-12.111-1.104-17.721-4.074-5.611-2.972-10.055-7.094-13.329-12.368-3.276-5.274-5.041-11.014-5.296-17.219-0.257-6.201 1.102-12.107 4.073-17.719 2.971-5.611 7.091-10.053 12.366-13.33 5.275-3.272 11.016-5.038 17.218-5.294 6.201-0.257 12.106 1.101 17.72 4.072 5.611 2.971 10.054 7.094 13.329 12.369 3.272 5.273 5.039 11.013 5.296 17.215zm-16.581 23.912c3.054-2.455 5.506-5.43 7.355-8.92 1.845-3.49 2.929-7.187 3.243-11.095 0.316-3.906-0.067-7.616-1.146-11.129-1.08-3.509-2.849-6.792-5.303-9.846-2.458-3.052-5.432-5.505-8.922-7.354-3.49-1.848-7.188-2.928-11.094-3.244-3.906-0.313-7.616 0.066-11.127 1.147-3.51 1.081-6.794 2.849-9.848 5.305-3.056 2.458-5.503 5.433-7.354 8.921-1.847 3.492-2.931 7.188-3.245 11.095-0.315 3.906 0.068 7.616 1.147 11.126 1.082 3.512 2.849 6.795 5.305 9.849 2.455 3.055 5.43 5.503 8.919 7.352 3.491 1.849 7.188 2.93 11.096 3.243 3.905 0.319 7.615-0.062 11.128-1.146 3.51-1.08 6.793-2.849 9.846-5.304zm-17.696-40.052c0.473 1.542 0.333 3.024-0.421 4.442-0.753 1.426-1.898 2.374-3.439 2.847-1.539 0.474-3.02 0.333-4.443-0.418-1.423-0.754-2.373-1.899-2.847-3.441-0.472-1.54-0.332-3.021 0.419-4.441 0.756-1.426 1.903-2.373 3.441-2.847 1.54-0.474 3.021-0.334 4.445 0.42 1.422 0.753 2.372 1.899 2.845 3.438zm10.201 32.496c-2.715 2.725-5.957 4.361-9.719 4.912-3.764 0.551-7.351-0.075-10.759-1.884-3.411-1.804-5.945-4.419-7.604-7.843-1.659-3.419-2.128-7.017-1.398-10.794 0.139-0.783 0.537-1.407 1.194-1.869 0.654-0.457 1.39-0.611 2.201-0.457 0.783 0.141 1.406 0.538 1.867 1.196 0.461 0.654 0.614 1.391 0.459 2.2-0.465 2.504-0.145 4.903 0.963 7.188 1.111 2.288 2.791 4.03 5.047 5.226 2.255 1.192 4.641 1.604 7.158 1.237 2.517-0.371 4.677-1.451 6.483-3.245 0.586-0.581 1.284-0.865 2.1-0.848 0.815 0.019 1.503 0.314 2.061 0.886 0.556 0.57 0.829 1.256 0.819 2.058-0.014 0.801-0.306 1.483-0.872 2.037zm10.418-21.576c0.474 1.538 0.333 3.02-0.42 4.444-0.752 1.421-1.899 2.37-3.439 2.843-1.54 0.475-3.023 0.336-4.445-0.418-1.424-0.753-2.37-1.901-2.845-3.44s-0.334-3.022 0.42-4.445c0.752-1.421 1.9-2.372 3.439-2.844 1.54-0.476 3.022-0.334 4.446 0.419 1.422 0.752 2.369 1.9 2.844 3.441z" clip-path="url(#a)" fill="#fff" opacity=".4"/>
	<path d="m103.22 850.05c2.382 2.143 3.332 4.283 2.85 6.434-0.483 2.146-2.275 3.66-5.38 4.543l-50.623 14.391c-3.106 0.883-5.429 0.537-6.971-1.037-1.538-1.574-1.859-3.896-0.958-6.971l12.201-41.127-4.985-17.533-2.814 0.797c-0.762 0.217-1.5 0.127-2.213-0.273-0.713-0.398-1.18-0.979-1.396-1.738-0.217-0.764-0.127-1.502 0.271-2.215 0.398-0.715 0.978-1.18 1.738-1.396l22.501-6.398c0.759-0.217 1.5-0.123 2.215 0.277 0.713 0.396 1.18 0.975 1.397 1.74 0.216 0.758 0.126 1.5-0.274 2.213-0.396 0.715-0.978 1.182-1.738 1.396l-2.813 0.801 4.983 17.533 32.009 28.563zm-43.289-22.129l-6.592 22.246 31.288-8.891-17.313-15.457-1.265-1.111-0.462-1.625-4.981-17.535-5.626 1.602 4.98 17.533 0.464 1.625-0.493 1.613z" clip-path="url(#a)" fill="#fff" opacity=".4"/>
	<path d="m1459.7 73.479c2.286 1.824 3.271 3.727 2.947 5.712s-1.877 3.463-4.663 4.437l-45.404 15.876c-2.784 0.975-4.922 0.784-6.414-0.568-1.488-1.351-1.908-3.453-1.253-6.307l8.899-38.184-5.501-15.724-2.522 0.879c-0.683 0.24-1.36 0.195-2.034-0.128-0.672-0.327-1.13-0.833-1.366-1.514-0.24-0.683-0.199-1.361 0.125-2.032 0.325-0.675 0.827-1.131 1.511-1.369l20.181-7.059c0.684-0.239 1.362-0.192 2.035 0.132 0.676 0.323 1.132 0.828 1.37 1.511 0.239 0.68 0.198 1.363-0.129 2.035-0.322 0.674-0.829 1.13-1.51 1.37l-2.523 0.88 5.496 15.729 30.755 24.324zm-40.696-17.843l-4.809 20.656 28.062-9.808-16.635-13.163-1.213-0.946-0.51-1.46-5.496-15.728-5.049 1.769 5.494 15.727 0.515 1.456-0.359 1.497z" clip-path="url(#a)" fill="#fff" opacity=".4"/>
	<path d="m1418.1 630.96c1.921-1.161 3.844-1.604 5.763-1.327 1.921 0.283 3.448 1.359 4.582 3.232 0.591 0.977 0.941 2.017 1.049 3.142 0.111 1.111 0.083 2.086-0.081 2.917-0.164 0.824-0.209 1.771-0.136 2.826 0.074 1.061 0.375 2.027 0.904 2.906 1.582 2.612 3.842 3.026 6.787 1.245 0.923-0.562 2.174-1.578 3.746-3.048 1.576-1.47 2.833-2.476 3.772-3.01l0.181-0.11c0.314 0.519 0.565 0.908 0.748 1.15 0.558 0.767 1.392 1.843 2.508 3.227 1.111 1.384 2.103 2.663 2.967 3.821 0.866 1.16 1.633 2.288 2.292 3.378 0.875 1.449 1.301 2.865 1.276 4.24-0.024 1.374-0.719 2.475-2.067 3.29-0.88 0.534-1.848 0.835-2.904 0.907-1.061 0.073-2.002 0.03-2.83-0.131-0.831-0.164-1.803-0.192-2.922-0.082-1.116 0.106-2.162 0.454-3.135 1.044-1.873 1.136-2.953 2.663-3.234 4.586-0.276 1.921 0.162 3.842 1.328 5.764 1.203 1.991 2.772 3.364 4.698 4.107 1.929 0.748 3.867 0.534 5.812-0.644 1.017-0.618 1.895-1.393 2.631-2.326 0.732-0.927 1.256-1.789 1.574-2.58 0.314-0.791 0.704-1.57 1.164-2.335 0.46-0.766 0.951-1.305 1.475-1.621 1.067-0.644 2.456-0.739 4.156-0.279 1.363 0.377 2.62 1.511 3.767 3.413 1.369 2.252 2.842 5.332 4.43 9.233 0.075 0.244 0.228 0.597 0.444 1.07 0.223 0.466 0.373 0.82 0.456 1.062l0.207 0.505c0.013 0.023 0.024 0.066 0.028 0.131 0.028 0.044 0.028 0.077 7e-3 0.091l-36.452 22.063c-2e-3 -0.062-0.089-0.293-0.253-0.697-0.16-0.404-0.349-0.841-0.556-1.32-0.203-0.474-0.318-0.753-0.333-0.843-1.588-3.902-3.061-6.98-4.428-9.234-1.146-1.898-2.403-3.035-3.769-3.409-1.7-0.462-3.089-0.368-4.154 0.278-0.523 0.314-1.019 0.856-1.479 1.621-0.462 0.765-0.848 1.545-1.166 2.337-0.314 0.788-0.84 1.651-1.572 2.578-0.734 0.933-1.614 1.708-2.631 2.324-1.947 1.18-3.886 1.395-5.812 0.644-1.929-0.746-3.5-2.124-4.722-4.143-1.147-1.897-1.586-3.806-1.304-5.729 0.281-1.923 1.358-3.45 3.232-4.583 0.975-0.591 2.019-0.938 3.137-1.05 1.121-0.111 2.093-0.083 2.92 0.086 0.824 0.16 1.768 0.206 2.828 0.132s2.026-0.374 2.904-0.905c1.351-0.821 2.045-1.917 2.071-3.292 0.026-1.377-0.401-2.79-1.28-4.237-0.919-1.521-2.387-3.549-4.409-6.087-2.024-2.537-3.396-4.349-4.118-5.432l0.071-0.045c0.061-9e-3 0.292-0.091 0.695-0.257 0.404-0.159 0.847-0.346 1.317-0.551 0.48-0.207 0.756-0.318 0.844-0.342 3.904-1.583 6.983-3.058 9.234-4.425 1.898-1.148 3.041-2.403 3.416-3.768 0.46-1.704 0.363-3.09-0.282-4.156-0.316-0.525-0.854-1.016-1.62-1.475-0.766-0.465-1.54-0.849-2.335-1.166-0.793-0.314-1.653-0.84-2.584-1.574-0.929-0.736-1.702-1.61-2.324-2.635-1.173-1.942-1.39-3.877-0.644-5.809 0.75-1.922 2.121-3.489 4.115-4.693z" clip-path="url(#a)" fill="#fff" opacity=".4"/>
	<path d="m1224 784.73c5.225-0.709 10.597-0.318 16.112 1.172 5.51 1.488 10.347 3.857 14.504 7.102 4.157 3.246 7.13 6.939 8.927 11.078 1.791 4.141 2.146 8.219 1.061 12.23-1.084 4.014-3.442 7.359-7.075 10.029-3.638 2.674-8.066 4.367-13.295 5.076-5.225 0.707-10.595 0.318-16.106-1.17-2.485-0.674-4.961-1.592-7.438-2.754-4.268 1.572-8.777 2.336-13.534 2.285-1.11-0.018-2.417-0.121-3.913-0.312l-0.129-0.035c-0.318-0.084-0.582-0.281-0.793-0.584-0.215-0.305-0.297-0.654-0.252-1.043-8e-3 -0.094 5e-3 -0.191 0.034-0.293 0.026-0.102 0.058-0.193 0.096-0.279 0.034-0.082 0.089-0.158 0.155-0.232 0.066-0.076 0.123-0.137 0.166-0.188 0.046-0.051 0.117-0.117 0.217-0.197 0.098-0.084 0.179-0.141 0.233-0.17 0.056-0.033 0.138-0.088 0.251-0.164 0.115-0.078 0.191-0.127 0.227-0.148 0.19-0.135 0.619-0.404 1.29-0.814 0.668-0.406 1.158-0.732 1.468-0.973 0.314-0.24 0.752-0.57 1.316-0.99 0.562-0.424 1.074-0.883 1.533-1.377s0.926-1.051 1.405-1.664c-3.02-3.049-5.146-6.363-6.376-9.947-1.23-3.586-1.383-7.096-0.453-10.533 1.083-4.012 3.445-7.357 7.08-10.027 3.633-2.677 8.062-4.365 13.289-5.078zm26.388 12.315c-3.434-2.541-7.358-4.406-11.776-5.6s-8.749-1.561-12.995-1.094c-4.243 0.461-7.846 1.67-10.808 3.629-2.961 1.959-4.838 4.408-5.633 7.354-0.641 2.365-0.495 4.854 0.446 7.461 0.937 2.607 2.572 5.096 4.904 7.461l3.547 3.561-2.499 3.229c1.138-0.316 2.186-0.635 3.143-0.965l2.267-0.828 2.177 1.055c2.143 1.012 4.297 1.811 6.465 2.396 4.417 1.191 8.748 1.561 12.991 1.096 4.247-0.463 7.851-1.672 10.809-3.633 2.96-1.955 4.84-4.406 5.638-7.35 0.796-2.945 0.406-6.01-1.165-9.191-1.572-3.183-4.076-6.044-7.511-8.581zm11.636 49.099c0.101 0.771 0.229 1.486 0.374 2.146s0.356 1.312 0.634 1.959c0.271 0.648 0.485 1.152 0.632 1.52 0.148 0.365 0.412 0.893 0.78 1.582 0.374 0.689 0.606 1.139 0.704 1.352 0.021 0.037 0.061 0.117 0.12 0.242 0.06 0.123 0.107 0.215 0.139 0.27 0.03 0.053 0.069 0.143 0.114 0.26 0.044 0.121 0.072 0.217 0.086 0.285 0.012 0.062 0.027 0.143 0.049 0.24 0.021 0.1 0.026 0.195 0.018 0.285-6e-3 0.092-0.026 0.188-0.054 0.287-0.028 0.102-0.069 0.191-0.12 0.271-0.195 0.381-0.467 0.646-0.822 0.799-0.346 0.152-0.694 0.168-1.033 0.047-1.388-0.592-2.569-1.162-3.538-1.699-4.133-2.357-7.646-5.289-10.54-8.797-2.721-0.24-5.326-0.697-7.808-1.367-7.823-2.115-14.123-5.861-18.896-11.238 1.645 0.566 2.896 0.965 3.766 1.199 4.646 1.258 9.283 1.814 13.904 1.67 4.624-0.146 8.938-0.977 12.944-2.498 4.325-1.678 7.926-3.992 10.796-6.932 2.871-2.943 4.828-6.348 5.873-10.215 0.601-2.225 0.863-4.51 0.783-6.854 3.171 3.057 5.424 6.424 6.752 10.098 1.328 3.676 1.516 7.285 0.557 10.834-0.938 3.465-2.839 6.432-5.703 8.895-2.866 2.463-6.369 4.248-10.511 5.359z" clip-path="url(#a)" fill="#fff" opacity=".4"/>
	<path d="m1341.9 696.22c1.483-0.941 3.086-1.219 4.801-0.834 1.718 0.387 3.045 1.322 3.988 2.808 0.938 1.485 1.216 3.088 0.836 4.802-0.387 1.716-1.323 3.046-2.811 3.987l10.229 16.144c0.926 1.456 1.188 3.053 0.798 4.795-0.389 1.738-1.314 3.07-2.774 3.995-17.841-2.323-32.597-0.441-44.252 5.645-1.288 1.564-1.979 3.302-2.067 5.2-0.093 1.906 0.368 3.587 1.373 5.051 1.009 1.465 2.386 2.406 4.144 2.824 0.025 1.279 0.286 2.398 0.778 3.363 0.495 0.966 1.093 1.725 1.798 2.279 0.704 0.556 1.662 1.029 2.875 1.419 1.206 0.394 2.324 0.666 3.347 0.824 1.02 0.161 2.333 0.32 3.928 0.486 0.218 2.14-0.605 4.293-2.474 6.457-1.87 2.165-4.13 3.824-6.775 4.972-2.653 1.15-4.993 1.544-7.029 1.184-0.606-0.523-1.797-1.484-3.57-2.896-1.78-1.406-3.063-2.445-3.861-3.117-0.799-0.673-1.91-1.717-3.34-3.13-1.424-1.415-2.533-2.696-3.32-3.846-0.789-1.15-1.613-2.56-2.474-4.235-0.865-1.671-1.536-3.414-2.019-5.23l-5.131 3.249c-1.848 1.169-3.846 1.517-5.999 1.031-2.155-0.48-3.813-1.646-4.985-3.495l-5.113-8.073c-1.173-1.851-1.516-3.85-1.03-6.005 0.482-2.147 1.646-3.811 3.493-4.983l20.184-12.779c12.187-7.725 21.336-21.06 27.436-40.004 1.46-0.928 3.06-1.191 4.8-0.798 1.739 0.39 3.068 1.31 3.995 2.77l10.221 16.14zm10.698 28.801l-25.401-40.104c-5.684 15.461-13.395 27.081-23.153 34.87l7.19 11.35c11.311-5.513 25.101-7.553 41.364-6.116z" clip-path="url(#a)" fill="#fff" opacity=".4"/>
	<path d="m61.797 75.638c0.166-0.687 0.559-1.22 1.183-1.6 0.622-0.38 1.277-0.487 1.964-0.323 4.862 6.536 10.163 10.496 15.904 11.882l9.504 2.292c0.87 0.21 1.54 0.7 2.011 1.469 0.472 0.771 0.602 1.591 0.391 2.461l-0.917 3.801c-0.209 0.872-0.699 1.542-1.47 2.014-0.771 0.469-1.591 0.6-2.462 0.39l-2.415-0.582c0.053 0.767 0.022 1.53-0.092 2.292-0.112 0.763-0.247 1.417-0.4 1.966-0.154 0.55-0.414 1.193-0.779 1.929-0.367 0.736-0.661 1.286-0.881 1.651-0.221 0.367-0.583 0.938-1.085 1.717-0.502 0.78-0.836 1.31-1.001 1.592-0.742 0.408-1.7 0.564-2.879 0.468-1.177-0.096-2.271-0.439-3.28-1.032-1.01-0.592-1.613-1.318-1.811-2.176 0.596-0.274 1.083-0.509 1.458-0.706s0.773-0.448 1.188-0.76c0.419-0.312 0.727-0.621 0.926-0.93 0.199-0.307 0.333-0.679 0.396-1.119 0.064-0.438 0.016-0.907-0.143-1.406 0.628-0.394 1.037-0.941 1.234-1.64 0.196-0.702 0.152-1.413-0.134-2.14-0.286-0.723-0.782-1.306-1.487-1.741-5.319-0.822-11.283 0.395-17.89 3.647-0.687-0.166-1.22-0.561-1.599-1.184-0.383-0.622-0.49-1.275-0.324-1.962l1.833-7.603c-0.699-0.168-1.237-0.561-1.612-1.175-0.376-0.612-0.48-1.27-0.31-1.971 0.168-0.698 0.56-1.235 1.175-1.612 0.613-0.376 1.269-0.48 1.97-0.311l1.834-7.598zm14.65 17.088l1.289-5.344c-4.806-1.732-9.327-5.217-13.566-10.457l-4.556 18.885c6.113-2.701 11.724-3.729 16.833-3.084z" clip-path="url(#a)" fill="#fff" opacity=".4"/>
	<path d="m27.472 521.47c-0.065 0.391-0.222 0.886-0.465 1.492-0.244 0.605-0.473 1.074-0.687 1.409-0.414 0.675-1.39 1.298-2.929 1.87-1.432 0.519-2.788 0.669-4.067 0.455-0.375-0.063-0.736-0.15-1.083-0.261-0.345-0.109-0.73-0.266-1.154-0.471-0.423-0.204-0.737-0.365-0.938-0.48-0.203-0.114-0.563-0.329-1.083-0.639-0.521-0.309-0.839-0.497-0.957-0.561-1.28-0.733-2.396-1.536-3.351-2.408-1.59-1.439-3.168-3.305-4.737-5.594s-2.748-4.451-3.539-6.481c-0.48-1.224-0.846-2.584-1.095-4.083-0.021-0.135-0.086-0.51-0.198-1.122-0.112-0.613-0.188-1.036-0.227-1.273-0.038-0.237-0.082-0.596-0.129-1.081-0.048-0.481-0.066-0.913-0.052-1.289 0.012-0.374 0.052-0.758 0.117-1.147 0.222-1.329 0.803-2.613 1.739-3.852 1.023-1.326 1.908-2.084 2.655-2.271 0.374-0.101 0.876-0.172 1.504-0.216 0.63-0.042 1.132-0.031 1.509 0.032 0.194 0.031 0.336 0.077 0.428 0.137 0.235 0.129 0.513 0.738 0.829 1.831 0.107 0.299 0.25 0.726 0.43 1.274 0.18 0.55 0.346 1.048 0.5 1.498 0.153 0.448 0.304 0.871 0.452 1.267 0.033 0.064 0.125 0.265 0.275 0.602 0.15 0.338 0.257 0.621 0.32 0.846 0.062 0.225 0.077 0.439 0.042 0.642-0.048 0.288-0.307 0.617-0.777 0.982-0.468 0.368-0.965 0.691-1.493 0.976-0.526 0.282-1.022 0.592-1.485 0.932-0.464 0.338-0.718 0.636-0.761 0.895-0.022 0.132-0.015 0.3 0.022 0.505 0.037 0.207 0.072 0.365 0.103 0.476 0.033 0.109 0.1 0.3 0.205 0.568 0.105 0.271 0.162 0.421 0.171 0.452 0.726 2.155 1.653 4.054 2.779 5.698s2.55 3.173 4.271 4.59c0.026 0.019 0.144 0.126 0.355 0.314 0.211 0.192 0.361 0.321 0.45 0.389 0.089 0.066 0.221 0.152 0.396 0.255 0.176 0.104 0.326 0.166 0.452 0.188 0.251 0.041 0.604-0.109 1.064-0.457 0.458-0.347 0.902-0.731 1.33-1.156 0.429-0.426 0.887-0.811 1.373-1.151 0.487-0.343 0.868-0.488 1.147-0.442 0.194 0.033 0.385 0.116 0.57 0.252 0.184 0.134 0.405 0.331 0.662 0.589 0.257 0.259 0.411 0.413 0.459 0.466 0.31 0.276 0.646 0.563 1.003 0.858 0.359 0.299 0.756 0.626 1.199 0.981 0.44 0.354 0.779 0.636 1.017 0.837 0.889 0.669 1.354 1.141 1.393 1.415 0.025 0.107 0.021 0.261-0.014 0.462z" clip-path="url(#a)" fill="#fff" opacity=".4"/>
	<path d="m198.32 810.97c-0.6 1.545-1.653 2.834-3.157 3.873-1.504 1.035-3.165 1.775-4.98 2.219-9.339 2.25-15.149 3.654-17.438 4.209-0.248 0.059-0.777 0.195-1.593 0.41-0.812 0.211-1.488 0.379-2.017 0.502-0.53 0.119-1.163 0.24-1.896 0.359-0.733 0.121-1.397 0.166-1.994 0.139-0.6-0.029-1.12-0.133-1.569-0.307l-0.029-0.012-0.03-0.014c-0.451-0.172-0.904-0.449-1.365-0.83-0.46-0.381-0.918-0.865-1.379-1.449-0.462-0.582-0.846-1.098-1.158-1.543-0.308-0.449-0.693-1.027-1.149-1.732-0.458-0.705-0.757-1.166-0.9-1.377-1.296-1.945-3.164-4.723-5.61-8.342-2.446-3.617-3.912-5.789-4.393-6.516-0.894-1.293-1.6-2.869-2.119-4.723-0.517-1.854-0.535-3.398-0.058-4.631 0.591-1.525 1.49-2.639 2.698-3.34 1.205-0.703 2.561-0.764 4.069-0.182l43.195 16.766c1.271 0.494 2.192 1.383 2.766 2.662 0.57 1.28 0.607 2.566 0.106 3.859zm-3.349 8.625l-9.041 23.301c-0.501 1.291-1.391 2.221-2.667 2.783-1.277 0.561-2.558 0.592-3.851 0.092l-43.196-16.764c-1.293-0.502-2.221-1.391-2.781-2.666-0.563-1.275-0.593-2.562-0.092-3.854l9.043-23.299c0.487 1.293 1.146 2.527 1.974 3.703 5.213 7.562 8.765 12.822 10.654 15.785 0.796 1.254 1.453 2.246 1.968 2.977 0.519 0.727 1.258 1.557 2.227 2.48 0.969 0.928 1.952 1.586 2.949 1.973l0.03 0.012 0.029 0.012c0.998 0.387 2.165 0.566 3.506 0.533 1.34-0.029 2.447-0.139 3.319-0.332 0.874-0.189 2.027-0.479 3.461-0.871 4.261-1.113 10.439-2.596 18.542-4.451 1.413-0.329 2.721-0.799 3.926-1.414z" clip-path="url(#a)" fill="#fff" opacity=".4"/>
	<path d="m43.325 79.261c0.523 0.597 0.642 1.263 0.355 1.994l-17.176 42.019c-0.221 0.527-0.62 0.884-1.202 1.071-0.299 0.092-0.61 0.102-0.933 0.029-0.208-0.047-0.424-0.146-0.649-0.295l-13.597-9.509-10.58 7.376c-0.43 0.319-0.921 0.418-1.471 0.292-0.266-0.06-0.474-0.148-0.628-0.261-0.331-0.214-0.563-0.502-0.702-0.862-0.138-0.36-0.162-0.729-0.077-1.109l2.913-12.849-12.176-8.53c-0.641-0.425-0.901-1.031-0.782-1.823 0.111-0.75 0.541-1.242 1.29-1.469l53.495-16.566c0.754-0.248 1.394-0.085 1.92 0.492zm-19.383 40.413l14.809-36.188-46.097 14.268 8.668 6.061 28.654-12.604-18.727 19.579 12.693 8.884z" clip-path="url(#a)" fill="#fff" opacity=".4"/>
	<path d="m41.505 176.8c-0.184 0.32-0.574 0.561-1.168 0.722l-12.353 3.176-4.386 11.984c-0.044 0.11-0.12 0.26-0.229 0.449-0.175 0.305-0.4 0.52-0.674 0.644-0.273 0.122-0.556 0.101-0.847-0.066-0.276-0.159-0.517-0.413-0.722-0.763l-6.839-10.771-12.75-0.475c-0.42-9e-3 -0.761-0.089-1.023-0.24-0.305-0.175-0.474-0.413-0.506-0.71-0.031-0.299 0.041-0.601 0.216-0.906 0.05-0.087 0.148-0.225 0.294-0.412l8.138-9.83-3.507-12.282c-0.138-0.601-0.12-1.055 0.056-1.36 0.309-0.538 0.908-0.639 1.798-0.301l11.865 4.694 10.607-7.108c0.619-0.438 1.146-0.531 1.583-0.281s0.622 0.753 0.556 1.508l-0.791 12.744 10.037 7.88c0.738 0.597 0.954 1.166 0.645 1.704z" clip-path="url(#a)" fill="#fff" opacity=".4"/>
	<path d="m29.593 601.89c3.743 3.291 6.421 7.355 8.031 12.192 1.611 4.838 1.904 9.696 0.88 14.574-1.024 4.879-3.182 9.19-6.473 12.934s-7.355 6.422-12.192 8.032-9.696 1.903-14.574 0.879c-4.879-1.022-9.19-3.181-12.934-6.472s-6.422-7.356-8.032-12.193-1.904-9.694-0.88-14.573c1.023-4.879 3.181-9.189 6.473-12.935 3.291-3.743 7.355-6.421 12.193-8.031 4.837-1.61 9.695-1.903 14.573-0.88 4.879 1.025 9.19 3.182 12.935 6.473zm0.876 25.104c0.726-3.456 0.52-6.896-0.621-10.322-1.14-3.425-3.037-6.303-5.69-8.634-2.653-2.33-5.707-3.858-9.162-4.585-3.456-0.726-6.896-0.52-10.321 0.621-3.426 1.141-6.304 3.038-8.634 5.69-2.331 2.652-3.859 5.707-4.585 9.162-0.727 3.456-0.52 6.896 0.621 10.321 1.14 3.426 3.037 6.304 5.689 8.634 2.653 2.331 5.707 3.859 9.163 4.585 3.455 0.727 6.896 0.521 10.322-0.62 3.425-1.141 6.303-3.037 8.634-5.69 2.329-2.652 3.857-5.706 4.584-9.162zm-19.132-17.733l5.178 15.553c0.108 0.324 0.092 0.625-0.046 0.902-0.139 0.278-0.371 0.471-0.694 0.578l-11.11 3.699c-0.325 0.107-0.625 0.093-0.903-0.047-0.277-0.139-0.47-0.37-0.578-0.693l-0.739-2.223c-0.108-0.324-0.093-0.625 0.046-0.902s0.37-0.471 0.694-0.579l7.777-2.589-4.068-12.22c-0.108-0.324-0.092-0.625 0.046-0.903 0.139-0.276 0.37-0.47 0.694-0.578l2.222-0.739c0.324-0.108 0.625-0.093 0.902 0.046 0.278 0.139 0.471 0.37 0.579 0.695z" clip-path="url(#a)" fill="#fff" opacity=".4"/>
	<path d="m233.59 779.22c0.416 0.768 0.393 1.539-0.069 2.313l10.985 20.248c0.075 0.138 0.089 0.286 0.043 0.442-0.047 0.156-0.139 0.271-0.278 0.347l-1.023 0.556c-0.139 0.075-0.286 0.089-0.442 0.043-0.157-0.046-0.272-0.139-0.347-0.277l-10.984-20.247c-0.902-0.035-1.562-0.437-1.978-1.204-0.307-0.565-0.369-1.156-0.186-1.773 0.184-0.615 0.558-1.077 1.123-1.384s1.156-0.368 1.772-0.187c0.616 0.184 1.077 0.558 1.384 1.123zm24.097-11.749l6.62 12.203c0.145 0.267 0.189 0.509 0.134 0.724-0.055 0.217-0.186 0.478-0.394 0.782-1.621 2.481-3.253 4.167-4.895 5.058-0.65 0.353-1.373 0.593-2.166 0.72s-1.511 0.186-2.151 0.174c-0.641-0.011-1.396 0.067-2.264 0.234s-1.691 0.463-2.47 0.885c-2.047 1.111-4.099 3.23-6.154 6.361-0.13 0.193-0.28 0.337-0.45 0.43-0.277 0.15-0.572 0.179-0.885 0.086-0.312-0.092-0.543-0.277-0.694-0.555l-6.438-11.866c-0.185-0.341-0.179-0.725 0.019-1.148 0.143-0.271 0.439-0.729 0.89-1.374 1.823-2.644 3.72-4.501 5.692-5.571 1.141-0.619 2.291-1.043 3.45-1.271s2.581-0.393 4.266-0.493c0.515-0.018 1.039-0.171 1.572-0.46 0.576-0.312 1.142-0.764 1.697-1.354 0.556-0.592 1.006-1.16 1.351-1.707 0.346-0.545 0.679-1.05 1-1.515 0.321-0.464 0.551-0.733 0.689-0.809 0.277-0.15 0.572-0.179 0.884-0.087 0.315 0.091 0.546 0.277 0.697 0.553z" clip-path="url(#a)" fill="#fff" opacity=".4"/>
	<path d="m1440 254.45v3.356c0 0.455-0.166 0.849-0.499 1.18-0.332 0.333-0.726 0.499-1.18 0.499h-3.75c-0.646 2.815-1.998 5.25-4.052 7.304-2.055 2.055-4.489 3.405-7.304 4.052v3.75c0 0.454-0.167 0.848-0.498 1.18-0.332 0.332-0.727 0.499-1.181 0.499h-3.356c-0.455 0-0.849-0.167-1.181-0.499-0.332-0.333-0.498-0.726-0.498-1.18v-3.75c-2.815-0.646-5.25-1.997-7.304-4.052-2.055-2.054-3.405-4.488-4.052-7.304h-3.75c-0.455 0-0.849-0.166-1.181-0.499-0.332-0.332-0.498-0.725-0.498-1.18v-3.356c0-0.455 0.166-0.848 0.498-1.18s0.726-0.499 1.181-0.499h3.75c0.646-2.814 1.997-5.249 4.052-7.304 2.054-2.054 4.488-3.405 7.304-4.052v-3.75c0-0.455 0.166-0.848 0.498-1.181 0.332-0.332 0.726-0.498 1.181-0.498h3.356c0.454 0 0.849 0.167 1.181 0.498 0.331 0.333 0.498 0.726 0.498 1.181v3.75c2.814 0.647 5.249 1.998 7.304 4.052 2.054 2.055 3.405 4.489 4.052 7.304h3.75c0.454 0 0.848 0.167 1.18 0.499 0.333 0.332 0.499 0.726 0.499 1.18zm-8.89 5.036h-2.858c-0.455 0-0.849-0.166-1.18-0.499-0.333-0.332-0.499-0.725-0.499-1.18v-3.356c0-0.455 0.166-0.848 0.499-1.18 0.331-0.332 0.725-0.499 1.18-0.499h2.858c-0.56-1.888-1.543-3.536-2.95-4.943-1.408-1.407-3.055-2.391-4.943-2.95v2.858c0 0.455-0.167 0.848-0.498 1.18-0.332 0.333-0.727 0.498-1.181 0.498h-3.356c-0.455 0-0.849-0.166-1.181-0.498s-0.498-0.725-0.498-1.18v-2.858c-1.888 0.56-3.536 1.543-4.943 2.95-1.408 1.407-2.392 3.055-2.95 4.943h2.858c0.454 0 0.848 0.167 1.18 0.499s0.499 0.726 0.499 1.18v3.356c0 0.455-0.167 0.849-0.499 1.18-0.332 0.333-0.726 0.499-1.18 0.499h-2.858c0.559 1.888 1.542 3.536 2.95 4.943 1.407 1.408 3.056 2.391 4.943 2.95v-2.858c0-0.455 0.166-0.848 0.498-1.18s0.726-0.498 1.181-0.498h3.356c0.454 0 0.849 0.167 1.181 0.498 0.331 0.332 0.498 0.726 0.498 1.18v2.858c1.889-0.559 3.535-1.542 4.943-2.95 1.407-1.407 2.39-3.055 2.95-4.943z" clip-path="url(#a)" fill="#fff" opacity=".4"/>
	<path d="m1440.4 337.14c0.811 3.008 0.646 5.828-0.496 8.461-1.143 2.632-3.089 4.68-5.838 6.143-2.75 1.463-5.946 2.175-9.586 2.138-3.642-0.038-7.271-0.841-10.889-2.411-1.629-0.706-3.229-1.581-4.802-2.623-3.072 0.647-6.23 0.718-9.477 0.21-0.756-0.125-1.636-0.326-2.641-0.605l-0.085-0.037c-0.208-0.09-0.37-0.249-0.484-0.48-0.114-0.229-0.137-0.475-0.067-0.738 6e-3 -0.065 0.022-0.131 0.052-0.197 0.028-0.066 0.06-0.126 0.094-0.179s0.078-0.101 0.132-0.146c0.053-0.045 0.096-0.081 0.132-0.111 0.035-0.029 0.09-0.067 0.168-0.113 0.075-0.046 0.134-0.076 0.174-0.093 0.041-0.016 0.104-0.044 0.189-0.086 0.087-0.042 0.143-0.068 0.17-0.079 0.145-0.073 0.465-0.215 0.961-0.427 0.497-0.212 0.865-0.384 1.103-0.518 0.238-0.133 0.569-0.316 0.997-0.547 0.427-0.231 0.821-0.493 1.185-0.786 0.363-0.292 0.738-0.625 1.124-0.997-1.756-2.383-2.877-4.86-3.357-7.432-0.483-2.573-0.235-4.985 0.743-7.239 1.142-2.633 3.088-4.681 5.838-6.144 2.749-1.462 5.944-2.175 9.585-2.137 3.642 0.038 7.271 0.841 10.888 2.41s6.685 3.671 9.2 6.303c2.513 2.633 4.176 5.454 4.987 8.46zm7.259 20.467c-0.986 2.273-2.581 4.107-4.784 5.503s-4.774 2.267-7.716 2.611c-8e-3 0.537 7e-3 1.038 0.041 1.503 0.035 0.465 0.112 0.932 0.235 1.402s0.217 0.835 0.282 1.101c0.065 0.265 0.19 0.651 0.376 1.159 0.185 0.507 0.299 0.839 0.345 0.993 0.01 0.027 0.03 0.086 0.059 0.178 0.027 0.091 0.05 0.156 0.066 0.197s0.032 0.104 0.051 0.191c0.02 0.086 0.029 0.153 0.032 0.199 2e-3 0.046 6e-3 0.104 9e-3 0.173 4e-3 0.069-2e-3 0.134-0.017 0.195-0.016 0.061-0.038 0.124-0.066 0.19-0.029 0.066-0.064 0.124-0.108 0.172-0.171 0.241-0.385 0.396-0.64 0.465-0.256 0.069-0.492 0.045-0.712-0.072-0.89-0.544-1.638-1.049-2.246-1.515-2.588-2.023-4.695-4.378-6.32-7.063-1.837-0.436-3.569-1.008-5.198-1.714-5.134-2.227-9.061-5.416-11.783-9.567 1.065 0.552 1.882 0.951 2.45 1.198 3.05 1.323 6.16 2.166 9.334 2.53 3.173 0.363 6.203 0.226 9.091-0.412 3.124-0.715 5.812-1.935 8.067-3.657s3.934-3.852 5.034-6.39c0.633-1.458 1.039-2.993 1.22-4.603 1.86 2.406 3.061 4.93 3.603 7.572 0.541 2.646 0.305 5.131-0.705 7.461z" clip-path="url(#a)" fill="#fff" opacity=".4"/>
	<path d="m49.757 29.338l-2.321 4.515c-0.084 0.163-0.223 0.292-0.416 0.388-0.194 0.096-0.367 0.115-0.522 0.055l-4.083-1.359c-0.472 0.478-1.05 0.962-1.734 1.453 0.151 1.065 0.402 2.377 0.753 3.936 0.03 0.221 3e-3 0.413-0.081 0.576-0.1 0.195-0.236 0.32-0.409 0.375-0.625 0.296-1.67 0.679-3.135 1.149-1.466 0.47-2.353 0.625-2.662 0.467-0.18-0.093-0.321-0.237-0.425-0.435l-1.677-3.639c-0.761 0-1.517-0.07-2.268-0.209-1.083 1.665-1.917 2.83-2.506 3.493-0.314 0.333-0.659 0.402-1.033 0.21l-4.538-2.333c-0.179-0.092-0.311-0.237-0.394-0.434-0.083-0.198-0.093-0.381-0.025-0.552l1.358-4.022c-0.469-0.447-0.95-1.012-1.441-1.697l-3.996 0.691c-0.172 0.056-0.364 0.029-0.575-0.08-0.179-0.092-0.317-0.245-0.412-0.459-1.23-3.367-1.733-5.271-1.507-5.71 0.075-0.146 0.211-0.271 0.409-0.376 0.28-0.144 0.835-0.403 1.666-0.779 0.83-0.375 1.467-0.675 1.912-0.898-7e-3 -0.908 0.052-1.721 0.175-2.44l-3.408-2.493c-0.155-0.1-0.254-0.249-0.296-0.445-0.043-0.196-0.019-0.385 0.074-0.564l2.321-4.514c0.083-0.162 0.222-0.292 0.416-0.388 0.193-0.096 0.368-0.114 0.522-0.055l4.083 1.359c0.471-0.478 1.049-0.962 1.734-1.454-0.152-1.065-0.403-2.377-0.753-3.935-0.022-0.238 4e-3 -0.43 0.08-0.576 0.1-0.195 0.241-0.329 0.421-0.4 0.609-0.304 1.648-0.685 3.118-1.143 1.469-0.458 2.358-0.607 2.667-0.448 0.179 0.092 0.32 0.237 0.425 0.434l1.676 3.639c0.704-8e-3 1.464 0.054 2.281 0.185 1.082-1.664 1.913-2.82 2.494-3.469 0.314-0.332 0.658-0.402 1.033-0.209l4.538 2.333c0.179 0.092 0.31 0.237 0.394 0.434 0.084 0.198 0.091 0.382 0.025 0.552l-1.358 4.022c0.469 0.447 0.949 1.013 1.44 1.698l3.996-0.691c0.188-0.047 0.381-0.021 0.576 0.08 0.179 0.092 0.316 0.244 0.412 0.459 1.23 3.368 1.733 5.271 1.507 5.71-0.075 0.146-0.212 0.271-0.409 0.375-0.329 0.16-0.896 0.424-1.702 0.791-0.806 0.368-1.423 0.667-1.851 0.9-0.027 0.973-0.094 1.782-0.199 2.427l3.421 2.468c0.146 0.116 0.24 0.272 0.283 0.469 0.042 0.196 0.018 0.384-0.074 0.563zm-14.613 0.879c1.848-0.593 3.214-1.751 4.101-3.476 0.887-1.724 1.033-3.51 0.441-5.357-0.593-1.847-1.752-3.214-3.476-4.101-1.725-0.886-3.51-1.033-5.358-0.441-1.847 0.593-3.214 1.752-4.101 3.476-0.887 1.725-1.033 3.511-0.441 5.357 0.593 1.848 1.752 3.214 3.476 4.101s3.512 1.033 5.358 0.441zm36.388-4.831l-1.756 3.416c-0.134 0.261-1.476-0.11-4.025-1.112-0.421 0.338-0.882 0.636-1.384 0.892-0.116 2.265-0.277 3.601-0.486 4.007-0.034 0.065-0.096 0.105-0.185 0.121-2.58 0.135-3.885 0.193-3.917 0.177-0.13-0.067-0.309-0.642-0.533-1.724-0.225-1.083-0.364-1.853-0.416-2.312-0.342-0.135-0.594-0.245-0.757-0.328-0.163-0.084-0.398-0.225-0.707-0.425-0.404 0.224-1.111 0.561-2.122 1.007-1.012 0.447-1.582 0.637-1.712 0.57-0.033-0.017-0.744-1.113-2.134-3.288-0.041-0.083-0.044-0.156-0.01-0.222 0.209-0.406 1.201-1.315 2.976-2.727-0.083-0.557-0.11-1.105-0.08-1.646-2.299-1.49-3.381-2.365-3.247-2.625l1.756-3.416c0.134-0.26 1.475 0.11 4.025 1.112 0.453-0.363 0.915-0.66 1.384-0.893 0.116-2.264 0.278-3.6 0.487-4.007 0.033-0.065 0.095-0.105 0.186-0.121 0.081 1e-3 0.45-0.016 1.105-0.048 0.654-0.034 1.277-0.064 1.866-0.09s0.9-0.031 0.933-0.014c0.13 0.066 0.31 0.637 0.539 1.711 0.229 1.075 0.369 1.841 0.422 2.3 0.342 0.134 0.595 0.244 0.757 0.327s0.398 0.226 0.707 0.425c1.423-0.729 2.64-1.254 3.65-1.579l0.171 0.026c0.065 0.033 0.781 1.122 2.148 3.264 0.039 0.082 0.043 0.156 0.01 0.22-0.209 0.407-1.202 1.316-2.976 2.727 0.083 0.518 0.11 1.065 0.08 1.646 2.297 1.494 3.379 2.37 3.245 2.629zm-12.846 24.986l-1.756 3.416c-0.134 0.261-1.476-0.111-4.025-1.113-0.421 0.339-0.882 0.636-1.384 0.892-0.115 2.265-0.277 3.6-0.487 4.007-0.033 0.064-0.095 0.105-0.185 0.121-2.579 0.134-3.884 0.193-3.917 0.177-0.13-0.067-0.308-0.642-0.532-1.724-0.225-1.083-0.364-1.853-0.416-2.312-0.342-0.135-0.594-0.244-0.757-0.327-0.163-0.084-0.398-0.226-0.707-0.426-0.404 0.224-1.11 0.56-2.122 1.007s-1.583 0.637-1.712 0.57c-0.033-0.017-0.744-1.113-2.135-3.288-0.041-0.083-0.043-0.156-0.01-0.221 0.21-0.407 1.202-1.316 2.976-2.728-0.083-0.557-0.11-1.106-0.08-1.645-2.299-1.491-3.381-2.365-3.247-2.626l1.756-3.416c0.133-0.26 1.475 0.11 4.025 1.113 0.454-0.363 0.915-0.66 1.384-0.892 0.115-2.265 0.278-3.601 0.487-4.007 0.033-0.065 0.095-0.105 0.185-0.121 0.082 1e-3 0.45-0.016 1.105-0.049 0.655-0.034 1.277-0.063 1.867-0.089 0.589-0.026 0.899-0.031 0.933-0.014 0.13 0.066 0.31 0.637 0.539 1.712 0.23 1.074 0.37 1.84 0.422 2.299 0.342 0.135 0.594 0.244 0.757 0.328 0.162 0.083 0.397 0.225 0.707 0.425 1.423-0.729 2.64-1.254 3.65-1.578l0.171 0.026c0.064 0.033 0.781 1.122 2.148 3.264 0.039 0.083 0.043 0.156 9e-3 0.221-0.209 0.407-1.201 1.315-2.976 2.727 0.084 0.517 0.111 1.064 0.08 1.646 2.299 1.49 3.381 2.366 3.247 2.625zm5.721-26.489c0.435-0.846 0.502-1.737 0.202-2.673-0.301-0.936-0.874-1.622-1.719-2.056-0.846-0.435-1.737-0.502-2.673-0.202-0.937 0.301-1.621 0.874-2.056 1.72-0.443 0.862-0.517 1.755-0.221 2.678 0.296 0.924 0.875 1.607 1.738 2.05 0.862 0.443 1.755 0.517 2.678 0.221 0.925-0.297 1.608-0.876 2.051-1.738zm-12.845 24.985c0.434-0.845 0.501-1.737 0.202-2.672-0.301-0.936-0.874-1.621-1.719-2.056-0.846-0.435-1.737-0.503-2.673-0.203s-1.621 0.874-2.056 1.719c-0.443 0.863-0.516 1.755-0.22 2.679 0.296 0.923 0.875 1.607 1.738 2.051 0.862 0.443 1.755 0.517 2.678 0.22 0.923-0.296 1.606-0.875 2.05-1.738z" clip-path="url(#a)" fill="#fff" opacity=".4"/>
	<path d="m86.103 724.43c1.705 4.762 1.476 9.43-0.688 14.005-2.163 4.575-5.625 7.715-10.386 9.419l-48.874 17.497c-5.541 1.983-10.985 1.711-16.332-0.818-5.348-2.526-9.013-6.562-10.997-12.103-1.415-3.952-1.647-7.948-0.694-11.989 0.952-4.041 2.875-7.49 5.771-10.352-0.361-0.817-0.621-1.45-0.782-1.899-2.273-6.349-1.967-12.574 0.917-18.674s7.5-10.286 13.849-12.56c4.731-1.693 9.494-1.911 14.286-0.653 4.791 1.258 8.831 3.696 12.121 7.316 1.431-2.606 3.584-4.426 6.46-5.455 3.174-1.136 6.286-0.983 9.336 0.459 3.05 1.441 5.143 3.75 6.279 6.924 0.804 2.246 0.929 4.532 0.377 6.858 4.185-0.485 8.096 0.388 11.731 2.617 3.638 2.23 6.179 5.365 7.626 9.408z" clip-path="url(#a)" fill="#fff" opacity=".4"/>
	<path d="m45.627 280.84c3.473 2.263 5.787 5.199 6.945 8.81s0.983 7.347-0.526 11.206c-1.508 3.86-4.116 7.363-7.822 10.508-3.707 3.146-8.091 5.53-13.155 7.154-1.453 0.466-2.983 0.866-4.593 1.198-2.944 4.95-6.913 8.992-11.904 12.126-0.924 0.616-2.034 1.224-3.329 1.823l-0.156 0.05c-0.311 0.1-0.626 0.081-0.945-0.058-0.319-0.138-0.577-0.37-0.772-0.696l-0.01-0.031c-0.089-0.063-0.135-0.186-0.136-0.368-1e-3 -0.183-0.014-0.293-0.037-0.332-0.024-0.039-0.01-0.152 0.045-0.341 0.053-0.188 0.085-0.302 0.097-0.34 0.01-0.038 0.055-0.149 0.133-0.334s0.131-0.305 0.16-0.36c0.091-0.212 0.298-0.674 0.62-1.383 0.321-0.71 0.553-1.22 0.695-1.528 0.141-0.309 0.331-0.821 0.57-1.539s0.406-1.355 0.502-1.912 0.18-1.259 0.251-2.106c0.072-0.847 0.089-1.722 0.051-2.625-3.851-0.802-7.151-2.261-9.901-4.378-2.75-2.116-4.625-4.731-5.623-7.844-1.158-3.61-0.983-7.346 0.526-11.206 1.508-3.86 4.116-7.362 7.822-10.508 3.707-3.146 8.091-5.53 13.155-7.154 5.063-1.624 10.017-2.234 14.862-1.831 4.845 0.404 9.004 1.737 12.475 3.999zm-13.488 0.171c-4.146-0.26-8.336 0.288-12.569 1.646-4.234 1.358-7.961 3.349-11.183 5.972-3.221 2.624-5.523 5.509-6.907 8.652-1.383 3.145-1.619 6.138-0.707 8.98 0.746 2.325 2.198 4.303 4.357 5.933 2.159 1.632 4.834 2.782 8.025 3.452l3.208 0.688 0.118 3.258c0.107 2.048-0.047 4.066-0.462 6.053 2.735-2.319 5.021-5.008 6.854-8.068l0.959-1.613 1.834-0.382c1.485-0.292 2.86-0.643 4.126-1.048 4.234-1.358 7.961-3.348 11.182-5.972s5.523-5.507 6.907-8.652c1.382-3.144 1.618-6.138 0.707-8.981s-2.845-5.141-5.798-6.895c-2.955-1.754-6.505-2.761-10.651-3.023z" clip-path="url(#a)" fill="#fff" opacity=".4"/>
	<path d="m158.37 710.67c0 4.26-0.646 7.943-1.938 11.049-1.292 3.104-3.461 6.189-6.506 9.252-1.386 1.368-3.054 2.874-5.004 4.516l-0.513 9.728c-0.035 0.274-0.171 0.496-0.411 0.667l-9.855 5.749c-0.12 0.067-0.256 0.103-0.411 0.103-0.205 0-0.402-0.077-0.59-0.231l-1.643-1.643c-0.223-0.239-0.291-0.513-0.206-0.82l2.182-7.084-7.211-7.211-7.083 2.181c-0.051 0.018-0.128 0.026-0.231 0.026-0.24 0-0.437-0.077-0.59-0.231l-1.643-1.643c-0.291-0.325-0.333-0.658-0.128-1.001l5.749-9.854c0.171-0.24 0.394-0.376 0.667-0.411l9.727-0.513c1.643-1.951 3.148-3.619 4.517-5.005 3.217-3.199 6.279-5.406 9.188-6.621s6.596-1.822 11.061-1.822c0.24 0 0.445 0.081 0.616 0.243 0.17 0.161 0.256 0.354 0.256 0.576zm-6.467 9.136c0.479-0.479 0.719-1.061 0.719-1.746 0-0.684-0.24-1.266-0.719-1.745s-1.061-0.718-1.745-0.718c-0.685 0-1.267 0.239-1.745 0.718-0.479 0.479-0.718 1.062-0.718 1.745 0 0.686 0.239 1.267 0.718 1.746s1.061 0.719 1.745 0.719 1.266-0.24 1.745-0.719z" clip-path="url(#a)" fill="#fff" opacity=".4"/>
	<g clip-path="url(#a)" fill="#fff" opacity=".4">
		<path d="m1363.5-13.358c3.253 2.255 8.35 55.379 2.528 65.2-2.963 4.999-10.601 8.899-23.813 20.446-7.333 6.408-9.505 9.191-17.138 4.962-12.502-6.927-12.615-9.821-11.878-16.179 0.705-6.083 0.881-8.802-1.828-11.39-2.454-2.345-13.802-14.454-21.721-12.908-29.927 5.838-31.248 2.272-31.575-3.955-0.739-14.053-1.117-33.55 5.565-37.713 6.709-4.179 36.825-15.443 40.735-16.247 25.562-5.252 28.403-2.567 30.259-1.666 5.983 2.906 12.2 5.757 9.87 8.001-2.057 1.98-8.665 5.675-8.105 7.928 0.71 2.861 9.375 12.502 12.367 12.563 3.149 0.064 10.602-14.257 12.643-18.319 0.614-1.223 1.337-1.246 2.091-0.723z"/>
		<path d="m1316.1 80.326c0.455-3.165 2.236-2.968 3.527-1.839 1.449 1.266 3.178 2.879 5.455 5.236 2.985 3.089 1.059 3.57-3.498 5.625-5.179 2.335-6.215 2.583-6.49 0.505-0.235-1.783 0.491-5.95 1.006-9.527z"/>
	</g>
	<path d="m268.28 17.596l-9.109 22.541c-0.422 1.044-1.146 1.782-2.17 2.218-1.025 0.436-2.061 0.441-3.105 0.02l-37.564-15.182c-1.043-0.423-1.783-1.146-2.219-2.171-0.434-1.026-0.442-2.06-0.02-3.104l9.11-22.542c0.421-1.041 1.144-1.78 2.169-2.215 1.025-0.436 2.059-0.442 3.105-0.02l1.25 0.505 3.037-7.515c1.941-4.8 5.328-8.225 10.165-10.279 4.835-2.053 9.651-2.106 14.452-0.166 4.799 1.939 8.226 5.326 10.277 10.162 2.051 4.838 2.107 9.654 0.168 14.455l-3.037 7.513 1.252 0.506c1.043 0.423 1.783 1.147 2.219 2.171 0.434 1.028 0.441 2.061 0.02 3.103zm-31.039-16.913l20.035 8.098 3.037-7.514c1.117-2.766 1.094-5.523-0.07-8.27-1.168-2.745-3.134-4.678-5.898-5.797-2.768-1.117-5.522-1.093-8.268 0.072-2.748 1.164-4.682 3.131-5.799 5.897l-3.037 7.514z" clip-path="url(#a)" fill="#fff" opacity=".4"/>
	<path d="m584.59 1200v31.689c0 1.258-0.44 2.326-1.32 3.207-0.881 0.88-1.95 1.32-3.207 1.32h-45.271c-1.258 0-2.327-0.44-3.207-1.32-0.88-0.881-1.32-1.949-1.32-3.207v-7.545h-25.653c-1.258 0-2.327-0.439-3.207-1.32-0.881-0.88-1.32-1.949-1.32-3.207v-63.38c0-1.257 0.439-2.326 1.32-3.206 0.88-0.88 1.949-1.321 3.207-1.321h51.308c1.257 0 2.326 0.441 3.206 1.321s1.321 1.949 1.321 3.206v15.468c0.66 0.409 1.226 0.849 1.697 1.32l19.24 19.24c0.88 0.881 1.635 2.075 2.264 3.584 0.627 1.51 0.942 2.894 0.942 4.151zm-36.218-37.727v-3.018c0-0.408-0.149-0.762-0.447-1.062-0.3-0.298-0.653-0.448-1.062-0.448h-33.199c-0.408 0-0.763 0.15-1.061 0.448-0.299 0.3-0.448 0.653-0.448 1.062v3.018c0 0.409 0.149 0.763 0.448 1.062 0.298 0.299 0.652 0.447 1.061 0.447h33.199c0.408 0 0.762-0.148 1.062-0.447 0.297-0.299 0.447-0.653 0.447-1.062zm-12.073 67.907h42.254v-30.181h-19.618c-1.258 0-2.327-0.44-3.206-1.32-0.881-0.88-1.321-1.949-1.321-3.207v-19.617h-18.108v54.325zm24.146-36.216h14.1l-14.1-14.101v14.101z" clip-path="url(#a)" fill="#fff" opacity=".4"/>
	<path d="m341.58 781.18c0 2.155-0.764 3.978-2.29 5.468l-3.959 3.933c-1.491 1.49-3.313 2.235-5.468 2.235-2.173 0-4.004-0.763-5.495-2.289l-5.549-5.576c-1.491-1.49-2.236-3.312-2.236-5.468 0-2.209 0.791-4.084 2.371-5.629l-2.371-2.371c-1.544 1.581-3.412 2.371-5.603 2.371-2.155 0-3.986-0.754-5.495-2.263l-5.603-5.603c-1.508-1.509-2.262-3.34-2.262-5.495 0-2.154 0.763-3.977 2.289-5.468l3.96-3.933c1.49-1.49 3.312-2.235 5.468-2.235 2.172 0 4.004 0.764 5.495 2.29l5.548 5.575c1.491 1.49 2.236 3.312 2.236 5.468 0 2.209-0.791 4.085-2.37 5.63l2.37 2.37c1.544-1.58 3.411-2.37 5.603-2.37 2.155 0 3.986 0.754 5.495 2.262l5.603 5.603c1.509 1.509 2.263 3.34 2.263 5.495zm-24.107-18.989c0-0.718-0.251-1.329-0.754-1.831l-5.549-5.576c-0.502-0.502-1.113-0.754-1.831-0.754-0.701 0-1.312 0.242-1.832 0.727l-3.96 3.933c-0.502 0.503-0.754 1.104-0.754 1.805 0 0.719 0.251 1.329 0.754 1.832l5.603 5.603c0.485 0.484 1.095 0.728 1.831 0.728 0.754 0 1.401-0.278 1.939-0.835-0.054-0.055-0.225-0.22-0.511-0.499-0.288-0.277-0.481-0.472-0.58-0.579s-0.233-0.278-0.404-0.512c-0.171-0.232-0.288-0.462-0.351-0.687s-0.094-0.472-0.094-0.741c0-0.718 0.252-1.328 0.754-1.831s1.113-0.754 1.832-0.754c0.27 0 0.516 0.031 0.741 0.094s0.454 0.18 0.687 0.35c0.233 0.172 0.405 0.306 0.512 0.404 0.108 0.1 0.301 0.292 0.579 0.579 0.278 0.288 0.444 0.458 0.498 0.512 0.594-0.558 0.89-1.214 0.89-1.968zm18.935 18.989c0-0.718-0.251-1.329-0.754-1.831l-5.603-5.604c-0.503-0.502-1.113-0.754-1.832-0.754-0.754 0-1.401 0.288-1.939 0.862 0.053 0.054 0.224 0.22 0.511 0.498 0.288 0.278 0.48 0.472 0.579 0.579s0.233 0.279 0.404 0.512c0.17 0.233 0.287 0.463 0.35 0.687 0.063 0.226 0.095 0.472 0.095 0.741 0 0.719-0.252 1.329-0.754 1.832-0.502 0.502-1.113 0.754-1.831 0.754-0.27 0-0.517-0.031-0.741-0.095-0.225-0.062-0.454-0.18-0.688-0.35-0.233-0.171-0.404-0.306-0.511-0.404-0.108-0.099-0.301-0.292-0.579-0.579-0.279-0.287-0.444-0.458-0.499-0.512-0.592 0.557-0.889 1.212-0.889 1.966 0 0.719 0.251 1.329 0.754 1.832l5.548 5.575c0.485 0.485 1.096 0.728 1.832 0.728 0.718 0 1.329-0.233 1.832-0.7l3.959-3.933c0.505-0.502 0.756-1.103 0.756-1.804z" clip-path="url(#a)" fill="#fff" opacity=".4"/>
	<path d="m137.11 21.174l-29.182 29.18c-1.055 1.056-2.338 1.583-3.851 1.583-1.483 0-2.781-0.528-3.893-1.583l-4.536-4.621c-1.085-1.027-1.626-2.311-1.626-3.851 0-1.512 0.541-2.81 1.626-3.894l29.138-29.138c1.113 2.796 2.746 5.27 4.899 7.424s4.628 3.786 7.425 4.9zm-28.369 19.896c0.542-0.542 0.812-1.184 0.812-1.926 0-0.741-0.271-1.383-0.812-1.925-0.542-0.541-1.185-0.812-1.925-0.812-0.743 0-1.384 0.271-1.926 0.812-0.542 0.542-0.813 1.185-0.813 1.925 0 0.742 0.271 1.384 0.813 1.926s1.183 0.813 1.926 0.813c0.741 0 1.383-0.272 1.925-0.813zm55.495-38.509c0 1.113-0.327 2.624-0.984 4.535-1.341 3.823-3.687 6.925-7.039 9.307-3.352 2.381-7.039 3.573-11.061 3.573-5.277 0-9.792-1.876-13.542-5.626-3.75-3.751-5.627-8.266-5.627-13.542s1.876-9.792 5.627-13.542c3.751-3.751 8.266-5.627 13.542-5.627 1.654 0 3.387 0.236 5.199 0.706 1.811 0.471 3.344 1.135 4.6 1.991 0.457 0.313 0.685 0.712 0.685 1.198s-0.229 0.884-0.685 1.198l-12.536 7.228v9.584l8.258 4.579c0.142-0.086 1.269-0.777 3.38-2.075 2.11-1.298 4.044-2.454 5.798-3.467 1.754-1.012 2.76-1.519 3.017-1.519 0.428 0 0.763 0.143 1.006 0.428 0.241 0.287 0.362 0.643 0.362 1.071z" clip-path="url(#a)" fill="#fff" opacity=".4"/>
	<path d="m1314.6 646.57c-0.194 0.833-0.651 1.475-1.37 1.922l-27.916 17.356-5.244 3.261c-0.72 0.447-1.497 0.574-2.33 0.38-0.834-0.194-1.475-0.652-1.922-1.371l-3.26-5.244-8.68-13.958c-0.447-0.719-0.574-1.496-0.379-2.33 0.193-0.833 0.65-1.474 1.371-1.922l5.243-3.261c0.72-0.447 1.496-0.573 2.331-0.38 0.833 0.195 1.474 0.652 1.922 1.372l7.041 11.366 25.301-15.758c0.719-0.447 1.496-0.574 2.33-0.379 0.834 0.193 1.475 0.651 1.922 1.37l3.261 5.244c0.446 0.721 0.573 1.498 0.379 2.332z" clip-path="url(#a)" fill="#fff" opacity=".4"/>
	<path d="m1347.3 597.04c-2.305-1.092-4.62-1.146-6.945-0.163l-2.813-1.441c-1.149-0.589-1.97-1.367-2.464-2.336-0.493-0.97-0.461-2 0.099-3.092 2.533-4.944 4.668-6.971 6.404-6.081 0.084 0.043 0.313 0.346 0.688 0.909s0.904 1.211 1.591 1.942c0.686 0.731 1.442 1.308 2.269 1.731 0.938 0.48 1.952 0.797 3.041 0.948-0.336 0.482-0.607 0.926-0.815 1.333-0.999 1.947-1.35 4.03-1.055 6.25zm8.247-17.548c0.512 1.589 0.388 3.125-0.373 4.609s-1.935 2.482-3.522 2.996c-1.589 0.512-3.126 0.387-4.609-0.373-1.485-0.761-2.483-1.935-2.996-3.523-0.512-1.589-0.388-3.125 0.373-4.609s1.935-2.482 3.522-2.995c1.589-0.512 3.125-0.388 4.609 0.373 1.485 0.759 2.484 1.934 2.996 3.522zm7.396 42.454c-0.86 1.681-2.052 2.744-3.572 3.195-1.521 0.449-3.129 0.239-4.824-0.629l-18.359-9.404c-1.693-0.868-2.804-2.052-3.327-3.549-0.523-1.496-0.355-3.085 0.506-4.766 0.381-0.742 0.775-1.454 1.188-2.136 0.411-0.683 0.9-1.396 1.467-2.139 0.566-0.745 1.141-1.409 1.725-1.995 0.582-0.585 1.233-1.113 1.952-1.585 0.719-0.471 1.443-0.816 2.174-1.034 0.731-0.219 1.521-0.286 2.372-0.204s1.703 0.342 2.557 0.78c0.142 0.072 0.365 0.376 0.673 0.914 0.309 0.538 0.647 1.137 1.017 1.793 0.369 0.659 0.947 1.379 1.731 2.16 0.783 0.782 1.652 1.417 2.604 1.904 0.953 0.488 1.975 0.822 3.067 1.001 1.093 0.18 2.014 0.229 2.765 0.144 0.749-0.084 1.433-0.158 2.05-0.223 0.616-0.064 0.994-0.061 1.135 0.012 0.854 0.438 1.562 0.978 2.126 1.619 0.564 0.643 0.971 1.323 1.221 2.044 0.249 0.721 0.394 1.511 0.431 2.369s-0.012 1.696-0.146 2.511c-0.135 0.815-0.338 1.67-0.611 2.564-0.272 0.895-0.566 1.707-0.879 2.44-0.316 0.735-0.662 1.471-1.043 2.214zm3.445-29.116c0.769 2.383 0.583 4.688-0.558 6.914s-2.902 3.724-5.285 4.491c-2.383 0.77-4.687 0.584-6.914-0.557s-3.724-2.903-4.492-5.286c-0.768-2.382-0.582-4.688 0.559-6.913 1.141-2.227 2.902-3.724 5.285-4.493s4.687-0.582 6.914 0.559c2.227 1.14 3.724 2.902 4.491 5.285zm13.359-0.942c0.512 1.589 0.388 3.126-0.372 4.61-0.761 1.484-1.936 2.482-3.524 2.995-1.588 0.512-3.125 0.388-4.609-0.373s-2.482-1.935-2.994-3.522c-0.513-1.589-0.389-3.125 0.372-4.609 0.761-1.485 1.935-2.483 3.523-2.996 1.588-0.512 3.124-0.388 4.608 0.373s2.482 1.935 2.996 3.522zm-4.239 18.781c-0.559 1.093-1.376 1.721-2.451 1.887-1.074 0.165-2.187-0.046-3.335-0.635l-2.814-1.441c-0.56-2.462-1.956-4.309-4.189-5.541 1.974-1.057 3.46-2.559 4.457-4.506 0.208-0.406 0.409-0.886 0.604-1.439 0.76 0.795 1.608 1.433 2.547 1.913 0.826 0.424 1.735 0.7 2.73 0.829 0.995 0.13 1.83 0.182 2.505 0.156 0.677-0.024 1.058-0.016 1.141 0.027 1.737 0.889 1.339 3.806-1.195 8.75z" clip-path="url(#a)" fill="#fff" opacity=".4"/>
</svg>
