<?xml version="1.0" encoding="UTF-8" standalone="no"?>
<svg width="231px" height="32px" viewBox="0 0 231 32" version="1.1" xmlns="http://www.w3.org/2000/svg" xmlns:xlink="http://www.w3.org/1999/xlink">
    <!-- Generator: Sketch 41.1 (35376) - http://www.bohemiancoding.com/sketch -->
    <title>ecouncilform_logo</title>
    <desc>Created with Sketch.</desc>
    <defs>
        <polygon id="path-1" points="5.42101086e-20 0.7664 5.42101086e-20 21.915479 21.1488 21.915479 21.1488 0.7664 0 0.7664"></polygon>
        <polygon id="path-3" points="0.0646 22 29.7236 22 29.7236 0.8503 0.0646 0.8503"></polygon>
    </defs>
    <g id="Home" stroke="none" stroke-width="1" fill="none" fill-rule="evenodd">
        <g id="Desktop-HD" transform="translate(-29.000000, -43.000000)">
            <g id="menu_desktop">
                <g id="ecouncilform_logo" transform="translate(29.000000, 43.000000)">
                    <g id="Group-3" transform="translate(0.000000, 9.639600)">
                        <mask id="mask-2" fill="white">
                            <use xlink:href="#path-1"></use>
                        </mask>
                        <g id="Clip-2"></g>
                        <path d="M4.5078,9.2344 L16.6828,9.2344 C15.7988,6.2854 13.1018,4.9374 10.5738,4.9374 C7.7518,4.9374 5.3928,6.7494 4.5078,9.2344 M21.1488,11.3404 C21.1488,12.4784 20.2218,13.4054 19.0428,13.4054 L4.5078,13.4054 C5.3928,15.9334 7.7518,17.7444 10.5738,17.7444 C11.5438,17.7444 13.2708,17.6604 15.2928,16.3544 C16.2618,15.7224 17.5678,16.3124 18.0728,17.3234 C18.5788,18.3764 18.0308,19.4724 17.0628,20.1044 C14.2818,21.9574 12.1328,21.9154 10.5738,21.9154 C4.7178,21.9154 -0.0002,17.1544 -0.0002,11.3404 C-0.0002,5.4844 4.7178,0.7664 10.5738,0.7664 C15.6718,0.7664 21.1488,4.4744 21.1488,11.3404" id="Fill-1" fill="#F37721" mask="url(#mask-2)"></path>
                    </g>
                    <path d="M22.5938,21.0229 C22.5938,15.1669 27.3128,10.4479 33.1268,10.4479 C36.9178,10.4479 40.4148,12.4709 42.3108,15.7139 C42.9008,16.7259 42.5208,17.9889 41.5518,18.5789 C40.5408,19.1269 39.2778,18.7899 38.6878,17.8209 C37.5498,15.8409 35.4438,14.6189 33.1268,14.6189 C29.6298,14.6189 26.7228,17.4839 26.7228,21.0229 C26.7228,24.5199 29.6298,27.4259 33.1268,27.4259 C35.3168,27.4259 37.3398,26.3309 38.5188,24.4779 C39.1508,23.5079 40.4568,23.2559 41.4258,23.8459 C42.3948,24.4779 42.6478,25.7829 42.0158,26.7519 C40.0778,29.7859 36.7498,31.5969 33.1268,31.5969 C27.3128,31.5969 22.5938,26.8359 22.5938,21.0229" id="Fill-4" fill="#26A9E0"></path>
                    <path d="M48.4746,20.9804 C48.4746,24.4774 51.3396,27.3844 54.8786,27.3844 C58.4176,27.3844 61.2826,24.4774 61.2826,20.9804 C61.2826,17.4414 58.4176,14.5774 54.8786,14.5774 C51.3396,14.5774 48.4746,17.4414 48.4746,20.9804 M44.3036,20.9804 C44.3036,15.1244 49.0646,10.4064 54.8786,10.4064 C60.7346,10.4064 65.4526,15.1244 65.4526,20.9804 C65.4526,26.7944 60.7346,31.5554 54.8786,31.5554 C49.0646,31.5554 44.3036,26.7944 44.3036,20.9804" id="Fill-6" fill="#26A9E0"></path>
                    <path d="M84.9761,12.5126 L84.9761,23.0866 L84.9761,23.1296 C84.9341,27.8056 81.1421,31.5966 76.4241,31.5966 C71.7471,31.5966 67.9551,27.8056 67.9141,23.1296 L67.9141,23.0866 L67.9141,12.5126 C67.9141,11.3746 68.8401,10.4486 69.9781,10.4486 C71.1571,10.4486 72.0841,11.3746 72.0841,12.5126 L72.0841,23.0446 C72.0841,25.4466 74.0221,27.4266 76.4241,27.4266 C78.8671,27.4266 80.8051,25.4466 80.8051,23.0446 L80.8051,12.5126 C80.8051,11.3746 81.7321,10.4486 82.9121,10.4486 C84.0491,10.4486 84.9761,11.3746 84.9761,12.5126" id="Fill-8" fill="#26A9E0"></path>
                    <path d="M108.9058,20.9804 L108.9058,29.4484 C108.9058,30.6284 107.9788,31.5554 106.7998,31.5554 C105.6618,31.5554 104.7358,30.6284 104.7358,29.4484 L104.7358,20.9804 C104.7358,17.4414 101.8708,14.5774 98.3318,14.5774 C94.7928,14.5774 91.9278,17.4414 91.9278,20.9804 L91.9278,29.4484 C91.9278,30.6284 91.0008,31.5554 89.8218,31.5554 C88.6838,31.5554 87.7568,30.6284 87.7568,29.4484 L87.7568,20.9804 C87.7568,15.1244 92.5178,10.4064 98.3318,10.4064 C104.1458,10.4064 108.9058,15.1244 108.9058,20.9804" id="Fill-10" fill="#26A9E0"></path>
                    <path d="M111.084,21.0229 C111.084,15.1669 115.803,10.4479 121.617,10.4479 C125.408,10.4479 128.905,12.4709 130.801,15.7139 C131.391,16.7259 131.011,17.9889 130.042,18.5789 C129.031,19.1269 127.768,18.7899 127.178,17.8209 C126.04,15.8409 123.934,14.6189 121.617,14.6189 C118.12,14.6189 115.213,17.4839 115.213,21.0229 C115.213,24.5199 118.12,27.4259 121.617,27.4259 C123.807,27.4259 125.83,26.3309 127.009,24.4779 C127.641,23.5079 128.947,23.2559 129.916,23.8459 C130.885,24.4779 131.138,25.7829 130.506,26.7519 C128.568,29.7859 125.24,31.5969 121.617,31.5969 C115.803,31.5969 111.084,26.8359 111.084,21.0229" id="Fill-12" fill="#26A9E0"></path>
                    <path d="M133.7041,29.4907 L133.7041,12.5127 C133.7041,11.3747 134.6311,10.4487 135.8101,10.4487 C136.9481,10.4487 137.8751,11.3747 137.8751,12.5127 L137.8751,29.4907 C137.8751,30.6707 136.9481,31.5967 135.8101,31.5967 C134.6311,31.5967 133.7041,30.6707 133.7041,29.4907 M134.3361,5.6457 C133.9561,5.2657 133.7041,4.7187 133.7041,4.1707 C133.7041,3.6237 133.9561,3.0757 134.3361,2.6967 C134.7151,2.3177 135.2631,2.0647 135.8101,2.0647 C136.3581,2.0647 136.9061,2.3177 137.2851,2.6967 C137.6641,3.0757 137.8751,3.6237 137.8751,4.1707 C137.8751,4.7187 137.6641,5.2657 137.2851,5.6457 C136.9061,6.0247 136.3581,6.2357 135.8101,6.2357 C135.2631,6.2357 134.7151,6.0247 134.3361,5.6457" id="Fill-14" fill="#26A9E0"></path>
                    <path d="M141.248,29.4907 L141.248,2.0647 C141.248,0.9277 142.175,-0.0003 143.354,-0.0003 C144.492,-0.0003 145.419,0.9277 145.419,2.0647 L145.419,29.4907 C145.419,30.6707 144.492,31.5967 143.354,31.5967 C142.175,31.5967 141.248,30.6707 141.248,29.4907" id="Fill-16" fill="#26A9E0"></path>
                    <path d="M165.6392,12.4707 C165.6392,13.6497 164.7122,14.5767 163.5332,14.5767 L159.8252,14.5767 L159.8252,29.4487 C159.8252,30.6287 158.8982,31.5547 157.7192,31.5547 C156.5812,31.5547 155.6552,30.6287 155.6552,29.4487 L155.6552,14.5767 L153.3372,14.5767 C152.2002,14.5767 151.2732,13.6497 151.2732,12.4707 C151.2732,11.3327 152.2002,10.4067 153.3372,10.4067 L155.6552,10.4067 C155.6122,7.4147 156.7082,4.6767 158.7302,2.6547 C159.8682,1.5167 161.1732,0.6747 162.6902,0.1687 C163.7432,-0.2523 164.9652,0.3377 165.3442,1.4327 C165.7232,2.4857 165.1762,3.7077 164.0802,4.0867 C163.1962,4.3817 162.3952,4.8877 161.6792,5.6037 C160.4152,6.8667 159.8252,8.5107 159.8252,10.4067 L163.5332,10.4067 C164.7122,10.4067 165.6392,11.3327 165.6392,12.4707" id="Fill-18" fill="#26A9E0"></path>
                    <path d="M169.3647,20.9804 C169.3647,24.4774 172.2297,27.3844 175.7687,27.3844 C179.3077,27.3844 182.1727,24.4774 182.1727,20.9804 C182.1727,17.4414 179.3077,14.5774 175.7687,14.5774 C172.2297,14.5774 169.3647,17.4414 169.3647,20.9804 M165.1937,20.9804 C165.1937,15.1244 169.9547,10.4064 175.7687,10.4064 C181.6247,10.4064 186.3437,15.1244 186.3437,20.9804 C186.3437,26.7944 181.6247,31.5554 175.7687,31.5554 C169.9547,31.5554 165.1937,26.7944 165.1937,20.9804" id="Fill-20" fill="#26A9E0"></path>
                    <path d="M201.2021,12.5126 C201.2021,13.6496 200.2751,14.6186 199.0961,14.6186 C195.5561,14.6186 192.6921,17.4836 192.6921,21.0226 L192.6921,29.4906 C192.6921,30.6286 191.7651,31.5966 190.6271,31.5966 C189.4481,31.5966 188.5211,30.6286 188.5211,29.4906 L188.5211,21.0226 C188.5211,15.1666 193.2821,10.4486 199.0961,10.4486 C200.2751,10.4486 201.2021,11.3746 201.2021,12.5126" id="Fill-22" fill="#26A9E0"></path>
                    <g id="Group-26" transform="translate(201.000000, 9.639600)">
                        <mask id="mask-4" fill="white">
                            <use xlink:href="#path-3"></use>
                        </mask>
                        <g id="Clip-25"></g>
                        <path d="M29.6816,9.4453 C29.7236,9.5293 29.7236,9.5713 29.7236,9.6553 L29.7236,19.8933 C29.7236,21.0723 28.7546,22.0003 27.6176,22.0003 C26.4796,22.0003 25.5536,21.0723 25.5536,19.8933 L25.5536,9.6553 L25.5536,9.4453 L25.5536,9.2773 C25.5536,6.9173 23.6156,5.0213 21.2556,5.0213 C18.8966,5.0213 16.9586,6.9173 16.9586,9.2773 L16.9586,19.8933 C16.9586,21.0723 16.0316,22.0003 14.8946,22.0003 C13.7566,22.0003 12.7876,21.0723 12.7876,19.8933 L12.7876,9.2773 C12.7876,6.9173 10.8916,5.0213 8.5326,5.0213 C6.1736,5.0213 4.2356,6.9173 4.2356,9.2773 L4.2356,19.8933 C4.2356,21.0723 3.3086,22.0003 2.1716,22.0003 C0.9916,22.0003 0.0646,21.0723 0.0646,19.8933 L0.0646,9.2773 C0.0646,4.6423 3.8566,0.8503 8.5326,0.8503 C11.0606,0.8503 13.3356,1.9463 14.8946,3.7583 C16.4526,1.9463 18.7276,0.8503 21.2556,0.8503 C25.9316,0.8503 29.7236,4.6423 29.7236,9.2773 C29.7236,9.3613 29.7236,9.4033 29.6816,9.4453" id="Fill-24" fill="#26A9E0" mask="url(#mask-4)"></path>
                    </g>
                </g>
            </g>
        </g>
    </g>
</svg>