<?xml version="1.0" encoding="utf-8"?>
<!-- Generator: Adobe Illustrator 16.0.0, SVG Export Plug-In . SVG Version: 6.00 Build 0)  -->
<!DOCTYPE svg PUBLIC "-//W3C//DTD SVG 1.1//EN" "http://www.w3.org/Graphics/SVG/1.1/DTD/svg11.dtd">
<svg version="1.1" id="Layer_1" xmlns="http://www.w3.org/2000/svg" xmlns:xlink="http://www.w3.org/1999/xlink" x="0px" y="0px"
	 width="235.314px" height="235.315px" viewBox="0 0 235.314 235.315" enable-background="new 0 0 235.314 235.315"
	 xml:space="preserve">
<g>
	<circle fill="#6AB8AA" cx="116.944" cy="117.974" r="117.657"/>
	<g>
		<path fill="#FDDF66" stroke="#FBB03B" stroke-width="2" stroke-miterlimit="10" d="M158.314,155.242
			c0,3.906-3.167,7.073-7.073,7.073H29.388c-3.906,0-7.073-3.167-7.073-7.073v-47.854c0-3.906,3.167-7.073,7.073-7.073h121.854
			c3.906,0,7.073,3.167,7.073,7.073V155.242z"/>
		<path fill="#FFFFFF" d="M70.331,120.927c1.977,3.388,2.966,7.088,2.966,11.104c0,4.009-0.989,7.71-2.966,11.097
			c-1.978,3.393-4.66,6.075-8.048,8.051c-3.389,1.977-7.09,2.969-11.101,2.969c-4.013,0-7.712-0.992-11.1-2.969
			c-3.388-1.976-6.071-4.658-8.048-8.051c-1.978-3.387-2.966-7.088-2.966-11.097c0-4.016,0.988-7.716,2.966-11.104
			c1.977-3.386,4.66-6.067,8.048-8.046c3.388-1.974,7.087-2.966,11.1-2.966c4.011,0,7.712,0.992,11.101,2.966
			C65.671,114.859,68.354,117.541,70.331,120.927z M68.141,139.185c0.981-2.271,1.471-4.655,1.471-7.154
			c0-2.498-0.489-4.881-1.471-7.153c-0.978-2.275-2.287-4.235-3.929-5.874c-1.642-1.641-3.599-2.952-5.874-3.931
			c-2.273-0.98-4.658-1.474-7.155-1.474c-2.495,0-4.88,0.493-7.155,1.474c-2.273,0.979-4.232,2.29-5.874,3.931
			c-1.641,1.639-2.95,3.599-3.931,5.874c-0.979,2.272-1.469,4.655-1.469,7.153c0,2.499,0.49,4.884,1.469,7.154
			c0.98,2.275,2.29,4.234,3.931,5.873c1.642,1.643,3.601,2.952,5.874,3.932c2.275,0.979,4.66,1.466,7.155,1.466
			c2.497,0,4.882-0.486,7.155-1.466c2.275-0.979,4.232-2.289,5.874-3.932C65.854,143.419,67.163,141.46,68.141,139.185z
			 M46.417,122.055c0.722,0.716,1.081,1.586,1.081,2.604c0,1.017-0.359,1.887-1.081,2.608c-0.72,0.717-1.589,1.079-2.604,1.079
			c-1.018,0-1.887-0.362-2.606-1.079c-0.719-0.722-1.081-1.592-1.081-2.608c0-1.018,0.362-1.888,1.081-2.604
			c0.72-0.722,1.589-1.082,2.606-1.082C44.828,120.973,45.697,121.333,46.417,122.055z M61.723,137.181
			c-0.712,2.323-2.036,4.199-3.975,5.617c-1.938,1.423-4.128,2.131-6.565,2.131c-2.438,0-4.626-0.708-6.564-2.131
			c-1.94-1.418-3.264-3.294-3.975-5.617c-0.153-0.476-0.116-0.938,0.115-1.393c0.231-0.453,0.596-0.758,1.095-0.906
			c0.479-0.153,0.945-0.118,1.396,0.115c0.451,0.229,0.754,0.594,0.906,1.093c0.48,1.533,1.369,2.776,2.664,3.728
			c1.295,0.953,2.75,1.43,4.362,1.43c1.613,0,3.067-0.477,4.362-1.43c1.297-0.951,2.184-2.194,2.664-3.728
			c0.154-0.499,0.459-0.864,0.922-1.093c0.459-0.233,0.93-0.269,1.41-0.115c0.479,0.148,0.834,0.453,1.065,0.906
			C61.836,136.243,61.875,136.705,61.723,137.181z M61.16,122.055c0.719,0.716,1.079,1.586,1.079,2.604
			c0,1.017-0.36,1.887-1.079,2.608c-0.721,0.717-1.588,1.079-2.605,1.079s-1.887-0.362-2.607-1.079
			c-0.719-0.722-1.078-1.592-1.078-2.608c0-1.018,0.359-1.888,1.078-2.604c0.721-0.722,1.59-1.082,2.607-1.082
			S60.439,121.333,61.16,122.055z"/>
		<path fill="#FFFFFF" d="M151.523,134.853v9.156c0,2.282-0.811,4.236-2.434,5.859c-1.621,1.621-3.574,2.434-5.858,2.434h-23.957
			c-2.285,0-4.239-0.812-5.86-2.434c-1.623-1.623-2.433-3.577-2.433-5.859v-23.956c0-2.285,0.81-4.238,2.433-5.859
			c1.621-1.623,3.575-2.433,5.86-2.433h23.957c1.209,0,2.331,0.24,3.368,0.718c0.289,0.134,0.46,0.355,0.519,0.664
			c0.058,0.324-0.029,0.603-0.261,0.833l-1.41,1.412c-0.191,0.191-0.412,0.291-0.661,0.291c-0.058,0-0.144-0.022-0.259-0.06
			c-0.443-0.117-0.874-0.177-1.296-0.177h-23.957c-1.268,0-2.353,0.45-3.254,1.357c-0.902,0.9-1.354,1.984-1.354,3.253v23.956
			c0,1.267,0.452,2.352,1.354,3.254c0.901,0.9,1.986,1.353,3.254,1.353h23.957c1.267,0,2.35-0.452,3.253-1.353
			c0.901-0.902,1.354-1.987,1.354-3.254v-7.313c0-0.251,0.086-0.46,0.26-0.633l1.842-1.841c0.191-0.194,0.412-0.289,0.662-0.289
			c0.116,0,0.23,0.027,0.346,0.085C151.332,134.173,151.523,134.451,151.523,134.853z M158.176,120.771l-23.44,23.439
			c-0.46,0.46-1.008,0.69-1.64,0.69c-0.635,0-1.182-0.23-1.643-0.69l-12.38-12.382c-0.462-0.463-0.691-1.01-0.691-1.64
			c0-0.636,0.229-1.183,0.691-1.646l3.165-3.165c0.464-0.461,1.008-0.691,1.643-0.691c0.633,0,1.18,0.23,1.643,0.691l7.572,7.571
			l18.629-18.629c0.461-0.458,1.008-0.689,1.642-0.689s1.181,0.231,1.643,0.689l3.167,3.168c0.46,0.458,0.689,1.009,0.689,1.642
			C158.865,119.763,158.636,120.312,158.176,120.771z"/>
		<path fill="#F15A24" stroke="#ED1C24" stroke-width="2" stroke-miterlimit="10" d="M160.314,82.239
			c0,4.082-3.122,7.076-7.361,7.076H31.305c-4.239,0-7.99-2.994-7.99-7.076V34.022c0-4.082,3.751-7.707,7.99-7.707h121.648
			c4.239,0,7.361,3.625,7.361,7.707V82.239z"/>
		<path fill="#FFFFFF" d="M70.331,47.836c1.977,3.385,2.966,7.087,2.966,11.101c0,4.009-0.989,7.709-2.966,11.097
			c-1.978,3.395-4.66,6.076-8.048,8.052c-3.389,1.976-7.09,2.969-11.101,2.969c-4.013,0-7.712-0.993-11.1-2.969
			s-6.071-4.657-8.048-8.052c-1.978-3.388-2.966-7.088-2.966-11.097c0-4.014,0.988-7.716,2.966-11.101
			c1.977-3.389,4.66-6.071,8.048-8.046c3.388-1.977,7.087-2.969,11.1-2.969c4.011,0,7.712,0.992,11.101,2.969
			C65.671,41.765,68.354,44.447,70.331,47.836z M68.141,66.092c0.981-2.27,1.471-4.655,1.471-7.155c0-2.496-0.489-4.88-1.471-7.153
			c-0.978-2.274-2.287-4.234-3.929-5.873c-1.642-1.643-3.599-2.952-5.874-3.932c-2.273-0.979-4.658-1.472-7.155-1.472
			c-2.495,0-4.88,0.492-7.155,1.472c-2.273,0.979-4.232,2.289-5.874,3.932c-1.641,1.639-2.95,3.599-3.931,5.873
			c-0.979,2.273-1.469,4.657-1.469,7.153c0,2.5,0.49,4.886,1.469,7.155c0.98,2.274,2.29,4.233,3.931,5.874
			c1.642,1.643,3.601,2.951,5.874,3.931c2.275,0.981,4.66,1.466,7.155,1.466c2.497,0,4.882-0.484,7.155-1.466
			c2.275-0.979,4.232-2.288,5.874-3.931C65.854,70.325,67.163,68.366,68.141,66.092z M46.417,48.961
			c0.722,0.716,1.081,1.589,1.081,2.604c0,1.019-0.359,1.887-1.081,2.609c-0.72,0.715-1.589,1.079-2.604,1.079
			c-1.018,0-1.887-0.364-2.606-1.079c-0.719-0.723-1.081-1.591-1.081-2.609c0-1.015,0.362-1.888,1.081-2.604
			c0.72-0.722,1.589-1.079,2.606-1.079C44.828,47.882,45.697,48.239,46.417,48.961z M61.723,68.522
			c0.152,0.482,0.113,0.947-0.116,1.4c-0.231,0.447-0.587,0.751-1.065,0.907c-0.48,0.149-0.951,0.111-1.41-0.116
			c-0.463-0.231-0.768-0.595-0.922-1.095c-0.48-1.534-1.367-2.777-2.664-3.729c-1.295-0.951-2.749-1.427-4.362-1.427
			c-1.612,0-3.067,0.476-4.362,1.427s-2.184,2.194-2.664,3.729c-0.152,0.5-0.455,0.863-0.906,1.095
			c-0.451,0.228-0.918,0.266-1.396,0.116c-0.499-0.156-0.863-0.46-1.095-0.907c-0.231-0.453-0.269-0.918-0.115-1.4
			c0.711-2.317,2.034-4.192,3.975-5.608c1.938-1.423,4.126-2.135,6.564-2.135c2.438,0,4.628,0.712,6.565,2.135
			C59.687,64.33,61.011,66.205,61.723,68.522z M61.16,48.961c0.719,0.716,1.079,1.589,1.079,2.604c0,1.019-0.36,1.887-1.079,2.609
			c-0.721,0.715-1.588,1.079-2.605,1.079s-1.887-0.364-2.607-1.079c-0.719-0.723-1.078-1.591-1.078-2.609
			c0-1.015,0.359-1.888,1.078-2.604c0.721-0.722,1.59-1.079,2.607-1.079S60.439,48.239,61.16,48.961z"/>
	</g>
</g>
</svg>
