<?xml version="1.0" encoding="UTF-8"?>
<!DOCTYPE svg  PUBLIC '-//W3C//DTD SVG 1.1//EN'  'http://www.w3.org/Graphics/SVG/1.1/DTD/svg11.dtd'>
<svg width="235.31px" height="235.32px" enable-background="new 0 0 235.314 235.315" version="1.1" viewBox="0 0 235.314 235.315" xml:space="preserve" xmlns="http://www.w3.org/2000/svg">
	<circle cx="118.32" cy="117.34" r="117.66" fill="#EF8A88"/>
		<path d="m109.16 0.891c-3.293-0.405-6.23 1.942-6.635 5.234l-1.172 9.533 11.805 1.452 1.172-9.536c0.404-3.289-1.879-6.279-5.17-6.683zm-1.339 10.901c-2.565-0.316-4.394-2.65-4.077-5.221 0.315-2.567 2.652-4.392 5.219-4.077s4.391 2.651 4.076 5.22c-0.315 2.567-2.652 4.392-5.218 4.078z" fill="#C20B07"/>
		<path d="m158.38 209.92c-0.499 4.077-4.21 6.972-8.284 6.472l-132.82-16.315c-4.075-0.501-6.974-4.21-6.472-8.287l21.574-175.62c0.501-4.075 4.211-6.972 8.285-6.473l132.82 16.318c4.076 0.501 6.973 4.209 6.473 8.284l-21.575 175.62z" fill="#0071BC"/>
		<path d="m151.51 204.88c-0.179 1.468-1.515 2.511-2.981 2.33l-127.51-15.664c-1.467-0.179-2.51-1.515-2.328-2.982l20.559-167.35c0.18-1.467 1.515-2.51 2.981-2.329l127.51 15.664c1.469 0.18 2.51 1.515 2.33 2.981l-20.559 167.35z" fill="#fff"/>
		<path d="m142.88 31.247l-73.789-9.066-0.044 0.371c0.748-6.113 7.92-9.89 16.071-8.888l44.272 5.44c8.15 1 14.194 6.398 13.442 12.511l0.048-0.368z" fill="#F8442B"/>
		<text transform="matrix(.9925 .1219 -.1219 .9925 45.461 56.918)" font-family="'FontAwesome'" font-size="17.842"><tspan x="0" y="0" fill="#57C6B6"> </tspan><tspan x="21.029" y="-0.001" fill="#FBB03B" letter-spacing="1"></tspan><tspan x="0" y="21.411" fill="#57C6B6"> </tspan><tspan x="18.48" y="21.41" fill="#FBB03B" letter-spacing="1"></tspan><tspan x="0.001" y="42.821" fill="#57C6B6"> </tspan><tspan x="18.48" y="42.821" fill="#FBB03B" letter-spacing="1"></tspan><tspan x="0" y="64.232" fill="#57C6B6"> </tspan><tspan x="18.48" y="64.232" fill="#FBB03B" letter-spacing="1"></tspan><tspan x="0" y="85.643" fill="#57C6B6"> </tspan><tspan x="18.48" y="85.643" fill="#FBB03B" letter-spacing="1"></tspan></text>
	<path d="m218.2 130.7l-0.016 28.932c0 0.933-0.437 1.587-1.299 1.96-0.863 0.375-1.652 0.21-2.36-0.5l-8.042-8.056-42.121 42.077c-0.443 0.446-0.953 0.665-1.529 0.664-0.578 0-1.086-0.221-1.528-0.668l-15.488-15.501-27.681 27.653-12.761-12.775 38.924-38.884c0.442-0.445 0.954-0.665 1.53-0.665 0.577 0 1.086 0.221 1.532 0.665l15.485 15.5 30.875-30.836-8.043-8.053c-0.709-0.712-0.874-1.493-0.5-2.361 0.38-0.866 1.033-1.299 1.965-1.298l28.93 0.016c0.621 0 1.131 0.2 1.527 0.604 0.399 0.4 0.6 0.905 0.6 1.526z" fill="#FDDF66"/>
</svg>
