<?xml version="1.0" encoding="utf-8"?>
<!-- Generator: Adobe Illustrator 16.0.0, SVG Export Plug-In . SVG Version: 6.00 Build 0)  -->
<!DOCTYPE svg PUBLIC "-//W3C//DTD SVG 1.1//EN" "http://www.w3.org/Graphics/SVG/1.1/DTD/svg11.dtd">
<svg version="1.1" id="Layer_1" xmlns="http://www.w3.org/2000/svg" xmlns:xlink="http://www.w3.org/1999/xlink" x="0px" y="0px"
	 width="235.314px" height="235.315px" viewBox="0 0 235.314 235.315" enable-background="new 0 0 235.314 235.315"
	 xml:space="preserve">
<g>
	<circle fill="#FFFFFF" cx="117.63" cy="117.658" r="117.657"/>
	<g>
		<g>
			<path fill="#26A9E0" d="M163.301,0.71c6.221,1.613,43.754,79.712,40.386,97.94c-1.714,9.276-11.167,19.5-24.833,44.5
				c-7.584,13.873-9.334,19.332-23.334,17.164c-22.934-3.551-24.728-7.896-27.166-17.999c-2.334-9.665-3.59-13.906-9.168-16.332
				c-5.053-2.198-29.131-14.292-40.332-7.5c-42.334,25.665-46.346,20.972-50.334,11.665c-9-21-20.5-50.5-12.649-60.588
				c7.882-10.127,47.464-44.168,52.972-47.583C104.854-0.35,110.687,2.15,114.02,2.484c10.746,1.075,21.816,1.938,19.523,6.663
				c-2.023,4.17-10.023,13.503-7.909,16.622c2.686,3.963,21.292,13.799,25.886,12.215c4.834-1.667,8.167-27.667,9-35
				C160.771,0.775,161.859,0.336,163.301,0.71z"/>
			<path fill="#26A9E0" d="M143.617,170.012c-1.08-5.078,1.744-5.775,4.345-4.779c2.918,1.117,6.456,2.607,11.246,4.922
				c6.28,3.034,3.613,4.848-2.179,10.531c-6.584,6.461-8.023,7.419-9.606,4.406C146.064,182.508,144.836,175.75,143.617,170.012z"/>
		</g>
	</g>
	<path fill="#F37721" d="M231.775,92.442l-9.109,22.541c-0.422,1.044-1.146,1.782-2.17,2.218c-1.025,0.436-2.061,0.441-3.105,0.02
		l-37.564-15.182c-1.043-0.423-1.783-1.146-2.219-2.171c-0.434-1.026-0.442-2.06-0.02-3.104l9.11-22.542
		c0.421-1.041,1.144-1.78,2.169-2.215c1.025-0.436,2.059-0.442,3.105-0.02l1.25,0.505l3.037-7.515
		c1.941-4.8,5.328-8.225,10.165-10.279c4.835-2.053,9.651-2.106,14.452-0.166c4.799,1.939,8.226,5.326,10.277,10.162
		c2.051,4.838,2.107,9.654,0.168,14.455l-3.037,7.513l1.252,0.506c1.043,0.423,1.783,1.147,2.219,2.171
		C232.189,90.367,232.197,91.4,231.775,92.442z M200.736,75.529l20.035,8.098l3.037-7.514c1.117-2.766,1.094-5.523-0.07-8.27
		c-1.168-2.745-3.134-4.678-5.898-5.797c-2.768-1.117-5.522-1.093-8.268,0.072c-2.748,1.164-4.682,3.131-5.799,5.897L200.736,75.529
		z"/>
</g>
</svg>
