<?xml version="1.0" encoding="UTF-8"?>
<!DOCTYPE svg  PUBLIC '-//W3C//DTD SVG 1.1//EN'  'http://www.w3.org/Graphics/SVG/1.1/DTD/svg11.dtd'>
<svg width="235.31px" height="235.32px" enable-background="new 0 0 235.314 235.315" version="1.1" viewBox="0 0 235.314 235.315" xml:space="preserve" xmlns="http://www.w3.org/2000/svg">
	<circle cx="117.63" cy="117.66" r="117.66" fill="#fff"/>
		<g fill="#26A9E0">
			<path d="m163.3 0.71c6.221 1.613 43.754 79.712 40.386 97.94-1.714 9.276-11.167 19.5-24.833 44.5-7.584 13.873-9.334 19.332-23.334 17.164-22.934-3.551-24.728-7.896-27.166-17.999-2.334-9.665-3.59-13.906-9.168-16.332-5.053-2.198-29.131-14.292-40.332-7.5-42.334 25.665-46.346 20.972-50.334 11.665-9-21-20.5-50.5-12.649-60.588 7.882-10.127 47.464-44.168 52.972-47.583 36.011-22.327 41.844-19.827 45.177-19.493 10.746 1.075 21.816 1.938 19.523 6.663-2.023 4.17-10.023 13.503-7.909 16.622 2.686 3.963 21.292 13.799 25.886 12.215 4.834-1.667 8.167-27.667 9-35 0.251-2.209 1.339-2.648 2.781-2.274z"/>
			<path d="m143.62 170.01c-1.08-5.078 1.744-5.775 4.345-4.779 2.918 1.117 6.456 2.607 11.246 4.922 6.28 3.034 3.613 4.848-2.179 10.531-6.584 6.461-8.023 7.419-9.606 4.406-1.359-2.584-2.587-9.342-3.806-15.08z"/>
		</g>
	<path d="m231.78 92.442l-9.109 22.541c-0.422 1.044-1.146 1.782-2.17 2.218-1.025 0.436-2.061 0.441-3.105 0.02l-37.564-15.182c-1.043-0.423-1.783-1.146-2.219-2.171-0.434-1.026-0.442-2.06-0.02-3.104l9.11-22.542c0.421-1.041 1.144-1.78 2.169-2.215 1.025-0.436 2.059-0.442 3.105-0.02l1.25 0.505 3.037-7.515c1.941-4.8 5.328-8.225 10.165-10.279 4.835-2.053 9.651-2.106 14.452-0.166 4.799 1.939 8.226 5.326 10.277 10.162 2.051 4.838 2.107 9.654 0.168 14.455l-3.037 7.513 1.252 0.506c1.043 0.423 1.783 1.147 2.219 2.171 0.434 1.028 0.442 2.061 0.02 3.103zm-31.039-16.913l20.035 8.098 3.037-7.514c1.117-2.766 1.094-5.523-0.07-8.27-1.168-2.745-3.134-4.678-5.898-5.797-2.768-1.117-5.522-1.093-8.268 0.072-2.748 1.164-4.682 3.131-5.799 5.897l-3.037 7.514z" fill="#F37721"/>
</svg>
