<?xml version="1.0" encoding="utf-8"?>
<!-- Generator: Adobe Illustrator 16.0.0, SVG Export Plug-In . SVG Version: 6.00 Build 0)  -->
<!DOCTYPE svg PUBLIC "-//W3C//DTD SVG 1.1//EN" "http://www.w3.org/Graphics/SVG/1.1/DTD/svg11.dtd">
<svg version="1.1" id="Layer_1" xmlns="http://www.w3.org/2000/svg" xmlns:xlink="http://www.w3.org/1999/xlink" x="0px" y="0px"
	 width="235.315px" height="235.315px" viewBox="0 0 235.315 235.315" enable-background="new 0 0 235.315 235.315"
	 xml:space="preserve">
<g>
	<circle fill="#3D97BD" cx="117.863" cy="116.991" r="117.657"/>
	<path fill="#E6E6E6" d="M145.43,44.253c6.759,8.311,10.138,17.359,10.138,27.156c0,9.798-3.379,18.854-10.138,27.156
		c-6.754,8.311-15.935,14.862-27.533,19.682c-11.598,4.814-24.27,7.219-38.007,7.219c-3.942,0-8.022-0.222-12.248-0.674
		c-11.147,9.855-24.101,16.662-38.853,20.439c-2.76,0.788-5.971,1.404-9.629,1.856c-0.957,0.114-1.814-0.14-2.574-0.755
		c-0.76-0.625-1.256-1.438-1.478-2.457v-0.082c-0.169-0.221-0.185-0.565-0.046-1.011c0.145-0.45,0.197-0.737,0.173-0.845
		c-0.028-0.114,0.095-0.386,0.379-0.804c0.282-0.42,0.45-0.674,0.508-0.765c0.055-0.083,0.251-0.319,0.592-0.715
		c0.335-0.393,0.562-0.648,0.673-0.764c0.395-0.451,1.27-1.421,2.621-2.906c1.35-1.494,2.323-2.57,2.914-3.21
		c0.592-0.649,1.462-1.766,2.615-3.344c1.154-1.576,2.069-3.005,2.746-4.302c0.674-1.298,1.438-2.956,2.279-4.984
		c0.846-2.029,1.576-4.164,2.197-6.422c-8.84-5.009-15.809-11.202-20.904-18.582c-5.099-7.375-7.645-15.282-7.645-23.732
		c0-7.316,2-14.312,5.999-20.989c3.995-6.669,9.374-12.423,16.132-17.27c6.754-4.844,14.805-8.687,24.154-11.527
		c9.35-2.843,19.146-4.27,29.394-4.27c13.737,0,26.409,2.405,38.007,7.226C129.496,29.391,138.676,35.95,145.43,44.253z"/>
	<path fill="#FFFFFF" d="M108.108,88.362c11.598-4.82,24.269-7.226,38.008-7.226c10.247,0,20.045,1.429,29.393,4.27
		c9.35,2.841,17.4,6.685,24.154,11.528c6.758,4.844,12.137,10.601,16.131,17.27c4,6.675,6,13.672,6,20.989
		c0,8.448-2.547,16.356-7.646,23.732c-5.094,7.38-12.062,13.572-20.902,18.581c0.621,2.258,1.352,4.393,2.197,6.423
		c0.841,2.027,1.604,3.687,2.279,4.984c0.676,1.295,1.593,2.725,2.746,4.302c1.153,1.576,2.024,2.692,2.615,3.342
		c0.592,0.641,1.564,1.717,2.915,3.21c1.351,1.487,2.226,2.456,2.619,2.907c0.111,0.115,0.337,0.37,0.673,0.765
		c0.342,0.394,0.539,0.631,0.592,0.715c0.059,0.089,0.226,0.344,0.51,0.763c0.282,0.418,0.406,0.689,0.377,0.804
		c-0.023,0.108,0.029,0.396,0.172,0.847c0.141,0.443,0.125,0.788-0.045,1.01v0.083c-0.222,1.017-0.719,1.83-1.478,2.455
		c-0.759,0.616-1.618,0.871-2.574,0.755c-3.659-0.451-6.869-1.066-9.628-1.854c-14.752-3.778-27.707-10.586-38.854-20.44
		c-4.225,0.453-8.306,0.674-12.246,0.674c-13.739,0-26.41-2.405-38.008-7.218c-11.6-4.82-20.779-11.374-27.535-19.683
		c-6.757-8.303-10.137-17.359-10.137-27.155c0-9.797,3.38-18.846,10.137-27.156C87.329,99.734,96.508,93.175,108.108,88.362z"/>
	<path fill="#EF8A88" d="M146.114,156.095c-0.478,0-0.88-0.167-1.209-0.499l-17.158-16.551c-0.184-0.146-0.436-0.387-0.755-0.715
		c-0.321-0.329-0.83-0.932-1.526-1.802c-0.697-0.867-1.32-1.763-1.869-2.682c-0.551-0.914-1.041-2.022-1.473-3.326
		c-0.43-1.301-0.645-2.563-0.645-3.794c0-4.031,1.163-7.186,3.492-9.457c2.326-2.273,5.544-3.409,9.649-3.409
		c1.136,0,2.297,0.194,3.478,0.59c1.184,0.394,2.283,0.925,3.3,1.594c1.018,0.67,1.893,1.301,2.627,1.885
		c0.733,0.59,1.429,1.211,2.089,1.87c0.66-0.659,1.358-1.28,2.09-1.87c0.734-0.584,1.609-1.215,2.625-1.885
		c1.018-0.669,2.117-1.2,3.301-1.594c1.183-0.396,2.341-0.59,3.478-0.59c4.106,0,7.323,1.136,9.651,3.409
		c2.327,2.271,3.49,5.426,3.49,9.457c0,4.053-2.096,8.179-6.297,12.373l-17.127,16.496
		C146.993,155.928,146.59,156.095,146.114,156.095z"/>
	<g>
		<path fill="#FBB03B" d="M47.171,71.461c0-4.542,3.066-7.732,7.367-7.732c4.298,0,7.247,3.19,7.247,7.732
			c0,4.422-2.824,7.739-7.371,7.739C50.115,79.2,47.171,75.883,47.171,71.461z"/>
		<path fill="#FBB03B" d="M72.581,71.461c0-4.542,3.068-7.732,7.367-7.732s7.246,3.19,7.246,7.732c0,4.422-2.824,7.739-7.369,7.739
			C75.525,79.2,72.581,75.883,72.581,71.461z"/>
		<path fill="#FBB03B" d="M97.992,71.461c0-4.542,3.07-7.732,7.368-7.732c4.301,0,7.248,3.19,7.248,7.732
			c0,4.422-2.827,7.739-7.371,7.739C100.941,79.2,97.992,75.883,97.992,71.461z"/>
	</g>
</g>
</svg>
