<?xml version="1.0" encoding="utf-8"?>
<!-- Generator: Adobe Illustrator 16.0.0, SVG Export Plug-In . SVG Version: 6.00 Build 0)  -->
<!DOCTYPE svg PUBLIC "-//W3C//DTD SVG 1.1//EN" "http://www.w3.org/Graphics/SVG/1.1/DTD/svg11.dtd">
<svg version="1.1" id="Layer_1" xmlns="http://www.w3.org/2000/svg" xmlns:xlink="http://www.w3.org/1999/xlink" x="0px" y="0px"
	 width="235.314px" height="235.315px" viewBox="0 0 235.314 235.315" enable-background="new 0 0 235.314 235.315"
	 xml:space="preserve">
<g>
	<circle fill="#EF8A88" cx="118.315" cy="117.343" r="117.657"/>
	<g>
		<path fill="#C20B07" d="M109.16,0.891c-3.293-0.405-6.23,1.942-6.635,5.234l-1.172,9.533l11.805,1.452l1.172-9.536
			C114.734,4.285,112.451,1.295,109.16,0.891z M107.821,11.792c-2.565-0.316-4.394-2.65-4.077-5.221
			c0.315-2.567,2.652-4.392,5.219-4.077s4.391,2.651,4.076,5.22C112.724,10.281,110.387,12.106,107.821,11.792z"/>
		<path fill="#0071BC" d="M158.382,209.92c-0.499,4.077-4.21,6.972-8.284,6.472L17.278,200.077c-4.075-0.501-6.974-4.21-6.472-8.287
			L32.38,16.173c0.501-4.075,4.211-6.972,8.285-6.473l132.819,16.318c4.076,0.501,6.973,4.209,6.473,8.284L158.382,209.92z"/>
		<path fill="#FFFFFF" d="M151.511,204.881c-0.179,1.468-1.515,2.511-2.981,2.33L21.021,191.547
			c-1.467-0.179-2.51-1.515-2.328-2.982L39.252,21.212c0.18-1.467,1.515-2.51,2.981-2.329L169.74,34.547
			c1.469,0.18,2.51,1.515,2.33,2.981L151.511,204.881z"/>
		<path fill="#F8442B" d="M142.882,31.247l-73.789-9.066l-0.044,0.371c0.748-6.113,7.92-9.89,16.071-8.888l44.272,5.44
			c8.15,1,14.194,6.398,13.442,12.511L142.882,31.247z"/>
		<text transform="matrix(0.9925 0.1219 -0.1219 0.9925 45.4609 56.918)"><tspan x="0" y="0" fill="#57C6B6" font-family="'FontAwesome'" font-size="17.8423"> </tspan><tspan x="21.029" y="-0.001" fill="#FBB03B" font-family="'FontAwesome'" font-size="17.8423" letter-spacing="1"></tspan><tspan x="0" y="21.411" fill="#57C6B6" font-family="'FontAwesome'" font-size="17.8423"> </tspan><tspan x="18.48" y="21.41" fill="#FBB03B" font-family="'FontAwesome'" font-size="17.8423" letter-spacing="1"></tspan><tspan x="0.001" y="42.821" fill="#57C6B6" font-family="'FontAwesome'" font-size="17.8423"> </tspan><tspan x="18.48" y="42.821" fill="#FBB03B" font-family="'FontAwesome'" font-size="17.8423" letter-spacing="1"></tspan><tspan x="0" y="64.232" fill="#57C6B6" font-family="'FontAwesome'" font-size="17.8423"> </tspan><tspan x="18.48" y="64.232" fill="#FBB03B" font-family="'FontAwesome'" font-size="17.8423" letter-spacing="1"></tspan><tspan x="0" y="85.643" fill="#57C6B6" font-family="'FontAwesome'" font-size="17.8423"> </tspan><tspan x="18.48" y="85.643" fill="#FBB03B" font-family="'FontAwesome'" font-size="17.8423" letter-spacing="1"></tspan></text>
	</g>
	<path fill="#FDDF66" d="M218.195,130.698l-0.016,28.932c0,0.933-0.437,1.587-1.299,1.96c-0.863,0.375-1.652,0.21-2.36-0.5
		l-8.042-8.056l-42.121,42.077c-0.443,0.446-0.953,0.665-1.529,0.664c-0.578,0-1.086-0.221-1.528-0.668l-15.488-15.501
		l-27.681,27.653l-12.761-12.775l38.924-38.884c0.442-0.445,0.954-0.665,1.53-0.665c0.577,0,1.086,0.221,1.532,0.665l15.485,15.5
		l30.875-30.836l-8.043-8.053c-0.709-0.712-0.874-1.493-0.5-2.361c0.38-0.866,1.033-1.299,1.965-1.298l28.93,0.016
		c0.621,0,1.131,0.2,1.527,0.604C217.994,129.572,218.195,130.077,218.195,130.698z"/>
</g>
</svg>
